<svg version="1.1" id="Layer_1___02B3F0Yc" xmlns="http://www.w3.org/2000/svg" xmlns:xlink="http://www.w3.org/1999/xlink" x="0px" y="0px" width="1417.32px" height="1417.32px" viewBox="0 0 1417.32 1417.32" enable-background="new 0 0 1417.32 1417.32" xml:space="preserve">
<g>
	<path fill-rule="evenodd" clip-rule="evenodd" class="colour1" fill="#009FDA" d="M724.007,1317.825c-30.062,0.913-59.489,7.134-89.24,10.64
		c-19.845,2.338-39.741,4.246-59.628,6.206c-24.375,2.402-48.557,6.208-72.751,9.894c-8.776,1.339-17.522,1.946-26.378,1.989
		c-3.988,0.019-4.838-1.368-4.853-5.146c-0.099-24.189,2.296-48.348,1.133-72.533c-0.998-20.757-2.188-41.51-4.239-62.205
		c-0.754-7.611-1.131-15.271-1.384-22.919c-1.033-31.192-3.021-62.337-6.313-93.35c-1.461-13.761-5.326-27.264-8.09-40.886
		c-2.588-12.754-0.038-25.429,0.587-38.135c0.788-16.022,6.027-31.045,10.146-46.343c3.058-11.357,1.098-22.583-2.379-33.592
		c-6.854-21.698-10.639-43.893-9.285-66.662c0.848-14.258,1.889-28.521,4.163-42.692c2.509-15.632-1.157-30.863-4.907-45.938
		c-6.436-25.875-6.287-52.06-4.417-78.413c0.588-8.28,3.082-16.209,3.678-24.39c0.964-13.233-2.278-25.955-8.226-37.543
		c-11.714-22.827-11.931-46.569-8.586-71.186c3.275-24.106,6.926-48.114,13.614-71.506c11.458-40.072,26.169-78.959,43.652-116.809
		c18.986-41.104,43.256-79.325,64.703-119.087c9.25-17.149,16.984-34.995,25.167-52.637c0.715-1.542,0.731-3.411,1.071-5.128
		c2.709-4.628,6.685-7.918,11.085-10.861c15.915-10.641,31.391-21.896,46.764-33.305c4.938-3.664,9.049-8.69,15.349-10.38
		c3.969,9.92,4.22,20.526,0.48,29.929c-5.538,13.926-12.415,27.401-20.742,40.056c-9.261,14.073-18.116,28.417-26.943,42.769
		c-8.186,13.308-11.571,28.542-17.075,42.943c-11.271,29.491-8.5,59.44-4.555,89.383c3.343,25.376,17.958,45.18,35.001,63.264
		c2.793,2.964,3.382,5.538,2.392,9.419c-2.75,10.781-7.002,21.428-7.405,32.515c-0.933,25.681-1.304,51.413,4.53,76.768
		c2.889,12.553,7.069,23.242,19.826,29.938c20.765,10.9,42.179,17.425,65.741,17.057c12.323-0.193,24.691-0.67,36.998,0.771
		c-2.751,0.061-5.555,0.488-8.241,0.102c-4.902-0.707-6.006,1.376-5.735,5.862c0.579,9.617,0.834,19.257,1.066,28.891
		c0.818,34.022,2.121,68.038,0.432,102.078c-1.687,33.974-1.598,68.006-2.105,101.998c-0.808,54.102-1.533,108.237-0.18,162.344
		c0.482,19.293,1.902,38.686-0.961,57.725c-3.108,20.658-1.725,41.165-1.306,61.75c0.623,30.67,2.182,61.335,2.124,92
		C727.732,1260.939,727.396,1289.47,724.007,1317.825z"></path>
	<path fill-rule="evenodd" clip-rule="evenodd" class="colour2" fill="#262262" d="M829.341,76.835c-22.21,3.779-45.303,2.438-66.543,11.894
		c-11.091,4.938-22.247,9.655-32.902,15.552c-14.571,8.064-29.48,15.517-44.099,23.498c-10.453,5.706-21.452,10.417-31.354,17.128
		c-6.299,1.69-10.411,6.716-15.349,10.38c-15.374,11.409-30.85,22.664-46.764,33.305c-4.401,2.943-8.376,6.233-11.085,10.861
		c1.588-11.199,3.231-22.391,4.741-33.599c0.731-5.42,4.535-8.616,8.35-11.654c15.821-12.597,32.229-24.372,50.351-33.489
		C684.87,100.496,725.2,80.54,767.708,65.556c15.834-5.582,32.067-10.024,48.917-11.773c6.04-0.627,10.104,1.083,12.569,6.873
		c2.593,6.086,7.903,10.75,9.426,17.45C835.527,77.683,832.434,77.259,829.341,76.835z"></path>
	<g>
		<path fill-rule="evenodd" clip-rule="evenodd" class="colour1" fill="#009FDA" d="M724.007,1317.825c3.389-28.355,3.726-56.886,3.778-85.356
			c0.058-30.665-1.501-61.33-2.124-92c-0.419-20.585-1.803-41.092,1.306-61.75c2.863-19.039,1.443-38.432,0.961-57.725
			c-1.354-54.106-0.628-108.242,0.18-162.344c0.508-33.992,0.419-68.024,2.105-101.998c1.689-34.04,0.387-68.056-0.432-102.078
			c-0.232-9.634-0.487-19.274-1.066-28.891c-0.271-4.485,0.833-6.568,5.735-5.862c2.687,0.386,5.49-0.042,8.244-0.102
			c3.144-0.06,6.287-0.041,9.422-0.193c13.048-0.635,26.079-1.576,39.101,0.617c14.015,2.36,28.185,2.762,42.34,2.251
			c16.508-0.597,32.852-2.697,48.599-7.987c6.825-2.293,13.639-5.769,15.995-12.806c4.092-12.214,8.104-24.678,8.697-37.658
			c1.454-31.801,4.201-63.528,5.594-95.304c0.542-12.373,4.291-20.773,12.833-29.537c23.036-23.631,35.369-52.645,36.047-85.759
			c0.577-28.34-6.034-55.62-15.521-82.204c-0.466-1.306-1.609-2.364,0.301-3.328c7.647,11.711,12.571,24.774,18.41,37.372
			c12.933,27.907,22.708,56.801,26.993,87.419c2.829,20.22,2.527,40.483,0.294,60.62c-3.09,27.877-6.243,55.817-12.749,83.16
			c-3.942,16.574-10.032,32.674-13.389,49.344c-8.513,42.295-17.219,84.568-23.187,127.346c-3.989,28.59-8.391,57.126-11.346,85.843
			c-1.709,16.612-3.034,33.29-3.759,49.972c-2.012,46.372-4.345,92.732-3.964,139.187c0.327,39.971,3.282,79.695,8.193,119.354
			c6.321,51.049,14.968,101.713,23.513,152.411c5.38,31.925,9.759,64.018,14.601,96.033c0.234,1.547,0.513,3.097,0.923,4.604
			c1.087,3.993-0.49,6.287-4.288,7.636c-6.663,2.365-13.406,2.425-20.334,1.584c-44.456-5.391-86.823-19.28-129.611-31.528
			c-28.501-8.158-57.534-14.018-86.797-18.743C727.703,1319.116,725.871,1318.368,724.007,1317.825z"></path>
		<path fill-rule="evenodd" clip-rule="evenodd" class="colour1" fill="#009FDA" d="M829.341,76.835c3.093,0.423,6.187,0.847,9.279,1.271
			c0,0-0.121-0.09-0.122-0.09c0.389,1.567,1.577,2.131,3.006,2.394c6.667,11.113,11.186,23.235,16.299,35.065
			c10.638,24.617,26.77,45.725,42.333,67.216c16.202,22.375,29.038,46.683,40.915,71.533c0.383,0.803,0.232,1.86,0.314,2.793
			c-2.982-3.374-5.684-7.035-8.975-10.05c-7.617-6.979-12.624-15.238-14.879-25.403c-2.13-9.609-7.65-17.588-14.085-24.806
			c-13.003-14.582-22.407-31.678-33.552-47.55c-5.19-7.392-9.896-15.365-16.332-21.504c-10.972-10.468-16.02-23.262-18.624-37.589
			C834.045,85.314,832.563,80.689,829.341,76.835z"></path>
	</g>
	<path fill-rule="evenodd" clip-rule="evenodd" class="colour1" fill="#009FDA" d="M945.801,271.14c-0.466-1.306-1.609-2.364,0.301-3.328
		c-1.584-3.601-3.166-7.201-4.75-10.802c-2.969-3.367-5.67-7.028-8.961-10.043c-7.617-6.979-12.624-15.238-14.879-25.403
		c-2.13-9.609-7.65-17.588-14.085-24.806c-13.003-14.582-22.407-31.678-33.552-47.55c-5.19-7.392-9.896-15.365-16.332-21.504
		c-10.972-10.468-16.02-23.262-18.624-37.589c-0.874-4.801-2.356-9.426-5.578-13.279c-22.21,3.779-45.303,2.438-66.543,11.894
		c-11.091,4.938-22.247,9.655-32.902,15.552c-14.571,8.064-29.48,15.517-44.099,23.498c-10.453,5.706-21.452,10.417-31.354,17.128
		c3.969,9.92,4.22,20.526,0.48,29.929c-5.538,13.926-12.415,27.401-20.742,40.056c-9.261,14.073-18.116,28.417-26.943,42.769
		c-8.186,13.308-11.571,28.542-17.075,42.943c-11.271,29.491-8.5,59.44-4.555,89.383c3.343,25.376,17.958,45.18,35.001,63.264
		c2.793,2.964,3.382,5.538,2.392,9.419c-2.75,10.781-7.002,21.428-7.405,32.515c-0.933,25.681-1.304,51.413,4.53,76.768
		c2.889,12.553,7.069,23.242,19.826,29.938c20.765,10.9,42.179,17.425,65.741,17.057c12.323-0.193,24.691-0.67,37.001,0.771
		c3.144-0.06,6.287-0.041,9.422-0.193c13.048-0.635,26.079-1.576,39.101,0.617c14.015,2.36,28.185,2.762,42.34,2.251
		c16.508-0.597,32.852-2.697,48.599-7.987c6.825-2.293,13.639-5.769,15.995-12.806c4.092-12.214,8.104-24.678,8.697-37.658
		c1.454-31.801,4.201-63.528,5.594-95.304c0.542-12.373,4.291-20.773,12.833-29.537c23.036-23.631,35.369-52.645,36.047-85.759
		C961.898,325.003,955.287,297.724,945.801,271.14z"></path>
	<path fill-rule="evenodd" clip-rule="evenodd" fill="#9D9E86" d="M530.325,400.337c-0.898-0.116-1.796-0.231-2.694-0.348
		c4.584-14.431,11.683-27.733,19.185-40.91C541.319,372.833,535.822,386.584,530.325,400.337z"></path>
	<path fill-rule="evenodd" clip-rule="evenodd" fill="#9D9E86" d="M983.769,461.748c-0.81-0.03-1.618-0.06-2.427-0.091
		c1.656-14.101,3.313-28.202,4.969-42.302c0.657,0.019,1.313,0.038,1.972,0.057C987.143,433.563,987.375,447.86,983.769,461.748z"></path>
	<path fill-rule="evenodd" clip-rule="evenodd" fill="#BCBDBE" d="M988.282,419.412c-0.658-0.019-1.314-0.038-1.972-0.057
		c0.135-17.959-1.031-35.826-3.706-53.599C987.008,383.378,989.296,401.218,988.282,419.412z"></path>
	<path fill-rule="evenodd" clip-rule="evenodd" fill="#BCBDBE" d="M555.04,338.968c0.038,2.785-0.539,5.353-2.958,8.022
		c-0.422-3.688,1.334-5.821,2.997-7.989L555.04,338.968z"></path>
	<path fill-rule="evenodd" clip-rule="evenodd" fill="#BCBDBE" d="M549.017,355.112c-0.238,0.282-0.496,0.866-0.904,1.003
		c-0.653,0.221-1.049-0.326-0.867-0.928c0.143-0.467,0.528-1.044,0.947-1.205C548.963,353.688,548.962,354.394,549.017,355.112z"></path>
	<path fill-rule="evenodd" clip-rule="evenodd" fill="#BCBDBE" d="M462.246,480.936c-0.091-0.397-0.211-0.726-0.212-1.055
		c0-0.084,0.378-0.168,0.583-0.253c0.034,0.172,0.137,0.37,0.086,0.512C462.608,480.405,462.424,480.637,462.246,480.936z"></path>
	<path fill-rule="evenodd" clip-rule="evenodd" fill="#BCBDBE" d="M555.078,339.001c0.124-0.492,0.248-0.984,0.372-1.477
		c1.031,0.813-0.063,1.023-0.411,1.444L555.078,339.001z"></path>
	<path fill-rule="evenodd" clip-rule="evenodd" fill="#9D9E86" d="M967.887,480.075c0.101,0.351,0.238,0.685,0.271,1.028
		c0.012,0.122-0.23,0.269-0.356,0.404c-0.101-0.333-0.242-0.662-0.279-1.001C967.51,480.382,967.748,480.232,967.887,480.075z"></path>
	<g>
		<path fill-rule="evenodd" clip-rule="evenodd" class="colour2" fill="#262262" d="M970.528,1360.09c-7.09-37.383-10.995-75.265-17.542-112.735
			c-0.164-0.452-0.326-0.904-0.49-1.357c-0.199-0.763-0.399-1.526-0.599-2.288c-6.832-15.799-14.427-31.206-22.343-46.504
			c-8.136-15.72-18.54-29.743-29.157-43.71c-0.608,0.599-1.216,1.197-1.824,1.796c2.773,6.258,8.702,10.893,10.044,18.038
			c-73.737-67.308-136.162-142.978-178.939-234.035c-30.3,42.621-56.459,86.636-93.509,122.88
			c-36.736,35.938-75.633,69.052-116.204,100.35c-0.421-0.395-0.843-0.789-1.265-1.184c10.467-13.225,20.935-26.449,31.402-39.675
			c0-0.001-0.001-0.001-0.002-0.002c0.333-0.052,0.59-0.221,0.767-0.511c-0.625-0.535-1.247-1.07-1.87-1.607
			c-0.265,0.195-0.405,0.456-0.418,0.786c-6.179,3.39-9.732,9.435-14.056,14.549c-8.729,10.325-18.607,19.449-28.23,28.852
			c-17.109,16.72-31.321,35.126-35.262,59.628c-0.084,0.524-0.556,0.984-0.848,1.475c0.694,14.509,1.56,29.013,2.045,43.529
			c0.81,24.199-0.564,48.379-1.199,72.56c-0.131,4.986,1.555,5.605,5.878,5.674c10.291,0.16,20.417-1.2,30.457-2.919
			c36.38-6.228,73.117-9.527,109.754-13.589c23.011-2.551,45.903-5.854,68.826-9.017c14.469-1.996,28.944-4.32,43.796-1.75
			c29.351,5.078,58.529,10.869,87.208,18.916c40.677,11.412,80.714,25.293,122.989,30.331c8.631,1.029,17.013,2.616,25.551-0.239
			C969.661,1366.934,971.43,1364.838,970.528,1360.09z"></path>
		<path fill-rule="evenodd" clip-rule="evenodd" class="colour2" fill="#262262" d="M499.862,1135.457c3.018-4.226,6.652-8.271,8.577-13.595
			c-2.424-0.349-3.44,0.934-4.505,2.013c-6.479,6.561-13.84,12.322-18.479,20.555c-0.729,1.294-1.722,3.175-3.546,2.31
			c-2.078-0.987-0.63-2.789-0.043-4.042c2.167-4.626,4.352-9.254,6.81-13.728c8.104-14.749,19.933-26.816,29.407-40.567
			c12.332-17.899,26.15-34.74,37.622-53.24c-0.681-0.635-1.362-1.271-2.043-1.906c-8.444,10.522-19.677,18.122-29.024,27.698
			c-0.643,3.887-3.947,5.102-6.741,6.906c0.169-3.319,2.156-5.422,4.385-7.376c6.25-8.954,12.598-17.852,18.921-26.743
			c18.925-26.609,36.747-53.941,54.059-81.581c22.051-35.207,39.008-73.156,56.48-110.714
			c19.69-42.325,39.147-84.828,54.639-128.955c8.038-22.892,20.116-44.424,23.439-69.119c0.631,1.138,1.29,2.118,1.749,3.185
			c12.021,27.983,23.75,56.102,33.538,84.947c9.28,27.35,17.235,55.155,26.778,82.409c13.619,38.895,28.189,77.455,42.265,116.19
			c2.679,7.374,4.655,15.009,7.472,22.324c3.771,9.795,8.992,19.118,11.928,29.131c9.492,32.375,26.645,61.096,41.981,90.699
			c3.251,3.713,4.713,8.284,6.381,12.79c-3.694-3.069-6.228-6.878-8.081-11.163c-5.33-6.878-10.659-13.757-15.99-20.636
			c-0.752,0.14-1.505,0.279-2.257,0.42c0.656,1.623,1.075,3.397,2.005,4.845c8.296,12.911,15.448,26.463,22.413,40.107
			c9.915,19.425,20.696,38.438,28.489,58.892c3.098,5.184,4.422,11.053,6.439,16.654c0.754,1.631,2.155,3.11,1.15,5.479
			c-2.157-1.45-2.638-3.552-3.052-5.691c-2.475-5.372-4.948-10.745-7.423-16.116c-1.845-2.887-3.69-5.774-5.536-8.661
			c-0.531,0.505-1.063,1.011-1.593,1.517c7.632,16.08,14.552,32.454,20.47,49.248c3.483,9.887,7.1,19.728,10.655,29.588
			c-1.191-7.331-2.377-14.663-3.574-21.994c-5.431-33.265-10.196-66.62-14.547-100.048c-4.032-30.988-6.85-62.06-7.723-93.265
			c-1.064-38.049-0.639-76.111,1.085-114.147c0.942-20.808,1.714-41.624,2.887-62.419c1.605-28.46,3.518-56.901,5.299-85.351
			c0.02-9.048-0.891-18.129,0.964-27.112c0.022-5.911,0.044-11.822,0.066-17.734c-1.057-0.793-1.002-1.568,0.036-2.328
			c0.043-1.563,0.086-3.127,0.128-4.69c-0.078-3.998-1.115-8.079,1.046-11.879c0.032-0.391,0.065-0.781,0.099-1.172
			c-0.899-2.647,0.892-5.609-0.955-8.144c-0.089,0.751-0.178,1.502-0.267,2.254c0.238,2.049,0.764,4.145-0.93,5.889
			c-0.098,1.153-0.197,2.308-0.295,3.461c0.382,0.833,0.38,1.628-0.224,2.368c-1.232,6.164-1.044,12.413-1.115,18.647
			c0.332,9.576,1.214,19.17-0.864,28.674c-0.033,1.17-0.066,2.34-0.101,3.509c0.287,5.998,0.723,12.002-0.815,17.916
			c-0.924,12.839-1.828,25.679-2.81,38.513c-0.084,1.102-0.684,2.163-1.045,3.243c-1.098,24.502-2.516,48.995-3.196,73.508
			c-0.555,20.056-0.237,40.134-0.293,60.202c-0.021,8.006-0.003,16.011-0.442,24.021c-4.941-75.462-4.224-151.202-12.696-226.517
			c0,22.914-0.11,45.829,0.031,68.742c0.144,23.169,2.51,46.249,3.234,69.381c0.725,23.135,2.377,46.194,3.549,69.317
			c-1.952-11.718-3.92-23.415-4.364-35.303c-2.833-15.063-3.464-30.364-4.796-45.582c-0.426-4.86-1.79-9.692-0.944-14.641
			c-0.089-1.205-0.178-2.413-0.267-3.619c-1.449-2.609-1.311-5.394-0.902-8.205c-0.105-1.586-0.211-3.175-0.317-4.763
			c-1.393-3.049-1.232-6.233-0.822-9.438c-0.104-1.191-0.209-2.384-0.313-3.577c-1.294-2.654-1.311-5.431-0.79-8.258
			c-0.147-4.713-0.296-9.428-0.444-14.143c-1.576-5.844-0.914-11.795-0.848-17.716c-0.08-1.983-0.161-3.968-0.243-5.952
			c-1.372-5.047-1.357-10.174-0.876-15.326c-0.091-1.976-0.181-3.953-0.271-5.931c-1.362-3.074-1.416-6.246-0.707-9.473
			c-0.185-3.527-0.369-7.056-0.553-10.584c-1.237-3.115-1.282-6.25-0.148-9.401c-0.001-0.774-0.001-1.552-0.003-2.328
			c-0.121-0.295-0.276-0.583-0.34-0.89c-0.017-0.079,0.257-0.218,0.396-0.327c0.024-0.804,0.049-1.61,0.072-2.415
			c-0.872-0.775-0.745-1.519,0.07-2.239c0.09-1.976,0.179-3.951,0.268-5.927c-0.451-0.927-0.413-1.78,0.384-2.516
			c0.077-0.729,0.155-1.459,0.232-2.189c-0.767-0.494-0.568-0.901,0.114-1.263c0.687-5.246,1.131-10.537,2.102-15.729
			c3.674-19.652,9.685-38.796,12.768-58.584c2.352-15.097,6.57-29.708,10.907-44.351c4.562-15.399,11.239-29.999,15.882-45.333
			c-0.19-0.853,0.167-1.296,1.023-1.366l0.026-0.009c-0.47-1.219-1.597-1.138-2.594-1.312c-0.343,0.445-0.77,0.849-1.018,1.343
			c-8.16,16.273-15.98,32.68-22.459,49.737c-4.734,12.46-10.23,24.784-12.817,37.783c-3.413,17.158-8.597,33.758-13.61,50.405
			c-7.005,23.254-11.619,46.83-12.718,71.089c0.99,7.68-0.688,15.222-1.074,22.828c-0.638,12.567-0.719,25.174,0.015,37.764
			c0.113,1.936-0.17,3.894-0.27,5.842c0.034,1.037,0.07,2.073,0.104,3.11c0.059,0.485,0.119,0.972,0.179,1.457
			c0.064,1.158,0.129,2.316,0.192,3.475c0.169,0.276,0.362,0.543,0.482,0.839c0.023,0.056-0.238,0.229-0.369,0.348
			c0.12,1.115,0.241,2.231,0.361,3.348c0.592,0.407,0.676,0.908,0.274,1.496c0.151,2.729,0.302,5.46,0.454,8.19
			c1.126,1.104,1.166,2.278,0.232,3.516c0.095,0.744,0.188,1.489,0.283,2.235c0.761,0.797,0.701,1.656,0.192,2.548
			c0.823,8.606,1.332,17.258,2.531,25.813c2.7,19.268,5.74,38.488,8.644,57.729c4.865,30.369,12.935,60.023,20.086,89.882
			c6.921,28.906,14.043,57.768,19.538,86.992c0.376,2.002,0.274,4.093,0.36,6.148c0.021,0.079,0.043,0.159,0.064,0.238
			c0.004,0.03,0.003,0.062,0.006,0.092c1.37,0.904,1.351,2.106,0.67,3.596c-1.096-1.125-0.554-2.426-0.67-3.596
			c-0.022-0.015-0.038-0.031-0.062-0.046c-0.005-0.095-0.005-0.189-0.009-0.284c-3.138-11.59-6.22-23.196-9.429-34.769
			c-9.557-34.466-22.243-67.901-33.528-101.799c-10.665-32.035-21.045-64.187-29.477-96.886
			c-5.414-20.996-10.316-42.17-12.671-63.812c-0.181-1.664-0.852-3.274-1.94-4.753c2.571,62.65,18.708,122.539,36.959,182.062
			c-20.423-59.542-43.546-118.005-65.669-176.828c-21.039-62.333-42.096-124.669-63.064-187.036
			c-0.846-2.515-1.656-3.877-4.697-3.886c-9.436-0.027-18.874-0.354-28.304-0.75c-3.498-0.147-5.231,1.057-6.268,4.563
			c-5.349,18.085-11.176,36.031-16.433,54.143c-7.886,27.17-16.852,53.909-28.564,79.723c-9.667,21.309-20.49,42.021-31.111,62.844
			c-10.497,20.455-20.418,41.232-31.667,61.265c-9.483,16.891-18.014,34.356-29.655,50.064c-7.31,9.865-12.803,21.049-20.181,30.952
			c-0.8,1.075-1.338,2.42-4.379,2.715c15.626-26.305,31.706-51.515,40.404-80.35c8.636-28.629,18.077-57.035,23.203-87.68
			c-3.607,4.278-4.427,8.728-5.767,12.829c-10.636,32.564-25.298,63.485-39.04,94.751c-6.713,15.273-17.103,28.622-26.727,42.265
			c-11.791,16.713-21.09,35.014-32.794,51.755c-13.63,19.5-26.387,39.472-37.147,60.726c-4.916,9.709-7.28,19.859-7.381,30.613
			c-0.125,13.181-0.112,26.363-0.16,39.537c1.694,29.972,3.389,59.949,5.085,89.925c0.414-1.688,1.022-3.356,1.211-5.069
			C473.438,1185.797,482.862,1159.261,499.862,1135.457z M936.72,1181.555c2.373,1.104,2.109,2.761,2.143,4.888
			C936.997,1184.969,936.509,1183.581,936.72,1181.555z M903.174,1086.939c0.409,0.353,0.819,0.706,1.175,1.012
			c-0.09,0.524-0.115,1.18-0.218,1.191c-0.93,0.11-1.178-0.66-1.375-1.326C902.688,1087.585,903.022,1087.236,903.174,1086.939z
			 M880.497,990.595c0.369,0.378,0.815,0.713,1.068,1.156c0.097,0.17-0.25,0.592-0.395,0.898c-0.382-0.297-0.764-0.594-1.109-0.863
			C880.255,991.257,880.376,990.926,880.497,990.595z M515.71,1068.904c0.533-0.294,0.991,0.062,1.127,0.993
			c-0.446,0.342-0.968,0.878-1.603,1.155c-0.212,0.092-0.712-0.479-1.082-0.744C514.666,1069.83,515.114,1069.234,515.71,1068.904z
			 M512.509,1073.609c0.05-0.029,0.104-0.056,0.156-0.083c0.109-0.156,0.219-0.313,0.329-0.47c-0.022,0.104-0.012,0.243-0.075,0.305
			c-0.071,0.068-0.162,0.117-0.253,0.165c-0.033,0.046-0.065,0.093-0.097,0.139c-0.116,0.148-0.231,0.296-0.348,0.444
			C512.317,1073.942,512.414,1073.776,512.509,1073.609z M481.157,1147.249c-0.133,6.206-2.962,11.313-6.028,16.336
			C475.863,1157.665,477.127,1151.935,481.157,1147.249z M474.09,1166.525c0.092,0.053,0.184,0.107,0.276,0.16
			c-0.136,0.101-0.272,0.199-0.409,0.3C474.002,1166.832,474.045,1166.679,474.09,1166.525z"></path>
		<path fill-rule="evenodd" clip-rule="evenodd" class="colour2" fill="#262262" d="M485.403,897.076c0.015-0.021,0.028-0.041,0.043-0.061
			c0-0.002,0-0.003,0-0.005L485.403,897.076z"></path>
		<path fill-rule="evenodd" clip-rule="evenodd" class="colour2" fill="#262262" d="M467.312,1046.066c8.34-18.863,17.591-37.123,28.304-54.879
			c11.222-18.601,19.202-39.145,28.791-58.746c6.491-13.268,11.744-27.013,16.629-40.92c-0.073-4.571,1.717-8.644,3.418-12.738
			c5.307-17.79,12.869-34.849,17.39-52.884c4.592-18.323,7.885-36.894,10.427-55.625c2.455-18.08,6.212-35.984,6.958-53.27
			c-2.325,2.949-0.929,8.417-4.617,12.807c-0.458-1.424-0.835-2.1-0.868-2.792c-0.115-2.354-0.218-4.718-0.133-7.071
			c1.239-34.445-2.5-67.946-16.508-99.998c-12.401-28.375-17.972-58.515-20.448-89.283c-1.567-19.477-3.36-38.936-5.137-59.374
			c-1.204,23.247-0.429,45.536-0.582,67.816c-0.198,28.813,2.563,57.238,10.566,85.048c3.833,13.318,7.378,26.794,7.665,40.73
			c0.764,37.08-3.135,73.569-13.372,109.399c-8.453,29.589-19.033,58.323-32.022,86.159c-5.761,12.346-10.131,25.431-18.328,36.569
			c0.053,0.896,0.143,1.792-1.183,1.829c-0.922,0.025-0.481-0.736-0.704-1.112c-0.543,1.33-1.087,2.66-1.63,3.99
			c4.159-1.173,2.433,1.709,1.983,3.159c-1.565,5.044-3.095,10.127-5.156,14.976c-1.178,2.773-1.422,5.564-1.826,8.407
			c0.421,3.961-0.404,7.674-2.218,11.196c-0.472,11.999-4.157,23.095-9.417,33.75c-0.009,0.009-0.018,0.018-0.027,0.026
			c-0.001,0.013-0.002,0.024-0.003,0.037c0,0,0.059-0.091,0.058-0.09h0l0.001-0.001c-0.534,4.013-2.561,7.362-4.737,10.644
			c0.167-4.149,1.447-7.806,4.682-10.59c0.461-7.106,3.836-13.471,5.058-20.454c1.903-10.883,0.55-21.881,2.596-32.797
			c3.188-17.013,10.974-32.168,17.045-48.059c11.119-29.102,23.673-57.72,31.192-88.101c2.296-9.278,4.488-18.583,6.728-27.875
			c0.795-3.13,1.59-6.262,2.385-9.393c0.097-7.023,0.945-13.958,2.435-20.82c0-0.839,0.001-1.677,0.002-2.518
			c-2.056-3.053,1.572-7.213-2.2-10.68c-4.392,26.43-12.264,51.328-20.896,75.856c-10.16,28.871-24.598,56.026-36.668,84.157
			c-6.827,15.91-12.44,31.786-11.116,49.351c0.544,7.21,1.481,14.391,2.239,21.585c0.206,7.196,0.58,14.327-0.824,21.546
			c-1.276,6.562-4.548,12.431-5.654,18.977c0.576,0.359,1.153,0.717,1.728,1.074l0,0.001c-0.227,3.021-1.555,5.544-3.512,7.776
			c-0.184,0.502-0.37,1.01-0.555,1.517c0.023,0.239,0.075,0.479,0.053,0.713c-0.007,0.071-0.217,0.124-0.334,0.179
			c-1.828,11.091-2.707,22.278-3.291,33.497c3.347-2.658,2.876-7.066,4.767-10.39c1.036-1.819,1.382-4.077,4.562-6.275
			c-4.039,10.687-6.767,20.439-9.363,30.232c0.97,15.526,5.911,30.267,8.957,45.383c1.206-3.231,0.168-6.53-0.055-9.709
			C459.749,1066.652,462.802,1056.268,467.312,1046.066z M459.447,984.976c0.015-0.014,0.025-0.022,0.025-0.022L459.447,984.976z
			 M462.89,1006.369c0.007-0.028,0.015-0.057,0.021-0.085c0.089-0.129,0.179-0.258,0.269-0.388c-0.079,0.14-0.158,0.28-0.237,0.42
			C462.929,1006.335,462.907,1006.352,462.89,1006.369c-0.114,0.46-0.229,0.921-0.343,1.38
			C461.553,1006.983,462.524,1006.76,462.89,1006.369z"></path>
		<path fill-rule="evenodd" clip-rule="evenodd" class="colour2" fill="#262262" d="M456.298,909.07c-1.166-9.736-2.896-19.6-1.232-29.294
			c4.169-24.27,11.456-47.679,22.267-69.834c8.705-17.842,12.127-36.27,8.392-55.877c-0.3-1.938-0.588-3.877-0.9-5.812
			c-2.812-17.411-2.931-34.867,1.171-52.013c4.897-20.468,4.043-40.271-4.211-59.683c-0.402-0.643-0.883-1.251-1.186-1.938
			c-0.388-0.88-0.703-2.109-1.785-1.77c-0.438,0.137-0.414,1.746-0.6,2.685c-0.033,1.363,0.363,2.62,0.679,3.942
			c2.342,9.825,5.262,19.598,4.026,29.911c0.867,7.608-1.417,14.737-3.408,21.893c-4.811,17.284-7.215,34.596-5.196,52.754
			c1.662,14.934,1.468,30.286-2.388,44.997c-2.616,9.985-8.512,18.9-11.143,29.02c-2.301,8.854-4.873,17.636-7.325,26.449
			c-0.18,0.313-0.216,0.641-0.107,0.984c0.167,1.691,0.502,3.411-0.798,4.862c-0.328,3.687-0.693,7.372-0.979,11.062
			c-1.319,17.006,0.005,33.792,4.273,50.326C456.746,910.966,456.418,910.069,456.298,909.07z"></path>
		<path fill-rule="evenodd" clip-rule="evenodd" class="colour2" fill="#262262" d="M510.705,1121.124c-0.562-0.469-1.121-0.938-1.68-1.408
			C508.636,1121.32,509.051,1121.964,510.705,1121.124z"></path>
	</g>
	<g>
		<path fill-rule="evenodd" clip-rule="evenodd" class="colour4" fill="#bcbec0" d="M651.875,608.07c-11.242-5.077-11.022-5.213-11.549,7.407
			c-0.843,20.223-0.256,40.653-3.889,60.573c-11.033,60.5-30.316,117.986-65.243,169.34c-7.818,11.497-14.033,24.088-23.479,34.475
			c-0.493,4.881-3.405,8.375-6.682,11.658c-4.884,13.906-10.137,27.651-16.628,40.919c-9.589,19.602-17.569,40.146-28.791,58.746
			c-10.712,17.756-19.964,36.016-28.304,54.879c-4.509,10.201-7.563,20.586-6.766,31.945c0.223,3.179,1.261,6.478,0.055,9.709
			c1.114,14.045,2.228,28.09,3.343,42.141c0.048-13.174,0.035-26.356,0.16-39.537c0.101-10.754,2.465-20.904,7.381-30.613
			c10.76-21.254,23.517-41.226,37.147-60.726c11.704-16.741,21.003-35.042,32.794-51.755c9.624-13.643,20.014-26.991,26.727-42.265
			c13.742-31.266,28.404-62.187,39.04-94.751c1.34-4.102,2.16-8.551,5.767-12.829c-5.126,30.645-14.566,59.051-23.203,87.68
			c-8.699,28.835-24.778,54.045-40.404,80.35c3.041-0.295,3.58-1.64,4.379-2.715c7.377-9.903,12.871-21.087,20.181-30.952
			c11.641-15.708,20.171-33.174,29.655-50.064c11.248-20.032,21.169-40.81,31.667-61.29c-1.337-2.825-0.021-5.445,0.707-8.02
			c7.012-24.799,13.178-49.842,16.561-75.37c5.381-40.606,5.8-81.453,3.723-122.344C656.048,611.214,655.052,609.504,651.875,608.07
			z"></path>
		<path fill-rule="evenodd" clip-rule="evenodd" class="colour4" fill="#bcbec0" d="M455.849,911.734c1.328,10.95,5.404,21.19,8.219,31.757
			c-0.758-7.194-1.695-14.375-2.239-21.585c-1.324-17.564,4.289-33.44,11.116-49.351c12.07-28.131,26.508-55.286,36.668-84.157
			c8.632-24.528,16.505-49.427,20.896-75.856c3.772,3.467,0.144,7.627,2.2,10.68c1.195-1.716,0.978-3.74,1.27-5.666
			c1.536-10.139,0.621-20.374,1.247-30.547c0.927-15.047-0.896-29.69-5.977-43.951c-6.979-19.594-12.234-39.658-14.267-60.395
			c-2.534-25.846-2.468-51.764-1.075-77.685c1.053-19.6,2.876-39.1,5.674-58.553c2.263-15.726,6.044-30.987,10.744-46.088
			c-0.898-0.116-1.796-0.231-2.694-0.348c-10.307,25.74-18.255,52.223-23.104,79.494c-5.156,28.999-9.688,58.09-10.75,87.662
			c-0.94,26.165-0.137,52.085,5.49,77.726c3.525,16.064,3.475,31.892-1.953,47.672c-6.356,18.477-10.391,37.452-10.247,57.135
			c0.012,1.605-0.154,3.15-1.342,4.387c3.735,19.607,0.313,38.035-8.392,55.877c-10.811,22.155-18.098,45.564-22.267,69.834
			c-1.665,9.694,0.066,19.558,1.232,29.294C456.418,910.069,456.746,910.966,455.849,911.734z"></path>
		<path fill-rule="evenodd" clip-rule="evenodd" class="colour4" fill="#bcbec0" d="M909.53,1014.463c-7.151-29.858-15.221-59.513-20.086-89.882
			c-0.349-0.475-0.834-0.898-1.025-1.43c-9.154-25.457-19.043-50.688-27.086-76.492c-3.848-12.346-7.493-24.889-10.358-37.631
			c-7.998-35.566-18.814-70.523-21.341-107.201c-1.565-22.727-4.771-45.323-5.633-68.113c-0.425-11.238-0.472-10.959-11.754-11.491
			c-4.691-0.221-5.599,1.668-5.766,5.631c-0.934,22.152-0.612,44.359-0.028,66.455c0.964,36.486,3.85,72.939,8.242,109.224
			c0.303,2.496,1.021,5.103-1.021,7.285c22.123,58.823,45.246,117.286,65.669,176.828c-18.251-59.522-34.388-119.411-36.959-182.062
			c1.089,1.479,1.76,3.089,1.94,4.753c2.354,21.642,7.257,42.815,12.671,63.812c8.432,32.699,18.812,64.851,29.477,96.886
			c11.285,33.897,23.972,67.333,33.528,101.799c3.208,11.571,6.29,23.176,9.429,34.765c-0.086-2.055,0.016-4.145-0.36-6.145
			C923.573,1072.23,916.451,1043.369,909.53,1014.463z"></path>
		<path fill-rule="evenodd" clip-rule="evenodd" class="colour4" fill="#bcbec0" d="M929.494,1107.842c-0.021-0.081-0.044-0.162-0.065-0.242
			c0.004,0.096,0.004,0.192,0.009,0.288c0.023,0.015,0.039,0.031,0.062,0.046C929.496,1107.903,929.497,1107.873,929.494,1107.842
			L929.494,1107.842z"></path>
		<path fill-rule="evenodd" clip-rule="evenodd" class="colour4" fill="#bcbec0" d="M981.342,461.657c-1.918,9.043-4.222,17.958-7.323,26.702
			c-12.733,35.897-30.083,70.054-39.418,107.262c-6.023,24.006-13.998,47.517-20.383,71.441c-6.79,25.441-8.686,51.383-7.573,77.776
			c1.53,36.353-0.427,72.81,2.69,109.14c1.792,17.653,2.293,35.366,2.432,53.096c0.445,11.888,2.413,23.585,4.365,35.303
			c-1.172-23.123-2.824-46.183-3.549-69.317c-0.725-23.132-3.091-46.212-3.234-69.381c-0.142-22.913-0.031-45.828-0.031-68.742
			c8.473,75.314,7.755,151.055,12.696,226.517c0.439-8.011,0.421-16.016,0.442-24.021c0.056-20.068-0.262-40.146,0.293-60.202
			c0.681-24.513,2.099-49.006,3.196-73.508c-0.433-14.765,0.105-29.504,1.208-44.227c-0.375-16.324-1.302-32.66-1.003-48.975
			c0.512-27.839,3.904-55.436,12.839-81.891c11.414-33.802,17.374-69.029,28.074-103.007c6.609-20.99,13.144-42.059,16.705-63.874
			C982.959,461.718,982.15,461.688,981.342,461.657z"></path>
		<path fill-rule="evenodd" clip-rule="evenodd" class="colour4" fill="#bcbec0" d="M453.46,844.5c2.452-8.813,5.024-17.596,7.325-26.449
			c2.63-10.119,8.527-19.034,11.143-29.02c3.855-14.711,4.049-30.063,2.388-44.997c-2.02-18.158,0.385-35.47,5.196-52.754
			c1.991-7.156,4.275-14.285,3.408-21.893c-2.174,12.018-7.168,23.171-10.625,34.793c-5.335,17.938-3.979,36.626-5.732,54.967
			c-1.662,17.382-2.581,34.809-7.668,51.756C455.634,821.766,452.974,832.934,453.46,844.5z"></path>
		<path fill-rule="evenodd" clip-rule="evenodd" class="colour4" fill="#bcbec0" d="M451.946,641.909c-3.524-10.251-5.603-20.794-6.741-31.608
			c-1.959-18.608,1.488-36.819,3.296-55.16c-0.659-0.393-1.317-0.786-1.976-1.18c-0.213,1.159-0.371,2.333-0.648,3.478
			c-7.142,29.469-7.778,58.673,2.567,87.706c4.099,11.503,4.063,23.605,2.042,35.583c-3.471,20.576-6.692,41.15-5.045,62.133
			c0.409-0.092,0.818-0.185,1.226-0.276c1.897-19.346,3.394-38.746,7.86-57.741C457.955,670.268,456.789,656,451.946,641.909z"></path>
		<path fill-rule="evenodd" clip-rule="evenodd" class="colour4" fill="#bcbec0" d="M485.446,897.011c-0.072-0.038-0.139-0.064-0.208-0.094
			c0.058,0.054,0.103,0.105,0.164,0.159C485.403,897.076,485.446,897.011,485.446,897.011z"></path>
		<path fill-rule="evenodd" clip-rule="evenodd" class="colour4" fill="#bcbec0" d="M527.584,762.207c0.418-2.057,1.488-4.108,0.303-6.255
			c-2.24,9.292-4.431,18.597-6.728,27.875c-7.519,30.381-20.073,58.999-31.192,88.101c-6.071,15.891-13.857,31.046-17.045,48.059
			c-2.045,10.916-0.693,21.914-2.596,32.797c-1.222,6.983-4.596,13.348-5.058,20.454c-3.235,2.784-4.516,6.44-4.682,10.59
			c2.177-3.281,4.203-6.631,4.737-10.643c-0.01,0.009-0.018,0.018-0.027,0.026c5.26-10.655,8.945-21.751,9.417-33.745
			c0.226-4.15-0.723-8.36,0.626-12.455c0.295-7.566,1.91-14.882,3.954-22.146c0.459-1.632,0.58-3.063,2.636-3.141
			c0.543-1.331,1.087-2.661,1.63-3.991c0.323-0.889,0.885-1.155,1.679-0.815c-3.112-2.876-0.34-5.569,0.656-8.072
			C502.371,847.479,518.669,806.061,527.584,762.207z"></path>
		<path fill-rule="evenodd" clip-rule="evenodd" class="colour4" fill="#bcbec0" d="M530.272,746.56c1.608-6.848,4.079-13.595,2.435-20.82
			C531.217,732.602,530.369,739.536,530.272,746.56z"></path>
		<path fill-rule="evenodd" clip-rule="evenodd" class="colour4" fill="#bcbec0" d="M455.805,992.865c1.958-2.232,3.286-4.755,3.514-7.776
			c-0.576-0.358-1.152-0.716-1.729-1.075C456.774,986.918,455.362,989.701,455.805,992.865z"></path>
		<path fill-rule="evenodd" clip-rule="evenodd" class="colour4" fill="#bcbec0" d="M452.555,850.347c1.3-1.451,0.965-3.171,0.798-4.862
			C452.129,846.947,452.426,848.66,452.555,850.347z"></path>
		<path fill-rule="evenodd" clip-rule="evenodd" class="colour4" fill="#bcbec0" d="M454.969,995.273c0.117-0.055,0.328-0.107,0.334-0.179
			c0.022-0.233-0.03-0.474-0.053-0.713C454.84,994.573,454.746,994.869,454.969,995.273z"></path>
		<path fill-rule="evenodd" clip-rule="evenodd" class="colour4" fill="#bcbec0" d="M880.497,990.595c-0.121,0.331-0.242,0.662-0.436,1.191
			c0.346,0.27,0.728,0.566,1.109,0.863c0.145-0.307,0.491-0.729,0.395-0.898C881.313,991.308,880.866,990.973,880.497,990.595z"></path>
		<path fill-rule="evenodd" clip-rule="evenodd" class="colour4" fill="#bcbec0" d="M929.499,1107.934c0.116,1.17-0.426,2.471,0.67,3.596
			C930.85,1110.04,930.869,1108.838,929.499,1107.934z"></path>
	</g>
	<g>
		<path fill-rule="evenodd" clip-rule="evenodd" class="colour3" fill="#d71920" d="M949.6,1229.53c-3.556-9.86-7.172-19.701-10.655-29.588
			c-5.918-16.794-12.838-33.168-20.471-49.247c-3.369-5.624-6.738-11.248-10.107-16.872c3.369,5.624,6.738,11.248,10.108,16.871
			c0.53-0.506,1.062-1.012,1.593-1.517c1.846,2.887,3.691,5.774,5.536,8.661c2.475,5.371,4.948,10.744,7.423,16.116
			c0.414,2.14,0.895,4.241,3.052,5.691c1.005-2.368-0.396-3.848-1.153-5.481c-2.015-5.599-3.339-11.468-6.437-16.651
			c-7.793-20.454-18.574-39.467-28.489-58.892c-6.965-13.645-14.117-27.196-22.413-40.107c-0.93-1.447-1.349-3.222-2.005-4.845
			c-1.649-2.145-3.165-4.36-4.439-6.702c1.275,2.341,2.79,4.557,4.439,6.702c0.752-0.141,1.505-0.28,2.257-0.42
			c5.331,6.879,10.66,13.758,15.99,20.638c0,0,0-0.001,0.001-0.001c1.854,4.285,4.386,8.093,8.08,11.162
			c-1.668-4.506-3.13-9.077-6.381-12.79c-15.337-29.604-32.489-58.324-41.981-90.699c-2.936-10.013-8.157-19.336-11.928-29.131
			c-2.816-7.315-4.793-14.95-7.472-22.324c-14.075-38.735-28.646-77.296-42.265-116.19c-9.543-27.254-17.498-55.06-26.778-82.409
			c-9.788-28.845-21.517-56.964-33.538-84.947c-0.459-1.067-1.118-2.047-1.749-3.185c-3.323,24.695-15.401,46.227-23.439,69.119
			c-15.492,44.127-34.949,86.63-54.639,128.955c-17.472,37.558-34.429,75.507-56.48,110.714
			c-17.312,27.64-35.134,54.972-54.059,81.581c-6.323,8.892-12.672,17.789-18.922,26.744c-2.229,1.954-4.215,4.056-4.384,7.375
			c2.794-1.805,6.099-3.02,6.741-6.906c9.347-9.576,20.58-17.176,29.023-27.698c1.264-2.488,3.118-4.392,5.31-6
			c-2.192,1.608-4.045,3.512-5.309,6c0.681,0.636,1.362,1.271,2.043,1.906c-11.472,18.5-25.291,35.341-37.622,53.24
			c-9.474,13.751-21.302,25.818-29.407,40.567c-2.458,4.474-4.643,9.102-6.81,13.728c-0.587,1.253-2.035,3.055,0.043,4.042
			c1.824,0.865,2.817-1.016,3.546-2.31c4.639-8.232,12.001-13.994,18.479-20.555c1.065-1.079,2.081-2.361,4.505-2.013
			c-1.925,5.323-5.559,9.369-8.577,13.595c-17,23.804-26.424,50.34-29.623,79.26c-0.189,1.713-0.797,3.381-1.211,5.069
			c-0.215,1.82-0.875,3.741,1.154,5.048c0.292-0.49,0.764-0.95,0.848-1.475c3.94-24.502,18.153-42.908,35.262-59.628
			c9.623-9.402,19.501-18.526,28.23-28.852c4.324-5.114,7.877-11.159,14.056-14.55c0.014-0.329,0.154-0.59,0.419-0.785
			c0.623,0.537,1.245,1.072,1.87,1.607c2.411-1.932,4.551-4.102,6.555-6.392c-2.002,2.29-4.143,4.46-6.553,6.393
			c-0.179,0.29-0.438,0.46-0.771,0.511c-10.462,13.227-20.93,26.451-31.397,39.676c0.421,0.395,0.843,0.789,1.265,1.184
			c40.571-31.298,79.468-64.412,116.204-100.35c37.05-36.244,63.209-80.259,93.509-122.88
			c42.777,91.058,105.202,166.728,178.939,234.035c-1.342-7.146-7.271-11.78-10.044-18.038c0.608-0.599,1.216-1.197,1.824-1.796
			c10.617,13.967,21.021,27.99,29.157,43.71c7.916,15.298,15.511,30.705,22.343,46.504
			C952.32,1238.789,951.751,1234.032,949.6,1229.53z M510.708,1121.124c-1.656,0.84-2.072,0.196-1.683-1.408
			c0.559,0.47,1.119,0.939,1.68,1.408c2.786-1.104,4.371-3.158,5.873-6.317C515.076,1117.966,513.491,1120.02,510.708,1121.124z
			 M550.649,1117.362c3.944-5.008,8.488-9.436,13.468-13.441c0.516-0.476,1.032-0.952,1.548-1.429
			c-0.516,0.477-1.032,0.953-1.547,1.432C559.138,1107.927,554.594,1112.354,550.649,1117.362z M573.346,1096.404
			c-1.651,3.359-4.851,5.429-7.375,8.061c-0.276,0.209-0.574,0.377-0.891,0.509l0,0c0.316-0.132,0.615-0.3,0.889-0.509
			C568.495,1101.833,571.695,1099.764,573.346,1096.404c0.236-0.479,0.44-0.985,0.606-1.523
			C573.786,1095.419,573.582,1095.925,573.346,1096.404z M868.095,1039.346c0.015,0.057,0.034,0.11,0.049,0.167
			c0.473,0.508,0.949,1.013,1.425,1.518c-0.476-0.505-0.952-1.01-1.425-1.518l0,0l-0.001-0.001
			C868.129,1039.455,868.109,1039.402,868.095,1039.346l-0.055,0.056c0.032,0.035,0.064,0.069,0.097,0.104
			c-0.033-0.035-0.064-0.07-0.098-0.104C868.04,1039.401,868.095,1039.346,868.095,1039.346z M869.667,1041.137
			c-0.024-0.026-0.048-0.052-0.072-0.078C869.619,1041.085,869.643,1041.11,869.667,1041.137z"></path>
		<path fill-rule="evenodd" clip-rule="evenodd" class="colour3" fill="#d71920" d="M456.445,1018.381c-1.891,3.323-1.42,7.731-4.767,10.39
			c-1.172,4.519,0.123,9.046-0.034,13.567c2.596-9.793,5.324-19.546,9.363-30.232
			C457.827,1014.304,457.481,1016.562,456.445,1018.381z"></path>
		<path fill-rule="evenodd" clip-rule="evenodd" class="colour3" fill="#d71920" d="M475.128,1163.585c3.066-5.022,5.896-10.13,6.028-16.336
			C477.127,1151.935,475.863,1157.665,475.128,1163.585z"></path>
		<path fill-rule="evenodd" clip-rule="evenodd" class="colour3" fill="#d71920" d="M938.862,1186.442c-0.033-2.127,0.23-3.784-2.143-4.888
			C936.509,1183.581,936.997,1184.969,938.862,1186.442z"></path>
		<path fill-rule="evenodd" clip-rule="evenodd" class="colour3" fill="#d71920" d="M515.235,1071.053c0.635-0.277,1.157-0.813,1.603-1.155
			c-0.136-0.932-0.594-1.287-1.127-0.993c-0.596,0.33-1.044,0.926-1.557,1.404C514.522,1070.574,515.022,1071.145,515.235,1071.053z
			"></path>
		<path fill-rule="evenodd" clip-rule="evenodd" class="colour3" fill="#d71920" d="M904.131,1089.143c0.103-0.012,0.128-0.667,0.218-1.191
			c-0.355-0.306-0.766-0.659-1.175-1.012c-0.151,0.297-0.486,0.646-0.418,0.877C902.953,1088.482,903.201,1089.253,904.131,1089.143
			z"></path>
		<path fill-rule="evenodd" clip-rule="evenodd" class="colour3" fill="#d71920" d="M474.09,1166.525c-0.044,0.153-0.088,0.307-0.132,0.46
			c0.136-0.101,0.272-0.199,0.409-0.3C474.274,1166.633,474.182,1166.578,474.09,1166.525z"></path>
		<path fill-rule="evenodd" clip-rule="evenodd" class="colour3" fill="#d71920" d="M512.994,1073.057c-0.109,0.157-0.219,0.313-0.329,0.47
			c0.092-0.048,0.183-0.097,0.254-0.165C512.982,1073.3,512.972,1073.16,512.994,1073.057z"></path>
		<path fill-rule="evenodd" clip-rule="evenodd" class="colour3" fill="#d71920" d="M512.665,1073.526c-0.052,0.027-0.105,0.054-0.155,0.083
			c-0.096,0.167-0.192,0.333-0.289,0.5c0.116-0.148,0.232-0.296,0.348-0.444C512.601,1073.619,512.633,1073.572,512.665,1073.526z"></path>
		<path fill-rule="evenodd" clip-rule="evenodd" class="colour3" fill="#d71920" d="M474.712,939.461c1.814-3.522,2.64-7.235,2.218-11.196
			c-0.53-0.417-1.061-0.836-1.592-1.254C473.989,931.105,474.938,935.315,474.712,939.461z"></path>
		<path fill-rule="evenodd" clip-rule="evenodd" class="colour3" fill="#d71920" d="M462.89,1006.369c0.017-0.018,0.039-0.034,0.053-0.053
			c0.079-0.14,0.158-0.28,0.237-0.42c-0.09,0.13-0.179,0.259-0.269,0.388C462.904,1006.313,462.897,1006.341,462.89,1006.369z"></path>
		<path fill-rule="evenodd" clip-rule="evenodd" class="colour3" fill="#d71920" d="M462.546,1007.749c0.115-0.459,0.229-0.92,0.343-1.38
			C462.524,1006.76,461.553,1006.983,462.546,1007.749z"></path>
	</g>
</g>
</svg>