<svg version="1.1" id="Layer_1___D15SeCOK" xmlns="http://www.w3.org/2000/svg" xmlns:xlink="http://www.w3.org/1999/xlink" x="0px" y="0px" width="1417.32px" height="1417.32px" viewBox="0 0 1417.32 1417.32" enable-background="new 0 0 1417.32 1417.32" xml:space="preserve">
<g>
	<path fill-rule="evenodd" clip-rule="evenodd" class="colour1" fill="#009FDA" d="M831.085,1344.267c-12.185,0.429-23.995,3.489-36.001,5.182
		c-19.797,2.793-39.633,5.05-59.577,6.499c-31.938,2.318-63.9,4.442-95.926,3.289c-32.539-1.172-65.064-2.737-97.525-5.571
		c-37.219-3.25-73.853-9.223-109.278-21.436c-4.436-1.53-8.759-3.484-12.945-5.618c-13.717-6.992-16.696-13.482-14.478-28.503
		c2.892-19.58,4.797-39.261,5.799-59.056c1.617-31.934,2.085-63.99,6.093-95.719c3.383-26.776,8.736-53.305,13.171-79.949
		c1.707-10.255,3.009-20.551,3.055-30.98c0.08-18.277,2.904-36.339,4.316-54.509c1.326-17.058,1.024-34.217-0.127-51.292
		c-0.423-6.289-0.64-12.56-0.604-18.831c0.094-16.324-1.325-32.407-4.419-48.505c-2.654-13.808-3.82-27.948-4.909-41.999
		c-1.504-19.398-3.749-38.669-9.662-57.236c-8.167-25.645-12.823-52.092-18.857-78.227c-4.75-20.577-12.183-40.165-22.267-58.728
		c-0.735-1.354-1.807-2.524-2.725-3.776c-1.938-4.907-3.846-9.83-5.815-14.727c-10.639-26.467-13.829-54.158-13.956-82.432
		c-0.067-14.942-0.118-29.815,1.99-44.682c1.207-8.512,2.653-17.188,1.24-25.831c-1.118-6.835-0.906-13.713-1.464-20.557
		c-1.748-21.428,5.512-41.431,9.426-61.985c3.105-16.306,9.875-30.852,18.594-44.797c15.026-24.034,33.613-44.606,55.155-63.162
		c25.937-22.341,51.833-44.627,80.388-63.538c14.918-9.879,28.266-21.195,39.171-35.388c1.509-1.964,2.696-4.397,5.393-5.18
		c0.83,14.656,9.324,23.766,22.048,29.224c12.012,5.152,25.09,5.911,37.873,7.372c18.241,2.084,36.283-0.186,54.313-3.359
		c27.993-4.929,55.457-11.51,81.731-22.598c14.459-6.102,27.94-14.042,41.646-21.573c3.798,3.081,7.944,5.824,11.328,9.306
		c9.177,9.447,18.235,18.984,28.104,27.742c12.207,10.832,23.826,22.242,33.787,35.271c27.214,35.593,46.464,75.311,60.184,117.708
		c14.355,44.363,28.45,88.742,52.365,129.228c5.387,9.118,9.918,18.808,17.12,26.656c5.872,6.399,10.979,12.929,12.753,21.729
		c0.559,2.763,2.482,5.3,3.996,7.812c3.819,6.332,7.762,12.591,11.655,18.878c-2.017,4.542-2.657,9.423-3.285,14.264
		c-2.985,22.999-5.353,46.089-8.873,69.004c-6.978,45.394-20.036,89.667-24.045,135.688c-1.866,21.429-7.889,42.395-7.029,64.291
		c0.928,23.673-4.527,46.895-6.782,70.353c-3.24,33.698-6.208,67.39-4.985,101.27c1.188,32.879,7.864,65.163,12.415,97.609
		c5.592,39.854,7.74,79.812,9.441,119.847c1.293,30.443,1.02,60.952,1.442,91.433c-1.753,1.612-4.113,1.02-6.154,1.667
		c-15.716,4.983-31.347,10.315-47.266,14.557c-23.092,6.15-46.56,10.747-70.063,15.081
		C862.402,1338.409,846.744,1341.338,831.085,1344.267z"></path>
	<path fill-rule="evenodd" clip-rule="evenodd" class="colour1" fill="#009FDA" d="M564.342,157.023c-2.697,0.783-3.884,3.216-5.393,5.18
		c-10.906,14.193-24.253,25.509-39.171,35.388c-28.555,18.911-54.451,41.197-80.388,63.538
		c-21.542,18.556-40.129,39.128-55.155,63.162c-8.719,13.945-15.489,28.491-18.594,44.797c-3.914,20.554-11.174,40.557-9.426,61.985
		c0.558,6.843,0.347,13.721,1.464,20.557c1.413,8.642-0.033,17.318-1.24,25.831c-2.108,14.867-2.057,29.74-1.99,44.682
		c0.126,28.274,3.316,55.965,13.956,82.432c1.969,4.897,3.876,9.82,5.815,14.727c-19.235,0.399-37.096-5.623-54.814-12.024
		c-21.006-7.589-42.162-14.959-61.122-27.131c-18.443-11.841-19.431-15.604-15.771-37.37c3.259-19.379,10.717-37.076,21.258-53.142
		c10.887-16.592,14.215-34.032,12.163-53.237c-3.793-35.501,3.921-69.04,17.984-101.391c5.549-12.765,11.643-25.273,17.955-37.691
		c12.318-24.231,29.243-44.328,50.547-61.319c15.882-12.667,34.357-20.421,51.478-30.695c21.456-12.874,45.668-18.431,68.788-26.928
		c28.236-10.377,55.396-23.025,80.217-40.284c2.712-1.886,5.356-3.996,8.643-4.92C569.143,141.122,566.742,149.072,564.342,157.023z
		"></path>
	<path fill-rule="evenodd" clip-rule="evenodd" class="colour1" fill="#009FDA" d="M1007.594,909.634c0.999-18.049,2.646-36.063,4.146-54.081
		c2.297-27.611,4.954-55.194,6.988-82.825c1.24-16.844,1.02-33.854,4.985-50.373c7.52-31.321,19.627-61.266,28.108-92.307
		c0.868-3.174,2.835-6.059,2.553-9.538c-3.815-3.835-2.465-9.101-3.69-13.648c-5.958-22.109-11.652-44.289-17.438-66.443
		c-2.017,4.542-2.657,9.423-3.285,14.264c-2.985,22.999-5.353,46.089-8.873,69.004c-6.978,45.394-20.036,89.667-24.045,135.688
		c-1.866,21.429-7.889,42.395-7.029,64.291c0.928,23.673-4.527,46.895-6.782,70.353c-3.24,33.698-6.208,67.39-4.985,101.27
		c1.188,32.879,7.864,65.163,12.415,97.609c5.592,39.854,7.74,79.812,9.441,119.847c1.293,30.443,1.02,60.952,1.442,91.433
		c-1.753,1.612-4.113,1.02-6.154,1.667c-15.716,4.983-31.347,10.315-47.266,14.557c-23.092,6.15-46.56,10.747-70.067,15.081
		c-15.654,2.929-31.313,5.857-46.977,8.786c21.34,1.476,42.67,3.18,64.029,4.364c21.652,1.201,43.268-0.255,64.807-2.407
		c16.598-1.659,33.217-3.284,49.567-6.84c9.368-2.037,19.163-12.178,19.248-20.621c0.083-8.259,0.011-16.535-0.408-24.783
		c-1.534-30.233-4.121-60.423-4.221-90.715c-0.078-24.028-1.415-47.901-5.872-71.573c-4.281-22.743-10.344-45.108-13.858-68.021
		c-4.318-28.164-4.497-56.375-2.227-84.68C1004,955.876,1006.311,932.802,1007.594,909.634z"></path>
	<path fill-rule="evenodd" clip-rule="evenodd" class="colour1" fill="#009FDA" d="M1264.854,547.72c-8.957-22.151-14.376-45.565-24.686-67.21
		c-3.624-7.61-6.537-15.927-5.496-24.418c2.75-22.43,1.358-44.64-1.486-66.923c-4.379-34.276-13.022-67.214-28.625-98.223
		c-13.107-26.052-28.377-50.583-52.43-67.863c-36.956-26.551-76.525-48.203-120.427-61.401
		c-37.535-11.284-73.915-25.72-109.268-42.61c-17.62-8.417-35.428-16.395-53.205-24.451c-0.716,8.89-8.169,12.541-13.871,17.339
		c-16.288,13.703-34.322,24.759-53.408,34.128c3.797,3.08,7.943,5.823,11.327,9.306c9.177,9.447,18.235,18.984,28.104,27.742
		c12.207,10.832,23.826,22.242,33.787,35.271c27.214,35.593,46.464,75.311,60.184,117.708
		c14.355,44.363,28.45,88.742,52.365,129.228c5.387,9.118,9.918,18.808,17.12,26.656c5.872,6.399,10.979,12.929,12.753,21.729
		c0.559,2.763,2.482,5.3,3.996,7.812c3.819,6.332,7.762,12.591,11.655,18.878c5.786,22.154,11.48,44.334,17.438,66.443
		c1.226,4.547-0.125,9.813,3.69,13.648c7.488,1.747,15.314-0.298,22.704,1.734c8.81,2.423,17.781,3.242,26.788,3.175
		c32.446-0.243,63.74-6.352,94.247-17.64c23.177-8.576,42.982-21.692,59.871-39.442
		C1263.413,562.632,1267.753,554.888,1264.854,547.72z"></path>
	<path fill-rule="evenodd" clip-rule="evenodd" class="colour2" fill="#262262" d="M866.284,91.263c-9.699-2.043-15.41-9.845-22.148-15.905
		c-8.965-8.063-18.949-11.587-30.982-11.719c-39.924-0.438-79.459,2.959-118.901,9.109c-30.114,4.695-59.396,11.386-86.79,25.259
		c-15.788,7.995-29.614,17.645-35.918,35.164c-2.401,7.951-4.802,15.901-7.202,23.852c0.83,14.656,9.324,23.766,22.048,29.224
		c12.012,5.152,25.09,5.911,37.873,7.372c18.241,2.084,36.283-0.186,54.313-3.359c27.993-4.929,55.457-11.51,81.731-22.598
		c14.459-6.102,27.94-14.042,41.646-21.573c19.086-9.369,37.12-20.425,53.408-34.128c5.702-4.798,13.155-8.449,13.871-17.339
		C867.904,93.806,868.12,91.65,866.284,91.263z"></path>
	<g>
		<path fill-rule="evenodd" clip-rule="evenodd" class="colour2" fill="#262262" d="M591.736,332.948c-15.716,3.981-31.532,7.521-47.179,11.833
			c-17.522,4.83-35.523,7.92-53.045,12.75c-25.209,6.947-50.769,12.242-76.337,17.526c-12.123,2.505-24.585,3.545-36.538,6.63
			c-8.177,2.11-14.308,1.865-22.044-2.78c-15.797-9.484-32.854-16.849-48.399-26.934c-2.904-1.884-6.597-2.566-8.494-5.902
			c-3.136-1.526-5.344-4.157-7.768-6.535c-8.699,21.124-14.902,42.875-16.401,65.798c12.789,2.374,25.597,4.65,38.359,7.162
			c6.476,1.275,13.222-0.992,19.535,1.703c14.328-1.296,21.536,1.93,24.298,12.025c11.855-15.28,28.766-19.657,46.06-23.814
			c-1.574-0.388-2.851-0.703-4.126-1.018c-0.097-0.476-0.193-0.952-0.291-1.427c66.194-22.821,131.67-47.725,199.094-67.146
			C596.056,331.712,593.909,332.397,591.736,332.948z"></path>
		<path fill-rule="evenodd" clip-rule="evenodd" class="colour2" fill="#262262" d="M369.306,464.686c-10.902,3.483-10.44,3.48-10.608-7.379
			c-0.169-11-2.55-10.936-10.543-8.455c-10.811,3.354-21.634,2.61-32.511,0.277c13.128,0.735,25.43-4.32,38.299-5.296
			c1.488-0.113,2.778-0.438,2.633-2.353c-0.11-1.453-1.107-2.022-2.374-2.112c-3.707-0.264-7.491-1.029-11.116-0.573
			c-11.821,1.489-23.411,0.524-35.116-1.409c-11.599-1.917-21.904-7.16-32.706-11.155c0.013,1.761-0.176,3.551,0.07,5.279
			c3.095,21.718,0.121,41.854-12.941,60.376c-5.854,8.301-10.794,17.6-13.199,27.816c-1.087,0.256-1.092,1.123-1.093,1.993
			c0.679-0.483,1.757-0.742,1.155-1.949c7.901-3.232,15.835-6.337,24.482-6.957c7.634-0.548,15.259-1.303,22.902-1.641
			c18.362-0.812,36.583-3.81,55.004-3.535c2.71,0.041,2.71-1.567,2.9-3.346c-0.381-2.562-0.177-5.087,0.511-7.579
			c2.597-9.4,7.521-17.633,12.73-25.752c1.156-1.801,3.549-3.241,2.743-6C370.024,464.824,369.612,464.588,369.306,464.686z"></path>
		<path fill-rule="evenodd" clip-rule="evenodd" class="colour2" fill="#262262" d="M384.368,326.602c3.281-1.594,6.587-1.563,9.913-0.16
			c1.733-0.075,3.47-0.15,5.207-0.225c2.584-0.998,5.218-1.148,7.899-0.472c5.495-0.892,10.994-1.784,16.493-2.677
			c1.402-1.61,3.079-1.246,4.783-0.667c1.293-0.257,2.59-0.515,3.887-0.772c0.869-1.178,1.97-1.209,3.188-0.646
			c2.725-0.469,5.453-0.939,8.18-1.409c8.967-3.227,18.776-2.621,27.664-6.063c1.46-0.565,5.819,0.264,3.223-3.961
			c-6.846,1.084-13.694,2.169-20.544,3.254c-19.496,2.353-38.933,1.814-58.356-0.958c-2.837-0.405-3.525-2.869-5.324-4.232
			c-15.598-11.825-31.063-23.826-46.638-35.681c-3.616-2.752-6.831-5.864-9.8-9.267c-9.091,11.034-16.289,23.262-22.648,36.019
			c12.233,0.361,23.052,5.402,33.909,10.285C358.405,314.817,371.381,320.722,384.368,326.602z"></path>
		<path fill-rule="evenodd" clip-rule="evenodd" class="colour2" fill="#262262" d="M317.729,349.949c0.216,0.073,0.414,0.178,0.586,0.315
			c0.848,0.485,1.702,0.968,2.552,1.458c14.415,8.316,30.841,12.645,44.531,22.435c0.753,0.539,2.279,0.236,3.382,0.013
			c10.751-2.175,21.488-4.416,32.236-6.64c3.356-2.581,8.441-1.629,11.655-5.748c-11.256,1.52-21.956-0.605-32.716-0.388
			c-3.982,0.08-8.684-0.169-11.882-2.159c-22.086-13.741-43.861-27.982-65.737-42.062c-3.567,6.103-6.308,12.591-8.945,19.128
			c7.353,4.891,15.148,9.005,22.965,13.081C316.813,349.572,317.271,349.761,317.729,349.949z"></path>
		<path fill-rule="evenodd" clip-rule="evenodd" class="colour2" fill="#262262" d="M358.948,260.594c1.25,0.242,2.77,1.38,3.662-0.127
			c0.75-1.267-0.792-2-1.579-2.814c-1.497-1.546-2.975-3.112-4.514-4.617c-6.769-6.619-6.775-6.612-13.741,0.637
			c2.938,0.299,5.25,1.837,7.377,3.739C353.587,257.087,356.624,257.865,358.948,260.594z"></path>
		<path fill-rule="evenodd" clip-rule="evenodd" class="colour2" fill="#262262" d="M600.301,331.172c1.068,1.193,2.221,0.463,3.294,0.454
			c0-0.447,0.004-0.897,0.008-1.346C602.527,330.571,601.451,330.861,600.301,331.172z"></path>
	</g>
	<g>
		<path fill-rule="evenodd" clip-rule="evenodd" class="colour3" fill="#d71920" d="M1015.963,655.322c-5.871,10.835-10.26,22.082-14.911,33.22
			c-7.877,18.864-15.374,37.917-21.538,57.365c-5.539,17.472-10.722,35.003-19.489,51.155
			c-9.471,17.448-20.193,34.257-28.953,52.042c-10.073,20.451-20.236,40.856-30.999,60.933
			c-18.437,34.388-40.904,66.228-63.665,97.825c-11.342,15.747-24.265,30.262-36.946,44.934c-5.35,6.19-11.39,11.786-17.117,17.651
			c-5.432,1.201-7.434,6.422-11.494,9.29c4.329-2.637,9.396-3.947,12.865-7.773c18.294-13.43,36.255-27.296,53.339-42.401
			c-12.151,20.043-28.087,36.796-43.788,53.803c-16.082,17.421-34.507,32.137-52.866,46.898
			c-17.864,14.364-36.354,27.95-55.32,40.972c33.077-14.88,63.817-33.876,95.585-51.063c-18.236,16.824-37.428,32.33-57.455,46.764
			c-20.258,14.6-41.098,28.351-62.216,41.688c-20.663,13.05-41.98,24.965-63.06,37.343c92.799-29.233,177.864-72.532,250.72-138.233
			c-10.071,13.157-21.342,24.95-33.661,35.742c-6.936,6.075-13.913,12.104-20.872,18.154c0.001,0.001,0.002,0.002,0.003,0.003
			c-0.473,0.465-1.231,0.892-0.542,1.667c0.635,0.713,1.263,0.152,1.856-0.19c1.107-0.342,2.291-0.531,3.309-1.048
			c16.794-8.523,33.429-17.241,48.831-28.266c29.046-20.794,53.871-45.632,74.357-74.883c18.523-26.452,31.895-55.438,42.974-85.625
			c4.482-12.214,8.894-24.488,14.897-36.929c6.784,20.53,9.815,40.876,12.331,61.373c2.27,18.49,5.161,36.905,10.453,54.841
			c-0.736-10.135-2.088-20.27-2.086-30.405c0.006-23.896,1.92-47.694,4.251-71.487c1.926-19.664,2.548-39.454,3.883-59.18
			c0.5-7.402,1.423-14.773,2.076-22.165c0.875-9.909,1.677-19.826,2.51-29.738c-1.997-1.139-1.338-3.104-1.365-4.76
			c-0.237-13.97-0.247-27.944-0.627-41.909c-0.578-21.256,2.323-42.425,1.299-63.697c-0.654-13.566-0.291-27.14,0.937-40.691
			C1014.469,677.482,1015.144,666.396,1015.963,655.322z M782.238,1119.223l0.046-0.299l0.323,0.203L782.238,1119.223z
			 M852.954,1104.219c-0.733,1.281-1.284,2.787-3.382,2.7c-0.232-1.775,1.191-2.222,2.174-2.972
			c0.401,0.092,0.802,0.183,1.205,0.272c1.635-0.649,2.488-1.696,2.459-3.532C855.44,1102.523,854.586,1103.57,852.954,1104.219z
			 M855.411,1100.652c-0.006-0.266-0.03-0.547-0.073-0.847C855.381,1100.105,855.405,1100.387,855.411,1100.652z"></path>
		<path fill-rule="evenodd" clip-rule="evenodd" class="colour3" fill="#d71920" d="M578.678,1123.292c0.012-0.002,0.023-0.006,0.035-0.008
			l-0.028-0.034C578.683,1123.265,578.679,1123.277,578.678,1123.292z"></path>
		<path fill-rule="evenodd" clip-rule="evenodd" class="colour3" fill="#d71920" d="M523.536,1156.546c-21.717,11.28-44.434,20.645-66.755,30.756
			c-2.037,0.923-3.915,2.754-8.246,1.465c38.082-26.137,77.916-47.47,113.455-75.349c35.664-27.977,67.624-59.949,101.703-89.773
			c-1.405-0.565-2.56-0.689-3.177-0.173c-14.937,12.501-31.799,22.541-46.559,35.137c-30.896,26.366-65.78,46.485-100.788,66.435
			c-17.374,9.9-35.63,18.241-53.159,27.884c-10.264,5.646-19.093,13.792-30.368,17.782c-5.211,1.845-9.844,4.703-14.028,8.301
			c-0.218,1.955-2.13,3.044-2.206,5.266c-0.648,19.099-1.486,38.193-2.268,57.287c1.281-1.722,2.534-3.466,3.847-5.164
			c9.044-11.695,22.438-17.603,34.342-25.396c18.034-11.81,37.238-21.668,55.939-32.357c24.159-13.811,46.89-30.031,67.912-48.438
			c2.217-1.941,5.128-3.459,5.499-6.915c-2.303,0.43-4.139,1.696-6.104,2.94C556.332,1136.517,540.543,1147.71,523.536,1156.546z"></path>
		<path fill-rule="evenodd" clip-rule="evenodd" class="colour3" fill="#d71920" d="M493.59,1112.602c-0.028,0.057-0.06,0.108-0.088,0.165
			c0.056-0.028,0.111-0.056,0.167-0.083L493.59,1112.602z"></path>
		<path fill-rule="evenodd" clip-rule="evenodd" class="colour3" fill="#d71920" d="M430.711,1162.992c5.183-2.819,10.678-5.382,14.655-9.715
			c9.805-10.68,22.12-18.099,33.375-26.904c5.247-4.104,11.57-7.221,14.761-13.606c-15.533,7.74-31.125,15.364-46.563,23.289
			c-5.239,2.689-10.218,5.912-16.024,7.249c-5.041,1.162-9.581,3.377-13.997,5.945c-1.548,9.429-2.56,18.9-2.286,28.476
			C418,1170.645,424.155,1166.56,430.711,1162.992z"></path>
		<path fill-rule="evenodd" clip-rule="evenodd" class="colour3" fill="#d71920" d="M462.105,1051.967c1.802-0.022,2.027-1.058,1.62-2.512
			c0.057-0.666,0.123-1.339,0.188-2.012c4.715-2.463,6.356-6.956,7.972-11.477c-4.418,2.692-7.045,6.846-9.755,10.938
			c-9.779,9.982-21.521,17.971-29.916,29.374c-0.978,1.328-1.792,3.615-3.739,0.865c-3.031,10.438-4.249,21.198-5.699,31.918
			c4.263-7.257,8.521-14.517,12.79-21.77C443.082,1074.518,454.09,1064.366,462.105,1051.967z"></path>
		<path fill-rule="evenodd" clip-rule="evenodd" class="colour3" fill="#d71920" d="M493.59,1112.602c0,0,0.079,0.082,0.079,0.082
			c0.094-0.165,0.188-0.33,0.282-0.493C493.831,1112.327,493.711,1112.465,493.59,1112.602z"></path>
		<path fill-rule="evenodd" clip-rule="evenodd" class="colour3" fill="#d71920" d="M578.713,1123.284c0.008-0.011,0.016-0.022,0.024-0.033
			c-0.018-0.001-0.035-0.001-0.052-0.001C578.684,1123.25,578.712,1123.284,578.713,1123.284z"></path>
		<path fill-rule="evenodd" clip-rule="evenodd" class="colour3" fill="#d71920" d="M791.31,1164.022c0.131,0.13,0.29,0.39,0.389,0.368
			c0.277-0.062,0.529-0.238,0.792-0.368c-0.131-0.132-0.262-0.263-0.419-0.421C791.822,1163.738,791.566,1163.881,791.31,1164.022z"></path>
		<path fill-rule="evenodd" clip-rule="evenodd" class="colour3" fill="#d71920" d="M683.13,1172.53c0.092,0.042,0.292-0.06,0.385-0.152
			c0.062-0.062,0.022-0.225,0.028-0.341c-0.127-0.066-0.281-0.215-0.376-0.184C682.624,1172.031,682.609,1172.294,683.13,1172.53z"></path>
		<path fill-rule="evenodd" clip-rule="evenodd" class="colour3" fill="#d71920" d="M681.125,1173.237c-0.175-0.285-0.959-0.196-1.464-0.278
			c-5.528,2.43-10.846,5.177-14.945,9.859c5.167-2.77,11.249-3.706,15.541-8.117
			C680.729,1174.305,681.621,1174.045,681.125,1173.237z"></path>
		<path fill-rule="evenodd" clip-rule="evenodd" class="colour3" fill="#d71920" d="M481.842,1002.786c0.313-1.262,1.055-2.101,2.366-2.376
			c1.1-2.54,3.099-4.088,5.264-5.803c4.668-3.702,9.88-6.871,13.456-11.837c-6.199,1.483-9.839,6.835-14.967,9.904
			c-15.333,9.18-29.139,19.864-37.445,36.268c9.283-8.295,18.491-16.645,28.676-23.824
			C479.768,1003.988,480.559,1003.105,481.842,1002.786z"></path>
		<path fill-rule="evenodd" clip-rule="evenodd" class="colour3" fill="#d71920" d="M434.397,1019.278c-0.113,0.074-0.328,0.155-0.323,0.221
			c0.017,0.239,0.106,0.474,0.167,0.714C434.573,1019.951,434.625,1019.639,434.397,1019.278z"></path>
		<path fill-rule="evenodd" clip-rule="evenodd" class="colour3" fill="#d71920" d="M579.961,1121.52c-0.408,0.576-0.816,1.154-1.224,1.731
			c0.595,0.007,1.19,0.014,1.785,0.021c3.804-0.854,6.017-3.159,6.468-7.075c0.073-0.117,0.146-0.234,0.22-0.352
			c-0.083,0.107-0.166,0.216-0.249,0.322C584.066,1117.217,581.901,1119.222,579.961,1121.52z"></path>
		<path fill-rule="evenodd" clip-rule="evenodd" class="colour3" fill="#d71920" d="M519.432,1194.63c0.322,0.131,0.643,0.264,1.154,0.473
			c0.276-0.368,0.57-0.759,0.864-1.15c-0.305-0.149-0.732-0.504-0.89-0.409C520.124,1193.805,519.8,1194.255,519.432,1194.63z"></path>
	</g>
	<g>
		<path fill-rule="evenodd" clip-rule="evenodd" class="colour4" fill="#bcbec0" d="M605.333,994.432c11.694-12.246,25.815-21.773,37.931-33.54
			c10.417-10.116,20.881-20.214,30.76-30.844c12.554-13.51,24.157-27.862,35.722-42.239c13.642-16.957,27.591-33.668,41.436-50.463
			c8.662-10.508,14.916-22.549,22.088-34.026c14.955-23.937,31.287-47.011,44.332-72.139c2.676-5.154,5.449-10.466,9.992-14.549
			c-0.673,4.122-1.773,8.026-3.05,11.872c-9.63,29.008-24.375,55.772-37.331,83.271c-10.864,23.059-24.973,44.545-40.459,64.831
			c-15.588,20.419-30.801,41.165-47.605,60.644c-9.993,11.583-19.333,23.88-30.768,34.006
			c-13.145,11.64-27.408,22.018-41.193,32.933c-1.714,1.356-3.774,2.428-4.498,5.825c1.499-0.934,2.144-1.296,2.749-1.719
			c15.723-10.986,30.729-22.916,45.923-34.608c14.085-10.839,25.542-24.345,38.417-36.401c-3.403-0.66-1.506-2.789-0.69-3.79
			c5.82-7.135,10.368-15.262,16.96-21.786c1.822-2.228,2.899-4.896,4.655-7.233c10.966-14.607,21.852-29.267,31.632-44.742
			c13.994-22.143,25.352-45.604,36.899-69.062c15.798-32.093,29.47-65.081,42.93-98.131c8.479-20.815,15.428-42.302,21.443-64.089
			c4.266-15.449,6.773-31.023,8.624-46.805c2.385-20.328,3.143-40.751,2.925-61.203c-0.166-15.525,0.32-31.141-1.239-46.539
			c-1.121-11.071-3.138-22.163-4.493-33.255c-4.122-33.741-4.771-67.655-4.051-96.045c-1.324,8.829-2.639,23.242-3.979,37.637
			c-1.917,20.606-1.938,41.194-2.407,61.798c-0.376,16.485-0.357,33.012-2.166,49.393c-3.537,32.032-8.789,63.752-20.12,94.156
			c-2.941,7.894-3.684,16.901-7.445,24.027c-6.394,12.113-11.242,24.972-18.249,36.746c0.138,1.279-0.527,2.135-1.493,2.83
			c-0.761,1.391-1.521,2.781-2.281,4.172c-2.428,6.819-5.855,13.118-9.915,19.088c-0.116,0.375-0.233,0.751-0.351,1.127
			c-3.039,8.317-5.805,16.759-11.023,24.077c-0.73,1.396-1.463,2.792-2.195,4.189c0.293,1.303-0.34,2.186-1.32,2.91
			c-0.773,1.378-1.548,2.757-2.323,4.135c0.312,1.399-0.4,2.161-1.62,2.607c-0.056,0.392-0.218,0.732-0.488,1.023
			c0.112,1.381-0.638,2.136-1.852,2.555c-0.089,0.38-0.273,0.706-0.554,0.979c-1.83,6.173-5.077,11.439-10.01,15.624
			c-0.56,0.698-1.12,1.398-1.68,2.098c-0.688,2.557-2.055,4.634-4.287,6.103c-0.625,1.096-1.25,2.191-1.876,3.288
			c-0.714,2.727-1.711,5.242-4.664,6.314c-0.175,0.404-0.35,0.809-0.524,1.214c-2.66,5.094-5.118,10.329-9.827,13.982
			c-11.548,28.986-28.247,55.096-45.029,81.193c-11.673,18.156-22.408,36.94-35.144,54.382
			c-13.632,18.669-26.004,38.464-42.037,55.131c-17.541,18.235-34.293,37.37-54.821,52.629
			c-28.166,20.938-56.946,41.15-82.541,65.328c-12.283,11.603-27.225,20.167-38.39,32.89c-8.651,9.857-19.517,17.676-26.513,29.011
			c-0.084,1.282-0.167,2.565-0.251,3.847c9.269-8.446,19.816-15.447,28.045-25.086c2.274-2.662,5.024-4.997,7.839-7.104
			c9.404-7.041,18.916-13.938,28.421-20.84c22.546-16.37,44.04-34.224,67.68-49.041
			C570.237,1026.325,588.826,1011.718,605.333,994.432z"></path>
		<path fill-rule="evenodd" clip-rule="evenodd" class="colour4" fill="#bcbec0" d="M676.776,662.23c-14.936,27.42-31.839,53.73-47.977,80.456
			c-15.521,25.705-34.604,49.067-52.464,73.222c-12.905,17.452-29.175,31.207-45.521,45.06
			c-13.624,11.546-27.178,23.198-40.281,35.324c-7.363,6.815-12.871,15.335-18.038,23.97c-8.875,14.83-21.508,27.118-29.02,42.872
			c-0.389,1.012-0.778,2.023-1.246,3.242c-1.584-1.694-0.448-2.968-0.032-4.272c0.667-4.359,2.767-8.16,4.744-11.995
			c8.006-15.533,17.989-29.966,25.283-45.914c5.398-11.802,14.319-20.95,23.284-30.165c23.052-23.698,48.204-45.749,62.416-76.679
			c1.752-3.813,3.464-7.577,4.15-12.565c-1.13,0.96-1.716,1.231-1.944,1.683c-14.333,28.381-38.313,48.036-61.562,68.412
			c-10.749,9.421-22.423,17.973-30.52,30.112c-7.438,11.15-13.291,23.212-19.063,35.215c-6.021,12.522-11.281,25.501-10.277,40.078
			c0.455,6.6,0.234,13.353-0.639,19.908c-1.061,7.967-2.532,15.863-2.425,23.94c4.665-1.78,7.492-5.55,10.132-9.475
			c1.195-1.776,2.255-3.63,4.137-4.79c0.005-0.027,0.013-0.053,0.018-0.08c0.086-0.114,0.172-0.228,0.258-0.342
			c-0.073,0.127-0.145,0.255-0.218,0.382c-0.021,0.013-0.038,0.027-0.058,0.04c-1.659,8.164-6.358,14.706-11.306,21.11
			c-1.145,1.482-2.94,2.573-2.844,4.784c-0.362-0.069-0.727-0.083-1.093-0.034c-0.052,0.824-0.104,1.648-0.156,2.472
			c1.111-0.44,1.436-1.298,1.293-2.403c5.014-1.515,7.715-5.744,10.581-9.533c12.24-16.18,27.735-28.348,45.422-38.012
			c9.938-5.431,18.732-12.53,27.37-19.803c2.624-4.469,5.452-8.777,9.533-12.096c1.388-1.846,2.776-3.693,4.164-5.54
			c0.135-1.959,1.142-3.229,3.011-3.82c0.126-0.349,0.32-0.655,0.58-0.921c-0.13-1.401,0.503-2.246,1.865-2.561
			c9.771-12.661,21.324-23.615,33.005-34.448c0.664-1.815,1.952-2.837,3.878-3.046c0,0,0.105-0.086,0.105-0.086
			c0.581-1.605,1.819-2.162,3.418-2.142c4.188-3.362,7.611-7.382,10.281-12.042c6.06-10.578,11.602-21.497,18.281-31.67
			c17.614-26.829,34.057-54.396,48.7-82.875c18.203-35.404,35.361-71.391,49.382-108.744c9.298-24.769,18.927-49.419,27.772-74.349
			c9.529-26.857,16.659-54.393,20.841-82.636c-0.871-1.683-0.188-2.965,1.052-4.104c0.111-0.508,0.228-1.015,0.344-1.521
			c-0.604-0.136-1.209-0.272-1.812-0.409c-5.645,18.494-9.463,37.579-17.398,55.334c-10.794,24.155-22.625,47.79-35.094,71.142
			C692.323,628.334,685.675,645.893,676.776,662.23z"></path>
		<path fill-rule="evenodd" clip-rule="evenodd" class="colour4" fill="#bcbec0" d="M980.668,558.322c-5.304,26.788-9.766,53.747-15.981,80.35
			c-5.859,25.082-11.19,50.644-22.716,73.658c-23.508,46.939-50.174,92.148-82.998,133.37c-9.53,11.969-18.716,24.315-30.385,34.429
			c-2.904,4.735-6.116,9.18-11.211,11.844c-0.11,0.434-0.221,0.866-0.331,1.298c0,0-0.452,0.229-0.451,0.226
			c-7.775,12.738-15.584,25.459-23.324,38.222c-22.574,37.224-47.273,72.891-79.326,102.692
			c-22.581,20.994-45.671,41.446-68.32,62.38c-13.682,12.646-27.605,25.173-42.47,36.359
			c-23.337,17.563-45.842,36.292-70.608,51.939c-3.056,1.932-6.493,3.772-9.437,7.932c8.103-2.719,13.883-7.101,20.14-10.59
			c14.586-8.136,28.381-17.523,42.322-26.664c15.728-10.311,30.848-21.507,45.76-32.971c7.776-5.976,15.641-11.849,23.203-18.087
			c12.103-9.982,23.975-20.243,35.97-30.358c13.341-11.25,27.769-21.223,40.833-32.711c26.633-23.42,49.386-50.655,71.139-78.497
			c21.247-27.195,41.126-55.504,60.049-84.396c13.332-20.356,26.158-41.077,35.612-63.656c2.636-6.295,5.745-12.392,8.638-18.58
			c0.518,0.263,1.033,0.525,1.549,0.788c-19.833,64.671-54.675,121.876-90.904,178.84c2.198,0.118,2.61-0.847,3.218-1.599
			c13.015-16.111,23.354-34.11,35.877-50.601c11.741-15.46,22.629-31.599,33.313-47.819c12.504-18.982,25.719-37.506,37.297-57.094
			c-2.659-3.842,0.432-6.119,2.369-8.71c0.203-0.749,0.405-1.497,0.607-2.246c-0.41-1.319,0.071-2.27,1.221-2.941
			c6.966-25.803,15.049-51.259,24.372-76.3c6.458-17.346,12.164-34.806,14.771-53.245c2.635-18.657,6.122-37.191,8.993-55.817
			c4.399-28.554,5.965-57.483,11.332-85.921c2.678-14.187,4.639-28.482,4.188-44.012
			C991.274,513.581,985.131,535.783,980.668,558.322z"></path>
		<path fill-rule="evenodd" clip-rule="evenodd" class="colour4" fill="#bcbec0" d="M379.954,361.396c10.761-0.218,21.46,1.908,32.716,0.388
			c-3.214,4.118-8.299,3.167-11.655,5.748c7.862-0.799,15.176-3.983,22.913-5.341c16.454-2.89,32.586-7.167,48.601-11.798
			c31.308-9.053,63.036-16.483,94.503-24.918c15.329-4.108,31.078-6.753,46.234-11.378c33.477-10.216,67.407-18.784,100.988-28.599
			c-0.007-0.379-0.014-0.759-0.022-1.136c-20.343,4.298-40.716,8.446-61.018,12.92c-35.309,7.781-71.009,13.394-106.638,19.384
			c-19.665,3.306-39.606,4.882-59.159,8.931c-22.833,4.729-45.975,5.203-69.146,5.459c-0.936,0.663-1.772,0.566-2.5-0.331
			c-3.891-0.28-7.783-0.559-11.675-0.839c-0.955,0.591-1.792,0.489-2.491-0.423c-2.505,0.025-5.011,0.035-7.392-0.932
			c-3.281-0.643-6.563-1.286-9.844-1.929c-12.987-5.88-25.963-11.784-38.965-17.632c-10.857-4.883-21.676-9.924-33.909-10.285
			c-3.628,5.878-6.882,11.941-9.159,18.49c21.875,14.08,43.651,28.321,65.737,42.062
			C371.27,361.226,375.972,361.476,379.954,361.396z"></path>
		<path fill-rule="evenodd" clip-rule="evenodd" class="colour4" fill="#bcbec0" d="M423.31,476.939c22.753-11.901,45.471-23.873,68.163-35.892
			c1.75-0.927,3.909-1.5,5.422-4.027c-8.471,0.271-16.249,0.246-23.972,0.14c-12.178-0.168-24.397-0.067-36.601-0.574
			c-18.188-0.755-36.418-0.941-54.625-1.985c-7.731-0.443-15.321-4.21-23.228-1.175c-1.621,0.623-2.028-0.465-2.213-1.751
			c-0.825-5.739-4.876-8.739-9.573-11.103c-4.382-2.206-8.842-4.257-13.259-6.373c-6.313-2.694-13.059-0.428-19.535-1.703
			c-12.762-2.512-25.57-4.789-38.359-7.162c-0.677,6.958-0.621,13.924-0.266,20.896c10.801,3.995,21.106,9.239,32.706,11.155
			c11.705,1.933,23.295,2.898,35.116,1.409c3.625-0.456,7.409,0.309,11.116,0.573c1.266,0.09,2.263,0.659,2.374,2.112
			c0.145,1.915-1.145,2.24-2.633,2.353c-12.869,0.976-25.17,6.031-38.299,5.296c10.877,2.333,21.7,3.077,32.511-0.277
			c7.993-2.48,10.374-2.545,10.543,8.455c0.167,10.859-0.294,10.862,10.608,7.379c0.306-0.098,0.719,0.138,1.223,0.25
			c0.806,2.76-1.587,4.2-2.743,6c-5.209,8.12-10.133,16.352-12.73,25.752c-0.688,2.492-0.892,5.017-0.511,7.579
			c6.785-8.592,15.562-14.552,25.336-19.195c0.414-0.381,0.828-0.763,1.243-1.144c0.407-0.132,0.813-0.263,1.22-0.396
			c-0.148,0.391-0.296,0.783-0.44,1.177c-0.417,0.379-0.838,0.755-1.256,1.134c-5.268,5.212-10.597,10.363-15.789,15.65
			c-3.636,3.701-6.659,7.831-8.621,13.542c3.934-0.934,5.564-3.389,7.628-5.033c11.676-9.299,25.532-14.477,38.703-20.951
			c0.767-0.424,1.535-0.849,2.3-1.271c-0.002,0.001,0.418,0.053,0.418,0.053l0.399-0.143c4.059-4.127,8.995-6.711,14.521-8.257
			C420.934,478.216,422.047,477.6,423.31,476.939z"></path>
		<path fill-rule="evenodd" clip-rule="evenodd" class="colour4" fill="#bcbec0" d="M750.097,695.761c-3.776,5.435-7.553,10.87-11.33,16.306
			c-0.518,3.289-2.374,5.646-5.134,7.374c-0.179,0.353-0.42,0.655-0.725,0.909c-0.252,2.787-1.803,4.667-4.177,5.968
			c-0.577,0.767-1.154,1.534-1.731,2.301c0.33,2.15-1.097,3.1-2.689,3.933c-1.783,2.653-3.567,5.308-5.352,7.962
			c-0.291,2.061-1.055,3.862-2.805,5.122c-6.441,8.602-12.591,17.441-19.38,25.761c-21.451,26.292-43.025,52.486-64.794,78.515
			c-9.283,11.099-16.749,23.639-27.108,33.862c-2.255,4.6-4.605,9.108-10.164,10.518c-3.937,4.175-5.223,10.162-9.516,14.064
			c-13.958,12.684-27.344,25.904-40.108,39.824c-12.354,13.472-28.239,22.884-42.155,34.592c-3.576,4.966-8.788,8.135-13.456,11.837
			c-2.165,1.715-4.165,3.263-5.264,5.803c-1.312,0.275-2.054,1.114-2.366,2.376c-1.283,0.319-2.074,1.202-2.649,2.332
			c1.542-0.021,2.633-0.561,2.682-2.292c1.583-0.002,2.458-0.701,2.346-2.379c0.771-0.036,1.7,0.183,2.276-0.172
			c12.011-7.381,24.228-14.465,35.898-22.355c15.407-10.417,30.002-21.881,44.469-33.662c24.243-19.739,45.084-42.526,65.514-65.842
			c16.806-19.181,31.371-40.172,47.376-60.009c8.739-10.83,18.481-21.022,25.936-32.676c10.757-16.817,21.953-33.407,30.933-51.383
			c8.14-16.29,18.648-31.367,25.596-48.305c1.367-3.333,3.74-6.491,3.034-10.459c1.47-0.54,1.414-1.721,1.227-2.957
			c-1.126,0.65-1.638,1.556-1.279,2.828c-1.46-0.287-1.848,1.455-3.061,1.634c-0.389,0.617-0.777,1.235-1.168,1.853
			c-0.39,3.577-2.207,6.338-4.914,8.588c-0.94,1.519-1.883,3.04-2.824,4.559C753.085,694.081,751.901,695.187,750.097,695.761z"></path>
		<path fill-rule="evenodd" clip-rule="evenodd" class="colour4" fill="#bcbec0" d="M372.011,234.62c17.563,12.235,34.768,24.982,52.14,37.492
			c3.352,2.414,7.048,4.006,11.215,4.72c15.719,2.691,31.017,0.129,46.119-3.809c16.771-4.373,33.981-6.395,50.971-9.401
			c13.813-2.444,27.7-4.575,41.451-7.454c0.05-0.603,0.099-1.205,0.149-1.807c-0.75,0.22-1.487,0.536-2.254,0.649
			c-24.729,3.646-49.667,5.165-74.55,7.223c-10.586,0.875-20.963,3.562-31.648,3.498c-9.516-0.057-19.473-0.305-26.45-7.42
			c-13.319-13.582-28.747-25.3-38.639-42.034c-1.231-2.082-2.523-2.613-4.746-1.325c-7.81,4.525-15.714,8.887-23.543,13.378
			C368.902,230.237,367.68,231.602,372.011,234.62z"></path>
		<path fill-rule="evenodd" clip-rule="evenodd" class="colour4" fill="#bcbec0" d="M343.943,271.933c15.576,11.854,31.04,23.855,46.638,35.681
			c1.799,1.363,2.486,3.828,5.324,4.232c19.423,2.771,38.86,3.31,58.356,0.958c-10.007-0.572-20.085-1.23-29.782-3.61
			c-9.88-2.424-19.848-3.257-28.013-12.286c-11.379-12.583-25.245-22.994-38.816-33.422c-2.972-1.441-5.326-3.646-7.498-6.075
			c-2.127-1.902-4.438-3.44-7.377-3.739c-3.219,2.667-6.284,5.484-8.633,8.994C337.112,266.069,340.327,269.181,343.943,271.933z"></path>
		<path fill-rule="evenodd" clip-rule="evenodd" class="colour4" fill="#bcbec0" d="M1049.85,606.517c-3.214,11.394-6.208,21.852-9.111,32.335
			c-7.13,25.74-12.917,51.773-16.939,78.188c0.381-0.092,0.762-0.183,1.144-0.273c8.385-32.476,15.417-65.304,25.305-97.387
			C1051.491,615.343,1051.899,611.481,1049.85,606.517z"></path>
		<path fill-rule="evenodd" clip-rule="evenodd" class="colour4" fill="#bcbec0" d="M429.074,222.986c-3.577-5.131-7.542-10.052-10.535-15.505
			c-1.784-3.251-3.266-3.19-5.813-1.623c-1.492,0.919-3.021,1.778-5.225,3.067c8.235,5.917,14.549,13.108,23.039,18.195
			C431.243,224.695,429.792,224.017,429.074,222.986z"></path>
		<path fill-rule="evenodd" clip-rule="evenodd" class="colour4" fill="#bcbec0" d="M299.699,346.071c5.785-0.065,10.81,3.689,16.657,3.313
			c-7.817-4.076-15.612-8.19-22.965-13.081c-0.486,1.076-0.972,2.152-1.459,3.234C294.354,341.915,296.563,344.545,299.699,346.071z
			"></path>
		<polygon fill-rule="evenodd" clip-rule="evenodd" class="colour4" fill="#bcbec0" points="432.981,227.831 432.664,227.825 432.818,228.352 		"></polygon>
		<path fill-rule="evenodd" clip-rule="evenodd" class="colour4" fill="#bcbec0" d="M318.315,350.265c-0.173-0.137-0.37-0.243-0.586-0.315
			l0.201,0.322C317.929,350.271,318.311,350.264,318.315,350.265z"></path>
		<path fill-rule="evenodd" clip-rule="evenodd" class="colour4" fill="#bcbec0" d="M619.828,1011.579c0.275-0.123,0.515-0.325,0.767-0.499
			c-0.214-0.202-0.43-0.404-0.646-0.605c-0.169,0.263-0.357,0.516-0.481,0.797C619.447,1011.317,619.761,1011.608,619.828,1011.579z
			"></path>
		<path fill-rule="evenodd" clip-rule="evenodd" class="colour4" fill="#bcbec0" d="M768.8,669.332c-1.258,0.48-1.595,1.547-1.749,2.732
			C768.647,671.801,768.858,670.651,768.8,669.332z"></path>
	</g>
	<g>
		<path fill-rule="evenodd" clip-rule="evenodd" class="colour3" fill="#d71920" d="M249.175,519.779c0.027-0.011,0.055-0.022,0.082-0.033
			c-0.01-0.021-0.011-0.036-0.022-0.057L249.175,519.779z"></path>
		<path fill-rule="evenodd" clip-rule="evenodd" class="colour3" fill="#d71920" d="M372.985,525.408c16.402-13.948,35.381-24.024,53.531-35.32
			c14.441-8.988,29.139-17.555,42.473-28.433c-15.379,7.64-31.632,13.013-47.452,19.47c-4.689,3.626-10.271,5.097-15.852,6.566
			l-0.399,0.143l-0.42-0.052c-0.667,0.601-1.191,1.463-2.298,1.271c-13.171,6.474-27.026,11.651-38.703,20.951
			c-2.064,1.644-3.694,4.1-7.628,5.033c1.961-5.71,4.985-9.84,8.621-13.542c5.192-5.287,10.521-10.438,15.792-15.646
			c-0.251-0.263-0.507-0.521-0.769-0.775c-9.774,4.644-18.551,10.604-25.336,19.193c-0.19,1.782-0.19,3.389-2.9,3.349
			c-18.421-0.275-36.642,2.723-55.004,3.535c-7.643,0.338-15.268,1.093-22.902,1.641c-8.646,0.62-16.581,3.725-24.482,6.957
			c0.603,1.208-0.476,1.466-1.155,1.949c-4.985,12.35-6.306,25.425-7.545,38.505c-0.359,3.799,1.43,6.678,4.171,9.292
			c6.741,6.428,14.159,11.95,22.455,16.066c23.712,11.767,48.314,21.315,73.744,28.72c10.714,3.121,21.51,5.435,32.812,4.693
			c-0.063-0.702-0.015-1.112-0.145-1.454c-0.487-1.284-1.083-2.527-1.549-3.819c-7.006-19.44-16.402-38.316-14.216-59.942
			c0.055-0.549-0.026-1.373-0.377-1.66c-3.753-3.071-1.687-6.232-0.073-9.217C361.189,535.84,366.985,530.51,372.985,525.408z"></path>
		<path fill-rule="evenodd" clip-rule="evenodd" class="colour3" fill="#d71920" d="M381.907,484.713c-0.001-0.001-0.002-0.002-0.003-0.004
			c0.144-0.394,0.292-0.785,0.44-1.176c-0.407,0.132-0.813,0.264-1.22,0.396c-0.415,0.381-0.829,0.762-1.243,1.144
			c0.261,0.254,0.517,0.512,0.766,0.772C381.065,485.465,381.486,485.089,381.907,484.713z"></path>
	</g>
	<g>
		<path fill-rule="evenodd" clip-rule="evenodd" class="colour2" fill="#262262" d="M1024.216,1213.688c-0.25-29.911-1.106-59.723-7.392-89.086
			c-5.122-23.938-11.09-47.703-14.233-72.029c-5.292-17.936-8.184-36.351-10.453-54.841c-2.516-20.497-5.547-40.843-12.331-61.373
			c-6.004,12.44-10.415,24.715-14.897,36.929c-11.079,30.188-24.45,59.173-42.974,85.625
			c-20.486,29.251-45.312,54.089-74.357,74.883c-15.402,11.024-32.037,19.742-48.831,28.266c-1.018,0.517-2.201,0.706-3.309,1.048
			c-0.594,0.343-1.222,0.903-1.856,0.19c-0.69-0.776,0.07-1.203,0.543-1.668c6.955-6.052,13.933-12.081,20.868-18.156
			c12.319-10.792,23.59-22.585,33.661-35.742c-72.856,65.701-157.921,109-250.72,138.233c21.08-12.378,42.397-24.293,63.06-37.343
			c21.118-13.337,41.958-27.088,62.216-41.688c20.027-14.434,39.219-29.939,57.455-46.764
			c-31.769,17.188-62.509,36.184-95.585,51.063c18.966-13.021,37.456-26.607,55.32-40.972
			c18.359-14.762,36.784-29.478,52.866-46.898c15.701-17.007,31.637-33.76,43.788-53.803
			c-17.084,15.105-35.045,28.972-53.346,42.407c-3.462,3.82-8.529,5.131-12.858,7.768c4.061-2.868,6.063-8.089,11.494-9.29
			c5.728-5.865,11.768-11.461,17.117-17.651c12.682-14.672,25.604-29.187,36.946-44.934c22.761-31.598,45.229-63.438,63.665-97.825
			c10.763-20.076,20.926-40.481,30.999-60.933c8.76-17.785,19.482-34.594,28.953-52.042c8.768-16.152,13.95-33.684,19.489-51.155
			c6.164-19.448,13.661-38.5,21.538-57.365c4.651-11.138,9.04-22.385,14.911-33.22c-0.819,11.073-1.494,22.16-2.495,33.217
			c-1.228,13.551-1.591,27.125-0.937,40.691c1.024,21.272-1.877,42.441-1.299,63.697c0.38,13.965,0.39,27.939,0.627,41.909
			c0.027,1.656-0.632,3.621,1.365,4.76c0.554-6.998,1.108-13.996,1.662-20.993c-0.112-27.195,0.613-54.356,3.248-81.44
			c0.553-12.957,1.176-25.912,1.642-38.874c1.056-29.304,6.697-58.167,8.34-87.414c0.844-15.029,1.051-30.062,0.378-45.188
			c-15.169,67.569-42.027,130.839-69.929,193.732c0.29,0.679-0.029,1.05-0.642,1.273c0.005,0.403-0.126,0.758-0.394,1.062
			c-0.494,2.608-1.375,5.034-3.302,6.962c-0.188,0.445-0.375,0.893-0.563,1.34c0.352,0.657,0.093,0.974-0.59,1.05
			c-0.203,0.438-0.406,0.877-0.609,1.315c0.363,0.645,0.144,0.978-0.56,1.055c-0.229,0.439-0.456,0.881-0.685,1.322
			c0.396,0.604,0.169,0.938-0.476,1.087c-0.233,0.42-0.467,0.839-0.7,1.26c0.381,0.601,0.123,0.936-0.472,1.129
			c-0.95,1.987-1.902,3.976-2.854,5.963c0.317,0.688,0.065,1.06-0.654,1.166c-0.175,0.374-0.35,0.749-0.524,1.124
			c0.251,1.646-0.574,2.729-1.864,3.57c-0.231,0.405-0.465,0.81-0.698,1.215c0.344,0.605,0.073,0.92-0.512,1.086
			c-0.604,1.21-1.208,2.421-1.813,3.632c0.3,0.646,0.066,0.948-0.617,0.964c-0.265,0.479-0.529,0.959-0.794,1.438
			c0.014,0.268,0.042,0.536,0.021,0.801c-0.002,0.029-0.286,0.037-0.439,0.054c-1.351,2.427-2.701,4.855-4.052,7.283
			c0.076,1.278-0.213,2.295-1.738,2.423c0.001,0-0.144,0.062-0.144,0.062c-0.557,4.113-3.212,7.014-5.769,9.97
			c-11.578,19.588-24.793,38.111-37.297,57.094c-10.685,16.221-21.572,32.359-33.313,47.819
			c-12.523,16.49-22.862,34.489-35.877,50.601c-0.607,0.752-1.02,1.717-3.218,1.599c36.229-56.964,71.071-114.169,90.904-178.84
			c-0.516-0.263-1.031-0.525-1.549-0.788c-2.893,6.188-6.002,12.285-8.638,18.58c-9.454,22.579-22.28,43.3-35.612,63.656
			c-18.923,28.893-38.802,57.201-60.049,84.396c-21.753,27.842-44.506,55.077-71.139,78.497
			c-13.064,11.488-27.492,21.461-40.833,32.711c-11.995,10.115-23.867,20.376-35.97,30.358
			c-7.563,6.238-15.427,12.111-23.203,18.087c-14.912,11.464-30.032,22.66-45.76,32.971c-13.94,9.141-27.736,18.528-42.322,26.664
			c-6.257,3.489-12.038,7.871-20.14,10.59c2.944-4.159,6.38-6,9.437-7.932c24.766-15.647,47.271-34.376,70.608-51.939
			c14.864-11.187,28.788-23.714,42.47-36.359c22.649-20.934,45.739-41.386,68.32-62.38c32.053-29.802,56.752-65.469,79.326-102.692
			c7.74-12.763,15.549-25.483,23.327-38.224l0.448-0.224c0.11-0.432,0.221-0.864,0.331-1.296
			c2.689-8.693,8.244-15.953,12.156-24.051c5.278-10.923,9.745-22.275,16.197-32.619c0.146-0.427,0.293-0.854,0.439-1.281
			c2.941-11.374,7.694-22.111,11.734-33.094c6.953-18.907,15.439-37.363,20.838-56.69c3.623-12.975,5.563-26.538,9.692-39.5
			c0.284-0.892,0.779-1.716,1.177-2.57c0,0.001,0.149-0.441,0.149-0.441c0.569-6.647,2.637-12.977,4.367-19.346
			c2.676-9.849,3.955-19.901,5.254-29.968c0.196-1.518-0.015-3.177,1.436-4.275c0.053-0.688,0.108-1.378,0.162-2.067
			c-1.269-2.337-1.318-4.616,0.323-6.814c0,0.001,0.013-0.24,0.013-0.24c0.078-11.267,1.196-22.447,2.781-33.588
			c0.169-3.78,0.34-7.561,0.511-11.342c-0.514-6.27-0.647-12.526,0.637-18.734c0.032-2.254,0.063-4.51,0.095-6.765
			c-1.643-11.095-2.496-22.242-2.228-33.463c-0.072-0.857-0.146-1.716-0.218-2.574c-2.749-9.98-1.584-20.625-4.302-30.611
			c-0.617,0.037-1.234,0.073-1.853,0.109c0,6.161,0.014,12.321-0.003,18.482c-0.026,9.384-0.054,18.769-0.135,28.153
			c-0.015,1.484,0.531,3.194-1.127,4.275c-0.011,1.472-0.02,2.943-0.029,4.416c0.452,10.559-0.568,20.958-3.396,31.158
			c-0.06,0.687-0.118,1.375-0.176,2.063c-0.205,13.426-4.425,26.126-7.165,39.085c-1.858,8.787-4.081,17.51-8.548,25.448
			c0-0.001-0.106,0.331-0.106,0.331c-4.151,15.199-10.976,29.36-17.119,43.777c-1.128,2.649-1.721,5.685-4.08,7.723
			c0.002,0-0.211,0.419-0.211,0.419c-3.651,8.246-5.571,17.313-11.575,24.445c0-0.001-0.179,0.372-0.179,0.372
			c-9.17,19.872-18.931,39.448-29.577,58.574c-4.07,7.313-7.377,15.072-12.585,21.727c0.001-0.001-0.069,0.139-0.069,0.139
			c-1.237,3.813-3.035,7.29-6.009,10.065c-0.36,0.582-0.723,1.166-1.085,1.749c-0.273,2.145-1.286,3.853-3.034,5.124
			c-0.351,0.632-0.702,1.264-1.054,1.896c0.283,0.647,0.053,0.95-0.635,0.947l-0.155,0.2c-0.048,1.245-0.44,2.299-1.616,2.919
			c-0.333,0.614-0.666,1.23-1,1.846c0.243,0.684,0.015,1.045-0.724,1.057c0.001-0.001-0.096,0.14-0.096,0.14
			c0.044,1.338-0.484,2.319-1.767,2.826c-0.078,0.325-0.257,0.583-0.533,0.773c-0.948,3.419-2.79,6.266-5.484,8.564
			c-0.049,0.354-0.216,0.642-0.501,0.858c0.064,1.35-0.632,2.205-1.788,2.764c-0.083,0.344-0.282,0.595-0.599,0.755
			c-0.004,1.313-0.487,2.309-1.815,2.742c-0.07,0.338-0.245,0.61-0.524,0.814c0.103,1.688-0.805,2.716-2.223,3.41
			c0-0.001-0.093,0.149-0.093,0.149c-0.009,1.33-0.744,2.158-1.872,2.715c-0.075,0.363-0.279,0.625-0.614,0.784
			c-2.18,4.632-4.969,8.814-8.931,12.133c-0.114,0.351-0.33,0.62-0.646,0.81c-0.481,2.414-1.958,4.004-4.145,5.004
			c-0.563,0.701-1.126,1.402-1.688,2.104c-0.48,2.397-1.931,4.003-4.098,5.022c0.001-0.001-0.093,0.106-0.093,0.106
			c-0.284,1.528-1.197,2.461-2.692,2.841c-0.439,0.506-0.88,1.014-1.319,1.521c-0.113,1.511-0.813,2.582-2.297,3.068
			c-1.182,1.346-2.365,2.691-3.548,4.039c-0.302,1.838-1.267,3.175-2.983,3.941c-0.558,0.664-1.115,1.33-1.673,1.995
			c-6.79,10.517-16.019,19.05-23.547,28.966c-12.875,12.057-24.332,25.563-38.417,36.401c-15.193,11.692-30.2,23.622-45.923,34.608
			c-0.604,0.423-1.25,0.785-2.749,1.719c0.723-3.397,2.784-4.469,4.498-5.825c13.785-10.915,28.049-21.293,41.193-32.933
			c11.435-10.126,20.775-22.423,30.768-34.006c16.804-19.479,32.017-40.225,47.605-60.644
			c15.486-20.286,29.595-41.772,40.459-64.831c12.956-27.499,27.701-54.264,37.331-83.271c1.276-3.846,2.377-7.75,3.05-11.872
			c-4.543,4.083-7.316,9.395-9.992,14.549c-13.045,25.128-29.377,48.202-44.332,72.139c-7.172,11.478-13.426,23.519-22.088,34.026
			c-13.845,16.795-27.794,33.506-41.436,50.463c-11.565,14.377-23.168,28.729-35.722,42.239
			c-9.879,10.63-20.344,20.728-30.76,30.844c-12.115,11.767-26.236,21.294-37.931,33.54c-16.507,17.286-35.096,31.894-55.35,44.587
			c-23.641,14.817-45.134,32.671-67.68,49.041c-9.506,6.902-19.018,13.799-28.421,20.84c-2.815,2.107-5.565,4.442-7.839,7.104
			c-8.229,9.639-18.776,16.64-28.045,25.086c-1.453,2.576-1.092,5.391-1.079,8.16c4.416-2.568,8.956-4.783,13.997-5.945
			c5.806-1.337,10.785-4.56,16.024-7.249c15.438-7.925,31.031-15.55,46.564-23.289c0.028-0.057,0.06-0.108,0.088-0.165
			c0.121-0.137,0.241-0.274,0.361-0.411c-0.094,0.163-0.188,0.328-0.282,0.493c-0.056,0.027-0.111,0.055-0.167,0.083
			c-3.19,6.386-9.514,9.502-14.761,13.606c-11.255,8.806-23.57,16.225-33.375,26.904c-3.978,4.333-9.473,6.896-14.655,9.715
			c-6.556,3.567-12.71,7.652-16.079,14.733c0.327,0.428,0.654,0.855,0.981,1.284c4.184-3.598,8.817-6.456,14.028-8.301
			c11.275-3.99,20.104-12.137,30.368-17.782c17.529-9.643,35.786-17.983,53.159-27.884c35.008-19.949,69.893-40.068,100.788-66.435
			c14.759-12.596,31.622-22.636,46.559-35.137c0.617-0.517,1.772-0.393,3.177,0.173c-34.079,29.824-66.039,61.797-101.703,89.773
			c-35.539,27.879-75.373,49.212-113.455,75.349c4.331,1.289,6.208-0.542,8.246-1.465c22.321-10.111,45.038-19.476,66.755-30.756
			c17.008-8.836,32.796-20.029,49.039-30.313c1.965-1.244,3.801-2.511,6.104-2.94c0.001-0.015,0.005-0.027,0.006-0.042
			c0.018,0,0.035,0,0.052,0.001c0.408-0.577,0.816-1.155,1.224-1.731c1.94-2.298,4.105-4.303,7.001-5.352
			c0.083-0.106,0.166-0.215,0.249-0.322c-0.074,0.117-0.147,0.234-0.22,0.352c-0.452,3.916-2.665,6.222-6.468,7.075
			c-0.595-0.008-1.19-0.015-1.785-0.021c-0.008,0.011-0.016,0.022-0.024,0.033c-0.012,0.002-0.023,0.006-0.035,0.008
			c-0.371,3.456-3.282,4.974-5.499,6.915c-21.022,18.406-43.752,34.627-67.912,48.438c-18.701,10.689-37.905,20.548-55.939,32.357
			c-11.904,7.794-25.297,13.701-34.342,25.396c-1.313,1.698-2.566,3.442-3.847,5.164c-0.811,19.047-3.094,37.962-5.575,56.833
			c-2.024,15.388,0.175,21.148,14.057,28.049c22.855,11.361,47.651,16.771,72.504,20.896
			c53.027,8.804,106.678,10.707,160.315,11.942c28.921,0.667,57.775-1.513,86.592-3.583c18.977-1.364,37.87-3.742,56.731-6.459
			c14.861-2.14,29.492-5.498,44.919-4.483c33.309,2.19,66.599,6.329,100.114,3.05c23.239-2.273,46.561-3.803,69.488-8.535
			c8.053-1.66,18.146-12.172,18.369-19.567c0.245-8.055,0.152-16.144-0.3-24.188
			C1026.824,1268.245,1024.445,1241.001,1024.216,1213.688z M683.168,1171.854c0.095-0.031,0.249,0.117,0.376,0.184
			c-0.006,0.116,0.033,0.279-0.028,0.341c-0.093,0.093-0.293,0.194-0.385,0.152C682.609,1172.294,682.624,1172.031,683.168,1171.854
			z M679.66,1172.961c0.506,0.08,1.29-0.009,1.465,0.276c0.497,0.808-0.396,1.067-0.868,1.464
			c-4.292,4.411-10.374,5.348-15.541,8.117C668.814,1178.136,674.133,1175.389,679.66,1172.961z M619.828,1011.579
			c-0.067,0.029-0.381-0.262-0.36-0.308c0.125-0.281,0.313-0.534,0.479-0.797c0.219,0.201,0.434,0.403,0.648,0.605
			C620.343,1011.254,620.103,1011.456,619.828,1011.579z M520.586,1195.103c-0.511-0.209-0.832-0.342-1.154-0.473
			c0.368-0.375,0.691-0.825,1.127-1.087c0.158-0.095,0.585,0.26,0.89,0.409C521.156,1194.344,520.862,1194.734,520.586,1195.103z
			 M791.698,1164.391c-0.099,0.021-0.258-0.238-0.389-0.368c0.257-0.142,0.513-0.284,0.762-0.421
			c0.157,0.158,0.288,0.289,0.419,0.42C792.228,1164.152,791.976,1164.329,791.698,1164.391z M1022.742,1316.507
			c-4.271,4.931-9.607,7.991-15.771,9.839c-12.724,3.816-25.896,4.358-38.992,5.698c-21.536,2.203-43.156,2.705-63.264,3.912
			c-5.215,0-8.954,0.035-12.692-0.023c-1.073-0.017-2.59,0.274-2.519-1.548c0.05-1.254,1.243-1.377,2.156-1.566
			c3.843-0.797,7.699-1.539,11.554-2.283c29.902-5.777,59.324-13.354,88.008-23.654c10.87-3.902,20.644-0.163,30.428,3.946
			C1024.939,1312.209,1024.969,1313.936,1022.742,1316.507z"></path>
		<path fill-rule="evenodd" clip-rule="evenodd" class="colour2" fill="#262262" d="M765.234,675.594c0.007-0.002,0.012-0.006,0.019-0.009
			c-0.008-0.043-0.011-0.084-0.019-0.127V675.594z"></path>
		<path fill-rule="evenodd" clip-rule="evenodd" class="colour2" fill="#262262" d="M484.189,1000.447c0.01-0.001,0.021,0.001,0.031,0
			c-0.001-0.015,0.001-0.026,0-0.042L484.189,1000.447z"></path>
		<path fill-rule="evenodd" clip-rule="evenodd" class="colour2" fill="#262262" d="M481.826,1002.829c0.017,0,0.032-0.003,0.049-0.003
			c0-0.02,0.005-0.034,0.005-0.055L481.826,1002.829z"></path>
		<path fill-rule="evenodd" clip-rule="evenodd" class="colour2" fill="#262262" d="M444.761,1108.232c11.165-12.723,26.107-21.287,38.39-32.89
			c25.595-24.178,54.375-44.39,82.541-65.328c20.528-15.259,37.28-34.394,54.821-52.629c16.033-16.667,28.405-36.462,42.037-55.131
			c12.735-17.441,23.47-36.226,35.144-54.382c16.782-26.098,33.481-52.207,45.029-81.193c4.518-10.971,9.006-21.954,13.598-32.894
			c0.489-1.163,0.615-2.752,2.213-3.229c-0.001,0.001,0.174-0.434,0.174-0.434c0.391-6.744,4.993-11.782,7.271-17.781
			c5.448-14.349,8.761-29.341,13.755-43.815c2.365-6.854,4.321-13.866,7.013-20.586c4.289-10.711,2.619-22.487,6.357-33.27
			c0.393-1.132-0.18-2.599-1.048-4.105c-5.517,18.45-12.114,36.391-20.418,53.666c0.003,0.338-0.14,0.596-0.43,0.771
			c-0.007,1.885-1.656,2.856-2.408,4.327c0.059,1.322-0.152,2.471-1.749,2.735c-0.333,0.042-0.524,0.23-0.571,0.563
			c0.188,1.236,0.243,2.417-1.227,2.957c0.706,3.968-1.667,7.126-3.034,10.459c-6.947,16.938-17.456,32.015-25.596,48.305
			c-8.98,17.976-20.176,34.565-30.933,51.383c-7.455,11.653-17.197,21.846-25.936,32.676c-16.005,19.837-30.57,40.828-47.376,60.009
			c-20.43,23.315-41.271,46.103-65.514,65.842c-14.467,11.781-29.063,23.245-44.469,33.662
			c-11.67,7.891-23.887,14.975-35.898,22.355c-0.576,0.354-1.504,0.136-2.276,0.172c0.112,1.678-0.764,2.377-2.346,2.379
			c-0.05,1.731-1.141,2.271-2.683,2.292c-10.185,7.18-19.393,15.529-28.676,23.824c8.306-16.403,22.112-27.088,37.445-36.268
			c5.128-3.069,8.768-8.421,14.967-9.904c13.916-11.708,29.802-21.12,42.155-34.592c12.764-13.92,26.15-27.141,40.108-39.824
			c4.293-3.902,5.579-9.89,9.516-14.063c3.265-3.76,4.557-8.933,8.656-12.094c2.358-6.658,8.026-11.728,8.883-19.246
			c-4.131,5.344-8.209,10.667-12.313,15.961c-6.451,8.322-12.552,17.149-21.487,22.884c-18.114,11.626-34.025,25.897-50.103,40.01
			c-2.432,3.072-4.934,6.049-9.162,6.644c-8.638,7.272-17.433,14.372-27.37,19.803c-17.687,9.664-33.182,21.832-45.422,38.012
			c-2.866,3.789-5.567,8.019-10.581,9.533c0.143,1.105-0.182,1.963-1.293,2.403c-0.213,0.341-0.251,0.7-0.116,1.078
			c0.228,0.36,0.176,0.673-0.155,0.935c-0.278,3.281-0.923,6.582-0.772,9.846c0.64,13.911-2.633,27.458-3.575,41.213
			c0.352,0.214,0.704,0.428,1.055,0.641c-0.358,0.205-0.718,0.409-1.076,0.614c0.325,1.778-0.671,3.158-1.399,4.618
			c1.947,2.75,2.762,0.463,3.739-0.865c8.395-11.403,20.137-19.392,29.922-29.378c2.704-4.089,5.331-8.242,9.749-10.935
			c-1.615,4.521-3.257,9.014-7.972,11.477c-0.065,0.673-0.131,1.346-0.196,2.018c0.416,1.448,0.19,2.483-1.612,2.506
			c-8.015,12.399-19.023,22.551-26.54,35.326c-4.269,7.253-8.527,14.513-12.79,21.77c-2.042,9.307-3.56,18.699-4.528,28.181
			C425.245,1125.908,436.11,1118.09,444.761,1108.232z"></path>
		<path fill-rule="evenodd" clip-rule="evenodd" class="colour2" fill="#262262" d="M449.913,989.868c-1.882,1.16-2.942,3.014-4.137,4.79
			c-2.64,3.925-5.467,7.694-10.132,9.475c-1.555,3.761-1.037,7.698-0.974,11.596c0.366-0.049,0.73-0.035,1.093,0.034
			c-0.096-2.211,1.7-3.302,2.844-4.784C443.555,1004.574,448.254,998.032,449.913,989.868z"></path>
		<path fill-rule="evenodd" clip-rule="evenodd" class="colour2" fill="#262262" d="M435.763,1015.763c0.001,0.018-0.003,0.032-0.002,0.05
			c0.016-0.005,0.031-0.011,0.047-0.016c-0.001-0.01-0.001-0.02-0.002-0.029C435.791,1015.765,435.777,1015.766,435.763,1015.763z"></path>
		<path fill-rule="evenodd" clip-rule="evenodd" class="colour2" fill="#262262" d="M614.732,861.032c-0.602-0.033-1.202-0.065-1.803-0.1
			C613.381,863.682,614.11,861.396,614.732,861.032z"></path>
		<path fill-rule="evenodd" clip-rule="evenodd" class="colour2" fill="#262262" d="M429.897,1071.275c0,0-0.003-0.002-0.003-0.002
			c0-0.001,0-0.001,0-0.002c-0.022-0.014-0.044-0.026-0.066-0.04c0,0.44-0.001,0.881-0.001,1.321
			c0.016-0.009,0.031-0.018,0.046-0.026c-0.001-0.005,0-0.009-0.001-0.013C429.882,1072.101,429.891,1071.688,429.897,1071.275z"></path>
		<path fill-rule="evenodd" clip-rule="evenodd" class="colour2" fill="#262262" d="M849.572,1106.919c2.098,0.087,2.648-1.419,3.379-2.699
			c-0.403-0.09-0.804-0.181-1.205-0.272C850.764,1104.697,849.34,1105.144,849.572,1106.919z"></path>
		<polygon fill-rule="evenodd" clip-rule="evenodd" class="colour2" fill="#262262" points="782.607,1119.127 782.284,1118.924 782.238,1119.223 		
			"></polygon>
		<path fill-rule="evenodd" clip-rule="evenodd" class="colour2" fill="#262262" d="M450.189,989.446c-0.086,0.114-0.172,0.228-0.258,0.342
			c-0.005,0.027-0.013,0.053-0.018,0.08c0.021-0.013,0.038-0.027,0.058-0.04C450.044,989.701,450.116,989.573,450.189,989.446z"></path>
		<path fill-rule="evenodd" clip-rule="evenodd" class="colour2" fill="#262262" d="M897.043,492.542c-1.211,1.827-1.105,3.218,0.025,4.615
			C898.552,495.802,898.019,494.423,897.043,492.542z"></path>
	</g>
</g>
</svg>