<svg version="1.1" id="Layer_1___4AbDwq5K" xmlns="http://www.w3.org/2000/svg" xmlns:xlink="http://www.w3.org/1999/xlink" x="0px" y="0px" width="1417.32px" height="1417.32px" viewBox="0 0 1417.32 1417.32" enable-background="new 0 0 1417.32 1417.32" xml:space="preserve">
<g>
	<path fill-rule="evenodd" clip-rule="evenodd" class="colour1" fill="#009FDA" d="M838.095,196.889c0.366,9.408,5.89,16.921,9.478,25.087
		c14.816,33.726,33.521,65.394,52.154,97.082c21.479,36.523,39.118,74.812,53.693,114.581
		c11.699,31.921,21.755,64.263,27.425,97.854c2.902,17.189,5.941,34.364,7.625,51.726c1.695,17.491-3.111,33.808-9.266,49.913
		c-5.21,13.638-9.619,27.813-7.945,42.442c2.171,18.976,3.222,37.912,3.362,56.982c0.103,13.873-1.413,27.486-5.159,40.75
		c-5.952,21.078-7.09,42.072-3.342,63.814c5.446,31.597,2.994,63.018-6.644,93.67c-5.129,16.313-4.646,31.995,3.104,47.352
		c3.067,6.078,3.71,12.807,4.531,19.389c0.824,6.608,0.627,13.339,1.298,19.973c2.11,20.914-2.417,41.017-7.343,61.044
		c-3.074,12.496-3.349,25.276-4.183,37.957c-2.023,30.751-3.152,61.561-5.184,92.312c-1.424,21.549-3.158,43.051-3.598,64.672
		c-0.439,21.622,0.824,43.206,0.58,64.817c-0.054,4.7-1.171,6.147-5.869,5.927c-11.981-0.566-23.719-2.966-35.599-4.246
		c-15.589-1.682-31.127-3.912-46.745-5.206c-26.979-2.235-53.98-4.417-81.016-5.72c-26.476-1.275-52.592-6.686-79.178-6.387
		c-2.266,0.025-4.538-0.568-6.809-0.875c0.685-6.146-1.358-12.058-1.445-18.174c-0.538-37.547-1.759-75.092-1.808-112.638
		c-0.047-35.969,1.379-71.939,1.575-107.911c0.292-53.671-0.485-107.354,0.249-161.018c0.586-42.844,0.527-85.692,0.721-128.53
		c0.272-60.186,3.032-120.259,5.177-180.37c5.507-0.093,11.013-0.264,16.52-0.267c25.36-0.014,49.51-4.548,71.498-18.1
		c7.094-4.373,11.646-10.071,13.892-18.095c3.359-11.994,5.034-24.191,5.189-36.583c0.315-25.249-2.71-50.151-8.386-74.738
		c-0.769-3.331-1.312-6.129,1.816-9.001c17.797-16.337,27.411-37.518,34.446-60.036c4.383-14.032,3.26-28.774,4.774-43.181
		c3.381-32.157-6.979-61.04-22.059-88.164c-15.414-27.726-34.32-53.404-50.136-80.987c-7.479-13.045-9.36-25.921-4.651-39.979
		c5.664,1.137,9.381,5.495,13.829,8.565C795.891,167.244,816.967,182.104,838.095,196.889z"></path>
	<path fill-rule="evenodd" clip-rule="evenodd" class="colour1" fill="#009FDA" d="M697.935,613.159c-2.144,60.11-4.903,120.184-5.176,180.369
		c-0.194,42.838-0.135,85.687-0.721,128.53c-0.733,53.664,0.043,107.347-0.249,161.018c-0.196,35.972-1.622,71.942-1.575,107.911
		c0.049,37.546,1.271,75.091,1.808,112.638c0.087,6.116,2.13,12.028,1.445,18.174c-11.583,3.292-23.63,3.672-35.452,5.383
		c-45.33,6.563-89.737,17.044-133.669,29.838c-15.093,4.396-30.904,5.398-46.295,8.445c-8.109,1.604-16.049,3.585-24.421,1.284
		c-4.086-1.124-5.111-2.745-4.422-7.04c4.756-29.657,9.049-59.388,13.774-89.048c3.766-23.643,7.838-47.237,11.949-70.823
		c4.586-26.308,7.802-52.815,11.784-79.211c7.795-51.66,10.469-103.631,9.8-155.81c-0.608-47.417-2.423-94.804-5.484-142.113
		c-1.952-30.178-6.866-60.101-9.95-90.18c-5.298-51.689-17.313-102.117-27.894-152.778c-5.24-25.088-13.106-49.691-17.896-74.927
		c-4.827-25.428-9.786-50.834-9.267-77.037c0.745-37.599,7.931-73.776,22.386-108.36c18.256-43.68,36.927-87.221,63.995-126.459
		c10.383-15.052,21.042-29.914,31.523-44.898c9.629-13.768,16.599-28.944,22.993-44.378c2.935-7.083,6.275-13.928,9.979-20.616
		l0.106-0.076c0.382-0.161,0.565-0.449,0.548-0.863c3.423-1.515,6.758-3.358,10.712-2.926c-6.643,6.737-7.721,15.735-9.377,24.316
		c-1.188,6.153-3.089,11.627-7.181,16.445c-10.431,12.282-20.08,25.097-28.889,38.668c-9.708,14.955-18.728,30.486-31.046,43.648
		c-5.724,6.116-9.85,13.427-11.613,21.576c-2.302,10.637-7.448,19.311-15.427,26.49c-5.753,5.176-9.059,11.729-10.972,19.136
		c-1.078,4.171-2.431,8.273-3.731,12.385c-6.537,20.679-10.566,41.966-11.498,63.5c-1.64,37.913,13.814,69.474,39.628,96.336
		c4.412,4.591,8,8.827,7.664,15.676c-0.209,4.257,0.366,8.661,1.28,12.847c4.515,20.667,4.595,41.713,5.158,62.662
		c0.492,18.291,1.425,36.45,5.11,54.415c0.839,4.09,2.58,7.323,6.036,9.676c5.555,3.783,11.363,7.069,17.912,8.763
		c23.286,6.022,46.861,9.126,71.02,8.714c13.101-0.224,25.835-4.461,39.066-2.565C666.844,614.103,682.43,612.505,697.935,613.159z"></path>
	<path fill-rule="evenodd" clip-rule="evenodd" class="colour2" fill="#262262" d="M588.269,79.206c-3.955-0.432-7.289,1.411-10.712,2.926
		c5.213-8.662,10.333-17.381,15.702-25.946c1.439-2.296,4.026-1.727,6.46-1.4c20.822,2.793,40.859,8.329,60.532,15.739
		c45.288,17.058,89.458,36.499,131.569,60.405c13.135,7.457,25.353,16.353,36.853,26.191c3.325,2.844,4.778,6.39,5.297,10.726
		c1.159,9.706,2.726,19.364,4.127,29.042c-21.129-14.784-42.205-29.644-63.426-44.294c-4.448-3.07-8.165-7.428-13.829-8.565
		c-1.492-0.916-2.943-1.906-4.481-2.736c-28.284-15.259-57.41-28.862-85.529-44.51c-15.422-8.582-32.681-13.937-51.006-14.439
		C609.285,82.054,598.786,80.3,588.269,79.206z"></path>
	<path fill-rule="evenodd" clip-rule="evenodd" class="colour1" fill="#009FDA" d="M815.628,264.994c-15.414-27.726-34.32-53.404-50.136-80.987
		c-7.479-13.045-9.36-25.921-4.651-39.979c-1.492-0.916-2.943-1.906-4.481-2.736c-28.284-15.259-57.41-28.862-85.529-44.51
		c-15.422-8.582-32.681-13.937-51.006-14.439c-10.539-0.29-21.038-2.043-31.555-3.138c-6.643,6.737-7.721,15.735-9.377,24.316
		c-1.188,6.153-3.089,11.627-7.181,16.445c-10.431,12.282-20.08,25.097-28.889,38.668c-9.708,14.955-18.728,30.486-31.046,43.648
		c-5.724,6.116-9.85,13.427-11.613,21.576c-2.302,10.637-7.448,19.311-15.427,26.49c-5.753,5.176-9.059,11.729-10.972,19.136
		c-1.078,4.171-2.431,8.273-3.731,12.385c-6.537,20.679-10.566,41.966-11.498,63.5c-1.64,37.913,13.814,69.474,39.628,96.336
		c4.412,4.591,8,8.827,7.664,15.676c-0.209,4.257,0.366,8.661,1.28,12.847c4.515,20.667,4.595,41.713,5.158,62.662
		c0.492,18.291,1.425,36.45,5.11,54.415c0.839,4.09,2.58,7.323,6.036,9.676c5.555,3.783,11.363,7.069,17.912,8.763
		c23.286,6.022,46.861,9.126,71.02,8.714c13.101-0.224,25.835-4.461,39.066-2.565c15.438,2.211,31.023,0.614,46.53,1.267
		c5.507-0.093,11.013-0.264,16.52-0.267c25.36-0.014,49.51-4.548,71.498-18.1c7.094-4.373,11.646-10.071,13.892-18.095
		c3.359-11.994,5.034-24.191,5.189-36.583c0.315-25.249-2.71-50.151-8.386-74.738c-0.769-3.331-1.312-6.129,1.816-9.001
		c17.797-16.337,27.411-37.518,34.446-60.036c4.383-14.032,3.26-28.774,4.774-43.181
		C841.067,321.001,830.708,292.118,815.628,264.994z"></path>
	<g>
		<path class="colour3" fill="#d71920" d="M949.452,1143.949c2.732-9.777,5.237-19.645,6.702-29.726c3.363-3.765,1.221-8.242,1.601-12.396
			c-0.701,2.016-1.546,3.994-2.082,6.053c-5.064,19.458-13.355,36.937-29.686,49.698c-11.012,8.604-22.995,15.568-35.249,22.223
			c-15.598,8.47-32.569,13.379-48.987,19.7c-5.583,2.148-11.109,5.166-19.057,5.096c3.646-1.895,5.815-3.164,8.098-4.187
			c21.25-9.537,42.913-18.192,62.64-30.868c15.238-9.793,30.474-19.546,41.795-34.066c3.607-4.629,6.336-9.844,8.797-15.35
			c-2.375-0.607-3.082,0.513-3.696,1.433c-3.559,5.339-8.408,9.148-13.721,12.655c-10.723,7.077-22.759,11.331-34.427,16.289
			c-19.367,8.227-39.897,12.627-60.289,17.589c-25.994,6.327-52.083,11.824-78.68,14.816c-22.246,2.502-44.432,6.176-66.746,7.29
			c-24.528,1.225-49.173,0.213-73.766-0.007c-23.1-0.207-46.139-1.479-69.054-4.591c-8.363-1.135-16.745-2.137-25.114-3.227
			c-6.065-0.79-10.942-3.999-15.823-7.437c-5.454-3.842-8.586-9.334-11.472-15.957c-1.486,3.412-0.153,5.684,0.23,7.778
			c2.673,14.582,9.764,26.832,23.097,33.627c14.463,7.373,30.342,11.498,45.668,16.861c5.385-1.37,9.772,2.103,14.661,3.323
			c-4.975-0.15-9.961-0.115-14.714-2.027c-1.867-0.168-3.739-0.338-5.612-0.509l-0.043,0.205c0,0-0.043-0.184-0.041-0.183
			c-11.146-1.057-21.636-5.136-32.607-7.06c-18.482-3.242-31.479-20.01-34.137-35.438c-2.325-13.496-2.27-26.991-2.74-40.526
			c-1.384,5.608-2.857,11.202-2.757,17.05c0.053,10.211,0.019,20.422,0.177,30.63c0.244,15.815,3.56,30.708,13.544,43.521
			c-15.282-10.304-15.491-26.677-17.016-42.56c-1.635,19.424-1.523,38.458,9.184,55.808c7.95,12.88,20.096,20.108,33.614,25.559
			c23.394,9.43,47.998,14.787,72.302,21.083c20.375,5.278,41.308,7.715,62.099,10.809c7.168,1.067,14.375,1.99,21.459,3.481
			c8.307,1.749,16.095,2.606,24.834,0.294c24.099-6.377,48.617-11.144,72.873-16.952c32.775-7.85,64.37-19.357,95.022-33.187
			c15.824-7.14,28.587-19.269,41.991-30.166c2.74-2.227,5.39-4.57,8.206-6.693c16.749-12.627,25.916-29.624,29.098-50.122
			c0.476-3.069,1.141-6.111,1.717-9.166c-0.377-0.309-0.754-0.619-1.131-0.93c-4.181,12.347-8.351,24.821-19.702,32.7
			c-5.738,3.981-10.733,9.317-18.224,10.653c5.389-4.835,10.982-9.464,16.124-14.55
			C939.191,1171.633,945.436,1158.316,949.452,1143.949z"></path>
		<path class="colour3" fill="#d71920" d="M496.04,1013.516c-0.228,0.319-0.232,0.642-0.014,0.967c1.239-1.265,2.049-0.797,2.344,0.715
			c0.485,2.484,0.666,5.039,1.268,7.492c1.993,8.118,2.51,16.777,8.342,23.539c-0.068-0.26-0.025-0.499,0.13-0.716
			c-0.464-2.295-0.611-4.716-1.446-6.871c-3.66-9.435-4.882-19.402-6.961-29.202c-1.544-7.276-0.249-14.826-2.768-21.916
			c-1.726,4.36-0.799,8.848-0.636,13.297c0.736,0.584,0.974,1.151-0.057,1.676c0.022,0.64,0.044,1.281,0.066,1.922
			C499.021,1009.663,498.963,1011.631,496.04,1013.516z"></path>
		<path class="colour3" fill="#d71920" d="M504.618,1082.856c6.997,27.292,22.082,47.544,48.803,58.829c11.204,4.731,22.817,7.233,34.45,9.384
			c35.536,6.569,71.426,7.826,107.454,4.842c18.994-1.573,37.997-2.935,56.828-6.141c22.202-3.782,43.595-10.097,64.079-19.419
			c9.892-4.502,20.375-7.432,29.926-12.97c16.819-9.753,32.433-21.217,48.514-32.033c12.972-8.725,22.266-21.459,34.759-30.669
			c1.976-1.457,4.474-3.554,5.148-8.507c-44.27,31.511-92.177,51.297-143.807,65.155c1.017-2.709,2.4-2.67,3.404-3.044
			c17.99-6.684,35.966-13.458,52.729-22.882c4.816-2.707,10.431-4.651,13.754-9.64c-0.493-0.022-0.987-0.044-1.474-0.067
			c-2.691-0.15-4.604,1.843-6.963,2.563c-18.379,5.616-36.977,10.187-56.063,12.835c-26.476,3.674-52.967,6.651-79.746,7.036
			c-8.954,0.128-18.126-0.734-26.919,2.137c-2.347,1.711-4.851,1.151-7.352,0.509c-3.412,0.263-6.833,0.527-10.255,0.79
			c-7.995,1.704-16.125,1.843-24.238,2.101c-1.116,0.055-2.239,0.111-3.362,0.167c-8.428,2.483-17.19,1.037-25.765,2.13
			c-4.681,0.598-9.617,1.019-14.377-0.261c-5.318,0.262-10.646,0.524-15.973,0.788c-1.299,1.313-2.653,1.264-4.042,0.166
			c-1.589-0.024-3.188-0.05-4.786-0.075c0,0-0.055-0.011-0.053-0.011c-1.873-0.192-3.749-0.388-5.624-0.581
			c-7.688,0.571-15.021-1.427-22.395-3.114c-2.079-0.477-4.151-0.984-6.227-1.477c-0.301,0.326-0.602,0.652-0.902,0.979
			c-0.069,0.302-0.232,0.538-0.497,0.704c0.839,0.591,1.683,1.186,2.527,1.779l0.266-0.115c0,0,0.062,0.271,0.057,0.268
			c3.458,1.876,6.922,3.758,10.387,5.638c1.511-0.228,2.677,0.271,3.425,1.626c1.932,0.823,3.875,1.65,5.817,2.476
			c2.168,0.029,4.28,0.286,6.153,1.496c2.266-0.379,4.33-0.137,5.771,1.953c10.335,2.371,21.05,2.744,31.146,6.601
			c-13.125-1.598-26.619,0.133-39.377-4.911c-1.166,0.076-2.339,0.153-3.513,0.231c-1.498,0.563-2.896,0.74-3.784-0.989
			c-1.786-0.481-3.581-0.968-5.374-1.453c-1.167,0.546-1.982-0.261-2.87-0.746c-1.833-0.475-3.676-0.953-5.518-1.432
			c-5.207-1.747-10.89-2.313-15.251-6.134c-0.784-0.41-1.577-0.822-2.371-1.235c-1.821,0.275-3.073-0.582-4.024-2.019
			c-0.657-0.367-1.321-0.738-1.985-1.108c-0.893,0.093-1.409-0.35-1.658-1.159c-5.354-2.633-8.247-7.952-12.646-11.636
			c0,0-0.229-0.254-0.229-0.247c-2.296-4.671-4.594-9.351-7.008-14.27C503.966,1079.622,504.209,1081.262,504.618,1082.856z"></path>
		<path class="colour3" fill="#d71920" d="M951.058,1005.111c0.285-0.421,0.569-0.843,0.854-1.264c0-0.001-0.036,0.009-0.036,0.009
			c-0.114-4.106,4.814-7.522,1.649-12.047c-4.424,7.807-8.328,16.274-15.938,21.382c-8.531,5.725-16.458,12.441-25.955,16.732
			c-2.174,0.983-4.674,2.048-5.627,4.7c6.12,0.016,10.815-3.86,16.011-6.183C933.659,1023.235,944.114,1016.29,951.058,1005.111z"></path>
		<path class="colour3" fill="#d71920" d="M906.004,1034.624c-0.038-0.001-0.074,0.003-0.112,0.003l0.078,0.072
			C905.979,1034.672,905.994,1034.65,906.004,1034.624z"></path>
	</g>
	<g>
		<path fill-rule="evenodd" clip-rule="evenodd" class="colour4" fill="#bcbec0" d="M842.624,1030.344c18.129-5.143,35.643-11.934,52.781-19.804
			c11.227-5.155,22.768-9.685,32.695-17.183c7.483-5.651,15.461-11.095,18.938-20.415c3.007-8.061,5.547-16.294,8.294-24.452
			c3.738-20.206,11.968-39.56,11.485-60.679c-2.282,6.099-5.039,11.895-9.175,16.814c-14.694,17.488-31.206,33.183-48.277,48.304
			c-12.294,10.891-27.908,16.72-40.813,26.687c-1.146,1.921-3.109,1.857-4.969,2.046c-0.292,0.25-0.628,0.407-1.007,0.471
			c-1.468,2.18-3.836,2.528-6.136,3.016c-0.275,0.258-0.602,0.404-0.979,0.438c-9.422,6.119-19.907,10.003-30.221,14.202
			c-11.984,4.881-24.086,9.472-36.162,14.122c-1.047,0.403-2.28,0.322-3.74-0.39c5.132-2.193,10.291-4.328,15.391-6.594
			c16.147-7.176,32.656-13.574,48.089-22.296c1.348-0.761,2.747-1.566,4.43-1.125c0.519-0.459,1.036-0.918,1.556-1.377
			c1.552-2.007,3.666-2.878,6.133-3.033c0.312-0.209,0.655-0.327,1.03-0.354c0.745-1.419,1.923-2.139,3.521-2.178
			c-0.001,0,0.085-0.046,0.085-0.046c0.447-1.185,1.171-2.01,2.557-1.982c3.823-2.518,7.647-5.035,11.471-7.552
			c0.504-1.234,1.515-1.687,2.753-1.788c0.161-0.309,0.407-0.521,0.734-0.641c0.637-1.037,1.457-1.793,2.76-1.817
			c0.226-0.26,0.507-0.42,0.846-0.479c0.532-1.157,1.329-1.932,2.703-1.868c1.208-0.828,2.419-1.657,3.627-2.485
			c0.617-1.618,1.93-2.099,3.507-2.146c0.688-0.559,1.375-1.116,2.063-1.675c0.457-1.192,1.211-2.005,2.584-2.026
			c1.107-0.902,2.215-1.805,3.321-2.706c0.794-1.623,1.951-2.813,3.795-3.183c9.593-9.586,19.365-19.001,28.726-28.81
			c8.405-8.809,17.222-17.377,23.491-27.94c6.999-11.79,8.079-24.715,6.464-38.002c-0.599,12.911-6.062,23.395-15.316,32.182
			c-9.252,8.785-18.593,17.454-28.953,24.947c-0.354,1.382-1.278,1.948-2.661,1.857c-4.651,3.693-9.303,7.387-13.955,11.08
			c-0.933,2.062-2.714,2.935-4.778,3.409c-6.156,3.733-12.313,7.465-18.471,11.196c-2.483,2.485-5.378,4.262-8.811,5.107
			c-1.377,0.701-2.756,1.402-4.134,2.104c-1.174,1.212-2.215,2.665-4.239,2.323c-1.389,0.714-2.777,1.427-4.166,2.142
			c-1.201,1.917-3.107,2.547-5.194,2.85c-1.185,0.445-2.37,0.892-3.556,1.337c-1.427,2.036-3.429,3.106-5.845,3.475
			c-0.615,0.254-1.229,0.507-1.846,0.762c-0.657,1.057-1.505,1.791-2.852,1.68c-1.817,0.984-3.636,1.969-5.454,2.953
			c-2.368,2.623-5.585,3.273-8.849,3.813c-1.004,0.292-2.009,0.584-3.014,0.877c-2.06,2.161-4.757,2.625-7.55,2.835
			c-1.194,0.419-2.39,0.837-3.586,1.257c-2.703,2.312-5.989,3.063-9.39,3.502c-1.214,0.317-2.428,0.636-3.643,0.953
			c-2.382,2.235-5.313,2.302-8.311,2.106c-2.147,0.802-4.297,1.604-6.445,2.407c-0.95,1.514-2.357,1.917-4.035,1.659
			c-1.018,0.239-2.035,0.478-3.053,0.717c-1.397,1.575-3.238,1.811-5.188,1.72c-1.012,0.244-2.023,0.489-3.036,0.733
			c-1.897,1.618-4.038,2.56-6.587,2.351c-0.757,0.155-1.513,0.309-2.269,0.463c-1.605,1.736-3.617,2.343-5.922,2.131
			c-1.385,0.289-2.769,0.58-4.152,0.869c-1.792,1.908-4.056,2.431-6.563,2.232c-1.146,0.225-2.292,0.448-3.438,0.673
			c-10.016,3.16-20.03,6.321-30.047,9.477c-2.988,0.94-6.119,1.561-8.947,2.848c-10.028,4.568-19.688,1.02-29.438-0.992
			c-1.186-0.098-2.372-0.197-3.557-0.295c-2.661,0.724-5.246,0.879-7.558-1.009c-1.423-0.064-2.845-0.128-4.268-0.191
			c-2.415,0.937-4.759,0.853-7.013-0.493c-1.189-0.026-2.378-0.052-3.568-0.079c-1.659,0.313-3.315,0.615-4.766-0.631
			c-1.189-0.027-2.379-0.057-3.569-0.085c-1.667,0.993-3.213,0.848-4.629-0.497c-1.219-0.024-2.439-0.05-3.66-0.074
			c-1.402,1.469-2.467,0.554-3.512-0.497c-1.174,0.116-2.349,0.233-3.523,0.35c-1.599,1.526-2.946,2.008-3.492-0.841
			c-0.755-0.166-1.511-0.333-2.268-0.501c-1.773,0.652-3.4,0.506-4.796-0.885c-0.769-0.065-1.539-0.131-2.308-0.196
			c-3.398,0.291-6.517-1.116-9.786-1.61c-2.591,1.793-4.474-0.716-6.706-1.105c-1.304,0.736-2.271,0.276-3.049-0.857
			c-1.025-0.16-2.05-0.321-3.074-0.481c-1.281,0.893-2.072,0.229-2.729-0.858c-1.041-0.216-2.082-0.432-3.123-0.647
			c-4.12-0.866-8.491-0.626-12.318-2.784c-1.796-0.658-3.592-1.317-5.388-1.976c-5.237-1.28-10.313-2.917-14.477-6.564
			c-3.057-1.72-6.114-3.439-9.171-5.159c-1.521-0.177-2.764-0.754-3.314-2.316c-4.242-2.501-7.764-5.884-11.324-9.226
			c-16.821-15.792-23.486-36.437-27.827-58.194c-2.901,3.489,0.237,6.946,0.117,10.435c-0.085,2.486,0.529,4.995,0.831,7.493
			c4.256,26.846,12.31,51.978,32.187,71.839c5.722,5.718,12.349,10.356,19.342,14.088c8.648,4.612,17.196,9.845,27.214,11.394
			c0.804,0.124,1.458,1.217,2.182,1.86c10.984,2.591,21.653,6.539,32.973,7.678c20.244-3.532,40.552-6.697,60.729-10.671
			c8.004-1.576,15.92-4.648,24.272-3.698c14.98,1.705,29.952,3.577,45.019,4.161c32.266,1.25,64.302-1.694,96.254-5.82
			c21.541-2.781,42.15-8.546,61.31-19.042c1.631-0.894,3.396-2.637,5.818-1.221c-39.008,30.167-86.295,38.403-132.685,51.887
			c11.059,0.799,20.021-3.702,29.441-5.565C816.712,1037.957,829.658,1034.022,842.624,1030.344z"></path>
		<path fill-rule="evenodd" clip-rule="evenodd" class="colour4" fill="#bcbec0" d="M832.845,417.704c-2.619-0.069-6.808,0.089-7.635,1.592
			c-3.546,6.444-6.259,1.881-8.841-0.27c-3.156-2.627-5.877-5.777-8.801-8.685c-4.779-4.752-5.922-10.003-2.233-15.936
			c-0.401-4.625-4.23-5.899-7.579-7.253c-16.701-6.752-34.078-10.518-52.092-11.365c-37.22-1.751-72.531,7.445-106.989,19.882
			c-21.5,7.76-43.238,15.51-62.16,29.062c-11.246,8.054-22.785,15.72-31.865,26.373c5.425-1.888,9.319-6.105,13.986-9.099
			c11.022-7.069,22.939-12.456,35.079-17.545c34.087-14.289,69.247-23.366,106.121-26.987c31.649-3.108,61.206,3.983,90.46,14.308
			c2.945,1.039,6.705,3.36,5.407,6.706c-2.665,6.87,1.592,8.99,6.087,11.691c3.357,2.018,6.609,4.292,9.605,6.813
			c4.178,3.516,8.503,3.825,13.596,2.294c15.194-4.567,30.692-5.166,46.304-3.229c-21.187,2.813-42.164,6.511-63.309,12.383
			c5.401-6.228,1.958-9.042-2.863-11.587c-1.896-1.001-3.48-2.599-5.387-3.575c-1.716-0.879-3.993-3.471-5.462-1.118
			c-1.314,2.106-1.243,5.393,1.014,7.636c1.105,1.099,2.492,1.908,3.693,2.917c7.04,5.91,7.032,5.914,1.067,12.622
			c-0.631,0.709-1.401,1.407-0.739,2.515c0.374,0.11,0.789,0.378,1.113,0.294c17.049-4.374,34.302-1.349,51.469-1.479
			c8.497-0.064,16.991-0.498,25.489-0.671c8.405-0.172,16.813-0.258,25.22-0.289c1.031-0.004,2.691-0.233,2.718,1.415
			c0.012,0.735-0.929,1.625-1.631,2.21c-6.621,5.524-13.23,11.042-20.251,16.089c-10.229,7.354-21.669,12.606-32.263,19.296
			c29.665-0.793,58.218-6.565,85.382-19.107c-16.477,16.881-38.868,22.962-59.032,33.13c12.389-1.031,24.341-3.977,36.22-7.179
			c13.832-3.729,27.696-7.513,38.097-18.398c4.133-7.922,6.981-16.009,6.475-25.291c-0.968-17.747-2.31-19.802-19.308-24.78
			c-15.485-4.535-31.5-6.244-47.336-8.878C872.188,420.972,852.628,418.221,832.845,417.704z M938.544,474.133l-0.216,0.293
			l-0.113-0.347L938.544,474.133z"></path>
		<path fill-rule="evenodd" clip-rule="evenodd" class="colour4" fill="#bcbec0" d="M492.509,409.357c-0.071-1.375-0.171-2.75-0.323-4.118
			c-1.647-14.851,1.567-28.445,10.307-40.683c7.04-9.858,16.51-16.987,25.771-24.609c32.523-26.769,70.279-42.129,110.646-51.559
			c19.433-4.54,39.139-7.83,59.262-9.211c12.899-0.886,25.35-0.342,37.879,1.667c16.406,2.63,32.119,8.016,47.154,14.79
			c13.685,6.166,26.84,14.26,33.601,28.399c6.412,13.41,17.127,19.816,30.629,22.834c8.662,1.936,17.487,3.137,26.239,4.667
			c-3.218,2.473-6.745,2.823-10.392,2.854c-8.386,0.072-16.785,0.094-24.938,2.506c11.725-0.528,23.486-0.647,35.162-1.717
			c9.081-0.833,18.39-0.921,27.046-4.505c7.159-2.963,10.348-8.089,8.407-13.99c-1.785-5.42-5.112-10.096-7.918-15.016
			c-0.846-1.482-2.034-1.67-3.441-0.775c-0.387,0.217-0.773,0.433-1.146,0.645c-1.469,0.349-2.949,0.703-4.432,1.057l-0.185,0.347
			c0,0-0.291-0.206-0.285-0.207c-5.539,0.36-11.043,0.059-16.499-1.033c-0.748-0.106-1.495-0.212-2.228-0.317
			c-3.904-0.743-7.825-1.487-11.746-2.23c-0.807,0.367-1.595,0.541-2.263-0.246c-1.903-0.294-3.821-0.586-5.741-0.877l-0.316,0.188
			c0,0-0.289-0.266-0.28-0.264c-2.404-1.486-5.231-1.419-7.859-2.099l-0.24,0.067c0,0-0.107-0.223-0.102-0.22
			c-2.946-1.378-6.499-1.443-8.882-4.03c-0.189-1.38-0.498-3.081-1.917-3.4c-8.908-2.01-13.442-9.814-19.966-14.938
			c-10.34-8.121-20.181-16.477-33.097-21.013c-19.303-6.78-39.266-9.474-59.273-12.196c-4.565-0.621-9.266-1.404-14.044-0.799
			c-21.619,2.735-42.979,6.58-63.946,12.706c-22.842,6.673-45.333,14.324-66.986,24.139c-18.023,8.169-33.105,20.918-48.681,32.92
			c-9.67,7.452-19.238,14.724-26.089,25.014c-11.978,17.989-15.11,37.344-9.283,58.101
			C492.519,411.286,492.559,410.319,492.509,409.357z"></path>
		<path fill-rule="evenodd" clip-rule="evenodd" class="colour4" fill="#bcbec0" d="M478.398,274.034c0.001-0.011,0.003-0.021,0.005-0.032
			c-0.023-0.005-0.04-0.003-0.063-0.007c0.004,0.026,0.002,0.049,0.007,0.076C478.365,274.059,478.381,274.046,478.398,274.034z"></path>
		<path fill-rule="evenodd" clip-rule="evenodd" class="colour4" fill="#bcbec0" d="M514.983,255.103c5.296-6.255,11.245-11.703,18.771-15.198
			c0.032-0.049,0.069-0.094,0.1-0.144c0.027-0.016,0.058-0.029,0.086-0.044c0.243-1.293,0.693-2.396,2.384-2.462
			c0.081,1.758-1.368,1.899-2.384,2.462c-0.007,0.036-0.015,0.069-0.021,0.105c-0.056,0.026-0.108,0.057-0.165,0.083
			c-2.367,3.613-7.379,5.22-7.761,10.62c14.968-12.503,31.796-21.509,49.72-28.583c3.417-2.592,7.063-4.734,11.294-5.715
			c4.009-1.973,8.031-3.922,12.028-5.922c20.601-10.31,42.54-16.167,65.239-19.318c28.458-3.95,54.109,4.526,78.197,18.69
			c19.009,11.177,36.147,25.13,54.136,37.821c4.864,3.432,11.098,4.963,15.03,9.037c4.075,4.223,8.661,5.888,13.796,6.967
			c12.103,2.542,23.806-1.144,35.637-2.707c0.698-0.092,1.486-0.65,1.926-1.225c0.426-0.559,0.657-1.434,0.611-2.147
			c-0.066-1.045-0.964-0.899-1.769-0.878c-8.128,0.211-15.899-3.547-23.907-2.912c-18.812,1.491-33.4-7.419-47.579-17.85
			c-16.79-12.351-33.73-24.503-50.384-37.037c-16.108-12.122-33.513-21.218-53.537-24.767c-0.948,0.51-1.763,0.271-2.492-0.446
			c-1.992-0.294-3.984-0.588-5.977-0.882c-0.848,0.722-1.603,0.535-2.299-0.232c-12.624-0.836-25.228-0.833-37.788,0.948
			c-12.379,2.974-25.151,4.502-36.941,9.646c-7.672,3.348-15.19,7.047-23.425,9.524c3.349-1.92,6.633-3.967,10.059-5.739
			c15.798-8.169,32.322-14.039,50.193-15.521c23.609-5.094,46.739-2.678,69.567,4.442c0.834-0.422,1.354-1.052,1.345-2.032
			c-3.042-1.222-6.018-2.652-9.136-3.634c-40.244-12.679-78.783-7.533-116.166,10.915c-23.724,11.707-43.992,28.132-63.651,45.467
			l-0.322,0.366l-0.505-0.003c-0.44,0.65-0.745,1.482-1.782,1.34c-8.288,9.653-16.708,19.187-25.747,28.154
			c-1.51-1.397,0.406-2.794,0.003-4.19c-1.345,1.68-2.689,3.36-4.033,5.042c-6.458,7.851-14.79,14.427-17.078,25.114
			c1.117-0.774,2.234-1.547,3.351-2.322c-0.125-1.798,0.771-2.913,2.361-3.566c0.182-1.406,0.424-2.75,2.368-2.374
			c-0.51-2.972,1.137-4.653,3.544-5.879c-0.258-1.883,0.563-3.046,2.371-3.55c0.167-2.334,1.282-3.954,3.554-4.705
			c0.495,2.83-0.588,4.472-3.52,4.726c0.743,2.207-0.04,3.393-2.363,3.551c0.391,2.904-1.452,4.47-3.529,5.897
			c-0.191,1.397-0.415,2.762-2.358,2.388c0.608,2.111-0.015,3.401-2.375,3.532c0.301,3.563-2.535,5.113-4.619,7.144
			c-4.073,8.531-4.549,17.867-6.035,26.978c2.42-1.204,3.866-3.399,5.028-5.619c6.8-12.996,15.727-24.418,26.105-34.646
			C500.784,267.267,506.889,260.053,514.983,255.103z M576.401,193.944c-1,2.028-2.384,2.661-4.427,2.843
			C572.897,194.765,574.23,194.047,576.401,193.944z M569.253,198.462c0.01-0.018,0.022-0.033,0.032-0.051
			c0.033-0.024,0.078-0.042,0.129-0.056c0.103-0.254,0.206-0.508,0.308-0.763c0.831,0.752,0.072,0.657-0.308,0.763
			c-0.017,0.042-0.034,0.084-0.051,0.126C569.326,198.473,569.291,198.471,569.253,198.462c-0.893,1.524-2.077,2.444-4.232,2.059
			C566.17,198.76,567.465,198.061,569.253,198.462z M539.779,233.848c0.281-0.116,0.563-0.232,0.844-0.348
			c-0.277,0.123-0.554,0.246-0.829,0.369l-0.135,0.125L539.779,233.848z M487.82,259.848c-0.016-0.797-0.032-1.594-0.048-2.391
			c1.397,0.268,1.717-2.842,3.572-1.14C491.052,258.375,490.479,260.153,487.82,259.848z"></path>
		<path fill-rule="evenodd" clip-rule="evenodd" class="colour4" fill="#bcbec0" d="M476.04,276.422c-0.008-0.027-0.01-0.05-0.018-0.077
			c-0.018,0.007-0.033,0.016-0.05,0.023c-0.002,0.015-0.004,0.03-0.006,0.045C475.994,276.419,476.013,276.417,476.04,276.422z"></path>
		<path fill-rule="evenodd" clip-rule="evenodd" class="colour4" fill="#bcbec0" d="M481.927,268.137c-0.002-0.015,0-0.028-0.002-0.044
			c-0.014,0.007-0.026,0.015-0.04,0.022c0.001,0.01,0,0.018,0.002,0.027C481.901,268.142,481.913,268.138,481.927,268.137z"></path>
		<path fill-rule="evenodd" clip-rule="evenodd" class="colour4" fill="#bcbec0" d="M484.291,264.586c-0.004-0.011-0.004-0.02-0.008-0.03l0,0h0l0,0
			l0,0c-0.01,0.003-0.017,0.006-0.026,0.009c-0.001,0.009-0.003,0.018-0.003,0.027C484.266,264.591,484.277,264.587,484.291,264.586
			z"></path>
		<path fill-rule="evenodd" clip-rule="evenodd" class="colour4" fill="#bcbec0" d="M698.67,979.047c-18.68,2.34-37.47,4.421-56.265,5.063
			c-25.894,0.884-51.683-0.819-76.316-10.56c5.25,4.379,11.169,7.185,17.4,9.4c0.806-0.331,1.11,0.12,1.258,0.81
			c0.326,0.195,0.673,0.344,1.039,0.446c3.408,0.46,6.668,1.321,9.444,3.489c0.767,0.068,1.534,0.135,2.301,0.203
			c2.473,0.345,5.028,0.389,7.158,1.974c0.777,0.106,1.556,0.212,2.334,0.317c1.034-0.39,1.811-0.043,2.398,0.84
			c0.764,0.146,1.527,0.291,2.292,0.437c3.647,0.264,7.294,0.526,10.66,2.169c1.152,0.16,2.305,0.319,3.458,0.479
			c1.685-0.809,3.087-0.46,4.213,1.026c0.622,0.034,1.244,0.068,1.866,0.104c1.379-0.758,2.544-0.559,3.458,0.769
			c1.17,0.054,2.342,0.106,3.513,0.159c3.703-0.188,7.328,0.134,10.782,1.61c0.778,0.01,1.555,0.02,2.333,0.029
			c1.315-0.869,2.503-0.924,3.451,0.543c1.94,0.125,3.88,0.249,5.821,0.374c1.396-0.576,2.663-0.561,3.638,0.793
			c1.197,0.065,2.395,0.131,3.592,0.196c7.672-0.042,15.055,2.01,22.452,3.569c2.571,0.542,4.424,0.196,6.605-0.566
			c13.639-4.767,27.289-9.504,40.955-14.191c1.053-0.361,2.263-0.268,3.399-0.385c0.758-0.195,1.516-0.392,2.274-0.588
			c1.246-1.597,2.861-2.195,4.848-1.798c0.749-0.178,1.499-0.356,2.248-0.535c3.849-2.873,8.531-3.4,12.969-4.617
			c1.005-0.279,2.011-0.559,3.018-0.838c0.655-1.136,1.562-1.747,2.925-1.4c0.996-0.306,1.992-0.612,2.988-0.919
			c0.991-1.518,2.333-2.068,4.087-1.488c1.39-0.296,2.779-0.592,4.17-0.888c2.431-2.453,5.724-2.946,8.823-3.873
			c18.216-6.416,35.308-14.902,50.306-27.374c-25.068,13.895-52.379,20.792-80.212,25.761
			C739.879,973.244,719.304,976.462,698.67,979.047z"></path>
		<path fill-rule="evenodd" clip-rule="evenodd" class="colour4" fill="#bcbec0" d="M596.015,1034.417c3.46-0.376,7.547,0.338,10.47-2.672
			c-9.468-1.879-19.1-3.091-28.104-6.856c-0.844-0.353-1.585-0.952-2.374-1.437c-24.432-6.582-45.618-17.908-60.024-39.784
			c-6.266-9.516-10.26-19.813-12.833-30.746c-2.271-9.652-4.777-19.273-5.629-29.204c-0.588-0.856-0.215-2.398-1.811-2.532
			c0.182,11.777,0.365,23.554,0.547,35.331c1.96,5.047,0.136,10.375,1.143,15.493c1.06,1.109,0.889,2.527,0.987,3.888
			c0.835,11.605,3.095,22.934,7.328,33.771c5.992,15.344,15.59,26.841,32.387,31.456c10.547,2.897,20.97,6.344,31.745,8.206
			c14.88,2.571,29.884,3.629,44.608,1.316c-12.394-1.635-25.246-1.28-37.885-3.806c-4.765-0.951-9.451-3.047-14.055-3.274
			c-13.171-0.653-23.748-6.888-34.068-13.925c-2.251-1.535-4.943-3.356-5.174-6.729c-0.013-0.008-0.025-0.014-0.038-0.021
			c-0.011-0.028-0.019-0.059-0.028-0.088c-0.158-0.146-0.316-0.291-0.475-0.435c0.112,0.025,0.271,0.014,0.326,0.084
			c0.076,0.097,0.109,0.226,0.148,0.351c0.021,0.019,0.041,0.037,0.061,0.056c0.001,0.019,0.004,0.035,0.006,0.054
			c12.378,7.346,25.929,10.019,40.149,11.058C574.315,1034.768,585.176,1035.597,596.015,1034.417z"></path>
		<path fill-rule="evenodd" clip-rule="evenodd" class="colour4" fill="#bcbec0" d="M750.918,226.327c-0.564-0.158-1.128-0.317-1.691-0.478
			c-0.155-0.456-0.311-0.913-0.467-1.37c-0.001,0-0.111,0.132-0.109,0.133c-2.093,1.035-3.817-0.374-5.597-0.968
			c-12.653-4.229-25.409-7.942-38.522-10.62c-27.697-5.654-54.035,0.664-80.325,8.127c-9.998,3.894-20.007,7.759-29.984,11.706
			c-2.133,0.844-4.421,1.487-6.05,3.289c-0.386-0.037-0.772-0.075-1.158-0.112c-0.03,0.303-0.029,0.607,0,0.914
			c0.392-0.25,0.785-0.503,1.177-0.756c1.514-0.242,3.095-0.29,4.523-0.781c19.138-6.6,38.848-10.834,58.758-14.218
			c10.415-1.77,20.823-3.674,31.489-3.006c17.08,1.069,32.937,7.211,49.001,12.181c32.764,10.135,61.043,27.573,83.449,53.914
			c2.839,3.337,5.86,6.381,10.399,7.267c1.403,0.274,2.429,1.088,3.489,2.029c8.635,7.67,19.146,8.349,29.94,7.893
			c-0.975-0.205-1.947-0.408-2.92-0.612c0,0-0.113-0.101-0.109-0.103c-1.641-0.623-3.317-1.17-4.924-1.878
			c-9.396-4.14-20.993-4.561-26.293-15.694c-0.473-0.993-2.192-1.61-3.456-1.969c-4.501-1.279-8.052-3.912-11.264-7.196
			c-16.673-17.052-34.584-32.524-55.795-43.825c-1.415-0.754-4.161-0.933-3.456-3.846
			C751.024,226.348,750.92,226.325,750.918,226.327z"></path>
		<path fill-rule="evenodd" clip-rule="evenodd" class="colour4" fill="#bcbec0" d="M951.947,1070.441c-12.174,13.563-23.36,28-38.479,38.743
			c-14.065,9.994-29.136,18.348-43.572,27.726c-14.787,9.604-31.54,15.685-47.462,23.229c-10.138,4.805-20.822,8.454-31.262,12.621
			c6.184-0.468,12.199-1.663,17.831-3.846c13.272-5.142,26.629-9.886,40.322-13.875c13.984-4.075,26.238-12.074,38.82-19.332
			c23.498-13.553,45.299-28.857,61.068-51.54c5.61-8.069,10.526-16.545,15.746-24.844c2.466-6.344,3.502-12.932,3.356-19.722
			C965.242,1051.145,959.981,1061.49,951.947,1070.441z"></path>
		<path fill-rule="evenodd" clip-rule="evenodd" class="colour4" fill="#bcbec0" d="M573.302,1170.313c-3.754-0.317-7.446-0.348-10.663-2.124
			c-7.941-4.388-16.607-6.985-24.873-10.557c-16.731-7.229-29.462-18.259-35.54-36.025c-5.461-15.968-7.644-32.385-7.581-49.192
			c0.01-2.665,0.861-5.509-0.841-8.028c-1.804,5.583-1.034,11.482-2.109,17.16c1.802,9.229,1.451,18.66,3.059,27.938
			c7.636,44.056,22.85,51.681,56.388,60.727c11.37,3.065,23.261,4.351,34.989,5.874c4.464,0.58,8.963,2.405,14.2,0.914
			c-2.811-0.535-5.016-1.192-7.213-1.857C586.599,1173.172,580.003,1170.879,573.302,1170.313z"></path>
		<path fill-rule="evenodd" clip-rule="evenodd" class="colour4" fill="#bcbec0" d="M897.947,390.611c-9.741,3.451-20.071,4.575-30.026,7.246
			c12.053-1.161,24.265-0.763,36.765-3.854C901.58,393.757,899.282,392.998,897.947,390.611z"></path>
		<path fill-rule="evenodd" clip-rule="evenodd" class="colour4" fill="#bcbec0" d="M955.703,996.747c2.896-7.176,2.418-15.087,4.961-22.329
			c-1.204-3.513-2.412-7.027-3.622-10.544c0.078,9.467-1.521,18.727-3.518,27.936c3.165,4.524-1.764,7.94-1.649,12.047
			C954.177,1002.036,954.685,999.27,955.703,996.747z"></path>
		<path fill-rule="evenodd" clip-rule="evenodd" class="colour4" fill="#bcbec0" d="M473.611,279.935c0,0.009,0,0.017,0,0.026
			c0.02-0.001,0.034-0.005,0.054-0.006c-0.002-0.019,0-0.036-0.002-0.055C473.645,279.911,473.628,279.923,473.611,279.935z"></path>
		<path fill-rule="evenodd" clip-rule="evenodd" class="colour4" fill="#bcbec0" d="M797.878,323.37c-1.109-3.068-4.258-3.165-6.568-4.488
			c0.101,0.686,0.201,1.371,0.302,2.057C794.014,320.934,795.134,324.232,797.878,323.37z"></path>
		<path fill-rule="evenodd" clip-rule="evenodd" class="colour4" fill="#bcbec0" d="M496.309,1004.418c-0.09,3.033-0.18,6.065-0.269,9.098
			C498.963,1011.631,499.021,1009.663,496.309,1004.418z"></path>
		<path fill-rule="evenodd" clip-rule="evenodd" class="colour4" fill="#bcbec0" d="M909.077,386.021c-0.581,0.242-1.18,0.495-1.778,0.748
			c-0.178,0.442,0.012,0.545,0.512,0.221C908.251,386.705,908.646,386.354,909.077,386.021z"></path>
		<path fill-rule="evenodd" clip-rule="evenodd" class="colour4" fill="#bcbec0" d="M496.299,1000.82c-0.019,0.559-0.038,1.117-0.057,1.676
			C497.273,1001.972,497.035,1001.404,496.299,1000.82z"></path>
		<path fill-rule="evenodd" clip-rule="evenodd" class="colour4" fill="#bcbec0" d="M787.785,316.596c0.411,1.151,1.319,1.363,2.405,1.235
			c-0.526-0.926-1.313-1.355-2.368-1.276c-0.113-1.058-0.751-1.743-1.655-2.195c-17.65-8.802-36.429-13.089-56.053-13.947
			c-0.303-0.013-0.639,0.724-1.508,1.772c14.386,2.714,28.28,5.104,41.549,9.903C776.371,312.236,781.847,315.32,787.785,316.596z"></path>
		<path fill-rule="evenodd" clip-rule="evenodd" class="colour4" fill="#bcbec0" d="M511.936,260.237c-3.414,4.117-8.006,7.221-10.308,12.354
			c7.916-6.957,16.345-13.347,24.137-22.208c-5.46-0.076-6.578,5.503-10.75,4.775C515.777,257.903,513.191,258.722,511.936,260.237z
			"></path>
		<path fill-rule="evenodd" clip-rule="evenodd" class="colour4" fill="#bcbec0" d="M515.016,255.158c-0.006-0.023-0.008-0.043-0.015-0.066
			c-0.006,0.003-0.012,0.008-0.018,0.012c-0.014,0.016-0.027,0.031-0.041,0.047C514.968,255.155,514.991,255.153,515.016,255.158z"></path>
		<path fill-rule="evenodd" clip-rule="evenodd" class="colour4" fill="#bcbec0" d="M592.003,378.784c0.802,0.458,1.608,0.916,2.416,1.372
			c3.598-1.59,8.126-1.509,10.283-5.691C600.586,376.247,595.371,374.794,592.003,378.784z"></path>
		<path fill-rule="evenodd" clip-rule="evenodd" class="colour4" fill="#bcbec0" d="M604.752,374.445l0.113-0.139c0,0-0.14,0.113-0.139,0.113
			l0.001,0.001c-0.008,0.016-0.018,0.029-0.025,0.044C604.718,374.457,604.735,374.452,604.752,374.445z"></path>
		<path fill-rule="evenodd" clip-rule="evenodd" class="colour4" fill="#bcbec0" d="M491.428,284.529c-0.035,0.027-0.068,0.057-0.103,0.084
			c-0.009,0.035-0.021,0.066-0.031,0.101c0.039-0.002,0.07-0.013,0.11-0.015C491.41,284.64,491.421,284.587,491.428,284.529z"></path>
		<path fill-rule="evenodd" clip-rule="evenodd" class="colour4" fill="#bcbec0" d="M498.807,275.691c-2.985,2.537-6.922,4.346-7.379,8.838
			C494.506,282.069,497.071,279.205,498.807,275.691z"></path>
		<path fill-rule="evenodd" clip-rule="evenodd" class="colour4" fill="#bcbec0" d="M470.597,369.597c-1.035,6.644-0.265,13.283,0.083,19.924
			c0.419-6.624,0.863-13.246,0.026-19.871C470.706,369.65,470.599,369.599,470.597,369.597z"></path>
		<path fill-rule="evenodd" clip-rule="evenodd" class="colour4" fill="#bcbec0" d="M519.897,362.136c0.416,0.79,0.834,1.575,1.254,2.359
			c2.114-1.279,3.658-3.025,4.435-5.399C523.338,359.443,520.716,359.087,519.897,362.136z"></path>
		<path fill-rule="evenodd" clip-rule="evenodd" class="colour4" fill="#bcbec0" d="M525.586,359.096c0.013-0.002,0.027-0.004,0.041-0.006
			c0.393-0.389,0.785-0.778,1.179-1.167l0.159-0.214c0,0-0.197,0.176-0.196,0.176l0,0c-0.39,0.393-0.781,0.785-1.17,1.178
			C525.595,359.074,525.589,359.084,525.586,359.096z"></path>
		<path fill-rule="evenodd" clip-rule="evenodd" class="colour4" fill="#bcbec0" d="M528.163,280.798c0.354,0.358,0.708,0.715,1.063,1.071
			c2.234-1.225,4.303-2.591,4.749-5.388l-0.095-0.106C531.384,277.087,529.674,278.813,528.163,280.798z"></path>
		<path fill-rule="evenodd" clip-rule="evenodd" class="colour4" fill="#bcbec0" d="M471.712,350.517c1.364-1.629,0.774-3.605,0.968-5.442
			c-0.175-0.148-0.358-0.287-0.549-0.415c-1.209,1.756-1.851,3.684-1.785,5.835C470.8,350.506,471.256,350.511,471.712,350.517z"></path>
		<path fill-rule="evenodd" clip-rule="evenodd" class="colour4" fill="#bcbec0" d="M491.294,284.714c-2.123,0.14-2.858,1.695-3.438,3.412
			C489.857,287.851,490.805,286.514,491.294,284.714z"></path>
		<path fill-rule="evenodd" clip-rule="evenodd" class="colour4" fill="#bcbec0" d="M487.763,288.144c0.001,0.036-0.001,0.07-0.001,0.105
			c0.024-0.016,0.044-0.035,0.069-0.05l0,0c0.008-0.024,0.018-0.048,0.026-0.073C487.823,288.13,487.796,288.14,487.763,288.144z"></path>
		<path fill-rule="evenodd" clip-rule="evenodd" class="colour4" fill="#bcbec0" d="M485.477,292.254c0.345-0.511,0.69-1.022,1.036-1.534
			c-0.51,0.315-1.021,0.63-1.532,0.945C485.146,291.862,485.311,292.058,485.477,292.254z"></path>
		<path fill-rule="evenodd" clip-rule="evenodd" class="colour4" fill="#bcbec0" d="M486.512,290.721c0.057-0.035,0.113-0.07,0.169-0.104
			c0,0-0.063-0.052-0.063-0.052C486.583,290.616,486.548,290.668,486.512,290.721z"></path>
		<path fill-rule="evenodd" clip-rule="evenodd" class="colour4" fill="#bcbec0" d="M482.084,296.234c0.491-0.361,0.982-0.722,1.474-1.084
			c-0.117-0.137-0.234-0.274-0.351-0.411C482.833,295.238,482.458,295.736,482.084,296.234z"></path>
		<path fill-rule="evenodd" clip-rule="evenodd" class="colour4" fill="#bcbec0" d="M481.917,296.457c0.056-0.074,0.111-0.148,0.167-0.223
			c-0.076,0.056-0.153,0.113-0.229,0.169L481.917,296.457z"></path>
		<path fill-rule="evenodd" clip-rule="evenodd" class="colour4" fill="#bcbec0" d="M472.891,341.901c-0.254,0.919-0.508,1.839-0.761,2.759
			c0.191,0.128,0.374,0.267,0.549,0.414c0.912-0.639,1.142-1.541,0.883-2.558C473.5,342.27,473.123,342.104,472.891,341.901z"></path>
		<path fill-rule="evenodd" clip-rule="evenodd" class="colour4" fill="#bcbec0" d="M473.848,338.708c0.034,0.333,0.173,0.657,0.27,0.985
			c0.184-0.21,0.367-0.421,0.561-0.643c-0.17-0.261-0.336-0.514-0.501-0.768C474.06,338.426,473.835,338.579,473.848,338.708z"></path>
		<path fill-rule="evenodd" clip-rule="evenodd" class="colour4" fill="#bcbec0" d="M475.139,335.231c-0.027,0.305,0.045,0.619,0.078,0.93
			c0.207-0.129,0.414-0.257,0.64-0.396c-0.119-0.295-0.239-0.593-0.359-0.891C475.372,334.992,475.15,335.103,475.139,335.231z"></path>
		<path fill-rule="evenodd" clip-rule="evenodd" class="colour4" fill="#bcbec0" d="M538.624,272.879c0.059-0.12,0.118-0.239,0.176-0.359
			c-0.073,0.106-0.145,0.212-0.217,0.318c-0.053,0.039-0.106,0.078-0.159,0.118C538.5,272.945,538.569,272.923,538.624,272.879z"></path>
		<path fill-rule="evenodd" clip-rule="evenodd" class="colour4" fill="#bcbec0" d="M537.322,273.771c0.367-0.272,0.734-0.543,1.101-0.814
			C537.919,273.028,537.051,272.567,537.322,273.771z"></path>
		<path fill-rule="evenodd" clip-rule="evenodd" class="colour4" fill="#bcbec0" d="M486.682,290.616c0-0.034,0.003-0.067,0.003-0.101
			c-0.023,0.016-0.042,0.033-0.067,0.048C486.618,290.564,486.682,290.616,486.682,290.616z"></path>
		<path fill-rule="evenodd" clip-rule="evenodd" class="colour4" fill="#bcbec0" d="M486.685,290.515c0.818-0.539,1.086-1.336,1.077-2.266
			C486.954,288.791,486.698,289.596,486.685,290.515z"></path>
		<path fill-rule="evenodd" clip-rule="evenodd" class="colour4" fill="#bcbec0" d="M850.521,494.884c-0.436,0.09-0.872,0.18-1.308,0.27
			C849.83,495.939,850.223,495.641,850.521,494.884z"></path>
		<path fill-rule="evenodd" clip-rule="evenodd" class="colour4" fill="#bcbec0" d="M544.24,451.44c0,0,0.313-0.223,0.313-0.223
			c0.032-0.038,0.065-0.073,0.098-0.111c-0.051,0.018-0.097,0.043-0.148,0.06L544.24,451.44z"></path>
		<path fill-rule="evenodd" clip-rule="evenodd" class="colour4" fill="#bcbec0" d="M480.504,299.165c0.088-0.106,0.175-0.212,0.263-0.319
			c0.384-0.796,0.768-1.592,1.151-2.388c-0.001-0.001-0.063-0.055-0.063-0.055c-0.38,0.796-0.762,1.592-1.143,2.388
			C480.643,298.916,480.574,299.04,480.504,299.165z"></path>
		<path fill-rule="evenodd" clip-rule="evenodd" class="colour4" fill="#bcbec0" d="M534.446,275.674c-0.188,0.233-0.377,0.468-0.566,0.701
			c0,0,0.095,0.106,0.094,0.105C534.391,276.364,535.054,276.392,534.446,275.674z"></path>
		<path fill-rule="evenodd" clip-rule="evenodd" class="colour4" fill="#bcbec0" d="M576.783,1120.346c-2.321-0.112-4.522-2.729-6.966-0.454
			c12.759,5.044,26.253,3.313,39.377,4.911c-10.097-3.856-20.812-4.229-31.146-6.601
			C578.93,1119.687,579.366,1120.471,576.783,1120.346z M583.015,1120.658c0.273,0.347,0.555,0.705,0.837,1.064
			c-0.328,0.165-0.736,0.536-0.967,0.447c-0.392-0.151-0.672-0.592-0.999-0.91C582.209,1121.087,582.533,1120.915,583.015,1120.658z
			"></path>
		<path fill-rule="evenodd" clip-rule="evenodd" class="colour4" fill="#bcbec0" d="M510.041,1046.596c-0.423-0.533-1.277-0.728-1.93-1.083
			c-0.155,0.217-0.198,0.456-0.13,0.716c4.478,12.326,18.743,23.632,29.388,23.288
			C521.802,1061.455,521.809,1061.449,510.041,1046.596z"></path>
		<path fill-rule="evenodd" clip-rule="evenodd" class="colour4" fill="#bcbec0" d="M563.708,1104.319c-9.321-1.775-18.448-3.947-27.779-9.54
			c1.824,4.913,4.037,7.33,7.716,8.303c0.265-0.166,0.428-0.402,0.497-0.704c-0.476-0.306-1.053-0.69-0.533-1.248
			c0.175-0.188,0.938,0.171,1.434,0.273c2.077,0.487,4.149,0.995,6.228,1.472c7.374,1.688,14.706,3.686,22.395,3.114
			C570.771,1103.119,567.021,1104.949,563.708,1104.319z"></path>
		<path fill-rule="evenodd" clip-rule="evenodd" class="colour4" fill="#bcbec0" d="M604.145,1105.702c4.76,1.279,9.696,0.858,14.377,0.261
			c8.574-1.093,17.337,0.354,25.765-2.13c-10.982,0.289-21.968,0.506-32.946,0.922
			C608.95,1104.845,606.312,1103.672,604.145,1105.702z"></path>
		<path fill-rule="evenodd" clip-rule="evenodd" class="colour4" fill="#bcbec0" d="M647.648,1103.666c8.112-0.258,16.243-0.396,24.238-2.101
			C663.706,1101.066,655.621,1101.673,647.648,1103.666z"></path>
		<path fill-rule="evenodd" clip-rule="evenodd" class="colour4" fill="#bcbec0" d="M560.231,1217.248c-0.016,0.433-0.032,0.865-0.053,1.296
			c4.753,1.912,9.739,1.877,14.714,2.027C570.003,1219.351,565.616,1215.878,560.231,1217.248z"></path>
		<path fill-rule="evenodd" clip-rule="evenodd" class="colour4" fill="#bcbec0" d="M859.185,1075.695c0.486,0.023,0.98,0.045,1.474,0.067
			c5.447-1.631,10.906-3.242,13.407-9.176l0.324-0.333l-0.348,0.31C869.188,1069.765,863.077,1070.92,859.185,1075.695z"></path>
		<path fill-rule="evenodd" clip-rule="evenodd" class="colour4" fill="#bcbec0" d="M548.759,1115.503c-4.431-3.657-10.182-4.037-15.251-6.134
			C537.869,1113.189,543.552,1113.756,548.759,1115.503z"></path>
		<path fill-rule="evenodd" clip-rule="evenodd" class="colour4" fill="#bcbec0" d="M682.141,1100.775c2.501,0.643,5.005,1.202,7.352-0.509
			C686.999,1099.752,684.495,1099.111,682.141,1100.775z"></path>
		<path fill-rule="evenodd" clip-rule="evenodd" class="colour4" fill="#bcbec0" d="M572.277,1116.249c-1.873-1.21-3.985-1.467-6.153-1.496
			C567.93,1116.247,569.758,1117.646,572.277,1116.249z"></path>
		<path fill-rule="evenodd" clip-rule="evenodd" class="colour4" fill="#bcbec0" d="M527.112,1106.115c0.952,1.437,2.203,2.294,4.024,2.019
			C530.236,1106.586,528.853,1106.002,527.112,1106.115z"></path>
		<path fill-rule="evenodd" clip-rule="evenodd" class="colour4" fill="#bcbec0" d="M588.172,1106.49c-1.371-0.586-2.742-1.174-4.042,0.166
			C585.519,1107.754,586.873,1107.803,588.172,1106.49z"></path>
		<path fill-rule="evenodd" clip-rule="evenodd" class="colour4" fill="#bcbec0" d="M560.308,1112.277c-0.748-1.354-1.914-1.854-3.425-1.626
			C557.581,1112.119,558.742,1112.61,560.308,1112.277z"></path>
		<path fill-rule="evenodd" clip-rule="evenodd" class="colour4" fill="#bcbec0" d="M562.521,1119.134c0.889,1.729,2.286,1.552,3.784,0.989
			C565.085,1119.643,564.007,1118.622,562.521,1119.134z"></path>
		<path fill-rule="evenodd" clip-rule="evenodd" class="colour4" fill="#bcbec0" d="M554.277,1116.935c0.887,0.485,1.703,1.292,2.87,0.746
			C556.544,1116.081,555.461,1116.332,554.277,1116.935z"></path>
		<path fill-rule="evenodd" clip-rule="evenodd" class="colour4" fill="#bcbec0" d="M523.469,1103.848c0.25,0.81,0.766,1.252,1.658,1.159
			C525.216,1103.704,524.586,1103.434,523.469,1103.848z"></path>
		<path fill-rule="evenodd" clip-rule="evenodd" class="colour4" fill="#bcbec0" d="M510.822,1092.212l0.053-0.263c0,0-0.281,0.024-0.282,0.016
			C510.593,1091.958,510.822,1092.212,510.822,1092.212z"></path>
		<path fill-rule="evenodd" clip-rule="evenodd" class="colour4" fill="#bcbec0" d="M546.439,1104.746l-0.266,0.115l0.087,0.242
			c0,0,0.23-0.095,0.236-0.09C546.501,1105.017,546.439,1104.746,546.439,1104.746z"></path>
		<polygon fill-rule="evenodd" clip-rule="evenodd" class="colour4" fill="#bcbec0" points="579.35,1106.252 579.291,1106.57 579.343,1106.581 		"></polygon>
		<polygon fill-rule="evenodd" clip-rule="evenodd" class="colour4" fill="#bcbec0" points="554.523,1218.24 554.566,1218.035 554.482,1218.058 		
			"></polygon>
	</g>
	<g>
		<path fill-rule="evenodd" clip-rule="evenodd" class="colour3" fill="#d71920" d="M961.319,470.25c-2.321,5.031-4.175,10.292-9.479,12.912
			c-10.4,10.885-24.265,14.669-38.097,18.398c-11.879,3.202-23.831,6.147-36.22,7.179c20.164-10.168,42.556-16.25,59.032-33.13
			c-27.164,12.542-55.717,18.313-85.382,19.107c-0.231,0.012-0.447,0.068-0.653,0.169c-0.299,0.757-0.691,1.055-1.308,0.27
			c-6.458,0.433-12.912,1.08-19.377,1.25c-10.561,0.277-21.323-1.012-31.655,0.592c-24.027,3.73-48.009,7.929-71.744,13.369
			c-21.643,4.96-42.942,10.956-63.439,19.589c22.741,1.443,45.575,2.536,67.388,9.931c19.705,6.681,39.549,13.486,55.899,26.913
			c12.427,10.204,10.341,9.384-1.48,16.108c-16.635,9.462-34.783,13.83-53.986,14.79c-28.637,1.432-57.208,4.338-85.938,3.407
			c-0.302,2.595-0.603,5.189-0.904,7.783c2.122,2.519,4.818,3.029,8.077,3.273c20.6,1.541,41.212,0.789,61.821,0.727
			c20.779-0.063,40.969-2.811,60.15-11.554c14.024-6.391,25.661-14.46,27.725-31.259c0.047-0.379,0.261-0.738,0.397-1.106
			c-0.052-1.163,0.517-1.867,1.659-1.929c6.396-0.345,12.61-2.416,19.078-2.015c1.022-0.095,2.051-0.19,3.078-0.285
			c10.148-1.881,20.317-3.662,30.441-5.671c9.966-1.979,19.641-5.041,29.211-8.417c0.163-0.298,0.417-0.417,0.756-0.356
			c4.246-3.109,9.811-4.015,13.731-7.918c-1.995-1.586-3.933,0.3-5.719-0.457c-0.249,0.265-0.554,0.353-0.911,0.264
			c-12.021,3.989-24.531,5.001-37.032,6.043c-13.817,1.152-27.644,2.086-41.671,0.819c40.365-2.633,79.144-11.396,115.758-28.719
			c1.087-0.604,2.177-1.208,3.267-1.813l0.006-0.314c0,0,0.171,0.243,0.17,0.243c0.85-0.542,1.7-1.085,2.551-1.628
			c0.496-0.972,1.304-1.411,2.375-1.389c0.073-0.337,0.285-0.514,0.633-0.528c0.062-0.989,0.712-1.076,1.484-0.969
			c0.082-0.271,0.27-0.417,0.556-0.436c0.193-1.185,0.953-1.594,2.067-1.509c0.114-0.347,0.356-0.549,0.721-0.604
			c2.938-2.887,5.876-5.773,8.81-8.656c0.035-0.404,0.233-0.708,0.591-0.908l-0.03-0.48c0,0,0.483-0.061,0.481-0.058
			c0.753-1.029,1.509-2.061,2.265-3.093l-0.177-0.312c0,0,0.374,0.006,0.372,0.009c-0.013-0.36,0.142-0.63,0.458-0.806
			c0.583-2.298,1.63-4.361,3.127-6.191c0.26-0.697,0.521-1.4,0.782-2.103c0.608-4.924,1.216-9.849,1.824-14.768
			C962.327,472.888,963.041,471.277,961.319,470.25z"></path>
		<path fill-rule="evenodd" clip-rule="evenodd" class="colour3" fill="#d71920" d="M481.458,345.893c9.651-20.837,22.833-39.225,38.853-55.65
			c2.553-2.617,5.947-4.46,7.604-7.933c-2.559-0.817-3.739,1.379-5.297,2.607c-13.371,10.529-24.317,23.341-34.418,36.913
			c-10.559,14.189-17.179,29.863-17.494,47.82c0.837,6.625,0.393,13.248-0.026,19.871c-0.347-6.641-1.118-13.28-0.083-19.924
			c-0.991-6.438,0.331-12.744,1.115-19.08c-0.456-0.006-0.912-0.011-1.367-0.021c-3,10.614-2.852,21.917-7.017,32.282
			c4.789,15.763,11.643,30.487,21.882,43.508c-0.25-9.767-3.373-18.875-6.276-28.065
			C473.336,380.501,473.553,362.958,481.458,345.893z"></path>
		<path fill-rule="evenodd" clip-rule="evenodd" class="colour3" fill="#d71920" d="M547.294,400.159c-15.131,12.014-30.854,23.716-41.667,40.315
			c-0.04,0.005-0.076,0.006-0.117,0.012c0.018,0.031,0.028,0.061,0.046,0.092c0.001-0.001,0.096-0.106,0.096-0.106
			c0.4,2.436-0.403,4.658-1.223,6.877c0.745,3.903,1.49,7.807,2.235,11.712c1.411-4.293,2.644-8.731,5.537-12.288
			c13.038-16.028,27.784-30.427,43.277-44.02c11.438-10.035,25.244-16.293,38.94-22.598c-0.807-0.456-1.614-0.913-2.416-1.372
			C575.709,382.999,560.363,389.781,547.294,400.159z"></path>
		<path fill-rule="evenodd" clip-rule="evenodd" class="colour3" fill="#d71920" d="M508.279,429.042c12.975-22.699,31.113-40.702,53.325-53.817
			c33.52-19.791,71.017-29.399,108.469-38.53c17.475-4.26,35.492-5.489,55.114-7.446c-14.164-2.27-26.671-1.347-39.083-0.765
			c-22.439,1.052-44.337,5.811-66.264,10.518c-34.16,7.333-66.254,18.798-93.458,41.706c-12.853,10.824-24.679,22.075-27.567,39.701
			c-0.059,0.357-0.764,0.608-1.247,0.968c-3.458-20.273,7.167-37.49,23.582-56.881c-0.419-0.784-0.838-1.569-1.254-2.359
			c-4.215,4.082-8.552,8.055-12.624,12.282c-7.269,7.545-12.066,16.44-13.203,26.955c-1.08,9.988-1.363,19.865,5.253,28.597
			c1.57,2.073,1.995,5.067,2.739,7.697c0.534,1.883,1.302,3.155,3.448,2.82C502.932,435.845,506.239,432.61,508.279,429.042z"></path>
		<path fill-rule="evenodd" clip-rule="evenodd" class="colour3" fill="#d71920" d="M806.215,490.43c15.07-2.476,30.004-5.523,44.644-10.522
			c-15.833,1.699-31.736,3.37-47.724,3.933c-2.443,0.086-2.265,1.496-2.117,3.163C801.314,490.38,803.073,490.946,806.215,490.43z"></path>
		<path fill-rule="evenodd" clip-rule="evenodd" class="colour3" fill="#d71920" d="M528.164,280.798c-0.036,0.476-0.071,0.952-0.106,1.427
			c0.39-0.119,0.78-0.239,1.168-0.356C528.871,281.514,528.517,281.156,528.164,280.798z"></path>
		<path fill-rule="evenodd" clip-rule="evenodd" class="colour3" fill="#d71920" d="M528.058,282.226c-0.039,0.012-0.078,0.024-0.116,0.036
			c-0.008,0.017-0.019,0.031-0.027,0.048c0.045,0.015,0.087,0.022,0.134,0.039C528.052,282.308,528.055,282.267,528.058,282.226z"></path>
		<polygon fill-rule="evenodd" clip-rule="evenodd" class="colour3" fill="#d71920" points="938.544,474.133 938.215,474.08 938.328,474.426 		"></polygon>
	</g>
	<g>
		<path fill-rule="evenodd" clip-rule="evenodd" class="colour2" fill="#262262" d="M787.834,316.607c-0.002-0.019-0.01-0.034-0.012-0.052
			c-0.02,0.001-0.036-0.004-0.056-0.002L787.834,316.607z"></path>
		<path fill-rule="evenodd" clip-rule="evenodd" class="colour2" fill="#262262" d="M791.41,318.963c-0.023-0.022-0.048-0.044-0.072-0.066
			c-0.009-0.005-0.019-0.01-0.028-0.015L791.41,318.963z"></path>
		<path fill-rule="evenodd" clip-rule="evenodd" class="colour2" fill="#262262" d="M917.987,354.157c-1.665,4.603-5.013,7.487-9.469,9.025
			c-5.382,1.857-11.034,2.552-16.659,3.034c-14.297,1.226-28.618-0.113-42.927,0.129c-4.089,0.069-8.193,0.89-12.253,0.673
			c-10.783-0.575-15.443-8.883-18.929-17.144c-3.162-7.494-7.978-12.738-14.436-17.205c-4.638-3.208-9.934-5.606-13.604-10.133
			c-6.516-3.482-13.03-6.964-19.545-10.447c-13.28-4.801-27.175-7.191-41.561-9.905c0.869-1.048,1.205-1.785,1.508-1.772
			c19.624,0.857,38.402,5.145,56.053,13.947c0.904,0.452,1.542,1.137,1.655,2.195c1.055-0.079,1.842,0.35,2.368,1.276l-0.097-0.082
			c0.415,0.383,0.83,0.766,1.244,1.148c2.309,1.308,5.436,1.417,6.54,4.473c0.314,0.238,0.637,0.478,0.959,0.717
			c0.471,0.047,0.94,0.095,1.406,0.142c8.825,4.666,15.901,10.725,19.858,20.453c3.126,7.686,9.269,12.465,18.241,12.215
			c8.153-2.412,16.553-2.435,24.938-2.506c3.646-0.031,7.174-0.381,10.392-2.854c-8.752-1.53-17.577-2.731-26.239-4.667
			c-13.502-3.018-24.217-9.424-30.629-22.834c-6.761-14.14-19.916-22.234-33.601-28.399c-15.035-6.774-30.748-12.159-47.154-14.79
			c-12.529-2.009-24.979-2.553-37.879-1.667c-20.123,1.381-39.829,4.671-59.262,9.211c-40.367,9.43-78.123,24.79-110.646,51.559
			c-9.261,7.622-18.731,14.75-25.771,24.609c-8.739,12.237-11.954,25.832-10.307,40.683c0.152,1.368,0.252,2.743,0.323,4.118
			c0.05,0.961,0.01,1.928-0.396,2.849c-5.827-20.757-2.694-40.112,9.283-58.101c6.851-10.29,16.418-17.562,26.089-25.014
			c15.576-12.002,30.658-24.751,48.681-32.92c21.653-9.815,44.145-17.466,66.986-24.139c20.967-6.125,42.327-9.971,63.946-12.706
			c4.778-0.604,9.479,0.178,14.044,0.799c20.008,2.722,39.971,5.416,59.273,12.196c12.916,4.536,22.757,12.892,33.097,21.013
			c6.523,5.124,11.058,12.927,19.966,14.938c1.419,0.32,1.728,2.021,1.917,3.4c0.962-2.742,3.284-1.592,5.039-1.643
			c9.425-0.27,18.868-0.798,28.277-0.447c7.349,0.274,11.44-3.38,15.135-10.082c-8.47,4.983-16.474,4.77-24.603,1.971
			c-10.797,0.456-21.309-0.223-29.943-7.893c-1.061-0.941-2.086-1.755-3.489-2.029c-4.539-0.885-7.561-3.929-10.399-7.267
			c-22.406-26.341-50.686-43.779-83.449-53.914c-16.064-4.97-31.921-11.112-49.001-12.181c-10.666-0.668-21.074,1.236-31.489,3.006
			c-19.91,3.383-39.62,7.618-58.758,14.218c-1.427,0.492-3.007,0.539-4.521,0.781c-0.394,0.253-0.786,0.506-1.179,0.756
			c-11.661,4.77-23.504,9.145-34.394,15.627c-1.836,1.093-3.77,2.022-5.658,3.028c-15.013,9.137-28.394,20.401-41.662,31.872
			c7.668-8.851,16.272-16.678,25.352-23.999c4.56-3.677,8.907-7.688,14.63-9.596c12.896-9.078,26.628-16.47,41.882-20.799
			c11.763-5.801,24.032-10.032,37.046-11.932c26.284-7.461,52.623-13.78,80.319-8.125c13.113,2.677,25.869,6.391,38.522,10.62
			c1.779,0.594,3.504,2.003,5.597,0.968c0.198-0.989-0.51-1.382-1.197-1.724c-24.768-12.291-50.636-21.086-78.569-20.371
			c-28.031,0.719-55.185,7.202-81.811,15.824c-3.562,1.911-7.302,3.256-11.36,3.6c-17.924,7.074-34.752,16.08-49.72,28.583
			c0.382-5.4,5.395-7.007,7.761-10.62c-7.526,3.495-13.475,8.942-18.771,15.198c0.006-0.004,0.012-0.008,0.018-0.012
			c0.007,0.023,0.009,0.043,0.015,0.066c4.171,0.729,5.29-4.851,10.75-4.775c-7.792,8.86-16.222,15.25-24.137,22.208
			c2.301-5.132,6.894-8.237,10.308-12.354c1.255-1.515,3.841-2.334,3.08-5.079c-0.025-0.004-0.048-0.003-0.074-0.008
			c0.014-0.016,0.027-0.031,0.041-0.047c-8.094,4.95-14.2,12.164-20.839,18.708c-10.378,10.229-19.305,21.651-26.105,34.646
			c-1.162,2.219-2.607,4.415-5.028,5.619c-1.86,5.188-2.253,10.672-3.054,16.054c-2.646,17.772-2.539,35.406,3.372,52.648
			c4.165-10.366,4.017-21.668,7.018-32.288c-0.067-2.146,0.575-4.074,1.784-5.83c0.253-0.92,0.507-1.839,0.761-2.759
			c0.232,0.203,0.609,0.369,0.671,0.615c0.258,1.017,0.028,1.918-0.883,2.558c-0.193,1.837,0.397,3.814-0.967,5.443
			c-0.784,6.336-2.106,12.642-1.113,19.082l0.106,0.051c0.315-17.958,6.936-33.631,17.494-47.82
			c10.101-13.572,21.047-26.384,34.418-36.913c1.558-1.228,2.739-3.424,5.297-2.607c0.008-0.017,0.019-0.031,0.027-0.048
			c0.039-0.012,0.078-0.024,0.117-0.036c0.035-0.476,0.07-0.951,0.105-1.427c1.51-1.985,3.22-3.711,5.716-4.423
			c0.189-0.233,0.377-0.468,0.566-0.701c0.608,0.717-0.055,0.69-0.472,0.807c-0.446,2.797-2.514,4.164-4.747,5.387
			c-0.39,0.119-0.779,0.239-1.169,0.358c-0.003,0.041-0.006,0.082-0.009,0.123c-0.046-0.017-0.089-0.024-0.134-0.039
			c-1.658,3.473-5.052,5.316-7.604,7.933c-16.02,16.425-29.202,34.813-38.853,55.65c-7.905,17.065-8.122,34.609-2.523,52.329
			c2.903,9.189,6.026,18.298,6.276,28.065c5.005,8.299,11.846,14.923,19.218,21.063c0.82-2.219,1.624-4.441,1.223-6.877
			c-0.009,0.002-0.017,0.001-0.025,0.002c-0.023,0.036-0.048,0.069-0.071,0.104c-0.018-0.031-0.029-0.061-0.046-0.092
			c-2.146,0.335-2.914-0.937-3.448-2.82c-0.744-2.629-1.168-5.624-2.739-7.697c-6.616-8.732-6.333-18.608-5.253-28.597
			c1.136-10.514,5.934-19.41,13.203-26.955c4.072-4.228,8.409-8.2,12.627-12.288c0.816-3.043,3.438-2.687,5.686-3.035
			c0.003-0.012,0.009-0.022,0.012-0.033c0.39-0.393,0.78-0.785,1.17-1.178c0,0,0.196-0.176,0.196-0.176l-0.159,0.214
			c-0.394,0.389-0.786,0.778-1.179,1.167c-0.013,0.002-0.027,0.003-0.041,0.006c-0.777,2.375-2.321,4.12-4.435,5.399
			c-16.415,19.391-27.04,36.607-23.582,56.881c0.483-0.36,1.188-0.611,1.247-0.968c2.888-17.626,14.714-28.877,27.567-39.701
			c27.204-22.908,59.298-34.373,93.458-41.706c21.926-4.708,43.825-9.466,66.264-10.518c12.412-0.582,24.918-1.505,39.083,0.765
			c-19.623,1.957-37.64,3.186-55.114,7.446c-37.452,9.131-74.949,18.74-108.469,38.53c-22.212,13.115-40.35,31.118-53.325,53.817
			c-2.04,3.569-5.347,6.803-2.769,11.445c0.041-0.007,0.075-0.004,0.117-0.012c10.813-16.6,26.537-28.302,41.667-40.315
			c13.069-10.377,28.415-17.16,44.714-21.376c3.362-3.987,8.577-2.536,12.691-4.317c0.008-0.016,0.018-0.03,0.026-0.046
			c-0.001,0,0.139-0.113,0.139-0.113l-0.113,0.139c-0.018,0.008-0.035,0.013-0.053,0.021c-2.155,4.182-6.683,4.101-10.281,5.69
			c-13.696,6.304-27.502,12.563-38.94,22.598c-15.493,13.592-30.239,27.991-43.277,44.02c-2.893,3.557-4.126,7.994-5.537,12.288
			c-0.133,4.33,0.187,8.613,0.807,12.917c1.82,12.62,3.781,25.192,4.179,38.018c0.729,23.531,0.717,47.075,4.22,70.523
			c1.795,12.02,8.061,18.52,18.324,22.736c1.813,0.745,3.654,1.459,5.538,1.985c32.575,9.09,65.597,11.701,99.158,6.947
			c2.443-0.346,3.973-1.3,5.086-3.3c0.301-2.594,0.603-5.188,0.904-7.783c-6.331-1.854-12.854-1.295-19.291-1.324
			c-29.188-0.132-58.09-2.498-86.362-10.256c-4.958-1.36-9.491-3.681-14.048-6.012c-3.357-1.718-3.595-3.396-1.271-6.27
			c8.43-10.422,19.016-18.043,30.551-24.648c19.324-11.066,40.434-15.719,62.195-18.814c15.406-2.191,30.796-3.742,46.343-3.824
			c20.498-8.634,41.797-14.629,63.439-19.589c23.735-5.44,47.717-9.639,71.744-13.369c10.332-1.604,21.095-0.315,31.655-0.592
			c6.465-0.17,12.919-0.817,19.377-1.25c0.436-0.09,0.872-0.18,1.308-0.27c0.206-0.101,0.422-0.157,0.649-0.168
			c10.598-6.691,22.037-11.943,32.267-19.297c7.021-5.048,13.63-10.565,20.251-16.089c0.702-0.586,1.643-1.475,1.631-2.21
			c-0.026-1.647-1.687-1.418-2.718-1.415c-8.407,0.031-16.814,0.117-25.22,0.289c-8.498,0.173-16.992,0.607-25.489,0.671
			c-17.167,0.13-34.42-2.895-51.469,1.479c-0.324,0.084-0.739-0.184-1.113-0.294c-0.662-1.107,0.108-1.805,0.739-2.515
			c5.965-6.708,5.973-6.712-1.067-12.622c-1.201-1.009-2.588-1.818-3.693-2.917c-2.257-2.243-2.328-5.53-1.014-7.636
			c1.469-2.353,3.746,0.239,5.462,1.118c1.906,0.976,3.491,2.574,5.387,3.575c4.821,2.545,8.265,5.36,2.863,11.587
			c21.145-5.872,42.122-9.57,63.309-12.383c-15.611-1.937-31.109-1.337-46.304,3.229c-5.093,1.531-9.418,1.222-13.596-2.294
			c-2.996-2.521-6.248-4.795-9.605-6.813c-4.495-2.701-8.752-4.821-6.087-11.691c1.298-3.346-2.462-5.667-5.407-6.706
			c-29.255-10.325-58.812-17.416-90.46-14.308c-36.875,3.621-72.034,12.698-106.121,26.987
			c-12.139,5.089-24.056,10.477-35.079,17.545c-4.667,2.993-8.562,7.21-13.986,9.099c-0.032,0.038-0.065,0.074-0.098,0.111
			c0,0-0.313,0.223-0.313,0.223l0.262-0.274c0.051-0.017,0.098-0.042,0.148-0.06c9.08-10.653,20.62-18.319,31.865-26.373
			c18.922-13.552,40.66-21.302,62.16-29.062c34.458-12.437,69.769-21.633,106.989-19.882c18.014,0.847,35.391,4.612,52.092,11.365
			c3.349,1.354,7.178,2.628,7.579,7.253c7.007,7.072,17.388,8.601,24.809,15.026c0.38,0.329,1.554,0.083,2.164-0.25
			c11.145-6.076,23.579-8.067,35.613-11.325c9.955-2.671,20.285-3.794,30.026-7.246c3.259-0.891,6.566-1.733,9.352-3.842
			c0.599-0.252,1.197-0.505,1.778-0.748C922.51,380.254,926.479,362.582,917.987,354.157z M474.118,339.693
			c-0.097-0.328-0.236-0.651-0.27-0.985c-0.013-0.129,0.212-0.283,0.329-0.426c0.166,0.254,0.332,0.507,0.501,0.768
			C474.484,339.272,474.301,339.483,474.118,339.693z M475.217,336.161c-0.032-0.311-0.105-0.625-0.078-0.93
			c0.011-0.129,0.232-0.239,0.359-0.358c0.12,0.298,0.24,0.596,0.359,0.891C475.631,335.904,475.424,336.032,475.217,336.161z
			 M482.088,296.231c-0.057,0.076-0.114,0.151-0.17,0.227c-0.383,0.795-0.767,1.591-1.151,2.388
			c-0.088,0.106-0.175,0.212-0.263,0.318c0.069-0.125,0.139-0.249,0.208-0.374c0.381-0.796,0.762-1.592,1.143-2.388
			C481.932,296.346,482.01,296.289,482.088,296.231c0.373-0.498,0.745-0.995,1.118-1.492c0.117,0.137,0.234,0.274,0.351,0.411
			C483.068,295.511,482.578,295.871,482.088,296.231z M498.482,295.295l-0.15,0.11l0.119-0.128c0.109-0.302,0.219-0.605,0.328-0.908
			C498.68,294.677,498.581,294.986,498.482,295.295z M491.428,284.529c-0.006,0.058-0.018,0.111-0.023,0.17
			c-0.04,0.001-0.071,0.012-0.11,0.015c-0.489,1.8-1.437,3.137-3.437,3.412c-0.009,0.025-0.018,0.049-0.026,0.074
			c-0.025,0.016-0.045,0.034-0.069,0.05c0.009,0.929-0.259,1.726-1.076,2.263c0,0.035-0.003,0.068-0.003,0.104
			c-0.058,0.036-0.116,0.072-0.174,0.107c-0.343,0.511-0.688,1.021-1.032,1.53c-0.166-0.196-0.331-0.393-0.497-0.588
			c0.509-0.314,1.019-0.628,1.528-0.942c0.036-0.054,0.073-0.107,0.109-0.162c0.025-0.016,0.044-0.033,0.068-0.049
			c0.013-0.919,0.269-1.722,1.076-2.263c0-0.036,0.002-0.07,0.001-0.106c0.034-0.004,0.062-0.014,0.095-0.019
			c0.579-1.716,1.314-3.272,3.437-3.412c0.009-0.034,0.022-0.066,0.031-0.101C491.36,284.585,491.393,284.556,491.428,284.529
			c0.457-4.492,4.394-6.301,7.379-8.838C497.071,279.205,494.506,282.069,491.428,284.529z M538.423,272.956
			c0.053-0.04,0.106-0.079,0.159-0.118c0.073-0.105,0.145-0.211,0.217-0.318c-0.058,0.12-0.117,0.239-0.176,0.359
			C538.569,272.923,538.5,272.945,538.423,272.956c-0.367,0.271-0.734,0.543-1.101,0.814
			C537.051,272.567,537.919,273.028,538.423,272.956z M803.135,483.84c15.987-0.563,31.891-2.234,47.724-3.933
			c-14.64,4.999-29.573,8.046-44.644,10.522c-3.142,0.516-4.9-0.05-5.197-3.427C800.87,485.336,800.691,483.926,803.135,483.84z"></path>
		<path fill-rule="evenodd" clip-rule="evenodd" class="colour2" fill="#262262" d="M588.116,236.204c0.026-0.004,0.052-0.007,0.078-0.011
			c0.02-0.012,0.039-0.025,0.058-0.037L588.116,236.204z"></path>
		<path fill-rule="evenodd" clip-rule="evenodd" class="colour2" fill="#262262" d="M861.079,319.154c-0.679-0.713-1.436-0.726-2.263-0.246
			C859.484,319.694,860.272,319.521,861.079,319.154z"></path>
		<path fill-rule="evenodd" clip-rule="evenodd" class="colour2" fill="#262262" d="M872.825,321.384c0.732,0.105,1.479,0.21,2.228,0.317
			C874.43,320.8,873.663,320.901,872.825,321.384z"></path>
		<path fill-rule="evenodd" clip-rule="evenodd" class="colour2" fill="#262262" d="M753.371,227.088c0.056-0.034,0.03-0.333-0.051-0.425
			c-0.7-0.783-1.476-1.148-2.402-0.336c0.002-0.002,0.106,0.021,0.106,0.021C751.842,226.501,752.309,227.762,753.371,227.088z"></path>
		<path fill-rule="evenodd" clip-rule="evenodd" class="colour2" fill="#262262" d="M892.021,322.594l-0.292-0.341c0,0-0.171,0.479-0.178,0.48
			c-0.006,0.001,0.285,0.207,0.285,0.207L892.021,322.594z"></path>
		<path fill-rule="evenodd" clip-rule="evenodd" class="colour2" fill="#262262" d="M852.479,317.954c-0.009-0.002,0.28,0.264,0.28,0.264
			l0.316-0.188C852.946,317.464,852.746,317.472,852.479,317.954z"></path>
		<path fill-rule="evenodd" clip-rule="evenodd" class="colour2" fill="#262262" d="M844.277,315.703c-0.006-0.003,0.102,0.22,0.102,0.22l0.24-0.067
			C844.831,315.076,844.713,315.039,844.277,315.703z"></path>
		<polygon fill-rule="evenodd" clip-rule="evenodd" class="colour2" fill="#262262" points="856.465,300.729 856.212,300.757 856.321,300.86 		"></polygon>
		<path fill-rule="evenodd" clip-rule="evenodd" class="colour2" fill="#262262" d="M750.407,225.321c-0.058-1.086-0.979-0.784-1.647-0.841
			c0.156,0.457,0.312,0.914,0.467,1.37C749.679,225.791,750.458,226.278,750.407,225.321z"></path>
		<path fill-rule="evenodd" clip-rule="evenodd" class="colour2" fill="#262262" d="M533.94,239.717c-0.028,0.016-0.059,0.028-0.086,0.044
			c-0.031,0.049-0.067,0.095-0.1,0.144c0.056-0.026,0.108-0.057,0.165-0.083C533.925,239.787,533.934,239.753,533.94,239.717z"></path>
		<path fill-rule="evenodd" clip-rule="evenodd" class="colour2" fill="#262262" d="M536.325,237.255c-1.691,0.065-2.141,1.169-2.384,2.462
			C534.957,239.155,536.406,239.013,536.325,237.255z"></path>
		<path fill-rule="evenodd" clip-rule="evenodd" class="colour2" fill="#262262" d="M539.793,233.868c0.277-0.123,0.554-0.246,0.831-0.369
			c-0.281,0.116-0.563,0.232-0.844,0.348l-0.119,0.146C539.66,233.994,539.795,233.869,539.793,233.868L539.793,233.868z"></path>
	</g>
	<g>
		<path fill-rule="evenodd" clip-rule="evenodd" class="colour2" fill="#262262" d="M869.896,1136.91c14.437-9.378,29.507-17.731,43.572-27.726
			c15.118-10.743,26.305-25.181,38.479-38.743c8.034-8.951,13.295-19.297,16.37-30.839c0.854-13.922-0.586-27.788-1.408-41.647
			c-0.482-8.127-1.929-16.29-6.247-23.539c-2.541,7.244-2.063,15.155-4.959,22.331c-1.019,2.522-1.526,5.289-3.828,7.109l0.036-0.01
			c-0.284,0.422-0.568,0.843-0.854,1.265c-6.943,11.179-17.398,18.124-29.043,23.33c-5.195,2.322-9.891,6.198-16.011,6.183
			c-0.01,0.026-0.024,0.049-0.034,0.076c-0.06,0.021-0.122,0.04-0.184,0.059c-0.132,0.163-0.264,0.328-0.396,0.492
			c0.022-0.121,0.003-0.3,0.075-0.354c0.092-0.067,0.205-0.104,0.321-0.139c0.035-0.044,0.07-0.088,0.105-0.132
			c0.038,0,0.074-0.004,0.112-0.003c0.954-2.653,3.454-3.717,5.627-4.7c9.497-4.291,17.424-11.008,25.955-16.732
			c7.61-5.107,11.515-13.575,15.938-21.382c1.996-9.209,3.596-18.469,3.518-27.936c-0.568-5.126-1.14-10.254-1.71-15.384
			c-2.747,8.158-5.287,16.392-8.294,24.452c-3.477,9.32-11.454,14.764-18.938,20.415c-9.928,7.498-21.469,12.027-32.695,17.183
			c-17.139,7.87-34.652,14.661-52.781,19.804c-12.966,3.679-25.912,7.613-39.107,10.222c-9.421,1.863-18.383,6.364-29.441,5.565
			c46.39-13.483,93.677-21.72,132.685-51.887c-2.423-1.416-4.188,0.327-5.818,1.221c-19.159,10.496-39.769,16.261-61.31,19.042
			c-31.952,4.126-63.988,7.07-96.254,5.82c-15.067-0.584-30.039-2.456-45.019-4.161c-8.352-0.95-16.269,2.122-24.272,3.698
			c-20.177,3.974-40.485,7.139-60.732,10.673c-2.131,1.305-4.421,1.711-6.87,1.208c-2.923,3.01-7.01,2.296-10.47,2.672
			c-10.838,1.18-21.699,0.351-32.592-0.445c-14.219-1.039-27.77-3.712-40.149-11.057c0.23,3.371,2.923,5.193,5.174,6.728
			c10.32,7.037,20.897,13.271,34.068,13.925c4.604,0.228,9.29,2.323,14.055,3.274c12.639,2.525,25.491,2.171,37.885,3.806
			c-14.724,2.313-29.728,1.255-44.608-1.316c-10.775-1.862-21.198-5.309-31.745-8.206c-16.797-4.615-26.395-16.112-32.387-31.456
			c-4.233-10.838-6.492-22.166-7.328-33.771c-0.098-1.36,0.073-2.778-0.987-3.889c-0.211,1.217-0.421,2.435-0.633,3.651
			c0.056,3.954,0.111,7.909,0.167,11.863c2.52,7.09,1.224,14.64,2.768,21.916c2.08,9.8,3.302,19.768,6.961,29.202
			c0.835,2.155,0.982,4.576,1.447,6.875c0.653,0.352,1.506,0.546,1.93,1.079c11.769,14.854,11.761,14.859,27.328,22.921
			c-10.646,0.344-24.911-10.962-29.388-23.288c-5.833-6.762-6.35-15.421-8.342-23.539c-0.602-2.453-0.783-5.008-1.268-7.492
			c-0.295-1.512-1.105-1.979-2.344-0.715c0.414,16.686-2.137,33.24-2.221,49.904c1.702,2.52,0.851,5.363,0.841,8.028
			c-0.063,16.808,2.12,33.225,7.581,49.192c6.078,17.767,18.809,28.797,35.54,36.025c8.266,3.571,16.931,6.169,24.873,10.557
			c3.216,1.776,6.909,1.807,10.663,2.124c6.701,0.565,13.297,2.858,19.815,4.829c2.197,0.665,4.403,1.322,7.213,1.857
			c-5.237,1.491-9.736-0.334-14.2-0.914c-11.728-1.523-23.619-2.809-34.989-5.874c-33.538-9.046-48.752-16.671-56.388-60.727
			c-1.608-9.278-1.256-18.71-3.059-27.938c-2.232,17.825-4.465,35.656-6.698,53.487c0.47,13.535,0.416,27.03,2.74,40.526
			c2.658,15.428,15.655,32.195,34.137,35.438c10.971,1.924,21.461,6.003,32.61,7.061l0.082-0.023
			c1.873,0.171,3.745,0.341,5.617,0.511c0.016-0.433,0.032-0.865,0.048-1.298c-15.326-5.363-31.205-9.488-45.668-16.861
			c-13.333-6.795-20.424-19.045-23.097-33.627c-0.384-2.095-1.716-4.366-0.23-7.778c2.886,6.623,6.018,12.115,11.472,15.957
			c4.881,3.438,9.758,6.646,15.823,7.437c8.37,1.09,16.751,2.092,25.114,3.227c22.915,3.111,45.954,4.384,69.054,4.591
			c24.592,0.22,49.238,1.231,73.766,0.007c22.314-1.114,44.5-4.788,66.746-7.29c26.597-2.992,52.686-8.489,78.68-14.816
			c20.392-4.962,40.922-9.362,60.289-17.589c11.668-4.958,23.704-9.212,34.427-16.289c5.313-3.507,10.162-7.316,13.721-12.655
			c0.614-0.92,1.321-2.04,3.696-1.433c-2.461,5.506-5.189,10.721-8.797,15.35c-11.321,14.521-26.557,24.273-41.795,34.066
			c-19.727,12.676-41.39,21.331-62.64,30.868c-2.282,1.022-4.452,2.292-8.098,4.187c7.947,0.07,13.474-2.947,19.057-5.096
			c16.418-6.321,33.39-11.23,48.987-19.7c12.254-6.654,24.237-13.618,35.249-22.223c16.33-12.762,24.621-30.24,29.686-49.698
			c0.536-2.059,1.381-4.037,2.082-6.053c0.528-14.484,4.484-28.39,7.206-42.504c-5.22,8.299-10.136,16.774-15.746,24.844
			c-15.77,22.683-37.57,37.987-61.068,51.54c-12.582,7.258-24.836,15.257-38.82,19.332c-13.693,3.989-27.05,8.733-40.322,13.875
			c-5.632,2.183-11.647,3.378-17.831,3.846c10.439-4.167,21.124-7.816,31.262-12.621
			C838.356,1152.595,855.109,1146.515,869.896,1136.91z M752.152,1149.771c-18.831,3.206-37.834,4.567-56.828,6.141
			c-36.027,2.984-71.917,1.728-107.454-4.842c-11.633-2.15-23.246-4.652-34.45-9.384c-26.721-11.285-41.806-31.537-48.803-58.829
			c-0.409-1.595-0.652-3.234-1.033-5.161c2.414,4.919,4.711,9.599,7.009,14.278l0.281-0.024l-0.053,0.263
			c4.399,3.684,7.292,9.003,12.652,11.641c1.112-0.419,1.742-0.148,1.652,1.154c0.664,0.37,1.328,0.741,1.991,1.112
			c1.735-0.117,3.118,0.467,4.018,2.015c0.794,0.413,1.587,0.825,2.381,1.238c5.06,2.094,10.81,2.474,15.241,6.131
			c1.842,0.479,3.685,0.957,5.528,1.435c1.175-0.605,2.258-0.856,2.86,0.743c1.793,0.485,3.588,0.972,5.382,1.458
			c1.479-0.517,2.557,0.504,3.776,0.984c1.173-0.078,2.347-0.155,3.521-0.233c2.436-2.273,4.637,0.344,6.958,0.456
			c2.583,0.125,2.147-0.659,1.265-2.144c-1.441-2.09-3.505-2.332-5.781-1.952c-2.509,1.396-4.338-0.003-6.143-1.497
			c-1.942-0.825-3.885-1.652-5.828-2.479c-1.555,0.337-2.716-0.154-3.414-1.622c-3.464-1.88-6.928-3.762-10.393-5.643l-0.23,0.095
			l-0.087-0.242c-0.844-0.594-1.688-1.188-2.533-1.781c-3.674-0.971-5.887-3.388-7.711-8.301c9.332,5.593,18.458,7.765,27.779,9.54
			c3.312,0.63,7.062-1.2,9.958,1.67c1.875,0.193,3.751,0.389,5.627,0.582l0.057-0.319l-0.007,0.329
			c1.599,0.025,3.197,0.051,4.795,0.076c1.292-1.341,2.662-0.753,4.033-0.167c5.327-0.264,10.654-0.526,15.982-0.788
			c2.158-2.03,4.796-0.857,7.186-0.947c10.978-0.416,21.964-0.633,32.946-0.922c1.124-0.056,2.247-0.112,3.37-0.169
			c7.964-1.991,16.049-2.598,24.23-2.099c3.421-0.263,6.843-0.527,10.265-0.79c2.344-1.664,4.848-1.023,7.342-0.509
			c8.792-2.871,17.965-2.009,26.919-2.137c26.779-0.385,53.271-3.362,79.746-7.036c19.087-2.648,37.685-7.219,56.063-12.835
			c2.359-0.721,4.271-2.714,6.97-2.564c3.886-4.774,9.997-5.93,14.851-9.131l0.348-0.31l-0.324,0.333
			c-2.501,5.934-7.96,7.545-13.407,9.176c-3.323,4.988-8.938,6.933-13.754,9.64c-16.763,9.424-34.738,16.198-52.729,22.882
			c-1.004,0.374-2.388,0.335-3.404,3.044c51.63-13.858,99.537-33.645,143.807-65.155c-0.675,4.953-3.173,7.05-5.148,8.507
			c-12.493,9.21-21.787,21.944-34.759,30.669c-16.081,10.816-31.694,22.28-48.514,32.033c-9.551,5.538-20.034,8.468-29.926,12.97
			C795.747,1139.674,774.354,1145.988,752.152,1149.771z"></path>
		<path fill-rule="evenodd" clip-rule="evenodd" class="colour2" fill="#262262" d="M949.452,1143.949c-4.017,14.367-10.261,27.684-21.04,38.348
			c-5.142,5.086-10.735,9.715-16.124,14.55c7.49-1.336,12.485-6.672,18.224-10.653c11.352-7.879,15.521-20.354,19.702-32.7
			c0.296-1.274,0.593-2.549,0.979-4.211c1.083,2.013,0.947,3.575,0.149,5.14c-0.574,3.056-1.239,6.098-1.715,9.167
			c-3.182,20.498-12.349,37.495-29.098,50.122c-2.816,2.123-5.466,4.467-8.206,6.693c-13.404,10.897-26.167,23.026-41.991,30.166
			c-30.652,13.829-62.247,25.337-95.022,33.187c-24.256,5.809-48.774,10.575-72.873,16.952c-8.739,2.313-16.528,1.455-24.834-0.294
			c-7.083-1.491-14.291-2.414-21.459-3.481c-20.791-3.094-41.724-5.53-62.099-10.809c-24.304-6.296-48.908-11.653-72.302-21.083
			c-13.518-5.45-25.664-12.679-33.614-25.559c-10.707-17.35-10.819-36.384-9.184-55.808c1.525,15.883,1.734,32.256,17.016,42.56
			c-9.984-12.813-13.3-27.706-13.544-43.521c-0.158-10.208-0.124-20.419-0.177-30.63c-1.421,15.568-4.203,30.933-6.866,46.317
			c-4.18,24.144-8.346,48.291-12.371,72.461c-4.962,29.794-8.087,59.875-13.881,89.539c-0.666,3.409,0.227,5.219,3.505,6.057
			c5,1.276,10.192,2.278,15.173,1.134c16.27-3.738,33.108-4.637,49.168-8.926c44.457-11.87,88.807-24.049,134.49-30.453
			c14.354-2.014,28.63-5.191,43.043-5.976c12.441-0.677,25.112,0.612,37.53,2.212c33.562,4.322,67.337,5.573,101.037,7.936
			c22.15,1.553,44.219,3.894,66.27,6.515c14.999,1.783,29.885,4.526,45.009,5.322c3.635,0.191,4.501-0.757,4.406-4.518
			c-0.543-21.624-0.964-43.257-0.962-64.887c0.004-19.854,1.878-39.64,3.099-59.448c1.522-24.71,3.295-49.417,4.049-74.152
			c0.274-9.011,3.089-17.912,1.216-26.993C954.689,1124.305,952.185,1134.172,949.452,1143.949z M952.682,1147.602
			c-0.24-0.145-0.69-0.292-0.689-0.433c0.012-0.722,0.138-1.442,0.246-2.345c0.471,0.328,0.906,0.514,0.891,0.641
			C953.04,1146.186,952.843,1146.891,952.682,1147.602z"></path>
		<path fill-rule="evenodd" clip-rule="evenodd" class="colour2" fill="#262262" d="M523.207,1022.805c0.009,0.029,0.018,0.059,0.028,0.087
			l-0.001,0.001c0.013,0.008,0.026,0.015,0.039,0.022c-0.001-0.019-0.005-0.036-0.006-0.055
			C523.248,1022.842,523.228,1022.823,523.207,1022.805z"></path>
		<path fill-rule="evenodd" clip-rule="evenodd" class="colour2" fill="#262262" d="M522.732,1022.37c0.159,0.144,0.316,0.289,0.475,0.435
			c-0.039-0.125-0.072-0.254-0.148-0.351C523.004,1022.384,522.845,1022.396,522.732,1022.37z"></path>
		<path fill-rule="evenodd" clip-rule="evenodd" class="colour2" fill="#262262" d="M581.885,1121.26c0.327,0.318,0.607,0.759,0.999,0.91
			c0.231,0.089,0.639-0.282,0.967-0.447c-0.282-0.359-0.564-0.718-0.837-1.064C582.533,1120.915,582.209,1121.087,581.885,1121.26z"></path>
	</g>
</g>
</svg>