<svg version="1.1" id="Layer_1___Tl6kPCeh" xmlns="http://www.w3.org/2000/svg" xmlns:xlink="http://www.w3.org/1999/xlink" x="0px" y="0px" width="1417.32px" height="1417.32px" viewBox="0 0 1417.32 1417.32" enable-background="new 0 0 1417.32 1417.32" xml:space="preserve">
<g>
	<path fill-rule="evenodd" clip-rule="evenodd" class="colour1" fill="#009FDA" d="M961.727,1321.429c-15.688,4.994-31.324,10.155-47.074,14.946
		c-28.691,8.728-56.805,19.511-86.176,25.798c-25.124,5.38-50.566,9.065-76.172,11.627c-22.463,2.247-44.851,5.202-67.355,7.12
		c-25.514,2.174-51.064,2.313-76.634,2.229c-34.034-0.112-68.035-1.283-101.744-6.162c-28.384-4.109-56.29-10.638-83.1-21.039
		c-11.894-4.615-23.05-10.638-26.152-24.78c-1.521-6.929-1.962-13.935-2.066-21.055c-0.457-31.111,3.587-62.011,4.065-93.07
		c0.296-19.266,0.535-38.528,1.797-57.769c1.406-21.443,6.143-42.271,10.942-63.115c7.983-34.673,11.114-69.763,8.505-105.302
		c-1.856-25.274-4.036-50.531-5.505-75.83c-1.094-18.836-2.218-37.664-4.083-56.436c-2.465-24.822-5.419-49.599-7.636-74.441
		c-1.011-11.337-0.73-22.788-1.092-34.186c-0.516-16.284-4.884-31.772-10.157-47.008c-9.033-26.101-18.151-52.168-25.414-78.831
		c-12.224-38.75-29.539-75.499-44.781-113.062c-4.109-10.126-7.276-20.974-13.779-29.77
		c-24.119-32.624-31.212-68.717-21.373-107.576c8.113-32.04,25.582-59.55,45.59-85.615c9.062-11.805,18.473-22.859,31.102-30.979
		c8.211-5.279,14.511-12.653,20.19-20.478c6.653-9.165,14.645-16.931,23.596-23.783c11.08-8.481,22.238-16.853,32.686-26.139
		c26.025-23.132,52.723-45.387,82.852-63.162c6.775-3.998,12.956-8.839,18.434-14.603c9.064-9.537,18.141-19.083,28.371-27.423
		c9.741-4.141,20.035-4.847,30.388-4.396c20.586,0.898,41.137,1.574,61.726-0.284c16.977-1.533,33.967-3.208,51.063-2.766
		c3.783,0.097,7.647-2.305,11.342,0.402c6.404,7.418,12.968,14.707,19.18,22.283c12.083,14.739,26.534,27.389,37.666,42.964
		c17.27,24.165,32.892,49.404,48.261,74.78c24.249,40.039,46.407,81.158,63.317,124.967c12.509,32.407,23.403,65.514,39.493,96.429
		c12.981,24.942,26.592,49.562,46.771,69.707c1.554,1.551,1.997,3.485,2.227,5.316c1.827,14.599,5.283,28.917,7.486,43.429
		c2.436,16.049,3.012,32.331,5.905,48.378c2.155,11.953,1.671,12.215,12.005,11.286c-1.023,6.789-1.795,13.627-3.109,20.36
		c-8.31,42.537-21.318,84.156-23.801,127.843c-0.888,15.613-6.744,30.695-6.566,46.592c0.112,10.202,0.679,20.485-0.328,30.595
		c-3.308,33.225-9.731,66.1-11.813,99.461c-1.345,21.539-2.665,43.106-0.858,64.724c1.74,20.807,6.335,41.143,9.572,61.704
		c7.712,48.978,11.27,98.335,13.036,147.857c1.128,31.622,0.845,63.315,4.283,94.826c0.384,3.519-1.783,3.989-3.837,4.844
		C975.922,1315.777,968.813,1318.576,961.727,1321.429z"></path>
	<path fill-rule="evenodd" clip-rule="evenodd" class="colour1" fill="#009FDA" d="M569.565,81.537c-10.23,8.341-19.307,17.886-28.371,27.423
		c-5.478,5.763-11.659,10.605-18.434,14.603c-30.129,17.775-56.826,40.03-82.852,63.162c-10.447,9.286-21.606,17.658-32.686,26.139
		c-8.951,6.852-16.943,14.618-23.596,23.783c-5.679,7.824-11.979,15.198-20.19,20.478c-12.629,8.119-22.04,19.173-31.102,30.979
		c-20.008,26.065-37.478,53.575-45.59,85.615c-9.839,38.859-2.747,74.952,21.373,107.576c6.503,8.795,9.67,19.643,13.779,29.77
		c15.243,37.563,32.557,74.311,44.781,113.062c-24.146,2.648-48.156,4.441-72.549,1.116c-25.861-3.524-50.605-10.032-74.528-20.328
		c-16.592-7.141-29.316-18.777-40.238-32.696c-3.765-4.798-2.751-10.449-1.323-15.765c7.711-28.714,15.717-57.35,23.258-86.108
		c1.733-6.61,1.532-13.57,1.062-20.499c-4.174-61.456,7.292-119.098,41.987-171.054c16.438-24.616,37.947-43.245,62.967-59.183
		c43.894-27.96,91.378-48.484,138.113-70.639c30.312-14.369,60.017-29.902,89.645-45.601c11.678-6.188,21.343-15.185,31.803-23.071
		C567.428,81.456,568.551,81.378,569.565,81.537z"></path>
	<path fill-rule="evenodd" clip-rule="evenodd" class="colour1" fill="#009FDA" d="M1006.395,614.034c4.007-1.959,7.962,0.214,11.944,0.262
		c9.711,0.115,19.413,0.811,29.118,1.272c-10.742,22.354-19.58,45.355-24.515,69.772c-3.762,18.611-6.245,37.505-11.988,55.689
		c-4.311,13.647-8.497,27.297-11.161,41.42c-1.755,9.315-1.719,18.724-2.689,28.065c-1.482,14.26-4.564,28.212-6.813,42.319
		c-0.247,1.545-0.504,3.113-0.494,4.668c0.155,25.959-3.692,51.616-5.725,77.411c-1.294,16.434-1.302,32.87,0.596,49.317
		c1.593,13.818,3.259,27.7,3.55,41.582c0.364,17.396,4.048,34.208,6.735,51.228c4.824,30.541,11.813,60.724,13.962,91.716
		c1.549,22.331,2.407,44.671,3.477,67.014c1.153,24.076,1.694,48.223,5.496,72.101c0.544,3.417-0.152,5.263-3.887,6.375
		c-12.501,3.721-25.455,4.387-38.239,6.123c-4.623,0.628-9.271,1.959-14.036,1.062c7.089-2.854,14.197-5.652,21.248-8.59
		c2.054-0.854,4.221-1.325,3.837-4.844c-3.438-31.511-3.155-63.204-4.283-94.826c-1.767-49.522-5.324-98.88-13.036-147.857
		c-3.237-20.562-7.832-40.897-9.572-61.704c-1.807-21.617-0.486-43.185,0.858-64.724c2.082-33.361,8.506-66.236,11.813-99.461
		c1.007-10.109,0.44-20.393,0.328-30.595c-0.178-15.896,5.679-30.979,6.566-46.592c2.482-43.688,15.491-85.307,23.801-127.843
		C1004.6,627.661,1005.371,620.823,1006.395,614.034z"></path>
	<path fill-rule="evenodd" clip-rule="evenodd" class="colour2" fill="#262262" d="M569.565,81.537c-1.014-0.159-2.137-0.082-2.69-1.24
		c7.502-6.928,14.672-14.268,22.601-20.668c8.074-6.518,18.456-7.33,28.256-8.779c36.65-5.422,73.367-4.409,109.829,1.285
		c34.409,5.374,67.069,15.898,94.88,38.069c2.965,2.363,6.425,4.366,7.54,8.421c-20.603-12.332-43.33-17.286-66.898-19.561
		c-13.025-1.257-26.001-3.031-38.998-4.571c-3.694-2.707-7.559-0.305-11.342-0.402c-17.097-0.442-34.086,1.233-51.063,2.766
		c-20.589,1.858-41.14,1.182-61.726,0.284C589.6,76.69,579.306,77.396,569.565,81.537z"></path>
	<path fill-rule="evenodd" clip-rule="evenodd" class="colour1" fill="#009FDA" d="M1208.005,535.722c-4.923-22.419-14.845-42.415-26.246-61.946
		c-3.465-5.938-6.33-12.057-6.539-19.275c-0.737-25.522-1.465-51.064-4.768-76.419c-2.538-19.473-6.414-38.8-14.054-56.882
		c-10.527-24.922-22.25-49.341-35.951-72.749c-4.988-8.523-10.271-16.708-18.057-23.031c-18.863-15.32-36.762-32.045-60.276-40.462
		c-3.493-1.251-6.743-3.175-10.139-4.715c-20.294-9.204-39.587-20.789-61.888-25.168c-14.801-2.907-29.151-7.569-43.418-12.427
		c-33.686-11.47-65.617-26.806-96.689-44.021c-20.603-12.332-43.33-17.286-66.898-19.561c-13.025-1.257-26.001-3.031-38.998-4.571
		c6.404,7.418,12.968,14.707,19.18,22.283c12.083,14.739,26.534,27.389,37.666,42.964c17.27,24.165,32.892,49.404,48.261,74.78
		c24.249,40.039,46.407,81.158,63.317,124.967c12.509,32.407,23.403,65.514,39.493,96.429
		c12.981,24.942,26.592,49.562,46.771,69.707c1.554,1.551,1.997,3.485,2.227,5.316c1.827,14.599,5.283,28.917,7.486,43.429
		c2.436,16.049,3.012,32.331,5.905,48.378c2.155,11.953,1.671,12.215,12.005,11.286c4.007-1.959,7.962,0.214,11.944,0.262
		c9.711,0.115,19.413,0.811,29.118,1.272c11.164-0.699,22.437,0.122,33.49-2.067c15.224-3.013,29.9-7.964,44.3-13.604
		c24.984-9.788,50.017-19.371,72.051-35.438C1207.824,556.782,1210.789,548.406,1208.005,535.722z"></path>
	<g>
		<path class="colour3" fill="#d71920" d="M1014.283,1264.589c-2.258-19.296-1.992-38.733-3.112-58.093c-0.77-13.305-1.032-26.631-2.755-39.868
			c-10.192,9.66-22.521,14.929-36.267,16.431c-10.704,1.17-21.578,0.781-32.286,1.928c-15.091,1.615-30.229,1.683-45.314,1.541
			c-28.756-0.271-57.547-0.806-86.244-2.532c-31.104-1.87-61.646-7.41-90.856-18.932c-9.809-3.869-19.066-8.94-28.813-13.03
			c1.708,2.038,3.61,3.715,5.578,5.311c31.859,25.824,70.728,35.351,109.031,45.377c11.23,2.94,23.527,3.831,35.345,5.539
			c16.676,2.41,33.201,5.855,49.791,8.859c-4.785,1.004-9.438,0.815-14.045-0.23c-0.649,0.615-1.307,0.596-1.959,0.025
			c-3.231-0.368-6.475-0.737-9.719-1.106l-0.47,0.277c0,0-0.456-0.297-0.448-0.297c-1.126-0.128-2.261-0.257-3.396-0.385
			c-1.745,1.021-3.325,0.563-4.826-0.534c-1.955,0.197-3.911,0.297-5.754-0.631c-1.049,0.786-1.808,0.155-2.548-0.522
			c-4.364,0.87-8.621-0.754-12.961-0.618c-0.699,0.759-1.149,0.492-1.451-0.354c-4.231,0.101-8.465,0.133-12.637-0.792
			c-1.749,1.016-3.321,0.395-4.849-0.527c-1.107-0.222-2.225-0.444-3.342-0.667c-0.705,0.637-1.232,0.499-1.587-0.364
			c-3.208,0.298-6.301-0.438-9.402-1.105c-3.451,0.74-6.756,0.577-9.732-1.568c-1.053-0.241-2.113-0.486-3.174-0.732
			c-0.756,0.782-1.31,0.406-1.798-0.311c-2.517-0.819-5.356-0.488-7.663-2.1c0,0-0.1-0.01-0.097-0.008
			c-1.084-0.274-2.172-0.55-3.261-0.825c-2.609-0.321-5.379-0.045-7.527-2.036c-2.298-0.249-4.892,1.242-6.852-1.123l-0.18,0.156
			c0,0-0.066-0.227-0.062-0.225c-1.572-0.466-3.15-0.933-4.729-1.4c-1.364,0.396-2.688,0.616-3.611-0.84
			c-1.062-0.24-2.134-0.486-3.204-0.73c-1.424,0.885-2.357-0.036-3.295-0.896c-12.055-2.891-23.719-6.968-35.035-12.032
			c-33.901-15.171-65.207-34.834-96.155-55.183c-31.746-20.873-59.958-45.697-85.071-74.127c-0.577,0.405-1.154,0.812-1.736,1.211
			c12.133,17.689,26.599,33.445,41.478,48.777c18.87,19.442,40.176,36.102,61.618,52.6c13.695,10.539,27.965,20.188,42.12,30.055
			c16.327,11.38,33.822,19.812,52,27.227c17.086,6.969,34.778,12.167,51.753,16.873c-20.726-1.213-41.339-6.821-61.915-12.858
			c-28.4-8.334-53.791-22.565-78.417-38.525c-12.989-8.418-24.395-19.062-37.946-26.657c-0.423,2.347,1.445,3.24,2.856,4.509
			c10.514,9.451,21.022,18.907,31.458,28.445c3.716,3.396,6.758,7.796,10.96,10.313c4.005,2.399,8.221,4.531,12.1,7.2
			c24.532,16.879,51.904,27.987,79.825,37.359c22.476,7.543,45.592,13.258,68.723,18.761c29.671,7.06,59.775,11.701,89.708,17.295
			c30.238,5.65,61.064,7.646,91.118,14.478c1.713,0.389,2.936,0.076,4.322-0.97c9.479-7.151,19.693-13.492,25.941-24.115
			C1013.783,1266.384,1014.383,1265.445,1014.283,1264.589z"></path>
		<path class="colour3" fill="#d71920" d="M596.436,1153.972c0.021,0.012,0.041,0.024,0.062,0.036c0.008-0.045,0.011-0.086,0.021-0.131
			L596.436,1153.972z"></path>
		<path class="colour3" fill="#d71920" d="M729.239,1084.691c13.231,9.684,27.716,17.358,42.495,24.164c35.262,16.239,71.713,29.254,110.083,36.084
			c29.645,5.277,59.501,9.014,89.63,5.359c12.258-1.485,24.63-4.15,31.977-16.099c0.185-0.3,1.057-0.179,1.607-0.254
			c-1.923-10.713-3.539-21.494-5.901-32.107c-1.146-5.146,0.248-11.019-3.926-15.394c-1.478,0.689-2.954,1.379-4.431,2.067
			c-3.291,2.716-7.302,2.878-11.266,3.183c-1.601,0.332-3.21,0.667-4.818,1.002c-0.148,0.573-0.418,0.547-0.755,0.152
			c-1.401,1.1-2.933,1.886-4.786,1.832c-7.353,2.408-14.869,4.03-22.572,4.725c-1.129-0.009-2.263-0.019-3.397-0.028
			c-1.174,1.171-2.487,1.073-3.855,0.421c-1.081,0.24-2.169,0.482-3.256,0.725c0,0-0.065,0.01-0.062,0.01
			c-1.955,0.173-3.912,0.346-5.871,0.519c0,0-0.063-0.019-0.061-0.019c-1.565,0.252-3.133,0.503-4.7,0.756
			c-1.513,1.178-3.117,1.026-4.751,0.33c-3.141,0.264-6.291,0.528-9.441,0.791c-1.891,1.272-3.878,1.133-5.896,0.404
			c-2.74,0.256-5.491,0.512-8.24,0.769c-1.148,1.192-2.334,1.118-3.538,0.104c-4.31-0.033-8.625-0.066-12.942-0.1
			c-1.61,1.047-3.206,1.416-4.757-0.098c-1.242-0.049-2.493-0.1-3.744-0.15c-0.679,0.001-1.358,0.001-2.026,0.002
			c-1.152-0.084-2.316-0.17-3.479-0.255c-1.361,0.599-2.66,0.687-3.794-0.475c-3.914-0.378-7.836-0.759-11.759-1.138
			c-4.445,1.106-8.56-1.987-13.514-1.128c2.67,3.726,7.377,2.626,10.051,5.261c2.769,0.881,5.548,1.766,8.328,2.65
			c0.313-0.479,0.621-0.57,0.913,0.008c1.245,0.376,2.499,0.752,3.752,1.128c2.688-0.18,5.125,0.551,7.347,2.025
			c1.771,0.477,3.549,0.958,5.328,1.438c1.711-0.163,3.462-0.606,4.947,0.721c1.176,0.09,2.359,0.181,3.542,0.271
			c0,0,0.261,0.04,0.255,0.038c4.935,1.201,9.874,2.406,14.812,3.611c7.884-0.764,15.394,1.739,23.191,3.642
			c-1.704,0-3.486,0.326-5.102-0.058c-6.601-1.569-13.445,0.862-19.969-1.338c-1.944,0.148-3.979,0.723-5.842,0.378
			c-16.153-2.994-32.534-4.337-48.733-7.112c-23.464-4.021-46.896-8.016-69.668-15.088c-15.696-4.874-31.059-10.684-46.285-18.597
			C725.367,1082.911,727.623,1083.51,729.239,1084.691z"></path>
		<path class="colour3" fill="#d71920" d="M565.842,1261.55c-10.651-7.069-20.162-15.604-29.913-23.767c-13.425-11.238-27.336-22.021-38.677-35.587
			c-1.81-2.165-5.577-2.975-6.823-5.284c-5.309-9.837-13.842-17.126-20.554-25.773c-8.708-11.224-16.191-22.902-22.882-35.268
			c-2.135-3.034-3.715-6.327-5.104-11.065c2.888,3.745,5.326,6.333,6.626,9.724c16.741,21.258,36.943,38.756,59.067,54.255
			c-0.792-3.21-3.286-5.032-5.487-7.028c-6.997-6.349-14.55-12.13-20.534-19.517c-9.175-11.326-18.781-22.369-26.002-35.116
			c-13.881-24.5-20.675-51.299-25.092-78.833c-0.906-4.724-1.812-9.445-2.717-14.169c1.804,4.604,3.679,9.166,4.305,14.085
			c2.138,5.248,2.883,10.937,5.472,16.099c2.531,5.048,3.837,10.703,7.535,15.243c-8.151-22.833-12.931-46.495-17.901-70.082
			c-3.029-14.373-5.238-28.92-7.815-43.39c-0.032,1.761-0.16,3.525-0.082,5.281c0.835,18.747,2.238,37.427,1.629,56.279
			c-0.725,22.42-3.972,44.347-8.607,66.174c2.172,1.127,1.191,3.143,1.109,4.703c-0.806,15.339,2.239,30.069,7.019,44.496
			c3.339,10.08,8.254,19.35,15.319,27.377c0.219-3.442-1.756-6.188-2.962-9.184c-3.371-8.385-6.823-16.752-7.838-26.039
			c1.869,0.189,2.184,1.249,2.377,2.127c2.297,10.462,8.044,19.251,13.322,28.327c5.854,10.069,12.225,19.966,20.127,28.271
			c8.782,9.227,18.186,17.988,28.929,25.372c16.84,11.575,33.174,23.918,51.103,33.78c9.613,5.289,19.44,10.399,30.841,13.773
			C569.92,1263.863,567.744,1262.812,565.842,1261.55z M424.437,1133.958c-2.498-6.789-3.165-13.958-3.373-21.222
			c1.644,6.965,3.287,13.932,4.93,20.897C425.475,1133.741,424.956,1133.85,424.437,1133.958z"></path>
		<path class="colour3" fill="#d71920" d="M435.805,1170.473c-0.025-0.028-0.047-0.058-0.071-0.086c-0.004,0.063,0.004,0.119-0.001,0.182
			L435.805,1170.473z"></path>
	</g>
	<g>
		<path fill-rule="evenodd" clip-rule="evenodd" class="colour3" fill="#d71920" d="M978.237,487.746c8.808-2.651,14.639-9.731,22.024-14.468
			c25.806-16.548,51.903-32.643,77.279-49.854c18.527-12.564,36.929-25.316,55.386-37.984c-0.379-0.647-0.757-1.294-1.135-1.942
			c-42.244,21.787-83.478,45.439-124.159,70.109c6.424-6.197,13.231-11.684,20.053-17.151c7.346-5.889,14.478-12.081,22.115-17.567
			c11.625-8.351,23.582-16.244,35.442-24.265c12.028-8.133,23.351-17.266,36.189-24.257c14.309-7.792,28.741-15.436,42.021-24.981
			c-0.045-1.553,0.16-3.173-1.149-4.398c-17.462,4.384-34.665,10.045-50.502,18.305c-13.385,6.981-26.504,14.777-39.347,22.981
			c-13.457,8.596-27.274,16.668-39.868,26.479c-18.897,14.723-37.837,29.462-53.922,47.418c-2.002,2.235-4.336,4.121-7.302,4.983
			c27.28-34.182,59.224-63.648,91.504-92.781c-0.903-0.073-1.612-0.442-1.994-1.312c-9.396,6.894-19.845,12.111-28.771,19.912
			c-13.573,11.862-27.568,23.276-40.379,35.952c-5.72,5.66-11.156,11.576-17.689,16.29c-5.784,4.173-11.096,8.424-12.083,16.243
			c-0.246,1.944-1.757,4.03-3.255,5.451c-3.112,2.951-5.018,6.466-6.266,10.453c3.379,6.407,7.823,12.095,12.199,17.812
			c4.466,5.833,8.035,12.499,14.667,16.403c-0.886-4.417-1.914-8.814-2.581-13.264C976.48,490.747,975.965,488.429,978.237,487.746z
			 M969.687,464.214c-0.02,0.173-0.005,0.362-0.073,0.513c-0.037,0.082-0.217,0.099-0.332,0.146
			c0.129-0.227,0.258-0.455,0.383-0.682l0.142-0.186L969.687,464.214z"></path>
		<path fill-rule="evenodd" clip-rule="evenodd" class="colour3" fill="#d71920" d="M989.186,350.384c16.633-21.346,32.693-43.164,51.706-62.542
			c-0.493-0.905-0.987-1.809-1.478-2.717c-0.973,0.604-2.019,1.124-2.917,1.831c-17.599,13.834-33.425,29.637-49.679,44.955
			c-15.814,14.904-31.356,30.096-47.018,45.161c-3.751,5.245-9.146,8.471-14.377,11.957c2.87-5.34,6.582-9.856,11.37-13.435
			c10.955-13.461,21.913-26.927,32.873-40.393c-0.884-0.472-1.766-0.944-2.646-1.421c-1.955,1.844-3.913,3.694-5.87,5.543
			c-0.001,1.184-0.587,1.761-1.771,1.711c-0.236,0.168-0.463,0.358-0.674,0.565l-0.127,0.463c0,0-0.479,0.118-0.475,0.114
			c-15.603,14.066-32.091,27.032-49.176,39.247c5.348,14.954,10.914,29.815,18.235,43.949
			c11.403-13.828,25.021-25.661,35.319-40.545C970.737,372.899,980.253,361.845,989.186,350.384z M923.142,391.181
			c-0.106-0.046-0.302-0.093-0.301-0.137c0.002-0.143,0.077-0.284,0.124-0.426c0.107,0.045,0.309,0.095,0.308,0.136
			C923.267,390.897,923.19,391.038,923.142,391.181z"></path>
		<path fill-rule="evenodd" clip-rule="evenodd" class="colour3" fill="#d71920" d="M1209.326,544.333c-1.428-8.471-3.166-16.894-5.97-25.046
			c-4.085,4.833-7.995,9.741-7.491,16.638c0.645,0.446,1.254,0.959,1.939,1.329c8.183,4.397,8.389,5.301,1.196,11.872
			c-10.257,9.37-22.407,15.813-34.966,21.422c-25.953,11.593-52.098,23.523-80.172,28.143c-24.033,3.954-48.602,6.742-73.209,3.609
			c-2.114,0.839-2.827,2.252-2.129,4.506c0.613,1.977,1.326,3.999,0.648,6.136c6.095,1.894,12.463,1.579,18.681,1.845
			c18.023,0.773,36.151,1.788,54.001-1.637c20.813-3.993,40.392-11.977,59.997-19.791c21.167-8.435,41.752-17.883,59.617-32.386
			C1206.784,556.657,1210.544,551.557,1209.326,544.333z"></path>
	</g>
	<g>
		<path fill-rule="evenodd" clip-rule="evenodd" class="colour2" fill="#262262" d="M663.769,1008.618c0,0.016,0.006,0.025,0.006,0.04
			c0.016,0.002,0.03,0.006,0.046,0.007L663.769,1008.618z"></path>
		<path fill-rule="evenodd" clip-rule="evenodd" class="colour2" fill="#262262" d="M464.12,907.017c0.015,0.035,0.029,0.069,0.044,0.104
			c0.012,0.015,0.022,0.03,0.034,0.045L464.12,907.017z"></path>
		<path fill-rule="evenodd" clip-rule="evenodd" class="colour2" fill="#262262" d="M664.979,1009.761c-0.001,0.021,0.002,0.035,0.002,0.055
			c0.021,0,0.036,0.007,0.057,0.007L664.979,1009.761z"></path>
		<path fill-rule="evenodd" clip-rule="evenodd" class="colour2" fill="#262262" d="M1017.848,1309.479c-1.611-14.046-2.922-28.127-4.339-42.195
			c-6.248,10.623-16.463,16.964-25.941,24.115c-1.387,1.046-2.609,1.358-4.322,0.97c-30.054-6.832-60.88-8.827-91.118-14.478
			c-29.933-5.594-60.037-10.235-89.708-17.295c-23.131-5.503-46.247-11.218-68.723-18.761c-27.92-9.372-55.292-20.48-79.825-37.359
			c-3.879-2.669-8.095-4.801-12.1-7.2c-4.202-2.518-7.244-6.918-10.96-10.313c-10.435-9.538-20.943-18.994-31.458-28.445
			c-1.411-1.269-3.279-2.161-2.857-4.508c-0.021-0.012-0.041-0.024-0.062-0.036c-0.021-0.037-0.039-0.085-0.055-0.135
			c-0.256-0.073-0.511-0.146-0.767-0.22c0.636-0.805,0.645-0.163,0.767,0.22c0.046,0.013,0.092,0.025,0.138,0.039
			c-0.01,0.046-0.013,0.087-0.021,0.132c13.552,7.595,24.957,18.238,37.946,26.656c24.626,15.96,50.017,30.191,78.417,38.525
			c20.576,6.037,41.189,11.646,61.915,12.858c-16.975-4.706-34.667-9.904-51.753-16.873c-18.178-7.415-35.672-15.847-52-27.227
			c-14.155-9.867-28.425-19.516-42.12-30.055c-21.442-16.498-42.749-33.157-61.618-52.6c-14.879-15.332-29.345-31.088-41.484-48.784
			c-2.035-1.954-4.131-3.869-4.737-7.633c3.372,1.589,5.454,3.45,6.479,6.429c25.113,28.43,53.325,53.254,85.071,74.127
			c30.948,20.349,62.254,40.012,96.155,55.183c11.316,5.064,22.98,9.142,35.047,12.033c1.19-0.054,2.481-0.479,3.283,0.896
			c1.07,0.244,2.143,0.49,3.213,0.734c1.434-0.721,2.433,0.427,3.603,0.836c1.578,0.468,3.156,0.935,4.734,1.402l0.235,0.066
			c1.96,2.365,4.554,0.874,6.86,1.128c2.705-0.059,5.313,0.244,7.519,2.031c1.089,0.275,2.177,0.551,3.265,0.827l0.06-0.34
			l0.033,0.346c2.307,1.611,5.146,1.28,7.67,2.104c0.713-0.577,1.332-0.604,1.791,0.307c1.061,0.246,2.121,0.491,3.183,0.737
			c3.241,0.521,6.482,1.042,9.724,1.563c3.102,0.667,6.194,1.403,9.409,1.106c0.776-0.966,1.217-0.471,1.58,0.363
			c1.117,0.223,2.234,0.445,3.352,0.668c1.719-0.803,3.401-1.267,4.839,0.526c4.172,0.925,8.405,0.893,12.643,0.793
			c0.717-0.842,1.164-0.58,1.445,0.354c4.34-0.136,8.597,1.488,12.97,0.618c1.063-0.876,1.88-0.56,2.539,0.522
			c1.843,0.928,3.799,0.828,5.765,0.632c1.693-0.619,3.367-1.063,4.815,0.533c1.135,0.128,2.27,0.257,3.405,0.385
			c0.303,0.007,0.606,0.013,0.908,0.02c3.244,0.369,6.487,0.738,9.73,1.107c0.649-0.009,1.299-0.018,1.947-0.026
			c4.606,1.046,9.26,1.234,14.045,0.23c-16.59-3.004-33.115-6.449-49.791-8.859c-11.817-1.708-24.114-2.599-35.345-5.539
			c-38.304-10.026-77.172-19.553-109.031-45.377c-1.968-1.596-3.87-3.272-5.578-5.311c9.747,4.09,19.005,9.161,28.813,13.03
			c29.21,11.521,59.753,17.062,90.856,18.932c28.697,1.727,57.488,2.262,86.244,2.532c15.085,0.142,30.224,0.074,45.314-1.541
			c10.708-1.146,21.582-0.758,32.286-1.928c13.745-1.502,26.074-6.771,36.267-16.431c-0.161-10.994-2.379-21.775-3.385-32.682
			c-0.551,0.075-1.423-0.046-1.607,0.254c-7.347,11.948-19.719,14.613-31.977,16.099c-30.129,3.654-59.985-0.082-89.63-5.359
			c-38.37-6.83-74.821-19.845-110.083-36.084c-14.779-6.806-29.264-14.48-42.495-24.164c-1.616-1.182-3.872-1.78-4.88-4.866
			c15.227,7.913,30.589,13.723,46.285,18.597c22.771,7.072,46.204,11.066,69.668,15.088c16.199,2.775,32.58,4.118,48.733,7.112
			c1.863,0.345,3.897-0.229,5.851-0.377c0.624-0.749,1.247-1.499,1.87-2.247c-4.938-1.205-9.877-2.41-14.815-3.613l-0.159,0.175
			l-0.092-0.211c-1.183-0.091-2.366-0.182-3.55-0.271c-1.802,0.819-3.566,1.395-4.939-0.721c-1.779-0.48-3.558-0.962-5.336-1.441
			c-2.607-0.09-5.174-0.325-7.339-2.022c-1.253-0.376-2.507-0.752-3.761-1.128l-0.455,0.185l-0.449-0.192
			c-2.78-0.885-5.56-1.77-8.34-2.654c-8.622-1.506-16.641-4.415-23.378-10.503c8.951,2.125,17.902,4.249,26.853,6.374
			c3.923,0.379,7.845,0.76,11.768,1.14c1.427-1.164,2.755-1.541,3.785,0.473c1.162,0.085,2.326,0.171,3.489,0.255
			c0.671-0.696,1.343-0.722,2.016-0.002c1.251,0.051,2.502,0.102,3.752,0.151c1.603-0.927,3.188-1.034,4.749,0.097
			c4.317,0.033,8.633,0.066,12.95,0.1c1.143-1.207,2.321-1.154,3.53-0.104c2.749-0.257,5.5-0.513,8.25-0.77
			c1.858-1.65,3.854-1.305,5.887-0.403c3.15-0.263,6.301-0.527,9.45-0.791c1.476-1.622,3.077-1.425,4.742-0.33
			c1.567-0.253,3.135-0.504,4.701-0.757l0.06,0.02c1.959-0.173,3.916-0.346,5.875-0.518l0.008-0.298l0.05,0.287
			c1.087-0.242,2.175-0.484,3.263-0.727c1.126-1.591,2.442-1.412,3.849-0.419c1.135,0.01,2.269,0.02,3.404,0.029
			c7.371-2.291,14.797-4.329,22.565-4.726c1.854,0.054,3.385-0.732,4.796-1.836c0.194-0.252,0.442-0.302,0.745-0.148
			c1.608-0.335,3.218-0.67,4.827-1.006c3.516-1.896,7.398-2.49,11.257-3.179c1.477-0.688,2.953-1.378,4.431-2.067
			c0.134-1.939,0.729-3.979,0.331-5.802c-5.013-22.954-7.689-46.183-8.528-69.643c-2.274,2.532-5.444,4.107-8.431,3.039
			c-12.854-4.596-23.932,0.752-35.645,4.83c-11.053,3.848-22.155,7.923-33.796,9.952c-1.599,1.162-3.427,0.764-5.19,0.766
			c-6.534,4.27-14.259,4.533-21.414,4.473c-5.992-0.051-12.107-0.492-18.167-0.526c-25.366-0.147-50.399-2.913-75.012-9.188
			c-1.845-0.471-3.734-0.764-5.77-0.449c20.409,10.82,43.092,13.273,65.232,17.948c21.839,4.61,43.982,4.553,66.356,6.516
			c-10.264,2.353-20.453,2.142-30.557,1.447c-26.858-1.847-53.323-6.878-79.976-10.406c-23.525-3.112-45.646-11.075-67.283-20.51
			c-16.365-7.136-32.758-14.14-47.944-23.744c-16.601-10.5-32.404-22.036-47.632-34.4l0.229,0.052
			c-0.712-0.385-1.423-0.769-2.134-1.153c-4.396-4.834-10.988-7.033-14.915-12.429c-3.48-3.035-7.071-5.954-10.421-9.127
			c-14.498-13.733-31.249-25.286-41.7-42.948c-0.323-0.362-0.646-0.726-0.968-1.087c-0.412-0.037-0.826-0.075-1.239-0.111
			c-0.073-1.392-0.782-3.234-2.022-2.508c-1.671,0.978-0.229,2.448,0.846,3.457c0.323,0.989,0.646,1.979,0.969,2.969
			c0.634,0.08,0.873,0.384,0.56,0.995c4.265,6.676,8.445,13.404,13.404,19.611c16.841,21.081,35.585,40.293,55.123,58.92
			c15.281,14.569,32.127,26.945,48.547,39.99c15.056,11.963,32.541,19.679,48.972,29.237c1.041-0.176,1.989-0.084,2.629,0.905
			l0.309,0.178c2.06-0.244,3.828,0.61,5.638,1.417c24.174,10.781,49.488,17.277,75.785,19.988c2.171,0.223,4.082,1.438,6.249,1.563
			c0.382-0.013,0.764-0.019,1.146-0.035c-0.393,0.055-0.772,0.057-1.146,0.035c-14.082,0.455-27.842-1.929-41.511-4.738
			c-13.25-2.723-26.411-5.904-38.784-11.627c-6.076-1.322-11.766-3.615-17.094-6.812c0.001,0.001-0.259-0.114-0.259-0.114
			c-11.266-3.542-21.928-8.328-31.546-15.271c0,0-0.283-0.214-0.283-0.214c-3.022-0.879-6.097-1.663-8.021-4.499
			c0,0-0.239-0.203-0.239-0.203c-6.487-2.476-11.94-6.549-17.102-11.07c-0.354-0.123-0.576-0.366-0.667-0.73
			c-0.679,0.041-0.982-0.232-0.775-0.93c-0.532-0.488-1.064-0.977-1.597-1.464c-0.744,0.258-1.099-0.023-1.1-0.793
			c-0.289-0.067-0.582-0.087-0.877-0.059c-1.72,0.149-2.866-0.376-2.806-2.326c-0.767-0.001-1.184-0.371-1.206-1.157
			c-5.989-0.541-9.059-5.773-13.388-8.801c-18.505-12.939-35.048-28.334-52.099-43.095c-26.837-23.229-47.422-51.606-67.618-80.413
			c-18.631-26.577-35.576-54.188-50.447-82.975c-11.61-22.473-22.77-45.255-31.099-69.241c-0.824-2.374-3.288-4.093-2.728-6.972
			c-0.376-0.869-0.754-1.739-1.131-2.609c-0.684-0.334-1.066-0.777-0.57-1.544c-0.275-0.773-0.553-1.55-0.83-2.325
			c-1.278-1.097-1.868-2.463-1.616-4.148c-0.501-1.401-1.006-2.809-1.512-4.217c-1.386-0.569-1.272-1.567-0.76-2.667
			c-0.289-0.798-0.582-1.606-0.875-2.415c-1.325-1.207-2.052-2.625-1.568-4.456c-0.665-2.057-1.333-4.125-2.003-6.193
			c-1.855-1.975-2.464-4.409-2.582-7.011c-0.289-0.804-0.584-1.619-0.879-2.433c-2.207-2.444-2.756-5.504-3.194-8.592
			c-0.49-1.44-0.984-2.894-1.478-4.346c-0.234-0.211-0.494-0.403-0.684-0.648c-0.044-0.058,0.144-0.296,0.23-0.442
			c-0.438-1.217-0.88-2.442-1.324-3.668c-1.804-0.842-1.016-3.135-2.368-4.229c-0.267,0.192-0.531,0.386-0.793,0.583
			c-0.242,4.046,2.441,7.997,0.392,12.103c0,0.001,0.01,0.051,0.01,0.051c1.245,0.887,1.597,2.067,1.156,3.511
			c0,0.002,0.011,0.041,0.011,0.041c0.834,0.585,1.254,1.359,1.092,2.398c-0.087,0.124-0.271,0.276-0.244,0.364
			c0.085,0.278,0.248,0.531,0.381,0.794c0.824,0.591,1.193,1.38,1.04,2.396c-0.071,0.136-0.227,0.295-0.197,0.402
			c0.08,0.285,0.24,0.547,0.368,0.818c1.159,0.86,1.448,2.006,1.107,3.363c0,0.003,0.059,0.174,0.059,0.174
			c0.795,0.586,1.113,1.372,0.98,2.347c-0.055,0.152-0.185,0.323-0.15,0.447c0.083,0.298,0.246,0.575,0.376,0.86
			c1.044,0.746,1.291,1.776,1.066,2.979c3.507,12.672,7.107,25.309,10.115,38.121c3.393,14.445,8.219,28.485,12.697,42.63
			c2.451,7.74,7.225,14.679,7.905,22.979c3.215,4.198,5.657,8.715,5.804,14.17c8.957,19.43,17.383,39.099,27.36,58.056
			c15.473,29.398,31.415,58.511,48.328,87.125c6.522,11.035,13.909,21.43,21.936,31.074c12.387,14.886,25.521,29.239,39.326,42.945
			c20.795,20.647,41.838,41.012,65.153,58.798c22.067,16.834,46.131,30.413,71.321,42.089c12.297,5.7,25.428,9.31,37.465,15.653
			c2.968,1.564,6.889,1.208,10.261,2.138c23.602,6.505,47.339,12.247,71.413,16.917c17.377,3.371,34.798,6.889,53.583,11.047
			c-4.198,1.761-6.953,0.217-9.56,0.043c-14.658-0.98-29.256-2.669-43.934-3.584c-9.133-0.569-18.132-3.08-27.228-4.488
			c-39.916-6.18-77.786-18.795-113.822-36.805c-15.429-7.711-30.931-15.623-45.186-25.241
			c-16.875-11.389-32.615-24.502-48.524-37.27c-15.652-12.561-29.568-27.035-43.846-41.106
			c-23.4-23.064-44.158-48.286-62.989-75.179c-10.661-15.227-20.817-30.768-30.437-46.656c-15.419-25.467-32.027-50.271-43.65-77.88
			c-10.572-25.116-21.75-49.999-28.18-76.641c-0.678-2.81-0.536-5.881-3.137-9.549c1.007,11.392,2.74,21.422,5.201,31.285
			c9.691,38.83,23.325,76.232,41.089,112.117c5.314,10.736,9.824,21.927,15.825,32.256c13.778,23.714,26.953,47.833,43.472,69.859
			c3.291,4.387,6.319,8.978,9.321,13.572c4.766,7.294,12.143,12.176,17.369,19.057c2.919,3.844,6.235,7.387,8.979,11.458
			c-5.511-1.956-8.846-6.717-12.574-10.507c-10.02-10.185-20.493-20.33-28.366-32.109c-8.509-12.732-18.221-24.631-25.704-38.204
			c-6.576-11.928-15.045-22.86-20.65-35.441c-0.626-1.484-1.253-2.97-1.881-4.456c-6.37-8.036-9.39-17.84-13.99-26.804
			c-3.832-7.468-6.989-15.284-10.445-22.944c-1.636-4.169-3.316-8.323-4.903-12.512c-12.42-32.783-23.826-65.84-27.764-100.964
			c-2.76-24.612-9.107-48.299-19.401-70.823c-7.878-17.237-13.716-35.098-18.61-53.381c-7.073-26.418-17.666-51.669-26.662-77.45
			c-0.506,0.359-1.013,0.719-1.52,1.078c9.77,28.001,21.097,55.518,28.061,84.41c4.754,19.728,10.735,38.932,18.245,57.791
			c7.79,19.56,13.718,39.754,14.835,61.014c0.516,9.814,0.667,19.653,1.389,29.452c1.083,14.728,4.37,29.154,6.457,43.748
			c0.778,1.055,1.141,2.196,0.741,3.499c0.119,0.848,0.239,1.696,0.358,2.544c0.99,1.783,1.41,3.674,1.077,5.706
			c0.054,0.429,0.109,0.858,0.164,1.288c0.957,1.411,1.299,2.946,0.931,4.624c0.061,0.458,0.121,0.918,0.181,1.377
			c0.711,1.016,1.115,2.095,0.693,3.344c0.144,0.808,0.288,1.617,0.433,2.427c0.787,1.461,1.296,2.977,0.925,4.665
			c0.126,0.822,0.252,1.645,0.378,2.467c0.779,1.035,1.1,2.169,0.74,3.446c0.151,0.819,0.302,1.638,0.453,2.457
			c4.251,12.768,7.071,25.907,10.158,38.978c0.119,0.466,0.238,0.932,0.358,1.397c2.82,5.536,4.349,11.424,4.807,17.604
			c6.82,16.104,11.041,33.08,16.24,49.702c8.133,26.002,18.608,51.065,31.798,74.668c9.721,17.394,21.237,33.988,33.598,49.848
			c9.53,12.227,19.235,24.396,30.076,35.351c9.912,10.017,20.333,19.656,30.663,29.313c13.847,12.944,29.387,23.9,42.65,37.49
			c9.461,9.694,20.647,17.262,31.963,24.607c0.963,0.624,2.19,1.009,2.206,2.821c-2.299,1.129-3.873-0.647-5.583-1.595
			c-19.139-10.604-35.729-24.712-52.716-38.287c-19.161-15.314-38.591-30.265-56.074-47.599
			c-16.493-16.354-32.636-33.024-46.527-51.635c-12.313-16.494-22.316-34.446-31.111-53.104
			c-17.339-36.78-28.201-75.744-39.116-114.686c-2.889-10.308-4.629-20.938-6.896-31.421c0.044,2.94-0.059,5.894,0.155,8.823
			c1.859,25.412,2.427,50.922,5.77,76.222c2.577,14.468,4.786,29.015,7.815,43.388c4.971,23.587,9.75,47.249,17.901,70.082
			c-3.698-4.54-5.003-10.195-7.535-15.243c-2.589-5.162-3.334-10.851-5.474-16.107c-0.529,0.031-1.057,0.062-1.586,0.093
			c4.417,27.534,11.211,54.333,25.092,78.833c7.221,12.747,16.827,23.79,26.002,35.116c5.984,7.387,13.537,13.168,20.534,19.517
			c2.201,1.996,4.694,3.818,5.487,7.028c-22.124-15.499-42.326-32.997-59.07-54.261c-0.506,0.449-1.013,0.898-1.519,1.348
			c6.691,12.365,14.174,24.044,22.882,35.268c6.711,8.647,15.245,15.937,20.554,25.773c1.246,2.31,5.013,3.119,6.823,5.284
			c11.341,13.566,25.251,24.349,38.677,35.587c9.751,8.162,19.262,16.697,29.913,23.767c1.902,1.262,4.078,2.313,5.791,5.265
			c-11.401-3.374-21.228-8.484-30.841-13.773c-17.928-9.862-34.262-22.205-51.103-33.78c-10.744-7.384-20.147-16.146-28.929-25.372
			c-7.902-8.305-14.273-18.201-20.127-28.271c-5.277-9.076-11.025-17.865-13.322-28.327c-0.193-0.878-0.508-1.938-2.377-2.127
			c1.015,9.287,4.467,17.654,7.838,26.039c1.205,2.994,3.18,5.74,2.962,9.181c0.025,0.028,0.048,0.06,0.073,0.088
			c0.042,0.056,0.08,0.115,0.119,0.173c0.153,0.062,0.306,0.122,0.459,0.184c-0.099,0.009-0.235,0.063-0.289,0.019
			c-0.067-0.056-0.12-0.128-0.171-0.202c-0.064-0.025-0.129-0.051-0.194-0.077c0.005-0.063-0.002-0.121,0.001-0.184
			c-7.065-8.026-11.98-17.295-15.319-27.374c-4.779-14.427-7.824-29.157-7.019-44.496c0.082-1.561,1.063-3.576-1.109-4.703
			c-0.26,1.538-0.452,3.092-0.79,4.612c-4.204,18.926-8.556,37.799-10.083,57.225c-1.792,22.772-1.438,45.594-2.251,68.386
			c-1.037,29.063-4.262,58.028-3.874,87.159c0.387,29.116,6.488,35.279,29.624,45.522c0.358,0.159,0.743,0.255,1.113,0.386
			c26.123,9.218,52.892,16.136,80.307,19.771c33.75,4.476,67.777,5.775,101.819,6.156c23.804,0.267,47.624,0.404,71.346-1.714
			c24.441-2.184,48.808-5.202,73.232-7.586c25.396-2.479,50.64-6.15,75.534-11.549c30.449-6.602,59.655-17.667,89.393-26.816
			c22.591-6.951,44.665-15.578,68.816-16.455c9.477-0.344,19.107-1.873,28.287-5.156
			C1017.246,1312.862,1018.179,1312.362,1017.848,1309.479z M556.044,1031.152c0.069,0.347,0.138,0.693,0.206,1.04
			c0.021,0.021,0.041,0.044,0.061,0.065c0.128,0.084,0.257,0.169,0.385,0.255c-0.141-0.072-0.283-0.144-0.425-0.215
			c-0.007-0.035-0.014-0.07-0.021-0.105c-0.24-0.257-0.479-0.514-0.718-0.771C555.703,1031.332,555.874,1031.242,556.044,1031.152z
			 M658.696,1224.29c-0.248-0.167-0.468-0.374-0.693-0.576c-0.054-0.022-0.108-0.046-0.162-0.068
			c-0.006-0.024-0.016-0.043-0.022-0.066c-1.058-0.42-2.145-0.782-3.153-1.297c-0.447-0.229-0.726-0.784-1.55-1.73
			c2.704,0.117,4.137,0.903,4.703,3.027c0.02,0.008,0.039,0.015,0.059,0.022c0.042,0.037,0.083,0.074,0.125,0.112
			c0.37,0.155,0.74,0.311,1.11,0.467C658.972,1224.222,658.775,1224.343,658.696,1224.29z"></path>
		<path fill-rule="evenodd" clip-rule="evenodd" class="colour2" fill="#262262" d="M420.921,646.471l-0.347-0.205c0,0,0.096-0.436,0.098-0.427
			c-0.124-0.472-0.25-0.952-0.375-1.429c-0.51,0.882-1.02,1.762-1.529,2.644c0.291,1.072,0.581,2.142,0.87,3.205
			c0.939,1.844,1.881,3.693,2.822,5.543c0.263-0.197,0.527-0.392,0.794-0.583c-0.035-0.799-0.069-1.598-0.1-2.386
			C422.876,650.557,422.247,648.392,420.921,646.471z"></path>
		<path fill-rule="evenodd" clip-rule="evenodd" class="colour2" fill="#262262" d="M568.17,888.763c-0.636,0.207-1.272,0.412-1.908,0.617
			c0.527,0.452,1.054,0.904,1.581,1.356C567.952,890.079,568.061,889.42,568.17,888.763z"></path>
	</g>
	<g>
		<path fill-rule="evenodd" clip-rule="evenodd" class="colour2" fill="#262262" d="M1203.356,519.287c-4.434-16.678-13.548-31.132-21.915-45.925
			c-4.144-7.326-6.396-14.915-6.346-23.47c0.078-13.521-0.758-27.035-2.29-40.488c-18.323,11.465-37.814,20.726-57.231,30.101
			c-9.116,4.401-17.082,10.849-28.019,15.294c7.571-8.017,15.821-12.662,23.274-18.232c7.492-5.599,15.09-11.154,22.752-16.419
			c8.175-5.618,16.754-10.688,24.686-16.777c4.876-3.745,8.758-8.449,13.41-12.367c-1.063-15.509-3.152-30.833-8.224-45.62
			c-13.28,9.547-27.713,17.19-42.021,24.983c-12.839,6.992-24.161,16.124-36.189,24.257c-11.86,8.021-23.817,15.914-35.442,24.265
			c-7.638,5.486-14.77,11.678-22.115,17.567c-6.821,5.468-13.629,10.954-20.053,17.151c40.682-24.67,81.915-48.322,124.159-70.109
			c0.378,0.648,0.756,1.295,1.135,1.942c-18.457,12.668-36.858,25.419-55.386,37.984c-25.376,17.21-51.474,33.305-77.279,49.854
			c-7.386,4.736-13.217,11.817-22.024,14.468c-2.272,0.684-1.757,3.001-1.521,4.567c0.667,4.45,1.695,8.847,2.581,13.264
			c0.656,2.249,1.498,4.462,1.941,6.752c5.771,29.835,8.953,60.053,13.242,90.107c1.934,13.554,1.739,13.582,14.693,10.505
			c0.678-2.137-0.035-4.16-0.648-6.136c-0.698-2.254,0.015-3.667,2.129-4.506c11.58-7.178,24.529-11.285,37.078-16.208
			c35.016-13.732,70.074-27.371,105.33-40.466c13.733-5.101,27.874-9.4,42.803-9.701
			C1195.361,529.028,1199.271,524.119,1203.356,519.287z"></path>
		<path fill-rule="evenodd" clip-rule="evenodd" class="colour2" fill="#262262" d="M1062.868,368.373c-32.28,29.133-64.224,58.599-91.504,92.781
			c2.966-0.863,5.3-2.748,7.302-4.983c16.085-17.956,35.024-32.696,53.922-47.418c12.594-9.811,26.411-17.884,39.868-26.479
			c12.843-8.205,25.962-16,39.347-22.981c15.837-8.26,33.04-13.92,50.502-18.305c-2.725-17.172-11.239-32.043-18.799-47.293
			c-13.444,7.271-27.062,14.246-40.269,21.926c-8.134,4.73-15.024,11.33-22.435,17.147c-23.132,18.159-46.043,36.555-65.809,58.465
			c-11.7,12.97-22.075,27.111-34.575,39.379c-2.349,2.306-4.486,4.987-7.79,6.096c-1.337-1.272-0.353-2.257,0.386-3.052
			c11.404-12.285,20.737-26.178,30.813-39.5c12.804-16.93,26.772-33.11,42.519-47.112c17.679-15.722,34.504-32.704,54.369-45.774
			c6.463-4.252,13.159-8.341,19.827-12.376c5.588-3.381,10.143-8.008,14.59-12.729c-3.827-9.208-8.97-17.726-14.004-26.282
			c-3.83-6.512-6.859-13.636-12.938-18.605c-12.022,4.972-23.296,11.646-35.712,15.72l0.052-0.117
			c-0.409,0.382-0.817,0.765-1.228,1.146c-15.185,8.841-30.369,17.682-45.554,26.523c-0.438,0.369-0.875,0.737-1.311,1.108
			c-0.44,0.34-0.884,0.68-1.325,1.019c-0.419,0.534-0.838,1.4-1.604,0.593c-0.737-0.777,0.122-1.193,0.648-1.616
			c0.423-0.35,0.846-0.699,1.268-1.049c0.451-0.35,0.902-0.699,1.351-1.05c7.601-8.767,18.082-13.69,27.201-20.433
			c8.638-6.387,18.72-10.182,27.729-15.879c2.462-2.755,5.555-4.257,9.212-4.64c0.252-0.331,0.503-0.662,0.755-0.993
			c0.431-0.255,0.861-0.51,1.291-0.765c3.145-2.325,6.288-4.649,9.438-6.965c-1.032-0.883-2.155-1.691-3.094-2.677
			c-5.06-5.321-9.883-6.627-17.557-3.443c-9.343,3.876-18.453,8.512-28.17,11.527c-19.755,8.424-37.175,20.726-54.842,32.681
			c-20.539,13.899-39.627,29.701-59.477,44.502c-1.276,0.952-2.5,1.81-4.148,1.765c-0.003,0.022-0.009,0.041-0.012,0.063
			c-0.031,0.006-0.068,0.009-0.104,0.013c-0.143,0.23-0.283,0.46-0.426,0.691c-0.554-0.753,0.028-0.653,0.426-0.691
			c0.015-0.024,0.029-0.049,0.045-0.074c0.024,0.001,0.046-0.002,0.07-0.002c0.54-4.001,4.174-5.444,6.693-7.642
			c18.292-15.959,38.557-29.518,56.291-46.18c3.391-3.184,7.458-5.634,10.984-8.687c2.746-2.378,5.73-4.698,7.338-9.637
			c-11.587,8.376-22.425,15.901-33.604,22.914c-22.855,14.335-46.994,26.285-70.979,38.53c-9.445,4.823-18.605,10.225-28.707,13.661
			c1.576,3.982,3.152,7.963,4.728,11.943c7.69,19.429,15.381,38.858,23.071,58.287c17.085-12.215,33.573-25.18,49.179-39.251
			l0.126-0.471l0.473-0.102c0.211-0.208,0.438-0.397,0.679-0.57c-0.05-1.229,0.616-1.718,1.766-1.707
			c1.957-1.849,3.915-3.699,5.872-5.548c3.979-5.208,8.242-10.146,13.684-14.056c-2.6,5.919-6.003,11.264-11.04,15.482
			c-10.96,13.465-21.918,26.931-32.878,40.396c0.708,1.096,1.801,1.404,3.012,1.475c15.661-15.065,31.203-30.257,47.018-45.161
			c16.254-15.317,32.08-31.121,49.679-44.955c0.898-0.707,1.944-1.227,2.921-1.834c2.691-3.359,6.238-5.669,10.686-8.948
			c-2.095,5.758-4.673,9.475-9.212,11.668c-19.013,19.378-35.073,41.197-51.706,62.542c-8.933,11.461-18.448,22.515-26.701,34.443
			c-10.299,14.884-23.916,26.718-35.319,40.545c6.767,16.24,15.707,31.284,25.266,45.989c1.248-3.987,3.153-7.502,6.266-10.453
			c1.498-1.42,3.009-3.507,3.255-5.451c0.987-7.819,6.299-12.07,12.083-16.243c6.533-4.713,11.97-10.629,17.689-16.29
			c12.811-12.676,26.806-24.09,40.379-35.952c8.927-7.801,19.375-13.018,28.774-19.917c1.878-2.642,1.878-2.642,5.501-4.235
			C1066.567,365.759,1064.627,367.015,1062.868,368.373z M1018.733,279.916c-0.563,0.9-1.319,1.518-2.413,1.633
			c-0.221,0.334-0.441,0.668-0.662,1.002c-6.803,7.553-15.463,12.765-23.638,18.617c6.93-7.231,13.577-14.764,22.446-19.794
			c0.343-0.188,0.686-0.376,1.029-0.565c0.455-0.459,0.913-0.918,1.371-1.376c0.426-1.479,1.438-2.242,2.942-2.139
			c0.336,0.023,0.904,0.732,0.884,1.1C1020.629,279.52,1019.819,279.958,1018.733,279.916z M970.317,438.922l-0.357-0.244
			l0.404-0.16L970.317,438.922z M1068.437,361.597c0.107-0.066,0.237-0.094,0.366-0.125c0.025-0.021,0.05-0.042,0.074-0.063
			l0.287-0.296l-0.252,0.331c-0.036,0.011-0.072,0.019-0.109,0.028c-0.171,0.145-0.342,0.29-0.514,0.434
			C1068.336,361.799,1068.354,361.647,1068.437,361.597z"></path>
		<path fill-rule="evenodd" clip-rule="evenodd" class="colour2" fill="#262262" d="M969.667,464.192c-0.128,0.227-0.257,0.454-0.386,0.68
			c0.115-0.046,0.295-0.063,0.332-0.146c0.068-0.151,0.054-0.34,0.073-0.513l0.119-0.208c0,0-0.142,0.186-0.14,0.186
			L969.667,464.192z"></path>
	</g>
	<g>
		<path fill-rule="evenodd" clip-rule="evenodd" class="colour4" fill="#bcbec0" d="M471.045,666.217c0.915,0.54,1.246,1.333,1.026,2.364
			c0.862,2.358,1.725,4.717,2.587,7.077c0.896,0.549,1.258,1.326,1.016,2.363c1.433,3.787,2.866,7.574,4.299,11.362
			c2.033,1.649,2.376,4.008,2.683,6.382c1.489,3.761,2.978,7.524,4.467,11.286c4.933,8.835,8.513,18.263,12.139,27.669
			c0.246,0.647,0.491,1.296,0.737,1.944c1.258,0.564,1.766,1.498,1.405,2.858c0.467,0.944,0.935,1.891,1.403,2.836
			c0.785,0.828,1.497,1.687,1.248,2.951c0.256,0.637,0.513,1.274,0.77,1.912c1.151,0.602,1.836,1.456,1.553,2.84
			c0.237,0.65,0.475,1.302,0.712,1.952c1.771,1.288,2.591,3.05,2.596,5.216c1.2,2.536,2.401,5.073,3.602,7.609
			c0.876,0.773,1.628,1.609,1.462,2.906c0.668,1.405,1.338,2.812,2.007,4.218c0.928,0.75,1.642,1.605,1.432,2.914
			c0.631,1.438,1.262,2.876,1.893,4.314c1.743,1.274,2.603,3.023,2.761,5.146c0.254,0.651,0.508,1.304,0.762,1.956
			c1.767,1.264,2.622,3.01,2.734,5.149c1.084,2.197,2.168,4.395,3.252,6.593c1.667,1.327,2.588,3.059,2.8,5.172
			c2.187,4.205,4.374,8.411,6.561,12.616c1.871,1.172,2.686,2.957,2.947,5.063c0.571,1.088,1.142,2.177,1.713,3.266
			c1.877,1.156,2.637,2.971,2.96,5.039c1.804,3.403,3.608,6.807,5.412,10.211c2.251,2.021,3.378,4.634,3.962,7.531
			c0.607,1.075,1.216,2.15,1.824,3.227c1.854,1.147,2.804,2.854,3.081,4.976c0.219,0.283,0.36,0.602,0.421,0.954
			c2.524,1.793,3.582,4.448,4.297,7.303c0.952,1.882,1.905,3.765,2.857,5.646c1.185,0.507,1.811,1.367,1.707,2.689
			c1.022,1.834,2.045,3.669,3.068,5.504c1.11,0.573,1.792,1.424,1.767,2.731c0.262,0.239,0.439,0.532,0.534,0.875
			c1.213,0.478,1.854,1.338,1.786,2.67c2.135,2.682,4.271,5.366,6.406,8.049c1.295,0.381,1.868,1.275,1.842,2.593
			c1.004,1.451,2.009,2.904,3.013,4.356c1.15,0.532,1.838,1.373,1.792,2.699c0.525,0.733,1.051,1.468,1.577,2.203
			c1.314,0.346,1.961,1.209,1.977,2.559c0.542,0.702,1.083,1.404,1.625,2.108c1.29,0.387,1.892,1.275,1.891,2.602
			c0.553,0.704,1.107,1.408,1.662,2.113c1.214,0.409,1.948,1.211,2.055,2.521c0.936,1.076,1.872,2.152,2.808,3.229
			c2.987,2.505,6.15,4.853,7.693,8.641c0.266,0.235,0.437,0.527,0.511,0.875c1.541,1.977,3.081,3.952,4.621,5.929
			c4.054,3.089,7.643,6.627,10.471,10.896c5.299,3.995,9.753,8.712,12.643,14.767c0.712,0.383,1.424,0.767,2.136,1.151
			c0,0-0.227-0.05-0.228-0.051c15.228,12.363,31.031,23.899,47.632,34.399c15.186,9.604,31.579,16.608,47.944,23.744
			c21.637,9.435,43.758,17.397,67.283,20.51c26.652,3.528,53.117,8.56,79.976,10.406c10.104,0.694,20.293,0.905,30.557-1.447
			c-22.374-1.963-44.518-1.905-66.356-6.516c-22.141-4.675-44.823-7.128-65.232-17.948c2.035-0.314,3.925-0.021,5.77,0.449
			c24.612,6.275,49.646,9.041,75.012,9.188c6.06,0.034,12.175,0.476,18.167,0.526c7.155,0.061,14.88-0.203,21.421-4.474
			c-30.45-7.121-60.893-14.279-90.614-24.129c-1.072-0.355-2.021-1.081-3.027-1.634c-2.332-0.968-4.665-1.936-6.998-2.904
			c-8.183-1.831-15.39-5.866-22.555-9.993c-1.166-0.517-2.333-1.033-3.499-1.55c-1.438,0.352-2.301-0.287-2.767-1.606
			c-0.345-0.058-0.657-0.194-0.936-0.407c-2.39-0.35-4.607-1.076-6.33-2.885c-0.613-0.286-1.226-0.573-1.839-0.86
			c-3.745-0.876-7.162-2.36-9.81-5.275c-2.641-1.378-5.282-2.756-7.923-4.135c-2.111-0.242-3.865-1.139-5.188-2.826
			c-0.329-0.08-0.599-0.253-0.809-0.52c-2.666-1.079-5.584-1.731-7.337-4.349c-0.341-0.083-0.632-0.254-0.874-0.508
			c-1.325,0.096-2.168-0.62-2.813-1.669c-1.426-1.009-2.853-2.021-4.279-3.031c-2.141-0.25-3.891-1.141-5.002-3.067
			c-0.345-0.075-0.65-0.229-0.917-0.463c-1.324,0.114-2.119-0.684-2.825-1.636c-9.376-7.12-19.039-13.896-28.073-21.428
			c-25.219-21.023-49.189-43.415-72.302-66.747c-21.996-22.205-39.609-47.775-57.431-73.227
			c-8.903-12.714-15.735-26.616-23.669-39.866c-11.813-19.728-23.639-39.439-35.135-59.357
			c-20.599-35.686-36.408-73.58-51.862-111.632c-5.414-13.33-12.283-26.071-16.081-40.067c-1.897-6.995-5.522-13.394-7.37-20.473
			c-0.214,9.396,2.875,18.049,5.753,26.622C444.469,588.773,457.814,627.476,471.045,666.217z"></path>
		<path fill-rule="evenodd" clip-rule="evenodd" class="colour4" fill="#bcbec0" d="M787.577,1144.626c-3.372-0.93-7.293-0.573-10.261-2.138
			c-12.037-6.344-25.168-9.953-37.465-15.653c-25.19-11.676-49.254-25.255-71.321-42.089c-23.315-17.786-44.357-38.15-65.153-58.798
			c-13.805-13.706-26.939-28.06-39.326-42.945c-8.027-9.645-15.414-20.039-21.936-31.074
			c-16.913-28.614-32.855-57.727-48.328-87.125c-9.977-18.957-18.403-38.626-27.36-58.056c-4.016-2.886-5.207-7.492-7.101-11.669
			c-4.604-10.088-10.594-19.471-14.842-29.756c-6.905-16.713-12.791-33.666-17.375-51.238
			c-3.838-14.716-10.527-28.687-15.924-42.998c-12.203-32.358-28.428-63.019-39.505-95.897
			c-16.098-47.78-31.813-95.538-33.668-146.543c-1.35-6.688-1.193-13.423-0.654-20.171c-0.011-0.669-0.023-1.34-0.035-2.01
			c-0.625-0.843-0.7-1.68,0.027-2.507c0.038-0.711,0.077-1.422,0.115-2.133c-0.776-0.112-1.553-0.224-2.329-0.336
			c-0.006,2.347,0.292,4.723-0.642,6.986c0.901,3.226,0.706,6.409-0.363,9.559c0.02,4.38,0.041,8.763,0.061,13.145
			c0.821,3.486,1.35,6.977,0.142,10.491c0.324,5.489,0.789,10.976,0.947,16.471c0.724,25.109,5.156,49.59,12.43,73.578
			c7.522,24.807,15.612,49.451,22.65,74.392c5.293,18.757,11.26,37.183,18.767,55.187c10.32,24.75,17.937,50.317,21.103,77.086
			c4.892,41.363,18.25,80.418,32.788,119.139c7.494,16.362,14.744,32.831,21.181,49.645l-0.078-0.149
			c0.644,1.525,1.287,3.051,1.928,4.569c5.602,12.572,14.071,23.505,20.647,35.433c7.483,13.573,17.195,25.472,25.704,38.204
			c7.873,11.779,18.346,21.925,28.366,32.109c3.729,3.79,7.063,8.551,12.574,10.507c-2.744-4.071-6.06-7.614-8.979-11.458
			c-5.226-6.881-12.603-11.763-17.369-19.057c-3.002-4.595-6.03-9.186-9.321-13.572c-16.52-22.026-29.694-46.146-43.472-69.859
			c-6.001-10.329-10.511-21.52-15.825-32.256c-17.764-35.885-31.398-73.287-41.089-112.117c-2.461-9.863-4.194-19.894-5.201-31.285
			c2.601,3.668,2.458,6.739,3.137,9.549c6.43,26.642,17.607,51.524,28.18,76.641c11.623,27.609,28.23,52.413,43.65,77.88
			c9.62,15.889,19.775,31.43,30.437,46.656c18.831,26.893,39.588,52.114,62.989,75.179c14.277,14.071,28.193,28.546,43.846,41.106
			c15.91,12.768,31.649,25.881,48.524,37.27c14.254,9.618,29.757,17.53,45.186,25.241c36.036,18.01,73.906,30.625,113.822,36.805
			c9.096,1.408,18.095,3.919,27.228,4.488c14.678,0.915,29.275,2.604,43.934,3.584c2.606,0.174,5.361,1.718,9.56-0.043
			c-18.785-4.158-36.206-7.676-53.583-11.047C834.916,1156.873,811.179,1151.131,787.577,1144.626z"></path>
		<path fill-rule="evenodd" clip-rule="evenodd" class="colour4" fill="#bcbec0" d="M871.558,282.978c-1.788,1.555-2.736,2.944-1.432,5.504
			c3.82,7.495,7.357,15.132,11.005,22.712c10.102-3.436,19.262-8.838,28.707-13.661c23.985-12.246,48.124-24.195,70.979-38.53
			c11.18-7.013,22.018-14.537,33.604-22.914c-1.607,4.939-4.592,7.259-7.338,9.637c-3.526,3.053-7.594,5.503-10.984,8.687
			c-17.734,16.662-37.999,30.22-56.291,46.18c-2.52,2.198-6.153,3.641-6.693,7.642c1.648,0.045,2.872-0.813,4.148-1.765
			c19.85-14.801,38.938-30.603,59.477-44.502c17.667-11.955,35.087-24.257,54.844-32.681c5.808-7.403,12.599-13.937,18.67-21.125
			c4.559-5.398,5.287-4.759-0.347-8.945c-7.64-5.677-16.954-8.199-24.94-13.038c-7.762-4.704-13.931-2.533-20.402,1.761
			c-0.957,0.634-1.929,1.246-2.895,1.867c-13.655,11.416-27.732,22.263-42.767,31.862c13.695-11.873,26.269-25.038,41.5-35.046
			c3.079-2.167,6.158-4.335,9.463-6.662c-7.996-5.58-15.611-9.647-24.759-2.756c-4.684,3.527-10.111,6.054-14.868,9.496
			c-25.89,18.731-51.659,37.623-75.69,58.755C900.265,258.018,885.907,270.492,871.558,282.978z"></path>
		<path fill-rule="evenodd" clip-rule="evenodd" class="colour4" fill="#bcbec0" d="M987.007,1011.001c-1.075-11.795-2.151-23.59-3.227-35.385
			c-3.9,9.563-9.381,17.82-18.023,23.935c-3.324,2.354-6.073,3.646-10.127,2.169c-3.795-1.381-8.151-0.65-11.886-2.614
			c-3.126-0.114-6.254-0.228-9.381-0.342c-7.938-0.105-16.023,1.359-23.636-2.208c-0.78-0.064-1.56-0.128-2.339-0.191
			c-2.053,0.594-3.763,0.205-4.945-1.712c-2.091-1.417-4.219,0.451-6.311-0.06c-25.327-6.193-50.661-12.353-75.336-20.914
			c-44.742-15.525-85.765-37.865-122.971-67.147c-21.346-16.8-42.942-33.359-60.002-54.861c-2.145-0.999-3.729-2.517-4.455-4.824
			c-4.655-4.178-7.693-9.955-13.199-14.117c0.428,12.414,46.723,68.47,89.927,103.878c1.36,0.039,2.169,0.784,2.586,2.026
			c11.3,8.44,22.601,16.881,33.901,25.32c2.2,0.197,3.692,1.459,4.852,3.223c3.516,2.074,7.033,4.147,10.55,6.222
			c1.577,0.037,2.859,0.579,3.57,2.092c1.564,0.873,3.128,1.747,4.692,2.621c2.923,0.595,5.536,1.747,7.463,4.137
			c3.439,1.729,6.879,3.456,10.319,5.184c1.331-0.172,2.14,0.612,2.854,1.564c2.165,1.124,4.331,2.249,6.496,3.375
			c1.383-0.303,2.217,0.455,2.9,1.502c0.622,0.256,1.245,0.513,1.867,0.771c2.135,0.021,3.757,1.154,5.301,2.452
			c2.111,0.924,4.223,1.848,6.334,2.771c3.154-0.068,5.778,1.387,8.376,2.915c2.642,0.124,4.984,1.059,7.095,2.625
			c17.843,6.281,36.386,10.294,54.111,17.044c7.918,3.015,16.496,4.299,24.771,6.37c11.639-2.028,22.741-6.104,33.794-9.951
			c11.713-4.078,22.79-9.426,35.645-4.83C981.563,1015.108,984.732,1013.533,987.007,1011.001z"></path>
		<path fill-rule="evenodd" clip-rule="evenodd" class="colour4" fill="#bcbec0" d="M649.239,1216.537c-11.316-7.346-22.502-14.913-31.963-24.607
			c-13.263-13.59-28.803-24.546-42.65-37.49c-10.33-9.657-20.751-19.297-30.663-29.313c-10.84-10.955-20.545-23.124-30.076-35.351
			c-12.361-15.859-23.876-32.454-33.598-49.848c-13.189-23.603-23.665-48.666-31.798-74.668c-5.199-16.622-9.42-33.599-16.24-49.702
			c-3.78-3.491-4.722-8.304-6.025-12.949c-0.824-2.154-1.647-4.311-2.472-6.467c-0.994-0.771-1.237-1.82-1.134-3.001
			c-5.101-11.939-7.766-24.625-11.425-37.077c1.016,8.332,0.133,16.777,2.227,24.97c2.268,10.483,4.007,21.113,6.896,31.421
			c10.915,38.941,21.776,77.905,39.116,114.686c8.795,18.657,18.798,36.609,31.111,53.104c13.891,18.61,30.034,35.28,46.527,51.635
			c17.482,17.334,36.913,32.284,56.074,47.599c16.987,13.575,33.577,27.684,52.716,38.287c1.709,0.947,3.284,2.724,5.583,1.595
			C651.429,1217.546,650.202,1217.161,649.239,1216.537z"></path>
		<path fill-rule="evenodd" clip-rule="evenodd" class="colour4" fill="#bcbec0" d="M1143.506,293.694c-2.441-6.01-4.698-12.109-8.374-17.529
			c-4.447,4.722-9.002,9.349-14.59,12.729c-6.668,4.035-13.364,8.124-19.827,12.376c-19.865,13.07-36.69,30.052-54.369,45.774
			c-15.746,14.002-29.715,30.182-42.519,47.112c-10.075,13.322-19.408,27.215-30.813,39.5c-0.738,0.795-1.723,1.78-0.386,3.052
			c3.304-1.109,5.441-3.79,7.79-6.096c12.5-12.268,22.875-26.409,34.575-39.379c19.766-21.911,42.677-40.307,65.809-58.465
			c7.41-5.818,14.301-12.417,22.435-17.147C1116.444,307.939,1130.062,300.965,1143.506,293.694z"></path>
		<path fill-rule="evenodd" clip-rule="evenodd" class="colour4" fill="#bcbec0" d="M897.784,980.54c-10.808-1.754-21.212-5.329-33.169-8.939
			c12.089,8.92,24.835,12.975,37.361,16.933c13.469,4.257,27.636,5.849,41.718,7.31c3.809-0.503,7.521,0.511,10.787,1.997
			c5.19,2.36,8.472,0.377,12.3-2.936c7.918-6.852,12.801-15.411,15.953-25.173c-0.018-2.388-0.033-4.777-0.05-7.166l-0.56-0.001
			c0,0-0.556,0.051-0.555,0.051c-2.361,5.865-7.637,8.186-12.89,10.429c-8.368,3.575-17.345,4.831-26.118,6.95
			C927.567,983.614,912.688,982.959,897.784,980.54z"></path>
		<path fill-rule="evenodd" clip-rule="evenodd" class="colour4" fill="#bcbec0" d="M1171.678,391.003c-4.652,3.918-8.534,8.623-13.41,12.367
			c-7.932,6.089-16.511,11.159-24.686,16.777c-7.662,5.266-15.26,10.82-22.752,16.419c-7.453,5.571-15.703,10.216-23.274,18.232
			c10.937-4.445,18.902-10.893,28.019-15.294c19.417-9.375,38.908-18.635,57.231-30.101
			C1172.81,403.248,1173.473,397.05,1171.678,391.003z"></path>
		<path fill-rule="evenodd" clip-rule="evenodd" class="colour4" fill="#bcbec0" d="M870.572,278.384c10.348-10.45,21.027-20.572,31.327-31.066
			c5.656-5.764,10.804-12.026,16.18-18.064c-7.948,2.46-13.008,8.682-19.145,13.287c-10.49,7.871-20.544,16.373-31.647,23.389
			c-5.161,3.261-6.246,6.151-2.882,11.556C866.665,281.117,867.688,281.297,870.572,278.384z"></path>
		<path fill-rule="evenodd" clip-rule="evenodd" class="colour4" fill="#bcbec0" d="M1108.19,231.278c-2.178-2.902-4.936-5.192-7.788-7.397
			c-3.149,2.316-6.293,4.641-9.438,6.965c-0.434,0.255-0.868,0.512-1.296,0.767c-0.247,0.33-0.498,0.66-0.751,0.991
			c-2.047,2.33-4.096,4.657-7.207,5.624c-3.078,2.923-6.155,5.847-9.232,8.771C1084.895,242.924,1096.168,236.25,1108.19,231.278z"></path>
		<path fill-rule="evenodd" clip-rule="evenodd" class="colour4" fill="#bcbec0" d="M420.297,644.41c-2.217-7.803-5.059-15.378-8.171-22.859
			c-0.422-0.004-0.845-0.007-1.268-0.009c2.636,8.503,5.273,17.006,7.909,25.51C419.277,646.172,419.788,645.292,420.297,644.41z"></path>
		<path fill-rule="evenodd" clip-rule="evenodd" class="colour4" fill="#bcbec0" d="M419.638,650.259c-2.716,6.577,0.435,12.078,3.215,17.646
			c2.05-4.106-0.634-8.057-0.393-12.103C421.519,653.952,420.577,652.103,419.638,650.259z"></path>
		<path fill-rule="evenodd" clip-rule="evenodd" class="colour4" fill="#bcbec0" d="M338.583,393.283c-0.777-0.328-1.226-1.841-2.417-0.668
			c-0.199,2.203-0.398,4.406-0.598,6.609c0.771,0.073,1.542,0.147,2.313,0.222C338.114,397.392,338.348,395.337,338.583,393.283z"></path>
		<path fill-rule="evenodd" clip-rule="evenodd" class="colour4" fill="#bcbec0" d="M428.878,668.552c0.438,3.088,0.987,6.148,3.194,8.592
			C431.401,674.138,430.671,671.154,428.878,668.552z"></path>
		<path fill-rule="evenodd" clip-rule="evenodd" class="colour4" fill="#bcbec0" d="M425.628,659.458c-0.383-2.361-0.8-4.721-2.474-6.625
			c0.03,0.788,0.065,1.587,0.1,2.386C424.606,656.313,423.818,658.606,425.628,659.458z"></path>
		<path fill-rule="evenodd" clip-rule="evenodd" class="colour4" fill="#bcbec0" d="M432.951,679.577c0.118,2.602,0.727,5.036,2.582,7.011
			C435.187,684.066,434.244,681.764,432.951,679.577z"></path>
		<path fill-rule="evenodd" clip-rule="evenodd" class="colour4" fill="#bcbec0" d="M439.104,697.237c-0.099-1.63-0.396-3.19-1.568-4.456
			C437.052,694.612,437.779,696.03,439.104,697.237z"></path>
		<path fill-rule="evenodd" clip-rule="evenodd" class="colour4" fill="#bcbec0" d="M443.866,710.684c-0.372-1.445-0.383-3.03-1.616-4.148
			C441.998,708.221,442.587,709.586,443.866,710.684z"></path>
		<path fill-rule="evenodd" clip-rule="evenodd" class="colour4" fill="#bcbec0" d="M440.738,702.319c-0.252-0.885-0.504-1.771-0.76-2.667
			C439.466,700.752,439.353,701.75,440.738,702.319z"></path>
		<path fill-rule="evenodd" clip-rule="evenodd" class="colour4" fill="#bcbec0" d="M421.099,646.067c0,0-0.424-0.22-0.426-0.228
			c-0.002-0.009-0.098,0.427-0.098,0.427l0.347,0.205L421.099,646.067z"></path>
		<path fill-rule="evenodd" clip-rule="evenodd" class="colour4" fill="#bcbec0" d="M737.031,1046.614c-0.005,0.278,0.052,0.548,0.167,0.804
			c0.821,0.033,1.643,0.068,2.463,0.103C739.021,1046.531,738.073,1046.439,737.031,1046.614z"></path>
		<path fill-rule="evenodd" clip-rule="evenodd" class="colour4" fill="#bcbec0" d="M427.4,664.206c-0.15-0.36-0.299-0.721-0.454-1.09
			c-0.086,0.146-0.274,0.384-0.23,0.442C426.906,663.803,427.166,663.995,427.4,664.206z"></path>
		<path fill-rule="evenodd" clip-rule="evenodd" class="colour4" fill="#bcbec0" d="M422.862,667.956c-0.181,1.357-0.044,2.61,1.156,3.511
			C424.459,670.023,424.107,668.843,422.862,667.956z"></path>
		<path fill-rule="evenodd" clip-rule="evenodd" class="colour4" fill="#bcbec0" d="M445.266,714.553c0.381-0.725,0.121-1.212-0.57-1.544
			C444.199,713.775,444.582,714.219,445.266,714.553z"></path>
		<path fill-rule="evenodd" clip-rule="evenodd" class="colour4" fill="#bcbec0" d="M429.907,688.849c0.225-1.202-0.022-2.232-1.066-2.979
			C428.557,687.092,428.986,688.06,429.907,688.849z"></path>
		<path fill-rule="evenodd" clip-rule="evenodd" class="colour4" fill="#bcbec0" d="M427.576,682.042c0.341-1.357,0.052-2.503-1.107-3.363
			C426.268,679.988,426.476,681.163,427.576,682.042z"></path>
		<path fill-rule="evenodd" clip-rule="evenodd" class="colour4" fill="#bcbec0" d="M426.298,677.458c0.153-1.016-0.216-1.804-1.04-2.396
			C425.082,676.089,425.252,676.964,426.298,677.458z"></path>
		<path fill-rule="evenodd" clip-rule="evenodd" class="colour4" fill="#bcbec0" d="M621.339,831.212c-1.047-0.006-1.581,0.622-1.891,1.528
			C621.463,833.942,621.137,832.25,621.339,831.212z"></path>
		<path fill-rule="evenodd" clip-rule="evenodd" class="colour4" fill="#bcbec0" d="M425.121,673.905c0.163-1.039-0.258-1.813-1.092-2.398
			C423.863,672.548,424.035,673.436,425.121,673.905z"></path>
		<path fill-rule="evenodd" clip-rule="evenodd" class="colour4" fill="#bcbec0" d="M428.615,684.563c0.133-0.975-0.185-1.761-0.98-2.347
			C427.481,683.2,427.703,684.026,428.615,684.563z"></path>
		<path fill-rule="evenodd" clip-rule="evenodd" class="colour4" fill="#bcbec0" d="M663.815,1008.622c-0.064-1.596-1.517-2.177-2.4-3.132
			c-10.559-11.42-22.539-21.36-33.689-32.176c-34.433-33.396-65.672-69.261-92.737-109.035
			c-18.569-27.288-36.405-55.043-53.812-83.013c-11.25-18.077-21.788-36.894-30.132-56.692c-1.146-2.722-2.42-5.366-4.649-7.412
			c-0.56,2.879,1.904,4.598,2.728,6.972c8.329,23.986,19.489,46.769,31.099,69.241c14.872,28.786,31.816,56.397,50.447,82.975
			c20.195,28.807,40.78,57.184,67.618,80.413c17.051,14.761,33.594,30.155,52.099,43.095c4.329,3.027,7.399,8.26,13.388,8.801
			c0.022,0.786,0.439,1.156,1.206,1.157c-0.06,1.95,1.086,2.476,2.806,2.326c-0.507-1.276-1.294-2.221-2.755-2.372
			C665.041,1008.949,664.603,1008.602,663.815,1008.622z"></path>
		<path fill-rule="evenodd" clip-rule="evenodd" class="colour4" fill="#bcbec0" d="M821.393,1069.104c-26.297-2.711-51.611-9.207-75.785-19.988
			c-1.81-0.807-3.578-1.661-5.636-1.416c1.966,2.755,5.68,3.549,7.375,6.602c12.373,5.723,25.534,8.904,38.784,11.627
			c13.669,2.81,27.429,5.193,41.511,4.738C825.475,1070.541,823.563,1069.326,821.393,1069.104z"></path>
		<path fill-rule="evenodd" clip-rule="evenodd" class="colour4" fill="#bcbec0" d="M828.788,1070.631c-0.383,0.017-0.765,0.022-1.146,0.035
			C828.016,1070.688,828.396,1070.686,828.788,1070.631z"></path>
		<path fill-rule="evenodd" clip-rule="evenodd" class="colour4" fill="#bcbec0" d="M851.006,1101.974c-8.95-2.125-17.901-4.249-26.853-6.374
			c6.737,6.088,14.756,8.997,23.39,10.507c-2.674-2.635-7.381-1.535-10.051-5.261
			C842.446,1099.986,846.561,1103.08,851.006,1101.974z"></path>
		<path fill-rule="evenodd" clip-rule="evenodd" class="colour4" fill="#bcbec0" d="M896.767,1117.998c-0.623,0.748-1.246,1.498-1.879,2.246
			c6.523,2.2,13.368-0.231,19.969,1.338c1.615,0.384,3.397,0.058,5.102,0.058C912.16,1119.737,904.65,1117.234,896.767,1117.998z"></path>
		<path fill-rule="evenodd" clip-rule="evenodd" class="colour4" fill="#bcbec0" d="M969.148,1094.682c-7.769,0.396-15.194,2.435-22.572,4.725
			C954.279,1098.712,961.796,1097.09,969.148,1094.682z"></path>
		<path fill-rule="evenodd" clip-rule="evenodd" class="colour4" fill="#bcbec0" d="M430.469,1048.29c0.529-0.031,1.057-0.062,1.588-0.084
			c-0.626-4.919-2.501-9.481-4.305-14.085C428.657,1038.845,429.563,1043.566,430.469,1048.29z"></path>
		<path fill-rule="evenodd" clip-rule="evenodd" class="colour4" fill="#bcbec0" d="M446.994,1135.871c0.506-0.449,1.013-0.898,1.522-1.342
			c-1.301-3.391-3.738-5.979-6.626-9.724C443.279,1129.544,444.859,1132.837,446.994,1135.871z"></path>
		<path fill-rule="evenodd" clip-rule="evenodd" class="colour4" fill="#bcbec0" d="M527.543,1055.307c-1.025-2.979-3.107-4.84-6.479-6.429
			c0.606,3.764,2.703,5.679,4.743,7.64C526.389,1056.118,526.966,1055.712,527.543,1055.307z"></path>
		<path fill-rule="evenodd" clip-rule="evenodd" class="colour4" fill="#bcbec0" d="M990.773,1088.513c-3.858,0.688-7.741,1.283-11.266,3.183
			C983.472,1091.391,987.482,1091.229,990.773,1088.513z"></path>
		<path fill-rule="evenodd" clip-rule="evenodd" class="colour4" fill="#bcbec0" d="M798.987,1209.287c-3.241-0.521-6.482-1.042-9.732-1.568
			C792.231,1209.864,795.536,1210.027,798.987,1209.287z"></path>
		<path fill-rule="evenodd" clip-rule="evenodd" class="colour4" fill="#bcbec0" d="M765.735,1201.707c2.148,1.991,4.918,1.715,7.527,2.036
			C771.057,1201.956,768.449,1201.653,765.735,1201.707z"></path>
		<path fill-rule="evenodd" clip-rule="evenodd" class="colour4" fill="#bcbec0" d="M911.182,1102.91c-2.033-0.901-4.028-1.247-5.896,0.404
			C907.304,1104.043,909.291,1104.183,911.182,1102.91z"></path>
		<path fill-rule="evenodd" clip-rule="evenodd" class="colour4" fill="#bcbec0" d="M860.536,1109.893c2.165,1.697,4.731,1.933,7.347,2.025
			C865.661,1110.443,863.225,1109.713,860.536,1109.893z"></path>
		<path fill-rule="evenodd" clip-rule="evenodd" class="colour4" fill="#bcbec0" d="M873.211,1113.356c1.373,2.115,3.138,1.54,4.947,0.721
			C876.673,1112.75,874.922,1113.193,873.211,1113.356z"></path>
		<path fill-rule="evenodd" clip-rule="evenodd" class="colour4" fill="#bcbec0" d="M880.564,1104.087c-1.561-1.131-3.146-1.023-4.757-0.098
			C877.358,1105.503,878.954,1105.134,880.564,1104.087z"></path>
		<path fill-rule="evenodd" clip-rule="evenodd" class="colour4" fill="#bcbec0" d="M920.623,1102.119c1.634,0.696,3.238,0.848,4.751-0.33
			C923.709,1100.694,922.107,1100.497,920.623,1102.119z"></path>
		<path fill-rule="evenodd" clip-rule="evenodd" class="colour4" fill="#bcbec0" d="M813.318,1211.424c1.527,0.922,3.1,1.543,4.849,0.527
			C816.729,1210.158,815.047,1210.622,813.318,1211.424z"></path>
		<path fill-rule="evenodd" clip-rule="evenodd" class="colour4" fill="#bcbec0" d="M853.518,1214.869c1.501,1.097,3.081,1.556,4.826,0.534
			C856.896,1213.808,855.222,1214.251,853.518,1214.869z"></path>
		<path fill-rule="evenodd" clip-rule="evenodd" class="colour4" fill="#bcbec0" d="M893.507,1104.187c1.204,1.015,2.39,1.089,3.538-0.104
			C895.836,1103.032,894.657,1102.979,893.507,1104.187z"></path>
		<path fill-rule="evenodd" clip-rule="evenodd" class="colour4" fill="#bcbec0" d="M862.765,1103.113c1.134,1.159,2.433,1.071,3.794,0.473
			C865.528,1101.572,864.2,1101.949,862.765,1103.113z"></path>
		<path fill-rule="evenodd" clip-rule="evenodd" class="colour4" fill="#bcbec0" d="M939.323,1099.799c1.368,0.652,2.682,0.75,3.855-0.421
			C941.772,1098.385,940.456,1098.206,939.323,1099.799z"></path>
		<path fill-rule="evenodd" clip-rule="evenodd" class="colour4" fill="#bcbec0" d="M653.117,1220.552c0.824,0.946,1.103,1.502,1.55,1.73
			c1.009,0.515,2.096,0.877,3.153,1.298C657.254,1221.455,655.821,1220.669,653.117,1220.552z"></path>
		<path fill-rule="evenodd" clip-rule="evenodd" class="colour4" fill="#bcbec0" d="M750.303,1198.275c0.924,1.456,2.247,1.235,3.611,0.84
			C752.744,1198.706,751.745,1197.559,750.303,1198.275z"></path>
		<path fill-rule="evenodd" clip-rule="evenodd" class="colour4" fill="#bcbec0" d="M743.804,1196.648c0.938,0.86,1.871,1.781,3.295,0.896
			C746.297,1196.17,745.006,1196.596,743.804,1196.648z"></path>
		<path fill-rule="evenodd" clip-rule="evenodd" class="colour4" fill="#bcbec0" d="M845.216,1213.716c0.74,0.678,1.499,1.309,2.548,0.522
			C847.104,1213.156,846.287,1212.84,845.216,1213.716z"></path>
		<path fill-rule="evenodd" clip-rule="evenodd" class="colour4" fill="#bcbec0" d="M784.283,1206.676c0.488,0.717,1.042,1.093,1.798,0.311
			C785.622,1206.075,785.003,1206.103,784.283,1206.676z"></path>
		<path fill-rule="evenodd" clip-rule="evenodd" class="colour4" fill="#bcbec0" d="M808.39,1210.393c0.354,0.863,0.882,1.001,1.587,0.364
			C809.613,1209.923,809.173,1209.428,808.39,1210.393z"></path>
		<path fill-rule="evenodd" clip-rule="evenodd" class="colour4" fill="#bcbec0" d="M830.804,1212.743c0.302,0.847,0.752,1.113,1.451,0.354
			C831.974,1212.164,831.526,1211.902,830.804,1212.743z"></path>
		<path fill-rule="evenodd" clip-rule="evenodd" class="colour4" fill="#bcbec0" d="M872.063,1103.839c-0.673-0.72-1.345-0.694-2.026,0.002
			C870.705,1103.84,871.385,1103.84,872.063,1103.839z"></path>
		<path fill-rule="evenodd" clip-rule="evenodd" class="colour4" fill="#bcbec0" d="M874.335,1216.889c-0.648,0.009-1.298,0.018-1.959,0.025
			C873.028,1217.484,873.686,1217.504,874.335,1216.889z"></path>
		<path fill-rule="evenodd" clip-rule="evenodd" class="colour4" fill="#bcbec0" d="M973.935,1092.85c0.337,0.395,0.606,0.421,0.755-0.152
			C974.387,1092.544,974.139,1092.594,973.935,1092.85z"></path>
		<path fill-rule="evenodd" clip-rule="evenodd" class="colour4" fill="#bcbec0" d="M556.251,1032.193c0.007,0.035,0.014,0.069,0.021,0.104
			l0.04-0.04C556.291,1032.236,556.271,1032.215,556.251,1032.193z"></path>
		<path fill-rule="evenodd" clip-rule="evenodd" class="colour4" fill="#bcbec0" d="M555.532,1031.422c0.24,0.257,0.479,0.515,0.719,0.771
			c-0.069-0.348-0.138-0.694-0.207-1.041C555.874,1031.242,555.703,1031.332,555.532,1031.422z"></path>
		<path fill-rule="evenodd" clip-rule="evenodd" class="colour4" fill="#bcbec0" d="M855.871,1108.757l0.449,0.192c0,0,0.455-0.185,0.464-0.185
			C856.492,1108.187,856.184,1108.278,855.871,1108.757z"></path>
		<path fill-rule="evenodd" clip-rule="evenodd" class="colour4" fill="#bcbec0" d="M862.188,1216.085l0.47-0.277
			c-0.302-0.007-0.605-0.013-0.918-0.02C861.731,1215.788,862.188,1216.085,862.188,1216.085z"></path>
		<path fill-rule="evenodd" clip-rule="evenodd" class="colour4" fill="#bcbec0" d="M658.696,1224.29c0.079,0.053,0.275-0.068,0.417-0.109
			c-0.371-0.156-0.74-0.312-1.11-0.467C658.228,1223.916,658.449,1224.123,658.696,1224.29z"></path>
		<path fill-rule="evenodd" clip-rule="evenodd" class="colour4" fill="#bcbec0" d="M657.878,1223.603c-0.019-0.008-0.039-0.015-0.058-0.022
			c0.006,0.023,0.016,0.042,0.021,0.065c0.054,0.022,0.108,0.046,0.162,0.068C657.962,1223.676,657.92,1223.639,657.878,1223.603
			L657.878,1223.603z"></path>
		<path fill-rule="evenodd" clip-rule="evenodd" class="colour4" fill="#bcbec0" d="M930.135,1101.052c0,0-0.06-0.02-0.061-0.019
			C930.071,1101.033,930.135,1101.052,930.135,1101.052z"></path>
		<path fill-rule="evenodd" clip-rule="evenodd" class="colour4" fill="#bcbec0" d="M881.955,1114.387c0.006,0.002-0.255-0.038-0.255-0.038
			l0.092,0.211C881.792,1114.56,881.951,1114.385,881.955,1114.387z"></path>
		<polygon fill-rule="evenodd" clip-rule="evenodd" class="colour4" fill="#bcbec0" points="776.523,1204.568 776.62,1204.576 776.587,1204.23 		"></polygon>
		<path fill-rule="evenodd" clip-rule="evenodd" class="colour4" fill="#bcbec0" d="M556.312,1032.258c0,0-0.04,0.04-0.04,0.04
			c0.142,0.071,0.284,0.143,0.425,0.215C556.568,1032.427,556.44,1032.342,556.312,1032.258z"></path>
		<polygon fill-rule="evenodd" clip-rule="evenodd" class="colour4" fill="#bcbec0" points="936.006,1100.533 936.067,1100.523 936.018,1100.236 		
			"></polygon>
		<path fill-rule="evenodd" clip-rule="evenodd" class="colour4" fill="#bcbec0" d="M758.704,1200.74l0.18-0.156c0,0-0.235-0.066-0.241-0.068
			C758.638,1200.514,758.704,1200.74,758.704,1200.74z"></path>
		<path fill-rule="evenodd" clip-rule="evenodd" class="colour4" fill="#bcbec0" d="M967.021,333.78c0.88,0.477,1.762,0.949,2.646,1.421
			c5.037-4.218,8.44-9.563,11.04-15.482C975.266,323.628,971.003,328.566,967.021,333.78z"></path>
		<path fill-rule="evenodd" clip-rule="evenodd" class="colour4" fill="#bcbec0" d="M936.794,375.593c-4.788,3.579-8.5,8.095-11.37,13.435
			c5.231-3.486,10.626-6.712,14.377-11.957C938.59,377.001,937.497,376.692,936.794,375.593z"></path>
		<path fill-rule="evenodd" clip-rule="evenodd" class="colour4" fill="#bcbec0" d="M1040.892,287.842c4.539-2.193,7.117-5.91,9.212-11.668
			c-4.447,3.279-7.994,5.589-10.689,8.951C1039.904,286.033,1040.398,286.937,1040.892,287.842z"></path>
		<path fill-rule="evenodd" clip-rule="evenodd" class="colour4" fill="#bcbec0" d="M1060.874,367.062c0.382,0.869,1.091,1.239,1.994,1.312
			c1.759-1.358,3.699-2.614,3.51-5.552C1062.755,364.415,1062.755,364.415,1060.874,367.062z"></path>
		<path fill-rule="evenodd" clip-rule="evenodd" class="colour4" fill="#bcbec0" d="M959.381,341.034c1.184,0.049,1.77-0.527,1.771-1.711
			C960.002,339.311,959.336,339.8,959.381,341.034z"></path>
		<path fill-rule="evenodd" clip-rule="evenodd" class="colour4" fill="#bcbec0" d="M1068.289,361.905c0.172-0.145,0.344-0.29,0.515-0.435
			c-0.129,0.032-0.26,0.06-0.367,0.126C1068.354,361.647,1068.336,361.799,1068.289,361.905z"></path>
		<path fill-rule="evenodd" clip-rule="evenodd" class="colour4" fill="#bcbec0" d="M1068.804,361.471c0.036-0.009,0.073-0.017,0.108-0.027
			l-0.035-0.034C1068.853,361.43,1068.828,361.45,1068.804,361.471z"></path>
		<polygon fill-rule="evenodd" clip-rule="evenodd" class="colour4" fill="#bcbec0" points="1068.912,361.443 1069.164,361.112 1068.877,361.409 		
			"></polygon>
		<polygon fill-rule="evenodd" clip-rule="evenodd" class="colour4" fill="#bcbec0" points="958.234,341.702 958.105,342.177 958.58,342.063 
			958.707,341.6 		"></polygon>
		<path fill-rule="evenodd" clip-rule="evenodd" class="colour4" fill="#bcbec0" d="M933,308.311c0.035-0.003,0.072-0.006,0.104-0.013
			c0.003-0.022,0.009-0.041,0.012-0.063c-0.024,0-0.046,0.003-0.07,0.002C933.029,308.262,933.015,308.287,933,308.311z"></path>
		<path fill-rule="evenodd" clip-rule="evenodd" class="colour4" fill="#bcbec0" d="M932.574,309.002c0.143-0.231,0.283-0.461,0.426-0.691
			C932.603,308.35,932.021,308.249,932.574,309.002z"></path>
		<polygon fill-rule="evenodd" clip-rule="evenodd" class="colour4" fill="#bcbec0" points="969.96,438.678 970.317,438.922 970.364,438.518 		"></polygon>
		<path fill-rule="evenodd" clip-rule="evenodd" class="colour4" fill="#bcbec0" d="M424.437,1133.958c0.519-0.108,1.038-0.217,1.557-0.324
			c-1.643-6.966-3.287-13.933-4.93-20.897C421.272,1120,421.939,1127.169,424.437,1133.958z"></path>
		<path fill-rule="evenodd" clip-rule="evenodd" class="colour4" fill="#bcbec0" d="M923.272,390.753c0.001-0.041-0.2-0.09-0.308-0.136
			c-0.047,0.142-0.122,0.283-0.124,0.426c-0.001,0.044,0.194,0.091,0.301,0.137C923.19,391.038,923.267,390.897,923.272,390.753z"></path>
	</g>
</g>
</svg>