<svg version="1.1" id="Layer_1___al6Lx2Q7" xmlns="http://www.w3.org/2000/svg" xmlns:xlink="http://www.w3.org/1999/xlink" x="0px" y="0px" width="1417.32px" height="1417.32px" viewBox="0 0 1417.32 1417.32" enable-background="new 0 0 1417.32 1417.32" xml:space="preserve">
<g>
	<path fill-rule="evenodd" clip-rule="evenodd" class="colour1" fill="#009FDA" d="M1053.662,618.357c-3.558,6.453-4.97,13.59-6.29,20.696
		c-3.544,19.046-11.548,36.628-17.748,54.797c-8.368,24.527-13.122,49.384-13.107,75.591c0.012,21.902-3.336,43.838-5.715,65.702
		c-2.572,23.639-5.429,47.262-6.351,71.02c-1.169,30.063-4.67,59.956-5.96,89.999c-1.476,34.355,1.389,68.443,9.276,101.842
		c8.462,35.828,11.568,71.98,11.862,108.683c0.212,26.514,2.626,53.004,3.85,79.515c0.563,12.155,1.435,24.331-0.603,36.482
		c-1.675,9.986-5.89,18.013-14.779,23.618c-11.848,7.47-25.125,10.882-38.289,14.789c-32.257,9.573-65.067,16.431-98.59,19.398
		c-40.588,3.594-81.27,5.007-122.018,3.829c-30.089-0.868-59.934-4.451-89.797-7.941c-25.357-2.963-50.799-5.943-75.538-11.99
		c-34.891-8.529-68.573-21.157-101.981-34.365c-4.733-1.871-9.577-3.463-14.367-5.183c-10.766-5.219-21.526-10.46-32.312-15.648
		c-2.386-1.147-4.375-2.104-3.847-5.57c3.439-22.597,2.98-45.455,4.282-68.196c1.482-25.9,0.842-51.865,2.123-77.793
		c1.263-25.538,1.545-51.321,8.045-76.064c14.528-55.307,14.08-111.228,9.323-167.444c-2.053-24.265-6.351-48.399-7.268-72.683
		c-0.98-25.933-1.02-51.787-6.054-77.415c-2.837-14.442-1.392-29.473-4.462-43.934c-6.401-30.143-13.126-60.216-19.664-90.33
		c-0.473-2.175-1.785-4.517,0.335-6.613c2.065,0.856,2.916-0.22,3.2-2.068c2.684-17.428,8.191-34.331,8.891-52.167
		c0.395-10.078,1.865-19.987,5.301-29.891c3.717-10.715,8.78-21.576,7.513-33.563c-0.257-2.438,1.501-3.466,2.841-4.809
		c7.646-7.663,14.9-15.639,20.922-24.692c21.349-32.09,35.898-67.34,48.143-103.642c19.933-59.091,46.725-114.877,77.716-169.004
		c27.572-48.157,61.535-90.927,99.916-130.554c11.147-1.375,22.364-1.282,33.472-0.145c26.711,2.733,53.315,6.233,80.268,6.398
		c15.43,0.094,31.361-2.304,45.994,5.351c7.098,7.04,14.656,13.681,21.171,21.225c7.3,8.455,15.623,15.441,25.017,21.296
		c19.036,11.865,37.141,24.95,54.303,39.452c19.947,16.857,39.267,34.492,60.671,49.604c8.203,5.792,15.299,12.964,21.172,21.193
		c7.162,10.035,15.806,18.458,26.16,25.204c6.256,4.075,12.218,8.561,16.871,14.572c12.869,16.623,25.447,33.391,35.778,51.819
		c15.838,28.254,27.207,57.385,23.01,90.729c-2.036,16.169-6.164,31.445-14.355,45.671c-4.392,7.629-10.932,13.622-14.352,22.096
		c-9.62,23.837-19.571,47.573-30.405,70.879C1068.106,577.738,1060.182,597.748,1053.662,618.357z"></path>
	<path fill-rule="evenodd" clip-rule="evenodd" class="colour1" fill="#009FDA" d="M1053.662,618.357c6.52-20.609,14.444-40.619,23.574-60.253
		c10.834-23.306,20.785-47.042,30.405-70.879c3.42-8.474,9.96-14.467,14.352-22.096c8.191-14.226,12.319-29.502,14.355-45.671
		c4.197-33.344-7.172-62.475-23.01-90.729c-10.331-18.428-22.909-35.196-35.778-51.819c-4.653-6.011-10.615-10.497-16.871-14.572
		c-10.354-6.745-18.998-15.168-26.16-25.204c-5.873-8.229-12.969-15.401-21.172-21.193c-21.404-15.112-40.724-32.747-60.671-49.604
		c-17.162-14.502-35.267-27.587-54.303-39.452c-9.394-5.855-17.717-12.842-25.017-21.296c-6.515-7.544-14.073-14.185-21.158-21.217
		c2.913,1.072,5.813,2.137,8.713,3.202c38.782,29.411,84.142,46.595,127.035,68.366c22.042,11.187,46.197,17.932,67.39,30.665
		c27.372,16.448,55.66,31.375,80.734,51.695c30.546,24.752,51.179,55.63,65.382,91.948c13.24,33.857,17.641,68.722,15.158,104.482
		c-1.636,23.558,0.914,45.944,9.06,68.175c6.515,17.782,10.089,36.562,15.792,54.68c1.517,4.82,0.415,9.97-4.058,14.301
		c-17.386,16.833-38.993,25.015-61.562,31.733c-26.006,7.74-52.434,13.261-79.396,16.009c-11.934,1.216-23.965,0.987-35.829-1.36
		C1058.266,617.8,1055.977,617.537,1053.662,618.357z"></path>
	<path fill-rule="evenodd" clip-rule="evenodd" class="colour1" fill="#009FDA" d="M375.39,621.487c7.964-0.465,15.956-0.013,23.907-1.28
		c6.454-1.029,12.68,0.706,18.726,2.943c-2.123,2.094-0.811,4.436-0.338,6.611c6.538,30.113,13.263,60.187,19.664,90.33
		c3.071,14.461,1.625,29.491,4.462,43.934c5.034,25.628,5.073,51.482,6.054,77.415c0.917,24.283,5.215,48.418,7.268,72.683
		c4.756,56.217,5.205,112.138-9.323,167.444c-6.5,24.743-6.782,50.526-8.045,76.064c-1.281,25.928-0.641,51.893-2.123,77.793
		c-1.302,22.741-0.842,45.6-4.282,68.196c-0.528,3.466,1.46,4.423,3.847,5.57c10.785,5.188,21.545,10.43,32.312,15.648
		c-21.268-0.363-42.181-3.112-62.657-9.014c-3.287-0.947-3.911-2.433-3.521-5.868c2.902-25.555,4.233-51.206,5.319-76.911
		c1.142-27.024,2.12-54.133,5.704-80.986c2.718-20.38,6.32-40.642,9.554-60.952c4.615-28.985,11.53-57.566,11.963-87.244
		c0.244-16.798,2.956-33.668,2.799-50.496c-0.199-21.349-2.285-42.664-5.184-63.858c-0.345-2.522-0.436-5.108-0.358-7.656
		c0.494-15.97-0.761-31.721-4.677-47.29c-3.552-14.116-4.368-28.627-5.393-43.108c-1.226-17.323-6.24-33.892-11.244-50.396
		c-5.472-18.047-8.781-36.579-12.958-54.918c-4.626-20.314-10.254-40.312-19.4-59.153
		C376.614,625.231,376.075,623.324,375.39,621.487z"></path>
	<path fill-rule="evenodd" clip-rule="evenodd" class="colour2" fill="#262262" d="M860.922,87.574c-2.899-1.065-5.8-2.13-8.713-3.202
		c-14.646-7.663-30.577-5.265-46.007-5.359c-26.952-0.165-53.557-3.665-80.268-6.398c-11.107-1.137-22.324-1.229-33.472,0.145
		c-9.175-0.1-18.16,1.537-27.101,3.292c-10.551,2.071-21.191,3.252-31.874,4.389c-13.911,1.48-25.861,8.57-38.116,14.638
		c-1.905,0.943-3.237,3.73-6.005,1.828c17.943-17.225,38.668-29.409,62.577-36.806c36.096-11.168,72.978-14.343,110.415-12.627
		c20.144,0.923,40.27,2.583,59.624,9.074c4.898,1.643,9.145,4.072,13.039,7.553c8.034,7.184,15.51,15.03,24.449,21.178
		C860.213,85.788,861.145,86.367,860.922,87.574z"></path>
	<path fill-rule="evenodd" clip-rule="evenodd" class="colour1" fill="#009FDA" d="M665.362,76.052c-10.551,2.071-21.191,3.252-31.874,4.389
		c-13.911,1.48-25.861,8.57-38.116,14.638c-1.905,0.943-3.237,3.73-6.005,1.828c-3.91,5.405-10.303,6.763-15.741,9.688
		c-29.731,16-60.569,29.437-92.822,39.447c-17.567,5.452-35.588,9.511-52.973,15.458c-25.676,8.783-48.912,23.014-73.235,34.813
		c-14.41,6.99-26.921,16.769-37.459,29.078c-10.122,11.824-19.138,24.393-27.703,37.357c-18.763,28.4-29.872,60-36.641,92.891
		c-5.9,28.668-6.368,58.123-6.983,87.37c-0.239,11.339-2.618,21.619-8.464,31.315c-12.094,20.057-22.181,40.925-26.733,64.219
		c-1.553,7.95-0.154,14.063,5.528,19.753c7.954,7.965,16.408,15.297,25.853,21.373c29.349,18.879,62.429,28.849,95.295,39.169
		c12.335,3.874,25.387,1.842,38.101,2.65c7.964-0.465,15.956-0.013,23.907-1.28c6.454-1.029,12.68,0.706,18.726,2.943
		c2.063,0.855,2.914-0.222,3.198-2.069c2.684-17.428,8.191-34.331,8.891-52.167c0.395-10.078,1.865-19.987,5.301-29.891
		c3.717-10.715,8.78-21.576,7.513-33.563c-0.257-2.438,1.501-3.466,2.841-4.809c7.646-7.663,14.9-15.639,20.922-24.692
		c21.349-32.09,35.898-67.34,48.143-103.642c19.933-59.091,46.725-114.877,77.716-169.004
		c27.572-48.157,61.535-90.927,99.92-130.557C683.288,72.66,674.303,74.297,665.362,76.052z"></path>
	<g>
		<path fill-rule="evenodd" clip-rule="evenodd" class="colour3" fill="#d71920" d="M639.972,1138.899c7.594,1.896,13.079,7.323,19.386,11.382
			c6.427,4.134,13.034,7.991,19.621,11.871c6.597,3.887,13.289,7.61,19.897,11.478c6.557,3.836,12.993,7.884,19.611,11.609
			c6.34,3.568,12.845,6.843,19.277,10.246c0.445-0.693,0.891-1.387,1.337-2.078c-64.727-38.223-117.364-89.103-159.265-151.115
			c0.925-0.622,1.404,0.666,2.006,1.211c16.509,14.942,33.023,29.881,49.414,44.952c1.624,1.494,2.931,3.001,5.278,2.813
			c-7-9.676-15.815-17.768-23.631-26.733c-29.148-33.438-52.232-70.774-72.407-110.031c-7.97-15.511-14.315-31.766-20.988-47.892
			c-16.686-40.331-31.649-81.22-45.29-122.682c-11.828-35.952-21.316-72.801-38.333-106.92c-4.156-8.333-7.545-17.057-13.023-26.182
			c-1.282,5.057-0.584,8.87-0.384,12.646c1.738,32.79,3.563,65.566,0.933,98.411c-1.435,17.912-0.358,35.729,2.713,53.485
			c2.102,12.157,5.029,24.284,4.114,36.805c1.192,6.189,1.016,12.459,0.817,18.693c-0.59,18.488,2.596,36.713,4.228,55.005
			c1.698,19.04,1.462,37.938,0.249,56.861c-1.139,17.761-2.929,35.479-3.059,53.297c0.738-2,1.628-3.959,2.192-6.006
			c8.395-30.48,13.397-61.766,22.006-92.173c1.218,0.72,1.324,2.159,1.617,3.474c3.875,17.336,9.641,34.053,16.616,50.361
			c10.042,23.481,19.489,47.22,31.235,69.955c15.444,29.898,37.711,53.905,63.167,75.452c15.182,12.85,30.604,25.273,47.688,35.486
			c5.759,3.443,11.197,7.608,17.892,9.468c-21.647-21.215-43.7-41.877-61.452-66.575c33.815,36.318,72.395,66.892,114.483,92.677
			c42.162,25.831,87.038,46.219,134.748,59.765c-31.858-19.774-64.674-37.753-95.485-59.141
			C696.484,1187.468,667.628,1163.996,639.972,1138.899z"></path>
		<path fill-rule="evenodd" clip-rule="evenodd" class="colour3" fill="#d71920" d="M636.681,1091.265c-0.051,0.006-0.095-0.001-0.146,0.003
			c0.019,0.027,0.04,0.053,0.06,0.079L636.681,1091.265z"></path>
		<path fill-rule="evenodd" clip-rule="evenodd" class="colour3" fill="#d71920" d="M1021.61,1248.437c-0.774-16.802-2.267-33.562-2.335-50.406
			c-0.039-9.552,0.859-19.147-0.705-28.669c-1.813,1.805-4.134,0.729-6.181,0.967c-32.21,3.746-62.298-2.891-90.598-18.511
			c-3.75-2.069-7.28-5.201-11.994-4.706c6.219,6.032,13.443,10.961,20.661,15.705c20.92,13.752,44.584,21.055,68.4,27.923
			c6.667,1.921,14.213,2.481,18.969,9.05c-18.099-0.325-34.76-5.938-51.813-9.755c-22.864-5.119-43.319-15.516-63.463-26.798
			c-20.967-11.743-41.74-23.829-62.739-35.514c-26.358-14.668-50.852-32.017-74.507-50.654
			c-7.015-5.526-12.683-12.771-21.039-16.586l-0.216,0.202c-0.248,1.392,0.774,2.034,1.564,2.92
			c15.215,17.064,32.641,31.776,50.25,46.182c20.309,16.612,42.367,30.882,63.913,45.839c14.75,10.24,29.73,20.132,44.579,30.217
			c4.737,3.217,9.446,6.499,14.908,8.864c5.411,2.341,11.117,4.32,16.214,7.24c11.758,6.734,24.359,11.191,37.158,15.272l0.159-0.19
			c0,0,0.063,0.229,0.058,0.228c0.357,0.158,0.72,0.318,1.082,0.479c2.245-0.257,4.096,0.908,6.902,1.934
			c-2.96,0.363-5.066,0.658-7.144-0.361c-2.935-0.185-6.029,0.159-8.79-0.644c-18.232-5.299-36.618-9.871-54.056-17.938
			c-16.012-7.409-31.07-16.313-46.255-25.107c-14.361-8.32-27.652-18.372-42.455-26.019c21.744,16.831,41.976,35.646,65.741,49.814
			c8.5,5.067,16.649,10.907,25.604,14.971c8.503,3.857,17.396,7.163,25.946,10.868c15.714,6.808,32.083,11.317,48.168,16.833
			c11.646,3.993,23.657,7.418,33.673,15.14C1021.398,1254.295,1021.744,1251.354,1021.61,1248.437z"></path>
		<path fill-rule="evenodd" clip-rule="evenodd" class="colour3" fill="#d71920" d="M1014.307,1131.881c-0.268-8.979-3.188-17.467-4.864-26.185
			c-4.614,0.515-8.031-2.761-12.169-3.871c-25.011-6.712-49.18-15.557-71.25-29.428l-0.002,0.022
			c2.429,2.236,4.79,4.554,7.298,6.698C958.01,1100.241,988.117,1113.054,1014.307,1131.881z"></path>
	</g>
	<g>
		<path fill-rule="evenodd" clip-rule="evenodd" class="colour2" fill="#262262" d="M1021.273,1257.227c-10.016-7.723-22.026-11.147-33.673-15.141
			c-16.085-5.516-32.454-10.025-48.168-16.833c-8.551-3.705-17.443-7.011-25.946-10.868c-8.955-4.063-17.104-9.903-25.604-14.971
			c-23.766-14.169-43.997-32.983-65.741-49.814c14.803,7.646,28.094,17.698,42.455,26.019c15.185,8.795,30.243,17.698,46.255,25.107
			c17.438,8.066,35.823,12.639,54.056,17.938c2.761,0.803,5.855,0.459,8.796,0.645c0.078-0.524,0.157-1.048,0.235-1.573
			c-0.362-0.16-0.725-0.32-1.087-0.479l-0.212-0.036c-12.799-4.081-25.4-8.538-37.158-15.272c-5.097-2.92-10.803-4.899-16.214-7.24
			c-5.462-2.365-10.171-5.647-14.908-8.864c-14.849-10.085-29.829-19.977-44.579-30.217c-21.546-14.957-43.604-29.227-63.913-45.839
			c-17.609-14.405-35.035-29.117-50.25-46.182c-0.79-0.886-1.813-1.528-1.564-2.92c-0.815-0.021-1.099-0.495-1.084-1.225
			c-0.022,0.009-0.041,0.011-0.064,0.021c0.008-0.028,0.009-0.05,0.016-0.076c-0.741-0.012-1.115-0.379-1.11-1.112
			c-0.034,0.007-0.064,0.009-0.1,0.017c-0.001-0.037-0.002-0.074-0.002-0.111c-0.497-0.063-0.995-0.126-1.492-0.189
			c-4.663-4.407-9.326-8.814-13.989-13.222c0.531-0.569,1.063-1.138,1.595-1.706c4.616,4.467,9.232,8.936,13.849,13.403
			c0.013,0.571,0.024,1.143,0.038,1.714c0.031,0.004,0.063,0.008,0.094,0.012c-0.002,0.031,0.008,0.053,0.008,0.083
			c0.905-0.175,1.355,0.113,1.11,1.112c0.017,0,0.027,0.006,0.045,0.006c-0.001,0.019,0.004,0.031,0.004,0.05
			c0.953-0.362,1.263,0.146,1.297,1.024c8.359,3.813,14.027,11.058,21.042,16.584c23.655,18.638,48.148,35.986,74.507,50.654
			c20.999,11.685,41.772,23.771,62.739,35.514c20.144,11.282,40.599,21.679,63.463,26.798c17.053,3.816,33.714,9.43,51.813,9.755
			c-4.756-6.568-12.302-7.129-18.969-9.05c-23.816-6.868-47.48-14.171-68.4-27.923c-7.218-4.744-14.442-9.673-20.661-15.705
			c4.714-0.495,8.244,2.637,11.994,4.706c28.3,15.62,58.388,22.257,90.598,18.511c2.047-0.237,4.368,0.838,6.181-0.967
			c-0.83-4.344,0.26-8.863-1.199-13.149c-30.523-7.263-59.304-19.001-86.918-33.765c-3.831-2.048-7.617-4.077-10.626-7.299
			c-1.502-1.609-3.328-3.329-5.415-3.364c-6.324-0.107-10.448-4.482-14.912-7.676c-17.657-12.627-34.945-25.77-52.413-38.663
			c-12.801-9.449-24.855-19.8-36.77-30.315c-16.171-14.272-32.014-28.924-46.866-44.562c-18.788-19.781-35.66-41.122-52.041-62.986
			c-17.35-23.157-33.005-47.354-48.194-71.855c-23.578-38.038-42.36-78.457-57-120.774c-0.612-1.771-0.771-3.769-2.905-5.618
			c0.957,14.965,4.621,28.804,7.749,42.728c8.131,36.208,24.298,69.105,41.733,101.509c9.874,18.349,19.576,36.813,31.434,53.962
			c18.194,26.311,36.602,52.541,59.418,75.166c9.347,9.269,19.114,18.129,28.278,27.596c1.308,1.351,3.209,2.308,3.695,5.617
			c-4.021-3.257-7.53-5.803-10.697-8.72c-13.423-12.364-27.209-24.383-39.962-37.408c-11.316-11.56-21.352-24.343-31.356-37.112
			c-6.408-8.178-12.658-16.467-18.863-24.791c-2.099-2.817-3.748-5.971-5.602-8.97l-0.063-0.302c-0.363-0.5-0.726-1-1.088-1.5
			c-1.015-1.399-2.03-2.799-3.045-4.198l0.097,0.117c-9.561-12.591-17.297-26.295-24.597-40.265
			c-0.468-0.834-0.936-1.669-1.404-2.503c-0.694-0.048-0.924-0.375-0.618-1.025c-0.327-0.647-0.654-1.296-0.981-1.943
			c-1.211-0.561-1.662-1.566-1.662-2.835c0,0-0.205-0.288-0.205-0.288c-0.684,0.024-0.891-0.227-0.48-0.833
			c-0.629-1.189-1.26-2.38-1.89-3.571c-2.813-3.06-4.625-6.666-5.794-10.621c0.001,0-0.136-0.23-0.136-0.23
			c-0.229-0.168-0.469-0.324-0.67-0.521c-0.027-0.026,0.146-0.259,0.228-0.396c-0.391-0.683-0.781-1.367-1.171-2.051
			c-2.902-4.08-5.513-8.302-6.506-13.313c-0.283-0.598-0.566-1.196-0.85-1.794c-1.699-1.379-2.391-3.228-2.5-5.349
			c-0.529-1.203-1.059-2.407-1.588-3.611c-7.264-12.103-11.558-25.328-14.725-38.979c-0.178-0.438-0.357-0.878-0.536-1.317
			c-3.74-6.973-5.521-14.496-6.274-22.308c-0.198-0.771-0.395-1.543-0.593-2.315c-3.773-13.626-7.077-27.355-9.054-41.375
			c-0.143-0.77-0.287-1.541-0.43-2.313c-2.624-6.419-3.759-13.183-4.622-20.008c-0.101-0.8-0.202-1.602-0.302-2.402
			c-0.785-0.634-1.146-1.404-0.779-2.409c-0.145-0.773-0.29-1.547-0.434-2.32c-1.172-2.194-2.037-4.453-1.474-7.011
			c-0.11-0.629-0.22-1.259-0.331-1.889c-1.259-1.104-1.614-2.449-1.069-4.031c-0.126-0.821-0.253-1.643-0.38-2.466
			c-1.888-3.291-1.92-7.007-2.424-10.613c-0.14-0.266-0.303-0.517-0.493-0.751c-3.458-7.392-3.018-15.514-4.055-23.314
			c-0.547-4.116-2.617-8.258-1.018-12.571c-0.062-1.72-0.124-3.453-0.187-5.187c-2.187-6.892-3.414-13.872-1.932-21.088
			c0.181-0.237,0.324-0.508,0.428-0.799c0.023-0.39,0.046-0.78,0.07-1.169c-0.328-3.097-0.655-6.195-0.982-9.293
			c-2.479-18.923-1.579-37.854-0.14-56.788c0.058-0.767,0.039-1.592,1.001-1.874c1.757-6.522,3.119-13.128,3.665-19.884
			c-4.143,1.712-4.131,6.071-4.913,9.246c-4.142,16.817-8.558,33.639-8.614,51.163c-0.002,0.942-0.004,2.024-1.442,1.981
			c-0.049,1.21-0.098,2.429-0.147,3.649c0.911,0.772,0.906,1.529-0.041,2.26c0.018,2.445,0.035,4.898,0.053,7.35
			c1.456,5.842-0.903,11.434-1.128,17.153c-0.028,2.144-0.056,4.3-0.083,6.458c1.252,11.882,0.771,23.819,0.353,35.689
			c-0.394,11.172,2.233,22.175,1.075,33.305c-0.568,1.391-0.716,2.745,0.468,3.941c1.68,3.313,2.795,6.711,1.562,10.448
			c0.184,1.636,0.368,3.283,0.553,4.93c2.756,3.094,1.378,7.036,1.721,10.467c1.055,10.571,3.575,21.046,2.678,31.769
			c0.153,1.836,0.307,3.684,0.461,5.533c1.601,7.577,0.678,15.151,0.352,22.783c-0.545,12.769,1.62,25.354,4.058,37.863
			c0.26,1.334,0.334,2.704,0.494,4.058c0.292,2.108,0.583,4.217,0.875,6.324c0.217,1.047,0.435,2.094,0.653,3.141
			c1.118,0.628,1.529,1.5,0.939,2.718c0.151,0.614,0.302,1.23,0.453,1.846c4.168,8.901,5.917,18.578,8.437,27.951
			c3.84,14.284,11.4,27.067,15.481,41.191c0-0.001,0.152,0.306,0.152,0.306c3.757,4.345,4.378,10.115,6.844,15.045
			c0.466,0.914,0.932,1.829,1.398,2.744c1.731,0.919,2.069,2.576,2.274,4.302c0.437,0.914,0.874,1.831,1.311,2.747
			c2.85,3.812,5.697,7.622,6.107,12.614l-0.102-0.129c0.378,0.709,0.756,1.419,1.135,2.128
			c8.649,16.094,17.476,32.079,26.886,47.753c12.354,20.575,26.6,39.801,41.298,58.695c15.212,19.556,32.358,37.446,50.005,54.753
			c25.689,25.193,53.785,47.626,83.503,67.88c24.266,16.539,46.549,35.822,71.64,51.191c0.994,0.608,2.701,0.932,2.396,3.554
			c-9.849-4.443-19.164-9.436-27.789-15.336c-29.479-20.166-60.597-37.893-89.279-59.188
			c-21.854-16.228-43.546-32.646-63.442-51.461c-46.826-44.284-86.118-94.446-120.528-148.762
			c-17.943-28.324-33.447-57.643-44.723-89.301c-4.939-13.868-8.651-27.994-12.532-42.119c-0.301-1.097-0.137-2.425-2.084-3.021
			c1.626,11.546,2.872,22.902,5.917,33.989c6.082,22.141,11.911,44.342,20.706,65.645c6.156,14.913,12.724,29.591,20.612,43.683
			c8.291,14.812,16.37,29.742,25.493,44.075c0.779,1.224,0.917,2.854,1.324,4.315c0.027,0.026,0.052,0.055,0.079,0.081
			c0.004,0.021,0.01,0.04,0.015,0.061c1.775,0.348,3.109,1.145,3.213,3.658c-2.119-0.518-2.834-1.925-3.213-3.658
			c-0.021-0.004-0.04-0.01-0.06-0.014c-0.012-0.042-0.022-0.086-0.034-0.128c-7.144-7.095-11.709-16.034-17.075-24.359
			c-7.842-12.17-15.36-24.566-22.587-37.112c-16.77-29.11-31.237-59.401-45.127-89.961c-5.105-11.23-9.463-22.802-14.158-34.209
			c-15.464-42.762-30.208-85.799-46.961-128.096c-4.548-11.483-9.421-22.804-15.367-33.711
			c-6.367-11.679-10.706-24.339-15.191-38.213c-0.726,3.21-1.451,5.054-1.504,6.917c-0.143,4.963-1.927,6.278-6.906,4.647
			c-6.471-2.119-6.844-1.712-6.334,5.381c2.979,41.411,8.663,82.579,11.139,124.036c1.246,9.355,0.597,18.748,0.548,28.124
			c0.408,6.269,0.851,12.539,1.221,18.815c1.063,18.021,4.706,35.625,8.577,53.193c0.915-12.521-2.012-24.647-4.114-36.805
			c-3.071-17.757-4.148-35.573-2.713-53.485c2.631-32.845,0.806-65.621-0.933-98.411c-0.2-3.776-0.898-7.59,0.384-12.646
			c5.478,9.125,8.868,17.848,13.023,26.182c17.017,34.119,26.505,70.968,38.333,106.92c13.641,41.462,28.604,82.351,45.29,122.682
			c6.672,16.126,13.018,32.381,20.988,47.892c20.175,39.257,43.259,76.593,72.407,110.031c7.816,8.966,16.631,17.058,23.631,26.733
			c0.05-0.004,0.094,0.003,0.146-0.003c0.064,0.095,0.128,0.188,0.191,0.282c0.484,0.351,0.969,0.7,1.456,1.051
			c2.393,0.64,3.781,2.201,4.248,4.612c0.137,0.085,0.273,0.172,0.41,0.259c-0.15-0.073-0.301-0.146-0.452-0.217
			c-2.266-0.604-4.006-1.788-4.64-4.198c-0.34-0.502-0.682-1.004-1.023-1.507c-0.092-0.066-0.185-0.134-0.277-0.2
			c-0.02-0.026-0.041-0.052-0.06-0.079c-2.347,0.188-3.654-1.318-5.278-2.813c-16.391-15.071-32.905-30.01-49.414-44.952
			c-0.603-0.545-1.082-1.833-2.006-1.211c41.901,62.013,94.539,112.893,159.265,151.115c-0.446,0.691-0.892,1.385-1.337,2.078
			c-6.433-3.403-12.938-6.678-19.277-10.246c-6.618-3.726-13.054-7.773-19.611-11.609c-6.608-3.867-13.3-7.591-19.897-11.478
			c-6.587-3.88-13.194-7.737-19.621-11.871c-6.307-4.059-11.792-9.485-19.386-11.382c27.656,25.097,56.512,48.568,87.208,69.876
			c30.812,21.388,63.627,39.366,95.485,59.141c-47.71-13.546-92.586-33.934-134.748-59.765
			c-42.088-25.785-80.668-56.358-114.483-92.677c17.752,24.698,39.805,45.36,61.452,66.575c-6.694-1.859-12.132-6.024-17.892-9.468
			c-17.084-10.213-32.507-22.637-47.688-35.486c-25.456-21.547-47.723-45.554-63.167-75.452
			c-11.746-22.735-21.193-46.474-31.235-69.955c-6.975-16.309-12.741-33.025-16.616-50.361c-0.293-1.314-0.399-2.754-1.617-3.474
			c-8.609,30.407-13.611,61.692-22.006,92.173c-0.564,2.047-1.454,4.006-2.192,6.006c-3.841,18.218-7.393,36.489-10.329,54.878
			c-4.543,28.446-9.927,56.777-12.114,85.551c-3.364,44.254-2.99,88.752-8.564,132.857c-0.546,4.321,1.017,5.653,4.888,6.773
			c15.54,4.496,31.417,6.768,47.485,7.946c7.793,0.571,15.479,0.816,23.005,3.819c51.332,20.472,103.167,39.162,158.58,45.653
			c46.432,5.438,92.775,11.651,139.682,10.956c64.873-0.962,129.576-3.271,192.28-22.663c14.002-4.33,28.325-7.615,40.974-15.664
			c8.281-5.271,13.007-12.733,14.28-21.967C1025.722,1301.835,1023.658,1279.506,1021.273,1257.227z"></path>
		<path fill-rule="evenodd" clip-rule="evenodd" class="colour2" fill="#262262" d="M644.876,667.248c1.164,1.055,1.528,2.271,0.747,3.716
			c0.109,0.739,0.219,1.478,0.328,2.217c1.149,1.035,1.612,2.222,0.82,3.688c0.096,0.744,0.191,1.488,0.287,2.232
			c1.263,1,1.615,2.208,0.841,3.674c0.109,0.741,0.218,1.482,0.327,2.224c1.031,0.609,1.367,1.423,0.741,2.52
			c0.116,0.755,0.233,1.51,0.349,2.266c1.883,2.084,2.021,4.602,1.795,7.21c0.17,0.746,0.34,1.492,0.511,2.239
			c0.832,0.679,1.083,1.508,0.645,2.513c0.173,0.741,0.346,1.482,0.519,2.224c0.81,0.671,1.063,1.497,0.687,2.495
			c0.175,1.143,0.35,2.287,0.525,3.429c3.108,6.702,4.286,13.868,5.082,21.125c0.124,0.686,0.248,1.372,0.373,2.059
			c3.931,9.418,5.454,19.508,8.027,29.298c1.179,4.484,3.353,8.751,3.38,13.525c0.129,0.686,0.257,1.372,0.387,2.059
			c5.333,11.899,9.004,24.362,12.515,36.88c6.303,14.995,12.026,30.271,19.63,44.662c9.534,18.044,19.218,36.008,29.361,53.736
			c9.262,16.184,19.46,31.771,29.295,47.572c5.628,9.042,13.047,17.077,20.307,24.972c9.022,9.811,18.684,19.038,28.119,28.466
			c21.952,21.938,45.185,42.439,69.476,61.746c9.358,7.438,18.221,15.689,28.293,22c17.05,10.683,34.334,21.036,52.604,29.707
			c14.027,6.656,28.957,10.839,43.083,17.148c4.738,2.117,8.742,5.191,12.991,7.979c0.231-7.119-0.945-14.065-2.613-20.949
			c-26.189-18.827-56.297-31.64-80.987-52.763c-2.508-2.145-4.869-4.462-7.298-6.698l-0.163-0.157c0,0,0.165,0.14,0.165,0.138
			c22.07,13.868,46.239,22.713,71.25,29.425c4.138,1.11,7.555,4.386,12.169,3.871c-0.262-0.838-0.524-1.675-0.786-2.513
			c-5.345-4.748-10.688-9.495-16.644-14.786c5.454,0.518,9.336,4.347,14.25,2.833c-3.756-17.827-5.67-35.9-7.246-54.02
			c-14.904-3.984-30.344-6.507-44.117-13.77c-6.864-3.621-14.372-6.284-20.34-11.523c-3.602-3.162-8.427-3.622-12.503-6.081
			c-25.881-15.612-49.725-33.792-71.614-54.589c-4.071-0.331-6.048-3.573-8.516-6.131c-21.109-18.745-42.986-36.765-57.889-61.415
			c4.35,12.381,10.973,23.401,18.801,33.744c18.653,24.646,40.921,45.97,62.61,67.811c1.769,1.78,2.587,4.353,5.098,5.507
			c11.029,5.071,17.591,15.606,27.289,22.536c7.112,5.081,13.552,11.574,21.089,16.161c5.497,3.345,11.18,6.354,16.263,10.349
			c0.729-0.125,1.133,0.223,1.312,0.9c0-0.001-0.002,0-0.002,0c9.458,4.524,19.037,8.821,28.302,13.714
			c2.791,1.474,6.145,1.102,9.59,4.217c-14.146-2.054-25.766-7.514-37.3-13.195c-9.543-5.339-19.064-10.733-28.652-16.01
			c-8.475-4.663-14.54-12.85-23.874-16.236c-0.777-1.079-1.555-2.16-2.333-3.242l-0.013-0.046
			c-8.088-2.99-13.195-9.978-19.679-15.057c-23.462-18.379-46.347-37.493-67.354-58.706c-15.229-15.376-27.709-32.985-40.488-50.36
			c-19.117-25.989-36.129-53.279-50.585-82.099c-10.815-21.56-20.008-43.87-28.507-66.439c-2.259-5.998-5.576-11.726-5.87-18.378
			c0.062-0.36,0.086-0.72,0.072-1.082c-0.973-0.412-1.196-1.16-0.952-2.118c-0.324-0.255-0.479-0.588-0.462-1
			c-1.276-0.976-1.999-2.18-1.593-3.851c-0.258-0.683-0.517-1.366-0.775-2.049c-5.775-11.686-7.964-24.44-10.642-36.99
			c-3.143-14.736-6.602-29.448-7.62-44.562c-0.048-0.718-0.528-1.407-1.343-3.458c-1.518,10.271,0.372,19.058,0.754,27.868
			c0.11,2.538,0.201,5.076,0.289,7.614c0.006,0.176-0.077,0.356-0.118,0.535c0.121,0.004,0.241,0.008,0.361,0.012
			c-1.723,1.804-3.045,4.011-3.129,5.221C644.677,665.758,644.776,666.503,644.876,667.248z"></path>
		<path fill-rule="evenodd" clip-rule="evenodd" class="colour2" fill="#262262" d="M998.885,1034.82c-0.254-3.674-0.508-7.349-0.762-11.021
			c-11.473,0.315-21.968-3.834-33.204-7.99C968.843,1021.678,985.361,1030.664,998.885,1034.82z"></path>
	</g>
	<g>
		<path fill-rule="evenodd" clip-rule="evenodd" class="colour2" fill="#262262" d="M1241.58,557.375c-7.033-21.202-11.453-43.148-18.748-64.258
			c-3.99-11.543-7.205-23.254-6.912-35.631c0.149-6.28,0.356-12.559,0.537-18.838c-0.521,1.043-1.22,2.035-1.542,3.137
			c-7.923,27.061-28.23,40.459-53.46,48.262c-18.881,5.839-38.225,8.927-58.035,8.763c-1.592,3.365-3.15,6.745-4.781,10.089
			c-8.95,18.362-15.166,37.914-24.478,56.125c-7.713,15.082-13.083,31.107-18.408,47.132c-0.694,2.086-2.994,4.761,1.68,5.668
			c13.035,2.533,26.207,3.112,39.321,1.776c25.775-2.625,51.088-7.763,75.99-15.044c23.71-6.933,46.68-14.991,64.883-32.854
			C1242.02,567.392,1243.199,562.256,1241.58,557.375z"></path>
		<path fill-rule="evenodd" clip-rule="evenodd" class="colour2" fill="#262262" d="M1133.311,374.857c1.722,6.994,2.767,14.155,4.117,21.241
			c14.217-12.418,28.346-24.918,38.311-41.282c0.266-0.719,0.533-1.438,0.8-2.157c1.237-3.606,2.475-7.213,3.989-11.628
			c0.891,4.766-0.165,8.364-1.732,11.887c-0.472,1.088-0.945,2.175-1.413,3.264c-4.533,12.279-11.264,23.226-19.961,32.992
			c-1.154,1.296-2.104,2.774-3.147,4.168c0.593,0.479,1.188,0.958,1.778,1.442c5.78-7.39,13.271-13.152,19.063-20.623
			c13.487-17.397,18.143-36.98,16.076-58.525c-0.202-2.094-0.711-4.204,0.543-6.151c-0.342,1.132-0.62,2.232,1.188,2.336
			c-0.523,6.491,1.65,12.664,2.328,19.024c3.859,36.201-11.949,63.412-38.407,86.006c-7.761,6.627-15.285,13.53-22.918,20.307
			c-4.239,13.105-9.552,25.698-17.658,36.954c25.563-2.124,47.831-12.7,68.668-26.867c12.825-8.719,22.329-20.316,29.136-34.197
			c0.653-1.333,0.705-3.05,2.226-3.965c4.562,14.179-12.072,43.098-33.106,57.709c-0.019,0.526-0.037,1.052-0.056,1.579
			c14.302-6.479,23.532-17.856,30.43-31.492c0.782-1.545,1.641-3.052,2.489-4.563c0.018-0.032,0.383,0.069,0.521,0.185
			c0.14,0.118,0.197,0.333,0.287,0.494c0.151-1.745,0.378-3.475,0.448-5.212c0.41-10.021,0.013-19.997-1.803-29.885
			c-3.357-2.41,1.509-4.247,0.452-6.493c-0.631-4.049,0.113-8.251-1.331-12.215c-1.683,13.372-8.856,24.167-16.562,34.614
			c-10.449,14.169-22.479,26.683-38.586,34.582c-1.694,0.832-3.321,2.07-5.411,1.561c-0.017,0.016-0.035,0.029-0.052,0.045
			c-0.051,0.01-0.103,0.02-0.153,0.029c-0.33,0.307-0.66,0.614-0.99,0.921c-0.146-0.217-0.29-0.434-0.434-0.651
			c0.475-0.09,0.949-0.18,1.424-0.27c0.033-0.031,0.066-0.062,0.1-0.093c0.036,0.01,0.07,0.01,0.105,0.019
			c5.008-4.671,11.352-7.418,16.602-11.842c17.364-14.634,30.159-32.53,38.996-53.302c1.738-4.087,2.365-8.647,3.507-12.991
			c0.385-3.013-0.631-5.838-1.315-8.668c-4.313-17.831-10.347-35.039-18.892-51.315c0.002,0,0.003,0,0.004,0
			c0.114-1.07,0.146-2.101-1.175-2.482c-1.344-6.653-5.685-11.888-8.452-17.866c-2.025,1.357-0.757,3.2-0.644,4.818
			c0.621,8.954,0.671,17.861-1.781,26.628c0.121-12.007,0.043-23.985-1.474-35.9c-3.838-8.644-9.56-15.959-16.083-22.705
			c3.622,20.536-0.679,39.404-11.887,56.866c6.398-17.53,11.568-35.131,5.442-53.943c-0.449,4.869-0.936,9.718-2.094,14.473
			c-2.877,11.805-9.983,20.802-18.987,28.475c-7.325,6.242-14.825,12.281-22.248,18.411c1.026,2.1,1.966,4.249,3.094,6.292
			C1123.695,347.607,1129.829,360.708,1133.311,374.857z M1212.307,400.545c0.288-0.479,0.735-0.86,1.739-2.007
			c-2.356,28.977-64.127,77.029-92.755,72.005c9.105-5.088,15.385-12.756,25.396-15.844
			C1175.817,445.714,1196.77,426.283,1212.307,400.545z"></path>
	</g>
	<g>
		<path fill-rule="evenodd" clip-rule="evenodd" class="colour3" fill="#d71920" d="M1216.053,432.316c-0.849,1.511-1.707,3.018-2.489,4.563
			c-6.897,13.636-16.128,25.013-30.43,31.492c-2.358,2.029-5.022,3.309-8.21,3.372c2.599-1.96,5.058-4.096,8.271-4.953
			c21.029-14.609,37.663-43.528,33.102-57.707c-1.521,0.916-1.572,2.632-2.226,3.965c-6.807,13.881-16.311,25.479-29.136,34.197
			c-20.837,14.167-43.105,24.744-68.668,26.867c-7.447,6.586-9.25,16.109-12.847,24.696c19.811,0.165,39.154-2.924,58.035-8.763
			c25.229-7.803,45.537-21.201,53.46-48.262c0.322-1.102,1.021-2.094,1.542-3.134c0.133-1.887,0.266-3.777,0.403-5.656
			c-0.09-0.161-0.147-0.375-0.287-0.494C1216.436,432.385,1216.07,432.285,1216.053,432.316z"></path>
		<path fill-rule="evenodd" clip-rule="evenodd" class="colour3" fill="#d71920" d="M1192.926,311.75c-0.002,0.024-0.002,0.048-0.004,0.072
			c0.018,0.001,0.029,0.005,0.048,0.006L1192.926,311.75z"></path>
		<path fill-rule="evenodd" clip-rule="evenodd" class="colour3" fill="#d71920" d="M1191.777,309.339c-0.015,0.049-0.028,0.098-0.043,0.146
			c0.024-0.039,0.039-0.079,0.065-0.117C1191.8,309.368,1191.777,309.339,1191.777,309.339z"></path>
		<path fill-rule="evenodd" clip-rule="evenodd" class="colour3" fill="#d71920" d="M1156.843,416.852c26.458-22.594,42.267-49.805,38.407-86.006
			c-0.678-6.36-2.852-12.533-2.328-19.024c-1.808-0.104-1.529-1.205-1.188-2.336c-1.254,1.947-0.745,4.057-0.543,6.151
			c2.066,21.545-2.589,41.128-16.076,58.525c-5.792,7.471-13.283,13.232-19.067,20.628c-2.56,3.205-5.149,6.375-9.097,8.003
			c-0.209,0.239-0.417,0.479-0.624,0.719c-0.685-0.64-0.063-0.779,0.378-0.988c1.406-3.987,4.859-6.285,7.572-9.186
			c1.039-1.39,1.989-2.868,3.144-4.165c8.697-9.767,15.428-20.713,19.964-32.992c-0.001,0-0.002-0.001-0.002-0.002
			c0.467-1.088,0.94-2.175,1.412-3.26c-0.754-0.086-1.504-0.174-2.257-0.261c-0.267,0.719-0.534,1.438-0.799,2.158
			c-9.966,16.363-24.095,28.863-38.312,41.279c0.381,13.819-1.234,27.469-3.503,41.063
			C1141.558,430.382,1149.082,423.479,1156.843,416.852z M1143.457,405.412c0.123,0.01,0.236,0.17,0.354,0.264
			c-0.144,0.067-0.293,0.194-0.431,0.183c-0.125-0.011-0.239-0.17-0.357-0.264C1143.168,405.528,1143.317,405.401,1143.457,405.412z
			"></path>
		<path fill-rule="evenodd" clip-rule="evenodd" class="colour3" fill="#d71920" d="M1216.104,392.205c0.021-0.262-0.018-0.527-0.146-0.799
			C1216.009,391.672,1216.059,391.938,1216.104,392.205z"></path>
		<path fill-rule="evenodd" clip-rule="evenodd" class="colour3" fill="#d71920" d="M1215.506,397.898c1.036-1.838,0.927-3.757,0.598-5.693
			C1215.954,394.104,1212.555,395.78,1215.506,397.898z"></path>
		<path fill-rule="evenodd" clip-rule="evenodd" class="colour3" fill="#d71920" d="M1214.046,398.538c-1.004,1.147-1.451,1.529-1.739,2.007
			c-15.537,25.738-36.489,45.169-65.619,54.153c-10.012,3.088-16.291,10.756-25.396,15.844
			C1149.919,475.566,1211.689,427.515,1214.046,398.538z"></path>
	</g>
	<g>
		<path fill-rule="evenodd" clip-rule="evenodd" class="colour4" fill="#bcbec0" d="M665.037,913.026c-0.012-0.029-0.025-0.058-0.037-0.087
			c-0.021-0.009-0.037-0.021-0.06-0.029C664.94,912.91,665.037,913.027,665.037,913.026z"></path>
		<path fill-rule="evenodd" clip-rule="evenodd" class="colour4" fill="#bcbec0" d="M1003.929,1144.852c-14.126-6.31-29.056-10.492-43.083-17.148
			c-18.27-8.671-35.554-19.024-52.604-29.707c-10.072-6.311-18.935-14.563-28.293-22c-24.291-19.307-47.523-39.809-69.476-61.746
			c-9.436-9.428-19.097-18.655-28.119-28.466c-7.26-7.895-14.679-15.93-20.307-24.972c-9.835-15.802-20.033-31.389-29.295-47.572
			c-10.144-17.729-19.827-35.692-29.361-53.736c-7.604-14.392-13.327-29.667-19.63-44.662c-5.464-7.193-9.533-15.122-12.466-23.648
			c-0.34-0.584-0.681-1.17-1.022-1.756c-2.442-2.954-4.217-6.215-4.624-10.1c-0.43-0.961-0.861-1.922-1.293-2.884
			c-2.596-2.323-3.209-5.573-4.066-8.707c-0.595-1.438-1.19-2.877-1.785-4.315c-1.102-0.672-1.775-1.549-1.39-2.927
			c-0.5-1.169-1-2.34-1.499-3.511c-1.792-2.066-3.009-4.37-2.965-7.192c-0.436-0.96-0.872-1.921-1.308-2.881
			c-1.896-1.745-2.274-4.092-2.569-6.473c-0.407-0.974-0.814-1.948-1.222-2.922c-0.832-0.853-1.376-1.796-0.974-3.042
			c-0.357-0.984-0.714-1.969-1.073-2.953c-1.198-0.694-1.65-1.663-1.099-2.999c-0.583-1.54-1.166-3.081-1.748-4.621
			c-1.578-1.678-2.17-3.685-1.994-5.949c-0.112-0.771-0.223-1.542-0.335-2.313c-4.505-6.417-6.201-13.867-7.855-21.332
			c-0.153-0.763-0.306-1.526-0.459-2.289c-1.736-1.646-1.863-3.807-1.919-5.99c-0.146-0.759-0.293-1.518-0.441-2.278
			c-0.882-0.607-1.197-1.4-0.794-2.427c-0.141-0.766-0.283-1.531-0.425-2.297c-0.931-0.602-1.156-1.42-0.744-2.432
			c-0.104-0.768-0.21-1.538-0.315-2.306c-0.943-0.636-1.152-1.461-0.639-2.473c-0.168-0.751-0.337-1.503-0.506-2.255
			c-0.967-0.56-1.23-1.377-0.882-2.417c-0.553-2.336-1.106-4.672-1.658-7.009c-0.888-0.607-1.18-1.4-0.757-2.417
			c-0.131-0.773-0.263-1.546-0.394-2.32c-2.085-4.09-2.97-8.478-3.223-13.021c-0.115-0.777-0.231-1.555-0.347-2.332
			c-1.086-0.971-1.313-2.172-0.942-3.531c-0.074-0.792-0.147-1.586-0.221-2.38c-1.09-1.016-1.331-2.215-0.775-3.586
			c-0.033-0.783-0.065-1.566-0.098-2.35c-1.271-0.905-1.539-2.042-0.789-3.413c-0.046-0.647-0.091-1.294-0.136-1.942
			c-2.44-2.995-1.565-6.529-1.614-9.913c-0.028-0.804-0.055-1.609-0.083-2.414c-1.206-1.457-1.383-3.066-0.714-4.801
			c-0.174-2.729-0.349-5.46-0.523-8.19c-1.293-1.839-1.395-3.844-0.818-5.94c-0.119-1.168-0.237-2.337-0.356-3.507
			c-1.184-0.934-1.448-2.127-0.998-3.523c-0.068-0.794-0.136-1.588-0.205-2.382c-1.33-1.813-1.366-3.821-0.895-5.906
			c-0.065-1.184-0.13-2.369-0.194-3.554c-1.418-1.378-1.38-3.026-0.885-4.759c-0.038-1.178-0.077-2.356-0.115-3.535
			c-1.497-1.413-1.392-3.073-0.745-4.817c-0.026-1.064-0.053-2.128-0.079-3.193c-1.955-5.056-1.722-10.256-1.025-15.486
			c-0.005-0.801-0.01-1.602-0.015-2.403c-1.207-1.955-0.972-3.98-0.294-6.027c0-2.326,0.001-4.651,0.001-6.977
			c-0.95-1.099-0.896-2.292-0.328-3.531c0.058-2.002,0.115-4.005,0.173-6.007c-1.558-1.463-1.344-2.98-0.135-4.526
			c0.156-2.393,0.311-4.787,0.466-7.181c-1.209-2.356-0.883-4.767-0.254-7.187c0.126-2.242,0.252-4.485,0.378-6.728
			c-1.852-2.866-0.797-5.668,0.184-8.472c0.063-0.821,0.125-1.643,0.188-2.465c-1.058-12.553-1.035-25.09,0.496-37.607
			c-0.002-4.022-0.005-8.044-0.007-12.067c-1.637-5.303-0.792-10.785-1.141-16.18c-0.627-9.727-1.128-19.463-1.691-29.358
			c-3.28,0.953-0.95,4.115-2.715,5.415c0.053,2.159,0.184,4.319,0.149,6.478c-0.607,38.44-6.459,76.26-13.48,113.942
			c0.145,9.282-1.783,18.318-3.262,27.406c-0.545,4.632-1.09,9.265-1.635,13.897c0.994,6.034-0.304,11.983-0.661,17.966
			c-0.154,3.528-0.307,7.057-0.461,10.585c1.715,5.422,2.294,10.891,0.674,16.449c-0.044,1.627-0.088,3.255-0.132,4.884
			c1.963,7.78,1.057,15.658,0.801,23.512c0.192,4.754,0.384,9.51,0.575,14.265c1.268,2.654,1.316,5.439,0.879,8.274
			c0.09,1.573,0.18,3.148,0.271,4.722c1.407,1.389,1.231,3.056,0.836,4.761c0.113,1.561,0.227,3.123,0.34,4.685
			c1.405,1.38,1.329,3.029,0.868,4.749c0.104,1.171,0.209,2.343,0.314,3.514c1.219,1.41,1.257,3.038,0.875,4.742
			c0.105,1.176,0.21,2.353,0.315,3.53c1.229,1.4,1.244,3.032,0.903,4.731c0.099,1.179,0.197,2.359,0.296,3.538
			c1.046,1.035,1.223,2.25,0.742,3.599c0.141,1.163,0.283,2.327,0.424,3.49c0.986,1.045,1.276,2.236,0.75,3.597
			c0.148,1.16,0.298,2.32,0.447,3.48c0.939,1.055,1.261,2.24,0.767,3.6c0.141,1.165,0.282,2.33,0.424,3.495
			c0.978,1.031,1.306,2.208,0.806,3.572c0.112,0.778,0.224,1.558,0.337,2.336c1.054,1.432,1.374,3.003,0.908,4.725
			c0.105,0.787,0.211,1.575,0.317,2.362c1.041,1.027,1.264,2.229,0.76,3.582c0.134,1.166,0.268,2.333,0.401,3.5
			c1.188,0.984,1.251,2.225,0.812,3.579c0.087,0.779,0.174,1.56,0.261,2.34c1.229,0.975,1.29,2.224,0.843,3.592
			c0.071,0.774,0.141,1.55,0.212,2.325c0.941,0.627,1.176,1.447,0.667,2.467c0.175,1.146,0.351,2.293,0.526,3.44
			c1.37,0.976,1.367,2.24,0.762,3.631c0.127,0.758,0.253,1.516,0.38,2.274c1.117,0.533,1.346,1.265,0.5,2.236
			c0.158,1.021,0.314,2.044,0.472,3.067c2.303,5.069,2.928,10.524,3.662,15.953c0.137,0.776,0.274,1.554,0.412,2.33
			c0.735,0.672,1.034,1.462,0.669,2.435c0.168,0.765,0.337,1.531,0.506,2.296c1.457,2.179,1.795,4.635,1.775,7.179
			c0.193,0.755,0.387,1.51,0.581,2.267c1.33,1.361,2.265,2.848,1.53,4.858c0.484,1.744,0.968,3.487,1.452,5.231
			c1.116,0.74,1.64,1.687,1.051,3.019c0.208,0.753,0.416,1.506,0.624,2.258c2.129,2.368,2.958,5.218,3.092,8.325
			c0.343,0.997,0.686,1.994,1.029,2.991c3.453,5.677,5.685,11.852,7.451,18.217c1.096,2.57,2.191,5.141,3.287,7.712
			c0.914,0.761,1.637,1.612,1.395,2.923c0.704,1.787,1.408,3.572,2.112,5.359c1.837,1.274,2.445,3.165,2.638,5.264
			c0.242,0.652,0.484,1.307,0.727,1.959c1.26,0.557,1.834,1.451,1.404,2.843c2.056,4.11,4.111,8.223,6.167,12.335
			c7.146,13.372,14.654,26.562,20.387,40.641c1.912,0.729,2.072,2.729,2.989,4.173c0.359,0.496,0.722,0.996,1.085,1.496
			c0,0,0.074,0.318,0.069,0.31c1.848,2.991,3.497,6.145,5.596,8.962c6.205,8.324,12.456,16.613,18.863,24.791
			c10.004,12.77,20.04,25.553,31.356,37.112c12.753,13.025,26.539,25.044,39.962,37.408c3.167,2.917,6.677,5.463,10.697,8.72
			c-0.486-3.31-2.388-4.267-3.695-5.617c-9.164-9.467-18.932-18.327-28.278-27.596c-22.816-22.625-41.224-48.855-59.418-75.166
			c-11.858-17.148-21.56-35.613-31.434-53.962c-17.435-32.403-33.602-65.301-41.733-101.509
			c-3.128-13.924-6.792-27.763-7.749-42.728c2.134,1.85,2.292,3.848,2.905,5.618c14.64,42.317,33.422,82.736,57,120.774
			c15.189,24.502,30.844,48.698,48.194,71.855c16.381,21.864,33.253,43.205,52.041,62.986
			c14.853,15.638,30.695,30.289,46.866,44.562c11.914,10.516,23.969,20.866,36.77,30.315c17.468,12.894,34.756,26.036,52.413,38.663
			c4.464,3.193,8.588,7.568,14.912,7.676c2.087,0.035,3.913,1.755,5.415,3.364c3.009,3.222,6.795,5.251,10.626,7.299
			c27.614,14.764,56.395,26.502,86.92,33.766c-0.15-1.125-0.302-2.254-0.453-3.383
			C1012.671,1150.043,1008.667,1146.969,1003.929,1144.852z"></path>
		<path fill-rule="evenodd" clip-rule="evenodd" class="colour4" fill="#bcbec0" d="M707,652.229c4.916,31.418,15.132,61.711,25.626,91.812
			c15.599,44.738,35.42,87.497,59.003,128.488c14.528,25.254,32.831,47.869,52.041,69.722c3.842,1.806,6.3,4.653,6.771,8.997
			c21.89,20.797,45.733,38.977,71.614,54.589c4.076,2.459,8.901,2.919,12.503,6.081c5.968,5.239,13.476,7.902,20.34,11.523
			c13.773,7.263,29.213,9.785,44.117,13.77c-0.044-0.797-0.088-1.594-0.132-2.391c-13.523-4.156-30.042-13.143-33.966-19.012
			c11.236,4.156,21.731,8.306,33.204,7.99c0.273-4.99,0.247-9.959-1.036-14.837c-0.359,0.052-0.82,0.234-1.022,0.079
			c-28.184-21.533-56.729-42.559-82.778-66.811c-13.25-12.337-26.149-24.944-38.745-37.924
			c-18.201-18.758-37.922-36.162-53.458-57.31c-20.925-28.479-41.352-57.301-54.102-90.768c-3.76-9.867-9.602-18.924-14.164-28.507
			c-14.799-31.085-27.658-62.783-36.591-96.251c-12.122-45.423-16.405-91.845-21.361-138.26c1.061,28.059,1.445,56.137,2.899,84.189
			C699.07,602.583,703.125,627.465,707,652.229z"></path>
		<path fill-rule="evenodd" clip-rule="evenodd" class="colour4" fill="#bcbec0" d="M883.894,1210.65c-25.091-15.369-47.374-34.652-71.64-51.191
			c-29.718-20.254-57.813-42.687-83.503-67.88c-17.647-17.307-34.793-35.197-50.005-54.753
			c-14.698-18.895-28.945-38.12-41.298-58.695c-9.41-15.674-18.237-31.659-26.886-47.753c-0.363-0.68-0.725-1.359-1.087-2.039
			c-3.539-2.437-6.146-5.691-8.239-9.396c-0.179-0.339-0.298-0.734-0.547-1.013c-34.233-38.308-58.414-82.306-72.971-131.426
			c-8.251-27.844-15.57-55.962-25.321-83.346c-13.119-36.842-26.528-73.61-35.71-111.685c-5.195-21.543-11.301-43.008-11.067-65.504
			c0.063-6.009,0.009-12.02,0.009-18.03c-2.634,7.164-3.792,14.633-4.566,22.151c-1.277,12.396-0.018,24.568,2.301,36.842
			c3.573,18.919,5.536,38.167,10.616,56.781c8.076,29.592,15.237,59.416,21.363,89.439c6.205,30.413,10.939,61.126,16.252,91.72
			c0.356,2.05,1.092,4.286-0.577,6.209c4.695,11.407,9.053,22.979,14.158,34.209c13.891,30.56,28.358,60.851,45.127,89.961
			c7.227,12.546,14.745,24.942,22.587,37.112c5.365,8.325,9.931,17.265,17.075,24.359c-0.408-1.461-0.545-3.092-1.324-4.315
			c-9.123-14.333-17.202-29.264-25.493-44.075c-7.888-14.092-14.456-28.77-20.612-43.683c-8.794-21.303-14.624-43.504-20.706-65.645
			c-3.045-11.087-4.291-22.443-5.917-33.989c1.947,0.596,1.783,1.924,2.084,3.021c3.88,14.125,7.592,28.251,12.532,42.119
			c11.276,31.658,26.78,60.977,44.723,89.301c34.41,54.315,73.702,104.478,120.528,148.762
			c19.896,18.815,41.588,35.233,63.442,51.461c28.683,21.296,59.8,39.022,89.279,59.188c8.625,5.9,17.94,10.893,27.789,15.336
			C886.595,1211.582,884.888,1211.259,883.894,1210.65z"></path>
		<path fill-rule="evenodd" clip-rule="evenodd" class="colour4" fill="#bcbec0" d="M609.426,928.25c0.016,0.029,0.031,0.059,0.047,0.089
			c0.019,0.013,0.036,0.027,0.055,0.04L609.426,928.25z"></path>
		<path fill-rule="evenodd" clip-rule="evenodd" class="colour4" fill="#bcbec0" d="M1156.917,267.244c6.126,18.812,0.956,36.413-5.442,53.943
			c11.208-17.462,15.509-36.33,11.887-56.866c-13.86-15.871-30.38-28.704-47.131-41.274c-0.025,0.81-0.05,1.62-0.075,2.43
			c0.026,0.004,0.047,0.013,0.073,0.017c-0.002,0.061,0.013,0.105,0.015,0.163c0.338,0.338,0.677,0.677,1.014,1.015
			c0.058-0.002,0.096,0.014,0.158,0.006c0.027,0.058,0.056,0.116,0.083,0.173c0.115,0.067,0.229,0.136,0.31,0.231
			c0.059,0.069-0.01,0.245-0.021,0.373c-0.096-0.201-0.192-0.403-0.288-0.604c-0.053-0.03-0.104-0.061-0.154-0.093
			c-0.029-0.029-0.058-0.058-0.087-0.086c-0.7,0.025-0.988-0.363-1.014-1.015c-0.03-0.03-0.061-0.061-0.091-0.091
			c0.001-0.029,0.002-0.059,0.003-0.088c-2.515-0.427-3.582-2.054-3.669-4.493c-5.729-2.986-10.146-8.385-17.519-9.71
			c11.258,11.414,12.299,25.547,12.829,39.633c0.593,15.75-4.162,30.584-8.926,45.368c-0.803,2.489-2.234,5.062-0.449,7.889
			c5.119,8.106,10.119,16.288,15.166,24.44c7.423-6.13,14.923-12.169,22.248-18.411c9.004-7.672,16.11-16.67,18.987-28.475
			C1155.981,276.961,1156.468,272.112,1156.917,267.244z M1120.942,231.492c-0.019-0.008-0.032-0.018-0.051-0.025
			c-0.001-0.02-0.005-0.039-0.006-0.059c-1.196,0.214-1.599-0.629-1.916-1.537c-0.034-0.1,0.246-0.448,0.328-0.431
			c1.063,0.221,1.52,0.948,1.588,1.968c0.023-0.004,0.043-0.002,0.067-0.007C1120.948,231.432,1120.947,231.461,1120.942,231.492
			c1.325,0.562,1.807,1.587,2.04,3.188C1120.918,234.048,1120.746,232.86,1120.942,231.492z M1123.701,236.649
			c2.286,1.297,2.357,3.628,3.922,6.683C1124.025,241.226,1124.504,238.639,1123.701,236.649z"></path>
		<path fill-rule="evenodd" clip-rule="evenodd" class="colour4" fill="#bcbec0" d="M989.589,969.851c-1.142-0.766-2.221-1.63-3.324-2.452
			c-18.366-13.685-36.261-27.997-53.453-43.096c-13.538-11.888-25.809-25.208-39.155-37.327
			c-11.449-10.398-21.59-21.899-31.835-33.419c-8.683-9.763-14.891-21.212-23.222-31.189c0.615,2.542,1.394,4.974,2.428,7.291
			c7.637,17.132,18.508,32.269,29.77,47.078c7.082,9.313,15.462,17.64,22.516,26.974c3.586,4.745,7.036,9.719,11.067,13.969
			c11.897,12.54,24.551,24.359,36.608,36.752c14.239,14.63,29.548,28.042,44.982,41.366c4.217,3.641,9.328,7.028,11.109,12.965
			c2.201-5.619,0.68-11.653,1.892-17.349C1000.994,981.901,997.323,975.039,989.589,969.851z"></path>
		<path fill-rule="evenodd" clip-rule="evenodd" class="colour4" fill="#bcbec0" d="M997.08,1008.762c-0.01,0.025-0.018,0.051-0.027,0.076
			c0,0,0.006,0.007,0.007,0.008c0.01,0.039,0.017,0.078,0.027,0.116c0.018-0.002,0.038-0.008,0.056-0.01
			C997.124,1008.887,997.1,1008.826,997.08,1008.762z"></path>
		<path fill-rule="evenodd" clip-rule="evenodd" class="colour4" fill="#bcbec0" d="M704.11,803.689c14.456,28.819,31.468,56.109,50.585,82.099
			c12.779,17.375,25.26,34.984,40.488,50.36c21.008,21.213,43.893,40.327,67.354,58.706c6.483,5.079,11.591,12.066,19.679,15.057
			c-5.019-7.418-12.063-12.942-18.227-19.273c-15.777-16.208-31.608-32.377-47.854-48.112
			c-27.789-26.919-48.904-59.064-70.895-90.438c-21.914-31.266-39.969-64.938-57.729-98.71
			c-6.023-11.451-11.858-23.002-17.779-34.505c0.293,6.652,3.61,12.38,5.87,18.378C684.103,759.819,693.295,782.13,704.11,803.689z"></path>
		<path fill-rule="evenodd" clip-rule="evenodd" class="colour4" fill="#bcbec0" d="M418.502,762.88c-2.521-20.587-9.729-38.844-13.268-57.929
			c-4.875-26.298-8.292-52.86-13.95-79.025c-0.35-1.62,0.586-4.858-2.512-4.267c-2.982,0.569-1.148,3.289-0.832,4.922
			c2.913,15.063,7.12,29.974,8.758,45.165c3.995,37.057,14.424,72.59,23.743,108.421c0.049-9.376,0.698-18.769-0.548-28.124
			C418.93,755.148,420.999,758.54,418.502,762.88z"></path>
		<path fill-rule="evenodd" clip-rule="evenodd" class="colour4" fill="#bcbec0" d="M1096.98,246.406c-0.208,12.972-3.234,25.225-9.276,36.669
			c-1.732,3.281-1.606,5.773,0.89,8.399c1.86,1.957,3.082,4.512,5.792,6.188C1098.256,280.32,1103.165,263.584,1096.98,246.406z"></path>
		<path fill-rule="evenodd" clip-rule="evenodd" class="colour4" fill="#bcbec0" d="M1213.173,371.811c-1.142,4.344-1.769,8.904-3.507,12.991
			c-8.837,20.772-21.632,38.668-38.996,53.302c-5.25,4.423-11.593,7.171-16.601,11.842c2.089,0.509,3.716-0.729,5.41-1.561
			c16.106-7.898,28.137-20.412,38.586-34.582c7.705-10.447,14.879-21.242,16.561-34.616
			C1214.041,376.747,1214.862,374.031,1213.173,371.811z"></path>
		<path fill-rule="evenodd" clip-rule="evenodd" class="colour4" fill="#bcbec0" d="M563.75,807.474c0.285,0.019,0.57,0.013,0.854-0.021
			c-0.16-1.356-0.234-2.727-0.494-4.061c-2.438-12.509-4.603-25.095-4.058-37.863c0.326-7.632,1.249-15.206-0.352-22.783
			c-1.043,2.299,0.75,5.125-1.956,7.972c-1.651-6.255-3.17-12.014-5.074-19.229C555.499,757.994,556.154,783.252,563.75,807.474z"></path>
		<path fill-rule="evenodd" clip-rule="evenodd" class="colour4" fill="#bcbec0" d="M553.618,567.813c0.056-17.524,4.472-34.346,8.614-51.163
			c0.782-3.175,0.77-7.533,4.913-9.246c1.721-6.919,3.441-13.838,5.161-20.757c-0.774-0.195-1.548-0.39-2.322-0.583
			c-4.04,12.221-7.249,24.674-10.611,37.092c-4.145,15.31-6.561,30.814-7.197,46.639
			C553.613,569.836,553.615,568.755,553.618,567.813z"></path>
		<path fill-rule="evenodd" clip-rule="evenodd" class="colour4" fill="#bcbec0" d="M551.182,642.353c0.419-11.87,0.899-23.807-0.353-35.689
			c-1.178,23.028-1.561,46.039,1.428,68.995C553.416,664.528,550.788,653.524,551.182,642.353z"></path>
		<path fill-rule="evenodd" clip-rule="evenodd" class="colour4" fill="#bcbec0" d="M974.389,1058.641c-3.445-3.115-6.799-2.743-9.59-4.217
			c-9.265-4.893-18.844-9.189-28.302-13.714c0.664,1.521,2.003,2.957,0.592,4.735
			C948.623,1051.127,960.242,1056.587,974.389,1058.641z"></path>
		<path fill-rule="evenodd" clip-rule="evenodd" class="colour4" fill="#bcbec0" d="M562.479,529.162c-1.439,18.933-2.34,37.865,0.14,56.788
			c0.021-19.554-0.828-39.121,0.862-58.661C562.518,527.57,562.537,528.395,562.479,529.162z"></path>
		<path fill-rule="evenodd" clip-rule="evenodd" class="colour4" fill="#bcbec0" d="M554.84,694.978c1.466,14.074,2.932,28.148,4.399,42.235
			c0.897-10.723-1.624-21.197-2.678-31.769C556.218,702.013,557.596,698.071,554.84,694.978z"></path>
		<path fill-rule="evenodd" clip-rule="evenodd" class="colour4" fill="#bcbec0" d="M570.293,659.372c-1.48-11.987-2.69-24.012-5.073-35.886
			c-1.599,4.313,0.471,8.456,1.018,12.571C567.275,643.858,566.834,651.98,570.293,659.372z"></path>
		<path fill-rule="evenodd" clip-rule="evenodd" class="colour4" fill="#bcbec0" d="M565.406,616.656c-1.207-1.159-0.943-2.54-0.595-3.935
			c-0.57-5.167-1.14-10.332-1.709-15.509c-1.482,7.216-0.255,14.196,1.932,21.088C565.157,617.751,565.281,617.204,565.406,616.656z
			"></path>
		<path fill-rule="evenodd" clip-rule="evenodd" class="colour4" fill="#bcbec0" d="M552.041,583.052c-1.033,5.67-1.712,11.363-1.128,17.153
			C551.138,594.486,553.497,588.895,552.041,583.052z"></path>
		<path fill-rule="evenodd" clip-rule="evenodd" class="colour4" fill="#bcbec0" d="M552.726,679.599c-0.243,3.593,0.88,6.982,1.562,10.448
			C555.521,686.31,554.405,682.913,552.726,679.599z"></path>
		<path fill-rule="evenodd" clip-rule="evenodd" class="colour4" fill="#bcbec0" d="M552.028,573.442c-0.769,0.737-0.757,1.488-0.041,2.26
			C552.934,574.971,552.939,574.215,552.028,573.442z"></path>
		<path fill-rule="evenodd" clip-rule="evenodd" class="colour4" fill="#bcbec0" d="M884.563,1013.199c0.165-1.759-0.877-2.649-2.333-3.242
			C883.008,1011.039,883.785,1012.12,884.563,1013.199z"></path>
		<polygon fill-rule="evenodd" clip-rule="evenodd" class="colour4" fill="#bcbec0" points="456.624,504.236 456.398,504.195 456.419,504.716 		"></polygon>
		<path fill-rule="evenodd" clip-rule="evenodd" class="colour4" fill="#bcbec0" d="M935.188,1039.81c0.438,0.3,0.875,0.601,1.312,0.9
			C936.32,1040.032,935.917,1039.685,935.188,1039.81z"></path>
		<path fill-rule="evenodd" clip-rule="evenodd" class="colour4" fill="#bcbec0" d="M741.67,1056.484c-4.617-4.469-9.233-8.938-13.85-13.404
			c-0.531,0.568-1.063,1.137-1.595,1.706c4.663,4.407,9.326,8.814,13.989,13.222C740.7,1057.501,741.186,1056.993,741.67,1056.484z"></path>
		<path fill-rule="evenodd" clip-rule="evenodd" class="colour4" fill="#bcbec0" d="M973.938,1217.734c-0.078,0.525-0.157,1.049-0.241,1.572
			c2.077,1.02,4.184,0.725,7.144,0.361C978.033,1218.643,976.183,1217.478,973.938,1217.734z"></path>
		<path fill-rule="evenodd" clip-rule="evenodd" class="colour4" fill="#bcbec0" d="M638.332,1092.596l-0.405,0.047c0,0-0.03,0.405-0.031,0.409
			c0.632,2.412,2.373,3.597,4.639,4.2l0,0c0.15,0.071,0.301,0.144,0.452,0.217c-0.137-0.087-0.273-0.174-0.41-0.259
			C642.109,1094.799,640.721,1093.237,638.332,1092.596z"></path>
		<path fill-rule="evenodd" clip-rule="evenodd" class="colour4" fill="#bcbec0" d="M600.059,996.865c-0.005-0.021-0.011-0.04-0.015-0.061
			c-0.027-0.026-0.052-0.055-0.079-0.081c0.012,0.042,0.022,0.086,0.034,0.128C600.02,996.855,600.039,996.861,600.059,996.865z"></path>
		<path fill-rule="evenodd" clip-rule="evenodd" class="colour4" fill="#bcbec0" d="M603.272,1000.523c-0.104-2.514-1.438-3.311-3.213-3.658
			C600.438,998.599,601.153,1000.006,603.272,1000.523z"></path>
		<polygon fill-rule="evenodd" clip-rule="evenodd" class="colour4" fill="#bcbec0" points="972.639,1217.219 972.855,1217.256 972.798,1217.028 		
			"></polygon>
		<path fill-rule="evenodd" clip-rule="evenodd" class="colour4" fill="#bcbec0" d="M1180.527,341.031c-1.515,4.415-2.752,8.021-3.989,11.628
			c0.753,0.087,1.503,0.175,2.257,0.261C1180.362,349.395,1181.418,345.797,1180.527,341.031z"></path>
		<path fill-rule="evenodd" clip-rule="evenodd" class="colour4" fill="#bcbec0" d="M1154.277,393.338c-2.713,2.901-6.166,5.199-7.573,9.184
			l0.247,0.271c3.947-1.628,6.537-4.799,9.101-8.009C1155.461,394.3,1154.866,393.821,1154.277,393.338z"></path>
		<path fill-rule="evenodd" clip-rule="evenodd" class="colour4" fill="#bcbec0" d="M1183.134,468.371c0.019-0.526,0.037-1.053,0.061-1.582
			c-3.213,0.857-5.672,2.993-8.271,4.953C1178.111,471.68,1180.775,470.4,1183.134,468.371z"></path>
		<path fill-rule="evenodd" clip-rule="evenodd" class="colour4" fill="#bcbec0" d="M1152.873,450.941c0.33-0.307,0.66-0.614,0.99-0.921
			c-0.475,0.09-0.949,0.18-1.424,0.27C1152.583,450.507,1152.728,450.725,1152.873,450.941z"></path>
		<path fill-rule="evenodd" clip-rule="evenodd" class="colour4" fill="#bcbec0" d="M1153.863,450.021c0.051-0.01,0.103-0.02,0.153-0.029v0
			c0.017-0.016,0.036-0.03,0.053-0.045c-0.036-0.009-0.07-0.009-0.106-0.019C1153.93,449.958,1153.896,449.989,1153.863,450.021z"></path>
		<path fill-rule="evenodd" clip-rule="evenodd" class="colour4" fill="#bcbec0" d="M1143.022,405.594c0.118,0.094,0.232,0.254,0.357,0.265
			c0.138,0.011,0.287-0.116,0.431-0.183c-0.117-0.094-0.23-0.254-0.354-0.264C1143.317,405.401,1143.168,405.528,1143.022,405.594z"></path>
		<path fill-rule="evenodd" clip-rule="evenodd" class="colour4" fill="#bcbec0" d="M1146.327,403.512c0.207-0.24,0.415-0.479,0.624-0.719
			c0,0-0.247-0.271-0.246-0.27C1146.265,402.733,1145.643,402.872,1146.327,403.512z"></path>
	</g>
</g>
</svg>