<svg version="1.1" id="Layer_1___5UwM2Y8o" xmlns="http://www.w3.org/2000/svg" xmlns:xlink="http://www.w3.org/1999/xlink" x="0px" y="0px" width="1417.32px" height="1417.32px" viewBox="0 0 1417.32 1417.32" enable-background="new 0 0 1417.32 1417.32" xml:space="preserve">
<g>
	<path fill-rule="evenodd" clip-rule="evenodd" class="colour1" fill="#009FDA" d="M1021.337,617.808c-2.851,3.685-3.39,8.308-4.987,12.49
		c-9.521,24.942-18.225,50.141-23.595,76.377c-3.044,14.874-3.144,30.061-5.114,45.056c-2.967,22.588-6.831,45.028-10.2,67.547
		c-5.811,38.838-11.846,77.622-13.916,116.936c-1.624,30.833-3.936,61.611-2.91,92.53c1.052,31.681,5.434,62.945,10.789,94.127
		c6.181,35.992,11.361,72.122,15.008,108.479c3.26,32.502,4.349,65.107,5.776,97.704c0.008,0.196-0.031,0.408,0.03,0.589
		c4.143,12.279-3.133,18.925-11.582,26.069c-14.957,12.648-32.343,17.983-51.228,20.216c-20.721,2.449-41.471,4.298-62.358,3.592
		c-27.519-0.931-54.781-4.68-82.139-7.465c-57.632-5.869-111.837-25.775-167.401-40.116c-15.183-3.919-30.3-8.095-45.468-12.07
		c-2.243-0.589-4.606-0.719-6.915-1.059c-1.87-0.567-3.703-1.405-5.613-1.654c-4.149-0.542-5.226-2.858-4.429-6.612
		c3.123-14.722,2.261-29.754,3.405-44.631c2.176-28.275,0.705-56.625,1.325-84.93c0.783-35.694-1.307-71.544,6.996-106.844
		c4.417-18.777,4.554-38.168,5.442-57.431c1.224-26.549-0.292-53.064-0.131-79.595c0.103-16.864-1.888-33.74-2.947-50.609
		c-1.527-24.327-2.6-48.642-1.989-73.052c0.521-20.844-3.292-41.576-3.342-62.388c-0.067-27.881-4.721-55.169-8.418-82.615
		c-2.172-16.133-6.463-31.994-6.27-48.433c11.95-1.727,23.813-1.173,35.746,0.619c13.992,2.102,28.054,3.725,41.89-1.451
		c3.912-1.463,7.395-3.354,8.408-7.482c3.029-12.356,6.442-24.683,7.151-37.461c1.621-29.234,6.014-58.108,10.874-86.932
		c0.559-3.314,2.037-5.487,4.916-7.389c45.751-30.214,75.314-71.915,88.405-125.213c6.053-24.643,8.645-49.854,11.287-74.979
		c1.155-10.985,4.328-22.145,1.546-33.338c-1.56-6.277-4.416-12.515-3.135-18.984c2.977-15.033,2.553-29.93,0.858-45.079
		c-2.43-21.725-1.159-43.602-0.949-65.414c0.05-5.248,1.373-10.397,3.506-15.374c3.844-8.968,7.842-17.931,9.314-27.715
		c9.043-1.446,17.952-0.23,26.862,1.277c14.833,2.509,29.052,8.082,44.328,8.522c4.592,0.133,9.512-0.56,13.814,2.07
		c5.737,2.546,9.771,7.1,13.733,11.721c1.021,1.19,2.101,2.419,2.764,3.814c11.061,23.257,30.021,38.907,50.754,52.863
		c0.38,2.013,1.274,3.39,3.643,2.946l-0.021-0.025c1.587,5.438,6.6,7.985,10.195,11.604c17.183,17.283,32.7,36.241,51.587,51.807
		c9.983,8.227,18.474,17.616,24.333,29.236c4.81,9.54,12.082,16.882,20.602,23.118c5.923,4.334,11.191,9.327,14.961,15.69
		c11.44,19.302,21.521,39.264,29.009,60.461c6.54,18.509,10.876,37.31,7.555,57.138c-1.847,11.027-5.735,21.595-7.053,32.752
		c-4.192,35.513-13.456,69.593-28.195,102.264C1036.688,565.811,1028.541,591.668,1021.337,617.808z"></path>
	<path fill-rule="evenodd" clip-rule="evenodd" class="colour1" fill="#009FDA" d="M392.124,585.768c32.744,19.212,67.099,33.069,105.886,33.386
		c17.045,0.139,34.088,1.084,51.147,0.863c-0.193,16.438,4.097,32.3,6.27,48.433c3.697,27.446,8.351,54.734,8.418,82.615
		c0.049,20.812,3.863,41.544,3.342,62.388c-0.611,24.41,0.462,48.725,1.989,73.052c1.059,16.869,3.05,33.745,2.947,50.609
		c-0.162,26.53,1.355,53.046,0.131,79.595c-0.888,19.263-1.026,38.653-5.442,57.431c-8.303,35.3-6.213,71.149-6.996,106.844
		c-0.62,28.305,0.851,56.654-1.325,84.93c-1.145,14.877-0.283,29.909-3.405,44.631c-0.796,3.754,0.28,6.07,4.429,6.612
		c1.91,0.249,3.743,1.087,5.613,1.654c-28.284,8.454-57.529,11.708-86.63,15.524c-13.411,1.758-27.037,1.921-40.608,1.457
		c-4.886-0.166-7.016-1.946-6.812-7.565c0.971-26.725,5.823-52.919,9.763-79.26c2.113-14.127,3.79-28.415,4.226-42.674
		c0.68-22.21,0.97-44.499-0.151-66.676c-0.896-17.732,0.717-35.271,0.901-52.887c0.174-16.604-1.248-33.337-3.422-49.821
		c-2.125-16.113-2.569-32.078-0.334-48.067c3.742-26.774,5.737-53.312-2.393-79.83c-3.258-10.625-4.229-21.904-3.969-33.181
		c0.436-18.858-0.441-37.749,1.33-56.574c1.118-11.889,3.975-23.604,3.53-35.649c-0.364-9.869-2.126-19.438-5.784-28.657
		c-5.063-12.765-10.236-25.553-12.411-39.181c-1.32-8.271-2.164-16.572-1.074-25.15c1.835-14.434-1.897-28.219-8.612-40.876
		c-9.475-17.858-16.119-36.565-19.8-56.404C392.406,590.803,391.981,588.332,392.124,585.768z"></path>
	<path fill-rule="evenodd" clip-rule="evenodd" class="colour1" fill="#009FDA" d="M1021.337,617.808c7.204-26.14,15.352-51.997,26.508-76.727
		c14.739-32.671,24.003-66.751,28.195-102.264c1.317-11.158,5.206-21.725,7.053-32.752c3.321-19.828-1.015-38.628-7.555-57.138
		c-7.487-21.197-17.568-41.16-29.009-60.461c-3.77-6.363-9.038-11.356-14.961-15.69c-8.52-6.236-15.792-13.579-20.602-23.118
		c-5.859-11.62-14.35-21.009-24.333-29.236c-18.887-15.566-34.404-34.524-51.587-51.807c-3.596-3.618-8.608-6.166-10.195-11.604
		c3.1,0.518,5.132,2.827,7.27,4.712c38.764,34.192,78.291,67.709,112.406,106.651c25.648,29.275,45.473,62.342,54.429,100.988
		c4.833,20.853,3.164,41.574-2.453,61.723c-9.733,34.916-7.38,69.884-3.202,105.098c1.821,15.345,3.78,30.597,0.895,46.284
		c-1.888,10.262-7.38,16.47-15.787,20.329C1060.322,611.097,1041.229,616.111,1021.337,617.808z"></path>
	<path fill-rule="evenodd" clip-rule="evenodd" class="colour2" fill="#262262" d="M768.975,73.823c-10.604-0.616-20.932,1.537-31.346,2.976
		c-7.544,1.042-15.15,1.951-22.751,2.179c-6.371,0.191-12.523,0.89-18.405,3.297c-12.463,5.101-25.825,7.71-37.35,15.48
		c-16.424,11.074-32.167,23.041-48.169,34.672c-8.457,6.147-15.025,15.122-26.058,17.531c-1.891,0.414-3.659,1.388-5.689,1.151
		c0.428-12.593,7.087-21.829,16.366-29.386c37.192-30.292,79.107-51.361,125.572-63.162c22.849-5.804,45.971-10.029,69.772-9.042
		c8.47,0.351,16.852,1.2,25.146,2.758c8.726,1.639,16.081,5.373,21.432,13.104c4.948,7.149,10.949,13.569,16.485,20.311
		c-4.303-2.63-9.223-1.938-13.814-2.07c-15.276-0.441-29.495-6.014-44.328-8.522C786.927,73.592,778.018,72.377,768.975,73.823z"></path>
	<path fill-rule="evenodd" clip-rule="evenodd" class="colour1" fill="#009FDA" d="M756.245,227.405c2.977-15.033,2.553-29.93,0.858-45.079
		c-2.43-21.725-1.159-43.602-0.949-65.414c0.05-5.248,1.373-10.397,3.506-15.374c3.844-8.968,7.842-17.931,9.314-27.715
		c-10.604-0.616-20.932,1.537-31.346,2.976c-7.544,1.042-15.15,1.951-22.751,2.179c-6.371,0.191-12.523,0.89-18.405,3.297
		c-12.463,5.101-25.825,7.71-37.35,15.48c-16.424,11.074-32.167,23.041-48.169,34.672c-8.457,6.147-15.025,15.122-26.058,17.531
		c-1.891,0.414-3.659,1.388-5.689,1.151c-1.05,1.988-3.097,2.117-4.929,2.796c-45.009,16.692-82.064,44.03-110.11,83.117
		c-9.267,12.916-17.812,26.353-26.533,39.654c-14.705,22.427-24.503,46.7-28.075,73.459c-2.51,18.805-2.325,37.654-1.952,56.512
		c0.41,20.73-2.493,40.904-11.83,59.44c-12.838,25.489-17.4,52.294-15.354,80.428c0.974,13.392,0.481,27.337,10.837,38.121
		c0.306,0.403,0.612,0.806,0.918,1.209c0.001,0-0.055-0.079-0.055-0.079c32.744,19.212,67.099,33.069,105.886,33.386
		c17.045,0.139,34.088,1.084,51.147,0.863c11.95-1.727,23.813-1.173,35.746,0.619c13.992,2.102,28.054,3.725,41.89-1.451
		c3.912-1.463,7.395-3.354,8.408-7.482c3.029-12.356,6.442-24.683,7.151-37.461c1.621-29.234,6.014-58.108,10.874-86.932
		c0.559-3.314,2.037-5.487,4.916-7.389c45.751-30.214,75.314-71.915,88.405-125.213c6.053-24.643,8.645-49.854,11.287-74.979
		c1.155-10.985,4.328-22.145,1.546-33.338C757.82,240.113,754.964,233.875,756.245,227.405z"></path>
	<g>
		<path class="colour3" fill="#d71920" d="M1071.674,466.362c-2.102,9.855-4.202,19.712-6.304,29.568c10.319-2.526,18.524-7.878,23.487-17.564
			c0.09-2.75,0.179-5.5,0.269-8.251c-1.054-0.248-3.168,0.488-1.978-1.929c0.812-1.65,1.86-3.185,2.803-4.766
			c0.876-5.274,1.754-10.555,2.632-15.835C1086.904,455.282,1080.355,462.01,1071.674,466.362z M1080.837,476.045
			c-0.227,1.296-0.938,2.044-2.311,1.993c-0.155-0.006-0.454-0.267-0.435-0.325c0.411-1.245,1.474-1.588,2.605-1.822
			c0.197-0.237,0.395-0.474,0.592-0.71C1081.978,475.908,1081.217,475.876,1080.837,476.045z M1083.337,474.596
			c0.15-2.119,1.035-2.933,2.644-3.338C1086.488,473.219,1085.38,473.956,1083.337,474.596z"></path>
		<path class="colour3" fill="#d71920" d="M1098.576,369.913c0.139,9.224-2.553,17.753-6.384,26.003c-0.585,1.784-1.311,3.481-2.864,4.67
			c-0.218,0.906-0.438,1.81-1.443,2.196c-0.191,0.541-0.381,1.08-0.571,1.621c-0.148-0.126-0.441-0.333-0.424-0.365
			c0.266-0.467,0.571-0.911,0.867-1.36c-0.019-0.981,0.089-1.911,1.037-2.49c-0.025-1.597,0.384-3.03,1.573-4.166
			c3.804-9.503,6.889-19.14,5.267-30.667c-1.592,12.637-5.396,23.472-11.354,33.544c-0.729,11.152-5.279,21.52-6.709,32.529
			c11.96-12.874,21.998-26.751,23.553-45.061C1100.812,380.8,1100.746,375.194,1098.576,369.913z"></path>
		<path class="colour3" fill="#d71920" d="M1093.731,441.601c-0.022,0.03-0.045,0.06-0.067,0.09c0.008,0.018,0.011,0.034,0.021,0.052
			L1093.731,441.601z"></path>
		<path class="colour3" fill="#d71920" d="M1073.694,455.918c-0.723,2.472-1.55,4.929-1.222,7.57c9.27-5.124,15.055-13.632,21.191-21.797
			c-0.102-0.223-0.058-0.415,0.147-0.573c1.063-4.042,2.128-8.086,3.191-12.131C1091.171,439.64,1084.5,449.567,1073.694,455.918z"></path>
	</g>
	<g>
		<path fill-rule="evenodd" clip-rule="evenodd" class="colour2" fill="#262262" d="M1088.857,478.366c-4.963,9.687-13.168,15.038-23.487,17.564
			c-2.249,6.056-4.339,12.176-6.773,18.157c-13.254,32.546-26.817,64.972-36.077,98.98c-0.885,3.248-1.666,5.267,3.07,4.564
			c18.112-2.686,35.834-6.932,52.449-14.679c6.269-2.921,12.708-6.705,14.622-14.405c2.33-9.371,4.235-18.912,3.121-28.567
			C1092.65,532.841,1090.199,505.653,1088.857,478.366z"></path>
		<path fill-rule="evenodd" clip-rule="evenodd" class="colour2" fill="#262262" d="M1070.113,334.345c8.08,20.784,15.33,41.749,14.166,64.559
			c5.959-10.076,9.763-20.911,11.354-33.548c1.622,11.526-1.463,21.163-5.269,30.669c0.608-0.036,1.218-0.073,1.827-0.109
			c3.831-8.25,6.522-16.779,6.384-26.003c-3.944-22.578-13.324-42.859-26.063-61.723c-0.005-1.012,0.01-2.036-1.394-2.141
			c0.222,0.863,0.056,1.976,1.354,2.142C1073.146,317.041,1074.126,325.916,1070.113,334.345z"></path>
		<path fill-rule="evenodd" clip-rule="evenodd" class="colour2" fill="#262262" d="M1101.123,386.368c-1.555,18.31-11.593,32.187-23.553,45.061
			c-1.292,8.164-2.584,16.327-3.876,24.489c10.806-6.351,17.477-16.278,23.309-26.931
			C1099.978,414.935,1102.861,400.875,1101.123,386.368z"></path>
		<path fill-rule="evenodd" clip-rule="evenodd" class="colour2" fill="#262262" d="M1072.473,463.488c-0.266,0.958-0.532,1.916-0.799,2.874
			c8.682-4.352,15.23-11.08,20.908-18.768c1.204-1.803,1.4-3.808,1.158-5.897l0.307-0.248c0,0-0.235-0.33-0.235-0.333
			c-0.205,0.158-0.249,0.35-0.147,0.573C1087.527,449.856,1081.742,458.365,1072.473,463.488z"></path>
	</g>
	<g>
		<path class="colour2" fill="#262262" d="M452.426,1135.097c0.018-0.028,0.035-0.058,0.052-0.086c-0.009-0.013-0.012-0.024-0.021-0.037
			L452.426,1135.097z"></path>
		<path class="colour2" fill="#262262" d="M993.298,1337.403c-3.066-21.473-1.637-43.196-3.58-64.721c-1.253-13.878-1.339-27.867-3.776-41.637
			c-25.764-20.253-48.813-43.129-67.736-70.001c-4.871-4.467-8.927-9.582-12.194-15.322c-0.042-0.026-0.081-0.055-0.123-0.081
			l-0.257-0.332l0.304,0.284c0.024,0.043,0.052,0.085,0.076,0.129c6.273,3.881,11.292,9.027,15.285,15.209
			c16.657,17.156,32.658,35.071,53.984,46.847c0.702-0.743,1.404-1.485,2.105-2.229c-22.771-19.322-40.425-43.353-60.238-65.398
			c-14.326-15.94-28.736-31.806-41.587-48.983c-5.299-7.084-10.159-14.496-15.22-21.76c0.49-0.409,0.98-0.819,1.471-1.229
			c2.102,2.245,4.387,4.347,6.277,6.756c13.481,17.19,28.821,32.62,44.502,47.772c15.962,15.425,31.544,31.246,47.369,46.814
			c6.245,6.146,13.235,11.358,20.933,15.584c-0.195-1.761-0.391-3.521-0.586-5.282c-5.742-8.786-14.289-15.103-20.616-23.388
			c-1.742-2.282-3.498-4.451-4.138-7.418c7.447,4.664,14.086,10.349,22.258,13.516c-1.432-8.415-2.116-16.961-4.448-25.217
			c-33.016-39.443-64.964-79.669-93.045-122.875c-29.933-46.055-53.463-95.232-72.254-146.696
			c-13.73-37.601-26.12-75.668-36.186-114.448c-2.051-7.901-4.172-15.785-7.184-23.381
			c10.349,106.79,43.847,205.581,102.623,295.692c-8.538-8.638-15.035-18.79-21.512-28.848
			c-8.795-13.66-16.788-27.757-23.757-42.558c-4.705-9.993-10.937-19.436-15.875-29.461c-0.771-1.563-1.307-3.243-1.951-4.869
			c-5.142-7.975-8.423-16.698-10.435-25.933c-1.955-4.695-3.91-9.392-5.865-14.086c-0.71-2.238-1.252-4.548-2.153-6.707
			c-20.127-48.213-31.426-98.667-38.435-150.245c-4.098-30.147-3.021-60.335-1.739-90.579c0.711-16.79,1.795-33.507,4.418-50.11
			c0.938-15.395,3.998-30.337,9.541-44.75c-0.001,0,0.025-0.079,0.025-0.079c-0.668-4.077,3-7.493,1.942-12.205
			c-4.444,2.819-3.653,8.698-7.693,11.14c-0.17,0.303-0.291,0.625-0.363,0.965c0.292,1.4,0.01,2.607-1.181,3.509
			c0-0.001-0.018,0.064-0.018,0.064c-2.278,7.267-4.697,14.493-6.809,21.808c-5.588,19.359-11.132,38.783-14.053,58.73
			c-3.658,24.978-8.285,49.862-9.069,75.205c-0.101,3.244-0.07,6.648-1.636,9.708c-0.031,0.767-0.062,1.535-0.093,2.302
			c1.796,6.717,0.597,13.546,0.556,20.302c-0.065,10.735,0.865,21.509-0.738,32.211c-0.299,14.91,0.148,29.779,2.303,44.564
			c0.164,1.133-0.126,2.331-0.205,3.496c0.086,1.516,0.174,3.032,0.262,4.55c0.118,0.209,0.265,0.409,0.343,0.633
			c0.036,0.103-0.062,0.251-0.099,0.379c0.146,0.882,0.292,1.766,0.438,2.648c1.546,2.489,2.314,5.159,1.891,8.107
			c0.11,0.631,0.222,1.263,0.333,1.895c1.693,3.549,2.271,7.345,2.476,11.222c0.121,0.779,0.242,1.561,0.363,2.341
			c2.043,4.476,2.9,9.22,3.19,14.092c0.58,1.255,0.286,2.46-0.213,3.653c5.109,7.954,6.836,17.118,9.304,26.016
			c0.217,0.771,0.434,1.542,0.65,2.313c0.358,1.191,0.716,2.384,1.073,3.573c0-0.001,0.217,0.312,0.217,0.312
			c2.02,2.282,2.936,4.947,2.788,7.983c0.181,0.772,0.362,1.547,0.544,2.32c1.748,3.425,3.938,6.673,4.26,10.666
			c0.853,1.012,1.079,2.179,0.856,3.458c3.463,3.65,4.9,8.196,5.746,13.003l0.184,0.191c0.245,0.564,0.49,1.129,0.735,1.693
			c8.082,21.551,18.155,42.18,28.942,62.478c6.501,12.233,12.748,24.614,19.646,36.621c6.289,10.947,13.366,21.396,20.688,31.743
			c7.559,10.681,14.192,22.066,22.01,32.645c12.144,16.434,24.846,32.413,38.747,47.382c16.306,17.561,31.895,35.737,47.386,54.003
			c3.99,4.706,9.134,8.458,11.883,14.199c0.03,0.019,0.059,0.04,0.089,0.059c0.124,0.083,0.249,0.166,0.374,0.249
			c-0.138-0.069-0.276-0.14-0.413-0.209c-0.016-0.034-0.034-0.065-0.05-0.099c-8.475-5.17-14.906-12.692-21.354-19.902
			c-13.789-15.418-29.021-29.365-43.396-44.174c-17.359-17.885-34.238-36.194-49.462-55.955
			c-10.055-13.053-20.673-25.765-29.66-39.529c-18.481-28.306-38.233-55.781-54.868-85.313
			c-17.454-30.989-35.269-61.753-47.944-95.118c-7.18-18.901-14.107-37.897-18.002-57.833c-0.363-1.859-1.086-3.648-2.247-5.396
			c-0.191,6.781,0.345,13.469,1.576,20.142c6.937,37.606,18.56,73.78,34.155,108.617c5.028,11.231,10.82,22.198,16.517,33.159
			c5.38,10.354,10.81,20.71,16.259,31.043c0.035,0.024,0.067,0.052,0.103,0.076c0.021,0.053,0.042,0.106,0.063,0.159
			c0.2,0.232,0.405,0.46,0.569,0.717c0.052,0.079-0.078,0.275-0.124,0.418c-0.149-0.378-0.297-0.756-0.445-1.135
			c-0.035-0.041-0.071-0.082-0.105-0.123c-0.02-0.037-0.039-0.075-0.06-0.112c-5.911-4.191-8.705-10.773-12.064-16.712
			c-23.684-41.871-46.996-83.956-68.283-127.111c-6.323-12.817-12.5-25.745-17.495-39.177c-5.157-8.084-8.731-16.855-11.345-26.045
			c-0.182-0.425-0.365-0.851-0.548-1.276c-1.495-1.176-2.046-2.745-1.917-4.596c-0.39-0.96-0.78-1.922-1.17-2.884
			c-6.237-13.307-11.95-26.822-16.337-40.867c-0.311-0.675-0.623-1.351-0.934-2.026c-1.872-2.107-2.612-4.651-2.862-7.386
			c-0.472-1.18-0.944-2.36-1.417-3.54c-2.354-3.604-3.589-7.658-4.732-11.748c0.001,0.001-0.115-0.258-0.115-0.258
			c-1.333-1.238-2.154-2.67-1.722-4.572c-0.206-0.45-0.412-0.902-0.618-1.353c-2.901-4.745-5.224-9.735-6.471-15.183
			c-0.491-0.94-0.982-1.882-1.473-2.824c-5.993-12.232-11.824-24.535-16.696-37.269c0,0-0.158-0.272-0.158-0.272
			c-6.435-10.733-11.264-22.18-15.134-34.052c0,0-0.246-0.171-0.246-0.171c-0.539-0.186-1.079-0.372-1.617-0.557
			c-8.841,0.32-17.681,0.815-26.524,0.87c-3.31,0.021-4.454,1.215-4.811,4.313c-1.106,9.571-2.408,19.119-3.658,28.673
			c-4.074,31.152-6.363,62.575-13.401,93.285c-5.309,23.164-10.844,46.287-18.589,68.803c-0.451,13.983-3.954,27.497-6.561,41.128
			c-2.576,13.47-5.583,26.867-8.808,40.197c-5.224,21.589-9.666,43.438-20.052,63.49c2.01-6.773,3.705-13.661,6.088-20.301
			c8.457-23.559,10.547-48.076,11.733-72.808c0.94-19.584,3.016-39.107,3.417-58.727c0.024-1.166,0.003-2.332-0.863-3.597
			c-1.285,9.998-2.125,20.077-3.941,29.978c-4.567,24.904-5.021,50.294-9.241,75.217c-1.411,8.334-3.95,16.424-7.301,24.202
			c-7.688,17.845-10.639,36.867-14.1,55.775c-2.217,12.113-7.525,23.612-7.218,36.224c0.445,4.665,0.753,9.354,1.364,14.002
			c1.888,14.389,0.752,29.005,3.236,43.318c0.49,2.821-2.628,5.597,0.249,8.192c2.021-1.426,1.932-3.787,2.282-5.795
			c2.467-14.157,6.718-27.821,11.184-41.432c-0.511-2.275-1.211-3.007-2.351-0.294c-1.786,4.249-3.578,8.496-5.931,12.544
			c0.651-5.582,1.53-11.048,4.159-16.063c4.595-16.008,8.245-32.359,13.971-47.95c13.937-37.938,22.988-77.19,33.59-116.062
			c7.636-27.994,10.982-56.704,17.558-84.805c4.152-17.746,9.394-35.236,14.11-52.852c4.986-18.626,7.646-37.741,11.841-56.534
			c1.285-5.753,2.33-11.562,3.377-17.364c1.25-6.939,3.02-13.851,2.303-21.382c6.749,13.189,13.515,26.371,20.243,39.571
			c22.48,44.107,37.331,91.276,55.043,137.297c12.011,31.21,27.32,60.962,40.411,91.691c7.165,16.819,14.726,33.444,23.502,49.468
			c18.315,33.438,36.283,67.103,61.636,96.068c5.997,6.852,11.053,14.527,16.542,21.824c7.519,5.293,12.764,12.729,18.553,19.688
			c-7.367-6.043-15.278-11.462-20.902-19.351c-4.3-2.727-6.75-7.629-11.524-9.798c-0.371-0.385-0.742-0.77-1.112-1.155
			c-0.42-0.391-0.84-0.782-1.259-1.172c-3.79-1.713-6.574-4.423-8.201-8.279c-3.165-3.038-6.329-6.077-9.493-9.115
			c-0.787,0.752-1.574,1.505-2.362,2.257c16.396,20.55,32.856,41.048,49.168,61.663c17.308,21.875,38.258,40.231,57.668,60.074
			c2.98,3.047,6.005,6.05,9.009,9.073c7.952,3.777,12.966,10.985,19.305,16.7c-6.979-3.994-13.855-8.094-19.517-13.916
			c-8.297-6.395-16.104-13.544-24.542-19.555c-6.887-4.904-12.783-11.176-20.336-15.134c-4.054-2.126-6.777-5.855-10.397-8.499
			c-0.802,0.495-1.604,0.99-2.407,1.484c9.237,9.828,18.079,20.071,27.819,29.373c10.168,9.711,19.322,20.429,29.653,29.889
			c13.876,12.705,28.647,24.429,42.951,36.671c7.398,6.333,14.615,12.88,22.132,19.523c-3.466,1.19-5.952-0.343-8.209-1.584
			c-26.691-14.671-52.417-30.844-76.997-48.884c-11.192-8.215-20.877-18.075-31.501-26.893c-9.574-7.946-18.651-16.493-28.248-24.41
			c-12.217-10.08-22.898-21.749-34.498-32.458c-1.845-1.703-3.919-3.157-5.887-4.726c0.021-0.81-0.361-1.199-1.159-1.159
			c-0.221,0.962,0.181,1.335,1.156,1.162c-0.425,1.477,0.152,2.522,1.2,3.599c13.788,14.159,26.602,29.264,41.073,42.752
			c3.706,3.454,4.773,9.096,9.832,11.282c3.401-0.064,4.736,2.618,7.521,5.373c-5.596-0.256-9.271-1.897-12.206-5.277
			c-7.671-6.974-16.797-11.917-25.151-17.941c-52.915-38.157-100.833-80.939-132.751-139.176
			c-9.342-17.043-20.084-33.313-29.758-50.183c-4.951-8.634-8.937-17.819-13.418-26.726c-0.768-1.527-1.065-3.439-3.137-4.354
			c-5.083,9.219-10.824,18.154-15.15,27.729c-23.027,50.952-58.049,94.343-88.15,140.833c-5.59,8.634-10.786,17.523-16.162,26.295
			c0.826,1.188-0.089,2.253-0.26,3.371c-1.111,4.617-2.375,9.205-3.279,13.863c-0.565,2.917-1.652,0.409-2.482,0.454
			c-0.32,0.879-0.64,1.757-0.959,2.635c-0.052,5.902-0.302,11.812-0.121,17.708c0.66,21.471-0.294,42.883-2.749,64.198
			c-3.432,29.801-11.069,59.064-10.991,89.339c0.021,8.297-0.071,9.179,8.649,9.165c37.671-0.06,74.768-5.095,111.306-13.936
			c9.979-2.414,19.333-3.256,29.252-0.129c12.119,3.82,24.449,7.002,36.762,10.173c55.481,14.289,109.576,34.221,167.138,40.049
			c27.54,2.789,54.979,6.693,82.68,7.514c23.243,0.688,46.305-1.734,69.35-4.67c21.072-2.685,38.07-12.646,52.822-27.305
			C992.468,1344.589,993.87,1341.405,993.298,1337.403z M955.561,1146.737c0.279,1.276,0.199,2.175-1.472,1.401
			c-2.232-1.606-3.551-3.763-4.48-7.159C952.968,1142.291,954.199,1144.583,955.561,1146.737z M870.497,1029.842
			c0.021,0.052,0.043,0.104,0.064,0.154c0.209,0.23,0.425,0.455,0.599,0.709c0.053,0.078-0.077,0.279-0.123,0.425
			c-0.158-0.377-0.316-0.755-0.476-1.134c-0.034-0.038-0.069-0.075-0.104-0.114c-0.128-0.087-0.256-0.175-0.384-0.263
			C870.215,1029.693,870.356,1029.768,870.497,1029.842z M857.294,1064.251c-4.896-6.25-9.882-12.44-12.677-20.016
			c-0.051-0.058-0.101-0.114-0.15-0.172c-0.025-0.044-0.051-0.088-0.075-0.132c-0.444-0.248-0.888-0.496-1.332-0.745
			c0.189-0.194,0.38-0.39,0.568-0.586c0.254,0.444,0.509,0.888,0.764,1.331c0.044,0.025,0.088,0.05,0.132,0.074
			c0.028,0.078,0.064,0.151,0.094,0.229c5.141,5.888,10.261,11.789,14.047,18.694
			C858.796,1063.98,858.825,1064.928,857.294,1064.251z M859.376,1066.936c-0.444-0.512-1.246-1.04-0.453-1.742
			c0.812-0.722,1.18,0.201,1.622,0.683c0.369,0.544,1.223,1.082,0.427,1.772C860.146,1068.367,859.803,1067.43,859.376,1066.936z
			 M450.543,1060.832c-0.125-0.324-0.36-0.654-0.344-0.972c0.016-0.318,0.284-0.622,0.441-0.934c0.13,0.322,0.261,0.645,0.391,0.966
			C450.866,1060.217,450.705,1060.525,450.543,1060.832z M462.553,964.819c0,0.007-0.223,0.002-0.341,0.003
			c0.005-0.355,0.009-0.71,0.032-1.063c0-0.008,0.22-0.001,0.338-0.001C462.568,964.109,462.569,964.465,462.553,964.819z"></path>
		<path class="colour2" fill="#262262" d="M805.349,696.842c0.054,1.17,0.108,2.342,0.162,3.512c1.266,7.046,4.858,13.817,2.506,21.289
			c0.092,0.729,0.185,1.456,0.276,2.185c1.176,1.089,0.895,2.425,0.638,3.758c0.262,3.108,0.522,6.216,0.785,9.323
			c0.059,0.832,0.118,1.665,0.177,2.498c1.132,2.623,1.29,5.377,1.11,8.177c0.063,0.807,0.125,1.615,0.188,2.424
			c0.898,1.108,1.014,2.304,0.397,3.579c0.143,0.981,0.285,1.963,0.428,2.945c0.925,2.421,1.39,4.887,0.73,7.463
			c0.323,2.466,0.646,4.933,0.968,7.399c0.901,1.396,1.184,2.891,0.723,4.504c0.149,1.599,0.298,3.197,0.447,4.796
			c0.715,1.485,1.063,3.033,0.801,4.684c0.093,0.808,0.186,1.615,0.278,2.423c0.885,1.098,1.152,2.288,0.546,3.611
			c0.239,1.541,0.479,3.084,0.717,4.627c1.897,4.917,1.636,10.167,2.35,15.267c5.423,25.979,11.524,51.751,19.548,77.104
			c11.731,37.073,23.604,74.031,43.503,107.765c9.468,16.05,18.646,32.313,28.982,47.795c12.518,18.747,24.676,37.774,38.513,55.622
			c7.304,9.422,14.534,18.9,21.797,28.353c-1.227-7.849-2.454-15.698-3.682-23.547c-0.629-0.369-0.86-0.882-0.574-1.581
			c-0.183-0.659-0.364-1.317-0.547-1.977c-5.47-10.553-10.94-21.104-16.41-31.655c6.132,4.446,8.695,11.705,14.528,16.196
			c-2.582-21.162-4.151-42.404-5.129-63.696c-15.828-24.284-33.185-47.582-47.133-73.078c-3.753-3.092-5.414-7.508-7.419-11.707
			c-7.331-11.107-13.745-22.739-19.702-34.63c-1.531,0.291-1.196,1.697-1.595,2.665c1.967,8.03,5.668,15.388,9.094,22.819
			c16.133,34.998,35.023,68.506,55.156,101.332l-0.012,0.09c1.633,1.434,3.068,2.979,3.006,5.363
			c3.562,1.529,2.528,5.938,5.021,8.137c0.065,0.039,0.124,0.084,0.19,0.123c1.207,0.411,1.417,1.303,1.158,2.419
			c-1.219-0.388-1.456-1.256-1.172-2.381c-0.064-0.051-0.116-0.108-0.177-0.161c-3.66-2.215-6.162-5.46-8.124-9.189
			c-0.376-0.463-0.753-0.925-1.13-1.389c-1.579-0.687-2.531-1.853-2.739-3.585c-0.27-0.392-0.538-0.783-0.808-1.175
			c-0.647-0.092-0.968-0.428-0.828-1.105l-0.248-0.369c-0.561,0.008-0.753-0.224-0.491-0.751c-1.018-1.306-2.036-2.611-3.054-3.918
			c-1.281-0.698-2.06-1.743-2.218-3.215c0.001,0-0.187-0.261-0.187-0.261c-0.631,0.018-0.884-0.263-0.7-0.887
			c-0.545-0.884-1.09-1.767-1.635-2.65c-1.302-0.702-2.13-1.744-2.319-3.242c-0.53-1.067-1.063-2.134-1.594-3.202
			c-1.209-0.538-1.818-1.448-1.72-2.794c-0.305-0.266-0.459-0.602-0.465-1.007c-0.697-0.185-0.985-0.588-0.697-1.3
			c-0.429-0.85-0.859-1.701-1.288-2.553c-0.11,0.082-0.223,0.164-0.333,0.246c-0.073-0.165-0.209-0.336-0.199-0.496
			c0.012-0.155,0.174-0.302,0.27-0.453c-0.569-0.873-1.139-1.747-1.709-2.622c-1.571-0.231-2.054-1.124-1.574-2.6
			c-2.708,0.629-3.164-1.892-4.143-3.295c-28.208-40.462-50.978-83.685-67.134-130.407c-7.766-22.46-14.897-45.078-20.131-68.229
			c-5.091-22.52-9.335-45.229-13.9-67.867c-0.267-1.321-0.082-2.733-0.107-4.105c0.116-0.376,0.093-0.741-0.068-1.099
			c-1.001-0.623-1.097-1.491-0.679-2.498c-0.17-0.719-0.339-1.438-0.509-2.159c-0.586-0.383-0.815-0.856-0.381-1.499
			c-0.164-0.679-0.33-1.358-0.495-2.037c-0.916-0.622-1.457-1.321-0.486-2.336c-0.296-1.585-0.591-3.169-0.887-4.754
			c-1.706-4.213-2.712-8.515-1.629-13.075c-0.084-0.708-0.169-1.417-0.253-2.125c-0.557-0.454-0.604-0.973-0.199-1.549
			c-0.021-0.712-0.043-1.424-0.064-2.136c-1.983-6.271-1.677-12.635-0.774-19.023c-0.002-0.702-0.005-1.403-0.008-2.105
			c-1.03-1.258-1.02-2.532-0.056-3.819c-0.029-0.7-0.058-1.4-0.086-2.101c-0.944-1.317-0.755-2.631,0.015-3.941
			c-0.013-0.61-0.026-1.219-0.039-1.83c-0.834-1.334-0.87-2.646,0.114-3.927c-0.009-0.701-0.018-1.402-0.026-2.104
			c-0.992-1.3-0.961-2.571,0.104-3.814c-0.001-0.697-0.002-1.394-0.003-2.091c-0.369-0.877-0.738-1.755-1.555-3.695
			c-0.729,8.807-1.375,16.632-2.029,24.526c-2.211-0.372-1.927-2.62-2.937-3.857c-0.431,9.699-0.445,19.395,0.083,29.088
			C806.642,689.653,805.748,693.268,805.349,696.842z"></path>
		<path class="colour2" fill="#262262" d="M922.73,994.156L922.73,994.156c0.024-0.005,0.047-0.006,0.072-0.013L922.73,994.156z"></path>
		<path class="colour2" fill="#262262" d="M441.78,857.503c-0.651,16.511-2.395,32.974-2.216,49.521c6.156,22.004,7.354,44.333,4.513,66.951
			c-0.901,7.178-2.325,14.309-2.201,21.591c0.331-0.889,0.763-1.755,0.978-2.672c3.58-15.259,4.069-30.971,6.772-46.357
			c3.416-19.448,6.96-38.879,7.384-58.704c-1.549-5.024-0.827-10.024,0.16-15.021c0.094-1.993,0.188-3.986,0.282-5.98
			c-0.474-2.801-0.371-5.545,0.804-8.183c0.089-0.815,0.179-1.631,0.268-2.447c-0.426-2.426-0.238-4.775,0.883-7.005
			c0.069-0.816,0.138-1.635,0.207-2.453c-0.294-3.146-0.194-6.246,1.072-9.21c0.087-0.858,0.174-1.718,0.262-2.577
			c-0.196-2.788-0.448-5.582,0.817-8.223c2.048-35.136-0.455-70.053-5.315-105.313c-0.063,0.044-0.124,0.09-0.194,0.129
			c-0.892,0.497-1.371-0.195-1.517-1.04c-0.399-2.325-0.76-4.656-1.159-6.982c-4.353-25.408-8.794-50.805-19.648-74.484
			c-5.405-11.79-11.369-23.332-16.498-35.237c-1.957-4.541-4.776-6.679-9.815-7.625c2.782,10.079,5.685,19.725,10.459,28.451
			c17.067,31.198,23.661,65.545,28.053,99.962C451.783,768.891,448.137,813.354,441.78,857.503z"></path>
		<path class="colour2" fill="#262262" d="M456.091,718.8c0.123,0.874,0.238,1.747,0.359,2.621C457.206,720.896,457.384,720.063,456.091,718.8z"></path>
		<path class="colour2" fill="#262262" d="M439.829,845.443c0.045-1.145,0.434-2.277,0.662-3.415c0.07-1.951,0.141-3.903,0.212-5.854
			c-0.439-3.623-0.492-7.211,1.001-10.652c0.087-0.775,0.174-1.552,0.262-2.328c-0.415-1.746-0.256-3.396,0.823-4.891
			c0.575-9.816,1.727-19.64,1.612-29.447c-0.284-24.354,1.403-48.847-4.098-72.916c-1.652,2.752-0.816,5.763-0.657,8.608
			c1.25,22.246,2.216,44.499,2.077,66.786c-0.013,2.068,0.617,4.366-1.23,6.106l0.015,0.404c0.04,2.627,0.814,5.362-1.131,7.699
			c-1.521,5.294-2.06,10.763-2.297,16.204c-1.083,24.84-2.615,49.688,0,74.53c1.996-1.498,0.944-3.631,1.021-5.457
			C438.729,875.698,439.239,860.568,439.829,845.443z"></path>
		<path class="colour2" fill="#262262" d="M763.109,522.915c2.291-0.601,3.591-8.119,2.035-10.661c-1.233,2.765-2.468,5.53-3.701,8.295
			C762.054,521.332,761.462,523.346,763.109,522.915z"></path>
		<path class="colour2" fill="#262262" d="M727.51,1118.512c-0.411,0.392-0.823,0.783-1.235,1.175c0.427-0.03,0.854-0.061,1.28-0.091
			C727.723,1119.23,727.712,1118.868,727.51,1118.512z"></path>
		<path class="colour2" fill="#262262" d="M727.555,1119.596c-0.007,0.015-0.009,0.029-0.017,0.044l0.051-0.047
			C727.577,1119.594,727.566,1119.595,727.555,1119.596z"></path>
		<path class="colour2" fill="#262262" d="M727.538,1119.64c0.017-0.001,0.026,0.004,0.042,0.003c0.004-0.018,0.004-0.031,0.009-0.049
			C727.589,1119.593,727.538,1119.64,727.538,1119.64z"></path>
	</g>
	<g>
		<path fill-rule="evenodd" clip-rule="evenodd" class="colour3" fill="#d71920" d="M959.69,1156.436c6.327,8.285,14.874,14.602,20.616,23.388
			c-0.831-5.763-1.664-11.526-2.496-17.29c-8.172-3.167-14.811-8.852-22.258-13.516
			C956.192,1151.984,957.948,1154.153,959.69,1156.436z"></path>
		<path fill-rule="evenodd" clip-rule="evenodd" class="colour3" fill="#d71920" d="M848.996,1203.562c-10.331-9.46-19.485-20.178-29.653-29.889
			c-9.74-9.302-18.582-19.545-27.818-29.373c0,0,0,0-0.001,0c0.803-0.494,1.605-0.989,2.407-1.484
			c-4.043-3.468-7.976-7.101-13.126-8.935c0-0.001-0.001-0.001-0.001-0.002l0,0c-0.018-0.038-0.041-0.072-0.059-0.111l-0.061,0.063
			h-0.001c0,0.002,0.062-0.063,0.062-0.063c0.018,0.039,0.041,0.072,0.059,0.111c5.151,1.835,9.084,5.468,13.127,8.937
			c3.62,2.644,6.344,6.373,10.397,8.499c7.553,3.958,13.449,10.229,20.336,15.134c8.438,6.011,16.245,13.16,24.542,19.555
			c5.661,5.822,12.538,9.922,19.517,13.916c-6.339-5.715-11.353-12.923-19.305-16.7c-3.004-3.023-6.028-6.026-9.009-9.073
			c-19.41-19.843-40.36-38.199-57.668-60.074c-16.312-20.615-32.772-41.113-49.168-61.663c0.788-0.752,1.575-1.505,2.362-2.257
			c3.164,3.038,6.328,6.077,9.493,9.115c1.627,3.856,4.411,6.566,8.201,8.279c0.419,0.39,0.839,0.781,1.259,1.172
			c0.37,0.386,0.741,0.771,1.112,1.155c4.774,2.169,7.225,7.071,11.524,9.798c5.624,7.889,13.535,13.308,20.902,19.351
			c-5.789-6.96-11.034-14.396-18.554-19.688c-5.488-7.297-10.544-14.973-16.541-21.824c-25.353-28.966-43.32-62.63-61.636-96.068
			c-8.776-16.023-16.337-32.648-23.502-49.468c-13.091-30.729-28.4-60.481-40.411-91.691
			c-17.713-46.021-32.563-93.189-55.043-137.297c-6.728-13.2-13.494-26.382-20.243-39.571c0.716,7.531-1.053,14.443-2.303,21.382
			c-1.047,5.802-2.092,11.611-3.377,17.364c-4.195,18.793-6.854,37.908-11.841,56.534c-4.716,17.615-9.958,35.105-14.11,52.852
			c-6.576,28.101-9.922,56.811-17.558,84.805c-10.602,38.871-19.653,78.124-33.59,116.062c-5.727,15.591-9.376,31.942-13.971,47.95
			c-2.628,5.015-3.508,10.48-4.159,16.063c2.353-4.048,4.145-8.295,5.931-12.544c1.14-2.713,1.84-1.981,2.351,0.294
			c-4.465,13.61-8.716,27.274-11.183,41.432c-0.35,2.008-0.262,4.369-2.282,5.795c-0.702,3.551-0.485,7.12-1.841,10.757
			c-1.089,2.923-1.71,7.134,0.93,10.362c-0.898,4.621-1.93,9.229-1.224,13.988c0.41,9.608,0.819,19.218,1.228,28.826
			c0.319-0.878,0.639-1.756,0.959-2.635c0.83-0.045,1.917,2.463,2.482-0.454c0.904-4.658,2.167-9.246,3.279-13.863
			c0.17-1.118,1.086-2.183,0.26-3.371c5.375-8.771,10.571-17.661,16.162-26.295c30.101-46.49,65.123-89.881,88.15-140.833
			c4.327-9.575,10.068-18.511,15.15-27.729c2.072,0.915,2.369,2.827,3.137,4.354c4.482,8.906,8.467,18.092,13.418,26.726
			c9.674,16.87,20.416,33.14,29.758,50.183c31.918,58.236,79.837,101.019,132.751,139.176c8.354,6.024,17.48,10.968,25.151,17.941
			c2.935,3.38,6.61,5.021,12.206,5.277c-2.784-2.755-4.119-5.438-7.523-5.373c-5.056-2.187-6.123-7.828-9.829-11.282
			c-14.472-13.488-27.285-28.593-41.073-42.752c-1.048-1.076-1.625-2.122-1.2-3.599c-0.976,0.173-1.377-0.2-1.156-1.162
			c-0.016,0.001-0.025-0.004-0.042-0.003c0.007-0.015,0.01-0.029,0.017-0.044c-0.428,0.03-0.854,0.061-1.28,0.091
			c0.412-0.392,0.824-0.783,1.235-1.175c0.202,0.357,0.213,0.72,0.045,1.084c0.011,0,0.022-0.001,0.034-0.002
			c-0.005,0.018-0.005,0.031-0.009,0.049c0.798-0.04,1.181,0.35,1.159,1.159c1.968,1.568,4.042,3.022,5.887,4.726
			c11.6,10.709,22.281,22.378,34.498,32.458c9.597,7.917,18.674,16.464,28.248,24.41c10.624,8.817,20.309,18.678,31.501,26.893
			c24.58,18.04,50.306,34.213,76.997,48.884c2.257,1.241,4.743,2.774,8.209,1.584c-7.517-6.644-14.733-13.19-22.132-19.523
			C877.644,1227.99,862.872,1216.267,848.996,1203.562z M452.438,1134.989C452.438,1134.989,452.438,1134.989,452.438,1134.989
			c-0.014,0.011-0.023,0.021-0.037,0.03C452.415,1135.01,452.423,1134.999,452.438,1134.989c0.002-0.029,0.007-0.058,0.01-0.086
			C452.445,1134.932,452.44,1134.96,452.438,1134.989L452.438,1134.989z M780.952,1134.155c1.106,2.291,2.659,4.125,4.456,5.709
			C783.611,1138.28,782.059,1136.445,780.952,1134.155z"></path>
		<path fill-rule="evenodd" clip-rule="evenodd" class="colour3" fill="#d71920" d="M980.893,1185.105c-7.697-4.226-14.688-9.438-20.933-15.584
			c-15.825-15.568-31.407-31.39-47.369-46.814c-15.681-15.152-31.021-30.582-44.502-47.772c-1.891-2.409-4.176-4.511-6.277-6.756
			c-0.49,0.41-0.98,0.82-1.471,1.229c5.061,7.264,9.921,14.676,15.22,21.76c12.851,17.178,27.261,33.043,41.587,48.983
			c19.813,22.046,37.467,46.076,60.238,65.398c-0.701,0.743-1.403,1.485-2.105,2.229c-21.326-11.775-37.327-29.69-53.984-46.847
			c-3.993-6.182-9.012-11.328-15.285-15.209c3.268,5.74,7.323,10.855,12.194,15.322c18.923,26.872,41.973,49.748,67.736,70.001
			C985.935,1215.548,982.928,1200.381,980.893,1185.105z"></path>
		<path fill-rule="evenodd" clip-rule="evenodd" class="colour3" fill="#d71920" d="M950.705,1069.183c5.47,10.552,10.94,21.103,16.41,31.655
			c-0.627-5.153-1.255-10.306-1.882-15.459C959.4,1080.888,956.837,1073.629,950.705,1069.183z"></path>
		<path fill-rule="evenodd" clip-rule="evenodd" class="colour3" fill="#d71920" d="M947.267,1032.096c0.409-0.974,0.817-1.948,1.227-2.923
			c0.001,0.001,0.013-0.089,0.013-0.089c-1.326-0.191-2.651-0.382-3.979-0.573C944.735,1030.243,945.688,1031.409,947.267,1032.096z
			"></path>
		<path fill-rule="evenodd" clip-rule="evenodd" class="colour3" fill="#d71920" d="M942.644,1025.861l-0.026-0.522c0,0-0.464-0.229-0.465-0.229
			C941.891,1025.638,942.083,1025.869,942.644,1025.861z"></path>
		<path fill-rule="evenodd" clip-rule="evenodd" class="colour3" fill="#d71920" d="M943.72,1027.336c-0.276-0.368-0.553-0.736-0.828-1.105
			C942.752,1026.908,943.072,1027.244,943.72,1027.336z"></path>
		<path fill-rule="evenodd" clip-rule="evenodd" class="colour3" fill="#d71920" d="M968.236,1104.396c0.26-0.692,0.087-1.226-0.574-1.581
			C967.376,1103.514,967.607,1104.026,968.236,1104.396z"></path>
		<path fill-rule="evenodd" clip-rule="evenodd" class="colour3" fill="#d71920" d="M844.616,1044.233c-0.029-0.077-0.064-0.149-0.093-0.228
			l-0.056,0.058C844.518,1044.12,844.566,1044.177,844.616,1044.233z"></path>
		<path fill-rule="evenodd" clip-rule="evenodd" class="colour3" fill="#d71920" d="M843.628,1042.601c-0.188,0.196-0.379,0.392-0.568,0.586
			c0.444,0.249,0.888,0.497,1.332,0.745C844.137,1043.488,843.882,1043.045,843.628,1042.601z"></path>
		<path fill-rule="evenodd" clip-rule="evenodd" class="colour3" fill="#d71920" d="M844.523,1044.006c-0.044-0.024-0.088-0.049-0.132-0.074
			c0.024,0.044,0.05,0.088,0.075,0.132C844.468,1044.063,844.523,1044.006,844.523,1044.006z"></path>
		<path fill-rule="evenodd" clip-rule="evenodd" class="colour3" fill="#d71920" d="M451.03,1059.901c-0.129-0.33-0.26-0.652-0.39-0.975
			c-0.157,0.312-0.425,0.615-0.441,0.934c-0.016,0.317,0.219,0.647,0.344,0.972C450.705,1060.525,450.866,1060.217,451.03,1059.901z
			"></path>
		<path fill-rule="evenodd" clip-rule="evenodd" class="colour3" fill="#d71920" d="M859.372,1066.938c0.392-0.354,0.782-0.708,1.173-1.062
			c-0.442-0.481-0.811-1.404-1.622-0.683C858.13,1065.896,858.932,1066.424,859.372,1066.938z"></path>
		<path fill-rule="evenodd" clip-rule="evenodd" class="colour3" fill="#d71920" d="M860.972,1067.648c0.796-0.69-0.058-1.229-0.427-1.772
			c-0.391,0.354-0.781,0.708-1.17,1.061C859.803,1067.43,860.146,1068.367,860.972,1067.648z"></path>
		<path fill-rule="evenodd" clip-rule="evenodd" class="colour3" fill="#d71920" d="M905.631,1145.31l0.257,0.332
			c0.042,0.026,0.081,0.055,0.123,0.081c-0.024-0.044-0.052-0.086-0.076-0.129L905.631,1145.31z"></path>
		<path fill-rule="evenodd" clip-rule="evenodd" class="colour3" fill="#d71920" d="M955.561,1146.737c-1.361-2.154-2.593-4.446-5.952-5.758
			c0.93,3.396,2.248,5.553,4.48,7.159C955.76,1148.912,955.84,1148.014,955.561,1146.737z"></path>
		<path fill-rule="evenodd" clip-rule="evenodd" class="colour3" fill="#d71920" d="M858.664,1062.93c-3.787-6.906-8.907-12.809-14.048-18.696
			c2.795,7.575,7.781,13.767,12.678,20.018C858.825,1064.928,858.796,1063.98,858.664,1062.93z"></path>
		<path fill-rule="evenodd" clip-rule="evenodd" class="colour3" fill="#d71920" d="M956.711,1042.796c-0.067-0.04-0.127-0.086-0.193-0.126
			c0.061,0.055,0.114,0.113,0.18,0.165L956.711,1042.796z"></path>
		<path fill-rule="evenodd" clip-rule="evenodd" class="colour3" fill="#d71920" d="M956.518,1042.67c-2.488-2.2-1.458-6.604-5.018-8.133
			c-1.034-0.352-2.068-0.702-3.104-1.053C950.357,1037.213,952.859,1040.457,956.518,1042.67z"></path>
		<path fill-rule="evenodd" clip-rule="evenodd" class="colour3" fill="#d71920" d="M957.865,1045.218l0.009-0.005
			c0.254-1.113,0.044-2.005-1.163-2.416c0-0.001-0.014,0.038-0.014,0.038C956.413,1043.96,956.65,1044.828,957.865,1045.218z"></path>
	</g>
	<g>
		<path fill-rule="evenodd" clip-rule="evenodd" class="colour4" fill="#bcbec0" d="M950.121,1099.59c-13.837-17.848-25.995-36.875-38.513-55.622
			c-10.337-15.481-19.515-31.745-28.982-47.795c-19.898-33.733-31.771-70.691-43.503-107.765
			c-8.023-25.353-14.125-51.125-19.549-77.103c-3.536-4.434-3.65-9.949-4.788-15.14c-1.959-7.545-3.919-15.09-5.879-22.636
			c-1.061-1.003-1.174-2.223-0.806-3.55c-2.599-7.064-2.944-14.613-4.688-21.868c-4.267-17.748-8.863-35.443-11.451-53.537
			c-3.423-23.934-4.3-47.97-2.569-72.125c0.968-13.517,4.469-26.653,4.757-40.309c0.689-32.704,7.998-64.635,12.321-96.918
			c0.521-3.889,2.242-7.434,2.544-11.453c0.933-12.452,2.13-24.899,3.375-37.31c1.227-12.217,0.48-24.28,0.306-36.416
			c-2.108-1.429,0.04-5.342-3.473-5.955c1.148,11.091-0.048,22.121-0.888,33.16c0.574,2.152,1.115,4.3-0.726,6.164
			c-0.227,1.268-0.453,2.54-0.68,3.812c1.028,1.139,0.853,2.143-0.341,3.029c-0.614,4.079-1.221,8.163-1.844,12.245
			c-4.71,30.867-17.834,59.34-25.504,89.387c-3.839,15.039-8.092,29.929-10.233,45.335c-3.544,25.489-7.799,50.878-10.354,76.507
			c-4.143,41.546,3.407,82.343,8.436,123.208c2.435,19.781,8.149,39.178,13.822,58.421c3.379,11.461,7.877,22.621,9.803,34.497
			c3.38,3.308,3.596,7.934,5.03,12.053c2.826,9.323,5.653,18.646,8.479,27.968c0.644,1.624,1.18,3.304,1.95,4.867
			c4.938,10.025,11.17,19.468,15.875,29.461c6.969,14.801,14.962,28.897,23.757,42.558c6.477,10.058,12.974,20.21,21.512,28.848
			c-58.776-90.111-92.274-188.902-102.623-295.692c3.012,7.596,5.133,15.479,7.184,23.381
			c10.065,38.78,22.455,76.848,36.186,114.448c18.791,51.464,42.321,100.642,72.254,146.696
			c28.081,43.206,60.029,83.432,93.045,122.875c0.04-3.205-0.16-6.373-1.444-9.374
			C964.655,1118.49,957.425,1109.012,950.121,1099.59z"></path>
		<path fill-rule="evenodd" clip-rule="evenodd" class="colour4" fill="#bcbec0" d="M947.166,1209.303c0.016,0.033,0.034,0.064,0.05,0.099
			c0.137,0.069,0.275,0.14,0.413,0.209c-0.125-0.083-0.25-0.166-0.374-0.249C947.225,1209.343,947.196,1209.321,947.166,1209.303z"></path>
		<path fill-rule="evenodd" clip-rule="evenodd" class="colour4" fill="#bcbec0" d="M887.897,1141.101c-13.901-14.969-26.604-30.948-38.747-47.382
			c-7.817-10.578-14.451-21.964-22.01-32.645c-7.322-10.347-14.399-20.796-20.688-31.743c-6.897-12.007-13.145-24.388-19.646-36.621
			c-10.787-20.298-20.86-40.927-28.942-62.478c-0.247-0.566-0.494-1.133-0.738-1.695c0.003,0.002-0.181-0.189-0.181-0.189
			c-3.345-1.87-4.671-5.308-6.489-8.358c-2.288-3.393-4.499-6.844-6.871-10.179c-26.031-36.609-46.071-76.215-59.796-119.014
			c-11.51-35.896-21.404-72.248-30.898-108.714c-6.119-23.498-11.838-47.092-16.329-72.14c-2.87,6.313-7.104,9.323-12.858,10.178
			c-1.787,6.137,0.538,12.039,1.112,18.028c0.783,8.176,3.234,16.138,3.276,24.422c0.055,0.796,0.111,1.594,0.167,2.391
			c1.255,1.413,1.372,3.03,0.85,4.759c0.066,0.782,0.134,1.563,0.201,2.345c1.225,1.421,1.482,3.019,0.861,4.773
			c0.043,1.176,0.085,2.354,0.128,3.53c2.137,2.925,1.424,6.206,1.183,9.428c0.002,1.188,0.004,2.375,0.006,3.563
			c1.355,0.927,1.44,2.18,0.922,3.588c0.126,1.157,0.254,2.316,0.381,3.474c1.271,0.941,1.423,2.179,0.951,3.582
			c0.081,0.773,0.163,1.546,0.245,2.319c1.38,0.929,1.451,2.185,0.896,3.596c0.028,0.78,0.055,1.562,0.082,2.342
			c1.319,0.917,1.569,2.044,0.664,3.395c0.044,0.795,0.089,1.59,0.133,2.386c2.401,2.889,1.647,6.282,1.531,9.572
			c0.076,0.776,0.152,1.554,0.229,2.33c1.406,1.339,1.653,2.887,0.837,4.627c0.001,0.625,0.003,1.25,0.003,1.875
			c2.478,4.662,2.073,9.797,2.424,14.807c0.019,0.788,0.037,1.576,0.056,2.365c2.143,4.503,2.303,9.325,2.288,14.176
			c0.057,0.777,0.114,1.557,0.171,2.334c1.192,0.948,1.639,2.043,0.678,3.417c0.074,1.037,0.149,2.075,0.224,3.114
			c2.028,2.256,1.461,4.994,1.418,7.634c0.046,0.784,0.092,1.568,0.138,2.353c1.158,0.955,1.568,2.068,0.728,3.445
			c0.038,0.63,0.076,1.261,0.114,1.892c2.866,7.765,3.772,15.879,4.297,24.062c4.996,13.432,11.173,26.359,17.496,39.177
			c21.287,43.155,44.6,85.24,68.283,127.111c3.359,5.938,6.153,12.521,12.064,16.712c-5.449-10.333-10.879-20.689-16.259-31.043
			c-5.696-10.961-11.488-21.928-16.517-33.159c-15.596-34.837-27.218-71.011-34.155-108.617c-1.231-6.673-1.767-13.36-1.576-20.142
			c1.16,1.748,1.883,3.537,2.247,5.396c3.895,19.936,10.822,38.932,18.002,57.833c12.675,33.365,30.49,64.129,47.944,95.118
			c16.635,29.531,36.387,57.007,54.868,85.313c8.987,13.765,19.605,26.477,29.66,39.529c15.224,19.761,32.103,38.07,49.462,55.955
			c14.375,14.809,29.607,28.756,43.396,44.174c6.447,7.21,12.879,14.732,21.354,19.902c-2.749-5.741-7.893-9.493-11.883-14.199
			C919.792,1176.838,904.203,1158.661,887.897,1141.101z"></path>
		<path fill-rule="evenodd" clip-rule="evenodd" class="colour4" fill="#bcbec0" d="M903.563,925.003c1.337,2.956,0.83,6.697,3.813,8.943
			c2.979,4.461,5.627,9.048,5.596,14.658c13.947,25.496,31.304,48.794,47.132,73.078c0.069-3.912,0.183-7.826,0.201-11.739
			c0.058-11.752,0.079-23.503,0.115-35.255c-1.03,0.328-1.231-0.392-1.534-1.129c-12.638-30.713-26.545-60.873-41.729-90.38
			c-14.469-28.119-25.241-57.509-34.219-87.714c-5.506-18.521-7.195-37.827-12.333-56.399c-0.952-0.697-0.969-1.527-0.349-2.446
			c-1.891-9.817-3.784-19.638-5.677-29.458c-0.866-0.52-1.189-1.111-0.24-1.862c-0.698-4.093-1.398-8.188-2.099-12.284
			c-0.938-0.513-1.19-1.116-0.246-1.872c-0.277-1.729-0.556-3.461-0.834-5.193c-1.028-0.521-1.091-1.154-0.22-1.892
			c-0.337-2.524-0.674-5.051-1.011-7.579c-0.943-0.526-1.184-1.132-0.211-1.871c-0.326-2.913-0.652-5.829-0.98-8.746
			c-0.938-0.547-1.188-1.163-0.192-1.903c-0.344-4.108-0.688-8.221-1.031-12.333c-1.305-2.128-1.252-4.303-0.227-6.508
			c-0.315-9.631-0.632-19.266-0.947-28.901c-1.184-0.959-1.241-1.968-0.133-3.024c-0.029-0.956-0.058-1.916-0.088-2.876
			c-0.953-0.609-0.963-1.229-0.02-1.856c0.007-0.955,0.014-1.914,0.021-2.872c-0.898-0.605-0.987-1.223-0.03-1.854
			c0.032-4.509,0.065-9.021,0.098-13.533c-1.187-2.206-1.162-4.383,0.152-6.526c0.349-5.29,0.698-10.584,1.048-15.878
			c-0.983-0.673-0.767-1.28,0.1-1.85c0.327-3.321,0.656-6.645,0.983-9.97c-0.722-0.412-1.444-0.824-2.165-1.239
			c-5.725,30.463-6.566,61.339-7.617,92.188c-1.053,30.949,2.37,61.587,6.29,92.228
			C863.175,803.219,876.803,865.816,903.563,925.003z"></path>
		<path fill-rule="evenodd" clip-rule="evenodd" class="colour4" fill="#bcbec0" d="M491.704,623.897c-1.081-6.935-5.933-4.5-9.322-4.771
			c-4.789-0.384-2.265,3.587-2.138,5.543c1.489,23.135,5.3,46.148,3.578,69.448c-1.117,15.113-1.641,30.249-1.773,45.398
			c-0.239,27.63-2.774,54.998-9.667,81.822c-4.502,17.52-9.232,34.979-12.899,52.701c-0.433,4.668-1.006,9.312-2.473,13.795
			c-0.423,19.825-3.968,39.256-7.384,58.704c-2.703,15.387-3.192,31.099-6.772,46.357c-0.215,0.917-0.646,1.783-0.978,2.672
			c-2.092,10.085-2.118,20.191-0.32,30.321c-0.307-12.611,5.001-24.11,7.218-36.224c3.461-18.908,6.412-37.931,14.1-55.775
			c3.351-7.778,5.89-15.868,7.301-24.202c4.22-24.923,4.674-50.313,9.241-75.217c1.815-9.9,2.656-19.979,3.941-29.978
			c0.866,1.265,0.887,2.431,0.863,3.597c-0.401,19.619-2.478,39.143-3.417,58.727c-1.187,24.731-3.276,49.249-11.733,72.808
			c-2.384,6.64-4.078,13.527-6.088,20.301c10.386-20.053,14.828-41.901,20.052-63.49c3.225-13.33,6.232-26.728,8.808-40.197
			c2.607-13.631,6.11-27.145,6.561-41.128c-0.581-6.296,0.585-12.432,1.395-18.644c2.897-22.23,4.544-44.451,2.029-66.945
			C497.897,694.375,497.164,658.92,491.704,623.897z"></path>
		<path fill-rule="evenodd" clip-rule="evenodd" class="colour4" fill="#bcbec0" d="M831.323,792.227c5.233,23.15,12.365,45.769,20.131,68.229
			c16.156,46.723,38.926,89.945,67.134,130.407c0.979,1.403,1.435,3.924,4.143,3.295c-0.479,1.476,0.003,2.368,1.574,2.6
			c0.069-1.226-0.283-2.196-1.572-2.6c0.024-0.006,0.046-0.008,0.07-0.014c0.316-2.181-1.241-3.647-2.114-5.343
			c-13.399-26.036-28.604-51.18-40.402-77.992c-20.527-46.65-37.234-94.687-49.938-144.098
			c-4.002-15.572-7.585-31.283-13.033-46.457c0.025,1.372-0.159,2.784,0.107,4.105C821.988,746.997,826.232,769.707,831.323,792.227
			z"></path>
		<path fill-rule="evenodd" clip-rule="evenodd" class="colour4" fill="#bcbec0" d="M440.494,797.44c1.847-1.74,1.217-4.038,1.23-6.106
			c0.139-22.287-0.827-44.54-2.077-66.786c-0.16-2.846-0.995-5.856,0.657-8.608c-1.167-6.558-2.407-13.104-3.489-19.678
			c-3.041-18.473-6.5-36.738-17.036-52.863c-9.978-15.272-15.707-32.479-21.432-49.635c-1.468-4.399-1.332-4.444-5.998-6.739
			c4.533,21.326,10.488,41.938,21.741,60.785c8.269,13.849,12.151,28.847,9.748,45.177c-2.184,14.838-0.77,29.449,4.44,43.51
			C435.577,756.193,442.993,775.806,440.494,797.44z"></path>
		<path fill-rule="evenodd" clip-rule="evenodd" class="colour4" fill="#bcbec0" d="M960.431,974.473c-0.005,0.032-0.01,0.065-0.015,0.098
			c0.002,0.003,0.004,0.024,0.005,0.045c0,0.024,0,0.049,0,0.073c0.002,0,0.003,0,0.005-0.001
			C960.43,974.615,960.428,974.545,960.431,974.473z"></path>
		<path fill-rule="evenodd" clip-rule="evenodd" class="colour4" fill="#bcbec0" d="M957.826,932.445c-3.813-8.628-7.002-17.539-10.998-26.077
			c-10.92-23.319-22.552-46.315-31.568-70.487c-0.631,0.08-1.263,0.16-1.894,0.237c2.282,7.729,4.109,15.63,6.93,23.159
			c11.102,29.641,22.591,59.138,33.765,88.751c3.214,8.518,6.776,17.032,6.37,26.444
			C962.65,960.271,963.889,946.172,957.826,932.445z"></path>
		<path fill-rule="evenodd" clip-rule="evenodd" class="colour4" fill="#bcbec0" d="M1071.12,306.05c-7.244-14.419-16.947-27.108-27.589-39.129
			c-0.271-0.306-0.983-0.218-1.49-0.315c1.287,5.913,4.703,10.879,7.271,16.216c3.368,7.001,6.038,14.211,7.346,21.888
			c4.484,9.876,8.971,19.756,13.456,29.635c4.013-8.429,3.032-17.304,2.361-26.153
			C1071.176,308.025,1071.342,306.913,1071.12,306.05z"></path>
		<path fill-rule="evenodd" clip-rule="evenodd" class="colour4" fill="#bcbec0" d="M1072.469,308.123c0.002,0.023,0.004,0.046,0.006,0.069
			c0.015,0.002,0.023,0.007,0.039,0.009L1072.469,308.123z"></path>
		<path fill-rule="evenodd" clip-rule="evenodd" class="colour4" fill="#bcbec0" d="M721.277,805.525c0.415,1.219,0.83,2.437,1.246,3.658
			c0.079-1.165,0.369-2.363,0.205-3.496c-2.154-14.785-2.602-29.654-2.303-44.564c-1.676-1.509-1.485-3.646-1.885-5.547
			c-1.493-7.306-2.982-14.651-4.484-21.995c-0.015-0.07-0.202-0.105-0.696-0.347c1.487,23.83,2.644,47.466,7.444,70.737
			C720.962,804.489,721.12,805.007,721.277,805.525z"></path>
		<path fill-rule="evenodd" clip-rule="evenodd" class="colour4" fill="#bcbec0" d="M1087.148,468.187c-1.19,2.417,0.924,1.681,1.978,1.929
			c1.006-2.14,0.939-4.411,0.825-6.694C1089.009,465.002,1087.96,466.536,1087.148,468.187z"></path>
		<path fill-rule="evenodd" clip-rule="evenodd" class="colour4" fill="#bcbec0" d="M1037.041,262.408c1.332,1.704,2.418,3.092,3.504,4.48
			c0.45-0.045,0.901-0.09,1.352-0.135C1041.744,263.793,1040.423,262.194,1037.041,262.408z"></path>
		<path fill-rule="evenodd" clip-rule="evenodd" class="colour4" fill="#bcbec0" d="M440.509,797.845c-1.643,2.381-1.167,5.072-1.131,7.699
			C441.323,803.207,440.549,800.472,440.509,797.845z"></path>
		<path fill-rule="evenodd" clip-rule="evenodd" class="colour4" fill="#bcbec0" d="M462.243,963.759c-0.022,0.354-0.026,0.708-0.032,1.063
			c0.119-0.001,0.341,0.004,0.341-0.003c0.017-0.354,0.015-0.71,0.021-1.063C462.463,963.758,462.244,963.751,462.243,963.759z"></path>
		<path fill-rule="evenodd" clip-rule="evenodd" class="colour4" fill="#bcbec0" d="M871.16,1030.705c-0.174-0.254-0.39-0.479-0.599-0.709
			c0.159,0.379,0.317,0.757,0.476,1.134C871.083,1030.984,871.213,1030.783,871.16,1030.705z"></path>
		<path fill-rule="evenodd" clip-rule="evenodd" class="colour4" fill="#bcbec0" d="M870.497,1029.842c-0.141-0.074-0.282-0.148-0.423-0.223
			c0.128,0.088,0.256,0.176,0.384,0.263c0.034,0.039,0.069,0.076,0.104,0.114C870.54,1029.945,870.519,1029.894,870.497,1029.842z"></path>
		<path fill-rule="evenodd" clip-rule="evenodd" class="colour4" fill="#bcbec0" d="M748.905,999.278c-0.021-0.053-0.042-0.106-0.063-0.159
			c-0.035-0.024-0.067-0.052-0.103-0.076c0.021,0.037,0.04,0.075,0.06,0.112C748.834,999.196,748.87,999.237,748.905,999.278z"></path>
		<path fill-rule="evenodd" clip-rule="evenodd" class="colour4" fill="#bcbec0" d="M749.475,999.995c-0.164-0.257-0.369-0.484-0.569-0.717
			c0.148,0.379,0.296,0.757,0.445,1.135C749.396,1000.271,749.526,1000.074,749.475,999.995z"></path>
		<path fill-rule="evenodd" clip-rule="evenodd" class="colour4" fill="#bcbec0" d="M1083.337,474.596c2.043-0.64,3.151-1.376,2.644-3.338
			C1084.372,471.663,1083.487,472.477,1083.337,474.596z"></path>
		<path fill-rule="evenodd" clip-rule="evenodd" class="colour4" fill="#bcbec0" d="M1080.697,475.891c-1.132,0.234-2.194,0.578-2.605,1.822
			c-0.02,0.059,0.279,0.319,0.435,0.325c1.372,0.051,2.084-0.697,2.313-1.991l-0.1-0.11c0.042,0.046,0.1,0.109,0.099,0.108
			c0.379-0.169,1.14-0.138,0.451-0.865C1081.092,475.417,1080.895,475.654,1080.697,475.891z"></path>
		<path fill-rule="evenodd" clip-rule="evenodd" class="colour4" fill="#bcbec0" d="M1087.313,404.402c0.19-0.541,0.38-1.08,0.571-1.621
			c1.006-0.386,1.226-1.29,1.443-2.196c1.554-1.189,2.279-2.886,2.864-4.67c-0.609,0.036-1.219,0.073-1.825,0.106
			c-1.189,1.135-1.599,2.568-1.573,4.166c-0.948,0.579-1.056,1.508-1.037,2.49l0,0c-0.296,0.449-0.602,0.893-0.867,1.36
			C1086.872,404.069,1087.165,404.276,1087.313,404.402z"></path>
	</g>
</g>
</svg>