<svg xmlns="http://www.w3.org/2000/svg" xmlns:xlink="http://www.w3.org/1999/xlink" version="1.1" width="1024" height="1024" viewBox="0 0 1024 1024" xml:space="preserve">
<defs>
</defs>
<rect x="0" y="0" width="100%" height="100%" fill="rgb(255,255,255)"></rect>
<g transform="matrix(1.57 0 0 1 512 512)" id="background-logo"  >
<rect style="stroke: none; stroke-width: 1; stroke-dasharray: none; stroke-linecap: butt; stroke-dashoffset: 0; stroke-linejoin: miter; stroke-miterlimit: 10; fill: rgb(255,255,255); fill-rule: nonzero; opacity: 1;"  x="-325.5" y="-512" rx="0" ry="0" width="651" height="1024" />
</g>
<g transform="matrix(1.25 0 0 1.25 512 405.23)" style="" id="logo-logo"  >
	<g transform="matrix(0.37 0 0 -0.37 64.03 89.26)" id="logo-logo"  >
<path style="stroke: none; stroke-width: 1; stroke-dasharray: none; stroke-linecap: butt; stroke-dashoffset: 0; stroke-linejoin: miter; stroke-miterlimit: 10; fill: rgb(124,58,160); fill-rule: nonzero; opacity: 1;"  transform=" translate(-16128.25, -1975.2)" d="m 16300 2072.94 l -179 -179.05 c -7.1 -7.08 -15.4 -12.63 -24.4 -16.44 l -140.1 56.54 l 343.5 138.95" stroke-linecap="round" />
</g>
	<g transform="matrix(0.37 0 0 -0.37 0.16 116.19)" id="logo-logo"  >
<path style="stroke: none; stroke-width: 1; stroke-dasharray: none; stroke-linecap: butt; stroke-dashoffset: 0; stroke-linejoin: miter; stroke-miterlimit: 10; fill: rgb(54,43,119); fill-rule: nonzero; opacity: 1;"  transform=" translate(-16157.9, -1926.72)" d="m 16158.2 1958.43 l 141.8 -57.25 c -9.5 -4.06 -19.8 -6.16 -30.4 -6.16 h -224.2 c -10.2 0 -20.2 1.96 -29.6 5.82 l 142.4 57.59" stroke-linecap="round" />
</g>
	<g transform="matrix(0.36 0 0 -0.36 -35.89 100.5)" id="logo-logo"  >
<path style="stroke: none; stroke-width: 1; stroke-dasharray: none; stroke-linecap: butt; stroke-dashoffset: 0; stroke-linejoin: miter; stroke-miterlimit: 10; fill: rgb(248,203,28); fill-rule: nonzero; opacity: 1;"  transform=" translate(-16200.5, -1986.78)" d="m 16300 1975.62 l -143.6 -58.1 l -55.4 138.52 l 199 -80.42" stroke-linecap="round" />
</g>
	<g transform="matrix(0.36 0 0 -0.36 -88.31 89.86)" id="logo-logo"  >
<path style="stroke: none; stroke-width: 1; stroke-dasharray: none; stroke-linecap: butt; stroke-dashoffset: 0; stroke-linejoin: miter; stroke-miterlimit: 10; fill: rgb(242,87,29); fill-rule: nonzero; opacity: 1;"  transform=" translate(-16199.1, -2033.96)" d="m 16244.1 2074.32 l 55.9 -139.75 c -9.6 3.92 -18.5 9.71 -25.9 17.29 l -161.4 161.25 c -5.9 5.92 -10.9 12.74 -14.5 20.24 l 145.9 -59.03" stroke-linecap="round" />
</g>
	<g transform="matrix(0.36 0 0 -0.36 -98.42 37.57)" id="logo-logo"  >
<path style="stroke: none; stroke-width: 1; stroke-dasharray: none; stroke-linecap: butt; stroke-dashoffset: 0; stroke-linejoin: miter; stroke-miterlimit: 10; fill: rgb(112,20,24); fill-rule: nonzero; opacity: 1;"  transform=" translate(-16226.7, -2186.59)" d="m 16216 2291.71 l 84 -210.25 l -146.5 59.23 l -0.1 0.07 l 62.6 150.95" stroke-linecap="round" />
</g>
	<g transform="matrix(0.36 0 0 -0.36 -115.05 0.2)" id="logo-logo"  >
<path style="stroke: none; stroke-width: 1; stroke-dasharray: none; stroke-linecap: butt; stroke-dashoffset: 0; stroke-linejoin: miter; stroke-miterlimit: 10; fill: rgb(237,34,35); fill-rule: nonzero; opacity: 1;"  transform=" translate(-16264.25, -2302.52)" d="m 16240.2 2453.17 l 59.8 -149.58 l -62.9 -151.73 c -5.7 11.11 -8.6 23.48 -8.6 36.12 v 230.18 c 0 11.6 2.5 22.92 7.4 33.27 l 4.3 1.74" stroke-linecap="round" />
</g>
	<g transform="matrix(0.36 0 0 -0.36 -97.42 -37.66)" id="logo-logo"  >
<path style="stroke: none; stroke-width: 1; stroke-dasharray: none; stroke-linecap: butt; stroke-dashoffset: 0; stroke-linejoin: miter; stroke-miterlimit: 10; fill: rgb(135,206,40); fill-rule: nonzero; opacity: 1;"  transform=" translate(-16227, -2395.69)" d="m 16300 2500.01 l -86.5 -208.64 l -59.5 148.79 l 146 59.85" stroke-linecap="round" />
</g>
	<g transform="matrix(0.36 0 0 -0.36 -87.35 -89.63)" id="logo-logo"  >
<path style="stroke: none; stroke-width: 1; stroke-dasharray: none; stroke-linecap: butt; stroke-dashoffset: 0; stroke-linejoin: miter; stroke-miterlimit: 10; fill: rgb(135,206,40); fill-rule: nonzero; opacity: 1;"  transform=" translate(-16197.85, -2531.46)" d="m 16300 2629.69 l -57.4 -138.48 l -145.4 -59.64 l -1.5 3.79 c 3.4 6.33 8 12.26 13.1 17.49 l 161.4 161.28 c 7.4 7.5 16.2 13.29 25.7 17.22 l 4.1 -1.66" stroke-linecap="round" />
</g>
	<g transform="matrix(0.36 0 0 -0.36 -35.74 -100.08)" id="logo-logo"  >
<path style="stroke: none; stroke-width: 1; stroke-dasharray: none; stroke-linecap: butt; stroke-dashoffset: 0; stroke-linejoin: miter; stroke-miterlimit: 10; fill: rgb(50,114,48); fill-rule: nonzero; opacity: 1;"  transform=" translate(-16202.35, -2538.71)" d="m 16300 2550.01 l -195.3 -79.95 l 56.9 137.3 l 138.4 -57.35" stroke-linecap="round" />
</g>
	<g transform="matrix(0.37 0 0 -0.37 0.75 -116)" id="logo-logo"  >
<path style="stroke: none; stroke-width: 1; stroke-dasharray: none; stroke-linecap: butt; stroke-dashoffset: 0; stroke-linejoin: miter; stroke-miterlimit: 10; fill: rgb(49,81,171); fill-rule: nonzero; opacity: 1;"  transform=" translate(-16160.15, -2559.93)" d="m 16300 2586.19 l -142.5 -58.48 l -137.2 56.85 l 1.5 3.59 c 7.7 2.64 15.9 3.99 24.2 3.99 h 224.2 c 10.3 0 20.5 -1.96 29.8 -5.95" stroke-linecap="round" />
</g>
	<g transform="matrix(0.37 0 0 -0.37 63.78 -88.51)" id="logo-logo"  >
<path style="stroke: none; stroke-width: 1; stroke-dasharray: none; stroke-linecap: butt; stroke-dashoffset: 0; stroke-linejoin: miter; stroke-miterlimit: 10; fill: rgb(84,195,241); fill-rule: nonzero; opacity: 1;"  transform=" translate(-16127.6, -2453.86)" d="m 16300 2358.12 l -1.7 -4.21 l -343.1 142.16 l 140.8 57.74 h 0.1 c 9.1 -3.81 17.6 -9.42 24.9 -16.7 l 179 -178.99" stroke-linecap="round" />
</g>
</g>
<g transform="matrix(0.17 0 0 0.17 915.83 604.71)" style="" id="shape-3-logo"  >
	<g transform="matrix(1 0 0 1 0 0)" id="Layer_1"  >
<path style="stroke: none; stroke-width: 1; stroke-dasharray: none; stroke-linecap: butt; stroke-dashoffset: 0; stroke-linejoin: miter; stroke-miterlimit: 4; fill: rgb(11,11,11); fill-rule: nonzero; opacity: 1;"  transform=" translate(-100, -100)" d="M 100 10 c 49.6 0 90 40.4 90 90 s -40.4 90 -90 90 s -90 -40.4 -90 -90 S 50.4 10 100 10 M 100 0 C 44.8 0 0 44.8 0 100 s 44.8 100 100 100 s 100 -44.8 100 -100 S 155.2 0 100 0 L 100 0 z" stroke-linecap="round" />
</g>
	<g transform="matrix(1 0 0 1 -0.05 0)" id="Layer_1"  >
<path style="stroke: none; stroke-width: 1; stroke-dasharray: none; stroke-linecap: butt; stroke-dashoffset: 0; stroke-linejoin: miter; stroke-miterlimit: 4; fill: rgb(11,11,11); fill-rule: nonzero; opacity: 1;"  transform=" translate(-99.95, -100)" d="M 51.7 153.7 V 46.3 h 45.6 c 11.5 0 19.8 1 25 2.9 c 5.2 1.9 9.4 5.4 12.5 10.3 c 3.1 4.9 4.7 10.6 4.7 16.9 c 0 8.1 -2.4 14.7 -7.1 20 c -4.7 5.2 -11.8 8.6 -21.2 9.9 c 4.7 2.7 8.6 5.7 11.6 9 c 3.1 3.3 7.2 9.1 12.3 17.4 l 13.1 20.9 h -25.9 l -15.7 -23.4 c -5.6 -8.3 -9.4 -13.6 -11.4 -15.8 c -2.1 -2.2 -4.2 -3.7 -6.5 -4.5 s -5.9 -1.2 -10.9 -1.2 h -4.4 v 44.8 L 51.7 153.7 L 51.7 153.7 z M 73.4 91.7 h 16 c 10.4 0 16.9 -0.4 19.5 -1.3 s 4.6 -2.4 6.1 -4.5 c 1.5 -2.1 2.2 -4.8 2.2 -8.1 c 0 -3.6 -1 -6.5 -2.9 -8.8 c -1.9 -2.2 -4.7 -3.6 -8.2 -4.2 c -1.8 -0.2 -7 -0.4 -15.8 -0.4 H 73.4 V 91.7 z" stroke-linecap="round" />
</g>
</g>
<g transform="matrix(1.57 0 0 1.57 512 656.25)"  >
<path style="stroke: none; stroke-width: 1; stroke-dasharray: none; stroke-linecap: butt; stroke-dashoffset: 0; stroke-linejoin: miter; stroke-miterlimit: 10; fill: rgb(54,43,119); fill-rule: nonzero; opacity: ;"  transform=" translate(-250.35, 19.37)" d="M 2.45 -19.68 L 2.45 -19.68 Q 2.45 -23.69 4.04 -27.3 Q 5.62 -30.92 8.38 -33.59 Q 11.13 -36.27 15.06 -37.85 Q 18.98 -39.44 23.43 -39.44 L 23.43 -39.44 Q 29.5 -39.44 34.25 -36.84 Q 38.99 -34.23 41.66 -29.75 L 41.66 -29.75 L 33.73 -25.13 Q 32.31 -27.86 29.67 -29.43 Q 27.02 -31 23.43 -31 L 23.43 -31 Q 18.4 -31 15.15 -27.76 Q 11.91 -24.52 11.91 -19.68 L 11.91 -19.68 Q 11.91 -16.62 13.36 -13.97 Q 14.81 -11.33 17.46 -9.71 Q 20.12 -8.1 23.43 -8.1 L 23.43 -8.1 Q 26.89 -8.1 29.52 -9.69 Q 32.15 -11.27 33.62 -13.97 L 33.62 -13.97 L 41.55 -9.41 Q 38.83 -4.84 34.09 -2.07 Q 29.36 0.7 23.43 0.7 L 23.43 0.7 Q 18.95 0.7 15.04 -0.89 Q 11.13 -2.48 8.38 -5.19 Q 5.62 -7.9 4.04 -11.66 Q 2.45 -15.42 2.45 -19.68 Z M 44.17 -19.37 L 44.17 -19.37 Q 44.17 -23.43 45.74 -27.14 Q 47.31 -30.84 49.99 -33.54 Q 52.66 -36.24 56.36 -37.84 Q 60.06 -39.44 64.15 -39.44 L 64.15 -39.44 Q 68.19 -39.44 71.9 -37.84 Q 75.62 -36.24 78.29 -33.54 Q 80.96 -30.84 82.56 -27.12 Q 84.16 -23.41 84.16 -19.37 L 84.16 -19.37 Q 84.16 -15.31 82.58 -11.59 Q 80.99 -7.88 78.31 -5.19 Q 75.62 -2.5 71.9 -0.9 Q 68.19 0.7 64.15 0.7 L 64.15 0.7 Q 58.7 0.7 54.09 -2 Q 49.49 -4.7 46.83 -9.31 Q 44.17 -13.92 44.17 -19.37 Z M 52.71 -19.37 L 52.71 -19.37 Q 52.71 -14.64 56.07 -11.31 Q 59.42 -7.99 64.15 -7.99 L 64.15 -7.99 Q 68.83 -7.99 72.17 -11.31 Q 75.51 -14.64 75.51 -19.37 L 75.51 -19.37 Q 75.51 -24.05 72.17 -27.39 Q 68.83 -30.73 64.15 -30.73 L 64.15 -30.73 Q 59.42 -30.73 56.07 -27.4 Q 52.71 -24.07 52.71 -19.37 Z M 120.01 0 L 90.31 0 L 90.31 -38.77 L 99.67 -38.77 L 99.67 -8.66 L 120.01 -8.66 L 120.01 0 Z M 122.15 -19.37 L 122.15 -19.37 Q 122.15 -23.43 123.73 -27.14 Q 125.3 -30.84 127.97 -33.54 Q 130.64 -36.24 134.35 -37.84 Q 138.05 -39.44 142.14 -39.44 L 142.14 -39.44 Q 146.17 -39.44 149.89 -37.84 Q 153.6 -36.24 156.28 -33.54 Q 158.95 -30.84 160.55 -27.12 Q 162.15 -23.41 162.15 -19.37 L 162.15 -19.37 Q 162.15 -15.31 160.56 -11.59 Q 158.98 -7.88 156.29 -5.19 Q 153.6 -2.5 149.89 -0.9 Q 146.17 0.7 142.14 0.7 L 142.14 0.7 Q 136.68 0.7 132.08 -2 Q 127.47 -4.7 124.81 -9.31 Q 122.15 -13.92 122.15 -19.37 Z M 130.7 -19.37 L 130.7 -19.37 Q 130.7 -14.64 134.05 -11.31 Q 137.41 -7.99 142.14 -7.99 L 142.14 -7.99 Q 146.81 -7.99 150.15 -11.31 Q 153.49 -14.64 153.49 -19.37 L 153.49 -19.37 Q 153.49 -24.05 150.15 -27.39 Q 146.81 -30.73 142.14 -30.73 L 142.14 -30.73 Q 137.41 -30.73 134.05 -27.4 Q 130.7 -24.07 130.7 -19.37 Z M 177.65 0 L 168.3 0 L 168.3 -38.77 L 187.03 -38.77 Q 192.96 -38.77 196.9 -34.64 Q 200.84 -30.5 200.84 -24.21 L 200.84 -24.21 Q 200.84 -20.07 198.97 -16.73 Q 197.11 -13.39 193.93 -11.69 L 193.93 -11.69 L 201.92 0 L 190.29 0 L 184.47 -9.63 L 177.65 -9.63 L 177.65 0 Z M 177.65 -30.09 L 177.65 -18.29 L 185.67 -18.29 Q 188.06 -18.29 189.74 -20.03 Q 191.43 -21.76 191.43 -24.21 L 191.43 -24.21 Q 191.43 -26.61 189.76 -28.35 Q 188.09 -30.09 185.72 -30.09 L 185.72 -30.09 L 177.65 -30.09 Z M 205.32 -13.55 L 205.32 -13.55 L 214.61 -13.55 Q 214.64 -13.3 214.74 -12.89 Q 214.84 -12.47 215.38 -11.41 Q 215.92 -10.35 216.74 -9.55 Q 217.56 -8.74 219.23 -8.07 Q 220.9 -7.4 223.05 -7.4 L 223.05 -7.4 Q 225.94 -7.4 227.35 -8.42 Q 228.75 -9.44 228.75 -10.83 L 228.75 -10.83 Q 228.75 -11.55 228.35 -12.13 Q 227.94 -12.72 227.4 -13.11 Q 226.86 -13.5 225.83 -13.87 Q 224.8 -14.25 224.02 -14.46 Q 223.24 -14.67 221.9 -15 L 221.9 -15 Q 216.37 -16.31 213.75 -17.4 L 213.75 -17.4 Q 205.9 -20.65 205.9 -27.14 L 205.9 -27.14 Q 205.9 -30.62 208 -33.44 Q 210.1 -36.27 213.71 -37.85 Q 217.31 -39.44 221.68 -39.44 L 221.68 -39.44 Q 225.3 -39.44 228.32 -38.27 Q 231.34 -37.1 233.22 -35.22 Q 235.1 -33.34 236.11 -31.07 Q 237.13 -28.81 237.13 -26.5 L 237.13 -26.5 L 227.83 -26.5 Q 227.83 -28.14 226.09 -29.6 Q 224.35 -31.06 221.57 -31.06 L 221.57 -31.06 Q 219.26 -31.06 217.31 -30.1 Q 215.36 -29.14 215.36 -27.58 L 215.36 -27.58 Q 215.36 -26.27 217.05 -25.51 Q 218.73 -24.74 223.38 -23.55 L 223.38 -23.55 Q 228.67 -22.18 231.01 -21.12 L 231.01 -21.12 Q 237.35 -18.26 238.02 -12.77 L 238.02 -12.77 Q 238.1 -12.08 238.1 -11.36 L 238.1 -11.36 Q 238.1 -5.87 233.78 -2.59 Q 229.45 0.7 222.54 0.7 L 222.54 0.7 Q 219.04 0.7 216.1 -0.21 Q 213.17 -1.11 211.22 -2.57 Q 209.27 -4.04 207.91 -5.93 Q 206.54 -7.82 205.93 -9.76 Q 205.32 -11.69 205.32 -13.55 Z M 288.12 0 L 258.42 0 L 258.42 -38.77 L 288.12 -38.77 L 288.12 -30.09 L 267.77 -30.09 L 267.77 -23.43 L 284.75 -23.43 L 284.75 -15.34 L 267.77 -15.34 L 267.77 -8.66 L 288.12 -8.66 L 288.12 0 Z M 310.44 0 L 293.29 -38.77 L 303.59 -38.77 L 315.62 -11.05 L 327.61 -38.77 L 337.91 -38.77 L 320.71 0 L 310.44 0 Z M 373.81 0 L 344.12 0 L 344.12 -38.77 L 373.81 -38.77 L 373.81 -30.09 L 353.47 -30.09 L 353.47 -23.43 L 370.44 -23.43 L 370.44 -15.34 L 353.47 -15.34 L 353.47 -8.66 L 373.81 -8.66 L 373.81 0 Z M 390.21 0 L 380.8 0 L 380.8 -38.77 L 390.21 -38.77 L 409.83 -15.11 L 409.83 -38.77 L 419.23 -38.77 L 419.23 0 L 409.83 0 L 390.21 -23.71 L 390.21 0 Z M 438.8 -30.09 L 425.08 -30.09 L 425.08 -38.77 L 462.01 -38.77 L 462.01 -30.09 L 448.26 -30.09 L 448.26 0 L 438.8 0 L 438.8 -30.09 Z M 465.46 -13.55 L 465.46 -13.55 L 474.76 -13.55 Q 474.79 -13.3 474.88 -12.89 Q 474.98 -12.47 475.52 -11.41 Q 476.07 -10.35 476.89 -9.55 Q 477.71 -8.74 479.38 -8.07 Q 481.05 -7.4 483.19 -7.4 L 483.19 -7.4 Q 486.09 -7.4 487.49 -8.42 Q 488.9 -9.44 488.9 -10.83 L 488.9 -10.83 Q 488.9 -11.55 488.49 -12.13 Q 488.09 -12.72 487.55 -13.11 Q 487 -13.5 485.98 -13.87 Q 484.95 -14.25 484.17 -14.46 Q 483.39 -14.67 482.05 -15 L 482.05 -15 Q 476.51 -16.31 473.9 -17.4 L 473.9 -17.4 Q 466.05 -20.65 466.05 -27.14 L 466.05 -27.14 Q 466.05 -30.62 468.15 -33.44 Q 470.25 -36.27 473.85 -37.85 Q 477.46 -39.44 481.83 -39.44 L 481.83 -39.44 Q 485.45 -39.44 488.47 -38.27 Q 491.49 -37.1 493.36 -35.22 Q 495.24 -33.34 496.26 -31.07 Q 497.27 -28.81 497.27 -26.5 L 497.27 -26.5 L 487.98 -26.5 Q 487.98 -28.14 486.24 -29.6 Q 484.5 -31.06 481.72 -31.06 L 481.72 -31.06 Q 479.41 -31.06 477.46 -30.1 Q 475.51 -29.14 475.51 -27.58 L 475.51 -27.58 Q 475.51 -26.27 477.19 -25.51 Q 478.88 -24.74 483.53 -23.55 L 483.53 -23.55 Q 488.81 -22.18 491.15 -21.12 L 491.15 -21.12 Q 497.5 -18.26 498.17 -12.77 L 498.17 -12.77 Q 498.25 -12.08 498.25 -11.36 L 498.25 -11.36 Q 498.25 -5.87 493.92 -2.59 Q 489.59 0.7 482.69 0.7 L 482.69 0.7 Q 479.18 0.7 476.25 -0.21 Q 473.31 -1.11 471.36 -2.57 Q 469.42 -4.04 468.05 -5.93 Q 466.69 -7.82 466.08 -9.76 Q 465.46 -11.69 465.46 -13.55 Z" stroke-linecap="round" />
</g>
<g transform="matrix(1.57 0 0 1.57 507.29 720.99)"  >
<path style="stroke: none; stroke-width: 1; stroke-dasharray: none; stroke-linecap: butt; stroke-dashoffset: 0; stroke-linejoin: miter; stroke-miterlimit: 4; fill: rgb(14,13,13); fill-rule: nonzero; opacity: ;"  transform=" translate(-162.44, 5.4)" d="M 4.2 -1.68 L 17.88 -1.68 Q 17.88 -1.15 17.74 -0.83 Q 17.59 -0.5 17.35 -0.32 Q 17.11 -0.14 16.81 -0.07 Q 16.51 0 16.2 0 L 16.2 0 L 4.2 0 Q 3.74 0 3.35 -0.06 Q 2.95 -0.12 2.66 -0.32 Q 2.38 -0.53 2.21 -0.91 Q 2.04 -1.3 2.04 -1.92 L 2.04 -1.92 Q 2.04 -6.17 2.98 -9.11 Q 3.91 -12.05 5.42 -13.86 Q 6.94 -15.67 8.86 -16.48 Q 10.78 -17.28 12.77 -17.28 L 12.77 -17.28 Q 13.58 -17.28 13.82 -16.87 Q 14.06 -16.46 14.06 -15.98 L 14.06 -15.98 L 14.06 -15.36 L 12.77 -15.36 Q 10.7 -15.36 9.11 -14.44 Q 7.51 -13.51 6.42 -11.76 Q 5.33 -10.01 4.76 -7.46 Q 4.2 -4.92 4.2 -1.68 L 4.2 -1.68 Z M 25.22 -12.77 L 25.22 -12.77 Q 25.22 -13.49 25.66 -14 Q 26.09 -14.52 26.95 -14.52 L 26.95 -14.52 Q 27.77 -14.52 28.21 -14.06 Q 28.66 -13.61 28.7 -12.96 L 28.7 -12.96 L 37.3 -12.96 Q 37.3 -11.9 36.77 -11.47 Q 36.24 -11.04 35.62 -11.04 L 35.62 -11.04 L 29.11 -11.04 L 29.11 -8.64 Q 29.11 -4.27 26.89 -2.14 Q 24.67 0 20.04 0 L 20.04 0 Q 19.37 0 18.95 -0.17 Q 18.53 -0.34 18.29 -0.62 Q 18.05 -0.91 17.96 -1.31 Q 17.88 -1.7 17.88 -2.16 L 17.88 -2.16 L 17.88 -7.94 Q 17.88 -9.29 18.17 -10.28 Q 18.46 -11.28 19.1 -11.93 Q 19.75 -12.58 20.8 -12.89 Q 21.84 -13.2 23.33 -13.2 L 23.33 -13.2 Q 24 -13.2 24.37 -12.82 Q 24.74 -12.43 24.74 -11.52 L 24.74 -11.52 L 24.74 -11.28 L 23.33 -11.28 Q 22.46 -11.28 21.85 -11.15 Q 21.24 -11.02 20.83 -10.64 Q 20.42 -10.27 20.23 -9.62 Q 20.04 -8.98 20.04 -7.94 L 20.04 -7.94 L 20.04 -1.92 Q 21.84 -1.92 23.14 -2.26 Q 24.43 -2.59 25.28 -3.37 Q 26.14 -4.15 26.54 -5.44 Q 26.95 -6.72 26.95 -8.64 L 26.95 -8.64 L 26.95 -11.04 Q 26.09 -11.04 25.66 -11.54 Q 25.22 -12.05 25.22 -12.77 Z M 37.78 -10.13 L 37.78 -1.68 L 45.48 -1.68 Q 45.48 -1.15 45.34 -0.83 Q 45.19 -0.5 44.95 -0.32 Q 44.71 -0.14 44.41 -0.07 Q 44.11 0 43.8 0 L 43.8 0 L 37.08 0 Q 36.82 0 36.55 -0.06 Q 36.29 -0.12 36.08 -0.28 Q 35.88 -0.43 35.75 -0.71 Q 35.62 -0.98 35.62 -1.44 L 35.62 -1.44 L 35.62 -18.24 L 36.02 -18.24 Q 37.37 -18.24 37.96 -17.8 Q 38.54 -17.35 38.54 -16.2 L 38.54 -16.2 Q 38.54 -14.93 38.33 -13.34 Q 38.11 -11.76 37.78 -10.13 L 37.78 -10.13 Z M 52.82 -12.77 L 52.82 -12.77 Q 52.82 -13.49 53.26 -14 Q 53.69 -14.52 54.55 -14.52 L 54.55 -14.52 Q 55.37 -14.52 55.81 -14.06 Q 56.26 -13.61 56.3 -12.96 L 56.3 -12.96 L 64.9 -12.96 Q 64.9 -11.9 64.37 -11.47 Q 63.84 -11.04 63.22 -11.04 L 63.22 -11.04 L 56.71 -11.04 L 56.71 -8.64 Q 56.71 -4.27 54.49 -2.14 Q 52.27 0 47.64 0 L 47.64 0 Q 46.97 0 46.55 -0.17 Q 46.13 -0.34 45.89 -0.62 Q 45.65 -0.91 45.56 -1.31 Q 45.48 -1.7 45.48 -2.16 L 45.48 -2.16 L 45.48 -7.94 Q 45.48 -9.29 45.77 -10.28 Q 46.06 -11.28 46.7 -11.93 Q 47.35 -12.58 48.4 -12.89 Q 49.44 -13.2 50.93 -13.2 L 50.93 -13.2 Q 51.6 -13.2 51.97 -12.82 Q 52.34 -12.43 52.34 -11.52 L 52.34 -11.52 L 52.34 -11.28 L 50.93 -11.28 Q 50.06 -11.28 49.45 -11.15 Q 48.84 -11.02 48.43 -10.64 Q 48.02 -10.27 47.83 -9.62 Q 47.64 -8.98 47.64 -7.94 L 47.64 -7.94 L 47.64 -1.92 Q 49.44 -1.92 50.74 -2.26 Q 52.03 -2.59 52.88 -3.37 Q 53.74 -4.15 54.14 -5.44 Q 54.55 -6.72 54.55 -8.64 L 54.55 -8.64 L 54.55 -11.04 Q 53.69 -11.04 53.26 -11.54 Q 52.82 -12.05 52.82 -12.77 Z M 65.38 -12.48 L 65.38 -1.8 Q 66.24 -1.8 67.34 -2.36 Q 68.45 -2.93 69.43 -4.12 Q 70.42 -5.3 71.09 -7.12 Q 71.76 -8.93 71.76 -11.45 L 71.76 -11.45 L 71.76 -12.96 L 72.62 -12.96 Q 74.42 -12.96 74.42 -10.78 L 74.42 -10.78 Q 74.42 -10.13 74.28 -9.53 Q 74.14 -8.93 73.92 -8.38 L 73.92 -8.38 L 73.92 -1.68 L 81.62 -1.68 Q 81.62 -1.15 81.48 -0.83 Q 81.34 -0.5 81.1 -0.32 Q 80.86 -0.14 80.56 -0.07 Q 80.26 0 79.94 0 L 79.94 0 L 73.22 0 Q 72.96 0 72.7 -0.06 Q 72.43 -0.12 72.23 -0.28 Q 72.02 -0.43 71.89 -0.71 Q 71.76 -0.98 71.76 -1.44 L 71.76 -1.44 L 71.76 -4.61 Q 71.14 -3.53 70.38 -2.65 Q 69.62 -1.78 68.8 -1.16 Q 67.97 -0.55 67.09 -0.22 Q 66.22 0.12 65.38 0.12 L 65.38 0.12 Q 64.75 0.12 64.33 -0.05 Q 63.91 -0.22 63.66 -0.5 Q 63.41 -0.79 63.31 -1.19 Q 63.22 -1.58 63.22 -2.04 L 63.22 -2.04 L 63.22 -12.48 Q 63.22 -12.67 63.36 -12.82 Q 63.5 -12.96 63.7 -12.96 L 63.7 -12.96 L 64.87 -12.96 Q 65.06 -12.96 65.22 -12.82 Q 65.38 -12.67 65.38 -12.48 L 65.38 -12.48 Z M 83.04 -3.31 L 81.91 -0.29 Q 81.79 0 81.5 0 L 81.5 0 L 80.16 0 Q 79.82 0 79.82 -0.31 L 79.82 -0.31 Q 79.82 -0.48 79.92 -0.7 L 79.92 -0.7 L 81.22 -4.06 Q 81.46 -4.66 81.52 -5.29 Q 81.58 -5.93 81.58 -6.58 L 81.58 -6.58 L 81.58 -11.04 Q 80.71 -11.04 80.28 -11.54 Q 79.85 -12.05 79.85 -12.77 L 79.85 -12.77 Q 79.85 -13.49 80.28 -14 Q 80.71 -14.52 81.58 -14.52 L 81.58 -14.52 Q 82.39 -14.52 82.84 -14.06 Q 83.28 -13.61 83.33 -12.96 L 83.33 -12.96 L 86.45 -12.96 Q 88.13 -12.96 89.11 -12.72 Q 90.1 -12.48 90.58 -11.93 Q 91.06 -11.38 91.19 -10.45 Q 91.32 -9.53 91.32 -8.16 L 91.32 -8.16 L 91.32 -1.68 L 98.76 -1.68 Q 98.76 -1.15 98.62 -0.83 Q 98.47 -0.5 98.23 -0.32 Q 97.99 -0.14 97.69 -0.07 Q 97.39 0 97.08 0 L 97.08 0 L 90.62 0 Q 90.36 0 90.1 -0.06 Q 89.83 -0.12 89.63 -0.28 Q 89.42 -0.43 89.29 -0.71 Q 89.16 -0.98 89.16 -1.44 L 89.16 -1.44 L 89.16 -8.16 Q 89.16 -9.02 89.09 -9.58 Q 89.02 -10.13 88.74 -10.45 Q 88.46 -10.78 87.92 -10.91 Q 87.38 -11.04 86.45 -11.04 L 86.45 -11.04 L 83.62 -11.04 L 83.62 -6.58 Q 83.62 -5.76 83.47 -4.92 Q 83.33 -4.08 83.04 -3.31 L 83.04 -3.31 Z M 117.89 -8.33 L 117.89 -8.33 Q 117.12 -6.6 116.12 -5.05 Q 115.13 -3.5 114.05 -2.33 Q 112.97 -1.15 111.86 -0.46 Q 110.76 0.24 109.8 0.24 L 109.8 0.24 Q 109.18 0.24 108.76 0.07 Q 108.34 -0.1 108.08 -0.38 Q 107.83 -0.67 107.74 -1.07 Q 107.64 -1.46 107.64 -1.92 L 107.64 -1.92 L 107.64 -16.56 Q 107.64 -16.75 107.78 -16.9 Q 107.93 -17.04 108.12 -17.04 L 108.12 -17.04 L 109.32 -17.04 Q 109.51 -17.04 109.66 -16.9 Q 109.8 -16.75 109.8 -16.56 L 109.8 -16.56 L 109.8 -1.68 Q 110.3 -1.68 111.11 -2.24 Q 111.91 -2.81 112.81 -3.78 Q 113.71 -4.75 114.61 -6.08 Q 115.51 -7.42 116.24 -8.96 Q 116.98 -10.51 117.43 -12.18 Q 117.89 -13.85 117.89 -15.53 L 117.89 -15.53 L 117.89 -17.04 L 118.75 -17.04 Q 120.55 -17.04 120.55 -14.86 L 120.55 -14.86 Q 120.55 -14.21 120.41 -13.61 Q 120.26 -13.01 120.05 -12.46 L 120.05 -12.46 L 120.05 -1.68 L 127.97 -1.68 Q 127.97 -1.15 127.82 -0.83 Q 127.68 -0.5 127.44 -0.32 Q 127.2 -0.14 126.9 -0.07 Q 126.6 0 126.29 0 L 126.29 0 L 120.02 0 Q 119.98 2.21 119.58 3.65 Q 119.18 5.09 118.42 5.93 Q 117.65 6.77 116.46 7.1 Q 115.27 7.44 113.64 7.44 L 113.64 7.44 Q 112.87 7.44 112.58 7.06 Q 112.3 6.67 112.3 5.78 L 112.3 5.78 L 112.3 5.52 L 113.64 5.52 Q 114.77 5.52 115.57 5.34 Q 116.38 5.16 116.89 4.52 Q 117.41 3.89 117.65 2.65 Q 117.89 1.42 117.89 -0.72 L 117.89 -0.72 L 117.89 -8.33 Z M 135.31 -12.77 L 135.31 -12.77 Q 135.31 -13.49 135.74 -14 Q 136.18 -14.52 137.04 -14.52 L 137.04 -14.52 Q 137.86 -14.52 138.3 -14.06 Q 138.74 -13.61 138.79 -12.96 L 138.79 -12.96 L 147.38 -12.96 Q 147.38 -11.9 146.86 -11.47 Q 146.33 -11.04 145.7 -11.04 L 145.7 -11.04 L 139.2 -11.04 L 139.2 -8.64 Q 139.2 -4.27 136.98 -2.14 Q 134.76 0 130.13 0 L 130.13 0 Q 129.46 0 129.04 -0.17 Q 128.62 -0.34 128.38 -0.62 Q 128.14 -0.91 128.05 -1.31 Q 127.97 -1.7 127.97 -2.16 L 127.97 -2.16 L 127.97 -7.94 Q 127.97 -9.29 128.26 -10.28 Q 128.54 -11.28 129.19 -11.93 Q 129.84 -12.58 130.88 -12.89 Q 131.93 -13.2 133.42 -13.2 L 133.42 -13.2 Q 134.09 -13.2 134.46 -12.82 Q 134.83 -12.43 134.83 -11.52 L 134.83 -11.52 L 134.83 -11.28 L 133.42 -11.28 Q 132.55 -11.28 131.94 -11.15 Q 131.33 -11.02 130.92 -10.64 Q 130.51 -10.27 130.32 -9.62 Q 130.13 -8.98 130.13 -7.94 L 130.13 -7.94 L 130.13 -1.92 Q 131.93 -1.92 133.22 -2.26 Q 134.52 -2.59 135.37 -3.37 Q 136.22 -4.15 136.63 -5.44 Q 137.04 -6.72 137.04 -8.64 L 137.04 -8.64 L 137.04 -11.04 Q 136.18 -11.04 135.74 -11.54 Q 135.31 -12.05 135.31 -12.77 Z M 147.86 -12.48 L 147.86 -1.8 Q 148.73 -1.8 149.83 -2.36 Q 150.94 -2.93 151.92 -4.12 Q 152.9 -5.3 153.58 -7.12 Q 154.25 -8.93 154.25 -11.45 L 154.25 -11.45 L 154.25 -12.96 L 155.11 -12.96 Q 156.91 -12.96 156.91 -10.78 L 156.91 -10.78 Q 156.91 -10.13 156.77 -9.53 Q 156.62 -8.93 156.41 -8.38 L 156.41 -8.38 L 156.41 -1.68 L 164.11 -1.68 Q 164.11 -1.15 163.97 -0.83 Q 163.82 -0.5 163.58 -0.32 Q 163.34 -0.14 163.04 -0.07 Q 162.74 0 162.43 0 L 162.43 0 L 155.71 0 Q 155.45 0 155.18 -0.06 Q 154.92 -0.12 154.72 -0.28 Q 154.51 -0.43 154.38 -0.71 Q 154.25 -0.98 154.25 -1.44 L 154.25 -1.44 L 154.25 -4.61 Q 153.62 -3.53 152.87 -2.65 Q 152.11 -1.78 151.28 -1.16 Q 150.46 -0.55 149.58 -0.22 Q 148.7 0.12 147.86 0.12 L 147.86 0.12 Q 147.24 0.12 146.82 -0.05 Q 146.4 -0.22 146.15 -0.5 Q 145.9 -0.79 145.8 -1.19 Q 145.7 -1.58 145.7 -2.04 L 145.7 -2.04 L 145.7 -12.48 Q 145.7 -12.67 145.85 -12.82 Q 145.99 -12.96 146.18 -12.96 L 146.18 -12.96 L 147.36 -12.96 Q 147.55 -12.96 147.71 -12.82 Q 147.86 -12.67 147.86 -12.48 L 147.86 -12.48 Z M 165.53 -3.31 L 164.4 -0.29 Q 164.28 0 163.99 0 L 163.99 0 L 162.65 0 Q 162.31 0 162.31 -0.31 L 162.31 -0.31 Q 162.31 -0.48 162.41 -0.7 L 162.41 -0.7 L 163.7 -4.06 Q 163.94 -4.66 164 -5.29 Q 164.06 -5.93 164.06 -6.58 L 164.06 -6.58 L 164.06 -11.04 Q 163.2 -11.04 162.77 -11.54 Q 162.34 -12.05 162.34 -12.77 L 162.34 -12.77 Q 162.34 -13.49 162.77 -14 Q 163.2 -14.52 164.06 -14.52 L 164.06 -14.52 Q 164.88 -14.52 165.32 -14.06 Q 165.77 -13.61 165.82 -12.96 L 165.82 -12.96 L 168.94 -12.96 Q 170.62 -12.96 171.6 -12.72 Q 172.58 -12.48 173.06 -11.93 Q 173.54 -11.38 173.68 -10.45 Q 173.81 -9.53 173.81 -8.16 L 173.81 -8.16 L 173.81 -1.68 L 181.25 -1.68 Q 181.25 -1.15 181.1 -0.83 Q 180.96 -0.5 180.72 -0.32 Q 180.48 -0.14 180.18 -0.07 Q 179.88 0 179.57 0 L 179.57 0 L 173.11 0 Q 172.85 0 172.58 -0.06 Q 172.32 -0.12 172.12 -0.28 Q 171.91 -0.43 171.78 -0.71 Q 171.65 -0.98 171.65 -1.44 L 171.65 -1.44 L 171.65 -8.16 Q 171.65 -9.02 171.58 -9.58 Q 171.5 -10.13 171.23 -10.45 Q 170.95 -10.78 170.41 -10.91 Q 169.87 -11.04 168.94 -11.04 L 168.94 -11.04 L 166.1 -11.04 L 166.1 -6.58 Q 166.1 -5.76 165.96 -4.92 Q 165.82 -4.08 165.53 -3.31 L 165.53 -3.31 Z M 192.29 0 L 191.42 0 Q 189.62 0 189.62 -2.18 L 189.62 -2.18 Q 189.62 -2.83 189.76 -3.43 Q 189.89 -4.03 190.13 -4.58 L 190.13 -4.58 L 190.13 -16.56 Q 190.13 -16.75 190.27 -16.9 Q 190.42 -17.04 190.61 -17.04 L 190.61 -17.04 L 191.81 -17.04 Q 192 -17.04 192.14 -16.9 Q 192.29 -16.75 192.29 -16.56 L 192.29 -16.56 L 192.29 -8.9 Q 193.03 -10.58 193.97 -12.11 Q 194.9 -13.63 195.92 -14.78 Q 196.94 -15.94 197.96 -16.61 Q 198.98 -17.28 199.9 -17.28 L 199.9 -17.28 Q 200.52 -17.28 200.94 -17.11 Q 201.36 -16.94 201.61 -16.66 Q 201.86 -16.37 201.96 -15.97 Q 202.06 -15.58 202.06 -15.12 L 202.06 -15.12 L 202.06 -8.9 Q 202.8 -10.58 203.74 -12.11 Q 204.67 -13.63 205.69 -14.78 Q 206.71 -15.94 207.73 -16.61 Q 208.75 -17.28 209.66 -17.28 L 209.66 -17.28 Q 210.29 -17.28 210.71 -17.11 Q 211.13 -16.94 211.38 -16.66 Q 211.63 -16.37 211.73 -15.97 Q 211.82 -15.58 211.82 -15.12 L 211.82 -15.12 L 211.82 -1.68 L 219.48 -1.68 Q 219.48 -1.15 219.34 -0.83 Q 219.19 -0.5 218.95 -0.32 Q 218.71 -0.14 218.41 -0.07 Q 218.11 0 217.8 0 L 217.8 0 L 211.08 0 Q 210.79 0 210.54 -0.06 Q 210.29 -0.12 210.1 -0.28 Q 209.9 -0.43 209.78 -0.71 Q 209.66 -0.98 209.66 -1.44 L 209.66 -1.44 L 209.66 -15.36 Q 209.14 -15.36 208.37 -14.8 Q 207.6 -14.23 206.75 -13.26 Q 205.9 -12.29 205.07 -10.96 Q 204.24 -9.62 203.57 -8.08 Q 202.9 -6.53 202.48 -4.86 Q 202.06 -3.19 202.06 -1.51 L 202.06 -1.51 L 202.06 0 L 201.34 0 Q 200.33 0 199.86 -0.52 Q 199.39 -1.03 199.39 -2.18 L 199.39 -2.18 Q 199.39 -2.83 199.52 -3.43 Q 199.66 -4.03 199.9 -4.58 L 199.9 -4.58 L 199.9 -15.36 Q 199.37 -15.36 198.6 -14.8 Q 197.83 -14.23 196.98 -13.26 Q 196.13 -12.29 195.3 -10.96 Q 194.47 -9.62 193.8 -8.08 Q 193.13 -6.53 192.71 -4.86 Q 192.29 -3.19 192.29 -1.51 L 192.29 -1.51 L 192.29 0 Z M 226.82 -12.77 L 226.82 -12.77 Q 226.82 -13.49 227.26 -14 Q 227.69 -14.52 228.55 -14.52 L 228.55 -14.52 Q 229.37 -14.52 229.81 -14.06 Q 230.26 -13.61 230.3 -12.96 L 230.3 -12.96 L 238.9 -12.96 Q 238.9 -11.9 238.37 -11.47 Q 237.84 -11.04 237.22 -11.04 L 237.22 -11.04 L 230.71 -11.04 L 230.71 -8.64 Q 230.71 -4.27 228.49 -2.14 Q 226.27 0 221.64 0 L 221.64 0 Q 220.97 0 220.55 -0.17 Q 220.13 -0.34 219.89 -0.62 Q 219.65 -0.91 219.56 -1.31 Q 219.48 -1.7 219.48 -2.16 L 219.48 -2.16 L 219.48 -7.94 Q 219.48 -9.29 219.77 -10.28 Q 220.06 -11.28 220.7 -11.93 Q 221.35 -12.58 222.4 -12.89 Q 223.44 -13.2 224.93 -13.2 L 224.93 -13.2 Q 225.6 -13.2 225.97 -12.82 Q 226.34 -12.43 226.34 -11.52 L 226.34 -11.52 L 226.34 -11.28 L 224.93 -11.28 Q 224.06 -11.28 223.45 -11.15 Q 222.84 -11.02 222.43 -10.64 Q 222.02 -10.27 221.83 -9.62 Q 221.64 -8.98 221.64 -7.94 L 221.64 -7.94 L 221.64 -1.92 Q 223.44 -1.92 224.74 -2.26 Q 226.03 -2.59 226.88 -3.37 Q 227.74 -4.15 228.14 -5.44 Q 228.55 -6.72 228.55 -8.64 L 228.55 -8.64 L 228.55 -11.04 Q 227.69 -11.04 227.26 -11.54 Q 226.82 -12.05 226.82 -12.77 Z M 239.38 0 L 238.51 0 Q 236.71 0 236.71 -2.18 L 236.71 -2.18 Q 236.71 -2.83 236.84 -3.43 Q 236.98 -4.03 237.22 -4.58 L 237.22 -4.58 L 237.22 -12.48 Q 237.22 -12.67 237.36 -12.82 Q 237.5 -12.96 237.7 -12.96 L 237.7 -12.96 L 238.9 -12.96 Q 239.09 -12.96 239.23 -12.82 Q 239.38 -12.67 239.38 -12.48 L 239.38 -12.48 L 239.38 -8.33 Q 240 -9.48 240.78 -10.43 Q 241.56 -11.38 242.4 -12.04 Q 243.24 -12.7 244.1 -13.07 Q 244.97 -13.44 245.78 -13.44 L 245.78 -13.44 Q 246.41 -13.44 246.83 -13.27 Q 247.25 -13.1 247.5 -12.82 Q 247.75 -12.53 247.85 -12.13 Q 247.94 -11.74 247.94 -11.28 L 247.94 -11.28 L 247.94 -8.33 Q 248.57 -9.48 249.35 -10.43 Q 250.13 -11.38 250.97 -12.04 Q 251.81 -12.7 252.67 -13.07 Q 253.54 -13.44 254.35 -13.44 L 254.35 -13.44 Q 254.98 -13.44 255.4 -13.27 Q 255.82 -13.1 256.07 -12.82 Q 256.32 -12.53 256.42 -12.13 Q 256.51 -11.74 256.51 -11.28 L 256.51 -11.28 L 256.51 -1.68 L 264.19 -1.68 Q 264.19 -1.15 264.05 -0.83 Q 263.9 -0.5 263.66 -0.32 Q 263.42 -0.14 263.12 -0.07 Q 262.82 0 262.51 0 L 262.51 0 L 255.79 0 Q 255.53 0 255.26 -0.06 Q 255 -0.12 254.8 -0.28 Q 254.59 -0.43 254.47 -0.71 Q 254.35 -0.98 254.35 -1.44 L 254.35 -1.44 L 254.35 -11.52 Q 253.56 -11.52 252.46 -10.9 Q 251.35 -10.27 250.36 -9.02 Q 249.36 -7.78 248.65 -5.9 Q 247.94 -4.03 247.94 -1.51 L 247.94 -1.51 L 247.94 0 L 247.22 0 Q 246.22 0 245.75 -0.52 Q 245.28 -1.03 245.28 -2.18 L 245.28 -2.18 Q 245.28 -2.83 245.41 -3.43 Q 245.54 -4.03 245.78 -4.58 L 245.78 -4.58 L 245.78 -11.52 Q 244.99 -11.52 243.89 -10.9 Q 242.78 -10.27 241.79 -9.02 Q 240.79 -7.78 240.08 -5.9 Q 239.38 -4.03 239.38 -1.51 L 239.38 -1.51 L 239.38 0 Z M 265.42 -5.76 L 265.42 -4.8 Q 265.42 -3.74 265.5 -3.12 Q 265.58 -2.5 265.92 -2.17 Q 266.26 -1.85 266.94 -1.76 Q 267.62 -1.68 268.82 -1.68 L 268.82 -1.68 L 279.53 -1.68 Q 279.53 -1.15 279.38 -0.83 Q 279.24 -0.5 279 -0.32 Q 278.76 -0.14 278.46 -0.07 Q 278.16 0 277.85 0 L 277.85 0 L 268.82 0 Q 266.86 0 265.74 -0.2 Q 264.62 -0.41 264.06 -0.95 Q 263.5 -1.49 263.36 -2.41 Q 263.23 -3.34 263.23 -4.8 L 263.23 -4.8 L 263.23 -5.78 Q 263.23 -7.85 263.51 -9.26 Q 263.78 -10.68 264.71 -11.56 Q 265.63 -12.43 267.37 -12.82 Q 269.11 -13.2 272.06 -13.2 L 272.06 -13.2 Q 273.31 -13.2 273.77 -12.58 Q 274.22 -11.95 274.22 -11.06 L 274.22 -11.06 Q 274.22 -9.22 273.88 -8 Q 273.53 -6.79 272.78 -6.07 Q 272.04 -5.35 270.88 -5.06 Q 269.71 -4.78 268.08 -4.78 L 268.08 -4.78 Q 267.43 -4.78 267.16 -5.03 Q 266.88 -5.28 266.88 -6.02 L 266.88 -6.02 L 266.88 -6.53 L 268.78 -6.6 Q 269.66 -6.62 270.29 -6.78 Q 270.91 -6.94 271.31 -7.4 Q 271.7 -7.87 271.88 -8.78 Q 272.06 -9.7 272.06 -11.28 L 272.06 -11.28 Q 269.88 -11.28 268.57 -11.11 Q 267.26 -10.94 266.56 -10.37 Q 265.85 -9.79 265.63 -8.7 Q 265.42 -7.61 265.42 -5.76 L 265.42 -5.76 Z M 281.71 0 L 280.99 0 Q 279.98 0 279.52 -0.52 Q 279.05 -1.03 279.05 -2.18 L 279.05 -2.18 Q 279.05 -2.83 279.18 -3.43 Q 279.31 -4.03 279.55 -4.58 L 279.55 -4.58 L 279.55 -12.48 Q 279.55 -12.67 279.7 -12.82 Q 279.84 -12.96 280.03 -12.96 L 280.03 -12.96 L 281.23 -12.96 Q 281.42 -12.96 281.57 -12.82 Q 281.71 -12.67 281.71 -12.48 L 281.71 -12.48 L 281.71 -8.16 Q 282.38 -9.34 283.21 -10.32 Q 284.04 -11.3 284.95 -11.99 Q 285.86 -12.67 286.8 -13.06 Q 287.74 -13.44 288.6 -13.44 L 288.6 -13.44 Q 289.22 -13.44 289.64 -13.27 Q 290.06 -13.1 290.32 -12.82 Q 290.57 -12.53 290.66 -12.13 Q 290.76 -11.74 290.76 -11.28 L 290.76 -11.28 L 290.76 -1.68 L 298.44 -1.68 Q 298.44 -1.15 298.3 -0.83 Q 298.15 -0.5 297.91 -0.32 Q 297.67 -0.14 297.37 -0.07 Q 297.07 0 296.76 0 L 296.76 0 L 290.04 0 Q 289.78 0 289.51 -0.06 Q 289.25 -0.12 289.04 -0.28 Q 288.84 -0.43 288.72 -0.71 Q 288.6 -0.98 288.6 -1.44 L 288.6 -1.44 L 288.6 -11.52 Q 287.74 -11.52 286.56 -10.9 Q 285.38 -10.27 284.3 -9.02 Q 283.22 -7.78 282.47 -5.9 Q 281.71 -4.03 281.71 -1.51 L 281.71 -1.51 L 281.71 0 Z M 303.02 -11.04 L 300.62 -11.04 L 300.62 -1.68 L 309.02 -1.68 Q 309.02 -1.15 308.88 -0.83 Q 308.74 -0.5 308.5 -0.32 Q 308.26 -0.14 307.96 -0.07 Q 307.66 0 307.34 0 L 307.34 0 L 299.9 0 Q 299.64 0 299.38 -0.06 Q 299.11 -0.12 298.91 -0.28 Q 298.7 -0.43 298.57 -0.71 Q 298.44 -0.98 298.44 -1.44 L 298.44 -1.44 L 298.44 -11.04 L 295.32 -11.04 Q 295.32 -12.1 295.85 -12.53 Q 296.38 -12.96 297 -12.96 L 297 -12.96 L 298.44 -12.96 L 298.44 -16.32 Q 298.44 -16.51 298.58 -16.66 Q 298.73 -16.8 298.92 -16.8 L 298.92 -16.8 L 300.12 -16.8 Q 300.31 -16.8 300.46 -16.66 Q 300.6 -16.51 300.62 -16.32 L 300.62 -16.32 L 300.62 -12.96 L 304.7 -12.96 Q 304.7 -11.9 304.18 -11.47 Q 303.65 -11.04 303.02 -11.04 L 303.02 -11.04 Z M 309.02 -12.77 L 309.02 -12.77 Q 309.02 -13.49 309.46 -14 Q 309.89 -14.52 310.75 -14.52 L 310.75 -14.52 Q 311.62 -14.52 312.06 -14 Q 312.5 -13.49 312.5 -12.77 L 312.5 -12.77 Q 312.5 -12.46 312.44 -12.23 Q 312.38 -12 312.34 -11.83 L 312.34 -11.83 L 313.85 -10.66 Q 314.45 -10.18 315.12 -9.62 Q 315.79 -9.07 316.33 -8.42 Q 316.87 -7.78 317.23 -6.98 Q 317.59 -6.19 317.59 -5.26 L 317.59 -5.26 Q 317.59 -4.25 317.21 -3.29 Q 316.82 -2.33 315.74 -1.68 L 315.74 -1.68 L 322.85 -1.68 Q 322.85 -1.15 322.7 -0.83 Q 322.56 -0.5 322.32 -0.32 Q 322.08 -0.14 321.78 -0.07 Q 321.48 0 321.17 0 L 321.17 0 L 312.19 0 Q 311.93 0 311.66 -0.06 Q 311.4 -0.12 311.2 -0.28 Q 310.99 -0.43 310.87 -0.71 Q 310.75 -0.98 310.75 -1.44 L 310.75 -1.44 L 310.75 -1.68 L 311.54 -1.68 Q 312.65 -1.68 313.39 -2.03 Q 314.14 -2.38 314.59 -2.9 Q 315.05 -3.43 315.24 -4.06 Q 315.43 -4.68 315.43 -5.26 L 315.43 -5.26 Q 315.43 -5.83 315.26 -6.28 Q 315.1 -6.72 314.81 -7.1 Q 314.52 -7.49 314.14 -7.8 Q 313.75 -8.11 313.34 -8.45 L 313.34 -8.45 L 311.62 -9.79 L 307.73 -0.29 Q 307.61 0 307.32 0 L 307.32 0 L 305.98 0 Q 305.64 0 305.64 -0.31 L 305.64 -0.31 Q 305.64 -0.48 305.74 -0.7 L 305.74 -0.7 L 309.96 -11.11 L 309.58 -11.42 Q 309.02 -11.9 309.02 -12.77 Z" stroke-linecap="round" />
</g>
</svg>