<svg version="1.1" id="Layer_1___iFbTQyB7" xmlns="http://www.w3.org/2000/svg" xmlns:xlink="http://www.w3.org/1999/xlink" x="0px" y="0px" width="1417.32px" height="1417.32px" viewBox="0 0 1417.32 1417.32" enable-background="new 0 0 1417.32 1417.32" xml:space="preserve">
<g>
	<path fill-rule="evenodd" clip-rule="evenodd" class="colour1" fill="#009FDA" d="M496.739,155.897c12.42-11.085,26.279-20.471,38.167-32.176
		c4.38-4.313,6.85-10.007,10.123-15.108c6.238-9.721,12.688-19.209,22.453-25.845c17.975,0.93,35.495-2.083,53.04-5.558
		c8.833-1.749,17.912-2.829,27.027-1.798c0.138,1.343,0.133,2.719,0.435,4.024c3.813,16.506,12.444,31.639,11.938,49.465
		c-0.557,19.613,1.274,39.292-0.645,58.907c-1.168,11.938-2.536,23.774,0.666,35.679c1.909,7.097,1.764,14.383-0.795,21.443
		c-1.939,5.349-1.745,10.933-1.051,16.351c3.365,26.241,6.543,52.538,11.7,78.488c10.739,54.033,37.102,98.562,82.459,130.737
		c7.883,5.592,12.535,11.181,14.859,21.235c5.389,23.306,6.965,46.887,8.842,70.502c0.964,12.137,2.565,24.178,4.021,36.249
		c0.62,5.142,3.433,7.974,7.977,9.851c11.272,4.656,22.987,7.288,35.103,5.81c18.021-2.198,36.001-1.784,54.027-0.752
		c-2.314,22.487-5.716,44.831-9.789,67.046c-7.536,41.082-11.048,82.726-12.601,124.218c-1.625,43.456-5.636,86.67-8.151,130.015
		c-1.563,26.924-2.232,53.937-0.228,80.779c2.618,35.057,6.943,70.005,8.549,105.137c2.009,43.982,3.234,88,4.689,132.007
		c0.662,20.035,0.016,40.151,2.905,60.04c0.788,5.414,0.057,8.21-5.613,8.659c-17.562,2.105-34.646,6.67-51.932,10.176
		c-43.62,8.847-86.592,20.448-129.879,30.707c-20.631,4.888-41.826,6.677-62.872,9.047c-18.732,2.11-37.515,3.797-56.296,5.438
		c-13.539,1.184-27.147,0.972-40.686,0.275c-17.032-0.875-34.134-1.469-50.859-5.479c-13.436-3.222-24.189-11.013-34.253-19.917
		c-3.527-3.12-4.845-7.048-4.058-12.162c2.128-13.811,1.893-27.825,2.577-41.756c1.514-30.814,4.313-61.511,8.018-92.132
		c4.504-37.221,8.754-74.475,13.586-111.654c5.385-41.433,6.508-83.072,6.324-124.743c-0.156-35.389-3.199-70.615-8.521-105.642
		c-5.746-37.813-11.455-75.638-16.553-113.542c-2.536-18.844-2.805-37.96-7.448-56.568c-5.716-22.91-13.574-45.01-23.664-66.335
		c-1.955-5.318-4.107-10.573-5.83-15.966c-9.532-29.835-19.011-59.693-30.992-88.662c-7.298-17.644-12.667-35.659-15.473-54.669
		c-2.283-15.467-3.799-31.176-8.088-46.286c-5.612-19.764-6.022-39.4-0.267-59.153c7-24.027,17.013-46.645,30.08-68.055
		c5.828-9.548,12.102-18.214,21.289-24.74c8.471-6.016,14.91-13.906,19.613-23.185c4.684-9.24,11.165-17.069,18.956-23.812
		c23.359-20.219,43.698-43.452,65.353-65.372l-0.102,0.066C495.491,156.753,496.115,156.325,496.739,155.897z"></path>
	<path fill-rule="evenodd" clip-rule="evenodd" class="colour1" fill="#009FDA" d="M494.969,157.114c-21.654,21.92-41.993,45.153-65.353,65.372
		c-7.791,6.742-14.272,14.572-18.956,23.812c-4.703,9.279-11.142,17.169-19.613,23.185c-9.187,6.525-15.461,15.191-21.289,24.74
		c-13.067,21.41-23.08,44.028-30.08,68.055c-5.755,19.753-5.345,39.39,0.267,59.153c4.29,15.109,5.805,30.818,8.088,46.286
		c2.806,19.01,8.175,37.025,15.473,54.669c11.981,28.969,21.46,58.827,30.992,88.662c1.723,5.393,3.875,10.648,5.83,15.966
		c-20.002-0.739-39.301-4.69-56.992-14.249c-9.465-5.114-15.037-13.145-17.665-24.299c-4.037-17.136-2.397-33.857-0.237-50.801
		c0.72-5.642,1.506-11.333,1.496-17c-0.026-14.558,1.224-29.009,2.357-43.503c1.456-18.612-1.889-36.917-7.55-54.477
		c-8.453-26.223-6.16-51.336,4.567-76.17c16.547-38.311,39.373-72.374,69.748-101.057c27.72-26.176,55.873-51.898,84.06-77.573
		C484.587,163.81,488.644,158.79,494.969,157.114z"></path>
	<path fill-rule="evenodd" clip-rule="evenodd" class="colour2" fill="#262262" d="M840.5,152.196c-9.359-2.368-17.542-6.326-25.38-12.548
		c-18.573-14.746-37.731-28.882-57.571-41.861c-16.064-10.509-34.716-15.184-53.78-17.225c-18.709-2.002-37.477-3.457-56.219-5.151
		c-9.115-1.03-18.194,0.05-27.027,1.799c-17.545,3.474-35.065,6.487-53.04,5.558c6.789-8.063,13.551-16.148,20.377-24.18
		c2.975-3.501,7.253-4.482,11.445-5.49c15.291-3.678,30.857-3.11,46.282-1.98c46.78,3.426,90.19,18.392,131.58,39.806
		c17.136,8.866,32.883,19.866,47.699,32.158C833.918,130.591,840.119,139.9,840.5,152.196z"></path>
	<g>
		<path fill-rule="evenodd" clip-rule="evenodd" class="colour1" fill="#009FDA" d="M932.503,612.87c-18.419,1.115-36.938,1.215-55.418,0.529
			c-2.314,22.487-5.716,44.831-9.789,67.046c-7.536,41.082-11.048,82.726-12.601,124.218c-1.625,43.456-5.636,86.67-8.151,130.015
			c-1.563,26.924-2.232,53.937-0.228,80.779c2.618,35.057,6.943,70.005,8.549,105.137c2.009,43.982,3.234,88,4.689,132.007
			c0.662,20.035,0.016,40.151,2.905,60.04c0.788,5.414,0.057,8.21-5.62,8.66c8.435,1.702,16.833,3.671,25.327,5.051
			c17.009,2.761,34.129,4.731,51.294,6.247c17.642,1.557,35.288,1.653,52.917-0.321c3.292-0.369,4.938-1.889,4.498-5.429
			c-1.88-15.156-2.751-30.417-5.243-45.52c-3.09-18.73-6.609-37.389-7.998-56.403c-0.746-10.216-0.26-20.444-1.226-30.604
			c-1.87-19.653-0.114-39.207,1.067-58.785c0.712-11.785,1.355-23.633-0.134-35.333c-2.469-19.408-3.388-38.944-0.084-58.093
			c3.909-22.655,2.372-44.776-1.162-67.151c-2.859-18.098-3.915-36.521,0.49-54.418c9.396-38.184,8.424-76.663,4.613-115.244
			c-1.96-19.842-1.067-39.019,6.339-57.833c7.223-18.349,12.284-37.238,10.535-57.358c-1.164-13.417,1.84-26.12,7.507-38.265
			c3.57-7.651,7.142-15.304,10.494-23.051c6.562-15.171,12.263-30.596,12.589-47.434C999.245,599.9,967.187,610.769,932.503,612.87z
			"></path>
		<path fill-rule="evenodd" clip-rule="evenodd" class="colour1" fill="#009FDA" d="M1013.614,438.342c1.396,7.605,3.386,15.029,6.748,22.032
			C1019.863,452.494,1016.99,445.341,1013.614,438.342z"></path>
		<polygon fill-rule="evenodd" clip-rule="evenodd" class="colour1" fill="#009FDA" points="1020.959,461.067 1020.53,460.867 1020.612,461.286 		
			"></polygon>
	</g>
	<path fill-rule="evenodd" clip-rule="evenodd" class="colour1" fill="#009FDA" d="M1034.996,500.879c-2.969-13.936-9.685-26.367-14.384-39.593
		c0,0-0.082-0.423-0.082-0.419c-0.237-0.099-0.294-0.265-0.168-0.493c-3.362-7.003-5.352-14.427-6.748-22.032
		c-2.079-9.655-2.561-19.364-1.893-29.247c1.088-16.083,1.62-32.265,0.056-48.294c-3.064-31.406-15.092-59.685-31.253-86.547
		c-22.671-37.679-50.127-70.767-87.287-95.095c-16.632-10.888-34.22-19.811-52.737-26.961c-9.359-2.368-17.542-6.326-25.38-12.548
		c-18.573-14.746-37.731-28.882-57.571-41.861c-16.064-10.509-34.716-15.184-53.78-17.225c-18.709-2.002-37.477-3.457-56.219-5.151
		c0.138,1.344,0.134,2.72,0.436,4.025c3.813,16.506,12.444,31.639,11.938,49.465c-0.557,19.613,1.274,39.292-0.645,58.907
		c-1.168,11.938-2.536,23.774,0.666,35.679c1.909,7.097,1.764,14.383-0.795,21.443c-1.939,5.349-1.745,10.933-1.051,16.351
		c3.365,26.241,6.543,52.538,11.7,78.488c10.739,54.033,37.102,98.562,82.459,130.737c7.883,5.592,12.535,11.181,14.859,21.235
		c5.389,23.306,6.965,46.887,8.842,70.502c0.964,12.137,2.565,24.178,4.021,36.249c0.62,5.142,3.433,7.974,7.977,9.851
		c11.272,4.656,22.987,7.288,35.103,5.81c18.021-2.198,36.001-1.784,54.027-0.752c18.48,0.686,36.999,0.586,55.418-0.529
		c34.684-2.102,66.742-12.97,96.161-31.514c3.945-4.18,7.287-8.655,8.386-14.533C1041.19,544.681,1039.665,522.796,1034.996,500.879
		z"></path>
	<g>
		<path fill-rule="evenodd" clip-rule="evenodd" class="colour3" fill="#d71920" d="M899.067,376.634c-3.707-0.383-6.367,0.421-8.944,1.349
			c-14.028,5.048-27.999,10.165-41.28,17.111c-25.064,13.11-49.809,26.673-71.994,44.431c-2.464,1.972-4.812,4.005-6.697,6.542
			c-1.318,2.097-2.705,4.113-5.808,5.135c0.566-2.713,1.67-4.41,3.214-5.874c7.968-12.634,18.884-22.905,30.379-31.732
			c31.242-23.991,64.173-45.348,102.146-57.82c28.066-9.219,55.737-19.704,86.164-21.677c-2.336-1.627-4.228-2.079-6.229-2.063
			c-12.546,0.106-25.058-0.655-37.59,1.732c-10.615,2.021-21.137,4.483-31.754,6.401c-29.162,5.266-56.031,16.675-81.975,30.387
			c-13.338,7.05-26.235,14.871-38.179,24.368c-11.45,9.104-21.537,19.109-29.529,31.347c-3.664,5.61-5.01,11.977-6.768,18.26
			c-2.118-10.235,1.684-19.055,6.092-27.71c10.932-21.464,28.736-36.984,45.944-53.017c-0.697-0.728-1.395-1.456-2.088-2.186
			c-15.061,8.785-28.018,19.973-39.06,33.502c-7.206,8.831-12.368,18.811-17.534,28.833c0.098,1.754-0.317,3.358-0.813,5.075
			c-1.492,5.171-2.995,10.481-0.358,15.782c3.771,7.578,4.071,15.662,3.573,23.873c4.347,3.713,9.04,6.919,14.089,9.603
			c-2.237-7.215,1.327-12.364,5.891-17.352c3.738-4.085,7.89-7.68,12.203-11.073c17.897-14.075,36.743-26.824,55.703-39.397
			c9.792-6.494,19.254-13.779,29.776-18.796C877.901,386.774,888.133,381.854,899.067,376.634z"></path>
		<path fill-rule="evenodd" clip-rule="evenodd" class="colour3" fill="#d71920" d="M1034.916,501.999c-8.811,7.064-19.572,9.727-29.976,13.104
			c-11.992,3.893-23.641,8.401-33.771,16.141c13.25,1.577,26.577,2.79,39.238,7.431c9.443,3.461,17.437,8.814,23.073,17.438
			c2.532,3.872,1.998,6.688-1.379,9.634c-5.24,4.571-11.074,8.142-17.352,11.013c-29.58,13.527-60.178,22.497-93.135,22.311
			c-13.529-0.077-27.079,1.341-40.599,2.359c-11.413,0.859-22.783-0.77-34.179-0.209c0.306,3.376,0.611,6.752,0.917,10.128
			c12.648,2.114,25.438,2.063,38.18,2.036c28.99-0.063,58.124,1.735,86.424-7.343c17.599-5.645,35.052-11.446,50.927-21.166
			c6.604-4.043,12.038-9.256,13.532-17.031C1041.054,545.797,1040.459,523.805,1034.916,501.999z"></path>
		<path fill-rule="evenodd" clip-rule="evenodd" class="colour3" fill="#d71920" d="M797.799,280.985c-0.162-0.691-0.324-1.382-0.482-2.075
			c-1.218,0.573-2.592,0.95-3.634,1.754c-12.542,9.681-25.036,19.331-36.562,30.344c-20.705,19.784-39.739,40.704-53.292,66.169
			c-1.719,3.23-3.551,6.508-7.219,8.348c3.945-6.682,6.644-13.934,10.206-20.782c6.77-13.012,14.151-25.659,22.349-37.826
			c-0.11-0.538-0.221-1.075-0.329-1.619c-10.21,10.771-18.593,23.037-28.056,34.416c-5.796,6.97-10.82,14.826-19.19,19.275
			c6.116,16.211,13.911,31.527,24.305,45.454c3.157-8.033,7.583-15.584,9.59-24.047c9.385-39.584,34.256-69.625,60.83-98.551
			C783.058,294.507,790.615,287.918,797.799,280.985z"></path>
	</g>
	<g>
		<path fill-rule="evenodd" clip-rule="evenodd" class="colour3" fill="#d71920" d="M976.752,1215.168c-0.409-15.482-0.759-30.968-1.168-46.451
			c-0.031-1.156-0.356-2.304-0.545-3.455c-0.473,2.266-1.072,4.514-1.397,6.8c-1.779,12.509-9.967,19.809-20.33,25.369
			c-0.043,0.081-0.096,0.152-0.137,0.234c-0.049,0.021-0.098,0.042-0.146,0.063c-0.052,0.232-0.104,0.465-0.156,0.698
			c-0.194-0.127-0.388-0.254-0.581-0.381c0.246-0.106,0.492-0.212,0.737-0.317c0.012-0.055,0.024-0.108,0.036-0.162
			c0.083-0.045,0.164-0.092,0.247-0.136c2.712-5.152,7.566-8.474,11.123-12.924c5.302-6.636,8.719-13.803,8.997-22.449
			c0.096-2.964,0.021-6.279,2.631-8.606c1.33-5.607,1.051-11.202-0.138-16.79c-2.659,2.32-3.776,5.601-4.539,8.761
			c-2.016,8.35-8.403,12.622-15.036,16.405c-16.34,9.32-33.842,15.162-52.587,17.765c-16.698,2.318-33.136,7.027-49.876,8.408
			c-23.293,1.922-46.758,1.884-70.154,2.399c-43.378,0.955-86.629-2.032-129.763-5.867c-20.417-1.815-40.699-6.159-59.332-15.785
			c-9.439-4.877-17.509-11.626-25.858-18.161c0.469,1.55,1.11,2.924,2.003,4.105c8.608,11.407,18.842,21.085,31.009,28.615
			c6.086,3.769,12.849,6.104,19.376,8.95c5.219,2.277,10.45,5.17,15.732,7.041c8.254,2.924,17.024,4.562,25.707,6.317
			c26.877,5.438,53.626,11.505,78.86,16.987c-0.424,0-2.516,0.186-4.566-0.028c-31.61-3.289-63.076-7.728-94.525-12.253
			c-5.508-0.794-11.439-2.229-15.988-5.191c-5.436-3.54-11.553-4.37-17.261-6.3c-10.772-3.644-20.719-8.581-29.701-15.289
			c-22.042-16.46-40.474-36.536-57.041-58.386c-10.787-14.229-20.407-29.175-27.763-45.499c-3.999-8.871-7.978-17.752-11.965-26.629
			c-0.498,0.993-0.503,1.787-0.295,2.521c1.118,3.961,2.066,7.988,3.476,11.845c11.567,31.653,26.372,61.64,45.62,89.404
			c19.242,27.757,40.85,52.836,72.464,67.222c3.094,1.408,5.952,3.334,8.92,5.02c-18.436-3.396-35.11-10.625-50.265-21.123
			c-13.042-9.033-22.87-21.336-33.198-33.2c-5.762-6.619-8.695-15.176-15.488-20.911c0,0-0.198,0.16-0.199,0.162
			c2.713,9.307,8.599,16.951,13.091,25.338c10.073,18.806,23.884,34.041,41.121,46.484c15.48,11.175,32.242,20.063,50.053,26.463
			c10.363,3.725,20.784,7.54,31.477,10.538c25.561,7.168,51.519,12.458,77.508,17.639c16.751,3.34,33.521,6.757,50.426,9.108
			c26.426,3.675,53.112,5.399,79.382,10.314c3.016,0.564,5.677,0.239,8.59-0.806c10.29-3.695,20.669-7.15,31.07-10.524
			c18.093-5.868,36.52-10.975,52.187-22.415c12.669-9.25,26.041-17.993,29.193-35.174
			C978.811,1225.588,976.892,1220.435,976.752,1215.168z"></path>
		<path fill-rule="evenodd" clip-rule="evenodd" class="colour3" fill="#d71920" d="M638.9,1113.594c13.367,9.102,28.267,15.714,43.019,21.584
			c13.989,5.566,29.04,9.301,44.053,12.451c34.247,7.187,68.87,9.479,103.703,8.597c26.735-0.678,53.099-4.429,79.032-11.438
			c23.129-6.252,39.688-20.165,51.074-40.77c2.273-4.115,3.84-8.615,5.939-12.834c4.517-9.074,7.558-18.47,7.854-28.738
			c0.072-2.537-0.031-5.521,1.993-7.737c1.967-2.638,1.188-5.596,0.986-8.486c-1.462,3.591-3.351,7.071-4.315,10.79
			c-5.607,21.636-20.817,35.097-38.844,46.239c0,0,0.033-0.013,0.034-0.013c-1.028,1.115-1.891,2.596-4.85,1.365
			c10.948-9.492,23.115-17.55,28.393-33.212c-4.567,3.417-7.753,6.288-11.371,8.424c-16.643,9.826-35.321,12.589-54.016,15.416
			c-11.701,1.77-23.606,0.006-35.184,2.092c-18.966,3.415-38.092,5.476-57.239,7.069c-32.169,2.679-64.411,4.746-96.58-0.18
			c-7.239-1.108-14.376-2.879-21.56-4.346c20.094,11.715,42.59,15.83,64.72,21.088c9.668,0.159,19.159,1.475,28.386,4.668
			c-8.772-0.652-17.545-1.306-26.315-1.955c-1.182-0.105-2.367-0.213-3.554-0.321c-4.425,1.605-8.345-0.769-12.452-1.578
			c-1.53-0.139-3.071-0.278-4.611-0.417c-1.001,0.54-1.932,0.563-2.725-0.372c-1.128-0.051-2.264-0.103-3.399-0.153
			c-3.033,0.983-5.617-0.678-8.349-1.421c-1.063-0.24-2.132-0.479-3.203-0.719c-0.666,0.594-1.172,0.409-1.561-0.322
			c-1.503,0.038-3.015,0.075-4.525,0.112c-2.39-1.01-5.376,0.375-7.455-1.856c-0.74-0.296-1.485-0.599-2.23-0.9
			c-2.039,0.349-3.952,0.048-5.689-1.107c-1.606,0.215-3.134-0.079-4.586-0.806c-2.26,0.461-4.275-0.187-6.162-1.369
			c-1.069-0.271-2.146-0.545-3.223-0.817c-0.68,0.57-1.172,0.322-1.559-0.356c-1.042-0.282-2.09-0.565-3.138-0.848
			c-0.696,0.574-1.195,0.322-1.583-0.375c-1.051-0.27-2.108-0.542-3.166-0.813c-0.665,0.572-1.163,0.343-1.563-0.323
			c-1.058-0.302-2.124-0.603-3.19-0.904c-1.924,0.359-3.648,0.005-5.059-1.428c-1.068-0.306-2.145-0.613-3.22-0.921
			c-4.71-0.575-9.152-1.92-13.125-4.573c-1.933-0.78-3.876-1.566-5.819-2.351c-2.047,0.102-3.632-0.831-4.998-2.23
			c-9.976-3.71-18.999-9.418-28.556-14.16c0.142,1.104,0.638,1.627,1.125,2.158C611.306,1096.611,625.555,1104.507,638.9,1113.594z
			 M926.106,1106.879c0.112-0.824,0.584-1.295,1.413-1.219c0.239,0.021,0.444,0.414,0.665,0.636
			c-0.482,0.224-0.965,0.446-1.448,0.67c-1.322,2.901-4.249,2.563-6.666,3.278C922.088,1109.118,923.285,1106.551,926.106,1106.879z
			"></path>
		<path fill-rule="evenodd" clip-rule="evenodd" class="colour3" fill="#d71920" d="M474.033,1234.566c-12.86-23.746-20.612-49.169-25.192-75.656
			c-0.468-2.707-0.896-5.436-1.086-8.172c-0.185-2.662-0.041-5.346-0.041-8.021c4.354,12.909,7.951,25.86,14.769,37.608
			c0.158-1.229,0.104-2.404-0.298-3.447c-9.292-24.139-14.176-49.017-12.696-74.977c-0.297,0.896-0.753,1.771-0.867,2.691
			c-1.48,11.945-3.301,23.866-4.21,35.856c-0.558,7.361-3.162,14.438-2.615,21.896c0.277,0.688,0.798,1.378,0.797,2.066
			c-0.04,29.357,12.056,54.49,27.52,78.356c3.044,4.698,7.282,8.626,11.001,12.881c0.639,0.731,1.537,1.517,2.517,0.877
			c1.072-0.702,0.519-1.672-0.076-2.515C479.341,1248.037,477.468,1240.909,474.033,1234.566z"></path>
	</g>
	<g>
		<path fill-rule="evenodd" clip-rule="evenodd" class="colour2" fill="#262262" d="M747.578,423.952c0.002,0.031-0.003,0.059-0.001,0.09
			c0.02-0.018,0.035-0.038,0.056-0.056c-0.009-0.036-0.011-0.07-0.019-0.106C747.602,423.904,747.59,423.928,747.578,423.952
			L747.578,423.952z"></path>
		<path fill-rule="evenodd" clip-rule="evenodd" class="colour2" fill="#262262" d="M1028.225,479.626c-8.725-21.716-17.384-43.447-17.1-67.446
			c-7.418-10.582-17.392-12.62-29.951-11.422c-29.903,2.853-57.607,12.706-85.442,23.043c-20.673,7.678-40.173,17.697-60.639,26.071
			c7.048-4.813,13.907-9.932,21.183-14.369c12.032-7.335,24.151-14.569,36.585-21.188c7.754-4.127,16.268-6.799,24.233-10.561
			c13.319-6.291,27.079-11.476,40.98-16.205c13.003-4.424,26.354-7.707,40.211-8.313c5.375-0.235,10.12,1.037,13.927,5.035
			c0.994-23.088-1.956-45.535-10.979-66.986c-0.28-0.644-0.561-1.287-0.841-1.931c-8.389-5.817-17.681-9.425-27.767-11.096
			c9.385-1.288,17.83,0.971,25.508,6.245c-0.024,0-0.04-0.006-0.066-0.006c0.37,0.586,0.74,1.173,1.11,1.76
			c-0.032-0.775,0.195-1.714-1.006-1.751c-0.751-6.063-4.195-11.031-6.679-16.39c-1.123-0.455-2.006-1.074-1.72-2.495
			c-6.539-4.173-12.939-9.387-21.045-9.074c-9.944,0.383-19.954,1.434-29.732,3.271c-30.65,5.759-60.32,14.871-87.773,29.854
			c-18.781,10.25-37.111,21.465-54.33,34.203c-23.52,17.4-40.358,39.864-48.467,68.362c-0.529,1.862-1.268,3.662-0.812,5.644
			c5.154-9.998,10.31-19.952,17.498-28.761c11.042-13.529,23.999-24.718,39.063-33.504c2.511-3.165,6.281-4.118,10.918-6.602
			c-2.749,4.574-5.565,6.905-8.833,8.789c-17.208,16.033-35.013,31.553-45.944,53.017c-4.408,8.656-8.21,17.475-6.092,27.71
			c1.758-6.283,3.104-12.65,6.768-18.26c7.992-12.238,18.079-22.243,29.529-31.347c11.943-9.497,24.841-17.318,38.179-24.368
			c25.943-13.712,52.813-25.121,81.975-30.387c10.617-1.918,21.139-4.379,31.754-6.401c12.532-2.387,25.044-1.625,37.59-1.732
			c2.001-0.017,3.893,0.436,6.229,2.063c-30.427,1.973-58.098,12.458-86.164,21.677c-37.973,12.472-70.903,33.829-102.146,57.82
			c-11.495,8.828-22.411,19.099-30.382,31.735c0.866,0.245,1.731,0.49,2.597,0.736c1.886-2.537,4.233-4.571,6.697-6.542
			c22.186-17.758,46.93-31.321,71.994-44.431c13.281-6.946,27.252-12.063,41.28-17.111c2.577-0.928,5.237-1.732,8.944-1.349
			c-10.935,5.22-21.166,10.14-31.425,15.032c-10.522,5.017-19.984,12.302-29.776,18.796c-18.96,12.573-37.806,25.323-55.703,39.397
			c-4.313,3.393-8.465,6.988-12.203,11.073c-4.563,4.987-8.128,10.136-5.891,17.352c2.309,14.301,6.912,28.111,8.442,42.618
			c2.594,24.574,3.75,49.27,6.777,73.815c1.062,8.604,5.043,12.388,12.704,15.207c18.561,6.83,37.095,4.394,55.762,1.424
			c-0.306-3.375-0.611-6.751-0.917-10.128c-10.041-2.539-20.369-0.874-30.514-2.096c-9.605-1.158-18.853-3.622-29.643-7.036
			c27.917-19.894,58.281-31.858,88.81-43.413c30.796-11.655,62.847-16.773,95.678-17.432c10.131-7.739,21.779-12.248,33.771-16.141
			c10.403-3.377,21.165-6.04,29.976-13.104C1034.023,494.141,1031.139,486.878,1028.225,479.626z"></path>
		<path fill-rule="evenodd" clip-rule="evenodd" class="colour2" fill="#262262" d="M1000.344,315.243c0.017,0.037,0.032,0.075,0.049,0.112
			c0.002,0.001,0.005,0.003,0.007,0.004L1000.344,315.243z"></path>
		<path fill-rule="evenodd" clip-rule="evenodd" class="colour2" fill="#262262" d="M989.774,291.609c-0.001,0.004-0.001,0.008-0.001,0.012
			c0.016,0.01,0.031,0.021,0.048,0.031L989.774,291.609z"></path>
		<path fill-rule="evenodd" clip-rule="evenodd" class="colour2" fill="#262262" d="M851.454,237.333c0.023,0.003,0.046,0.003,0.069,0.007
			c0.014-0.031,0.032-0.053,0.045-0.086L851.454,237.333z"></path>
		<path fill-rule="evenodd" clip-rule="evenodd" class="colour2" fill="#262262" d="M744.315,417.199c6.189-27.753,20.846-50.474,40.765-70.419
			c11.271-11.285,25.214-18.601,37.91-27.723c15.456-11.104,31.412-21.7,49.485-28.337c25.537-9.378,50.614-19.883,77.492-25.621
			c10.604-2.264,18.688,0.177,27.399,4.266c-7.864-12.941-15.757-25.872-26.468-36.771c-0.446-0.409-0.892-0.817-1.338-1.225
			l0.099,0.101c-2.925-1.963-5.773-4.053-8.794-5.859c-5.497-3.289-11.222-4.837-17.902-4.077
			c-22.492,2.559-44.323,7.827-65.784,14.828c-1.866,0.608-3.666,1.265-5.656,0.977c-0.54,1.235-1.738,1.069-2.777,1.238
			c-13.366,6.646-27.768,10.964-40.881,18.179c-10.141,6.575-20.725,12.439-30.437,19.709c-7.651,5.728-15.878,10.682-22.689,17.515
			c-1.614,1.62-3.518,3.022-5.89,3.489c-0.025,0.027-0.052,0.053-0.077,0.08c-0.11,0.215-0.222,0.428-0.332,0.642
			c0.099-0.232,0.197-0.464,0.296-0.695c0.039-0.007,0.074-0.02,0.113-0.027c15.604-16.687,34.546-29.114,53.333-41.739
			c1.325-0.891,2.706-1.606,4.384-1.375c15.309-9.726,31.619-17.273,48.987-22.519c1.453-1.606,3.528-1.707,5.425-2.243
			c6.649-4.031,14.14-5.513,21.593-7.105c0.479-0.132,0.958-0.263,1.437-0.395c1.333-1.219,3.025-0.833,4.588-1.023
			c7.105-1.87,14.217-3.718,21.315-5.615c9.541-2.551,18.856-2.494,27.797,2.266c-0.086-2.548-2.271-3.528-3.855-4.795
			c-7.747-6.199-16.88-8.103-26.498-7.646c-20.637,0.979-40.571,5.858-60.37,11.383c-4.565,2.012-9.063,4.245-14.196,4.438
			c-49.391,17.414-88.771,50.283-128.301,83.043c25.712-26.089,54.295-48.685,83.55-70.558c-7.854,1.943-14.233,6.921-20.519,11.327
			c-29.933,20.982-62.216,38.325-91.819,59.795c-3.082,2.235-7.054,3.244-10.613,4.822c1.15,7.952,2.117,15.936,3.492,23.848
			c2.719,15.655,6.066,31.156,13.011,45.617c8.37-4.452,13.394-12.308,19.19-19.278c9.463-11.379,17.846-23.645,28.058-34.421
			c1.128-3.835,4.238-6.098,6.898-8.719c0.007-0.035,0.019-0.067,0.025-0.102c0,0,0.262-0.194,0.262-0.194l-0.222,0.233
			c-0.021,0.021-0.044,0.042-0.065,0.063c-0.887,4.271-3.229,7.623-6.571,10.342c-8.197,12.167-15.579,24.814-22.349,37.826
			c-3.562,6.848-6.261,14.1-10.206,20.782c3.668-1.84,5.5-5.118,7.219-8.348c13.553-25.465,32.587-46.385,53.292-66.169
			c11.525-11.013,24.02-20.663,36.562-30.344c1.042-0.804,2.416-1.181,3.636-1.755c4.458-3.304,8.917-6.608,13.375-9.913
			c0.301,0.396,0.602,0.793,0.903,1.19c-4.499,3.717-7.267,9.473-13.798,10.799c-7.184,6.934-14.741,13.522-21.484,20.86
			c-26.574,28.926-51.445,58.967-60.83,98.551c-2.007,8.463-6.434,16.014-9.59,24.047c11.898,17.533,26.903,31.97,44.086,44.237
			c0.498-8.21,0.197-16.294-3.573-23.873c-2.637-5.3-1.134-10.61,0.358-15.782c0.486-1.688,0.89-3.266,0.812-4.985
			c-3.449,3.12-2.411,7.877-4.194,12.292C741.963,429.409,742.959,423.282,744.315,417.199z"></path>
	</g>
	<g>
		<path fill-rule="evenodd" clip-rule="evenodd" class="colour4" fill="#bcbec0" d="M534.774,940.693c0-0.001,0.114,0.008,0.114,0.008
			c4.591,3.944,6.289,9.527,8.421,14.864l-0.094-0.147c0.365,0.665,0.731,1.329,1.095,1.991c3.182,5.923,7.925,10.667,12.006,15.914
			c19.1,24.553,42.773,43.169,71.296,55.754c16.034,7.073,32.66,11.49,49.968,13.996c20.856,3.019,41.542,7.204,62.561,9.112
			c3.295,0.3,6.616,0.485,9.923,0.441c3.084-0.04,6.165-0.457,9.248-0.707c0.054-0.514,0.107-1.028,0.161-1.543
			c-39.288-3.079-78.249-7.565-114.237-24.87c3.212-2.025,5.631,0.335,8.211,1.062c13.819,3.893,27.95,5.496,42.138,7.363
			c19.351,2.547,38.556,2.405,57.804,0.28c3.712-0.409,7.999,0.038,11.21-2.886c-24.596-2.546-48.083-9.939-71.779-16.42
			c-1.111-0.305-2.35-0.362-3.044-1.51c-0.761-0.164-1.522-0.328-2.284-0.493c-11.027-2.961-21.741-6.667-31.264-13.192
			c-2.616-1.4-5.232-2.802-7.848-4.203c-1.305,0.11-2.112-0.66-2.825-1.597c-1.015-0.67-2.03-1.341-3.045-2.012
			c-2.204-0.065-3.886-1.085-5.171-2.829c-3.41-2.177-6.821-4.354-10.231-6.531c-1.363,0.101-2.157-0.668-2.72-1.785
			c-0.697-0.532-1.395-1.063-2.092-1.597c-1.681-0.508-3.766-0.167-4.702-2.238c-0.47-0.358-0.939-0.717-1.41-1.077
			c-1.196-0.237-2.062-0.892-2.555-2.018c-2.66-2.116-5.319-4.234-7.978-6.352c-1.877-0.743-3.419-1.85-4.159-3.827
			c-17.572-16.987-32.964-35.714-46.521-56.102c-16.348-24.586-31.998-49.455-43.856-76.633
			c-10.689-24.499-20.862-49.171-30.736-74.016c-18.439-46.398-37.155-92.676-52.977-140.044
			c-8.782-26.292-19.817-51.737-28.558-78.031c-0.556-0.221-1.11-0.442-1.667-0.665c5.771,20.663,14.049,40.479,20.577,60.888
			c21.809,68.184,40.76,137.254,63.91,205.028C497.478,850.364,511.317,897.388,534.774,940.693z"></path>
		<path fill-rule="evenodd" clip-rule="evenodd" class="colour4" fill="#bcbec0" d="M925.137,970.431c-3.128,1.938-6.743,3.101-9.83,5.09
			c-9.717,6.262-20.063,11.237-30.713,15.638c-1.17,1.614-2.699,2.365-4.709,1.963c-0.806-0.004-1.612-0.007-2.419-0.011
			c-3.464,4.392-9.195,4.097-13.54,6.546c-11.478,6.473-23.414,6.424-35.688,3.358c-3.208-0.802-6.736,0.622-9.726-1.492
			c-1.188-0.049-2.374-0.099-3.562-0.148c-1.605,0.497-3.188,0.716-4.671-0.361c-1.556,0.025-3.111,0.052-4.667,0.077
			c-3.988,0.167-8.022,0.91-11.854-0.924c-1.579-0.033-3.161-0.066-4.741-0.099c-1.286,0.607-2.499,0.583-3.595-0.423
			c-1.192,0.123-2.386,0.245-3.578,0.367c-2.133,2.18-3.54,1.248-4.621-1.078c-0.783-0.047-1.566-0.094-2.349-0.14
			c-1.724,0.525-3.335,0.392-4.759-0.819c-0.793-0.07-1.588-0.141-2.382-0.211c-1.735,0.497-3.317,0.242-4.709-0.951
			c-2.4,0.022-4.803,0.046-7.205,0.067c-1.802,1.524-2.629,0.19-3.443-1.175c-1.181-0.103-2.361-0.206-3.541-0.309
			c-1.354,0.423-2.548,0.188-3.541-0.865c-0.799-0.084-1.6-0.169-2.399-0.253c-3.301,0.04-6.509-0.339-9.413-2.085
			c-0.78-0.141-1.561-0.282-2.342-0.423c-4.527-0.366-8.962-1.09-12.979-3.401c-0.763-0.113-1.525-0.228-2.289-0.342
			c-1.121,0.439-1.895,0.024-2.425-0.987c-1.934-0.527-3.868-1.055-5.803-1.583c-11.802-2.275-23.024-6.23-33.732-11.667
			c-1.789-0.689-3.578-1.38-5.367-2.07c-2.12-0.103-3.99-0.736-5.331-2.499c-0.623-0.27-1.247-0.542-1.87-0.813
			c-1.574,0.016-2.865-0.561-3.822-1.832c-1.875-0.964-3.75-1.93-5.626-2.894c-1.058,0.154-1.765-0.34-2.261-1.222
			c-5.513-3.21-11.027-6.419-16.541-9.63c-1.388,0.167-2.258-0.447-2.661-1.766c-1.927-1.264-3.854-2.528-5.781-3.794
			c-1.558-0.176-2.743-0.888-3.396-2.363c-0.372-0.141-0.744-0.281-1.116-0.422c-1.939,0.658-2.816-0.468-3.426-2.038
			c-38.363-30.544-66.237-69.265-87.555-113.137c1.66,6.4,3.627,12.514,6.176,18.376c9.504,21.857,20.696,42.811,34.083,62.568
			c15.488,22.858,32.181,44.582,54.715,61.171c18.691,13.76,37.774,26.783,59.616,35.17c1.376-0.411,2.232,0.317,2.952,1.345
			c0.955,0.441,1.911,0.883,2.867,1.326c9.513,2.808,19.104,5.379,28.521,8.477c16.361,5.382,33.134,8.994,49.984,12.347
			c0.692,0.138,1.308,0.661,1.958,1.004c24.992-4.717,50.046-9.149,74.652-15.677c2.953-0.785,5.806-0.973,8.716-0.624
			c7.887,0.942,15.777,2.067,23.625,3.078c17.561,2.261,34.695,0.549,51.782-2.415c10.882-1.889,22.362-3.157,30.732-11.872
			c3.111-3.237,6.052-6.638,10.064-11.061c-9.813,28.754-34.147,38.776-56.928,50.741c10.168-3.796,19.934-8.141,29.461-12.958
			c2.916-1.474,6.339-2.166,8.666-4.82c5.786-6.602,11.876-12.952,17.395-19.769c4.303-5.314,8.508-10.904,8.698-18.281
			c-0.04-2.13,0.28-4.343-0.181-6.377c-2.686-11.825-2.668-23.823-2.605-35.833c-11.108,34.463-39.997,57.953-59.997,66.213
			c3.729-2.767,7.48-5.503,11.183-8.303c22.477-16.994,39.404-38.063,47.889-65.316c1.446-15.02,6.382-29.419,8.109-45.42
			c-1.781,4.758-3.3,8.545-4.626,12.398C967.083,932.645,950.301,954.847,925.137,970.431z M911.235,1014.737
			c-0.479,0.256-1.062,0.334-1.038-0.466c0.006-0.201,0.499-0.49,0.805-0.55c0.292-0.057,0.631,0.133,0.978,0.222
			C911.719,1014.231,911.528,1014.58,911.235,1014.737z"></path>
		<path fill-rule="evenodd" clip-rule="evenodd" class="colour4" fill="#bcbec0" d="M661.442,283.381c-0.171,8.909,2.364,17.441,3.645,26.147
			c3.559-1.578,7.531-2.586,10.613-4.822c29.603-21.47,61.886-38.813,91.819-59.795c6.285-4.405,12.665-9.383,20.519-11.327
			c-29.255,21.873-57.838,44.469-83.55,70.558c39.53-32.76,78.91-65.629,128.301-83.043c3.015-3.486,7.131-5.042,11.324-6.46
			c20.878-11.694,42.231-21.917,68.366-21.606c-9.339-6.458-16.729-13.725-26.628-17.337c-22.137-3.95-42.827,1.128-62.788,10.29
			c-16.227,7.447-31.243,17.158-46.976,25.537c-0.433,0.716-1.262,1.373-1.784,0.677c-0.631-0.84,0.612-1.042,1.119-1.46
			c25.176-16.281,49.946-33.372,80.306-39.033c6.6-1.231,13.139-2.236,19.834-0.932c1.075,0.209,2.334,0.722,3.114-0.673
			c-13.095-6.971-26.843-6.502-40.761-3.435c-20.4,4.496-38.948,13.501-56.849,23.917c-41.849,24.352-78.659,55.257-113.993,88.059
			C665.794,280.934,663.392,281.888,661.442,283.381z"></path>
		<path fill-rule="evenodd" clip-rule="evenodd" class="colour4" fill="#bcbec0" d="M678.903,1157.936c-13.233-3.571-26.047-8.448-38.741-13.59
			c-2.652-1.074-5.873-0.113-7.958-1.693c-8.271-6.273-17.911-10.24-26.417-16.02c-21.498-14.61-39.571-32.886-53.837-54.515
			c-26.069-39.523-47.653-81.344-61.918-126.692c-14.029-44.596-26.98-89.509-39.561-134.531c-7.586-23.647-14.489-47.472-18.687-72
			c-0.048-0.279-0.472-0.496-0.752-0.735c-0.068-2.666-0.135-5.333-0.201-7.998c-1.519,2.702-1.484,5.364,0.148,7.987
			c-0.451,12.335,1.888,24.408,3.676,36.507c2.104,14.232,4.715,28.391,7.106,42.582c1.426,6.061,2.767,12.142,4.291,18.177
			c7.647,30.288,17.057,60.065,26.378,89.86c16.925,54.099,38.869,105.824,71.615,152.584
			c13.134,18.752,28.343,35.285,46.316,49.321c9.396,7.337,19.235,13.777,30.108,19.123c9.97,4.902,20.223,9.405,30.43,13.31
			c8.16,3.122,17.297,5.052,26.241,6.804c17.722,3.471,35.508,5.896,53.426,7.676c5.28,0.525,10.596,0.705,15.895,1.044
			c-11.822-3.629-23.927-5.533-35.658-9.254C700.381,1162.576,689.484,1160.79,678.903,1157.936z"></path>
		<path fill-rule="evenodd" clip-rule="evenodd" class="colour4" fill="#bcbec0" d="M822.99,319.058c-12.696,9.122-26.64,16.438-37.91,27.723
			c-19.919,19.945-34.575,42.666-40.765,70.419c-1.356,6.083-2.353,12.21-0.933,19.134c1.793-4.439,0.729-9.228,4.25-12.347
			c-0.508-2.024,0.254-3.854,0.793-5.75c8.108-28.498,24.947-50.961,48.467-68.362c17.219-12.738,35.549-23.953,54.33-34.203
			c27.453-14.983,57.123-24.095,87.773-29.854c9.778-1.837,19.788-2.888,29.732-3.271c8.105-0.313,14.506,4.901,21.045,9.074
			c-0.286,1.421,0.597,2.04,1.72,2.495c-0.641-0.777-0.277-2.243-1.684-2.496c-2.833-8.15-8.142-14.917-12.442-22.254
			c-8.711-4.089-16.795-6.53-27.399-4.266c-26.878,5.737-51.955,16.242-77.492,25.621
			C854.402,297.358,838.446,307.953,822.99,319.058z"></path>
		<path fill-rule="evenodd" clip-rule="evenodd" class="colour4" fill="#bcbec0" d="M1012.212,384.271c-3.807-3.998-8.552-5.27-13.927-5.035
			c-13.857,0.606-27.208,3.89-40.211,8.313c-13.901,4.729-27.661,9.914-40.98,16.205c-7.966,3.762-16.479,6.434-24.233,10.561
			c-12.434,6.619-24.553,13.852-36.585,21.188c-7.275,4.437-14.135,9.556-21.183,14.369c20.466-8.374,39.966-18.394,60.639-26.071
			c27.835-10.337,55.539-20.19,85.442-23.043c12.56-1.198,22.533,0.84,29.951,11.422
			C1012.893,402.933,1012.216,393.591,1012.212,384.271z"></path>
		<path fill-rule="evenodd" clip-rule="evenodd" class="colour4" fill="#bcbec0" d="M440.179,743.858c7.775,28.627,16.263,57.028,26.381,84.93
			c17.813,49.119,34.277,98.819,64.435,142.379c8.709,12.581,17.378,25.146,27.695,36.484c-1.012-4.942-4.208-8.747-6.843-12.803
			c-15.655-24.091-30.362-48.791-42.493-74.799c-22.032-47.236-39.519-96.332-57.322-145.271
			c-4.413-12.131-8.446-24.398-12.653-36.604c0.247-1.748-0.173-3.322-1.248-4.724c-0.073,1.691-0.416,3.455,1.212,4.698
			C439.015,740.141,439.666,741.97,440.179,743.858z"></path>
		<path fill-rule="evenodd" clip-rule="evenodd" class="colour4" fill="#bcbec0" d="M485.546,1118.322c-14.582-36.715-23.022-74.873-26.52-114.225
			c-0.49-5.518,0.384-11.366-2.084-16.688c-0.521,8.996-1.376,17.98-0.918,27.012c2.154,5.611,1.394,11.606,1.945,17.377
			c2.568,26.875,8.074,52.848,17.541,78.31c12.237,32.91,29.883,62.634,49.277,91.528c5.46,8.137,8.202,10.357,12.612,11.892
			c-8.753-11.699-15.744-23.842-22.562-36.17C504.182,1158.095,493.673,1138.787,485.546,1118.322z"></path>
		<path fill-rule="evenodd" clip-rule="evenodd" class="colour4" fill="#bcbec0" d="M888.596,221.071c-1.532,0.341-3.065,0.682-4.594,1.024
			c-0.473,0.131-0.952,0.263-1.431,0.395c-6.629,4.047-13.822,6.799-21.157,9.227c-0.564,0.301-1.131,0.602-1.696,0.902
			c-0.752,1.229-1.904,1.503-3.232,1.356c-1.386,1.527-3.901,1.366-5.004,3.321c-0.912,0.428-1.823,0.856-2.735,1.284
			c1.039-0.169,2.237-0.003,2.777-1.238c1.99,0.288,3.79-0.368,5.656-0.977c21.461-7.001,43.292-12.27,65.784-14.828
			c6.681-0.76,12.405,0.788,17.902,4.077c3.021,1.806,5.869,3.896,8.794,5.859c-2.817-5.596-6.808-10.174-11.952-13.75
			c-8.94-4.759-18.256-4.817-27.797-2.266C902.813,217.353,895.701,219.201,888.596,221.071z"></path>
		<path fill-rule="evenodd" clip-rule="evenodd" class="colour4" fill="#bcbec0" d="M494.287,1020.559c-0.209-2.188-0.712-4.259-1.572-6.168
			c-16.384-36.343-24.985-75.054-34.515-113.478c-3.662-14.767-6.147-29.814-10.528-44.411c0.802,8.995,1.608,17.987,3.512,26.838
			c1.678,1.637,1.609,3.346,0.212,5.113c0.105,0.642,0.21,1.278,0.319,1.922c3.246,0.807,2.43,3.837,2.87,5.859
			c7.298,33.538,15.394,66.858,27.595,99.012C485.492,1003.972,488.491,1012.954,494.287,1020.559z"></path>
		<path fill-rule="evenodd" clip-rule="evenodd" class="colour4" fill="#bcbec0" d="M660.435,279.677c1.377-0.797,2.754-1.593,4.131-2.39
			c17.593-17.439,34.841-35.234,53.311-51.772c-0.72-0.039-1.439-0.079-2.158-0.118c-18.331,13.064-34.235,29.27-53.385,41.267
			c-2.144,1.343-2.801,2.961-2.456,5.385C660.237,274.567,660.263,277.133,660.435,279.677z"></path>
		<path fill-rule="evenodd" clip-rule="evenodd" class="colour4" fill="#bcbec0" d="M968.365,1123.732c-3.185,12.068-9.923,21.494-18.785,29.967
			c-4.403,4.209-9.49,7.694-14.76,13.319c7.329-2.175,11.36-6.645,16.119-9.834c8.736-5.855,16.195-12.721,18.414-23.895
			c1.603-8.063,5.251-15.534,8.403-23.117c0.196-3.444,0.361-6.887-0.874-10.213
			C974.963,1108.221,970.509,1115.616,968.365,1123.732z"></path>
		<path fill-rule="evenodd" clip-rule="evenodd" class="colour4" fill="#bcbec0" d="M431.11,714.642c0.082,0.584,0.163,1.165,0.244,1.747
			c0.251-0.011,0.501-0.035,0.75-0.076c0.021-1.294-0.065-2.623,1.232-3.458c-2.529-17.927-8.017-35.127-12.894-52.478
			c-1.365,0.23-1.01,1.501-1.406,2.319c4.895,16.612,9.465,33.3,11.928,50.486C431.011,713.668,431.061,714.154,431.11,714.642z"></path>
		<path fill-rule="evenodd" clip-rule="evenodd" class="colour4" fill="#bcbec0" d="M636.125,1062.027c0.815-1.727-0.716-2.396-1.939-2.992
			c-3.85-1.881-7.551-4.419-11.624-5.408c-6.458-1.567-10.31-8.114-17.251-8.367c0.316,1.667,5.31,2.213,1.177,4.941
			c0.469,0.578,0.832,1.465,1.44,1.691c8.542,3.172,16.933,6.679,25.069,10.8C633.974,1063.188,635.535,1063.273,636.125,1062.027z"></path>
		<path fill-rule="evenodd" clip-rule="evenodd" class="colour4" fill="#bcbec0" d="M972.626,304.259c10.089,1.671,19.383,5.28,27.773,11.1
			c0.128-1.245-0.39-2.235-1.222-3.101c-0.37-0.587-0.74-1.174-1.11-1.76c0,0,0.109,0.033,0.108,0.033
			C990.486,305.237,982.027,302.969,972.626,304.259z"></path>
		<path fill-rule="evenodd" clip-rule="evenodd" class="colour4" fill="#bcbec0" d="M411.186,652.651c-1.544-8.773-4.97-16.686-9.659-24.081
			C404.746,636.597,407.966,644.624,411.186,652.651z"></path>
		<path fill-rule="evenodd" clip-rule="evenodd" class="colour4" fill="#bcbec0" d="M356.683,501.976c0.606-0.013,1.214-0.024,1.821-0.037
			c-1.962-7.002-3.922-14.006-5.884-21.009C351.739,488.477,355.204,495.006,356.683,501.976z"></path>
		<path fill-rule="evenodd" clip-rule="evenodd" class="colour4" fill="#bcbec0" d="M721.527,976.726c0.826,0.443,1.652,0.886,2.479,1.329
			c0.78-0.041,1.561-0.081,2.34-0.121c0.449,0.704,0.898,1.41,1.346,2.114c1.493,0.599,2.986,1.198,4.479,1.797
			c2.45,0.114,4.771,0.549,6.462,2.572c1.013,0.271,2.026,0.544,3.04,0.816c1.576-0.317,2.863,0.286,4.032,1.264
			c1.39,0.428,2.778,0.857,4.168,1.288c0.951-0.322,1.781-0.188,2.424,0.646c0.794,0.099,1.589,0.197,2.383,0.296
			c0.991-0.329,1.768-0.048,2.337,0.821c1.926,0.274,3.853,0.549,5.778,0.824c0.995-0.576,1.855-0.553,2.477,0.549
			c1.136,0.233,2.271,0.468,3.408,0.702c1.022-0.528,1.861-0.363,2.472,0.658c0.775,0.089,1.552,0.178,2.328,0.267
			c0.97-0.419,1.819-0.362,2.433,0.618c2.704,0.326,5.409,0.652,8.114,0.979c0.948-0.612,1.82-0.729,2.502,0.386
			c1.145,0.178,2.289,0.356,3.435,0.534c0.975-0.529,1.829-0.494,2.473,0.527c1.57,0.125,3.142,0.249,4.712,0.374
			c2.671-0.376,5.305-0.451,7.749,0.971c1.799,0.099,3.599,0.197,5.397,0.297c1.681-0.807,3.118-0.116,4.531,0.732
			c1.218,0.061,2.437,0.122,3.654,0.184c9.032-0.101,17.685,2.451,26.48,3.938c1.583,0.27,2.907,0.63,4.394-0.031
			c9.024-4.006,18.054-7.998,27.08-11.994c0.767-0.153,1.533-0.306,2.301-0.459c1.416-1.063,2.91-1.938,4.748-1.991
			c19.538-9.9,39.096-19.774,53.898-36.642c-0.683-0.584-1.366-1.168-2.049-1.754c-6.339,5.89-13.651,10.144-21.814,12.967
			c-1.734,2.026-4.097,2.313-6.545,2.358c-2.48,2.313-5.781,2.639-8.81,3.621c-1.046,1.353-2.413,1.78-4.057,1.418
			c-3.572,0.841-7.145,1.682-10.717,2.522c-0.616,1.022-1.435,1.208-2.447,0.595c-0.703,0.013-1.407,0.026-2.111,0.039
			c-6.335,1.459-12.437,4.217-19.173,3.44c-0.752,0.185-1.506,0.37-2.259,0.556c-0.618,1.055-1.457,1.201-2.476,0.596
			c-3.045,0.812-6.09,1.624-9.137,2.436c-2.837,0.44-5.674,1.035-8.52,0.057c-0.767,0.172-1.533,0.343-2.301,0.515
			c-6.585,2.02-13.324,2.393-20.145,1.876c-0.772,0.137-1.545,0.275-2.317,0.413c-0.88,1.17-2.023,1.563-3.435,1.16
			c-2.39,0.052-4.78,0.104-7.171,0.155c-3.9,1.201-7.81,1.407-11.73,0.103c-1.202,0.031-2.406,0.063-3.609,0.094
			c-4.331,1.149-8.631,1.059-12.898-0.317c-2.354-0.123-4.709-0.246-7.063-0.37c-3.222,0.473-6.422,0.686-9.485-0.773
			c-1.982-0.063-3.966-0.129-5.949-0.192c-1.408,0.406-2.612,0.168-3.491-1.1c-0.77-0.113-1.539-0.226-2.31-0.338
			c-0.984,0.39-1.861,0.395-2.436-0.68c-1.146-0.21-2.29-0.421-3.436-0.631c-1.03,0.417-1.886,0.289-2.436-0.784
			c-0.76-0.142-1.521-0.282-2.282-0.423c-1.011,0.481-1.872,0.411-2.461-0.664c-0.748-0.21-1.497-0.42-2.246-0.63
			c-1.239,0.231-2.479,0.463-3.718,0.694C725.235,975.554,723.588,975.308,721.527,976.726z"></path>
		<path fill-rule="evenodd" clip-rule="evenodd" class="colour4" fill="#bcbec0" d="M447.402,854.977c0.121-1.875,0.655-3.822-0.882-5.432
			C446.363,851.428,446.232,853.306,447.402,854.977z"></path>
		<path fill-rule="evenodd" clip-rule="evenodd" class="colour4" fill="#bcbec0" d="M436.965,728.909c-0.083,1.631-0.348,3.311,1.163,4.535
			C438.336,731.78,437.989,730.259,436.965,728.909z"></path>
		<path fill-rule="evenodd" clip-rule="evenodd" class="colour4" fill="#bcbec0" d="M560.935,1011.084c0.417,0.368,0.834,0.737,1.251,1.105
			C562.129,1011.413,561.833,1010.906,560.935,1011.084z"></path>
		<path fill-rule="evenodd" clip-rule="evenodd" class="colour4" fill="#bcbec0" d="M747.813,1123.668c8.771,0.649,17.543,1.303,26.315,1.955
			c-9.227-3.193-18.718-4.509-28.386-4.668C746.434,1121.859,747.125,1122.765,747.813,1123.668z"></path>
		<path fill-rule="evenodd" clip-rule="evenodd" class="colour4" fill="#bcbec0" d="M638.487,1101.078c3.974,2.653,8.415,3.998,13.125,4.573
			C647.567,1103.191,643.057,1102.068,638.487,1101.078z"></path>
		<path fill-rule="evenodd" clip-rule="evenodd" class="colour4" fill="#bcbec0" d="M731.807,1121.769c4.107,0.81,8.027,3.184,12.452,1.578
			C740.076,1123.099,736.252,1120.026,731.807,1121.769z"></path>
		<path fill-rule="evenodd" clip-rule="evenodd" class="colour4" fill="#bcbec0" d="M721.071,1120.826c-2.685-1.037-5.251-2.763-8.349-1.421
			C715.454,1120.148,718.038,1121.81,721.071,1120.826z"></path>
		<path fill-rule="evenodd" clip-rule="evenodd" class="colour4" fill="#bcbec0" d="M695.979,1116.62c2.079,2.231,5.065,0.847,7.455,1.856
			C701.61,1115.205,698.644,1116.533,695.979,1116.62z"></path>
		<path fill-rule="evenodd" clip-rule="evenodd" class="colour4" fill="#bcbec0" d="M683.475,1113.807c-1.933-0.985-3.687-2.779-6.162-1.369
			C679.2,1113.62,681.215,1114.268,683.475,1113.807z"></path>
		<path fill-rule="evenodd" clip-rule="evenodd" class="colour4" fill="#bcbec0" d="M693.75,1115.72c-1.714-1.288-3.449-2.47-5.689-1.107
			C689.797,1115.768,691.71,1116.068,693.75,1115.72z"></path>
		<path fill-rule="evenodd" clip-rule="evenodd" class="colour4" fill="#bcbec0" d="M659.892,1108c-1.464-1.256-3.05-2.075-5.059-1.428
			C656.244,1108.005,657.968,1108.359,659.892,1108z"></path>
		<path fill-rule="evenodd" clip-rule="evenodd" class="colour4" fill="#bcbec0" d="M627.67,1096.497c1.366,1.399,2.951,2.332,4.998,2.23
			C631.512,1096.852,629.805,1096.205,627.67,1096.497z"></path>
		<path fill-rule="evenodd" clip-rule="evenodd" class="colour4" fill="#bcbec0" d="M513.403,1151.363c-0.742-1.748-1.421-3.534-3.194-4.556
			l-0.053,0.054c0.052,2.095,0.633,3.995,2.033,5.601C512.594,1152.097,513,1151.73,513.403,1151.363z"></path>
		<path fill-rule="evenodd" clip-rule="evenodd" class="colour4" fill="#bcbec0" d="M724.471,1120.979c0.793,0.936,1.724,0.912,2.725,0.372
			C726.521,1119.53,725.607,1119.472,724.471,1120.979z"></path>
		<path fill-rule="evenodd" clip-rule="evenodd" class="colour4" fill="#bcbec0" d="M707.959,1118.364c0.388,0.731,0.895,0.916,1.561,0.322
			C709.163,1117.803,708.728,1117.292,707.959,1118.364z"></path>
		<path fill-rule="evenodd" clip-rule="evenodd" class="colour4" fill="#bcbec0" d="M663.082,1108.904c0.4,0.666,0.898,0.896,1.563,0.323
			C664.289,1108.336,663.845,1107.871,663.082,1108.904z"></path>
		<path fill-rule="evenodd" clip-rule="evenodd" class="colour4" fill="#bcbec0" d="M667.811,1110.041c0.388,0.697,0.888,0.949,1.583,0.375
			C669.035,1109.589,668.605,1109.064,667.811,1110.041z"></path>
		<path fill-rule="evenodd" clip-rule="evenodd" class="colour4" fill="#bcbec0" d="M672.532,1111.264c0.387,0.679,0.879,0.927,1.559,0.356
			C673.748,1110.738,673.323,1110.217,672.532,1111.264z"></path>
		<path fill-rule="evenodd" clip-rule="evenodd" class="colour4" fill="#bcbec0" d="M495.631,1023.853c-0.002-0.05-0.176-0.092-0.273-0.137
			c-0.041,0.13-0.112,0.263-0.107,0.394c0.001,0.048,0.178,0.091,0.275,0.137C495.566,1024.114,495.637,1023.982,495.631,1023.853z"></path>
		<path fill-rule="evenodd" clip-rule="evenodd" class="colour4" fill="#bcbec0" d="M538.431,1215.598c-0.017,0.21-0.033,0.42-0.05,0.629
			c0.15-0.026,0.327-0.016,0.44-0.097c0.066-0.046,0.03-0.236,0.041-0.362C538.717,1215.711,538.574,1215.654,538.431,1215.598z"></path>
		<path fill-rule="evenodd" clip-rule="evenodd" class="colour4" fill="#bcbec0" d="M509.732,1146.577c0.142,0.095,0.283,0.189,0.424,0.284
			c0,0,0.053-0.054,0.054-0.055C510.051,1146.73,509.892,1146.654,509.732,1146.577z"></path>
		<path fill-rule="evenodd" clip-rule="evenodd" class="colour4" fill="#bcbec0" d="M815.093,355.013c-4.637,2.483-8.407,3.437-10.921,6.604
			c0.693,0.73,1.391,1.458,2.088,2.186C809.527,361.918,812.344,359.587,815.093,355.013z"></path>
		<path fill-rule="evenodd" clip-rule="evenodd" class="colour4" fill="#bcbec0" d="M770.151,446.067c-0.865-0.246-1.73-0.491-2.594-0.739
			c-1.544,1.464-2.647,3.161-3.214,5.874C767.446,450.18,768.833,448.164,770.151,446.067z"></path>
		<path fill-rule="evenodd" clip-rule="evenodd" class="colour4" fill="#bcbec0" d="M811.597,270.186c-0.302-0.396-0.603-0.793-0.903-1.19
			c-4.458,3.304-8.917,6.608-13.377,9.914c0.158,0.693,0.32,1.384,0.482,2.075C804.33,279.659,807.098,273.903,811.597,270.186z"></path>
		<path fill-rule="evenodd" clip-rule="evenodd" class="colour4" fill="#bcbec0" d="M735.802,316.512l0.222-0.233c0,0-0.262,0.194-0.262,0.194
			l0.001,0c-0.007,0.035-0.019,0.066-0.025,0.101C735.759,316.553,735.78,316.533,735.802,316.512z"></path>
		<path fill-rule="evenodd" clip-rule="evenodd" class="colour4" fill="#bcbec0" d="M728.836,325.299c0.108,0.543,0.219,1.081,0.329,1.619
			c3.343-2.72,5.685-6.072,6.572-10.343C733.077,319.196,729.966,321.458,728.836,325.299z"></path>
		<path fill-rule="evenodd" clip-rule="evenodd" class="colour4" fill="#bcbec0" d="M926.105,1106.878c-2.82-0.327-4.018,2.24-6.035,3.366
			c2.417-0.715,5.344-0.377,6.666-3.278l-0.301-0.146C926.436,1106.819,926.105,1106.876,926.105,1106.878z"></path>
	</g>
	<g>
		<path fill-rule="evenodd" clip-rule="evenodd" class="colour2" fill="#262262" d="M534.774,940.693c-0.001,0.001-0.002,0.002-0.003,0.004
			c0.042,0.003,0.074,0,0.118,0.004C534.889,940.701,534.774,940.692,534.774,940.693z"></path>
		<path fill-rule="evenodd" clip-rule="evenodd" class="colour2" fill="#262262" d="M543.215,955.418c0.023,0.043,0.047,0.085,0.07,0.127
			c0.009,0.007,0.016,0.015,0.024,0.021L543.215,955.418z"></path>
		<path fill-rule="evenodd" clip-rule="evenodd" class="colour2" fill="#262262" d="M534.771,940.697c-1.414-0.108-2.102,0.201-2.123,0.865
			C533.233,941.909,533.9,941.759,534.771,940.697z"></path>
		<path fill-rule="evenodd" clip-rule="evenodd" class="colour2" fill="#262262" d="M990.805,1327.617c-1.956-18.134-3.427-36.309-6.656-54.303
			c-2.521-14.055-4.269-28.25-6.359-42.382c-3.152,17.181-16.524,25.924-29.193,35.174c-15.667,11.44-34.094,16.547-52.187,22.415
			c-10.401,3.374-20.78,6.829-31.07,10.524c-2.913,1.045-5.574,1.37-8.59,0.806c-26.27-4.915-52.956-6.64-79.382-10.314
			c-16.904-2.352-33.675-5.769-50.426-9.108c-25.989-5.181-51.947-10.471-77.508-17.639c-10.692-2.998-21.114-6.813-31.477-10.538
			c-17.811-6.4-34.573-15.288-50.053-26.463c-17.237-12.443-31.048-27.679-41.121-46.484c-4.493-8.387-10.378-16.031-13.092-25.338
			c-0.5-0.502-1.001-1.003-1.501-1.505c-1.399-1.605-1.98-3.506-2.033-5.601c-0.141-0.095-0.282-0.189-0.424-0.284
			c0.16,0.077,0.319,0.153,0.478,0.229c1.772,1.022,2.452,2.809,3.192,4.554c0.16,0.817,0.321,1.634,0.484,2.446
			c6.797,5.733,9.73,14.29,15.492,20.909c10.328,11.864,20.155,24.167,33.198,33.2c15.155,10.498,31.829,17.727,50.265,21.123
			c-2.968-1.686-5.826-3.611-8.92-5.02c-31.614-14.386-53.222-39.465-72.464-67.222c-19.248-27.765-34.053-57.751-45.62-89.404
			c-1.41-3.856-2.358-7.884-3.476-11.845c-0.208-0.734-0.203-1.528,0.295-2.521c3.987,8.877,7.966,17.758,11.965,26.629
			c7.356,16.324,16.977,31.271,27.763,45.499c16.566,21.85,34.999,41.926,57.041,58.386c8.982,6.708,18.929,11.646,29.701,15.289
			c5.708,1.93,11.826,2.76,17.261,6.3c4.549,2.962,10.479,4.397,15.988,5.191c31.449,4.525,62.915,8.964,94.525,12.253
			c2.051,0.214,4.143,0.028,4.566,0.028c-25.234-5.482-51.983-11.55-78.86-16.987c-8.682-1.756-17.453-3.394-25.707-6.317
			c-5.282-1.871-10.513-4.764-15.732-7.041c-6.527-2.847-13.29-5.182-19.376-8.95c-12.167-7.53-22.401-17.208-31.009-28.615
			c-0.893-1.182-1.535-2.556-2.003-4.105c8.349,6.535,16.419,13.284,25.858,18.161c18.633,9.626,38.915,13.97,59.332,15.785
			c43.134,3.835,86.385,6.822,129.763,5.867c23.396-0.516,46.861-0.478,70.154-2.399c16.74-1.381,33.178-6.09,49.876-8.408
			c18.745-2.603,36.247-8.444,52.587-17.765c6.633-3.783,13.021-8.056,15.036-16.405c0.763-3.16,1.88-6.44,4.539-8.761
			c2.76-8.682,2.163-17.594,1.832-26.488c-3.152,7.583-6.801,15.055-8.403,23.117c-2.219,11.174-9.678,18.039-18.414,23.895
			c-4.759,3.189-8.79,7.659-16.119,9.834c5.27-5.625,10.356-9.11,14.76-13.319c8.862-8.473,15.601-17.898,18.785-29.967
			c2.144-8.116,6.598-15.512,8.518-23.772c-1.436-15.052-2.226-30.126-1.315-45.252c-2.024,2.216-1.921,5.2-1.993,7.737
			c-0.296,10.269-3.337,19.664-7.854,28.738c-2.1,4.219-3.666,8.719-5.939,12.834c-11.386,20.604-27.945,34.518-51.074,40.77
			c-25.934,7.01-52.297,10.761-79.032,11.438c-34.833,0.883-69.456-1.41-103.703-8.597c-15.013-3.15-30.063-6.885-44.053-12.451
			c-14.752-5.87-29.651-12.482-43.019-21.584c-13.346-9.087-27.595-16.982-38.662-29.099c-0.486-0.531-0.982-1.054-1.125-2.158
			c9.557,4.742,18.58,10.45,28.565,14.165c2.126-0.297,3.833,0.35,4.989,2.226c1.943,0.784,3.887,1.57,5.83,2.354
			c4.559,0.986,9.069,2.109,13.115,4.569c1.075,0.308,2.152,0.615,3.227,0.924c2.002-0.65,3.588,0.169,5.052,1.425
			c1.066,0.302,2.132,0.603,3.197,0.905c0.756-1.034,1.2-0.569,1.556,0.322c1.058,0.271,2.115,0.544,3.172,0.814
			c0.788-0.978,1.218-0.453,1.577,0.374c1.048,0.282,2.096,0.565,3.144,0.848c0.785-1.047,1.209-0.525,1.552,0.356
			c1.077,0.272,2.154,0.546,3.231,0.819c2.466-1.412,4.22,0.382,6.153,1.367c1.452,0.727,2.979,1.021,4.596,0.807
			c2.23-1.363,3.965-0.182,5.679,1.106c0.745,0.302,1.49,0.604,2.235,0.906c2.659-0.093,5.625-1.421,7.45,1.851
			c1.51-0.037,3.021-0.074,4.532-0.111c0.761-1.073,1.196-0.563,1.554,0.321c1.071,0.239,2.14,0.479,3.21,0.719
			c3.09-1.342,5.656,0.384,8.341,1.421c1.136,0.051,2.271,0.103,3.407,0.154c1.129-1.509,2.043-1.45,2.717,0.371
			c1.54,0.139,3.081,0.278,4.621,0.417c4.436-1.742,8.26,1.33,12.442,1.578c1.187,0.108,2.372,0.216,3.558,0.324
			c-0.691-0.906-1.383-1.812-2.074-2.716c-22.13-5.258-44.625-9.373-64.72-21.088c7.184,1.467,14.321,3.237,21.56,4.346
			c32.168,4.926,64.411,2.858,96.58,0.18c19.147-1.594,38.273-3.654,57.239-7.069c11.577-2.086,23.482-0.322,35.184-2.092
			c18.694-2.827,37.373-5.59,54.016-15.416c3.618-2.136,6.804-5.007,11.371-8.424c-5.277,15.662-17.444,23.72-28.393,33.212
			c2.959,1.23,3.821-0.25,4.851-1.367l-0.035,0.015c18.026-11.143,33.236-24.604,38.844-46.239c0.965-3.719,2.854-7.199,4.315-10.79
			c1.032-8.647,1.904-17.319,3.182-25.932c0.455-3.077-1.461-0.291-1.802-1.016c-0.001,0-0.001,0-0.002,0.001
			c0.245,1.104,0.18,2.051-1.177,2.342c0.006,0.013,0.01,0.024,0.016,0.038c-0.018-0.005-0.03-0.003-0.048-0.008
			c-0.222,0.389-0.443,0.778-0.666,1.166c-0.127-0.148-0.367-0.302-0.361-0.446c0.024-0.675,0.415-0.883,1.027-0.72
			c0.005-0.008,0.01-0.017,0.015-0.025c0.007-0.001,0.011-0.004,0.018-0.005c-0.564-1.249-0.438-2.16,1.177-2.342
			c0-0.001,0-0.002,0-0.003c0,0.001,0.001,0.001,0.002,0.002h0.001c-0.713-1.178-0.049-2.28,0.279-3.343
			c2.98-9.663,0.987-19.083-1.316-28.494c-0.19,7.377-4.396,12.967-8.698,18.281c-5.519,6.816-11.608,13.167-17.395,19.769
			c-2.327,2.654-5.75,3.347-8.666,4.82c-9.527,4.817-19.293,9.162-29.461,12.958c22.78-11.965,47.115-21.987,56.928-50.741
			c-4.013,4.423-6.953,7.823-10.064,11.061c-8.37,8.715-19.851,9.983-30.732,11.872c-17.087,2.964-34.222,4.676-51.782,2.415
			c-7.848-1.011-15.738-2.136-23.625-3.078c-2.91-0.349-5.763-0.161-8.716,0.624c-24.606,6.527-49.66,10.96-74.652,15.677
			c-1.813,0.075-3.628,0.153-5.438,0.23c-3.206,2.925-7.493,2.478-11.205,2.887c-19.248,2.125-38.453,2.267-57.804-0.28
			c-14.188-1.867-28.319-3.471-42.138-7.363c-2.58-0.727-4.999-3.087-8.211-1.062c35.988,17.305,74.949,21.791,114.237,24.87
			c-0.054,0.515-0.107,1.029-0.161,1.543c-3.083,0.25-6.164,0.667-9.248,0.707c-3.307,0.044-6.628-0.142-9.923-0.441
			c-21.019-1.908-41.705-6.094-62.561-9.112c-17.308-2.506-33.934-6.923-49.968-13.996c-28.523-12.585-52.197-31.201-71.296-55.754
			c-4.081-5.247-8.824-9.991-12.007-15.916c-0.341-0.62-0.683-1.241-1.024-1.862c-4.338-3.224-6.702-8.04-9.841-12.23
			c-0.545-0.727-0.81-1.313-0.796-1.752c-0.46-0.272-0.87-0.852-1.287-1.538c-9.323-15.353-19.673-30.139-25.932-47.176
			c-0.666,0.003-1.331,0.006-1.996,0.009c8.131,24.983,20.146,48.146,33.251,70.794c13.43,23.209,29.261,44.614,47.765,64.063
			c6.327,6.649,14.647,10.823,20.86,17.546c6.941,0.253,10.793,6.8,17.251,8.367c4.073,0.989,7.774,3.527,11.624,5.408
			c1.223,0.597,2.754,1.266,1.939,2.992c-0.589,1.246-2.151,1.16-3.128,0.665c-8.136-4.121-16.526-7.628-25.069-10.8
			c-0.608-0.227-0.972-1.113-1.44-1.691c-16.931-10.143-32.029-22.43-44.301-38.012c-0.417-0.368-0.834-0.737-1.251-1.105
			l-0.037-0.012c-0.34-0.383-0.679-0.767-1.018-1.148c-0.396-0.756-0.793-1.514-1.19-2.272
			c-10.317-11.339-18.985-23.903-27.695-36.484c-30.158-43.56-46.622-93.26-64.435-142.379
			c-10.118-27.901-18.606-56.303-26.381-84.93c-0.513-1.889-1.164-3.718-0.837-5.71c-1.628-1.243-1.285-3.007-1.212-4.698
			l-0.002-0.006c-1.51-1.225-1.245-2.904-1.163-4.535c-1.21-5.351-2.42-10.703-3.63-16.055c-1.297,0.835-1.211,2.164-1.232,3.455
			c0.014,2.565,0.027,5.132,0.042,7.697c0.055,0.366,0.12,0.731,0.192,1.096c1.225,0.674,1.196,1.71,0.823,2.845
			c0.065,0.598,0.13,1.197,0.195,1.795c3.677,18.659,7.036,37.381,11.774,55.824c2.146,8.35,3.584,16.881,5.344,25.328
			c12.58,45.022,25.531,89.936,39.561,134.531c14.266,45.349,35.85,87.169,61.918,126.692
			c14.266,21.629,32.339,39.904,53.837,54.515c8.505,5.779,18.146,9.746,26.417,16.02c2.085,1.58,5.306,0.619,7.958,1.693
			c12.694,5.142,25.507,10.019,38.741,13.59c10.581,2.854,21.478,4.641,31.901,7.946c11.731,3.721,23.836,5.625,35.658,9.254
			c-5.299-0.339-10.614-0.519-15.895-1.044c-17.918-1.779-35.704-4.205-53.426-7.676c-8.944-1.752-18.081-3.682-26.241-6.804
			c-10.207-3.904-20.46-8.407-30.43-13.31c-10.873-5.346-20.713-11.786-30.108-19.123c-17.973-14.036-33.183-30.569-46.316-49.321
			c-32.747-46.76-54.69-98.485-71.615-152.584c-9.321-29.795-18.731-59.572-26.378-89.86c-1.524-6.035-2.865-12.116-4.291-18.177
			c0.776,10.888,2.621,21.619,4.757,32.308c1.538,1.609,1.003,3.557,0.882,5.432c0.089,0.506,0.18,1.016,0.271,1.525
			c4.38,14.597,6.866,29.645,10.528,44.411c9.529,38.424,18.13,77.135,34.515,113.478c0.86,1.909,1.363,3.979,1.572,6.168
			c-5.796-7.604-8.795-16.587-12.107-25.313c-12.201-32.153-20.297-65.474-27.595-99.012c-0.44-2.022,0.375-5.053-2.87-5.859
			c0.985,11.535,1.99,23.076,2.96,34.619c1.745,20.769,1.645,41.605,2.267,62.416c2.468,5.321,1.594,11.17,2.084,16.688
			c3.497,39.352,11.938,77.51,26.52,114.225c8.127,20.465,18.636,39.772,29.292,59.036c6.818,12.328,13.809,24.471,22.562,36.17
			c-4.41-1.534-7.151-3.755-12.612-11.892c-19.395-28.895-37.04-58.618-49.277-91.528c-9.467-25.462-14.973-51.435-17.541-78.31
			c-0.552-5.771,0.208-11.766-1.945-17.377c-0.68,29.271-3.084,58.415-6.536,87.48c-1.48,25.96,3.404,50.838,12.696,74.977
			c0.401,1.043,0.456,2.219,0.298,3.447c-6.818-11.748-10.415-24.699-14.769-37.608c0,2.675-0.145,5.358,0.041,8.021
			c0.19,2.736,0.619,5.465,1.086,8.172c4.581,26.487,12.333,51.91,25.192,75.656c3.435,6.343,5.308,13.471,9.522,19.446
			c0.595,0.843,1.148,1.813,0.076,2.515c-0.979,0.64-1.877-0.146-2.517-0.877c-3.719-4.255-7.957-8.183-11.001-12.881
			c-15.464-23.866-27.559-48.999-27.52-78.356c0.001-0.688-0.52-1.378-0.797-2.066c-2.526,17.673-4.456,35.415-6.357,53.166
			c-2.95,27.539-5.574,55.093-6.888,82.768c-0.661,13.928-0.57,27.922-2.619,41.747c-0.608,4.105,0.226,7.377,3.041,10.165
			c9.904,9.807,21.128,17.598,34.8,21.061c16.268,4.12,33.013,4.856,49.657,5.61c15.104,0.686,30.255,1.005,45.383-0.569
			c17.966-1.872,36.018-2.981,53.948-5.124c21.014-2.509,42.222-4.127,62.818-9.207c55.5-13.687,111-27.349,167.079-38.503
			c5.905-1.175,11.755-2.783,18-1.478c37.181,7.777,74.681,12.62,112.772,11.448c4.505-0.138,9.006-0.721,13.486-1.284
			C989.403,1331.832,991.165,1330.952,990.805,1327.617z M974.759,1024.226c0.258,0.066,0.487,0.239,0.727,0.371
			c-0.126,0.124-0.251,0.247-0.403,0.397c-0.221-0.135-0.455-0.276-0.688-0.418C974.518,1024.451,974.674,1024.202,974.759,1024.226
			z M495.358,1023.716c0.097,0.045,0.271,0.087,0.273,0.137c0.005,0.13-0.065,0.262-0.105,0.394
			c-0.097-0.046-0.273-0.089-0.275-0.137C495.247,1023.979,495.318,1023.846,495.358,1023.716z M481.176,1050.344
			c0.059-0.226,0.119-0.45,0.179-0.675c0.036,0.174,0.073,0.349,0.109,0.524C481.368,1050.243,481.271,1050.294,481.176,1050.344z
			 M538.821,1216.13c-0.113,0.081-0.29,0.07-0.44,0.097c0.017-0.209,0.033-0.419,0.05-0.629c0.144,0.057,0.287,0.113,0.431,0.17
			C538.851,1215.894,538.887,1216.084,538.821,1216.13z"></path>
		<path fill-rule="evenodd" clip-rule="evenodd" class="colour2" fill="#262262" d="M439.349,738.088c-0.003,0.021-0.004,0.041-0.007,0.061
			c0.014,0.011,0.021,0.022,0.036,0.033L439.349,738.088z"></path>
		<path fill-rule="evenodd" clip-rule="evenodd" class="colour2" fill="#262262" d="M973.432,1162.058c-0.278,8.646-3.695,15.813-8.997,22.449
			c-3.557,4.45-8.411,7.771-11.123,12.924c10.363-5.561,18.551-12.86,20.33-25.369c0.325-2.286,0.925-4.534,1.397-6.8
			c0.341-3.936,0.681-7.872,1.023-11.811C973.453,1155.778,973.527,1159.094,973.432,1162.058z"></path>
		<path fill-rule="evenodd" clip-rule="evenodd" class="colour2" fill="#262262" d="M451.184,883.34c0.071,1.706,0.142,3.41,0.212,5.113
			C452.793,886.686,452.862,884.977,451.184,883.34z"></path>
		<path fill-rule="evenodd" clip-rule="evenodd" class="colour2" fill="#262262" d="M953.028,1197.729c0.049-0.021,0.098-0.043,0.146-0.063
			c0.041-0.082,0.094-0.153,0.137-0.234c-0.083,0.044-0.164,0.091-0.247,0.136C953.053,1197.62,953.04,1197.674,953.028,1197.729z"></path>
		<path fill-rule="evenodd" clip-rule="evenodd" class="colour2" fill="#262262" d="M952.872,1198.427c0.053-0.233,0.104-0.466,0.156-0.698
			c-0.245,0.105-0.491,0.211-0.737,0.317C952.484,1198.173,952.678,1198.3,952.872,1198.427z"></path>
		<path fill-rule="evenodd" clip-rule="evenodd" class="colour2" fill="#262262" d="M926.105,1106.878c0-0.002,0.33-0.059,0.33-0.059l0.301,0.146
			c0.483-0.224,0.966-0.446,1.448-0.67c-0.221-0.222-0.426-0.614-0.665-0.636C926.69,1105.584,926.219,1106.055,926.105,1106.878z"></path>
	</g>
</g>
</svg>