<svg version="1.1" id="Layer_1___n5SyxEBw" xmlns="http://www.w3.org/2000/svg" xmlns:xlink="http://www.w3.org/1999/xlink" x="0px" y="0px" width="1417.32px" height="1417.32px" viewBox="0 0 1417.32 1417.32" enable-background="new 0 0 1417.32 1417.32" xml:space="preserve">
<g>
	<path class="colour1" fill="#009FDA" d="M852.812,144.109c23.282,3.408,47.01,2.999,70.062,8.283c1.901,0.436,3.865,0.819,5.614,1.629
		c0.537,0.249,1.28,0.392,1.89,0.685c1.542-12.192,3.807-24.308,5.776-36.446c0.384-2.366,0.748-4.738,1.127-7.107
		c-0.887,0.978-2.323,1.251-4.859,0.676c-11.462-2.597-23.219-2.019-34.887-2.576c-9.835-0.469-19.625-2.438-29.348-4.22
		c-1.98-0.362-3.836-0.093-5.722-0.378c-0.772-0.861-1.355-1.878-2.738-2.029c-10.18-1.111-20.286-3.099-30.605-2.494
		c-0.836-0.03-1.674-0.06-2.51-0.089c-5.291-0.341-10.583-0.683-15.875-1.023c-7.57,13.432-15.46,26.665-24.541,39.145
		c11.653,0.799,23.309,1.592,34.943,2.61C831.714,141.701,842.315,142.573,852.812,144.109z"></path>
	<path class="colour1" fill="#009FDA" d="M550.195,641.077c-2.457,0.087-4.915,0.174-7.371,0.262c-6.731-0.112-13.494-0.911-20.149,0.847
		c-0.834,0.152-1.669,0.304-2.502,0.456c-0.917-0.216-1.749-0.124-2.385,0.67c-0.795,0.189-1.591,0.378-2.384,0.566
		c-0.885-0.207-1.682-0.113-2.258,0.694c-0.844,0.193-1.688,0.387-2.528,0.58c-0.864-0.233-1.644-0.156-2.229,0.62
		c-0.844,0.158-1.688,0.316-2.529,0.474c-1.236-0.247-2.411-0.208-3.386,0.744c-0.858,0.14-1.716,0.279-2.573,0.419
		c-1.586-0.239-3.123-0.199-4.479,0.824c-0.892,0.124-1.783,0.246-2.672,0.369c-1.987-0.221-3.945-0.227-5.734,0.874
		c-0.87,0.093-1.74,0.186-2.609,0.278c-2.005-0.209-4-0.339-5.83,0.778c-1.035-0.315-2.246,0.153-3.33,0.058
		c1.379,17.936,2.264,35.896,2.972,53.864c1.327-0.754,3.419-1.338,6.673-2.266c12.664-3.609,24.779-9.339,38.282-9.622
		c12.222-0.257,24.379-1.35,36.505-2.839c0.348,0.025,0.696,0.038,1.043,0.059c0.488-12.906,0.924-25.813,1.253-38.724
		c0.092-3.62,0.194-7.24,0.3-10.861C558.231,640.187,554.186,640.158,550.195,641.077z"></path>
	<path class="colour1" fill="#009FDA" d="M943.231,84.928c-1.014,3.09-1.792,6.243-2.427,9.432c0.91-3.107,2.01-6.168,3.403-9.156
		C943.882,85.113,943.557,85.019,943.231,84.928z"></path>
	<path class="colour1" fill="#009FDA" d="M480.156,84.373c-0.112,0.036-0.224,0.069-0.335,0.105c0.369,0.76,0.71,1.525,1.037,2.294
		C480.642,85.969,480.399,85.171,480.156,84.373z"></path>
	<path class="colour1" fill="#009FDA" d="M490.677,150.121c0.09-0.022,0.17-0.051,0.265-0.07c5.188-1.04,10.288-2.714,15.517-3.304
		c10.399-1.176,20.867-1.724,31.295-2.659c20.228-1.814,40.438-3.807,60.672-5.55c12.806-1.104,25.64-1.898,38.463-2.802
		c0.015-0.001,0.031-0.002,0.047-0.003c-6.88-9.862-13.339-20.048-19.55-30.427c-1.846-3.085-3.689-6.172-5.525-9.263
		c-6.553,1.511-13.399,0.22-19.969,1.57c-2.82,0.067-5.639,0.135-8.458,0.203c-3.999-0.408-7.957-0.295-11.824,0.942
		c-0.827,0.063-1.654,0.125-2.479,0.187c-3.011-0.255-6.022-0.51-8.268,2.166c-1.599,0-3.198,0-4.797,0
		c-0.764-1.012-1.504-0.668-2.238,0.042c-0.857,0.083-1.715,0.167-2.572,0.25c-4.738,0.064-9.429,0.44-13.909,2.168
		c-1.857,1.801-4.207,0.834-6.332,1.127c-0.765-1.017-1.537-0.736-2.313-0.014c-1.229,0.119-2.458,0.239-3.686,0.359
		c-2.39-0.313-4.704-0.042-6.934,0.893c-0.863,0.066-1.728,0.13-2.591,0.195c-5.173-0.285-10.311-0.031-15.396,1.02
		c-0.83,0.05-1.661,0.099-2.491,0.148c-1.995-0.222-4.017-0.596-5.693,0.998c-2.644,0.838-4.516,1.131-5.827,0.753
		c0.42,3.459,0.77,6.927,1.177,10.372C488.469,129.641,489.855,139.855,490.677,150.121z"></path>
	<path class="colour1" fill="#009FDA" d="M470.191,881.432c-3.118,17.404-6.98,34.68-11.514,51.872c0.938,0.021,2.198-0.185,3.863-0.569
		c10.179-2.352,20.368-4.663,30.567-6.92c2.689-0.596,5.435-0.931,8.153-1.386c1.958-0.279,3.916-0.561,5.875-0.842
		c1.231-0.111,2.462-0.225,3.693-0.336c4.375,0.385,8.712,0.179,12.999-0.836c2.415-0.082,4.831-0.165,7.245-0.248
		c2.753-0.004,5.506-0.009,8.259-0.014c0.823-0.026,1.647-0.054,2.47-0.08c0.915,0.272,1.548-0.181,2.106-0.823
		c6.055-0.101,12.11-0.202,18.165-0.301c10.317,0.333,20.632,0.511,30.899-0.904c7.582-0.089,15.163-0.177,22.743-0.266
		c13.099,0.363,26.182,0.028,39.251-0.917c24.67-0.011,49.342-0.02,74.012-0.031c19.44,0.313,38.881,0.626,58.32,0.938
		c1.62,0.089,3.239,0.178,4.858,0.267c1.555,0.524,3.114,0.742,4.682,0.044c2.017-0.015,4.033-0.028,6.049-0.042
		c8.689,0.925,17.398,1.193,26.128,0.828c0.812,0.163,1.623,0.328,2.434,0.491c4.753,0.257,9.507,0.513,14.26,0.77
		c3.206,0.121,6.413,0.242,9.62,0.363c4.291,1.098,8.653,1.184,13.039,0.884c1.607,0.124,3.214,0.248,4.819,0.372
		c5.887,1.685,11.937-0.488,17.843,0.746c22.528,0.829,44.493,5.286,66.413,10.145c0.544,0.121,0.999,0.252,1.405,0.402
		c-2.501-10.26-5.151-20.485-7.964-30.676c-1.861-6.743-3.222-13.558-4.292-20.415c-7.901-6.221-17.971-6.149-26.956-9.224
		c-0.885-0.303-1.712-0.774-2.566-1.165c-0.381-1.055-1.195-0.918-2.026-0.731c-0.84-0.187-1.678-0.373-2.514-0.559
		c-3.422-1.681-7.037-1.006-10.608-0.854c-0.847-0.106-1.691-0.214-2.535-0.319c-2.215-1.243-4.615-0.991-7.001-0.848
		c-0.871-0.077-1.742-0.154-2.611-0.231c-1.781-1.16-3.746-1.019-5.721-0.796c-1.672-0.118-3.343-0.236-5.013-0.354
		c-1.119-0.843-2.254-0.8-3.402-0.055c-0.85-0.021-1.699-0.042-2.547-0.062c-2.173-1.431-4.561-1.038-6.93-0.811
		c-1.267-0.131-2.533-0.26-3.799-0.389c-6.655-0.89-13.347-0.955-20.045-0.848c-1.264-0.123-2.527-0.247-3.789-0.371
		c-17.407-0.713-34.818-1.259-52.245-0.846c-2.855-0.099-5.713-0.198-8.566-0.296c-10.223-1.464-20.501-1.089-30.773-0.919
		c-2.86-0.082-5.72-0.163-8.576-0.245c-2.732-0.234-5.464-0.654-8.2-0.675c-17.786-0.133-35.573-0.33-53.358-0.211
		c-17.168,0.116-34.349-0.254-51.5,0.894c-5.244,0.07-10.487,0.142-15.728,0.213c-10.27-0.051-20.573-1.158-30.775,0.968
		c-2.062,0.081-4.123,0.161-6.182,0.243c-6.307-0.154-12.62-0.402-18.853,0.942c-1.663,0.08-3.327,0.159-4.988,0.237
		c-5.126-0.222-10.254-0.453-15.281,0.943c-1.267,0.084-2.533,0.169-3.797,0.253c-4.343-0.306-8.666-0.299-12.909,0.88
		c-2.452,0.143-4.902,0.288-7.351,0.431c-0.737,0.255-1.476,0.511-2.214,0.766c-0.854,0.124-1.707,0.248-2.558,0.371
		c-1.677-0.562-3.173-0.21-4.52,0.899c-9.589,3.468-19.779,5.124-29.025,9.63C470.802,880.97,470.505,881.247,470.191,881.432z"></path>
	<path class="colour1" fill="#009FDA" d="M451.666,391.648c-2.04,8.402-3.286,17.197-2.281,26.163c1.828,16.312,7.332,31.887,9.26,48.187
		c2.378-0.837,4.586-2.347,7.013-2.806c8.298-1.569,16.194-5.244,24.872-4.813c2.358-0.295,4.716-0.588,7.074-0.883
		c9.568,0.006,19.137,0.013,28.706,0.02c5.904,0.758,11.818,1.295,17.779,0.818c5.596,0.132,11.193,0.263,16.789,0.394
		c7.491,1.08,15.018,1.29,22.568,0.895c9.169,0.091,18.339,0.183,27.508,0.274c10.299,0.659,20.598,0.594,30.896-0.001
		c4.404,0.001,8.808,0.001,13.211,0.002c24.607,0.308,49.216,0.615,73.824,0.923c10.755,0.105,21.51,0.21,32.265,0.316
		c8.295,0.83,16.599,1.343,24.938,0.784c7.983,0.122,15.966,0.244,23.949,0.366c13.477,0.828,26.952,0.802,40.428-0.037
		c5.997-0.099,11.993-0.198,17.988-0.297c8.735,0.472,17.444,0.081,26.136-0.85c1.619-0.006,3.238-0.013,4.858-0.019
		c2.353,0.57,4.706,0.839,7.06,0.001c1.221-0.112,2.442-0.223,3.661-0.334c1.158-0.029,2.317-0.058,3.477-0.087
		c1.243-0.017,2.486-0.035,3.727-0.052c2.34,0.066,4.681,0.133,7.021,0.199c0.477,0.098,0.954,0.197,1.43,0.294
		c0.722,0.275,1.443,0.551,2.166,0.827c10.578,0.721,20.847,2.743,30.896,6.295c0.632,0.224,1.142,0.434,1.552,0.65
		c1.181-7.965,2.619-15.879,4.638-23.68c5.252-20.304,6.061-40.488,2.172-60.852c-1.244-6.507-0.924-12.432,1.1-18.502
		c-0.093-0.262-0.186-0.524-0.278-0.787c0.149-0.031,0.299-0.063,0.448-0.094c0.015-1.536-0.338-3.197,0.134-4.577
		c4.459-13.054,0.36-25.01-5.802-36.005c-17.227-30.739-24.309-64.403-29.835-98.589c-2.225-13.756-4.105-27.59-4.422-41.53
		c-0.191-8.455,0.34-16.836,1.265-25.175c-0.804,0.465-1.781,0.539-2.679,0.247c-5.841-1.897-11.883-2.817-17.807-4.26
		c-3.807-0.928-7.898,0.978-11.394-1.542c-2.52-1.534-5.27-1.098-7.989-0.922c-3.592-0.133-7.183-0.268-10.773-0.401
		c-2.286-0.987-4.689-0.895-7.1-0.747c-1.225-0.142-2.447-0.283-3.67-0.424c-2.688-0.916-5.459-1.013-8.259-0.803
		c-2.436-0.119-4.871-0.238-7.304-0.357c-0.994-0.917-2.172-0.984-3.419-0.73c-7.999-0.559-15.999-1.116-23.995-1.673
		c-2.029-3.509-5.373-1.703-8.193-2.018c-1.591-0.142-3.181-0.282-4.769-0.423c-2.703-1.124-5.526-0.965-8.353-0.751
		c-1.641-0.122-3.281-0.242-4.918-0.362c-3.86-1.139-7.807-1.075-11.767-0.818c-1.543-0.145-3.088-0.289-4.632-0.434
		c-1.836,2.402-3.708,4.782-5.65,7.117c-12.356,14.853-26.316,28.125-41.13,40.496c-6.853,5.722-14.833,9.534-22.944,13.136
		c-1.935,0.859-3.292,0.449-4.958-0.196c-11.529-4.464-21.42-11.312-30.466-19.725c-13.762-12.8-25.745-26.954-36.625-41.953
		c-0.37,0.022-0.745,0.028-1.087,0.048c-13.725,0.817-27.484,1.284-41.162,2.603c-12.294,1.184-24.581,2.131-36.917,2.469
		c-2.042-0.237-4.065-0.315-5.942,0.756c-1.593,0.142-3.186,0.283-4.777,0.426c-2.784-0.181-5.559-0.24-8.217,0.838
		c-2.03,0.134-4.062,0.267-6.091,0.401c-3.855-0.105-7.744-0.615-11.475,0.896c-8.152,2.046-16.695,1.167-24.861,3.44
		c-2.69,0.749-5.503,1.713-8.532,1.404c-0.316-0.032-0.651,0.017-0.986,0.083c0.303,4.973,0.451,9.959,0.349,14.966
		c-0.567,27.829-6.043,54.89-11.996,81.944c-5.387,24.476-13.631,47.866-24.022,70.614c-4.335,9.489-7.064,19.527-6.559,30.167
		C451.758,365.454,454.959,378.078,451.666,391.648z"></path>
	<path class="colour1" fill="#009FDA" d="M563.587,576.96c-3.718-0.021-7.437-0.042-11.154-0.063c-3.278-0.363-6.558-1.032-9.833-1.011
		c-3.92,0.026-8.228-1.465-11.558,2.065c-6.969-0.72-13.435,2.766-20.357,2.436c-0.318-0.5-0.623-0.714-0.875,0.046
		c-0.9,0.053-1.8,0.105-2.7,0.159c-3.116-1.166-6.25-0.862-9.391-0.11c-0.832,0.053-1.665,0.107-2.497,0.161
		c-3.715-0.167-7.495-0.655-10.631,2.105c-3.462,0.03-6.892-0.33-10.344,0.852c-0.257,0.088-0.538,0.167-0.832,0.232
		c0.008,3.443-0.069,6.896-0.244,10.358c0.588,16.473,0.435,32.975,1.544,49.431c0.934-0.098,1.867-0.195,2.8-0.292
		c2.382,0.213,4.748,0.272,6.971-0.842c1.254-0.127,2.51-0.255,3.764-0.383c2.024,0.293,4,0.2,5.857-0.776
		c7.386-0.36,14.525-2.004,21.57-4.135c0.877,0.263,1.629,0.101,2.201-0.661c0.859-0.195,1.72-0.39,2.578-0.584
		c0.847,0.239,1.579,0.081,2.146-0.634c0.869-0.132,1.739-0.264,2.606-0.396c8.273-0.133,16.575,0.505,24.809-0.835
		c4.047-0.106,8.096-0.213,12.143-0.319c0.102,0.008,0.204,0.012,0.306,0.02C563.032,614.846,563.629,595.903,563.587,576.96z"></path>
	<path class="colour1" fill="#009FDA" d="M478.604,871.065c13.692-4.253,27.4-8.56,41.822-9.707c2.379,0.375,4.719,0.359,6.941-0.745
		c1.661-0.136,3.321-0.273,4.979-0.411c4.319-0.332,8.703,0.457,12.975-0.736c3.223-0.132,6.445-0.265,9.666-0.396
		c5.536,0.255,11.061,0.265,16.532-0.815c3.232-0.127,6.464-0.256,9.695-0.384c7.921-0.005,15.856,0.438,23.738-0.778
		c17.918-0.153,35.836-0.305,53.752-0.457c21.38,0.002,42.761,0.007,64.143,0.011c7.197,0.145,14.396,0.289,21.589,0.435
		c9.066,1.268,18.18,1.014,27.291,0.803c2.811,0.137,5.62,0.274,8.429,0.411c11.464,1.671,22.988,0.667,34.489,0.752
		c8.396,0.135,16.793,0.269,25.187,0.403c6.263,1.271,12.591,1.07,18.922,0.801c2.428,0.135,4.855,0.271,7.281,0.408
		c1.569,0.862,3.138,0.752,4.703-0.023c1.222,0.003,2.444,0.004,3.665,0.006c1.033,0.718,2.172,0.792,3.362,0.544
		c2.037,0.763,4.141,0.813,6.268,0.593c1.352,1.14,2.925,0.99,4.511,0.763c2.036,0.167,4.072,0.333,6.106,0.499
		c1.99,0.813,3.986,1.199,5.992,0.037c11.34,2.765,22.719,5.382,34,8.372c3.722,0.986,7.218,2.815,10.803,4.313
		c-1.723-13.737-2.57-27.602-4.063-41.372c-0.326-3.014-0.622-6.027-0.892-9.04c-0.767-0.651-1.734-1.128-2.899-1.555
		c0.483,0.082,0.925,0.132,1.326,0.146c-0.401-0.015-0.843-0.064-1.325-0.146c-11.454-7.626-24.83-8.646-37.814-11.01
		c-7.237-1.316-14.473-2.646-21.882-2.349c-0.396-0.309-0.792-0.618-1.188-0.929c0,0-0.108-0.217-0.107-0.216
		c0.124-0.885-0.39-0.921-1.037-0.779c-1.265-0.652-2.493-0.452-3.705,0.148c-4.314-0.109-8.632-0.219-12.948-0.328
		c-1.625-0.049-3.25-0.098-4.872-0.146c-13.85-1.188-27.715-1.678-41.608-0.986c-0.496-0.085-0.991-0.172-1.484-0.258
		c-1.881-0.985-3.772-1.175-5.679-0.068c-0.417-0.004-0.834-0.009-1.25-0.014c-1.107-0.291-2.215-0.831-3.324-0.834
		c-23.112-0.061-46.225-0.06-69.338-0.071c-5.995-0.058-11.99-0.115-17.983-0.171c-15.837-1.041-31.687-1.567-47.558-1.144
		c-2.465-0.027-4.93-0.054-7.394-0.081c-1.919-0.922-3.825-0.701-5.723,0.074c-6.793,0.049-13.587,0.098-20.38,0.146
		c-13.495-0.472-26.963,0.136-40.425,1.004c-2.419,0.05-4.839,0.101-7.257,0.151c-12.699-0.297-25.401-0.644-38.047,1.041
		c-0.829,0.048-1.657,0.095-2.484,0.142c-4.441-0.012-9.037-0.946-12.954,2.173c-9.42-0.917-18.214,2.631-27.339,3.8
		c-8.567,1.098-16.631,3.29-23.874,8.258c-0.815,0.56-1.519,0.913-2.127,1.093c-0.063,0.8-0.116,1.599-0.182,2.398
		c-1.384,16.614-3.466,33.076-6.198,49.42C473.466,872.584,476.114,871.839,478.604,871.065z"></path>
	<path class="colour1" fill="#009FDA" d="M432.042,1341.063c2.44-0.109,4.88-0.219,7.318-0.33c5.964,0.576,11.884,0.176,17.777-0.826
		c4.804-0.121,9.608-0.241,14.411-0.362c5.927,0.214,11.869,0.71,17.71-0.867c0.453-0.095,0.906-0.188,1.358-0.282
		c1.115-0.013,2.231-0.025,3.348-0.039c1.622,0.122,3.243,0.244,4.861,0.367c1.209,0.812,2.423,0.792,3.64,0.012
		c1.167,0,2.333,0,3.497-0.002c1.209,0.813,2.417,0.702,3.62-0.019c5.605-0.145,11.21-0.288,16.814-0.434
		c10.698,0.042,21.408,0.5,32.078-0.751c5.995-0.124,11.99-0.248,17.983-0.373c15.846,0.061,31.696,0.242,47.522-0.857
		c21.105-0.01,42.211-0.021,63.313-0.029c4.725,1.267,9.456,0.964,14.188,0.037c0.833-0.014,1.667-0.027,2.497-0.04
		c3.121,0.611,6.243,1.08,9.365,0.007c6.813,0,13.627-0.001,20.438-0.001c22.968,0.991,45.952,0.934,68.937,0.902
		c4.065,0.304,8.132,0.604,12.183-0.154c1.501,0.014,3.003,0.028,4.506,0.04c1.632,0.151,3.264,0.303,4.893,0.452
		c5.867,1.37,11.813,1.062,17.755,0.802c5.227,0.119,10.452,0.241,15.677,0.362c9.051,1.165,18.143,1.13,27.242,0.85
		c5.998,0.127,11.996,0.254,17.993,0.38c10.268,1.208,20.575,1.103,30.886,0.834c5.189,0.125,10.38,0.251,15.568,0.377
		c7.495,1.082,15.034,1.067,22.581,0.845c2.036,0.103,4.072,0.204,6.105,0.307c4.667,1.132,9.4,1.173,14.157,0.857
		c6.346,0.547,12.689,1.093,19.032,1.64c0.129,0.031,0.257,0.063,0.386,0.093c0.215-9.108,0.973-18.216,0.587-27.322
		c-0.249-5.887-1.178-11.77-1.072-17.642c0.073-4.01,0.045-8.014-0.026-12.015c-1.35,0.152-2.994-0.213-4.407-0.17
		c-0.84-0.091-1.681-0.183-2.52-0.271c-4.669-1.158-9.396-1.475-14.178-0.966c-2.029-0.079-4.06-0.16-6.088-0.239
		c-7.063-1.385-14.247-0.045-21.332-0.938c-1.632-0.082-3.264-0.164-4.895-0.245c-6.684-0.927-13.389-1.382-20.138-0.937
		c-2.826-0.08-5.653-0.16-8.478-0.239c-10.675-0.647-21.342-1.556-32.054-0.964c-4.021-0.076-8.039-0.152-12.058-0.227
		c-13.056-0.892-26.122-1.374-39.21-1.001c-4.015-0.069-8.031-0.137-12.047-0.207c-7.902-0.597-15.805-1.677-23.71-0.013
		c-0.839-0.044-1.678-0.089-2.516-0.133c-1.802-1.293-3.786-1.303-5.84-0.832c-4.413-0.068-8.827-0.136-13.239-0.205
		c-17.439-0.327-34.882-0.654-52.322-0.982c-2.425-0.08-4.849-0.161-7.272-0.242c-19.032-1.653-38.065-0.912-57.097,0.008
		c-3.219,0.063-6.437,0.129-9.654,0.191c-6.94-0.071-13.88-0.246-20.82-0.197c-20.042,0.14-40.093-0.075-60.11,1.264
		c-2.431,0.051-4.861,0.104-7.292,0.154c-15.475-0.422-30.93,0.083-46.379,0.939c-0.833,0.08-1.667,0.162-2.499,0.242
		c-16.263-0.387-32.514-0.144-48.746,1.019c-0.838,0.051-1.675,0.104-2.511,0.156c-8.697,0.354-17.396,0.708-26.094,1.062
		c-1.636,0.053-3.272,0.104-4.908,0.157c-6.754-0.53-13.462-0.068-20.145,0.951c-1.629-0.001-3.259-0.001-4.889-0.002
		c-2.088-0.72-3.93-0.22-5.598,1.138c-2.151,0.624-3.643,1.006-4.691,1.037c-0.095,12.229-0.033,24.465-0.695,36.664
		c-0.354,6.536-0.146,13.18,0.115,19.845c3.636-1.084,7.355-1.273,11.05-1.801C422.653,1342.225,427.379,1342.189,432.042,1341.063z
		"></path>
	<path class="colour1" fill="#009FDA" d="M933.879,651.858c-2.192-1.18-4.551-1.082-6.92-0.89c-0.872-0.098-1.745-0.197-2.616-0.294
		c-1.776-1.15-3.74-1.115-5.732-0.903c-0.872-0.126-1.743-0.251-2.61-0.376c-1.788-1.093-3.736-1.151-5.737-0.881
		c-0.862-0.113-1.725-0.227-2.585-0.34c-2.313-0.266-4.629-0.532-6.944-0.797c-0.415-0.156-0.829-0.312-1.242-0.467
		c-0.592-0.878-1.432-0.894-2.34-0.664c-0.846-0.156-1.69-0.313-2.533-0.469c-1.396-1.095-3.001-0.99-4.62-0.788
		c-0.872-0.096-1.743-0.191-2.614-0.287c-6.206-1.693-12.535-1.178-18.844-1.025c-2.064-0.063-4.127-0.125-6.189-0.189
		c-2.972-0.874-6.005-0.973-9.049-0.943c0.135,5.273,0.269,10.546,0.396,15.819c0.271,11.276,0.459,22.554,0.614,33.833
		c11.646,0.933,23.285,2.065,34.951,2.608c14.449,0.672,27.8,6.106,41.736,8.964c3.014,0.618,6.226,0.886,9.104,2.212
		c0.304-6.271,0.624-12.543,0.946-18.815c0.558-10.866,1.091-21.734,1.62-32.601c-1.146-1.432-3.112-2.311-6.176-2.464
		C935.621,652.019,934.75,651.938,933.879,651.858z"></path>
	<path class="colour1" fill="#009FDA" d="M411.816,1226.953c-0.088,0.283-0.146,0.569-0.213,0.855
		C411.873,1227.733,411.918,1227.421,411.816,1226.953z"></path>
	<path class="colour1" fill="#009FDA" d="M1011.658,1351.98c-0.029,0.006-0.051,0.014-0.08,0.02c-4.023-1.372-8.509,0.975-12.389-1.537
		c-5.341-1.469-10.797-1.011-16.229-0.98c-2.379-0.131-4.758-0.264-7.135-0.395c-6.32-1.327-12.71-0.998-19.095-0.788
		c-4.797-0.115-9.596-0.23-14.391-0.346c-10.275-1.229-20.592-1.03-30.909-0.837c-5.977-0.125-11.952-0.252-17.927-0.379
		c-8.697-1.188-17.439-0.998-26.181-0.822c-5.174-0.127-10.349-0.254-15.521-0.38c-12.685-1.377-25.407-1.012-38.128-0.786
		c-3.159-0.149-6.317-0.301-9.474-0.451c-11.915-1.416-23.872-1.006-35.826-0.781c-11.994-0.005-23.989-0.009-35.981-0.014
		c-4.696,0.02-9.392,0.039-14.089,0.059c-39.015-0.965-78.03-0.792-117.044-0.047c-11.153-0.238-22.309-0.462-33.429,0.791
		c-5.944,0.137-11.888,0.271-17.831,0.407c-9.064,0.022-18.13,0.044-27.197,0.065c-0.873,0.011-1.747,0.021-2.62,0.03
		c-2.016-0.177-4.022-0.263-5.89,0.745c-4.789,0.127-9.578,0.254-14.365,0.383c-12.701-0.044-25.416-0.602-38.087,0.812
		c-3.995,0.112-7.989,0.226-11.982,0.339c-5.182-0.234-10.361-0.392-15.465,0.836c-2.793,0.123-5.585,0.248-8.377,0.371
		c-3.642-0.305-7.28-0.552-10.81,0.761c-2.63,0.876-5.241,1.75-8.092,1.413c0.116,3.261,0.206,6.52,0.206,9.767
		c0,2.498,1.049,3.877,2.909,5.267c9.194,6.869,19.883,10.615,30.803,12.691c41.035,7.8,82.476,13.155,123.838,18.846
		c37.883,5.211,75.719,10.762,113.903,13.898c23.938,1.967,47.438-0.221,71.047-2.414c18.943-1.76,37.806-4.381,56.715-6.525
		c22.224-2.519,44.511-4.539,66.675-7.491c31.878-4.245,63.671-9.138,95.501-13.751c13.143-1.904,25.478-6.338,37.262-12.284
		c2.946-1.486,6.753-2.881,6.235-7.551C1011.878,1357.94,1011.719,1354.961,1011.658,1351.98z"></path>
	<path class="colour1" fill="#009FDA" d="M594.614,1095.901c12.803-1.063,25.777-0.751,38.642-0.217c29.933,1.243,59.862,2.242,89.826,2.406
		c8.313,0.045,16.658,0.96,24.924,1.99c18.404,2.296,36.794,0.226,55.188,0.284c25.381,0.083,50.762,0.539,76.142,0.724
		c26.605,0.193,53.22-0.044,79.789,1.639c11.743,0.745,23.466,1.82,35.194,2.769c-2.384-15.796-5.502-31.483-10.189-46.938
		c-0.615-2.03-1.182-4.071-1.728-6.117c-0.832-0.39-1.827-0.627-3.025-0.679h0.001c-30.81-5.685-62.06-5.055-93.165-6.707
		c-34.548-1.836-69.083,0.043-103.602-0.588c-32.532-0.595-65.03-2.992-97.548-4.479c-41.116-1.881-82.159,0.622-123.216,2.212
		c-26.772,1.037-53.558,1.805-80.316,3.126c-13.965,0.69-28.021,1.136-41.53,5.698c-2.079,0.701-3.479,0.775-4.366,0.25
		c-3.034,13.156-7.057,26.086-9.864,39.299c-0.049,0.231-0.61,0.354-0.921,0.518c0.837,2.582-0.301,4.929-0.908,7.342
		c-0.333,1.973-0.632,3.95-0.917,5.929c44.376-6.025,89.051-4.187,133.595-5.687
		C569.301,1098.249,581.956,1096.953,594.614,1095.901z"></path>
	<path class="colour1" fill="#009FDA" d="M944.572,615.429c0.188-4.327,0.378-8.665,0.567-13.003c-0.437-5.665-0.612-11.306-0.583-16.928
		c-0.845-0.51-1.938-0.913-3.372-1.174c-1.231-0.097-2.462-0.193-3.692-0.29c-5.08-1.086-10.211-1.369-15.386-0.942
		c-2.024-0.079-4.05-0.156-6.074-0.234c-2.36-0.305-4.704-1.567-7.098-0.13c-6.896,0.064-13.673-0.894-20.391-2.37
		c-0.865-1.434-2.127-1.079-3.385-0.751c-3.214-0.139-6.43-0.278-9.645-0.416c-2.355-0.668-4.712-0.667-7.065,0.006
		c-5.399,0.002-10.798,0.004-16.197,0.006c-0.011,18.979,0.409,37.954,0.887,56.929c2.34,0.11,4.678,0.22,7.016,0.33
		c7.84,1.15,15.736,0.832,23.619,0.91c0.913,0.086,1.825,0.173,2.734,0.258c2.16,1.065,4.459,1.176,6.803,0.957
		c0.855,0.109,1.71,0.219,2.563,0.328c1.397,1.05,2.97,0.909,4.557,0.652c0.877,0.157,1.754,0.314,2.63,0.47
		c1.516,0.265,3.032,0.529,4.551,0.794c0.541,0.113,1.082,0.227,1.622,0.34c1.313,0.945,2.788,1.044,4.324,0.821
		c1.251,0.171,2.503,0.343,3.751,0.513c1.405,1.034,2.979,1.067,4.605,0.762c0.919,0.106,1.837,0.212,2.753,0.318
		c2.555,1.198,5.261,1.14,7.983,0.945c1.267,0.092,2.533,0.183,3.798,0.273c0.698-1.021,1.602-0.861,2.611-0.541
		c1.928,0.611,3.23,0.603,4.11,0.083C943.636,634.705,944.101,625.065,944.572,615.429z"></path>
	<path class="colour1" fill="#009FDA" d="M418.706,1167.803c4.365-0.104,8.997-0.295,13.397-1.359c1.963-0.284,3.925-0.568,5.889-0.854
		c2.025-0.104,4.049-0.209,6.073-0.315c4.777,0.465,9.484-0.281,14.204-0.824c5.599-0.135,11.198-0.269,16.795-0.404
		c6.356,0.552,12.668,0.079,18.959-0.831c7.19-0.109,14.38-0.219,21.569-0.328c8.316,0.014,16.633,0.025,24.95,0.04
		c3.594,0.726,7.188,0.635,10.784,0.014c4.739-0.313,9.479-0.626,14.219-0.94c4.808-0.001,9.615-0.004,14.422-0.006
		c1.155,0.686,2.309,0.604,3.463-0.004c2.026-0.107,4.052-0.216,6.079-0.324c9.521,0.534,19.01-0.025,28.491-0.845
		c4.808-0.106,9.614-0.212,14.421-0.318c11.508,0.582,22.98-0.349,34.463-0.857c1.623,0.002,3.245,0.004,4.867,0.007
		c13.458,1.146,26.94,1.141,40.429,0.849c7.586,0.11,15.173,0.22,22.759,0.33c15.834,1.649,31.708,1.039,47.574,0.849
		c1.246-0.049,2.493-0.098,3.738-0.146c5.508,0.529,11.021,0.648,16.542,0.215c5.198,0.1,10.395,0.199,15.59,0.297
		c5.501,0.724,11.011,1.245,16.568,0.77c4.813,0.123,9.626,0.246,14.439,0.369c15.836,1.665,31.727,0.662,47.591,0.996
		c3.605,0.076,7.21,0.153,10.815,0.23c7.484,1.027,15,1.344,22.544,0.87c4.011,0.104,8.02,0.208,12.029,0.312
		c7.896,0.717,15.799,1.241,23.733,0.874c2.816,0.106,5.636,0.214,8.454,0.321c3.505,0.745,7.025,1.315,10.629,0.897
		c1.619,0.113,3.238,0.225,4.856,0.338c1.89,0.724,3.822,1.126,5.852,0.733c1.302,0.146,2.604,0.292,3.905,0.438
		c0.736,0.202,1.474,0.404,2.21,0.605c-2.281-18.883-4.014-37.85-6.596-56.69c-12.972-1.591-26.113-1.294-39.028-3.482
		c-6.173-1.644-12.46-1.081-18.726-0.964c-4.021-0.1-8.042-0.197-12.061-0.295c-29.738-1.842-59.515-0.294-89.269-0.908
		c-4.449-0.383-8.897-0.581-13.34,0.056c-1.116,0.005-2.233,0.01-3.353,0.016c-11.6-1.405-23.198,0.378-34.797,0.017
		c-7.868,0.006-15.739,0.01-23.609,0.014c-2.467-0.109-4.935-0.221-7.399-0.332c-4.229-1.11-8.543-1.131-12.871-0.969
		c-2.013-0.106-4.024-0.213-6.035-0.319c-5.083-1.302-10.254-1.076-15.425-0.858c-3.637-0.09-7.273-0.181-10.908-0.27
		c-12.628-1.421-25.315-0.418-37.968-0.894c-1.663,0.007-3.325,0.014-4.987,0.02c-1.121-0.008-2.244-0.018-3.366-0.025
		c-2.061-0.09-4.122-0.18-6.18-0.269c-15.391-1.781-30.833-1.083-46.265-0.939c-2.074-0.535-4.14-0.455-6.199,0.078
		c-3.127-0.05-6.276-0.322-9.29,0.869c-0.875,0.1-1.75,0.201-2.624,0.301c-6.339-0.427-12.67-0.632-18.927,0.839
		c-2.831,0.109-5.662,0.218-8.491,0.325c-5.491,0.012-11.023-0.664-16.421,0.967c-14.392,0.111-28.79-0.672-43.175,0.258
		c-0.724-0.007-1.449-0.013-2.175-0.02c-1.263-0.01-2.526-0.02-3.789-0.029c-1.121,0-2.242-0.002-3.363-0.004
		c-2.472-0.402-4.938-0.449-7.387,0.152c-3.574-0.189-7.143-0.271-10.643,0.693c-3.202,0.119-6.404,0.236-9.604,0.354
		c-4.765-0.192-9.538-0.496-14.211,0.854c-1.688,1.139-3.533,1.407-5.562,1.354c-8.203-0.216-16.314,0.611-24.364,2.23
		c-0.546,0.109-1.083,0.161-1.587,0.142c-1.983,16.772-2.802,33.672-5.116,50.406c-0.095,0.686-0.642,1.307-0.977,1.959
		c0.059,1.3,0.032,2.591-0.045,3.876C416.658,1168.016,417.585,1167.829,418.706,1167.803z"></path>
</g>
<g>
	<path fill-rule="evenodd" clip-rule="evenodd" class="colour2" fill="#262262" d="M974.525,311.454c-1.24-21.158-2.504-42.316-3.498-63.485
		c-2.202-46.884-4.31-93.773-3.716-140.735c0.149-11.774,0.171-12.219-10.982-15.986c-4.459-1.506-6.789-6.751-12.121-6.044
		c-4.89,10.48-6.234,21.842-8.055,33.057c-3.55,21.88-8.069,43.685-7.563,66.004c0.316,13.939,2.197,27.774,4.422,41.53
		c5.526,34.186,12.608,67.85,29.835,98.589c6.162,10.995,10.261,22.951,5.802,36.005c-0.478,1.398-0.108,3.085-0.133,4.639
		c2.061-0.685,2.591-2.472,2.452-4.227c-0.404-5.133,1.795-9.552,3.642-14.034c1.371-3.327,1.833-6.728,2.323-10.251
		C978.129,327.912,975.016,319.824,974.525,311.454z"></path>
	<path fill-rule="evenodd" clip-rule="evenodd" class="colour2" fill="#262262" d="M479.82,84.478c-5.763,1.58-10.506,5.844-16.596,6.477
		c-5.565,0.579-6.746,3.952-6.717,8.877c0.314,52.46,0.108,104.918-4.261,157.243c-1.711,20.498-2.325,41.114-6.72,61.359
		c-2.515,11.587-3.333,23.308,3.258,34.166c-0.505-10.641,2.224-20.678,6.559-30.167c10.391-22.748,18.636-46.138,24.022-70.614
		c5.953-27.054,11.429-54.115,11.996-81.944c0.345-16.967-2.122-33.704-4.102-50.454C485.863,107.602,485.172,95.508,479.82,84.478z
		"></path>
</g>
<g>
	<path class="colour2" fill="#262262" d="M944.568,584.029c-0.838,0.347-1.943,0.449-3.384,0.295c1.434,0.261,2.527,0.665,3.372,1.174
		C944.559,585.009,944.563,584.519,944.568,584.029z"></path>
	<path class="colour2" fill="#262262" d="M941.714,652.089c-1.729-0.144-3.479-0.003-5.221,0.011c3.056,0.153,5.019,1.028,6.167,2.454
		c-0.258,5.224-0.511,10.446-0.77,15.67c2.028,0.119,2.132-1.845,2.136-3.378c0.017-5.094-0.094-10.188-0.102-15.283
		c-0.011-7.575-0.005-15.149-0.003-22.724c-0.251,5.169-0.508,10.34-0.762,15.509c-0.879,0.516-2.18,0.523-4.102-0.086
		c-1.01-0.32-1.913-0.481-2.611,0.541c1.896,0.28,3.789,0.75,5.692,0.794c0.372,0.009,0.683,0.052,0.954,0.121
		c-0.104,2.118-0.208,4.236-0.313,6.354C942.464,652.108,942.119,652.123,941.714,652.089z"></path>
	<path class="colour2" fill="#262262" d="M946.847,785.618c-2.937-0.07-5.981,0.279-8.442,0.723c0.271,12.487,0.881,24.974,1.957,37.461
		c-0.411,0.111-0.887,0.161-1.443,0.14c-0.401-0.015-0.843-0.064-1.326-0.146c1.165,0.427,2.133,0.903,2.899,1.555
		c-0.035-0.385-0.063-0.77-0.095-1.154c0.296,3.398,0.618,6.796,0.986,10.194c2.496,23.038,3.18,46.338,9.212,68.863
		c0.223,0.071,0.475,0.124,0.777,0.147c3.117,0.236,7.754-0.543,11.946-2.081c-1.099-7.878-2.261-15.745-3.631-23.576
		C954.336,847.153,949.219,816.532,946.847,785.618z"></path>
	<path class="colour2" fill="#262262" d="M999.524,1121.875c-1.911-15.554-5.186-30.936-7.325-46.467c-3.084-22.386-5.641-44.849-9.972-67.046
		c-1.823,0.844-3.386,1.664-4.151,2.109c-1.181,0.688-2.311,1.469-3.452,2.229c2.09,13.138,4.228,26.264,7.61,39.108
		c-0.042-0.156-0.084-0.313-0.125-0.471c-0.687,0.281-1.599,0.392-2.732,0.425h-0.001c1.195,0.052,2.188,0.288,3.019,0.676
		c0.546,2.048,1.118,4.089,1.734,6.12c6.933,22.857,10.435,46.227,13.201,69.702c0.286,0.216,0.678,0.313,1.254,0.208
		c0.281-0.052,0.876-0.26,1.655-0.57C1000.005,1125.891,999.771,1123.882,999.524,1121.875z"></path>
</g>
<g>
	<path fill-rule="evenodd" clip-rule="evenodd" class="colour4" fill="#BCBEC0" d="M944.572,615.429c-0.219,4.469-0.435,8.94-0.65,13.41
		c-0.002,7.575-0.008,15.149,0.003,22.724c0.008,5.095,0.118,10.189,0.102,15.283c-0.004,1.533-0.107,3.498-2.136,3.378
		c-0.28,5.647-0.552,11.294-0.842,16.941c-1.697,33.063-3.359,66.119-2.645,99.176c2.461-0.443,5.506-0.793,8.442-0.723
		c-0.687-8.945-1.156-17.915-1.319-26.917C944.658,710.956,943.869,663.2,944.572,615.429z"></path>
	<path fill-rule="evenodd" clip-rule="evenodd" class="colour4" fill="#BCBEC0" d="M969.803,946.38c-2.536-14.956-4.389-30.029-6.484-45.061
		c-4.192,1.538-8.829,2.317-11.946,2.081c-0.303-0.023-0.555-0.076-0.777-0.147c0.099,0.37,0.188,0.741,0.289,1.11
		c7.58,27.46,13.987,55.176,19.444,83.128c1.632,8.358,2.957,16.786,4.296,25.209c1.142-0.76,2.271-1.54,3.452-2.229
		c0.766-0.445,2.328-1.266,4.151-2.109c-0.176-0.9-0.335-1.803-0.517-2.702C977.719,985.904,973.172,966.242,969.803,946.38z"></path>
	<path fill-rule="evenodd" clip-rule="evenodd" class="colour4" fill="#BCBEC0" d="M1006.303,1187.469c-1.973-19.861-3.748-39.749-6.063-59.57
		c-0.779,0.311-1.374,0.519-1.655,0.57c-0.576,0.105-0.968,0.008-1.254-0.208c2.193,18.603,3.924,37.273,6.533,55.811
		c2.569,18.253,1.483,36.904,4.622,55.167C1009.338,1221.916,1008.014,1204.681,1006.303,1187.469z"></path>
	<path fill-rule="evenodd" clip-rule="evenodd" class="colour4" fill="#BCBEC0" d="M945.953,599.03c2.049-17.531,2.994-35.17,5.791-52.637
		c1.981-12.369,4.181-24.788,3.436-37.444c-0.919,4.579-1.764,9.18-2.771,13.745c-5.793,26.272-9.351,52.744-7.27,79.733
		C945.416,601.295,945.817,600.178,945.953,599.03z"></path>
</g>
<g>
	<path class="colour2" fill="#262262" d="M1008.485,1239.238c-3.139-18.263-2.053-36.914-4.622-55.167c-0.668-4.75-1.277-9.509-1.854-14.272
		c-0.736-0.201-1.474-0.403-2.21-0.605c-1.302-0.146-2.604-0.291-3.905-0.438c-2.029,0.393-3.962-0.01-5.852-0.733
		c-1.618-0.113-3.237-0.225-4.856-0.338c-3.604,0.418-7.124-0.152-10.629-0.897c-2.818-0.107-5.638-0.215-8.454-0.321
		c-7.935,0.367-15.838-0.157-23.733-0.874c-4.01-0.104-8.019-0.207-12.029-0.312c-7.544,0.474-15.06,0.157-22.544-0.87
		c-3.605-0.077-7.21-0.154-10.815-0.23c-15.864-0.334-31.755,0.669-47.591-0.996c-4.813-0.123-9.627-0.246-14.439-0.369
		c-5.558,0.476-11.067-0.046-16.568-0.77c-5.195-0.098-10.392-0.197-15.59-0.297c-5.521,0.434-11.034,0.314-16.542-0.215
		c-1.245,0.049-2.492,0.098-3.738,0.146c-15.866,0.19-31.74,0.801-47.574-0.849c-7.586-0.11-15.173-0.22-22.759-0.33
		c-13.489,0.292-26.971,0.298-40.429-0.849c-1.622-0.003-3.244-0.005-4.867-0.007c-11.482,0.509-22.955,1.439-34.463,0.857
		c-4.807,0.106-9.614,0.212-14.421,0.318c-9.481,0.819-18.97,1.379-28.491,0.845c-2.026,0.108-4.052,0.217-6.079,0.324
		c-1.154,0.608-2.309,0.689-3.463,0.004c-4.807,0.002-9.614,0.005-14.422,0.006c-4.74,0.314-9.48,0.628-14.219,0.94
		c-3.596,0.621-7.19,0.712-10.784-0.014c-8.316-0.015-16.634-0.026-24.95-0.04c-7.189,0.109-14.379,0.219-21.569,0.328
		c-6.292,0.91-12.603,1.383-18.959,0.831c-5.598,0.136-11.197,0.27-16.795,0.404c-4.72,0.543-9.427,1.289-14.204,0.824
		c-2.023,0.106-4.048,0.211-6.073,0.315c-1.963,0.285-3.926,0.569-5.889,0.854c-4.4,1.064-9.032,1.256-13.397,1.359
		c-1.121,0.026-2.048,0.213-2.827,0.508c-0.403,6.709-2.333,13.26-2.403,20.003c-0.603,12.974-0.669,25.98-2.366,38.889
		c-0.025,0.188-0.09,0.529-0.047,0.544c0.24,0.084,0.413,0.098,0.541,0.063c0.066-0.286,0.125-0.572,0.213-0.855
		c0.102,0.468,0.057,0.78-0.213,0.855c-0.78,3.354-0.212,6.869-0.797,10.235c-2.833,16.295-3.243,32.712-3.37,49.144
		c1.048-0.031,2.54-0.413,4.691-1.037c1.668-1.357,3.51-1.857,5.598-1.138c1.629,0.001,3.259,0.001,4.889,0.002
		c6.682-1.02,13.391-1.481,20.145-0.951c1.635-0.053,3.271-0.104,4.908-0.157c8.699-0.354,17.397-0.707,26.094-1.062
		c0.836-0.052,1.673-0.105,2.511-0.156c16.232-1.162,32.482-1.405,48.746-1.019c0.833-0.08,1.666-0.162,2.499-0.242
		c15.449-0.856,30.904-1.361,46.379-0.939c2.43-0.051,4.861-0.104,7.292-0.154c20.018-1.339,40.069-1.124,60.11-1.264
		c6.939-0.049,13.88,0.126,20.82,0.197c3.217-0.063,6.435-0.128,9.654-0.191c19.032-0.92,38.064-1.661,57.097-0.008
		c2.424,0.081,4.848,0.162,7.272,0.242c17.44,0.328,34.883,0.655,52.322,0.982c4.412,0.069,8.826,0.137,13.239,0.205
		c2.054-0.471,4.038-0.461,5.84,0.832c0.838,0.044,1.677,0.089,2.516,0.133c7.905-1.664,15.808-0.584,23.71,0.013
		c4.016,0.07,8.032,0.138,12.047,0.207c13.088-0.373,26.154,0.109,39.21,1.001c4.019,0.074,8.037,0.15,12.058,0.227
		c10.712-0.592,21.379,0.316,32.054,0.964c2.824,0.079,5.651,0.159,8.478,0.239c6.749-0.445,13.454,0.01,20.138,0.937
		c1.631,0.081,3.263,0.163,4.895,0.245c7.085,0.894,14.27-0.446,21.332,0.938c2.028,0.079,4.059,0.16,6.088,0.239
		c4.782-0.509,9.509-0.192,14.178,0.966c0.839,0.089,1.68,0.181,2.52,0.271c1.413-0.043,3.058,0.322,4.407,0.17
		C1010.875,1271.636,1009.565,1255.444,1008.485,1239.238z"></path>
	<path class="colour2" fill="#262262" d="M440,1051.025c13.509-4.563,27.565-5.008,41.53-5.698c26.758-1.321,53.544-2.089,80.316-3.126
		c41.057-1.59,82.1-4.093,123.216-2.212c32.518,1.486,65.016,3.884,97.548,4.479c34.519,0.631,69.054-1.248,103.602,0.588
		c31.105,1.652,62.355,1.022,93.165,6.707c1.134-0.033,2.046-0.144,2.732-0.425c-5.461-20.935-7.635-42.609-11.781-63.847
		c-3.432-17.579-7.241-35.064-11.48-52.452c-0.406-0.15-0.861-0.281-1.405-0.402c-21.92-4.858-43.885-9.315-66.413-10.145
		c-5.906-1.234-11.956,0.938-17.843-0.746c-1.605-0.124-3.212-0.248-4.819-0.372c-4.386,0.3-8.748,0.214-13.039-0.884
		c-3.207-0.121-6.414-0.242-9.62-0.363c-4.753-0.257-9.507-0.513-14.26-0.77c-0.811-0.163-1.622-0.328-2.434-0.491
		c-8.729,0.365-17.438,0.097-26.128-0.828c-2.016,0.014-4.032,0.027-6.049,0.042c-1.567,0.698-3.127,0.48-4.682-0.044
		c-1.619-0.089-3.238-0.178-4.858-0.267c-19.439-0.313-38.88-0.625-58.32-0.938c-24.67,0.012-49.342,0.021-74.012,0.031
		c-13.069,0.945-26.152,1.28-39.251,0.917c-7.58,0.089-15.161,0.177-22.743,0.266c-10.267,1.415-20.582,1.237-30.899,0.904
		c-6.055,0.099-12.11,0.2-18.165,0.301c-0.558,0.643-1.191,1.096-2.106,0.823c-0.823,0.026-1.646,0.054-2.47,0.08
		c-2.753,0.005-5.506,0.01-8.259,0.014c-2.415,0.083-4.831,0.166-7.245,0.248c-4.286,1.015-8.624,1.221-12.999,0.836
		c-1.231,0.111-2.462,0.225-3.693,0.336c-1.958,0.281-3.917,0.563-5.875,0.842c-2.719,0.455-5.464,0.79-8.153,1.386
		c-10.2,2.257-20.388,4.568-30.567,6.92c-1.666,0.385-2.926,0.591-3.863,0.569c-0.345,1.306-0.684,2.613-1.036,3.918
		c0.695-2.575,1.371-5.152,2.036-7.73c0.113-0.665,0.276-1.416,0.497-2.287c0.505-1.995,1.043-3.982,1.572-5.972
		c1.314-5.376,2.56-10.761,3.737-16.156c-0.069-0.023-0.132-0.054-0.225-0.054c-2.951-0.001-5.278-3.517-7.629-2.182
		c-0.527,0.299-0.916,0.798-1.224,1.399c-1.19,8.114-2.402,16.224-3.696,24.32c-0.047,0.752-0.088,1.504-0.099,2.256
		c-0.035,2.311-0.759,4.697-1.446,7.091c-0.287,1.691-0.562,3.384-0.86,5.073c-0.116,0.657-0.242,1.313-0.36,1.969
		c0.103,2.542,1.103,5.013,3.916,7.324c0.002-0.008,0.004-0.017,0.006-0.024c-0.988,4.2-1.926,8.412-2.819,12.634
		c0.042-0.202,0.085-0.405,0.128-0.607c-0.047,0.041-0.088,0.084-0.138,0.124c-0.019,0.305-0.057,0.605-0.08,0.91
		c-5.103,24.201-8.806,48.712-12.766,73.145c-0.698,4.309-1.576,8.577-2.555,12.821C436.521,1051.801,437.921,1051.727,440,1051.025
		z M455.735,944.552c-0.055,0.217-0.107,0.435-0.162,0.652C455.628,944.986,455.681,944.769,455.735,944.552z"></path>
	<path class="colour2" fill="#262262" d="M464.21,512.082c4.824,23.726,9.147,47.506,9.205,71.75c0.293-0.065,0.575-0.145,0.832-0.232
		c3.453-1.182,6.882-0.822,10.344-0.852c3.136-2.76,6.916-2.272,10.631-2.105c0.832-0.054,1.665-0.108,2.497-0.161
		c3.14-0.752,6.274-1.056,9.391,0.11c0.9-0.054,1.8-0.106,2.7-0.159c0.253-0.76,0.557-0.546,0.875-0.046
		c6.922,0.331,13.388-3.155,20.357-2.436c3.33-3.53,7.638-2.039,11.558-2.065c3.275-0.021,6.556,0.648,9.833,1.011
		c3.718,0.021,7.436,0.042,11.154,0.063c-0.015-6.771-0.107-13.542-0.317-20.313c-0.597-19.237-1.765-38.477-4.259-57.595
		c-1.092-8.365,0.227-9.678,8.65-9.143c29.088,1.846,58.245,0.365,87.326,1.451c49.964,1.866,99.946,0.241,149.897,1.701
		c14.96,0.438,29.886,0.681,44.828-0.298c7.648-0.501,8.572,0.6,7.533,8.357c-2.822,21.068-4.604,42.231-4.9,63.475
		c-0.067,4.87-0.09,9.739-0.093,14.608c5.399-0.002,10.798-0.003,16.197-0.006c2.354-0.672,4.71-0.674,7.065-0.006
		c3.215,0.138,6.431,0.277,9.645,0.416c1.258-0.328,2.52-0.682,3.385,0.751c6.718,1.476,13.495,2.434,20.391,2.37
		c2.394-1.438,4.737-0.175,7.098,0.13c2.024,0.078,4.05,0.156,6.074,0.234c5.175-0.427,10.306-0.145,15.386,0.942
		c1.055,0.083,2.109,0.166,3.165,0.249c-0.688,0.126-1.5,0.145-2.473,0.042c9.863,1.796,4.034,10.167,6.587,15.649
		c1.883-10.518,2.558-20.676,3.314-30.846c0.493-6.625,2.908-13.32-0.671-19.545c1.316-8.995,3.024-17.954,4.994-26.889
		c1.007-4.565,1.852-9.167,2.771-13.745c2.031-13.302,3.283-26.757,5.256-40.069c-0.41-0.216-0.92-0.426-1.552-0.65
		c-10.049-3.552-20.317-5.574-30.896-6.295c-0.723-0.276-1.444-0.551-2.166-0.827c-0.476-0.098-0.953-0.196-1.43-0.294
		c-2.341-0.066-4.682-0.133-7.021-0.199c-1.24,0.018-2.483,0.035-3.727,0.052c-1.159,0.029-2.318,0.058-3.477,0.087
		c-1.219,0.111-2.44,0.222-3.661,0.334c-2.354,0.838-4.707,0.568-7.06-0.001c-1.62,0.006-3.239,0.013-4.858,0.019
		c-8.691,0.931-17.4,1.321-26.136,0.85c-5.995,0.099-11.991,0.198-17.988,0.297c-13.476,0.838-26.951,0.864-40.428,0.037
		c-7.983-0.122-15.966-0.244-23.949-0.366c-8.339,0.559-16.643,0.045-24.938-0.784c-10.755-0.105-21.51-0.211-32.265-0.316
		c-24.608-0.308-49.217-0.615-73.824-0.923c-4.403,0-8.807-0.001-13.211-0.002c-10.299,0.596-20.598,0.66-30.896,0.001
		c-9.169-0.091-18.339-0.183-27.508-0.274c-7.551,0.395-15.078,0.185-22.568-0.895c-5.596-0.131-11.193-0.262-16.789-0.394
		c-5.961,0.477-11.875-0.061-17.779-0.818c-9.569-0.007-19.137-0.014-28.706-0.02c-2.358,0.295-4.716,0.588-7.074,0.883
		c-8.677-0.431-16.574,3.244-24.872,4.813c-2.427,0.458-4.635,1.969-7.013,2.806c0.119,1.008,0.228,2.018,0.318,3.032
		C460.242,483.423,462.426,497.735,464.21,512.082z"></path>
	<path class="colour2" fill="#262262" d="M876.709,809.508c0.396,0.311,0.792,0.62,1.188,0.929c7.409-0.297,14.645,1.032,21.882,2.349
		c12.984,2.363,26.36,3.384,37.814,11.01c0.482,0.082,0.924,0.132,1.325,0.146c0.558,0.021,1.034-0.028,1.446-0.141
		c-3.393-39.271-2.166-78.543-0.262-117.82c-2.878-1.326-6.09-1.594-9.104-2.212c-13.937-2.858-27.287-8.292-41.736-8.964
		c-11.666-0.542-23.305-1.675-34.951-2.608c0.367,26.683,0.529,53.37,1.014,80.051c0.09,5.018-1.735,5.724-6.078,5.711
		c-47.618-0.128-95.236-0.08-142.854-0.08c-47.617,0-95.235-0.108-142.851,0.146c-5.561,0.03-6.51-1.847-6.3-6.72
		c1.171-27.173,2.454-54.344,3.481-81.521c-0.348-0.021-0.695-0.033-1.043-0.059c-12.126,1.49-24.284,2.583-36.505,2.839
		c-13.503,0.283-25.619,6.013-38.282,9.622c-3.254,0.928-5.347,1.511-6.673,2.266c0.4,10.165,0.746,20.331,1.09,30.497
		c-1.27,0.517-3.001-1.021-4.091,0.289c0.007,12.312,0.802,24.614-1.308,36.888c-0.17,3.374-0.38,6.746-0.622,10.117
		c0.821,1.298,2.551,2.087,5.902,1.756c0.247-0.024,0.446,0.004,0.62,0.057c-0.266,10.95-0.806,21.898-1.593,32.847
		c-0.141,0.38-0.245,0.774-0.262,1.195c-0.025,0.658-0.006,1.236,0.047,1.755c-0.066,0.862-0.12,1.726-0.188,2.588
		c0.608-0.18,1.312-0.533,2.127-1.093c7.242-4.968,15.306-7.16,23.874-8.258c9.125-1.169,17.919-4.717,27.339-3.8
		c3.917-3.119,8.513-2.185,12.954-2.173c0.828-0.047,1.656-0.094,2.484-0.142c12.646-1.685,25.348-1.338,38.047-1.041
		c2.418-0.051,4.837-0.102,7.257-0.151c13.462-0.868,26.93-1.476,40.425-1.004c6.793-0.048,13.587-0.097,20.38-0.146
		c1.898-0.775,3.803-0.996,5.723-0.074c2.463,0.027,4.928,0.054,7.394,0.081c15.871-0.424,31.72,0.103,47.558,1.144
		c5.993,0.056,11.988,0.113,17.983,0.171c23.113,0.012,46.226,0.011,69.338,0.071c1.109,0.003,2.217,0.543,3.324,0.834
		c0.416,0.005,0.833,0.01,1.25,0.014c1.906-1.106,3.798-0.917,5.679,0.068c0.493,0.086,0.988,0.173,1.484,0.258
		c13.894-0.691,27.759-0.202,41.608,0.986c1.622,0.049,3.247,0.098,4.872,0.146c4.316,0.109,8.634,0.219,12.948,0.328
		c1.212-0.601,2.44-0.801,3.705-0.148c0.647-0.142,1.161-0.105,1.037,0.779C876.601,809.291,876.709,809.508,876.709,809.508z
		 M480.006,763.84c-0.01-1.978-0.045-3.955-0.072-5.933C479.961,759.885,479.996,761.862,480.006,763.84z M479.885,753.981
		c-0.065-3.299-0.153-6.597-0.266-9.896C479.732,747.385,479.82,750.683,479.885,753.981z M479.862,781.425
		c-0.014,0.652-0.018,1.304-0.033,1.956C479.844,782.729,479.849,782.077,479.862,781.425z M479.996,769.633
		c-0.004,1.338,0.003,2.676-0.009,4.014C479.999,772.309,479.992,770.971,479.996,769.633z"></path>
	<path class="colour2" fill="#262262" d="M829.121,100.132c10.319-0.605,20.426,1.383,30.605,2.494c1.383,0.151,1.966,1.168,2.738,2.029
		c1.886,0.286,3.741,0.016,5.722,0.378c9.723,1.782,19.513,3.75,29.348,4.22c11.668,0.557,23.425-0.021,34.887,2.576
		c2.536,0.575,3.973,0.302,4.859-0.676c0.907-5.66,1.914-11.301,3.524-16.793c0.635-3.189,1.413-6.342,2.427-9.432
		c-9.85-2.743-19.647-5.697-29.574-8.129c-26.796-6.565-53.891-12.032-79.595-22.456c-2.221,7.191-6.044,13.638-9.677,20.13
		c-4.57,8.167-9.054,16.392-13.649,24.546c5.292,0.341,10.584,0.682,15.875,1.023C827.447,100.073,828.285,100.102,829.121,100.132z
		"></path>
	<path class="colour2" fill="#262262" d="M486.083,109.049c1.311,0.378,3.183,0.085,5.827-0.753c1.677-1.593,3.698-1.219,5.693-0.998
		c0.83-0.049,1.661-0.099,2.491-0.148c5.085-1.051,10.224-1.305,15.396-1.02c0.863-0.064,1.728-0.129,2.591-0.195
		c2.229-0.935,4.544-1.206,6.934-0.893c1.228-0.12,2.457-0.24,3.686-0.359c0.776-0.722,1.549-1.003,2.313,0.014
		c2.125-0.293,4.475,0.674,6.332-1.127c4.48-1.729,9.171-2.104,13.909-2.168c0.857-0.083,1.715-0.167,2.572-0.25
		c0.734-0.709,1.474-1.053,2.238-0.042c1.599,0,3.199,0,4.797,0c2.245-2.675,5.257-2.421,8.268-2.166
		c0.826-0.062,1.653-0.124,2.479-0.187c3.868-1.238,7.826-1.351,11.824-0.942c2.818-0.068,5.638-0.136,8.458-0.203
		c6.569-1.35,13.416-0.059,19.969-1.57c-7.092-11.943-14.039-23.97-20.282-36.391c-1.227-2.44-2.092-5.063-3.123-7.602
		c-7.911,3.291-15.625,7.034-23.871,9.542c-27.904,8.486-56.636,13.894-84.428,22.781c0.244,0.798,0.486,1.596,0.701,2.399
		C483.886,93.917,485.161,101.459,486.083,109.049z"></path>
	<path class="colour2" fill="#262262" d="M430.51,1071.31c-0.146-0.614-0.451-1.308-0.652-2.11c-3.028,4.637-2.725,9.518-2.518,14.482
		C428.338,1079.543,429.417,1075.425,430.51,1071.31z"></path>
</g>
<g>
	<path class="colour3" fill="#d71920" d="M447.968,1109.697c2.029,0.053,3.875-0.216,5.562-1.354c4.673-1.351,9.446-1.047,14.211-0.854
		c3.2-0.117,6.402-0.234,9.604-0.354c3.5-0.965,7.069-0.883,10.643-0.693c2.45-0.602,4.915-0.555,7.387-0.152
		c1.122,0.002,2.243,0.004,3.363,0.004c1.262,0.01,2.525,0.02,3.789,0.029c0.726,0.007,1.451,0.013,2.175,0.02
		c14.385-0.93,28.783-0.146,43.175-0.258c5.397-1.631,10.93-0.955,16.421-0.967c2.83-0.107,5.66-0.216,8.491-0.325
		c6.256-1.471,12.588-1.266,18.927-0.839c0.874-0.1,1.75-0.201,2.624-0.301c3.013-1.191,6.163-0.919,9.29-0.869
		c2.059-0.533,4.125-0.613,6.199-0.078c15.432-0.144,30.875-0.842,46.265,0.939c2.058,0.089,4.119,0.179,6.18,0.269
		c1.122,0.008,2.245,0.018,3.366,0.025c1.662-0.006,3.324-0.013,4.987-0.02c12.652,0.476,25.34-0.527,37.968,0.894
		c3.634,0.089,7.271,0.18,10.908,0.27c5.171-0.218,10.342-0.443,15.425,0.858c2.011,0.106,4.022,0.213,6.035,0.319
		c4.328-0.162,8.643-0.142,12.871,0.969c2.465,0.111,4.933,0.223,7.399,0.332c7.87-0.004,15.741-0.008,23.609-0.014
		c11.599,0.361,23.197-1.422,34.797-0.017c1.119-0.006,2.236-0.011,3.353-0.016c4.442-0.637,8.891-0.438,13.34-0.056
		c29.754,0.614,59.53-0.934,89.269,0.908c4.019,0.098,8.04,0.195,12.061,0.295c6.266-0.117,12.553-0.68,18.726,0.964
		c12.915,2.188,26.057,1.892,39.028,3.482c-0.349-2.54-0.713-5.077-1.096-7.612c-11.729-0.948-23.451-2.023-35.194-2.769
		c-26.569-1.683-53.184-1.445-79.789-1.639c-25.38-0.185-50.761-0.641-76.142-0.724c-18.394-0.059-36.783,2.012-55.188-0.284
		c-8.266-1.03-16.611-1.945-24.924-1.99c-29.964-0.164-59.893-1.163-89.826-2.406c-12.865-0.534-25.839-0.847-38.642,0.217
		c-12.658,1.052-25.313,2.348-37.995,2.774c-44.544,1.5-89.219-0.339-133.595,5.687c-0.369,2.565-0.703,5.135-1.007,7.707
		c0.505,0.02,1.042-0.032,1.587-0.142C431.654,1110.309,439.766,1109.481,447.968,1109.697z"></path>
	<path class="colour3" fill="#d71920" d="M1011.68,1344.858c-0.129-0.03-0.257-0.062-0.386-0.093c-6.343-0.547-12.687-1.093-19.032-1.64
		c-4.757,0.315-9.49,0.274-14.157-0.857c-2.033-0.103-4.069-0.204-6.105-0.307c-7.547,0.223-15.086,0.237-22.581-0.845
		c-5.188-0.126-10.379-0.252-15.568-0.377c-10.311,0.269-20.618,0.374-30.886-0.834c-5.997-0.126-11.995-0.253-17.993-0.38
		c-9.1,0.28-18.191,0.315-27.242-0.85c-5.225-0.121-10.45-0.243-15.677-0.362c-5.942,0.26-11.888,0.568-17.755-0.802
		c-1.629-0.149-3.261-0.301-4.893-0.452c-1.503-0.012-3.005-0.026-4.506-0.04c-4.051,0.759-8.117,0.458-12.183,0.154
		c-22.984,0.031-45.969,0.089-68.937-0.902c-6.812,0-13.625,0.001-20.438,0.001c-3.122,1.073-6.244,0.604-9.365-0.007
		c-0.831,0.013-1.664,0.026-2.497,0.04c-4.732,0.927-9.463,1.229-14.188-0.037c-21.102,0.009-42.208,0.02-63.313,0.029
		c-15.826,1.1-31.676,0.918-47.522,0.857c-5.993,0.125-11.988,0.249-17.983,0.373c-10.67,1.251-21.38,0.793-32.078,0.751
		c-5.604,0.146-11.209,0.289-16.814,0.434c-1.204,0.721-2.411,0.832-3.62,0.019c-1.164,0.002-2.331,0.002-3.497,0.002
		c-1.216,0.78-2.431,0.8-3.64-0.012c-1.619-0.123-3.24-0.245-4.861-0.367c-1.116,0.014-2.232,0.026-3.348,0.039
		c-0.452,0.094-0.905,0.188-1.358,0.282c-5.841,1.577-11.783,1.081-17.71,0.867c-4.803,0.121-9.607,0.241-14.411,0.362
		c-5.893,1.002-11.813,1.402-17.777,0.826c-2.438,0.111-4.878,0.221-7.318,0.33c-4.662,1.127-9.389,1.162-14.135,0.833
		c-3.694,0.527-7.414,0.717-11.05,1.801c0.088,2.257,0.179,4.515,0.26,6.772c2.851,0.337,5.462-0.537,8.092-1.413
		c3.53-1.313,7.168-1.065,10.81-0.761c2.792-0.123,5.584-0.248,8.377-0.371c5.104-1.228,10.283-1.07,15.465-0.836
		c3.993-0.113,7.987-0.227,11.982-0.339c12.671-1.413,25.386-0.855,38.087-0.812c4.787-0.129,9.576-0.256,14.365-0.383
		c1.868-1.008,3.875-0.922,5.89-0.745c0.873-0.009,1.747-0.02,2.62-0.03c9.066-0.021,18.133-0.043,27.197-0.065
		c5.943-0.136,11.887-0.271,17.831-0.407c11.12-1.253,22.275-1.029,33.429-0.791c39.014-0.745,78.03-0.918,117.044,0.047
		c4.697-0.02,9.393-0.039,14.089-0.059c11.992,0.005,23.987,0.009,35.981,0.014c11.954-0.225,23.911-0.635,35.826,0.781
		c3.156,0.15,6.314,0.302,9.474,0.451c12.721-0.226,25.443-0.591,38.128,0.786c5.172,0.126,10.347,0.253,15.521,0.38
		c8.741-0.176,17.483-0.366,26.181,0.822c5.975,0.127,11.95,0.254,17.927,0.379c10.317-0.193,20.634-0.393,30.909,0.837
		c4.795,0.115,9.594,0.23,14.391,0.346c6.385-0.21,12.774-0.539,19.095,0.788c2.377,0.131,4.756,0.264,7.135,0.395
		c5.433-0.03,10.889-0.488,16.229,0.98c3.88,2.512,8.365,0.165,12.389,1.537c0.029-0.006,0.051-0.014,0.08-0.02
		C1011.609,1349.606,1011.624,1347.232,1011.68,1344.858z"></path>
	<path class="colour3" fill="#d71920" d="M500.152,871.182c1.346-1.109,2.842-1.461,4.52-0.899c0.851-0.123,1.704-0.247,2.558-0.371
		c0.739-0.255,1.478-0.511,2.214-0.766c2.449-0.143,4.899-0.288,7.351-0.431c4.243-1.179,8.566-1.186,12.909-0.88
		c1.265-0.084,2.531-0.169,3.797-0.253c5.027-1.396,10.155-1.165,15.281-0.943c1.662-0.078,3.325-0.157,4.988-0.237
		c6.233-1.345,12.546-1.097,18.853-0.942c2.059-0.082,4.12-0.162,6.182-0.243c10.202-2.126,20.506-1.019,30.775-0.968
		c5.241-0.071,10.484-0.143,15.728-0.213c17.15-1.147,34.332-0.777,51.5-0.894c17.785-0.119,35.572,0.078,53.358,0.211
		c2.736,0.021,5.468,0.44,8.2,0.675c2.856,0.082,5.716,0.163,8.576,0.245c10.272-0.17,20.551-0.545,30.773,0.919
		c2.854,0.098,5.711,0.197,8.566,0.296c17.427-0.413,34.838,0.133,52.245,0.846c1.262,0.124,2.525,0.248,3.789,0.371
		c6.698-0.107,13.39-0.042,20.045,0.848c1.266,0.129,2.532,0.258,3.799,0.389c2.369-0.228,4.757-0.62,6.93,0.811
		c0.848,0.02,1.697,0.041,2.547,0.062c1.148-0.745,2.283-0.788,3.402,0.055c1.67,0.117,3.341,0.235,5.013,0.354
		c1.975-0.223,3.939-0.364,5.721,0.796c0.869,0.077,1.74,0.154,2.611,0.231c2.386-0.144,4.786-0.396,7.001,0.848
		c0.844,0.105,1.688,0.213,2.535,0.319c3.571-0.151,7.187-0.826,10.608,0.854c0.836,0.186,1.674,0.372,2.514,0.559
		c0.831-0.187,1.646-0.323,2.026,0.731c0.854,0.391,1.682,0.862,2.566,1.165c8.985,3.074,19.055,3.003,26.956,9.224
		c-0.425-2.723-0.804-5.452-1.146-8.187c-3.585-1.498-7.081-3.327-10.803-4.313c-11.281-2.99-22.66-5.607-34-8.372
		c-2.006,1.162-4.002,0.775-5.992-0.037c-2.034-0.166-4.07-0.332-6.106-0.499c-1.586,0.228-3.159,0.377-4.511-0.763
		c-2.127,0.22-4.23,0.17-6.268-0.593c-1.19,0.248-2.329,0.174-3.362-0.544c-1.221-0.002-2.443-0.003-3.665-0.006
		c-1.565,0.775-3.134,0.886-4.703,0.023c-2.426-0.137-4.854-0.273-7.281-0.408c-6.331,0.27-12.659,0.471-18.922-0.801
		c-8.394-0.135-16.791-0.269-25.187-0.403c-11.501-0.085-23.025,0.919-34.489-0.752c-2.809-0.137-5.618-0.274-8.429-0.411
		c-9.111,0.211-18.225,0.465-27.291-0.803c-7.193-0.146-14.392-0.29-21.589-0.435c-21.381-0.004-42.763-0.009-64.143-0.011
		c-17.916,0.152-35.834,0.304-53.752,0.457c-7.882,1.217-15.817,0.773-23.738,0.778c-3.231,0.128-6.463,0.257-9.695,0.384
		c-5.471,1.08-10.996,1.07-16.532,0.815c-3.221,0.132-6.443,0.265-9.666,0.396c-4.272,1.193-8.656,0.404-12.975,0.736
		c-1.658,0.138-3.318,0.275-4.979,0.411c-2.222,1.104-4.562,1.12-6.941,0.745c-14.422,1.147-28.129,5.454-41.822,9.707
		c-2.49,0.773-5.139,1.519-7.172,3.193c-0.4,2.394-0.813,4.784-1.241,7.173c0.314-0.185,0.611-0.462,0.936-0.62
		C480.373,876.306,490.563,874.649,500.152,871.182z"></path>
	<path class="colour3" fill="#d71920" d="M921.913,643.266c-1.627,0.305-3.2,0.272-4.605-0.762c-1.248-0.17-2.5-0.341-3.751-0.513
		c-1.536,0.224-3.012,0.125-4.324-0.821c-0.54-0.113-1.081-0.227-1.622-0.34c-1.519-0.265-3.035-0.529-4.551-0.794
		c-0.876-0.156-1.753-0.313-2.63-0.47c-1.587,0.257-3.159,0.398-4.557-0.652c-0.853-0.109-1.707-0.218-2.563-0.328
		c-2.344,0.219-4.643,0.108-6.803-0.957c-0.909-0.085-1.821-0.172-2.734-0.258c-7.883-0.078-15.779,0.24-23.619-0.91
		c-2.338-0.11-4.676-0.219-7.016-0.33c0.054,2.138,0.108,4.275,0.163,6.413c3.044-0.03,6.077,0.069,9.049,0.943
		c2.063,0.063,4.125,0.126,6.189,0.189c6.309-0.153,12.638-0.668,18.844,1.025c0.871,0.095,1.742,0.191,2.614,0.287
		c1.619-0.202,3.224-0.307,4.62,0.788c0.843,0.156,1.688,0.313,2.533,0.469c0.908-0.23,1.748-0.215,2.34,0.664
		c0.413,0.155,0.827,0.311,1.242,0.467c2.315,0.265,4.631,0.532,6.944,0.797c0.86,0.113,1.723,0.227,2.585,0.34
		c2.001-0.27,3.949-0.212,5.737,0.881c0.867,0.125,1.738,0.25,2.61,0.376c1.992-0.212,3.956-0.247,5.732,0.903
		c0.871,0.097,1.744,0.196,2.616,0.294c2.369-0.191,4.728-0.29,6.92,0.89c0.871,0.081,1.742,0.161,2.614,0.242
		c1.741-0.014,3.492-0.154,5.221-0.011c0.41,0.034,0.759,0.02,1.079-0.018c0.103-2.118,0.206-4.234,0.309-6.352
		c-0.272-0.069-0.587-0.113-0.962-0.122c-1.903-0.045-3.796-0.514-5.692-0.794c-1.265-0.09-2.531-0.181-3.798-0.273
		c-2.723,0.194-5.429,0.252-7.983-0.945C923.75,643.478,922.832,643.372,921.913,643.266z"></path>
	<path class="colour3" fill="#d71920" d="M475.246,650.589c1.084,0.095,2.294-0.373,3.33-0.058c1.829-1.117,3.825-0.987,5.83-0.778
		c0.869-0.092,1.739-0.185,2.609-0.278c1.789-1.101,3.747-1.095,5.734-0.874c0.89-0.123,1.781-0.245,2.672-0.369
		c1.356-1.023,2.894-1.063,4.479-0.824c0.856-0.14,1.715-0.28,2.573-0.419c0.975-0.951,2.15-0.991,3.386-0.744
		c0.841-0.158,1.686-0.315,2.529-0.474c0.586-0.776,1.365-0.854,2.229-0.62c0.841-0.193,1.685-0.387,2.528-0.58
		c0.576-0.807,1.373-0.901,2.258-0.694c0.793-0.188,1.589-0.377,2.384-0.566c0.636-0.793,1.468-0.886,2.385-0.67
		c0.833-0.152,1.668-0.304,2.502-0.456c6.655-1.758,13.418-0.958,20.149-0.847c2.456-0.087,4.914-0.175,7.371-0.262
		c3.991-0.919,8.037-0.891,12.081-0.877c0.062-2.139,0.125-4.277,0.189-6.416c-0.102-0.007-0.204-0.012-0.306-0.02
		c-4.046,0.106-8.095,0.212-12.143,0.319c-8.234,1.34-16.536,0.702-24.809,0.835c-0.867,0.132-1.737,0.264-2.606,0.396
		c-0.567,0.714-1.299,0.873-2.146,0.634c-0.858,0.194-1.718,0.389-2.578,0.584c-0.572,0.761-1.324,0.924-2.201,0.661
		c-7.044,2.131-14.184,3.775-21.57,4.135c-1.858,0.976-3.833,1.069-5.857,0.776c-1.253,0.127-2.509,0.255-3.764,0.383
		c-2.224,1.114-4.589,1.055-6.971,0.842c-0.933,0.097-1.866,0.195-2.8,0.292c0.14,2.075,0.292,4.149,0.477,6.223
		C475.211,650.092,475.227,650.341,475.246,650.589z"></path>
	<path class="colour3" fill="#d71920" d="M492,154.825c3.029,0.309,5.842-0.655,8.532-1.404c8.166-2.273,16.709-1.395,24.861-3.44
		c3.731-1.511,7.62-1.001,11.475-0.896c2.029-0.134,4.061-0.267,6.091-0.401c2.658-1.078,5.433-1.019,8.217-0.838
		c1.591-0.143,3.185-0.284,4.777-0.426c1.877-1.071,3.9-0.993,5.942-0.756c12.337-0.337,24.623-1.285,36.917-2.469
		c13.677-1.318,27.437-1.786,41.162-2.603c0.342-0.021,0.717-0.026,1.087-0.048c-1.395-1.922-2.767-3.863-4.126-5.812
		c-0.016,0.001-0.032,0.002-0.047,0.003c-12.823,0.904-25.657,1.699-38.463,2.802c-20.233,1.743-40.444,3.736-60.672,5.55
		c-10.428,0.935-20.896,1.483-31.295,2.659c-5.229,0.59-10.329,2.265-15.517,3.304c-0.095,0.019-0.175,0.048-0.265,0.07
		c0.127,1.595,0.24,3.191,0.337,4.788C491.349,154.842,491.684,154.793,492,154.825z"></path>
	<path class="colour3" fill="#d71920" d="M799.234,143.922c1.637,0.12,3.277,0.241,4.918,0.362c2.826-0.214,5.649-0.373,8.353,0.751
		c1.588,0.141,3.178,0.282,4.769,0.423c2.82,0.315,6.164-1.491,8.193,2.018c7.996,0.557,15.996,1.114,23.995,1.673
		c1.247-0.254,2.425-0.187,3.419,0.73c2.433,0.119,4.868,0.238,7.304,0.357c2.8-0.21,5.571-0.113,8.259,0.803
		c1.223,0.141,2.445,0.282,3.67,0.424c2.41-0.147,4.813-0.24,7.1,0.747c3.591,0.134,7.182,0.268,10.773,0.401
		c2.72-0.176,5.47-0.612,7.989,0.922c3.495,2.52,7.587,0.614,11.394,1.542c5.924,1.443,11.966,2.363,17.807,4.26
		c0.897,0.292,1.875,0.218,2.679-0.247c0.162-1.462,0.338-2.923,0.522-4.383c-0.609-0.292-1.353-0.436-1.89-0.685
		c-1.749-0.81-3.713-1.193-5.614-1.629c-23.052-5.284-46.779-4.875-70.062-8.283c-10.496-1.536-21.098-2.408-31.673-3.334
		c-11.635-1.019-23.29-1.812-34.943-2.61c-1.101,1.514-2.222,3.016-3.359,4.506c1.544,0.145,3.089,0.289,4.632,0.434
		C791.428,142.848,795.374,142.784,799.234,143.922z"></path>
	<path class="colour3" fill="#d71920" d="M464.488,901.038c0.858,0.059,1.476-0.081,1.938-0.348c0.525-2.488,1.034-4.979,1.53-7.472
		c-1.463-2.484-5.489-1.84-7.543-3.492c-0.732-0.59-1.428-0.327-1.925,0.351c-0.214,1.45-0.427,2.899-0.64,4.35
		C458.383,898.053,460.951,900.797,464.488,901.038z"></path>
	<path class="colour3" fill="#d71920" d="M476.919,796.375c0.828,0,1.656,0,2.484,0c0.125-2.973,0.226-5.944,0.312-8.917
		c-0.69,0.244-1.392,0.516-1.867,0.295c-2.998-1.394-4.341-0.137-5.129,1.741c-0.136,1.609-0.267,3.22-0.414,4.828
		C473.149,795.641,475.164,795.928,476.919,796.375z"></path>
	<path class="colour3" fill="#d71920" d="M451.035,964.399c0.05-0.04,0.09-0.083,0.138-0.124c0.666-3.131,1.354-6.258,2.071-9.377
		c-1.664-0.127-2.66-2.388-4.728-1.738C448.877,957.012,445.52,961.623,451.035,964.399z"></path>
	<path class="colour3" fill="#d71920" d="M431.663,1066.344c0.088-0.078,0.153-0.165,0.233-0.246c0.658-2.48,1.311-4.963,1.943-7.449
		c-0.409-1.358-1.77-2.551-3.757-4.156c-0.293,2.205-0.587,4.411-0.882,6.616c0.163,1.555,0.535,3.084,1.15,4.575
		C430.499,1066.044,431.516,1066.475,431.663,1066.344z"></path>
	<path class="colour3" fill="#d71920" d="M478.06,730.409c0.365,0.014,0.731,0.026,1.097,0.04c-0.105-3.123-0.211-6.246-0.32-9.369
		c-1.104-0.035-2.208-0.07-3.312-0.104C475.968,724.229,473.189,728.348,478.06,730.409z"></path>
</g>
<g>
	<path class="colour4" fill="#BCBEC0" d="M464.488,901.038c-3.537-0.241-6.104-2.985-6.641-6.611c-0.48,3.271-0.963,6.542-1.443,9.813
		c0.308-0.602,0.697-1.101,1.224-1.399c2.352-1.335,4.678,2.181,7.629,2.182c0.093,0,0.156,0.03,0.225,0.054
		c0.319-1.461,0.634-2.923,0.943-4.386C465.964,900.957,465.346,901.097,464.488,901.038z"></path>
	<path class="colour4" fill="#BCBEC0" d="M479.188,783.999c-3.351,0.331-5.081-0.458-5.902-1.756c-0.086,1.205-0.161,2.41-0.257,3.615
		c-0.096,1.213-0.208,2.424-0.311,3.636c0.788-1.878,2.132-3.135,5.129-1.741c0.475,0.221,1.177-0.051,1.867-0.295
		c0.033-1.134,0.076-2.267,0.103-3.4C479.642,784.003,479.439,783.975,479.188,783.999z"></path>
	<path class="colour4" fill="#BCBEC0" d="M472.305,794.322c-1.869,20.433-4.618,40.768-8.242,60.965c-2.074,11.563-3.856,23.172-5.576,34.79
		c0.497-0.678,1.192-0.94,1.925-0.351c2.054,1.652,6.08,1.008,7.543,3.492c4.483-22.563,7.753-45.322,9.675-68.38
		c0.137-1.643,0.25-3.286,0.375-4.929c-0.057-0.532-0.077-1.131-0.051-1.813c0.018-0.448,0.129-0.867,0.285-1.27
		c0.489-6.817,0.878-13.635,1.165-20.453c-0.828,0-1.656,0-2.484,0C475.164,795.928,473.149,795.641,472.305,794.322z"></path>
	<path class="colour4" fill="#BCBEC0" d="M473.909,772.126c2.11-12.273,1.315-24.576,1.308-36.888c1.091-1.312,2.824,0.229,4.094-0.29
		c-0.051-1.5-0.103-3-0.153-4.499c-0.366-0.014-0.732-0.026-1.097-0.04c-4.871-2.062-2.092-6.181-2.535-9.434
		c1.103,0.034,2.207,0.069,3.312,0.104c-0.83-23.763-1.803-47.521-3.645-71.236c-0.453,24.527-1.902,49.033-1.016,73.588
		C474.762,739.666,474.729,755.909,473.909,772.126z"></path>
	<path class="colour4" fill="#BCBEC0" d="M459.677,929.491c0.708-2.751,1.396-5.504,2.069-8.259c-0.529,1.989-1.066,3.977-1.572,5.972
		C459.953,928.075,459.79,928.826,459.677,929.491z"></path>
	<path class="colour4" fill="#BCBEC0" d="M449.942,944.949c-3.493,19.385-7.896,38.607-11.795,57.921c-3.45,17.091-5.769,34.354-8.065,51.622
		c1.987,1.605,3.348,2.798,3.757,4.156c1.697-6.675,3.246-13.384,4.35-20.194c3.96-24.433,7.663-48.942,12.766-73.144
		c0.023-0.305,0.061-0.606,0.08-0.911c-5.515-2.776-2.157-7.388-2.519-11.239c2.068-0.649,3.064,1.611,4.728,1.738
		c0.201-0.876,0.409-1.75,0.614-2.625C451.045,949.962,450.045,947.491,449.942,944.949z"></path>
	<path class="colour4" fill="#BCBEC0" d="M430.351,1065.684c-0.615-1.491-0.988-3.021-1.15-4.575c-1.338,10.011-2.716,20.016-4.352,29.983
		c0.312-0.164,0.872-0.286,0.921-0.518c0.49-2.306,1.018-4.602,1.57-6.893c-0.207-4.965-0.51-9.846,2.518-14.482
		c0.201,0.803,0.506,1.496,0.652,2.11c0.461-1.737,0.925-3.475,1.386-5.212c-0.08,0.081-0.146,0.168-0.233,0.246
		C431.516,1066.475,430.499,1066.044,430.351,1065.684z"></path>
	<path class="colour4" fill="#BCBEC0" d="M452.708,928.561c-0.498,3.119-1.016,6.233-1.545,9.347c0.688-2.394,1.412-4.78,1.446-7.091
		C452.621,930.064,452.661,929.313,452.708,928.561z"></path>
	<path class="colour4" fill="#BCBEC0" d="M464.634,525.388c3.378,22.87,6.612,45.752,8.537,68.803c1.405-27.847-3.452-55.014-8.961-82.109
		C464.326,516.521,463.99,521.027,464.634,525.388z"></path>
	<path class="colour4" fill="#BCBEC0" d="M415.924,1164.435c0.335-0.652,0.882-1.273,0.977-1.959c2.943-21.281,3.458-42.83,7.04-64.042
		c-2.383,7.417-3.046,15.165-4.006,22.811C418.134,1135.591,415.688,1149.895,415.924,1164.435z"></path>
	<path class="colour4" fill="#BCBEC0" d="M411.491,1223.928c1.315-11.832,1.432-23.736,1.984-35.614
		C412.224,1200.149,410.424,1211.963,411.491,1223.928z"></path>
	<path class="colour4" fill="#BCBEC0" d="M411.063,1227.746c0.746,0.263,0.904-0.104,0.753-0.793c-0.132-1.01-0.236-2.018-0.325-3.025
		c-0.122,1.092-0.238,2.184-0.381,3.274C411.084,1227.391,411.02,1227.731,411.063,1227.746z"></path>
</g>
<path fill-rule="evenodd" clip-rule="evenodd" class="colour2" fill="#262262" d="M820.066,46.148c-4.81-5.38-11.389-6.505-18.217-6.616
	c-32.979-0.537-65.959-1.448-98.938-1.45c-21.982-0.002-43.963,1.708-65.946-0.167c-2.337-0.199-4.831,0.525-7.046-0.017
	c-16.897-4.14-28.766,6.17-41.464,14.153c1.031,2.539,1.896,5.161,3.123,7.602c7.859,15.636,16.829,30.65,25.807,45.654
	c17.017,28.435,35.851,55.449,60.302,78.191c9.046,8.414,18.937,15.261,30.466,19.725c1.667,0.646,3.023,1.056,4.958,0.196
	c8.111-3.602,16.092-7.414,22.944-13.136c14.813-12.37,28.773-25.643,41.13-40.496c19.111-22.972,32.717-49.43,47.2-75.313
	c3.633-6.493,7.456-12.939,9.677-20.13C830.307,50.084,823.908,50.446,820.066,46.148z"></path>
<path class="colour3" fill="#d71920" d="M849.712,492.763c-14.942,0.979-29.868,0.736-44.828,0.298c-49.951-1.46-99.933,0.165-149.897-1.701
	c-29.081-1.086-58.237,0.395-87.326-1.451c-8.424-0.535-9.742,0.778-8.65,9.143c2.495,19.118,3.662,38.358,4.259,57.595
	c0.979,31.476-0.491,62.954-1.294,94.414c-1.023,40.096-3.007,80.168-4.734,120.244c-0.21,4.873,0.739,6.75,6.3,6.72
	c47.616-0.255,95.234-0.146,142.851-0.146c47.618,0,95.236-0.048,142.854,0.08c4.343,0.013,6.168-0.693,6.078-5.711
	c-0.688-37.958-0.718-75.931-1.628-113.883c-0.751-31.256-1.786-62.505-1.353-93.769c0.296-21.244,2.078-42.407,4.9-63.475
	C858.284,493.363,857.36,492.261,849.712,492.763z"></path>
</svg>