<svg version="1.1" id="Layer_1___RNrVLDIz" xmlns="http://www.w3.org/2000/svg" xmlns:xlink="http://www.w3.org/1999/xlink" x="0px" y="0px" width="1417.32px" height="1417.32px" viewBox="0 0 1417.32 1417.32" enable-background="new 0 0 1417.32 1417.32" xml:space="preserve">
<g>
	<path fill-rule="evenodd" clip-rule="evenodd" class="colour1" fill="#009FDA" d="M987.038,400.135c3.954,12.363,9.787,23.964,14.784,35.897
		c11.821,28.234,20.084,57.209,22.379,87.92c2.543,34.054-1.499,67.326-10.161,100.122c-3.466,13.125-11.723,24.434-15.577,37.489
		c-2.729,9.244-4.268,18.458-3.195,28.345c1.485,13.701,0.244,27.354-3.904,40.74c-3.822,12.336-5.1,25.462-9.979,37.438
		c-5.115,12.556-5.788,24.836-2.527,37.896c3.38,13.532,3.76,27.552,4.726,41.414c1.473,21.15,2.029,42.275-3.235,63.154
		c-2.203,8.74-5.769,17.048-7.315,26c-2.086,12.075-0.065,23.846,1.654,35.668c2.992,20.578,4.4,41.024,2.652,61.995
		c-1.921,23.024-4.521,46.065-4.319,69.301c0.226,25.738-0.217,51.51-1.302,77.227c-1.264,29.959,1.272,59.462,6.957,88.861
		c3.318,17.156,4.489,34.629,4.19,52.146c-0.121,7.079-6.079,14.855-13.622,17.519c-11.119,3.927-22.646,6.382-34.26,8.111
		c-22.104,3.295-44.303,6.768-66.697,5.808c-25.841-1.108-51.715-1.975-77.442-5.289c-25.449-3.278-50.996-5.804-76.509-8.592
		c-28.629-3.127-57.263-6.217-85.906-9.214c-3.898-0.407-7.863-0.18-11.798-0.246c-11.428-1.491-22.855-2.983-34.283-4.476
		c-2.295-0.448-4.574-1.001-6.886-1.324c-15.458-2.166-30.923-4.284-46.386-6.417c0.631-5.918-0.778-11.752-0.768-17.631
		c0.083-47.997-0.096-95.997,1.802-143.975c1.51-38.148,5.994-76.045,10.207-113.928c4.395-39.516,2.89-78.96,1.317-118.449
		c-1.11-27.884-4.604-55.725-4.949-83.548c-0.38-30.726-2.791-61.257-4.322-91.872c-0.432-8.642-0.557-17.306-1.262-25.924
		c-2.98-36.436-6.125-72.859-9.21-109.286c1.705-0.394,3.422-0.741,5.113-1.187c8.488-2.234,16.086-6.192,19.63-14.557
		c6.214-14.665,10.03-30.069,12.05-45.895c2.326-18.227,1.07-36.537,1.181-54.81c0.023-3.82,1.206-5.956,4.425-7.975
		c33.326-20.899,56.571-50.535,70.797-86.647c16.935-42.99,21.231-88.356,19.751-134.189c-0.674-20.852-0.487-41.667-0.455-62.501
		c0.002-1.349,0.362-2.711,0.665-4.042c4.916-21.558,13.534-41.286,28.618-57.811c2.512,1.096,5.122,2.011,7.521,3.315
		c16.012,8.707,32.168,17.12,48.802,24.589c23.475,10.541,48.419,16.722,72.866,24.333c8.604,2.679,17.684,3.366,26.638,0.401
		c3.113-1.031,5.223-2.619,5.419-6.085c3.393,3.645,3.835,9.208,8.03,12.33c6.521,12.687,17.265,21.948,27.355,31.307
		c14.717,13.648,28.013,28.618,42.18,42.753c20.142,20.099,32.025,45.773,43.95,71.173c3.66,7.795,4.979,16.376,7.161,24.68
		C976.212,382.188,982.284,390.936,987.038,400.135z"></path>
	<path fill-rule="evenodd" clip-rule="evenodd" class="colour1" fill="#009FDA" d="M987.038,400.135c-4.754-9.199-10.826-17.947-13.45-27.934
		c-2.182-8.303-3.501-16.884-7.161-24.68c-11.925-25.4-23.809-51.074-43.95-71.173c-14.167-14.135-27.463-29.105-42.18-42.753
		c-10.091-9.359-20.835-18.621-27.355-31.307c13.661,5.659,24.578,15.167,35.592,24.724c29.168,25.31,54.541,53.951,74.457,86.978
		c14.334,23.772,21.24,50.375,24.313,77.909C987.604,394.601,987.144,397.387,987.038,400.135z"></path>
	<path fill-rule="evenodd" clip-rule="evenodd" class="colour1" fill="#009FDA" d="M582.347,1325.37c-2.295-0.448-4.574-1.001-6.886-1.324
		c-15.458-2.166-30.923-4.284-46.388-6.414c0.633-5.921-0.776-11.755-0.766-17.634c0.083-47.997-0.096-95.997,1.802-143.975
		c1.51-38.148,5.994-76.045,10.207-113.928c4.395-39.516,2.89-78.96,1.317-118.449c-1.11-27.884-4.604-55.725-4.949-83.548
		c-0.38-30.726-2.791-61.257-4.322-91.872c-0.432-8.642-0.557-17.306-1.262-25.924c-2.98-36.436-6.125-72.859-9.21-109.287
		c-43.882-0.289-87.723,3.835-131.626,1.206c4.004,14.572,8.905,28.847,14.323,42.946c8.256,21.484,14.65,43.475,17.478,66.365
		c1.78,14.416,2.424,28.997,4.727,43.318c5.793,36.025,11.895,71.989,16.427,108.216c4.76,38.044,7.133,76.247,9.223,114.487
		c1.881,34.433,0.429,68.728-4.723,102.827c-3.37,22.301-7.449,44.5-10.594,66.832c-6.379,45.296-11.767,90.708-13.824,136.452
		c-0.794,17.667-0.52,35.391-2.557,52.986c-0.419,3.622,1.838,4.019,4.069,4.388c11.379,1.883,22.613,4.989,34.397,3.074
		c9.487-1.542,19.063-2.553,28.614-3.68c23.97-2.83,48.196-3.636,71.91-8.445c19.158-3.886,38.134-8.613,56.896-14.144
		C605.201,1328.354,593.774,1326.862,582.347,1325.37z"></path>
	<path fill-rule="evenodd" clip-rule="evenodd" class="colour1" fill="#009FDA" d="M654.383,205.256c0.002-1.349,0.362-2.711,0.665-4.042
		c4.916-21.558,13.534-41.286,28.618-57.811c-24.451-11.994-50.136-21.519-73.385-35.893c-10.727-6.633-22.271-11.548-33.262-17.577
		c-4.839-2.654-10.398-1.834-15.252-4c-8,3.776-12.774,10.849-17.936,17.53c-1.901,2.461-3.565,5.003-6.556,6.57
		c-10.075,5.279-20.144,10.598-29.955,16.346c-35.483,20.79-73.657,37.042-105.278,64.358
		c-17.687,15.279-36.99,28.795-52.868,46.038c-24.574,26.687-40.698,58.375-52.843,92.354c-8.944,25.028-11.419,50.046-4.969,76.172
		c4.071,16.495,8.534,33.224,7.276,50.505c-1.595,21.925-3.881,43.792-7.447,65.51c-2.354,14.344-3.81,28.663-2.555,43.361
		c1.377,16.145,11.455,24.516,24.498,30.229c15.809,6.926,32.368,11.729,49.466,14.654c9.216,1.577,18.643,1.934,27.663,4.66
		c43.904,2.629,87.745-1.495,131.626-1.206c1.705-0.393,3.421-0.74,5.113-1.186c8.488-2.234,16.086-6.192,19.63-14.557
		c6.214-14.665,10.03-30.069,12.05-45.895c2.326-18.227,1.07-36.537,1.181-54.81c0.023-3.82,1.206-5.956,4.425-7.975
		c33.326-20.899,56.571-50.535,70.797-86.647c16.935-42.99,21.231-88.356,19.751-134.189
		C654.164,246.906,654.351,226.09,654.383,205.256z"></path>
	<path fill-rule="evenodd" clip-rule="evenodd" class="colour2" fill="#262262" d="M840.753,160.922c-0.473-12.792-7.329-20.956-17.748-27.146
		c-41.762-24.809-85.752-44.242-132.803-56.809c-28.055-7.494-56.481-12.66-85.197-16.516c-12.115-1.626-23.427-1.245-30.147,11.607
		c-3.01,5.756-9.592,8.419-13.091,13.874c4.854,2.166,10.413,1.345,15.252,4c10.991,6.029,22.535,10.944,33.262,17.577
		c23.25,14.374,48.934,23.899,73.385,35.893c2.512,1.096,5.122,2.011,7.521,3.315c16.012,8.707,32.168,17.12,48.802,24.589
		c23.475,10.541,48.419,16.722,72.866,24.333c8.604,2.679,17.684,3.366,26.638,0.401c3.113-1.031,5.223-2.619,5.42-6.083
		C842.919,180.366,841.114,170.707,840.753,160.922z"></path>
	<g>
		<path fill-rule="evenodd" clip-rule="evenodd" class="colour2" fill="#262262" d="M885.778,950.911c0.003-0.002,0.006-0.004,0.009-0.006
			c0.022-0.049,0.045-0.099,0.068-0.148L885.778,950.911z"></path>
		<path fill-rule="evenodd" clip-rule="evenodd" class="colour2" fill="#262262" d="M729.147,1138.338c18.082-7.508,36.767-13.516,54.723-21.232
			c30.858-13.262,60.079-29.729,88.328-47.928c11.417-7.355,22.091-15.486,31.389-25.451c9.009-9.659,14.936-20.788,16.132-33.948
			c0.826-9.084,3.756-17.356,8.361-24.913c7.3-11.975,11.006-25.673,18.551-37.471c5.184-8.105,11.329-15.688,15.724-24.186
			c7.72-14.934,16.46-29.499,19.748-46.415c0.787-4.045-0.424-8.297,1.622-12.112c0.033-1.172,0.127-2.347,0.091-3.518
			c-0.608-19.89-1.773-39.721-6.072-59.231c-1.837,2.69-0.89,5.731-0.955,8.598c-0.404,17.691-1.94,35.221-7.046,52.268
			c-5.736,19.156-15.763,35.841-29.383,50.39c-15.859,16.938-29.518,35.425-40.299,56.023c-5.783,11.052-15.05,19.038-24.827,26.291
			c-4.585,3.403-7.408,9.563-14.218,9.724l0.033-0.061c-0.495,0.428-0.989,0.855-1.483,1.283
			c-22.321,16.119-47.894,24.669-74.061,31.84c0.012,0.033,0.018,0.062,0.03,0.096c-0.073,0.005-0.15-0.009-0.23-0.031
			c-0.455,0.148-0.908,0.299-1.363,0.448c0.173-1.211,0.828-0.602,1.363-0.448c0.056-0.019,0.111-0.037,0.168-0.056
			c0.011-0.003,0.021-0.006,0.032-0.009c-1.071-3.017,1.804-3.064,3.231-3.684c13.604-5.896,27.385-11.396,40.901-17.481
			c9.086-4.092,17.278-9.832,25.635-15.268c7.493-4.872,14.664-10.05,21.104-16.237c2.575-4.981,7.225-8.177,10.779-12.315
			c7.123-8.29,10.798-18.695,17.561-27.174c8.455-10.597,16.013-21.606,21.128-34.471c3.436-8.638,10.781-15.299,17.263-22.138
			c2.204-3.581,4.849-6.892,5.615-11.271c0.166-0.946,0.133-3.37,2.519-3.088c0.86-2.212-0.099-5.26,2.969-6.456l-0.159-0.104
			c-1.349-1.699,1.146-3.66-0.796-5.994c-3.539,11.992-10.599,20.997-20.145,28.224c-2.5,1.893-4.664,4.466-5.666,7.437
			c-4.708,13.985-13.974,24.716-24.258,34.769c-0.303,0.337-0.605,0.674-0.908,1.011c-0.317,0.308-0.634,0.615-0.951,0.924
			c-3.485,6.965-9.122,11.833-15.54,15.935c-0.274,0.592-0.547,1.184-0.821,1.775c-4.796,2.525-7.942,6.997-12.086,10.265
			c-19.345,15.253-40.405,27.512-63.449,36.387c-32.436,12.49-65.826,21.604-99.543,29.905c-18.843,4.64-37.915,8.009-56.892,11.702
			c-11.021,2.145-21.957,6.221-34.367,5.176c17.71-3.908,34.64-7.639,51.567-11.383c36.721-8.124,73.182-17.101,107.455-33.146
			c2.479-1.161,4.831-2.598,7.199-3.979c0.438-0.256,0.674-0.859,1.787-2.361c-7.875,2.573-14.638,4.921-21.483,6.991
			c-20.485,6.197-41.257,10.628-62.672,12.66c-24.808,2.354-49.636,3.915-74.506,5.138c-1.724,0.084-3.118,0.084-3.941-1.652
			c-2.555,1.104-5.286,0.41-7.914,0.766c-3.381,1.897-6.866,0.338-10.305,0.429c-20.767,0.552-41.171-3.153-61.744-4.824
			c-5.003-0.406-9.45,2.172-14.217,3.134c-15.295,3.085-30.512,6.556-45.76,9.878c-0.992,0.242-1.983,0.485-2.974,0.728
			c-9.278,3.43-18.553,4.218-27.819-0.044c0.009,1.746,0.018,3.495,0.027,5.245c8.352,12.108,21.363,12.106,34.535,13.466
			c-13.111,2.677-24.768,0.969-35.207-7.067c-0.667,6.239-0.275,12.524-1.085,18.796c-1.545,11.966-2.56,23.999-3.795,36.006
			c0.83,0.572,1.336,1.281,1.021,2.335c6.968,4.039,14.539,4.819,22.48,4.927c22.074,0.3,43.752-3.452,65.605-5.477
			c13.853-1.284,27.908-0.192,41.839-0.858c43.607-2.084,87.073-5.579,129.592-16.289c10.249-2.581,20.263-6.031,29.858-10.585
			c-7.644,6.637-17.017,10.071-26.127,13.979c-16.722,7.175-33.913,12.993-51.426,17.933c-10.442,2.946-20.748,6.373-30.929,10.169
			c71.199-13.758,139.92-35.356,205.968-64.927c-1.143,3.09-3.913,6.424-11.779,10.362c-18.236,9.132-35.101,20.681-53.576,29.418
			c-27.691,13.097-55.271,26.499-83.811,37.563c-8.75,3.393-18.404,5.379-27.666,7.92c-13.236,3.629-26.176,8.241-39.579,11.377
			c-25.182,5.891-50.737,8.477-76.484,9.947c-21.583,1.233-43.132,2.14-64.642-0.902c-10.233-1.447-19.989-3.952-28.126-10.973
			c-3.713-3.203-5.254-7.725-8.136-11.393c-1.01,6.936-2.02,13.872-3.03,20.809c4.791,9.271,12.165,15.965,20.972,21.474
			c-8.168-3.369-17.452-4.604-22.552-13.202c-0.704,6.212-2.521,12.295-2.24,18.63c18.958,9.903,39.576,8.415,59.93,8.733
			c4.515,0.07,9.044-0.113,13.544,0.177c25.411,1.638,50.494-2.455,75.709-4.206c34.156-2.372,67.789-8.68,101.506-14.138
			c25.77-4.171,51.451-9.208,76.875-15.133c28.87-6.727,57.621-14.234,84.192-28.061c3.746-1.951,7.542-3.806,11.84-5.97
			c-0.105,3.668-2.841,5.082-4.715,6.497c-15.688,11.847-32.855,21.146-50.492,29.808c-31.182,15.313-64.489,24.618-97.201,35.644
			c-14.329,4.829-28.587,9.866-42.878,14.809l0.122,0.431c8.371-0.094,16.162-3.137,24.129-5.063
			c17.716-4.284,35.267-9.249,52.887-13.928c20.852-5.536,41.553-11.432,61.523-19.821c21.538-9.048,43.099-18.041,62.921-30.488
			c17.847-11.206,34.441-24.151,49.258-39.223c8.878-9.031,14.201-20.821,22.83-30.031c5.506-5.877,11.148-11.72,17.351-16.823
			c6.801-5.598,11.135-12.574,13.71-20.688c2.107-6.642,3.492-13.513,4.786-20.369c-1.137,9.13-1.648,18.264-4.96,27.156
			c-3.345,8.979-7.929,16.92-14.732,23.486c-8.134,7.852-15.168,16.623-20.569,26.421c-12.01,21.784-29.852,38.457-47.334,55.45
			c-25.597,24.88-56.451,41.607-88.581,56.271c-4.415,2.016-8.801,4.093-12.312,5.729c53.782-12.262,99.833-39.497,137.245-81.344
			c2.131-2.71,4.263-5.419,6.394-8.13c0.057,4.087-2.289,6.779-4.55,9.517c-19.562,24.892-40.603,48.353-66.771,66.557
			c-15.51,10.789-32.378,19.322-49.63,26.919c-23.361,10.287-46.918,20.143-70.51,29.896c-30.994,12.813-63.707,19.921-96.02,28.305
			c-29.888,7.754-60.431,12.315-90.701,18.215c-5.393,1.051-10.813,2.248-15.979,4.063c-3.575,1.256-6.769,1.313-10.303,0.314
			c-15.295-4.319-30.898-7.369-46.33-11.084c-20.191-4.86-38.078-14.343-50.947-31.484c-1.165,10.546-2.05,21.102-2.444,31.719
			c-0.757,20.431-1.78,40.854-2.976,61.263c-0.172,2.952,0.654,3.807,3.201,4.293c10.77,2.052,21.45,4.844,32.583,3.508
			c14.038-1.685,28.049-3.646,42.12-4.988c31.445-3.001,62.799-6.137,93.388-14.844c10.8-3.074,21.658-7.406,33.259-6.436
			c15.26,1.278,30.463,3.25,45.726,4.487c33.483,2.713,66.724,7.541,100.093,11.231c26.765,2.958,53.546,5.299,80.43,6.694
			c27.41,1.423,54.612-0.432,81.636-4.878c12.728-2.095,25.478-4.321,37.583-9.116c7.656-3.032,11.704-9.552,11.856-16.814
			c0.367-17.47-0.968-34.942-4.345-52.172c-5.807-29.622-8.272-59.501-6.971-89.675c-2.536,0.955-2.167,3.535-2.861,5.419
			c-7.815,21.204-20.706,38.472-39.059,51.587c-1.362-1.11-1.042-1.907-0.322-2.742c21.32-24.748,35.798-52.945,42.795-84.912
			c0.059-2.387,0.117-4.774,0.177-7.161c-3.175,3.333-3.092,8.151-5.419,11.869c-1.087,1.736-1.469,3.939-4.437,5.922
			c6.152-11.827,9.099-23.464,10.841-35.438c-0.066-18.96-0.889-37.937,1.323-56.844c-11.612,30.045-29.21,56.745-47.632,82.793
			c-11.528,16.3-25.764,30.478-42.373,42.34c-0.945-2.059,0.744-2.867,1.684-3.771c19.276-18.594,37.048-38.624,50.456-61.778
			c12.469-21.534,27.005-41.944,36.832-64.985c0.21-0.492,0.746-0.847,1.13-1.263c0.448-3.692,0.908-7.385,1.341-11.081
			c3.046-26.067,3.393-52.076-1.332-78.028c-3.177-17.444-4.748-34.852,3.106-51.681c0.469-1.005,0.302-2.307,0.429-3.472
			c1.728-1.202,0.837-3.248,1.479-4.799c-2.123,1.105-1.733,3.02-1.566,4.863c0.024-0.016,0.043-0.033,0.066-0.049
			c-5.714,6.701-9.534,14.632-14.027,22.096c-6.19,10.287-10.898,21.325-14.519,32.808c-3.729,11.825-10.519,21.898-18.348,31.32
			c-5.938,7.147-9.75,15.311-10.953,24.425c-2.143,16.246-11.488,27.72-24.048,36.912c-17.585,12.87-36.201,24.099-55.063,35.076
			c-28.704,16.707-59.37,28.635-90.215,40.286c-18.866,7.126-37.704,14.558-57.599,18.411c-12.302,2.382-24.604,4.582-36.458,8.786
			c-1.579,0.561-3.433,0.692-5.486-0.216c3.436-3.594,8.166-3.896,12.226-5.384C685.287,1153.153,707.739,1147.227,729.147,1138.338
			z M839.78,1043.514c1.231-2.404,3.543-2.669,5.848-2.945c0.086-0.131,0.171-0.26,0.257-0.391
			c-0.074,0.143-0.148,0.284-0.221,0.426c-1.075,2.445-3.088,3.7-5.554,4.385c-0.668,0.029-1.903,0.166-1.92,0.076
			C837.971,1043.87,839.282,1044.1,839.78,1043.514z M513.555,1338.187c-17.365,1.918-34.716,3.896-52.157,4.914
			c-7.786,0.454-15.381-1.038-22.932-3.741c46.273-19.804,93.782-26.37,144.327-13.588
			C559.137,1330.896,536.567,1335.645,513.555,1338.187z M960.198,1164.621l0.152-0.186l-0.134,0.179
			c-0.012,0.167-0.022,0.334-0.034,0.502c-0.146-0.092-0.293-0.183-0.44-0.273C959.896,1164.769,960.049,1164.695,960.198,1164.621z
			 M647.797,1168.098c-0.311,0.008-0.627-0.256-0.977-0.418c0.255-0.221,0.519-0.614,0.706-0.581
			c0.423,0.075,0.809,0.361,1.209,0.562C648.422,1167.817,648.113,1168.091,647.797,1168.098z"></path>
		<path fill-rule="evenodd" clip-rule="evenodd" class="colour2" fill="#262262" d="M446.803,1098.855c-0.158,3.396-0.314,6.791-0.472,10.187
			c6.691,7.779,15.848,10.077,25.908,11.532c-6.068-3.588-12.513-5.669-17.336-10.424c-3.459-3.408-6.949-6.774-6.309-12.125
			C448.266,1098.643,447.561,1098.783,446.803,1098.855z"></path>
		<path fill-rule="evenodd" clip-rule="evenodd" class="colour2" fill="#262262" d="M448.593,1098.025c0.103-0.194,0.171-0.433,0.188-0.734
			c0.007-0.021,0.008-0.04,0.015-0.062c-0.026-0.016-0.053-0.028-0.08-0.044C448.661,1097.473,448.626,1097.749,448.593,1098.025z"></path>
		<path fill-rule="evenodd" clip-rule="evenodd" class="colour2" fill="#262262" d="M449.329,1214.674c-6.357-5.092-13.741-9.098-16.558-17.472
			c-0.579,2.585-1.338,5.157-0.54,7.837C437.486,1209.024,442.591,1213.281,449.329,1214.674z"></path>
	</g>
	<g>
		<path class="colour2" fill="#262262" d="M657.917,493.764c-0.011,0.005-0.022,0.01-0.034,0.014c-0.015,0.007-0.029,0.014-0.044,0.021
			L657.917,493.764z"></path>
		<path class="colour2" fill="#262262" d="M875.634,336.125c-9.348,3.583-18.466,8.019-28.084,10.589c-27.678,7.398-55.423,14.094-84.427,15.03
			c-17.602,0.568-35.22,1.822-52.858,2.183c-17.682,0.361-35.374-0.367-53.057,1.006c-4.007,0.311-7.201,2.893-11.856,1.829
			c-12.372-2.829-23.352-8.654-33.668-15.302c-23.238-14.975-49.266-23.306-74.648-33.249c-27.985-8.84-56.726-13.166-85.999-14.401
			c28.683-2.777,56.705,1.048,84.389,8.283c14.796,3.866,28.875,9.873,43.374,14.576c0.606,0.27,1.229,0.545,1.853,0.82
			l-0.155-0.137c11.02,4.19,21.734,8.918,31.976,14.905c10.818,6.324,21.852,12.583,34.722,14.04
			c2.396-0.171,4.792-0.341,7.189-0.512c0,0,0.154-0.096,0.154-0.096c0.79-1.363,2.226-1.014,3.424-1.293
			c2.602-1.826,5.495-0.845,8.284-0.855c5.079-0.184,10.159-0.367,15.238-0.55c7.852-1.57,15.778-0.938,23.688-0.797
			c1.286-0.003,2.573-0.006,3.848-0.008c4.633-2.315,10.086-0.74,15.39-3.442c-11.751-0.924-22.869-1.978-34.011-2.627
			c-11.542-0.672-23.008-2.127-34.58-2.698c-9.684-0.477-18.853-4.819-27.563-9.557c-12.754-6.938-24.667-15.289-37.779-21.655
			c-15.959-7.749-32.45-13.866-49.683-17.878c-15.47-3.601-30.955-7.34-46.621-9.849c-17.029-2.728-34.219-3.695-51.548-1.39
			c-10.662,1.418-21.468,1.788-32.065,3.91c-26.497,5.307-51.968,13.544-75.063,27.828c-18.35,11.349-32.371,27.209-44.171,45.103
			c-2.423,3.674-2.674,8.13-4.146,12.152c-0.343,3.83-0.006,7.594,1.089,11.284c2.042-6.008,2.679-12.682,8.068-17.101
			c0.015-0.04,0.029-0.079,0.043-0.118c0-0.001,0.281-0.246,0.281-0.246l-0.239,0.289c-0.03,0.024-0.056,0.051-0.086,0.076
			c-3.692,9.939-6.785,20.001-6.26,30.792c0.533,2.438,0.02,5.11,1.583,7.334c2.199-20.151,14.377-33.523,30.464-43.898
			c21.203-13.675,45.461-18.988,69.613-24.4c19.112-4.282,38.583-4.575,58.037-4.656c4.211-0.018,8.426,0.966,12.614,1.081
			c-34.084,2.69-67.978,6.52-99.569,21.249c-7.475,3.485-15.25,6.358-22.588,10.098c-16.508,8.414-31.45,18.568-39.13,36.602
			c-3.555,8.349-4.436,17.046-4.853,25.904c0.283,2.152-0.348,4.467,1.135,6.406c2.067-12.117,4.538-24.118,13.884-33.124
			c8.35-8.045,18.151-13.854,28.936-18.06c-3.696,4.248-8.514,7.167-13.03,10.022c-13.681,8.651-21.273,21.012-25.01,36.267
			c-1.168,4.77-2.302,9.548-3.451,14.321c0.192,21.866-2.875,43.457-5.592,65.076c-2.175,17.304-6.137,34.409-5.082,52.056
			c0.793,13.25,4.549,24.498,17.124,31.418c4.659,2.564,9.302,5.011,14.251,6.899c17.465,6.664,35.534,10.795,53.982,13.772
			c29.102,4.696,58.159,6.134,87.351,1.208c-0.219-3.701,1.254-7.119,1.79-10.692c-9.965-1.451-20-0.822-30.009-1.027
			c-36.052-0.738-71.703-4.371-106.316-15.156c-10.543-3.285-20.791-7.29-29.139-14.881c-7.105-6.46-7.201-9.944-1.776-17.695
			c7.507-10.73,19.125-13.091,30.663-15.522c14.216-2.996,28.488-5.906,43.157-4.982c1.925,0.121,3.239-1.292,5.015-1.199
			c0.692-1.764,2.431-1.792,3.862-2.32c37.213-13.741,75.797-21.626,114.965-27.116c20.623-2.891,41.309-4.981,62.106-5.972
			c2.633-0.125,3.868-1.05,5.665-3.516c3.33-4.571,8.241-8.28,14.762-8.084c22.018,0.662,43.918-1.062,65.791-3.319
			c5.734-2.207,11.654-2.892,17.887-1.758c-4.908,0.415-8.948,3.822-14.037,3.519c-20.834,4.699-41.663,9.427-62.83,12.877
			c24.697,1.333,49.351,1.386,73.965-1.328c0.54-0.227,1.079-0.455,1.619-0.683c16.771-8.041,33.608-15.951,50.286-24.183
			c7.75-3.825,15.213-8.237,22.752-12.477c1.63-0.916,3.581-1.699,4.106-4.476c-6.157,0.371-12.118,0.828-18.088,1.073
			c-31.046,1.276-62.1,2.394-93.181,2.052c-7.279-0.08-14.468,0.147-20.996,2.946c-1.392-1.788-0.347-2.381,0.195-3.056
			c5.728-7.123,5.462-8.353-2.989-12.777c-5.928-3.104-11.896-6.129-17.84-9.202c-3.676-1.901-6.867-3.568-11.43-0.845
			c-3.468,2.069-7.397-0.968-10.881-3.34c6.032,1.514,11.309-0.06,16.531-2.795c1.509-0.79,4.049-0.545,5.756,0.133
			c8.765,3.48,17.354,7.405,26.121,10.88c6.393,2.535,4.625,6.322,1.92,11.044c26.369-8.601,53.736-9.93,80.471-14.917
			c-20.964-0.05-41.896-0.268-62.46,5.065c-5.606,1.454-11.126,1.227-16.651-2.718c-8.622-6.157-18.696-9.923-28.439-14.123
			c-4.959-2.138-10.42-0.215-15.493-2.186c-13.958-5.421-28.647-8.191-43.206-11.417c-28.281-6.266-56.779-10.654-85.861-9.105
			c-28.18,1.5-55.771,6.167-81.982,17.109c-17.751,7.41-33.667,17.488-45.571,33.023c-0.715,0.933-1.252,2.002-2.226,2.652
			c0.132-4.11,3.484-9.839,8.659-16.5c9.919-12.769,22.524-21.518,37.006-28.914c18.894-9.65,38.418-16.907,58.867-21.771
			c34.211-8.138,68.834-9.421,103.587-4.037c19.561,3.031,39.132,6.104,58.366,10.981c4.106,1.041,8.712-0.264,12.581,2.336
			c10.406,1.1,20.463,3.989,29.963,8.01c11.772,4.983,23.078,7.566,34.939,0.911c0.979-0.549,2.29-0.479,3.422-0.79
			c12.098-3.338,24.683-4.088,36.866-6.966c17.6-2.758,35.198-5.515,52.769-8.263c2.112-0.456,4.254-0.922,6.396-1.388
			c0,0,0.165-0.057,0.16-0.055c1.514-0.324,3.03-0.65,4.548-0.976l0.18-0.221c0,0,0.202,0.196,0.196,0.197
			c2.092,0.17,4.041-0.265,5.813-1.424c0,0,0.493-0.009,0.479-0.006c2.218-0.407,4.45-0.816,6.683-1.225
			c0,0,0.218,0.005,0.211,0.009c4.407,0.661,8.333-1.38,12.469-2.264c0,0,0.183-0.005,0.178-0.004
			c2.346-0.483,4.758-0.779,6.772-2.263c0.066-0.119,0.168-0.137,0.302-0.053c3.652-0.669,7.322-1.299,10.543-3.346
			c0.285-0.059,0.57-0.117,0.843-0.173c4.619-1.345,9.423-2.194,13.641-4.734c0.941-0.287,1.883-0.575,2.802-0.85
			c2.838-1.221,5.698-2.453,8.559-3.686c0,0,0.224-0.144,0.218-0.143c15.611-5.804,30.065-13.951,44.334-22.399
			c3.573-2.115,7.836-3.675,9.927-7.8C878.935,334.067,877.397,335.448,875.634,336.125z M305.869,454.782l-0.219,0.169
			c0,0,0.176-0.213,0.175-0.214l0.225-0.192L305.869,454.782z"></path>
		<path class="colour2" fill="#262262" d="M346.917,296.321c15.189-7.207,30.25-14.594,46.451-19.613c25.811-7.997,51.821-14.113,79.031-13.399
			c4.679,0.123,9.347,1.44,14.007,1.366c11.636-0.187,23.204,0.994,34.615,2.611c31.742,4.5,62.777,11.7,92.491,24.424
			c13.418,5.746,26.338,13.426,41.362,14.926c13.906,2.41,27.967,0.347,41.915,1.458c0.907-0.185,1.817-0.373,2.727-0.562
			c1.933-1.515,3.886-1.394,5.85-0.073c0.785,0.239,1.572,0.479,2.359,0.719c1.365-0.876,2.756-1.191,4.203-0.195
			c1.653-0.06,3.31-0.118,4.967-0.178c1.755-1.943,4.068-0.957,6.113-1.051c13.154-0.607,26.335-0.758,39.405-2.616
			c1.537-0.218,3.551-0.177,3.836-2.011c0.296-1.912-2.227-1.037-3.001-2.123c-2.427,0.188-4.856,0.375-7.288,0.562
			c-7.565,2.323-15.157,0.597-22.741,0.141c-20.863,0.609-41.475-2.055-62.069-4.85c-18.676-2.535-34.774-11.552-51.054-20.256
			c-28.852-15.428-59.057-27.423-90.625-36.269c-24.249-6.796-48.925-11.294-73.623-15.729c-14.172-2.544-28.147,0.726-41.98,3.864
			c-15.525,3.521-30.957,7.329-45.606,13.765c-1.379,0.606-3.002,0.656-4.516,0.958c-0.425,1.112-1.418,1.146-2.399,1.2l0.103-0.064
			c-0.722,0.429-1.443,0.858-2.165,1.287l-0.212,0.113c-0.358,0.247-0.717,0.494-1.076,0.742
			c-11.861,6.684-23.112,14.213-32.895,23.768c-7.369,10.94-13.477,22.606-18.921,34.576c-6.898,15.168-12.675,30.77-15.76,47.237
			c4.428-5.715,8.738-11.524,13.305-17.125C315.961,318.92,329.046,304.799,346.917,296.321z"></path>
		<path class="colour2" fill="#262262" d="M363.717,242.194c0.01-0.002,0.02-0.003,0.029-0.005c0.011-0.029,0.027-0.051,0.037-0.082L363.717,242.194
			z"></path>
		<path class="colour2" fill="#262262" d="M369.678,237.436c-0.004-0.002-0.009-0.002-0.013-0.004c-0.005,0.008-0.012,0.016-0.018,0.024
			L369.678,237.436z"></path>
		<path class="colour2" fill="#262262" d="M366.042,226.775c0.02-0.001,0.039-0.005,0.059-0.006c0.005-0.014,0.011-0.024,0.016-0.038
			L366.042,226.775z"></path>
		<path class="colour2" fill="#262262" d="M363.676,227.981c0.001,0,0.003,0,0.005,0c0.031-0.022,0.063-0.043,0.094-0.065L363.676,227.981z"></path>
		<path class="colour2" fill="#262262" d="M331.831,259.84c1.162-0.396,2.025-0.939,1.189-2.329c2.223,1.086,2.979-1.116,4.131-2.097
			c8.31-7.075,18.015-11.865,27.526-16.971c1.512-0.812,3.104-1.777,4.986-1.013c2.518-3.817,6.607-4.258,10.593-4.921
			c4.938-2.765,10.427-4.02,15.728-5.803c20.747-6.976,41.729-11.817,63.945-10.823c17.103,0.766,33.845,3.39,50.568,6.597
			c11.021,1.402,21.876,3.585,32.483,6.918c2.187,0.581,4.375,1.162,6.565,1.744c-0.05-0.602-0.1-1.203-0.146-1.803
			c-13.081-4.898-26.47-8.816-39.996-12.275c-23.881-6.107-47.958-11.009-72.801-9.017c-20.71,1.66-40.568,7.211-60.001,14.37
			c-3.348,1.821-6.481,4.161-10.502,4.351c-0.384,1.228-1.392,1.24-2.419,1.212c-0.492,0.341-0.983,0.684-1.477,1.025
			c-3.322,1.145-5.434,4.644-9.279,4.764c0,0,0.144-0.008,0.144-0.008c-0.456,1.914-1.847,2.452-3.605,2.45
			c-6.041,6.673-12.519,13.005-16.553,21.241c-1.034,0.449-1.719,1.071-1.197,2.295c-1.058-0.197-1.099,0.652-1.264,1.374
			C331.258,261.053,331.773,260.683,331.831,259.84z"></path>
		<path class="colour2" fill="#262262" d="M881.256,334.192c0.109-0.031,0.216-0.066,0.303-0.128c0.074-0.054,0.053-0.238,0.076-0.363
			C881.509,333.864,881.383,334.028,881.256,334.192z"></path>
		<path class="colour2" fill="#262262" d="M881.047,334.255c-0.014,0.027-0.03,0.052-0.044,0.08c0.046,0.006,0.089,0.001,0.136,0.009
			c0.039-0.051,0.078-0.102,0.117-0.152C881.186,334.212,881.114,334.231,881.047,334.255L881.047,334.255z"></path>
	</g>
	<g>
		<path class="colour3" fill="#d71920" d="M784.347,1203.8c3.511-1.636,7.896-3.713,12.312-5.729c32.13-14.663,62.984-31.391,88.581-56.271
			c17.482-16.993,35.324-33.666,47.334-55.45c5.401-9.798,12.436-18.569,20.569-26.421c6.804-6.566,11.388-14.508,14.732-23.486
			c3.312-8.893,3.823-18.026,4.96-27.156c-1.294,6.856-2.679,13.728-4.786,20.369c-2.575,8.113-6.909,15.09-13.71,20.688
			c-6.202,5.104-11.845,10.946-17.351,16.823c-8.629,9.21-13.952,21-22.83,30.031c-14.816,15.071-31.411,28.017-49.258,39.223
			c-19.822,12.447-41.383,21.44-62.921,30.488c-19.971,8.39-40.672,14.285-61.523,19.821c-17.62,4.679-35.171,9.644-52.887,13.928
			c-7.967,1.927-15.758,4.97-24.129,5.063c-2.454,2.38-5.55,2.32-8.714,2.055c3.21,0.245,5.521-2.341,8.598-2.487
			c14.285-4.94,28.543-9.978,42.872-14.807c32.712-11.025,66.02-20.33,97.201-35.644c17.637-8.662,34.805-17.961,50.492-29.808
			c1.874-1.415,4.609-2.829,4.715-6.497c-4.298,2.164-8.094,4.019-11.84,5.97c-26.571,13.826-55.322,21.334-84.192,28.061
			c-25.424,5.925-51.104,10.962-76.875,15.133c-33.717,5.458-67.35,11.766-101.506,14.138c-25.215,1.751-50.299,5.844-75.709,4.206
			c-4.5-0.29-9.029-0.106-13.544-0.177c-20.354-0.318-40.972,1.17-59.93-8.733c-1.662,6.588-2.533,13.265-2.238,20.071
			c2.817,8.374,10.201,12.38,16.558,17.472c-6.737-1.393-11.842-5.649-17.097-9.635c-2.77,4.357-2.297,9.428-2.771,14.186
			c-1.206,12.091-3.315,24.11-3.214,36.317c12.87,17.142,30.756,26.624,50.947,31.484c15.432,3.715,31.035,6.765,46.33,11.084
			c3.534,0.998,6.728,0.941,10.303-0.314c5.167-1.814,10.587-3.012,15.979-4.063c30.27-5.899,60.813-10.461,90.701-18.215
			c32.313-8.384,65.026-15.491,96.02-28.305c23.592-9.753,47.148-19.608,70.51-29.896c17.252-7.597,34.12-16.13,49.63-26.919
			c26.168-18.204,47.209-41.665,66.771-66.557c-0.618-0.457-1.236-0.915-1.85-1.38C884.18,1164.303,838.129,1191.538,784.347,1203.8
			z"></path>
		<path class="colour3" fill="#d71920" d="M449.994,1140.813c8.138,7.021,17.893,9.525,28.126,10.973c21.51,3.042,43.059,2.136,64.642,0.902
			c25.747-1.471,51.302-4.057,76.484-9.947c13.403-3.136,26.343-7.748,39.579-11.377c9.262-2.541,18.917-4.527,27.666-7.92
			c28.54-11.063,56.12-24.466,83.811-37.563c18.476-8.737,35.34-20.286,53.576-29.418c7.866-3.938,10.637-7.272,11.779-10.362
			c-66.048,29.57-134.769,51.169-205.968,64.927c10.181-3.796,20.486-7.223,30.929-10.169c17.513-4.939,34.704-10.758,51.426-17.933
			c9.11-3.908,18.483-7.343,26.135-13.982l-0.016,0.004c-9.587,4.553-19.602,8.003-29.85,10.584
			c-42.52,10.71-85.985,14.205-129.592,16.289c-13.932,0.666-27.987-0.426-41.839,0.858c-21.854,2.024-43.532,5.776-65.605,5.477
			c-7.972-0.108-15.57-0.892-22.56-4.971c-1.133,5.849,2.548,9.381,6.186,12.965c4.823,4.755,11.269,6.836,17.336,10.424
			c-10.06-1.455-19.216-3.753-25.908-11.532c-3.119,6.436-3.062,13.568-4.473,20.379
			C444.74,1133.089,446.281,1137.61,449.994,1140.813z"></path>
		<path class="colour3" fill="#d71920" d="M971.938,1149.166c-6.997,31.967-21.475,60.164-42.795,84.912c-0.72,0.835-1.04,1.632,0.322,2.742
			c18.353-13.115,31.243-30.383,39.059-51.587c0.694-1.884,0.325-4.464,2.861-5.419
			C972.863,1169.621,971.652,1159.381,971.938,1149.166z"></path>
		<path class="colour3" fill="#d71920" d="M966.695,1153.874c2.327-3.718,2.244-8.536,5.419-11.869c0.384-5.879,1.86-11.698,0.985-17.647
			c-1.742,11.975-4.688,23.611-10.841,35.438C965.227,1157.813,965.608,1155.61,966.695,1153.874z"></path>
		<path class="colour3" fill="#d71920" d="M861.049,1005.165c-0.005,0.005-0.01,0.009-0.016,0.013c-0.005,0.017-0.013,0.03-0.018,0.047
			C861.016,1005.226,861.049,1005.165,861.049,1005.165z"></path>
		<path class="colour3" fill="#d71920" d="M785.537,1038.386c-0.013-0.035-0.019-0.064-0.031-0.099c-0.011,0.004-0.022,0.007-0.033,0.01
			L785.537,1038.386z"></path>
		<path class="colour3" fill="#d71920" d="M859.565,1006.448c0.489-0.423,0.979-0.847,1.468-1.271c0.643-2.197,2.768-3.079,4.133-4.634
			c4.119-4.688,9.481-8.443,11.211-14.926c-6.44,6.188-13.611,11.365-21.104,16.237c-8.356,5.436-16.549,11.176-25.635,15.268
			c-13.517,6.085-27.297,11.585-40.901,17.481c-1.428,0.619-4.301,0.667-3.23,3.683
			C811.672,1031.117,837.245,1022.567,859.565,1006.448z"></path>
	</g>
	<g>
		<path fill-rule="evenodd" clip-rule="evenodd" class="colour4" fill="#bcbec0" d="M524.367,408.461c14.559,3.226,29.248,5.996,43.206,11.417
			c5.073,1.971,10.534,0.048,15.493,2.186c9.743,4.199,19.817,7.965,28.439,14.123c5.525,3.945,11.045,4.171,16.651,2.718
			c20.564-5.333,41.497-5.115,62.46-5.065c-26.735,4.987-54.102,6.316-80.471,14.917c2.704-4.722,4.473-8.51-1.92-11.044
			c-8.767-3.475-17.356-7.399-26.121-10.88c-1.707-0.678-4.248-0.923-5.756-0.133c-5.222,2.735-10.499,4.309-16.531,2.795
			c3.484,2.372,7.413,5.409,10.881,3.34c4.563-2.723,7.753-1.056,11.43,0.845c5.944,3.073,11.913,6.098,17.84,9.202
			c8.452,4.424,8.717,5.654,2.989,12.777c-0.542,0.674-1.587,1.268-0.195,3.056c6.528-2.798,13.717-3.026,20.996-2.946
			c31.081,0.342,62.134-0.775,93.181-2.052c5.97-0.245,11.931-0.702,18.088-1.073c-0.525,2.776-2.477,3.56-4.106,4.476
			c-7.539,4.24-15.002,8.652-22.752,12.477c-16.677,8.231-33.513,16.14-50.282,24.181c-0.542,0.228-1.083,0.457-1.622,0.685
			c0.754,0.274,1.319,0.104,1.634-0.659c1.54,0.047,3.089,0.218,4.619,0.113c25.209-1.725,50.041-6.041,74.719-11.24
			c10.63-2.239,21.348-4.052,31.634-7.956c9.609-3.647,19.621-6.237,29.457-9.288c0.01-0.029,0.023-0.055,0.033-0.085
			c0.029-0.019,0.061-0.033,0.092-0.049c0.358-1.074,0.721-2.15,2.265-1.667c0.164,0.051,0.417,0.279,0.397,0.383
			c-0.298,1.618-1.782,0.826-2.662,1.283c-0.012,0.036-0.024,0.071-0.036,0.107c-0.029,0.009-0.06,0.018-0.089,0.027
			c-0.396,1.134-1.198,1.708-2.323,2.278c-26.88,13.623-55.416,22.868-84.021,31.941c-7.534,2.39-15.045,4.852-22.567,7.28
			c5.303,0.514,10.416,0.379,15.38-0.549c25.814-4.825,51.729-9.252,77.028-16.438c11.417-3.243,23.142-5.448,34.217-9.879
			c1.448-6.065,7.313-5.741,11.449-7.916c16.027-8.167,30.123-18.95,42.791-31.656c1.057-1.06,2.994-1.955,2.351-3.701
			c-0.676-1.833-2.753-0.922-4.19-1.055c-20.616-1.911-41.163-4.456-61.741-6.697c-26.334-2.87-52.807-4.448-79.201-6.795
			c-29.104-2.587-58.123-6.459-87.441-5.554c-4.134,0.127-10.104-0.857-11.878,2.134c-3.766,6.351-6.302,2.483-9.478,0.406
			c-4.433-2.901-8.868-5.8-13.254-8.773c-6.685-4.53-13.268-9.188-17.655-16.222c-3.869-2.601-8.475-1.296-12.581-2.336
			c-19.234-4.876-38.805-7.95-58.366-10.981c-34.753-5.384-69.375-4.101-103.587,4.037c-20.449,4.864-39.973,12.121-58.867,21.771
			c-14.481,7.396-27.087,16.146-37.006,28.914c-5.174,6.661-8.526,12.389-8.659,16.5c0.974-0.65,1.511-1.719,2.226-2.652
			c11.905-15.535,27.82-25.614,45.571-33.023c26.21-10.942,53.802-15.61,81.982-17.109
			C467.588,397.808,496.086,402.195,524.367,408.461z"></path>
		<path fill-rule="evenodd" clip-rule="evenodd" class="colour4" fill="#bcbec0" d="M1016.945,599.906c-0.805-0.005-1.609-0.01-2.415-0.017
			c-3.823,14.974-9.615,29.137-18.03,42.113c-6.765,10.431-10.728,21.869-12.871,33.965c-1.406,7.934-2.337,15.958-3.313,23.962
			c-3.269,26.781-10.841,52-27.461,73.735c-13.797,18.04-22.835,38.433-30.252,59.63c-7.731,22.1-19.451,41.584-36.392,57.834
			c-0.908,1.453-2.085,2.579-3.764,3.091c-2.361,3.688-5.908,6.067-9.412,8.492c-0.423,1.243-1.26,1.921-2.601,1.917
			c-0.712,0.532-1.425,1.066-2.136,1.601c-0.38,1.294-1.221,1.961-2.592,1.905c-3.062,2.136-6.123,4.271-9.186,6.406
			c-0.475,1.163-1.229,1.951-2.588,1.918c-0.27,0.233-0.575,0.398-0.919,0.496c-0.455,1.209-1.242,1.956-2.621,1.868
			c-0.26,0.237-0.559,0.41-0.896,0.518c-2.865,3.478-6.815,5.157-10.918,6.584c-0.271,0.221-0.576,0.38-0.912,0.479
			c-0.479,1.237-1.38,1.81-2.701,1.721c-6.145,3.808-12.289,7.614-18.435,11.424c-0.602,1.131-1.535,1.677-2.821,1.595
			c-1.049,0.625-2.099,1.251-3.148,1.876c-0.538,1.22-1.503,1.694-2.795,1.592c-0.59,0.371-1.181,0.742-1.771,1.114
			c-2.395,2.57-5.427,4.036-8.73,5.025c-0.28,0.229-0.598,0.382-0.954,0.455c-0.536,1.176-1.351,1.884-2.738,1.617
			c-0.647,0.268-1.297,0.536-1.945,0.804c-1.169,1.921-3.044,2.543-5.124,2.784c-0.643,0.268-1.287,0.536-1.93,0.804
			c-2.783,2.716-6.092,4.375-9.94,4.949c-2.541,1.227-5.083,2.454-7.625,3.681c-0.763,0.883-1.614,1.571-2.896,1.29
			c-0.668,0.226-1.337,0.453-2.006,0.68c-1.565,2.11-3.867,2.593-6.274,2.842c-0.652,0.252-1.306,0.504-1.959,0.757
			c-1.642,2.007-3.935,2.512-6.342,2.752c-2.569,1.102-5.139,2.203-7.708,3.305c-2.761,3.806-7.303,4.457-11.218,5.949
			c-29.677,11.314-59.967,20.849-90.198,30.536c-4.763,1.526-9.785,2.25-14.365,4.433c0.814,1.733,2.208,1.733,3.932,1.649
			c24.87-1.223,49.698-2.784,74.506-5.138c21.415-2.032,42.187-6.463,62.672-12.66c6.846-2.07,13.608-4.418,21.483-6.991
			c-1.113,1.502-1.35,2.105-1.787,2.361c-2.368,1.381-4.721,2.817-7.199,3.979c-34.273,16.045-70.734,25.021-107.455,33.146
			c-16.927,3.744-33.857,7.475-51.567,11.383c12.41,1.045,23.346-3.031,34.367-5.176c18.978-3.693,38.049-7.063,56.892-11.702
			c33.717-8.302,67.108-17.415,99.543-29.905c23.044-8.875,44.104-21.134,63.449-36.387c4.144-3.268,7.29-7.739,12.086-10.265
			c0.276-0.598,0.554-1.194,0.83-1.792c-0.006,0.008-0.012,0.015-0.018,0.022c0,0,0.077-0.154,0.078-0.153
			c-0.021,0.044-0.04,0.087-0.061,0.131c5.002-6.394,10.006-12.79,15.007-19.184c4.081-5.757,8.265-11.444,12.221-17.287
			c6.294-9.296,12.63-18.573,13.125-30.438c0.114-2.747,1.491-5.401,3.441-7.385c13.797-14.027,18.746-32.041,22.251-50.476
			c2.903-15.274,8.363-29.426,15.623-43.043c7.965-14.942,15.825-29.993,18.317-47.026c2.309-15.77,3.981-31.63,3.573-47.606
			c-0.396-15.507,2.774-30.065,10.634-43.533C1008.182,630.873,1014.166,615.99,1016.945,599.906z"></path>
		<path fill-rule="evenodd" clip-rule="evenodd" class="colour4" fill="#bcbec0" d="M335.493,314.826c23.096-14.283,48.566-22.521,75.063-27.828
			c10.597-2.123,21.403-2.492,32.065-3.91c17.33-2.305,34.519-1.338,51.548,1.39c15.666,2.509,31.15,6.248,46.621,9.849
			c17.233,4.012,33.724,10.129,49.683,17.878c13.112,6.367,25.025,14.717,37.779,21.655c8.709,4.738,17.879,9.08,27.563,9.557
			c11.572,0.57,23.039,2.026,34.58,2.698c11.142,0.649,22.26,1.703,34.011,2.627c-5.304,2.702-10.757,1.126-15.401,3.444
			c4.205,0.031,8.419-0.846,12.614,0.122c0.818-0.022,1.637-0.045,2.455-0.067c5.731-1.907,11.616-2.289,17.591-1.753
			c2.694-0.169,5.387-1.205,8.086-0.029c3.636,0.278,7.043-2.469,10.78-0.81c2.279-0.159,4.56-0.318,6.84-0.477
			c1.828-2.411,4.165-1.524,6.447-0.995c1.531-0.202,3.064-0.404,4.597-0.606c1.744-1.6,3.822-1.399,5.919-1.096
			c0.776-0.092,1.553-0.185,2.329-0.277c2.185-1.129,4.318-2.512,6.951-1.385c1.058-0.171,2.117-0.343,3.177-0.515
			c5.414-2.657,11.181-4.038,17.138-4.724c0.754-0.15,1.508-0.301,2.263-0.452c8.604-2.897,17.066-6.266,26.083-7.771
			c1.545-0.533,3.092-1.068,4.638-1.602c6.729-3.655,13.895-6.151,21.3-8.004c1.783-0.746,3.566-1.493,5.35-2.24
			c0.691-1.063,1.597-1.655,2.92-1.332c1.09-0.612,2.181-1.225,3.272-1.838c1.829-2.479,4.396-3.631,7.349-4.091
			c0.274-0.28,0.601-0.473,0.979-0.579c0.393-1.293,1.221-1.912,2.6-1.671c0.683-0.642,1.367-1.284,2.05-1.927
			c1.497-2.914,5.085-3.035,7.094-5.374c1.744-2.031,1.351-2.797-1.114-3.053c-10.551,5.37-21.866,8.771-33.351,10.947
			c-22.914,4.343-46.219,5.786-69.436,7.782c-16.448,1.414-32.946,2.759-49.348,0.525c-11.82-1.61-23.799-1.935-35.547-2.432
			c-12.764-0.541-24.93-4.773-37.661-4.169c-1.346,0.69-2.549,0.43-3.644-0.547c-1.147-0.142-2.294-0.284-3.442-0.426
			c-4.555,0.271-8.199-1.677-11.409-4.683c-15.024-1.5-27.944-9.181-41.362-14.926c-29.714-12.725-60.749-19.925-92.491-24.424
			c-11.412-1.618-22.979-2.798-34.615-2.611c-4.66,0.075-9.328-1.243-14.007-1.366c-27.21-0.714-53.221,5.402-79.031,13.399
			c-16.201,5.019-31.262,12.406-46.451,19.613c-17.871,8.479-30.956,22.599-43.191,37.602c-4.566,5.6-8.877,11.409-13.305,17.125
			c-2.066,6.861-3.637,13.797-3.245,21.034c1.471-4.021,1.722-8.478,4.146-12.152C303.122,342.035,317.144,326.175,335.493,314.826z
			"></path>
		<path fill-rule="evenodd" clip-rule="evenodd" class="colour4" fill="#bcbec0" d="M724.002,980.55c0.777-0.218,1.554-0.435,2.33-0.653
			c2.259-1.563,4.25-3.611,7.181-3.95c1.39-0.731,2.78-1.463,4.171-2.195c2.191-1.965,4.664-3.351,7.637-3.703
			c0.646-0.259,1.295-0.519,1.942-0.778c0.541-1.275,1.446-1.839,2.838-1.449c1.419-0.693,2.839-1.387,4.259-2.079
			c1.434-2.245,3.87-2.521,6.138-3.127c1.431-0.685,2.863-1.37,4.295-2.056c0.688-0.943,1.483-1.686,2.779-1.506
			c1.888-0.928,3.776-1.856,5.664-2.783c1.895-2.4,4.546-3.473,7.386-4.21c1.866-0.968,3.734-1.936,5.602-2.905
			c0.464-1.287,1.392-1.834,2.737-1.709c1.797-1.097,3.595-2.194,5.394-3.291c0.641-1.002,1.409-1.795,2.739-1.651
			c3.899-2.451,7.8-4.902,11.699-7.353c0.979-2.031,2.808-2.796,4.842-3.256c2.654-1.746,5.311-3.495,7.967-5.243
			c0.58-1.076,1.355-1.861,2.692-1.807c9.661-6.695,19.296-13.429,28.99-20.078c23.327-15.998,42.151-35.818,52.329-62.701
			c5.701-15.058,8.254-31.17,14.961-45.92c-0.517-0.375-1.033-0.749-1.55-1.124c-4.51,9.99-9.613,19.762-13.4,30.021
			c-6.504,17.625-16.806,32.527-31.114,44.357c-21.159,17.492-45.673,29.775-69.564,42.954
			c-23.242,12.82-47.019,24.591-71.953,33.754c-17.677,6.495-34.489,15.211-52.709,20.276c-22.109,6.148-44.19,12.398-66.315,18.488
			c-8.182,2.251-16.454,4.172-24.685,6.243c-1.879,2.452-4.399,1.346-6.743,1.214c-0.436,0.157-0.872,0.313-1.307,0.468
			c-5.278,3.925-12.16,3.104-17.797,6.116c-17.688,9.455-35.701,4.026-53.643,0.9c-1.058-0.097-2.116-0.194-3.173-0.293
			c-1.308,0.91-2.441,0.659-3.433-0.518c-0.78-0.046-1.561-0.093-2.342-0.139c-5.744,0.079-11.528,0.357-16.558-3.224
			c-11.921-3.024-23.954-5.843-31.696-17.211c0.322,10.909-1.715,21.894,4.062,31.938c0.35,0.386,0.699,0.771,1.051,1.155
			c0.319,0.485,0.637,0.975,0.955,1.464c0.391,0.393,1.171,0.751,0.831,1.332c8.13,6.022,16.36,9.755,24.606,13.446
			c15.246-3.321,30.463-6.792,45.758-9.877c4.767-0.962,9.214-3.54,14.217-3.134c20.573,1.671,40.978,5.376,61.744,4.824
			c3.439-0.091,6.924,1.469,10.305-0.429c32.803-11.335,65.806-22.115,97.916-35.372C717.26,982.447,720.367,980.651,724.002,980.55
			z"></path>
		<path fill-rule="evenodd" clip-rule="evenodd" class="colour4" fill="#bcbec0" d="M459.342,1014.501c0.058-0.063,0.114-0.125,0.148-0.183
			c-0.07-0.052-0.141-0.097-0.211-0.149C459.298,1014.285,459.321,1014.39,459.342,1014.501z"></path>
		<path fill-rule="evenodd" clip-rule="evenodd" class="colour4" fill="#bcbec0" d="M457.781,1013.858c-0.375-0.403-0.747-0.81-1.12-1.216
			c-0.312-0.48-0.624-0.961-0.936-1.441c-1.266-0.914-2.35-1.441-2.353,0.928c-0.007,5.439-0.045,10.878-0.071,16.32
			c9.267,4.262,18.541,3.474,27.819,0.044c-5.961-2.398-12.459-3.628-17.524-7.982c-1.548-1.33-3.556-2.3-4.254-6.01
			c-0.021,0.023-0.03,0.044-0.056,0.068C458.499,1015.322,458.19,1014.318,457.781,1013.858z"></path>
		<path fill-rule="evenodd" clip-rule="evenodd" class="colour4" fill="#bcbec0" d="M366.116,226.731c-0.013-0.001-0.024,0.001-0.037,0
			c-0.012,0.016-0.025,0.028-0.037,0.044L366.116,226.731z"></path>
		<path fill-rule="evenodd" clip-rule="evenodd" class="colour4" fill="#bcbec0" d="M982.103,876.794c-3.288,16.916-12.028,31.481-19.748,46.415
			c-4.395,8.498-10.54,16.08-15.724,24.186c-7.545,11.798-11.251,25.496-18.551,37.471c-4.605,7.557-7.535,15.829-8.361,24.913
			c-1.196,13.16-7.123,24.289-16.132,33.948c-9.298,9.965-19.972,18.096-31.389,25.451c-28.249,18.198-57.47,34.666-88.328,47.928
			c-17.956,7.717-36.641,13.725-54.723,21.232c-21.409,8.889-43.861,14.815-65.594,22.785c-4.06,1.487-8.79,1.79-12.226,5.384
			c2.053,0.908,3.907,0.776,5.486,0.216c11.854-4.204,24.156-6.404,36.458-8.786c19.895-3.854,38.732-11.285,57.599-18.411
			c30.845-11.651,61.511-23.579,90.215-40.286c18.862-10.978,37.479-22.206,55.063-35.076c12.56-9.192,21.905-20.666,24.048-36.912
			c1.203-9.114,5.016-17.277,10.953-24.425c7.829-9.422,14.618-19.495,18.348-31.32c3.62-11.482,8.328-22.521,14.519-32.808
			c4.499-7.474,8.322-15.416,14.049-22.123l-0.088,0.076c-0.167-1.844-0.557-3.758,1.566-4.863
			c3.676-15.5,6.653-31.061,4.182-47.106C981.679,868.497,982.89,872.749,982.103,876.794z"></path>
		<path fill-rule="evenodd" clip-rule="evenodd" class="colour4" fill="#bcbec0" d="M369.647,237.456c0.008-0.001,0.015-0.003,0.023-0.003
			c0.002-0.006,0.005-0.011,0.008-0.017L369.647,237.456z"></path>
		<path fill-rule="evenodd" clip-rule="evenodd" class="colour4" fill="#bcbec0" d="M363.782,242.108c-0.812,0.427-1.624,0.854-2.436,1.281
			c0.981-0.055,1.975-0.088,2.4-1.2c1.513-0.302,3.136-0.352,4.515-0.958c14.65-6.436,30.082-10.244,45.606-13.765
			c13.833-3.138,27.808-6.408,41.98-3.864c24.697,4.435,49.374,8.933,73.623,15.729c31.568,8.846,61.774,20.841,90.625,36.269
			c16.279,8.705,32.378,17.722,51.054,20.256c20.594,2.795,41.206,5.459,62.069,4.85c0,0,0.13-0.491,0.131-0.491
			c-7.96-1.934-16.171-2.044-24.243-3.283c-22.94-3.521-45.244-8.89-66.096-19.317c-10.373-5.188-20.545-10.772-30.877-16.043
			c-22.257-11.355-44.82-21.999-68.917-28.99c-10.906-3.366-21.813-6.733-32.719-10.101c-16.723-3.207-33.465-5.831-50.568-6.597
			c-22.216-0.995-43.198,3.847-63.945,10.823c-5.301,1.783-10.791,3.038-15.728,5.802c-3.091,2.587-6.504,4.484-10.588,4.943
			C368.633,240.164,365.282,239.977,363.782,242.108z"></path>
		<path fill-rule="evenodd" clip-rule="evenodd" class="colour4" fill="#bcbec0" d="M569.128,974.963c-7.894,1.246-15.847,2.569-23.69,3.713
			c-7.34,1.07-15.242,0.691-22.726,1.696c-21.073,2.828-41.848,4.224-61.988-5.267c3.242,6.165,9.715,8.226,15.072,11.673
			c1.04-0.428,1.815-0.052,2.434,0.8c1.176,0.465,2.354,0.93,3.531,1.396c6.696,1.888,13.392,3.777,20.087,5.666
			c1.146,0.19,2.293,0.382,3.441,0.572c1.021-0.557,1.868-0.436,2.468,0.638c1.168,0.099,2.339,0.199,3.508,0.3
			c1.366-0.501,2.566-0.254,3.586,0.797c0.793,0.065,1.587,0.132,2.381,0.197c9.194-0.16,18.052,1.317,26.392,5.368
			c1.779,0.865,2.826-0.734,4.21-1.275c9.716-3.802,19.457-7.539,29.211-11.243c0.454-0.172,1.105,0.178,1.665,0.285
			c1.148-0.448,2.297-0.773,3.449-0.014c0.769-3.996,3.874-0.958,5.662-1.882c0.624-0.426,1.191-1.033,1.882-1.25
			c19.065-5.988,38.092-12.109,57.236-17.835c14.495-4.335,28.028-10.787,41.355-17.757c1.026-0.537,3.401-0.688,2.369-3.563
			c-5.743,0.988-10.695,4.143-16.078,6.146c-19.578,7.285-40.213,10.371-60.62,14.168
			C599.121,971.055,584.054,972.604,569.128,974.963z"></path>
		<path fill-rule="evenodd" clip-rule="evenodd" class="colour4" fill="#bcbec0" d="M945.448,889.349c-0.634,0.851-1.48,1.224-2.341,0.172
			c-6.481,6.839-13.827,13.5-17.263,22.138c-5.115,12.864-12.673,23.874-21.128,34.471c-6.763,8.479-10.438,18.884-17.561,27.174
			c-3.555,4.139-8.204,7.334-10.779,12.315c-1.729,6.482-7.092,10.238-11.211,14.926c-1.376,1.566-3.526,2.446-4.15,4.681
			c6.81-0.159,9.633-6.319,14.218-9.723c9.777-7.253,19.044-15.239,24.827-26.291c10.781-20.599,24.439-39.085,40.299-56.023
			c13.62-14.549,23.646-31.233,29.383-50.39c5.105-17.047,6.642-34.576,7.046-52.268c0.065-2.866-0.882-5.907,0.955-8.596
			c-0.981-4.586-0.616-9.453-2.658-14.9c-2.126,7.356-2.497,13.843-3.181,20.255c-2.139,20.04-8.011,39.167-14.072,58.242
			c-0.439,1.385,0.017,5.254-3.781,3.07l0.159,0.104c3.191,2.731-0.842,4.468-0.929,6.748
			C952.245,880.971,948.646,885.052,945.448,889.349z"></path>
		<path fill-rule="evenodd" clip-rule="evenodd" class="colour4" fill="#bcbec0" d="M973.39,1062.111c-9.827,23.041-24.363,43.451-36.832,64.985
			c-13.408,23.154-31.18,43.185-50.456,61.778c-0.939,0.904-2.629,1.713-1.684,3.771c16.609-11.862,30.845-26.04,42.373-42.34
			c18.422-26.048,36.02-52.748,47.632-82.793c0.747-2.211,0.62-4.435,0.097-6.665C974.136,1061.265,973.6,1061.619,973.39,1062.111z
			"></path>
		<path fill-rule="evenodd" clip-rule="evenodd" class="colour4" fill="#bcbec0" d="M451.036,303.81c29.273,1.235,58.014,5.561,85.999,14.401
			c3.194-2.019,6.475-1.041,9.583,0.018c10.525,3.583,21.5,5.41,32.18,8.44c-14.498-4.703-28.578-10.709-43.374-14.576
			C507.741,304.857,479.718,301.032,451.036,303.81z"></path>
		<path fill-rule="evenodd" clip-rule="evenodd" class="colour4" fill="#bcbec0" d="M745.751,387.138c-17.57,2.748-35.169,5.505-52.769,8.263
			c20.686-1.42,41.455-1.785,61.875-4.772C751.695,389.978,747.688,391.35,745.751,387.138z"></path>
		<path fill-rule="evenodd" clip-rule="evenodd" class="colour4" fill="#bcbec0" d="M438.829,1150.229c-0.526,2.755-1.053,5.512-1.58,8.271
			c5.1,8.599,14.384,9.833,22.552,13.202C450.994,1166.194,443.619,1159.5,438.829,1150.229z"></path>
		<path fill-rule="evenodd" clip-rule="evenodd" class="colour4" fill="#bcbec0" d="M453.329,1033.694c-0.224,2.131-0.448,4.261-0.672,6.398
			c10.439,8.036,22.096,9.744,35.207,7.067C474.691,1045.801,461.681,1045.803,453.329,1033.694z"></path>
		<path fill-rule="evenodd" clip-rule="evenodd" class="colour4" fill="#bcbec0" d="M288.266,383.365c-0.507,4.708,0.948,9.156,1.808,13.692
			c-0.525-10.791,2.567-20.853,6.26-30.792C290.945,370.683,290.308,377.356,288.266,383.365z"></path>
		<path fill-rule="evenodd" clip-rule="evenodd" class="colour4" fill="#bcbec0" d="M296.334,366.264c0.03-0.024,0.056-0.051,0.086-0.076
			l0.239-0.289c0,0-0.281,0.245-0.281,0.246C296.363,366.186,296.349,366.225,296.334,366.264z"></path>
		<path fill-rule="evenodd" clip-rule="evenodd" class="colour4" fill="#bcbec0" d="M705.154,352.19c-7.895-0.139-15.821-0.771-23.673,0.799
			c4.347,0.165,8.696,0.329,13.044,0.493c3.149-0.093,6.297-0.187,9.446-0.28C704.36,352.864,704.75,352.526,705.154,352.19z"></path>
		<path fill-rule="evenodd" clip-rule="evenodd" class="colour4" fill="#bcbec0" d="M801.866,374.266c-0.118-0.106-0.237-0.211-0.343-0.32
			c-0.272,0.056-0.558,0.115-0.843,0.173C801.076,374.169,801.472,374.218,801.866,374.266z"></path>
		<path fill-rule="evenodd" clip-rule="evenodd" class="colour4" fill="#bcbec0" d="M763.044,383.272c0.244,0.213,0.487,0.427,0.731,0.641
			c-0.089-0.214-0.178-0.429-0.252-0.646C763.537,383.263,763.044,383.272,763.044,383.272z"></path>
		<path fill-rule="evenodd" clip-rule="evenodd" class="colour4" fill="#bcbec0" d="M770.206,382.041c0.118,0.253,0.214,0.521,0.372,0.745
			c0.031,0.044,0.305-0.083,0.467-0.133c-0.213-0.2-0.425-0.4-0.628-0.603C770.424,382.046,770.206,382.041,770.206,382.041z"></path>
		<path fill-rule="evenodd" clip-rule="evenodd" class="colour4" fill="#bcbec0" d="M353.068,233.763c-0.01-0.002-0.018,0-0.028-0.002
			c3.771-0.188,5.876-3.621,9.162-4.754c0.524-0.364,1.049-0.728,1.573-1.091l-0.099,0.065c0.536-0.933,1.327-1.371,2.403-1.25
			c2.321-3.107,5.741-4.577,9.126-6.094c11.791-6.712,23.953-12.81,36.805-17.034c41.325-13.582,82.227-9.556,122.655,4.281
			c34.618,11.848,68.027,26.779,101.993,40.289c9.465,3.765,18.95,7.71,28.758,10.327c14.127,3.769,28.722,4.168,43.343,3.95
			c15.555-0.231,30.962-2.265,46.457-3.206c18.794-1.142,37.741-1.02,56.247-5.321c-0.459-0.583-0.918-1.167-1.377-1.752
			c-2.74,0.19-5.481,0.381-8.223,0.572c-3.069,1.556-6.184,1.36-9.323,0.249c-3.724-0.004-7.451,0.073-11.173-0.028
			c-19.832-0.539-39.661-1.478-59.495-1.602c-24.602-0.155-49.024-0.502-72.077-10.961c-24.324-11.036-48.955-21.401-73.208-32.587
			c-30.379-14.012-60.559-28.412-94.768-30.374c-0.806,0.769-1.568,0.705-2.287-0.124c-6.746-0.031-13.492-0.062-20.238-0.092
			c-7.361,1.027-14.778,1.77-22.07,3.165c-6.991,1.337-13.853,3.353-20.916,4.456c13.797-5.483,27.865-9.829,42.885-10.234
			c36.805-3.32,71.713,4.007,105.301,18.755c0.442-0.669,0.883-1.339,1.326-2.008c-29.526-13.833-60.092-23.328-93.156-22.901
			c-25.455,0.328-48.973,6.359-69.612,21.971c-12.874,9.737-25.459,19.819-37.49,30.563c-4.448,3.972-9.6,7.347-12.626,12.76
			c-1.917-0.296-2.425,1.479-3.473,2.46C351.221,236.214,352.613,235.676,353.068,233.763z M413.742,185.658
			c0.171,0.136,0.321,0.256,0.472,0.376c-0.342,0.135-0.675,0.312-1.031,0.382c-0.12,0.024-0.293-0.219-0.442-0.34
			C413.079,185.935,413.417,185.794,413.742,185.658z"></path>
		<path fill-rule="evenodd" clip-rule="evenodd" class="colour4" fill="#bcbec0" d="M826.976,364.927c0.032-0.038-0.154-0.256-0.233-0.393
			c0.006-0.001-0.218,0.143-0.218,0.143C826.479,365.23,826.645,365.326,826.976,364.927z"></path>
		<path fill-rule="evenodd" clip-rule="evenodd" class="colour4" fill="#bcbec0" d="M789.836,377.519c0.185,0.483,0.34,0.788,0.302-0.053
			C790.004,377.382,789.902,377.399,789.836,377.519z"></path>
		<path fill-rule="evenodd" clip-rule="evenodd" class="colour4" fill="#bcbec0" d="M783.063,379.781c0.005-0.001-0.178,0.004-0.178,0.004
			C782.956,380.704,783.013,380.577,783.063,379.781z"></path>
		<path fill-rule="evenodd" clip-rule="evenodd" class="colour4" fill="#bcbec0" d="M752.307,385.695c0.005-0.002-0.16,0.055-0.16,0.055
			C752.449,386.472,752.557,386.618,752.307,385.695z"></path>
		<path fill-rule="evenodd" clip-rule="evenodd" class="colour4" fill="#bcbec0" d="M756.854,384.72c0.169,0.706,0.286,0.614,0.376-0.024
			c0.006-0.001-0.196-0.197-0.196-0.197L756.854,384.72z"></path>
		<path fill-rule="evenodd" clip-rule="evenodd" class="colour4" fill="#bcbec0" d="M692.178,948.013c0.516,1.137,1.5,0.511,2.335,0.418
			c-0.43-0.529-0.858-1.06-1.287-1.589C692.854,947.242,692.09,947.82,692.178,948.013z"></path>
		<path fill-rule="evenodd" clip-rule="evenodd" class="colour4" fill="#bcbec0" d="M921.586,1122.463c0.613,0.465,1.231,0.923,1.85,1.38
			c2.261-2.737,4.606-5.43,4.55-9.517C925.854,1117.037,923.723,1119.746,921.586,1122.463z"></path>
		<path fill-rule="evenodd" clip-rule="evenodd" class="colour4" fill="#bcbec0" d="M845.663,1040.604c0.073-0.142,0.147-0.283,0.222-0.426
			c-0.086,0.131-0.171,0.26-0.257,0.391c-2.305,0.276-4.616,0.541-5.848,2.945c0.108,0.494,0.216,0.986,0.327,1.477
			C842.576,1044.304,844.589,1043.049,845.663,1040.604z"></path>
		<path fill-rule="evenodd" clip-rule="evenodd" class="colour4" fill="#bcbec0" d="M654.727,1207.776c3.164,0.266,6.26,0.325,8.714-2.055
			c0,0-0.122-0.431-0.116-0.433C660.247,1205.436,657.937,1208.021,654.727,1207.776z"></path>
		<path fill-rule="evenodd" clip-rule="evenodd" class="colour4" fill="#bcbec0" d="M646.82,1167.68c0.35,0.162,0.666,0.426,0.977,0.418
			c0.316-0.007,0.625-0.28,0.938-0.438c-0.4-0.2-0.786-0.486-1.209-0.562C647.339,1167.065,647.075,1167.459,646.82,1167.68z"></path>
		<path fill-rule="evenodd" clip-rule="evenodd" class="colour4" fill="#bcbec0" d="M659.165,479.393c-6.232-1.134-12.152-0.448-17.892,1.761
			c1.282,0.587,2.569,1.173,3.855,1.758C650.217,483.214,654.257,479.807,659.165,479.393z"></path>
		<path fill-rule="evenodd" clip-rule="evenodd" class="colour4" fill="#bcbec0" d="M666.244,353.539c-2.789,0.01-5.682-0.971-8.284,0.855
			C660.72,354.109,663.481,353.824,666.244,353.539z"></path>
		<polygon fill-rule="evenodd" clip-rule="evenodd" class="colour4" fill="#bcbec0" points="305.826,454.738 305.65,454.951 305.869,454.782 
			306.05,454.545 305.826,454.738 		"></polygon>
	</g>
	<g>
		<path fill-rule="evenodd" clip-rule="evenodd" class="colour3" fill="#d71920" d="M657.839,493.8c0.02,0,0.04,0.002,0.06,0.003
			c0.005-0.014,0.013-0.024,0.018-0.039C657.917,493.764,657.838,493.8,657.839,493.8z"></path>
		<path fill-rule="evenodd" clip-rule="evenodd" class="colour3" fill="#d71920" d="M852.625,473.438l-0.008-0.004
			c-0.012,0.014-0.024,0.028-0.036,0.042C852.596,473.463,852.61,473.451,852.625,473.438z"></path>
		<path fill-rule="evenodd" clip-rule="evenodd" class="colour3" fill="#d71920" d="M852.548,473.515c0.011-0.013,0.022-0.026,0.033-0.039
			c-0.012,0.011-0.024,0.021-0.037,0.032C852.545,473.508,852.548,473.515,852.548,473.515z"></path>
		<path fill-rule="evenodd" clip-rule="evenodd" class="colour3" fill="#d71920" d="M449.771,331.437c-19.455,0.081-38.925,0.374-58.037,4.656
			c-24.152,5.412-48.41,10.726-69.613,24.4c-16.086,10.375-28.265,23.748-30.464,43.898c1.078,7.421,2.256,14.82,4.587,21.98
			c0.417-8.858,1.298-17.556,4.853-25.904c7.68-18.034,22.623-28.188,39.13-36.602c7.338-3.74,15.113-6.613,22.588-10.098
			c31.591-14.729,65.485-18.559,99.569-21.249C458.197,332.403,453.982,331.419,449.771,331.437z"></path>
		<path fill-rule="evenodd" clip-rule="evenodd" class="colour3" fill="#d71920" d="M297.38,432.777c0.425,3.144-0.393,6.462,1.329,9.426
			c1.149-4.772,2.283-9.551,3.451-14.321c3.737-15.255,11.329-27.616,25.01-36.267c4.517-2.855,9.334-5.775,13.03-10.022
			c-10.785,4.207-20.586,10.015-28.936,18.06C301.918,408.659,299.447,420.66,297.38,432.777z"></path>
		<path fill-rule="evenodd" clip-rule="evenodd" class="colour3" fill="#d71920" d="M798.453,465.299c-0.031,0.016-0.063,0.03-0.092,0.049
			c-0.01,0.03-0.023,0.056-0.033,0.085c0.029-0.009,0.06-0.018,0.089-0.027C798.429,465.37,798.441,465.335,798.453,465.299z"></path>
		<path fill-rule="evenodd" clip-rule="evenodd" class="colour3" fill="#d71920" d="M801.115,464.016c0.02-0.104-0.233-0.332-0.397-0.383
			c-1.544-0.483-1.906,0.593-2.265,1.667C799.333,464.842,800.817,465.634,801.115,464.016z"></path>
		<path fill-rule="evenodd" clip-rule="evenodd" class="colour3" fill="#d71920" d="M861.093,461.859c-0.645-0.792-1.254-0.136-1.835,0.224
			c-1.336,0.509-2.673,1.018-4.004,1.524c-0.128,0.386-0.396,0.625-0.798,0.712c-0.786,1.604-2.404,1.387-3.763,1.724
			c-0.493,0.366-0.991,0.736-1.489,1.106c-10.462,5.826-21.839,9.305-33.163,12.917c-11.075,4.431-22.8,6.636-34.217,9.879
			c-25.299,7.186-51.214,11.613-77.028,16.438c-4.964,0.928-10.078,1.063-15.38,0.549c7.522-2.429,15.033-4.891,22.567-7.28
			c28.605-9.073,57.142-18.318,84.021-31.941c1.125-0.57,1.928-1.145,2.323-2.278c-9.836,3.051-19.848,5.641-29.457,9.288
			c-10.286,3.904-21.004,5.717-31.634,7.956c-24.679,5.199-49.51,9.515-74.719,11.24c-1.53,0.104-3.079-0.066-4.619-0.113
			c-0.314,0.763-0.879,0.934-1.634,0.659c-24.616,2.712-49.27,2.66-73.967,1.327c21.167-3.45,41.996-8.178,62.83-12.877
			c-1.286-0.585-2.573-1.171-3.855-1.758c-21.868,2.254-43.768,3.979-65.786,3.316c-6.521-0.196-11.432,3.513-14.762,8.084
			c-1.796,2.466-3.032,3.391-5.665,3.516c-20.797,0.991-41.484,3.081-62.106,5.972c-39.167,5.49-77.752,13.375-114.965,27.116
			c-1.432,0.528-3.17,0.556-3.862,2.32c5.28,2.681,11.083,1.506,16.579,1.826c26.152,1.525,50.914,8.7,75.458,17.173
			c18.146,6.265,36.711,11.334,54.061,19.801c6.181,3.016,12.385,5.971,18.088,9.813c3.058,2.059,7.373,4.271,7.088,8.038
			c-0.314,4.137-5.272,5.273-8.683,6.97c-4.653,2.314-9.838,2.637-14.912,3.077c-19.729,1.708-39.336,5.383-59.274,3.762
			c-0.534,3.575-2.007,6.993-1.788,10.694c21.777,2.264,43.566,1.872,65.232-0.847c10.333-1.297,18.207-7.116,21.843-17.395
			c2.415-6.826,4.507-13.765,6.744-20.654c4.099-2.591,8.628-0.749,12.915-1.036c11.924-0.798,23.632-3.642,35.621-3.559
			c1.296-0.148,2.6-0.297,3.903-0.446c11.979-2.985,24.312-3.751,36.446-5.788c24.249-4.07,48.106-9.46,70.94-18.793
			c0.705-0.289,1.314-0.813,1.968-1.227c0,0-0.001-0.001-0.001-0.001c1.184-0.165,3.096-0.869,2.746-1.569
			c-0.93-1.86-2.574-0.727-3.92-0.004c0,0,0,0,0,0c-12.223,1.773-24.405,3.92-36.678,5.23c-19.127,2.042-38.307,3.682-57.648,2.535
			c14.718-1.949,29.545-3.299,44.136-5.954c56.45-10.273,111.442-25.225,162.362-52.633c4.119-2.217,8.176-4.55,12.258-6.825
			c0.125-0.386,0.393-0.608,0.799-0.663c0.379-1.258,1.318-1.751,2.533-1.857c0.773-0.564,1.551-1.131,2.328-1.699l-0.079-0.289
			c0,0,0.182,0.242,0.182,0.243c1.135-0.828,2.271-1.656,3.406-2.485l-0.102-0.342c0,0,0.364,0.053,0.362,0.056
			c0.121-0.393,0.381-0.653,0.777-0.775l-0.049-0.365c0,0,0.335,0.115,0.332,0.118c0.814-0.698,1.629-1.399,2.444-2.101
			c-0.005-0.013-0.071-0.138-0.071-0.138l0.145,0.064c0.435-0.502,0.871-1.006,1.307-1.51c0.548-1.69,2.093-2.355,3.378-3.276
			c0.646-0.803,1.297-1.612,1.949-2.421l-0.073-0.388c0,0,0.405,0,0.403,0.004c0.052-0.356,0.244-0.615,0.571-0.773
			c0.11-0.497,0.221-0.994,0.33-1.491c0,0-0.001-0.001-0.001-0.001C860.948,463.094,861.747,462.663,861.093,461.859z"></path>
	</g>
</g>
</svg>