<svg version="1.1" id="Layer_1___PNQ42ahm" xmlns="http://www.w3.org/2000/svg" xmlns:xlink="http://www.w3.org/1999/xlink" x="0px" y="0px" width="1417.32px" height="1417.32px" viewBox="0 0 1417.32 1417.32" enable-background="new 0 0 1417.32 1417.32" xml:space="preserve">
<g>
	<path class="colour1" fill="#009FDA" d="M946.294,545.556c0.205,3.339,0.297,6.652,0.306,10.015c1.248-9.878,3-19.709,5.086-29.512
		c-0.186,0.078-0.384,0.154-0.609,0.225c0.637-8.277,1.229-16.126,1.849-23.973c1.695-21.468,0.602-42.656-6.485-63.213
		c-0.895-2.591-2.214-5.035-3.337-7.547c-5.304,0.072-10.374-2.257-15.741-1.545c10.616,20.643,18.008,42.257,18.553,65.681
		C946.302,512.307,945.275,528.988,946.294,545.556z"></path>
	<path class="colour1" fill="#009FDA" d="M899.236,460.022c6.247,0.358,9.852,2.252,13.122,8.871c11.998,24.28,16.394,50.209,19.896,76.554
		c2.322,17.468,4.524,35.176,10.286,51.755c1.276,3.672,1.98,7.257,2.355,10.814c0.081-1.864,0.163-3.726,0.244-5.591
		c-0.74-9.605-0.756-19.143-0.222-28.631c-1.838-3.981-1.529-7.386-1.939-10.562c-2.283-17.681-3.344-35.455-4.164-53.261
		c-1.104-23.931-8.613-46.049-20.145-66.891c-2.856-5.164-4.642-10.966-8.969-15.27c-11.918,0.017-23.835,0.034-35.751,0.049
		c6.179,9.892,12.455,19.726,18.479,29.71C894.191,460.491,896.863,459.885,899.236,460.022z"></path>
	<path class="colour1" fill="#009FDA" d="M424.938,1091.47c0.04-0.157,0.084-0.314,0.125-0.472c-0.076,0.03-0.152,0.061-0.214,0.094
		C424.89,1091.219,424.906,1091.344,424.938,1091.47z"></path>
	<path class="colour1" fill="#009FDA" d="M955.669,502.192c-0.271,2.606-0.488,5.233-0.709,7.867c0.073-0.37,0.146-0.741,0.22-1.111
		c3.246-21.261,4.502-42.91,9.894-63.749c0.525-2.032,0.994-4.063,1.431-6.092c-0.279,0.012-0.604-0.02-0.985-0.107
		c-0.552,3.239-1.105,6.477-1.659,9.715c-0.189,0-0.379,0-0.57,0c-0.499-3.946-0.997-7.893-1.496-11.84
		c-2.404-0.641-4.811-1.283-7.215-1.923C958.967,457.308,958.013,479.646,955.669,502.192z"></path>
	<path class="colour1" fill="#009FDA" d="M880.884,512.143c1.93,3.715,4.101,5.515,8.148,5.066c6.248-0.692,9.265,2.209,11.501,8.118
		c15.438,40.812,26.335,83.019,39.241,124.607c1.435,4.625,2.135,9.164,2.445,13.671c0.606-12.336,1.212-24.67,1.811-37.002
		c-1.67-2.106-2.306-4.459-2.935-6.879c-7.105-27.395-14.076-54.826-19.837-82.538c-5.925-28.506-18.085-54.354-32.933-79.099
		c-6.309-10.515-12.584-21.069-20.516-30.502c-12.943-0.574-25.886-0.415-38.824,0.132c7.335,11.281,14.608,22.604,22.022,33.833
		C861.816,477.916,871.849,494.747,880.884,512.143z"></path>
	<path class="colour1" fill="#009FDA" d="M834.063,54.343c-0.017,0.055-0.038,0.107-0.055,0.162c0.026-0.052,0.053-0.102,0.079-0.153
		C834.078,54.35,834.07,54.347,834.063,54.343z"></path>
	<path class="colour1" fill="#009FDA" d="M952.511,1130.15c-11.898-20.531-21.936-42.135-33.085-63.107c-20.145-37.891-39.655-76.108-61.021-113.358
		c-20.057-34.971-38.302-71.043-60.874-104.478c-16.299-24.144-33.147-47.904-50.453-71.335
		c-12.208,0.002-24.417,0.005-36.625,0.005c26.516,34.621,51.423,70.39,75.235,106.936c7.768,11.921,15.229,24.047,22.625,36.203
		c2.321,3.814,4.78,6.423,9.717,6.371c5.411-0.058,8.526,3.357,11.292,7.951c23.664,39.318,45.657,79.561,67.137,120.096
		c24.177,45.626,50.235,90.295,72.283,136.989c14.146,29.959,28.025,60.257,36.374,92.567c2.163,8.369,1.904,17.536,5.019,25.444
		c1.087,2.762,1.754,5.522,2.169,8.282c-0.013-0.394-0.02-0.787-0.036-1.181c-0.249-5.887-1.178-11.77-1.072-17.642
		c0.144-7.908-0.037-15.799-0.384-23.682c-0.197,0.24-0.424,0.487-0.693,0.742c-2.439-13.318-5.105-25.8-9.86-37.709
		C985.534,1202.363,972.573,1164.772,952.511,1130.15z"></path>
	<path class="colour1" fill="#009FDA" d="M654.986,491.359c49.964,1.866,99.946,0.241,149.897,1.701c14.96,0.438,29.886,0.681,44.828-0.298
		c7.648-0.501,8.572,0.6,7.533,8.357c-2.822,21.068-4.604,42.231-4.9,63.475c-0.434,31.264,0.602,62.513,1.353,93.769
		c0.91,37.952,0.939,75.925,1.628,113.883c0.09,5.018-1.735,5.724-6.078,5.711c-19.232-0.052-38.465-0.07-57.697-0.08
		c4.699,6.095,9.487,12.122,14.413,18.048c4.022,4.839,7.5,10.161,10.924,15.457c2.701,4.179,6.479,5.601,11.093,5.247
		c3.829-0.295,5.94,1.229,7.94,4.618c14.607,24.742,26.838,50.648,38.997,76.647c12.563,26.866,26.296,53.187,39.571,79.72
		c14.344,28.671,25.946,58.674,41.286,86.827c17.764,32.605,31.152,66.954,44.466,101.499c0.843,2.187,1.521,4.37,2.099,6.556
		c-4.728-38.173-6.925-76.732-18.21-113.938c-7.019-23.143-9.176-47.378-13.801-71.067c-5.457-27.952-11.864-55.668-19.444-83.128
		c-6.312-22.869-6.964-46.558-9.501-69.974c-5.318-49.073-2.854-98.144-0.334-147.225c0.035-0.679,0.066-1.359,0.102-2.038
		c-2.164-1.785-2.309-4.527-2.961-7.037c-15.888-61.157-37.188-120.307-67.226-176c-13.147-24.378-28.574-47.469-44.28-70.312
		c-1.117-1.626-2.42-3.124-3.637-4.68c-16.209,0.106-32.418,0.209-48.626,0.323c-2.179,0.016-4.38-0.103-6.528,0.173
		c-4.779,0.614-7.776-1.081-10.806-5.143c-12.299-16.498-22.833-34.257-36.128-50.041c-6.801-8.075-15.31-14.29-22.688-21.743
		c-6.219-6.281-10.098-14.179-16.021-20.565c-1.344-1.449-2.38-3.363-3.994-4.356c-9.281-5.714-9.214-14.528-8.444-23.798
		c3.245-39.084,5.657-78.19,2.199-117.404c-0.174-1.972-0.071-3.974-0.037-6.559c-21.708-21.543-38.923-46.504-54.588-72.679
		c-8.979-15.004-17.948-30.018-25.807-45.654c-1.227-2.44-2.092-5.063-3.123-7.602c-7.911,3.291-15.625,7.034-23.871,9.542
		c-28.017,8.52-56.867,13.935-84.764,22.886c5.352,11.03,6.043,23.124,7.44,34.943c1.98,16.75,4.447,33.486,4.102,50.454
		c-0.567,27.829-6.043,54.89-11.996,81.944c-5.387,24.476-13.631,47.866-24.022,70.614c-4.335,9.489-7.064,19.527-6.559,30.167
		c2.973,12.854,6.174,25.479,2.88,39.048c-2.04,8.402-3.286,17.197-2.281,26.163c1.94,17.321,8.03,33.81,9.578,51.219
		c1.28,14.393,3.464,28.705,5.248,43.052c1.835,9.025,3.591,18.059,5.074,27.123c0.025-0.126,0.035-0.25,0.064-0.377
		c0.486,1.359,1.065,2.691,1.445,4.078c8.726,31.823,23.079,61.019,41.369,88.351c2.817,4.209,4.886,8.689,5.716,13.58
		c4.016,23.631,15.04,44.386,28.444,63.501c4.352,6.207,8.626,12.461,12.868,18.736c1.107-25.333,2.138-50.668,2.785-76.013
		c0.803-31.46,2.272-62.938,1.294-94.414c-0.597-19.237-1.765-38.477-4.259-57.595c-1.092-8.365,0.227-9.678,8.65-9.143
		C596.749,491.754,625.906,490.273,654.986,491.359z"></path>
	<path class="colour1" fill="#009FDA" d="M923.212,1019.59c-12.141-26.029-25.166-51.628-38.843-76.828c-20.278-37.363-37.217-76.478-59.572-112.74
		c-11.294-18.323-24.655-35.104-37.687-52.146c-11.93-0.005-23.859-0.006-35.79-0.004c12.923,17.691,25.715,35.479,38.529,53.253
		c8.198,11.373,15.516,23.24,22.974,35.041c2.321,3.675,4.777,5.674,8.992,5.166c4.994-0.602,7.507,1.6,10.049,6.021
		c24.54,42.696,46.889,86.579,70.489,129.78c10.438,19.105,19.997,38.695,29.802,58.142c13.188,26.161,26.481,52.273,39.265,78.631
		c14.443,29.779,25.017,61.002,34.701,92.639c1.07,3.497,2.051,6.962,2.893,10.425c-0.179-2.577-0.356-5.154-0.528-7.731
		c-1.971-11.468-2.276-23.089-2.867-34.669c-1.617-2.135-1.84-2.853-2.553-5.95c-5.27-22.908-15.925-43.739-24.727-65.321
		C962.388,1094.183,941.017,1057.76,923.212,1019.59z"></path>
	<path class="colour1" fill="#009FDA" d="M1011.657,1346.123c-2.717-2.902,0.226-6.102-0.381-9.219c-4.81-24.712-11.963-48.693-21.483-71.965
		c-11.922-29.146-25.39-57.602-40.352-85.278c-16.54-30.596-32.733-61.38-50.005-91.595c-9.889-17.304-19.178-34.992-28.747-52.5
		c-11.1-20.312-22.934-40.173-34.435-60.24c-20.939-36.534-42.943-72.377-66.164-107.501
		c-20.347-30.775-41.899-60.659-64.265-89.947c-37.41-0.001-74.821-0.06-112.231,0.037c23.493,33.445,48.946,65.43,73.807,97.855
		c37.008,48.27,72.265,97.831,104.968,149.074c32.069,50.249,65.771,99.373,98.825,148.948
		c30.989,46.479,59.196,94.646,85.878,143.712c2.081,3.828,4.038,7.759,6.5,11.335c10.145,14.729,15.949,31.5,22.995,47.708
		c1.904-0.618,3.793-1.28,5.665-1.99c-6.636-14.976-11.012-30.825-18.853-45.384c-18.302-33.979-35.408-68.606-53.995-102.426
		c-12.455-22.661-26.47-44.477-40.046-66.511c-25.935-42.087-53.62-83.087-78.735-125.679
		c-10.848-18.396-21.981-36.663-33.475-54.591c-13.836-21.582-28.313-42.837-42.969-63.922c-2.594-3.729-5.291-7.419-7.509-11.369
		c-10.397-18.527-24.706-34.273-36.563-51.758c-2.026-2.987-2.122-2.923-1.753-6.919c2.301,0.663,3.47,2.606,4.715,4.284
		c21.909,29.526,41.87,60.37,62.092,91.058c13.594,20.631,27.72,40.903,40.416,62.12c6.286,10.507,12.992,20.765,19.192,31.32
		c2.415,4.11,5.42,6.152,10.097,5.4c4.225-0.679,6.45,1.558,8.487,4.877c25.429,41.454,51.216,82.69,76.352,124.32
		c21.288,35.259,39.129,72.386,57.804,109.059c11.052,21.698,22.962,42.998,32.371,65.457c3.745,8.941,6.186,18.528,9.328,27.797
		c2.251-1,4.479-2.061,6.689-3.174c-3.662-11.453-4.599-23.709-9.432-34.763c-10.518-24.058-20.287-48.43-33.163-71.458
		c-11.668-20.869-21.822-42.582-32.793-63.845c-16.055-31.115-33.498-61.444-51.565-91.435
		c-19.259-31.968-38.174-64.142-57.121-96.295c-19.353-32.84-40.096-64.794-60.735-96.829
		c-18.414-28.581-37.244-56.869-56.548-84.84c-7.055-10.222-15.248-19.656-22.94-29.436c-1.888-2.401-3.414-4.866-2.074-8.57
		c29.894,37.245,56.206,76.169,81.41,115.886c14.821,23.356,30.812,45.97,44.604,69.981c2.15,3.745,4.584,6.739,9.544,6.645
		c8.632-0.162,12.087,6.492,15.203,12.759c5.47,10.993,12.147,21.264,18.214,31.895c13.412,23.501,27.054,46.872,40.39,70.416
		c26.616,46.992,51.935,94.683,76.651,142.697c13.328,25.886,24.358,52.719,34.622,79.956c5.514,14.63,6.703,29.938,9.874,44.912
		c1.458-1.146,2.474-2.718,2.19-5.274C1011.662,1355.988,1011.57,1351.056,1011.657,1346.123z"></path>
	<path class="colour1" fill="#009FDA" d="M411.603,1227.809c0.27-0.075,0.315-0.388,0.213-0.855C411.728,1227.236,411.669,1227.522,411.603,1227.809
		z"></path>
</g>
<g>
	<path class="colour4" fill="#BCBEC0" d="M1012.303,1318.717c-0.415-2.76-1.082-5.521-2.169-8.282c-3.114-7.908-2.855-17.075-5.019-25.444
		c-8.349-32.311-22.228-62.608-36.374-92.567c-22.048-46.694-48.106-91.363-72.283-136.989
		c-21.479-40.535-43.473-80.777-67.137-120.096c-2.766-4.594-5.881-8.009-11.292-7.951c-4.937,0.052-7.396-2.557-9.717-6.371
		c-7.396-12.156-14.857-24.282-22.625-36.203c-23.813-36.546-48.72-72.314-75.235-106.936c-1.353,0-2.707,0.001-4.06,0.001
		c-0.189,0-0.378,0-0.567,0c22.366,29.288,43.918,59.172,64.265,89.947c23.221,35.124,45.225,70.967,66.164,107.501
		c11.501,20.067,23.335,39.929,34.435,60.24c9.569,17.508,18.858,35.196,28.747,52.5c17.271,30.215,33.465,60.999,50.005,91.595
		c14.962,27.677,28.43,56.133,40.352,85.278c9.521,23.271,16.674,47.253,21.483,71.965c0.606,3.117-2.336,6.316,0.381,9.219
		C1011.817,1336.987,1012.594,1327.852,1012.303,1318.717z"></path>
	<path class="colour4" fill="#BCBEC0" d="M858.404,953.685c21.366,37.25,40.877,75.468,61.021,113.358c11.149,20.973,21.187,42.576,33.085,63.107
		c20.063,34.622,33.023,72.213,47.746,109.096c4.755,11.909,7.421,24.391,9.86,37.709c0.27-0.255,0.496-0.502,0.693-0.742
		c-0.431-9.756-1.119-19.499-1.797-29.243c-0.842-3.463-1.822-6.928-2.893-10.425c-9.685-31.637-20.258-62.859-34.701-92.639
		c-12.783-26.357-26.076-52.47-39.265-78.631c-9.805-19.446-19.364-39.036-29.802-58.142
		c-23.601-43.201-45.949-87.084-70.489-129.78c-2.542-4.422-5.055-6.623-10.049-6.021c-4.215,0.508-6.671-1.491-8.992-5.166
		c-7.458-11.801-14.775-23.668-22.974-35.041c-12.814-17.774-25.606-35.562-38.529-53.253c-1.414,0-2.828,0-4.243,0
		c17.306,23.431,34.154,47.191,50.453,71.335C820.103,882.642,838.348,918.714,858.404,953.685z"></path>
	<path class="colour4" fill="#BCBEC0" d="M965.522,1241.327c-24.717-48.015-50.035-95.705-76.651-142.697c-13.336-23.544-26.978-46.915-40.39-70.416
		c-6.066-10.631-12.744-20.901-18.214-31.895c-3.116-6.267-6.571-12.921-15.203-12.759c-4.96,0.095-7.394-2.899-9.544-6.645
		c-13.793-24.012-29.783-46.625-44.604-69.981c-25.204-39.717-51.516-78.641-81.41-115.886c-1.339,3.704,0.186,6.169,2.074,8.57
		c7.692,9.779,15.885,19.214,22.94,29.436c19.304,27.971,38.134,56.259,56.548,84.84c20.64,32.035,41.383,63.989,60.735,96.829
		c18.947,32.153,37.862,64.327,57.121,96.295c18.067,29.99,35.511,60.319,51.565,91.435c10.971,21.263,21.125,42.976,32.793,63.845
		c12.876,23.028,22.646,47.4,33.163,71.458c4.833,11.054,5.77,23.31,9.432,34.763c0.032-0.016,0.063-0.031,0.096-0.047
		c1.333-0.673,2.84-1.329,4.045-2.276c-3.171-14.975-4.36-30.282-9.874-44.912C989.881,1294.046,978.851,1267.213,965.522,1241.327z
		"></path>
	<path class="colour4" fill="#BCBEC0" d="M884.369,942.762c13.677,25.2,26.702,50.799,38.843,76.828c17.805,38.17,39.176,74.593,55.127,113.708
		c8.802,21.582,19.457,42.413,24.727,65.321c0.713,3.098,0.936,3.815,2.553,5.95c-0.35-6.86-0.799-13.707-1.755-20.498
		c-0.542-3.853-1.046-7.712-1.524-11.574c-0.577-2.186-1.256-4.369-2.099-6.556c-13.313-34.545-26.702-68.894-44.466-101.499
		c-15.34-28.153-26.942-58.156-41.286-86.827c-13.275-26.533-27.008-52.854-39.571-79.72c-12.159-25.999-24.39-51.905-38.997-76.647
		c-2-3.389-4.111-4.913-7.94-4.618c-4.614,0.354-8.392-1.068-11.093-5.247c-3.424-5.296-6.901-10.618-10.924-15.457
		c-4.926-5.926-9.714-11.953-14.413-18.048c-1.479,0-2.96-0.002-4.439-0.002c13.031,17.042,26.393,33.822,37.687,52.146
		C847.152,866.284,864.091,905.398,884.369,942.762z"></path>
	<path class="colour4" fill="#BCBEC0" d="M957.489,1278.438c-18.675-36.673-36.516-73.8-57.804-109.059c-25.136-41.63-50.923-82.866-76.352-124.32
		c-2.037-3.319-4.263-5.556-8.487-4.877c-4.677,0.752-7.682-1.29-10.097-5.4c-6.2-10.556-12.906-20.813-19.192-31.32
		c-12.696-21.217-26.822-41.489-40.416-62.12c-20.222-30.688-40.183-61.531-62.092-91.058c-1.245-1.678-2.414-3.621-4.715-4.284
		c-0.369,3.996-0.273,3.932,1.753,6.919c11.857,17.484,26.166,33.23,36.563,51.758c2.218,3.95,4.915,7.641,7.509,11.369
		c14.656,21.085,29.133,42.34,42.969,63.922c11.493,17.928,22.627,36.194,33.475,54.591c25.115,42.592,52.801,83.592,78.735,125.679
		c13.576,22.034,27.591,43.85,40.046,66.511c18.587,33.819,35.693,68.447,53.995,102.426c7.841,14.559,12.217,30.408,18.853,45.384
		c2.342-0.889,4.66-1.845,6.956-2.865c-3.143-9.269-5.583-18.855-9.328-27.797C980.451,1321.437,968.541,1300.137,957.489,1278.438z
		"></path>
</g>
<g>
	<path class="colour3" fill="#d71920" d="M908.066,344.674c-25.518-26.652-47.534-56.177-71.559-84.016c-26.42-30.615-47.453-64.998-71.582-97.182
		c-9.072,9.494-18.765,18.368-28.87,26.807c-6.853,5.722-14.833,9.534-22.944,13.136c-1.935,0.859-3.292,0.449-4.958-0.196
		c-11.529-4.464-21.42-11.312-30.466-19.725c-1.944-1.808-3.84-3.652-5.714-5.513c-0.035,2.584-0.137,4.587,0.037,6.559
		c3.458,39.214,1.046,78.32-2.199,117.404c-0.77,9.27-0.837,18.083,8.444,23.798c1.614,0.994,2.65,2.907,3.994,4.356
		c5.923,6.387,9.803,14.284,16.021,20.565c7.379,7.453,15.888,13.668,22.688,21.743c13.295,15.784,23.829,33.543,36.128,50.041
		c3.029,4.063,6.026,5.757,10.806,5.143c2.148-0.276,4.35-0.157,6.528-0.173c16.208-0.113,32.417-0.217,48.626-0.323
		c-3.627-8.088-10.107-14.105-15.289-21.065c-16.799-22.567-35.256-43.729-54.512-64.214c-1.621-1.724-2.979-3.697-4.438-5.572
		c-0.854-1.099-1.979-2.339-0.256-3.482c1.37-0.909,2.132,0.422,2.829,1.316c14.743,18.909,32.691,35,47.286,54.065
		c10.1,13.193,20.759,25.958,30.318,39.569c12.938-0.547,25.881-0.706,38.824-0.132c-13.926-20.304-30.009-38.859-46.709-56.864
		c-19.112-20.604-38.663-40.8-57.891-61.299c-5.003-5.333-9.539-11.107-14.225-16.731c-0.785-0.941-2.669-1.936-1.195-3.398
		c1.792-1.778,2.688,0.329,3.714,1.368c8.485,8.603,15.684,18.332,24.054,27.068c26.268,27.422,53.18,54.262,77.405,83.571
		c7.188,8.695,14.001,17.699,20.986,26.561c11.916-0.015,23.833-0.032,35.751-0.049c-10.789-18.356-24.105-34.765-38.917-49.967
		c-16.295-16.723-33.122-32.917-49.67-49.383c-16.669-16.584-31.885-34.594-47.202-52.468c-8.366-9.763-16.724-19.519-24.638-29.647
		c-0.927-1.185-3.513-2.561-1.22-4.288c2.13-1.604,3.066,1.05,3.996,2.268c16.83,22.041,35.468,42.557,53.891,63.222
		c11.432,12.823,24.433,24.239,36.451,36.507c17.152,17.506,35.305,34.16,50.412,53.581c3.213,4.133,6.767,6.467,11.806,6.479
		c5.637,0.013,9.021,3.008,11.666,7.641c3.525,6.179,7.374,12.174,11.085,18.249c5.367-0.712,10.438,1.618,15.741,1.545
		c-6.663-15.811-16.134-29.83-26.81-43.199c-13.887-17.389-29.443-33.146-45.381-48.604c-16.929-16.419-32.121-34.431-47.775-52.046
		c-11.296-12.712-22.414-25.597-33.39-38.56c-13.81-16.31-25.824-34.046-37.393-52.038c-0.792-1.234-2.511-2.838-0.619-4.059
		c2.386-1.537,2.908,1.255,3.741,2.512c12.366,18.651,24.679,37.367,39.226,54.408c29.18,34.185,57.781,68.9,90.423,99.975
		c3.769,3.588,7.548,6.323,12.772,6.435c4.155,0.087,6.856,2.167,9.422,5.245c13.823,16.585,27.925,32.939,38.509,51.937
		c3.788,6.8,6.006,14.194,8.75,21.395c2.404,0.641,4.811,1.282,7.215,1.923c-1.547-17.01-9.057-31.737-17.295-46.292
		C934.742,373.344,921.547,358.754,908.066,344.674z"></path>
	<path class="colour3" fill="#d71920" d="M968.345,365.845c-0.093-0.262-0.186-0.524-0.278-0.787c0.149-0.031,0.299-0.063,0.448-0.094
		c0.015-1.536-0.338-3.197,0.134-4.577c4.459-13.054,0.36-25.01-5.802-36.005c-17.227-30.739-24.309-64.403-29.835-98.589
		c-2.225-13.756-4.105-27.59-4.422-41.53c-0.506-22.319,4.014-44.124,7.563-66.004c1.82-11.214,3.165-22.576,8.055-33.057
		c-10.179-2.818-20.296-5.892-30.551-8.404c-26.787-6.563-53.874-12.029-79.57-22.447c-0.026,0.051-0.053,0.101-0.079,0.153
		c-2.229,7.125-6.017,13.525-9.622,19.968c-14.483,25.883-28.089,52.342-47.2,75.313c-3.249,3.906-6.615,7.696-10.073,11.396
		c16.41,20.973,29.937,44.011,46.151,65.086c17.488,22.729,35.978,44.687,53.986,67.016c4.095,5.077,8.104,10.229,11.976,15.477
		c2.032,2.755,4.411,4.451,7.92,4.257c6.07-0.335,10.213,2.598,13.996,7.178c16.849,20.407,36.133,38.946,48.189,63.002
		c8.817,17.592,16.846,35.445,16.188,55.8c0.381,0.087,0.706,0.12,0.985,0.107c3.924-18.253,4.24-36.434,0.741-54.76
		C966.001,377.84,966.321,371.915,968.345,365.845z"></path>
	<path class="colour3" fill="#d71920" d="M727.293,1207.797c-28.055-37.145-53.981-75.766-79.28-114.803c-12.374-19.094-23.102-39.302-36.143-57.907
		c-21.39-30.512-40.348-62.511-59.981-94.102c-12.015-19.331-23.766-38.824-34.279-59.052
		c-11.174-21.502-20.625-43.673-27.056-67.034c-3.838-13.94-3.878-28.65-7.991-42.566c-0.57-1.927-0.459-4.371-2.557-5.491
		c0.007,7.045-0.097,14.089-0.307,21.132c1.378,0.65,1.672,1.973,1.872,3.459c0.763,5.685,1.771,11.342,2.4,17.04
		c1.481,13.414,3.563,26.663,8.315,39.404c7.542,20.222,15.029,40.431,25.722,59.311c5.655,9.985,11.004,20.129,16.777,30.066
		c20.599,35.458,42.694,69.971,64.643,104.584c2.558,4.032,5.374,5.741,10.029,5.413c2.758-0.195,5.581-0.707,7.653,2.785
		c14.651,24.678,30.692,48.481,46.094,72.69c20.968,32.957,44.426,64.133,67.177,95.819c4.089,5.696,8.194,11.38,12.746,17.7
		c1.073-3.921-0.112-6.259-1.763-8.567C736.645,1221.071,732.184,1214.271,727.293,1207.797z"></path>
	<path class="colour3" fill="#d71920" d="M474.323,580.69c3.646,23.114,14.242,43.541,25.22,63.715c5.735,10.541,10.084,21.415,12.908,33.044
		c7.493,30.864,21.578,58.604,41.079,83.521c1.334,1.705,2.654,3.411,3.939,5.134c0.324-7.44,0.654-14.882,0.984-22.323
		c-1.464-2.145-2.966-4.268-4.528-6.354c-18.956-25.313-33.047-53.007-39.25-84.334c-1.083-5.472-3.412-10.564-6.327-15.313
		c-16.042-26.136-29.215-53.489-35.94-83.632c-0.129-0.579,0.524-2.826-1.237-2.131c1.163,9.008,1.954,18.056,2.176,27.167
		C473.855,579.439,474.195,579.882,474.323,580.69z"></path>
	<path class="colour3" fill="#d71920" d="M722.028,978.373c-13.625-19.438-27.951-38.4-41.125-58.136c-19.25-28.839-40.795-55.981-60.89-84.185
		c-12.748-17.892-26.019-35.405-37.908-53.929c-0.885-1.378-1.753-2.767-2.616-4.158c-4.8,0.019-9.601,0.028-14.4,0.053
		c0.283,0.557,0.571,1.11,0.835,1.678c6.572,14.104,15.727,26.52,24.402,39.287c2.913,4.288,5.999,7.062,11.456,6.474
		c4.573-0.491,7.477,1.748,10.151,5.528c22.072,31.192,45.663,61.278,66.96,93.053c15.969,23.825,33.048,46.904,49.547,70.377
		c5.409,7.694,10.547,15.579,16.102,23.81c1.482-3.885-0.001-6.347-1.664-8.82C735.921,999.066,729.18,988.575,722.028,978.373z"></path>
	<path class="colour3" fill="#d71920" d="M698.357,1111.512c-7.861-12.301-16.007-24.441-24.085-36.563c-26.338-39.529-54.043-78.132-79.278-118.423
		c-27.31-43.603-57.29-85.604-79.923-131.991c-9.62-19.717-18.642-39.83-21.845-61.931c-1.941-13.405-6.323-26.137-11.489-38.606
		c-0.709-1.713-1.063-3.767-2.959-4.581c0,0.004,0,0.007,0,0.011c0.257,7.308,0.501,14.615,0.749,21.923
		c0.793,0.608,1.718,1.069,2.068,2.3c2.375,8.36,5.922,16.368,7.142,25.083c2.452,17.509,6.945,34.44,13.339,50.99
		c10.111,26.171,23.743,50.467,38.316,74.267c19.435,31.734,39.283,63.216,58.89,94.846c1.566,2.526,3.234,4.637,6.453,4.242
		c7.079-0.868,10.705,2.945,14.43,8.533c27.991,41.977,56.857,83.378,84.349,125.676c11.462,17.637,24.053,34.354,36.308,51.362
		c0.652,0.907,0.959,2.768,2.897,2.076c-0.279-4.231-0.247-4.253-2.685-7.554C726.182,1153.051,711.819,1132.575,698.357,1111.512z"></path>
	<path class="colour3" fill="#d71920" d="M722.72,1033.628c-24.542-34.502-51.014-67.616-74.021-103.222c-31.913-49.387-67.684-96.13-99.278-145.773
		c-19.209-30.183-34.738-61.61-43.749-96.197c-2.515-9.655-6.328-18.704-10.949-27.505c-7.643-14.557-14.698-29.384-19.293-45.252
		c-0.413-1.422-0.668-2.994-1.826-3.935c0.172,9.141,0.352,18.283,0.848,27.413c1.273,0.906,1.907,2.268,2.411,3.89
		c3,9.675,7.251,18.857,11.928,27.795c6.833,13.06,11.931,26.672,15.432,40.998c6.011,24.593,15.833,47.863,28.672,69.482
		c16.362,27.553,33.892,54.446,52.548,80.554c3.45,4.828,7.461,9.291,9.967,14.723c1.556,3.376,3.994,4.817,7.538,4.307
		c5.894-0.851,9.232,2.024,12.532,6.718c21.611,30.747,41.066,62.954,63.666,93.041c16.996,22.628,34.284,45.069,49.903,68.697
		c5.259,7.954,9.962,16.274,15.181,24.856c1.408-3.627,0.28-6.058-1.155-8.506C736.662,1054.78,730.076,1043.971,722.72,1033.628z"></path>
	<path class="colour3" fill="#d71920" d="M736.808,1114.885c-11.094-20.084-22.882-39.785-36.067-58.544c-15.709-22.351-32.23-44.13-48.37-66.178
		c-21.068-28.781-38.987-59.654-59.049-89.102c-17.498-25.683-34.556-51.647-51.473-77.716
		c-16.83-25.936-30.677-53.433-38.577-83.153c-6.202-23.327-14.633-45.502-24.552-67.307c-0.552-1.214-1.146-2.225-2.166-2.874
		c0.466,7.856,0.863,15.716,1.21,23.578c0.553,0.307,1.073,0.626,1.269,1.085c5.722,13.46,13.041,26.39,15.663,40.95
		c5.951,33.028,19.488,63.129,36.04,91.839c20.97,36.374,44.935,70.903,67.518,106.286c2.152,3.37,4.828,4.401,8.401,4.177
		c4.837-0.306,8.06,1.71,10.62,5.922c18.322,30.154,38.98,58.715,60.229,86.837c19.821,26.229,37.994,53.5,54.232,82.088
		c3.244,5.711,6.711,11.42,11.559,16.681c1.218-3.591-0.218-5.706-1.791-7.753C739.819,1119.511,738.167,1117.346,736.808,1114.885z
		"></path>
</g>
<g>
	<path class="colour2" fill="#262262" d="M963.572,1328.84c-2.462-3.576-4.419-7.507-6.5-11.335c-26.682-49.066-54.889-97.233-85.878-143.712
		c-33.054-49.575-66.756-98.699-98.825-148.948c-32.703-51.243-67.96-100.805-104.968-149.074
		c-24.861-32.426-50.313-64.41-73.807-97.855c-4.702,0.012-9.404,0.033-14.106,0.051c0.863,1.392,1.731,2.78,2.616,4.158
		c11.89,18.523,25.16,36.037,37.908,53.929c20.094,28.203,41.639,55.346,60.89,84.185c13.174,19.735,27.5,38.697,41.125,58.136
		c7.151,10.202,13.893,20.693,20.849,31.031c1.663,2.474,3.146,4.936,1.664,8.82c-5.555-8.23-10.692-16.115-16.102-23.81
		c-16.499-23.473-33.579-46.552-49.547-70.377c-21.297-31.774-44.888-61.86-66.96-93.053c-2.675-3.78-5.579-6.02-10.151-5.528
		c-5.457,0.588-8.543-2.186-11.456-6.474c-8.675-12.768-17.83-25.183-24.402-39.287c-0.264-0.567-0.552-1.121-0.835-1.678
		c-0.516,0.003-1.031,0.003-1.547,0.006c-5.561,0.03-6.51-1.847-6.3-6.72c0.075-1.733,0.152-3.467,0.228-5.2
		c-1.286-1.723-2.605-3.429-3.939-5.134c-19.501-24.917-33.586-52.657-41.079-83.521c-2.823-11.629-7.173-22.504-12.908-33.044
		c-10.978-20.174-21.574-40.601-25.22-63.715c-0.127-0.808-0.467-1.25-0.976-1.506c0.121,4.983,0.078,9.983-0.176,15.007
		c0.209,5.848,0.323,11.7,0.433,17.552c1.158,0.941,1.413,2.512,1.826,3.935c4.595,15.868,11.65,30.695,19.293,45.252
		c4.621,8.801,8.434,17.851,10.949,27.505c9.011,34.587,24.54,66.015,43.749,96.197c31.595,49.644,67.365,96.387,99.278,145.773
		c23.007,35.605,49.479,68.72,74.021,103.222c7.356,10.343,13.942,21.152,20.354,32.083c1.436,2.448,2.563,4.879,1.155,8.506
		c-5.219-8.582-9.922-16.902-15.181-24.856c-15.619-23.628-32.908-46.069-49.903-68.697c-22.599-30.087-42.055-62.294-63.666-93.041
		c-3.299-4.693-6.638-7.568-12.532-6.718c-3.544,0.511-5.982-0.931-7.538-4.307c-2.506-5.432-6.517-9.895-9.967-14.723
		c-18.656-26.107-36.186-53.001-52.548-80.554c-12.838-21.619-22.661-44.89-28.672-69.482c-3.5-14.325-8.599-27.938-15.432-40.998
		c-4.676-8.938-8.927-18.12-11.928-27.795c-0.503-1.623-1.138-2.984-2.411-3.89c0.194,3.564,0.423,7.128,0.74,10.688
		c0.522,6.719,0.963,13.442,1.362,20.167c1.02,0.649,1.613,1.66,2.166,2.874c9.918,21.805,18.35,43.979,24.552,67.307
		c7.9,29.721,21.747,57.218,38.577,83.153c16.917,26.068,33.975,52.033,51.473,77.716c20.063,29.447,37.981,60.32,59.049,89.102
		c16.14,22.048,32.661,43.827,48.37,66.178c13.186,18.759,24.974,38.46,36.067,58.544c1.359,2.461,3.012,4.626,4.696,6.816
		c1.573,2.047,3.009,4.162,1.791,7.753c-4.848-5.261-8.314-10.97-11.559-16.681c-16.238-28.588-34.412-55.859-54.232-82.088
		c-21.249-28.122-41.907-56.683-60.229-86.837c-2.56-4.212-5.782-6.228-10.62-5.922c-3.574,0.225-6.25-0.807-8.401-4.177
		c-22.583-35.383-46.547-69.912-67.518-106.286c-16.552-28.71-30.089-58.811-36.04-91.839c-2.623-14.561-9.941-27.49-15.663-40.95
		c-0.195-0.458-0.716-0.778-1.269-1.085c0.38,8.607,0.71,17.217,1.013,25.827c1.896,0.814,2.25,2.868,2.959,4.581
		c5.166,12.47,9.547,25.201,11.489,38.606c3.204,22.101,12.226,42.214,21.845,61.931c22.633,46.387,52.613,88.389,79.923,131.991
		c25.235,40.291,52.94,78.894,79.278,118.423c8.078,12.121,16.224,24.262,24.085,36.563c13.462,21.063,27.825,41.539,42.677,61.66
		c2.438,3.301,2.405,3.322,2.685,7.554c-1.938,0.691-2.245-1.169-2.897-2.076c-12.255-17.009-24.846-33.726-36.308-51.362
		c-27.492-42.298-56.358-83.699-84.349-125.676c-3.725-5.588-7.351-9.401-14.43-8.533c-3.218,0.395-4.887-1.716-6.453-4.242
		c-19.606-31.63-39.455-63.111-58.89-94.846c-14.574-23.8-28.205-48.096-38.316-74.267c-6.394-16.55-10.887-33.481-13.339-50.99
		c-1.22-8.715-4.767-16.723-7.142-25.083c-0.35-1.23-1.274-1.691-2.068-2.3c0.031,0.911,0.061,1.823,0.092,2.734
		c0.259,7.589,0.378,15.174,0.386,22.757c2.098,1.12,1.987,3.564,2.557,5.491c4.113,13.916,4.153,28.626,7.991,42.566
		c6.432,23.361,15.882,45.532,27.056,67.034c10.513,20.228,22.264,39.721,34.279,59.052c19.634,31.591,38.592,63.59,59.981,94.102
		c13.041,18.605,23.769,38.813,36.143,57.907c25.298,39.037,51.225,77.658,79.28,114.803c4.891,6.475,9.352,13.274,14.07,19.882
		c1.65,2.309,2.836,4.646,1.763,8.567c-4.552-6.32-8.657-12.004-12.746-17.7c-22.751-31.687-46.208-62.862-67.177-95.819
		c-15.402-24.209-31.443-48.013-46.094-72.69c-2.072-3.492-4.895-2.98-7.653-2.785c-4.655,0.328-7.472-1.381-10.029-5.413
		c-21.948-34.613-44.043-69.126-64.643-104.584c-5.772-9.938-11.122-20.081-16.777-30.066c-10.692-18.88-18.18-39.089-25.722-59.311
		c-4.752-12.741-6.834-25.99-8.315-39.404c-0.629-5.698-1.637-11.355-2.4-17.04c-0.199-1.486-0.494-2.809-1.872-3.459
		c-0.366,12.289-1.044,24.576-2.069,36.865c-3.177,38.124-10.017,75.44-19.989,112.383c-8.962,33.2-13.951,67.293-19.452,101.232
		c-2.863,17.663-8.707,34.644-12.419,52.12c-0.04,0.186-0.403,0.301-0.708,0.424c-0.041,0.157-0.084,0.314-0.125,0.472
		c0.616,2.434-0.42,4.67-0.998,6.964c-3.582,21.212-4.097,42.761-7.04,64.042c-0.095,0.686-0.642,1.307-0.977,1.959
		c0.368,8.082-2.365,15.844-2.449,23.879c-0.603,12.974-0.669,25.98-2.366,38.889c-0.025,0.188-0.09,0.529-0.047,0.544
		c0.24,0.084,0.413,0.098,0.541,0.063c0.066-0.286,0.125-0.572,0.213-0.855c0.102,0.468,0.057,0.78-0.213,0.855
		c-0.78,3.354-0.212,6.869-0.797,10.235c-4.942,28.421-2.514,57.216-4.064,85.808c-0.648,11.943,0.581,24.24,0.581,36.384
		c0,2.498,1.049,3.877,2.909,5.267c9.194,6.869,19.883,10.615,30.803,12.691c41.035,7.8,82.476,13.155,123.838,18.846
		c37.883,5.211,75.719,10.762,113.903,13.898c23.938,1.967,47.438-0.221,71.047-2.414c18.943-1.76,37.806-4.381,56.715-6.525
		c22.224-2.519,44.511-4.539,66.675-7.491c31.878-4.245,63.671-9.138,95.501-13.751c6.119-0.887,12.061-2.327,17.855-4.208
		C979.521,1360.34,973.717,1343.568,963.572,1328.84z"></path>
	<path class="colour2" fill="#262262" d="M472.408,554.148c6.726,30.143,19.898,57.496,35.94,83.632c2.915,4.749,5.244,9.841,6.327,15.313
		c6.203,31.327,20.294,59.021,39.25,84.334c1.562,2.086,3.063,4.209,4.528,6.354c0.248-5.569,0.494-11.139,0.737-16.708
		c-4.242-6.274-8.517-12.529-12.868-18.736c-13.404-19.116-24.428-39.871-28.444-63.501c-0.831-4.89-2.899-9.37-5.716-13.58
		c-18.291-27.332-32.644-56.527-41.369-88.351c-0.38-1.387-0.958-2.719-1.445-4.078c-0.029,0.127-0.039,0.25-0.064,0.377
		c0.697,4.263,1.334,8.533,1.887,12.813C472.933,551.323,472.279,553.569,472.408,554.148z"></path>
	<path class="colour2" fill="#262262" d="M900.533,525.327c-2.236-5.908-5.253-8.81-11.501-8.118c-4.048,0.449-6.219-1.351-8.148-5.066
		c-9.035-17.396-19.067-34.227-29.875-50.594c-7.414-11.229-14.688-22.551-22.022-33.833c-9.56-13.611-20.219-26.376-30.318-39.569
		c-14.595-19.065-32.543-35.157-47.286-54.065c-0.697-0.894-1.459-2.226-2.829-1.316c-1.723,1.144-0.598,2.384,0.256,3.482
		c1.458,1.875,2.816,3.848,4.438,5.572c19.256,20.486,37.713,41.647,54.512,64.214c5.182,6.959,11.662,12.977,15.289,21.065
		c1.217,1.556,2.52,3.054,3.637,4.68c15.706,22.843,31.133,45.934,44.28,70.312c30.038,55.693,51.338,114.843,67.226,176
		c0.652,2.509,0.797,5.251,2.961,7.037c0.366-7.174,0.717-14.348,1.069-21.522c-0.311-4.507-1.011-9.045-2.445-13.671
		C926.868,608.345,915.972,566.138,900.533,525.327z"></path>
	<path class="colour2" fill="#262262" d="M944.572,615.429c0.107-2.467,0.216-4.94,0.323-7.412c-0.375-3.558-1.079-7.142-2.355-10.814
		c-5.762-16.579-7.964-34.287-10.286-51.755c-3.502-26.345-7.897-52.274-19.896-76.554c-3.271-6.619-6.875-8.513-13.122-8.871
		c-2.373-0.137-5.045,0.469-6.807-2.452c-6.024-9.985-12.301-19.819-18.479-29.71c-6.985-8.862-13.799-17.866-20.986-26.561
		c-24.226-29.309-51.138-56.149-77.405-83.571c-8.37-8.736-15.568-18.465-24.054-27.068c-1.025-1.04-1.922-3.146-3.714-1.368
		c-1.474,1.463,0.41,2.457,1.195,3.398c4.686,5.624,9.222,11.398,14.225,16.731c19.228,20.499,38.778,40.694,57.891,61.299
		c16.7,18.005,32.783,36.561,46.709,56.864c7.932,9.433,14.207,19.988,20.516,30.502c14.848,24.745,27.008,50.593,32.933,79.099
		c5.761,27.711,12.731,55.143,19.837,82.538c0.629,2.419,1.265,4.773,2.935,6.879C944.211,622.878,944.39,619.153,944.572,615.429z"></path>
	<path class="colour2" fill="#262262" d="M749.274,246.346c7.914,10.128,16.271,19.884,24.638,29.647c15.317,17.875,30.533,35.884,47.202,52.468
		c16.548,16.465,33.375,32.66,49.67,49.383c14.812,15.203,28.128,31.611,38.917,49.967c4.327,4.304,6.112,10.106,8.969,15.27
		c11.531,20.842,19.04,42.96,20.145,66.891c0.82,17.806,1.881,35.581,4.164,53.261c0.41,3.176,0.102,6.581,1.939,10.562
		c0.343-6.095,0.916-12.168,1.682-18.224c-0.009-3.363-0.101-6.676-0.306-10.015c-1.019-16.568,0.008-33.25-0.38-49.87
		c-0.545-23.424-7.937-45.038-18.553-65.681c-3.711-6.075-7.56-12.07-11.085-18.249c-2.645-4.633-6.029-7.628-11.666-7.641
		c-5.039-0.012-8.593-2.346-11.806-6.479c-15.107-19.421-33.26-36.074-50.412-53.581c-12.019-12.268-25.02-23.684-36.451-36.507
		c-18.423-20.665-37.061-41.181-53.891-63.222c-0.93-1.218-1.866-3.873-3.996-2.268
		C745.762,243.786,748.348,245.162,749.274,246.346z"></path>
	<path class="colour2" fill="#262262" d="M789.747,249.142c10.976,12.963,22.094,25.848,33.39,38.56c15.654,17.615,30.847,35.627,47.775,52.046
		c15.938,15.457,31.494,31.214,45.381,48.604c10.676,13.369,20.146,27.388,26.81,43.199c1.123,2.512,2.442,4.957,3.337,7.547
		c7.087,20.557,8.181,41.745,6.485,63.213c-0.619,7.847-1.212,15.696-1.849,23.973c0.226-0.071,0.424-0.146,0.609-0.225
		c0.239-1.122,0.477-2.245,0.724-3.366c0.926-4.196,1.716-8.422,2.551-12.634c0.221-2.634,0.438-5.261,0.709-7.867
		c2.344-22.547,3.298-44.884-1.091-67.241c-2.744-7.201-4.962-14.595-8.75-21.395c-10.584-18.997-24.686-35.352-38.509-51.937
		c-2.565-3.078-5.267-5.158-9.422-5.245c-5.225-0.111-9.004-2.846-12.772-6.435c-32.642-31.075-61.243-65.791-90.423-99.975
		c-14.547-17.041-26.859-35.757-39.226-54.408c-0.833-1.257-1.355-4.049-3.741-2.512c-1.892,1.22-0.173,2.825,0.619,4.059
		C763.923,215.096,775.938,232.832,789.747,249.142z"></path>
	<path class="colour2" fill="#262262" d="M908.066,344.674c13.48,14.081,26.676,28.67,36.432,45.908c8.238,14.555,15.748,29.282,17.295,46.292
		c0.499,3.947,0.997,7.894,1.496,11.84c0.191,0,0.381,0,0.57,0c0.554-3.238,1.107-6.477,1.659-9.715
		c0.658-20.355-7.37-38.208-16.188-55.8c-12.057-24.056-31.341-42.596-48.189-63.002c-3.783-4.58-7.926-7.514-13.996-7.178
		c-3.509,0.194-5.888-1.501-7.92-4.257c-3.872-5.248-7.881-10.4-11.976-15.477c-18.009-22.329-36.498-44.287-53.986-67.016
		c-16.215-21.075-29.741-44.113-46.151-65.086c-0.721,0.772-1.456,1.529-2.187,2.293c24.129,32.184,45.162,66.566,71.582,97.182
		C860.532,288.497,882.549,318.022,908.066,344.674z"></path>
</g>
<g>
	<path fill-rule="evenodd" clip-rule="evenodd" class="colour3" fill="#d71920" d="M974.525,311.454c-1.24-21.158-2.504-42.316-3.498-63.485
		c-2.202-46.884-4.31-93.773-3.716-140.735c0.149-11.774,0.171-12.219-10.982-15.986c-4.459-1.506-6.789-6.751-12.121-6.044
		c-4.89,10.48-6.234,21.842-8.055,33.057c-3.55,21.88-8.069,43.685-7.563,66.004c0.316,13.939,2.197,27.774,4.422,41.53
		c5.526,34.186,12.608,67.85,29.835,98.589c6.162,10.995,10.261,22.951,5.802,36.005c-0.478,1.398-0.108,3.085-0.133,4.639
		c2.061-0.685,2.591-2.472,2.452-4.227c-0.404-5.133,1.795-9.552,3.642-14.034c1.371-3.327,1.833-6.728,2.323-10.251
		C978.129,327.912,975.016,319.824,974.525,311.454z"></path>
	<path fill-rule="evenodd" clip-rule="evenodd" class="colour3" fill="#d71920" d="M479.82,84.478c-5.763,1.58-10.506,5.844-16.596,6.477
		c-5.565,0.579-6.746,3.952-6.717,8.877c0.314,52.46,0.108,104.918-4.261,157.243c-1.711,20.498-2.325,41.114-6.72,61.359
		c-2.515,11.587-3.333,23.308,3.258,34.166c-0.505-10.641,2.224-20.678,6.559-30.167c10.391-22.748,18.636-46.138,24.022-70.614
		c5.953-27.054,11.429-54.115,11.996-81.944c0.345-16.967-2.122-33.704-4.102-50.454C485.863,107.602,485.172,95.508,479.82,84.478z
		"></path>
</g>
<g>
	<path fill-rule="evenodd" clip-rule="evenodd" class="colour2" fill="#262262" d="M1006.303,1187.469c-2.173-21.873-4.098-43.78-6.778-65.594
		c-1.911-15.554-5.186-30.936-7.325-46.467c-3.209-23.294-5.826-46.674-10.488-69.748c-3.992-19.756-8.539-39.418-11.908-59.28
		c-3.865-22.795-6.13-45.864-10.115-68.637c-6.9-39.442-13.432-78.934-14.16-119.042c-0.869-47.745-1.658-95.501-0.955-143.272
		c-1.171,23.905-2.297,47.823-3.523,71.736c-2.52,49.081-4.984,98.151,0.334,147.225c2.537,23.416,3.189,47.104,9.501,69.974
		c7.58,27.46,13.987,55.176,19.444,83.128c4.625,23.689,6.782,47.925,13.801,71.067c12.427,40.971,13.833,83.582,19.734,125.513
		c2.569,18.253,1.483,36.904,4.622,55.167C1009.338,1221.916,1008.014,1204.681,1006.303,1187.469z"></path>
	<path fill-rule="evenodd" clip-rule="evenodd" class="colour2" fill="#262262" d="M945.953,599.03c2.049-17.531,2.994-35.17,5.791-52.637
		c1.981-12.369,4.181-24.788,3.436-37.444c-0.919,4.579-1.764,9.18-2.771,13.745c-5.793,26.272-9.351,52.744-7.27,79.733
		C945.416,601.295,945.817,600.178,945.953,599.03z"></path>
</g>
<g>
	<path class="colour2" fill="#262262" d="M479.619,744.085c-1.073-31.43-1.991-62.873-4.427-94.241c-0.453,24.527-1.902,49.033-1.016,73.588
		c0.751,20.817,0.503,41.653-1.146,62.426c-1.849,23.281-4.843,46.444-8.966,69.429c-5.227,29.137-8.611,58.559-13.761,87.693
		c-3.545,20.053-8.124,39.922-12.155,59.89c-5.891,29.182-8.482,58.864-13.299,88.222c0.312-0.164,0.872-0.286,0.921-0.518
		c3.712-17.477,9.556-34.457,12.419-52.12c5.501-33.939,10.49-68.032,19.452-101.232c9.972-36.942,16.812-74.259,19.989-112.383
		C479.873,797.926,480.539,771.025,479.619,744.085z"></path>
	<path class="colour2" fill="#262262" d="M464.634,525.388c3.378,22.87,6.612,45.752,8.537,68.803c1.405-27.847-3.452-55.014-8.961-82.109
		C464.326,516.521,463.99,521.027,464.634,525.388z"></path>
	<path class="colour2" fill="#262262" d="M415.924,1164.435c0.335-0.652,0.882-1.273,0.977-1.959c2.943-21.281,3.458-42.83,7.04-64.042
		c-2.383,7.417-3.046,15.165-4.006,22.811C418.134,1135.591,415.688,1149.895,415.924,1164.435z"></path>
	<path class="colour2" fill="#262262" d="M411.491,1223.928c1.315-11.832,1.432-23.736,1.984-35.614
		C412.224,1200.149,410.424,1211.963,411.491,1223.928z"></path>
	<path class="colour2" fill="#262262" d="M411.063,1227.746c0.746,0.263,0.904-0.104,0.753-0.793c-0.132-1.01-0.236-2.018-0.325-3.025
		c-0.122,1.092-0.238,2.184-0.381,3.274C411.084,1227.391,411.02,1227.731,411.063,1227.746z"></path>
</g>
<path fill-rule="evenodd" clip-rule="evenodd" class="colour3" fill="#d71920" d="M820.066,46.148c-4.81-5.38-11.389-6.505-18.217-6.616
	c-32.979-0.537-65.959-1.448-98.938-1.45c-21.982-0.002-43.963,1.708-65.946-0.167c-2.337-0.199-4.831,0.525-7.046-0.017
	c-16.897-4.14-28.766,6.17-41.464,14.153c1.031,2.539,1.896,5.161,3.123,7.602c7.859,15.636,16.829,30.65,25.807,45.654
	c17.017,28.435,35.851,55.449,60.302,78.191c9.046,8.414,18.937,15.261,30.466,19.725c1.667,0.646,3.023,1.056,4.958,0.196
	c8.111-3.602,16.092-7.414,22.944-13.136c14.813-12.37,28.773-25.643,41.13-40.496c19.111-22.972,32.717-49.43,47.2-75.313
	c3.633-6.493,7.456-12.939,9.677-20.13C830.307,50.084,823.908,50.446,820.066,46.148z"></path>
<path class="colour4" fill="#BCBEC0" d="M849.712,492.763c-14.942,0.979-29.868,0.736-44.828,0.298c-49.951-1.46-99.933,0.165-149.897-1.701
	c-29.081-1.086-58.237,0.395-87.326-1.451c-8.424-0.535-9.742,0.778-8.65,9.143c2.495,19.118,3.662,38.358,4.259,57.595
	c0.979,31.476-0.491,62.954-1.294,94.414c-1.023,40.096-3.007,80.168-4.734,120.244c-0.21,4.873,0.739,6.75,6.3,6.72
	c47.616-0.255,95.234-0.146,142.851-0.146c47.618,0,95.236-0.048,142.854,0.08c4.343,0.013,6.168-0.693,6.078-5.711
	c-0.688-37.958-0.718-75.931-1.628-113.883c-0.751-31.256-1.786-62.505-1.353-93.769c0.296-21.244,2.078-42.407,4.9-63.475
	C858.284,493.363,857.36,492.261,849.712,492.763z"></path>
</svg>