<svg version="1.1" id="Layer_1___QRmL9K5r" xmlns="http://www.w3.org/2000/svg" xmlns:xlink="http://www.w3.org/1999/xlink" x="0px" y="0px" width="1417.32px" height="1417.32px" viewBox="0 0 1417.32 1417.32" enable-background="new 0 0 1417.32 1417.32" xml:space="preserve">
<g>
	<path fill-rule="evenodd" clip-rule="evenodd" class="colour1" fill="#009FDA" d="M1067.447,536.61c-5.111,19.498-10.743,38.907-12.394,59.106
		c-1.848,22.621-7.757,44.427-12.551,66.481c-5.207,23.956-12.969,47.491-15.245,71.923c-3.182,34.149-12.26,67.613-10.638,102.379
		c0.604,12.954-2.989,26.078-4.365,39.155c-1.644,15.625-3.279,31.263-4.338,46.934c-1.178,17.452-3.806,34.754-5.032,52.181
		c-1.749,24.84,4.199,48.815,8.778,72.956c6.479,34.168,11.819,68.504,14.899,103.188c2.945,33.151,2.787,66.39,3.842,99.596
		c0.505,15.908,0.88,31.855,3.145,47.636c1.203,8.376-2.417,14.184-8.787,18.516c-31.185,21.204-63.673,39.399-101.499,46.326
		c-46.354,8.489-92.769,16.515-139.814,19.893c-45.558,3.271-91.241,3.868-136.846,2.205
		c-61.547-2.245-122.439-10.283-181.885-26.924c-23.978-6.711-44.22-20.953-64.018-35.602c-1.737-1.285-3.355-2.731-5.022-4.11
		c-7.173-5.943-11.236-12.54-9.826-22.875c2.711-19.869,2.592-39.985,2.966-60.052c0.717-38.52,1.328-77.059,5.764-115.408
		c3.341-28.883,8.893-57.374,14.708-85.82c5.324-26.042,5.834-52.213,3.345-78.611c-1.752-18.581-2.685-37.241-3.866-55.874
		c-1.38-21.773-4.636-43.354-6.568-65.068c-0.487-5.474-0.772-11.006-0.577-16.49c0.569-16.018-0.967-31.729-4.881-47.314
		c-4.557-18.146-3.253-37.166-7.705-55.374c-5.311-21.726-10.436-43.497-15.788-65.212c-6.17-25.033-8.768-50.667-13.11-76.006
		c-1.944-11.344-2.455-23.016-6.96-33.84c-1.758-6.622-3.144-13.373-5.348-19.846c-4.988-14.655-9.532-29.411-11.205-44.854
		c-3.215-29.679,0.272-59.018,7.848-87.529c14.713-55.371,43.15-103.029,84.759-142.646c2.418-2.303,4.989-4.544,6.952-7.209
		c13.603-18.462,29.917-34.216,47.175-49.234c18.072-15.726,34.529-33.249,53.083-48.497c13.083-10.752,27.91-19.042,41.15-29.451
		c14.022-11.024,27.011-23.364,40.447-35.125c1.634-0.616,3.241-1.658,4.917-1.785c11.144-0.84,22.325-1.773,33.482-0.75
		c35.625,3.264,71.27,3.309,106.991,1.921c11.813-0.459,23.842-1.473,35.572,1.658c2.896,2.305,5.88,4.51,8.674,6.933
		c14.517,12.588,26.796,27.72,43.596,37.728c10.477,6.241,20.1,13.75,29.613,21.374c16.741,13.418,31.759,28.733,47.513,43.237
		c10.842,9.982,23.112,18.476,32.854,29.543c13.101,14.879,26.35,29.438,40.689,43.255c20.883,20.124,35.665,45.27,49.867,70.505
		c16.88,29.995,26.725,62.238,31.217,96.262c3.063,23.21,2.854,46.105-4.7,68.6C1073.715,508.325,1070.354,522.417,1067.447,536.61z
		"></path>
	<path fill-rule="evenodd" clip-rule="evenodd" class="colour1" fill="#009FDA" d="M618.046,76.108c-13.44,11.765-26.428,24.104-40.451,35.128
		c-13.24,10.409-28.067,18.699-41.15,29.451c-18.554,15.248-35.011,32.771-53.083,48.497
		c-17.258,15.018-33.572,30.772-47.175,49.234c-1.963,2.665-4.534,4.907-6.952,7.209c-41.609,39.616-70.045,87.275-84.759,142.646
		c-7.576,28.511-11.063,57.85-7.848,87.529c1.673,15.443,6.217,30.198,11.205,44.854c2.204,6.473,3.59,13.224,5.348,19.846
		c-7.872,15.742-8.657,33.154-11.777,50.018c-1.789,9.669-5.275,18.832-8.683,27.992c-1.5,4.033-4.252,6.434-9.283,6.656
		c-14.957,0.659-29.263-2.803-43.382-6.67c-42.627-11.675-82.649-29.344-119.351-54.128c-6.978-4.712-13.556-10.085-19.521-16.118
		c-3.171-3.207-3.425-6.409-1.342-10.569c9.37-18.716,19.356-37.202,23.789-57.959c3.283-15.369,4.198-31.06,6.468-46.563
		c7.723-52.749,15.839-105.172,42.147-153.075c17.9-32.593,41.277-58.555,74.831-74.883c28.674-13.953,56.053-30.691,87.176-39.352
		c21.858-6.083,43.367-13.386,64.648-21.274c32.899-12.194,64.986-26.302,96.659-41.389c10.754-5.122,22.201-8.791,32.031-15.818
		c2.038-1.456,4.463-2.448,7.121-2.411c0.55-0.334,1.1-0.669,1.65-1.003c0.174-0.305,0.408-0.36,0.701-0.167
		c7.137,0.143,13.81-2.036,20.517-4.067C604.255,77.696,610.913,75.546,618.046,76.108z"></path>
	<path fill-rule="evenodd" clip-rule="evenodd" class="colour1" fill="#009FDA" d="M1067.447,536.61c2.907-14.193,6.268-28.285,10.88-42.018
		c7.555-22.495,7.764-45.39,4.7-68.6c-4.492-34.024-14.337-66.267-31.217-96.262c-14.202-25.235-28.984-50.382-49.867-70.505
		c-14.34-13.818-27.589-28.376-40.689-43.255c-9.741-11.067-22.012-19.561-32.854-29.543
		c-15.754-14.503-30.771-29.819-47.513-43.237c-9.514-7.624-19.137-15.133-29.613-21.374c-16.8-10.008-29.079-25.139-43.596-37.728
		c-2.794-2.423-5.778-4.628-8.663-6.929c15.631,2.382,31.021,5.904,46.433,9.313c28.114,12.742,56.081,25.818,84.375,38.145
		c38.838,16.921,78.621,31.243,119.62,42.146c17.183,4.569,32.197,14.323,48.194,21.724c6.228,2.881,12.375,5.938,18.646,8.72
		c45.635,20.253,77.014,54.347,97.646,99.315c17.506,38.151,26.756,78.471,33.475,119.604c4.047,24.774,5.8,49.913,11.605,74.395
		c3.975,16.757,12.639,31.613,19.939,46.998c3.587,7.557,3.432,8.156-3.585,13.33c-16.436,12.121-35.082,19.988-53.664,27.892
		c-33.609,14.296-68.763,24.021-103.673,34.472c-9.104,2.725-18.086,4.953-27.697,4.636c-4.514-0.149-7.289-1.666-9.098-5.721
		c-4.429-9.932-7.339-20.291-8.677-31.048C1070.713,566.275,1069.137,551.436,1067.447,536.61z"></path>
	<path fill-rule="evenodd" clip-rule="evenodd" class="colour2" fill="#262262" d="M845.448,86.472c-15.411-3.409-30.802-6.931-46.433-9.313
		c-11.741-3.135-23.771-2.121-35.583-1.662c-35.721,1.388-71.366,1.343-106.991-1.921c-11.158-1.022-22.339-0.089-33.482,0.75
		c-1.675,0.126-3.282,1.169-4.917,1.785c-7.13-0.565-13.788,1.584-20.463,3.606c-6.707,2.032-13.38,4.21-20.517,4.067
		c13.854-18.397,34.385-25.709,55.2-31.121c18.388-4.78,37.644-5.401,56.717-5.93c31.464-0.871,62.854,0.114,93.731,6.532
		c20.576,4.277,40.797,10.099,55.337,27.181C840.075,82.829,842.961,84.482,845.448,86.472z"></path>
</g>
<g>
	<g>
		<path fill-rule="evenodd" clip-rule="evenodd" class="colour2" fill="#262262" d="M1276.207,531.974c-10.272-20.395-19.256-41.135-21.603-64.243
			c-1.146-11.279-2.184-22.626-5.027-33.676c-5.61,11.981-15.468,20.362-24.817,29.241c7.358-13.932,20.574-24.459,23.47-40.891
			c-1.936-16.301-4.767-32.438-9.246-48.26c-2.437,18.545-14.434,30.9-27.597,42.445c-15.744,13.81-30.619,28.676-48.38,40.05
			c-2.397,1.535-4.819,3.03-6.739,5.24c30.497-15.959,59.504-34.022,83.544-59.707c0.937,2.203-0.326,4.077-1.358,6.063
			c-5.752,11.061-14.877,19.147-23.914,27.334c-27.331,24.765-58.068,43.568-93.77,53.718c-6.835,1.944-13.746,3.378-20.9,3.28
			c-0.393-0.005-0.804-0.061-1.177,0.028c-6.753,1.604-13.368,3.874-20.396,4.12c-4.231,7.252-4.337,15.762-7.166,23.467
			c-4.538,12.36-2.75,24.947-1.125,37.63c2.034,15.891,2.704,32.024,8.467,47.173c1.863,4.898,2.147,11.947,9.387,12.565
			c7.21,0.616,14.497,0.487,21.604-1.706c16.282-5.024,32.63-9.837,48.923-14.823c38.657-11.83,76.798-24.894,111.381-46.506
			C1283.17,546.141,1283.35,546.155,1276.207,531.974z"></path>
		<path fill-rule="evenodd" clip-rule="evenodd" class="colour2" fill="#262262" d="M1131.864,342.246c-0.063-1.17,0.473-1.792,1.663-1.813
			c0.379-0.203,0.758-0.405,1.138-0.608c0.147-0.443,0.296-0.888,0.444-1.332c2.358-3.48,4.716-6.96,7.074-10.439
			c-0.066,4.927-1.711,8.998-5.334,12.116c-0.313,0.267-0.625,0.533-0.934,0.802c-5.863,9.551-12.957,18.178-19.91,26.938
			c-6.087,7.67-14.026,13.446-20.297,20.881c0.745,0.359,1.491,0.719,2.232,1.082c9.299-8.141,18.382-16.557,27.953-24.374
			c22.489-18.367,39.095-41.493,54.242-65.861c1.916-3.1,3.831-6.199,5.747-9.299c0.625,3.588,0.688,6.955-2.506,9.383
			c-11.003,27.09-22.407,54.008-41.408,76.731c-12.011,14.364-25.661,27.151-40.454,38.616c-6.412,4.97-11.609,11.081-17.474,16.549
			c0.518,13.815,1.778,27.631-0.045,41.445c13.792-9.25,23.388-23.939,40.616-28.986c13.454-3.94,23.418-14.558,34.395-22.897
			c17.329-13.167,33.471-27.786,49.157-42.883c1.184-1.597,2.367-3.192,4.383-5.912c-0.275,3.443-1.016,5.038-2.344,6.4
			c-5.672,9.034-12.935,16.696-20.331,24.325c-20.215,20.851-41.927,39.765-67.363,54.092c-6.643,3.741-13.913,5.958-20.96,8.788
			c5.716,0.522,10.88-1.281,15.813-3.565c23.501-10.88,44.951-25.025,64.998-41.344c7.776-6.331,15.307-12.969,23.182-19.17
			c7.61-5.993,13.774-13.414,20.618-20.154c5-4.923,7.633-11.369,9.442-18.106c0.154-0.697,0.555-1.445,0.425-2.083
			c-3.087-14.997-7.669-29.548-13.159-43.825c-1.076,21.952-11.832,39.736-25.354,55.83c-13.387,15.933-27.149,31.616-42.294,45.98
			c-9.275,8.798-19.047,16.922-30.632,22.58c-1.355,0.662-2.821,1.1-4.706,0.846c5.189-3.803,10.569-7.372,15.534-11.45
			c18.819-15.461,33.502-34.745,48.858-53.396c13.219-16.054,24.169-33.379,30.345-53.457c1.862-6.054,3.398-12.097,3.238-18.472
			c-7.728-18.672-16.142-36.959-29.586-52.407c-0.952,0.573-1.356,1.516-1.157,2.502c1.992,9.802-4.491,15.92-9.753,22.559
			c-5.35,6.75-10.765,13.448-16.104,20.208c-1.301,1.647-2.421,3.435-5.498,4.468c1.938-6.947,6.666-11.294,9.828-16.502
			c5.363-8.832,12.715-16.362,16.354-26.372c1.547-4.254,1.688-8.371,1.714-12.662c-3.712-4.755-7.7-9.237-12.564-13
			c-1.753,2.297-0.997,5.644-3.681,7.217c-3.377,8.948-11.01,14.618-16.745,21.751c-8.102,10.077-18.325,18.05-27.145,27.369
			c-8.237,8.706-16.639,17.09-26.22,24.277c-0.449,0.337-1.029,0.5-2.066,0.315c18.02-20.15,38.646-38.255,50.433-63.288
			c-28.367,29.731-64.181,47.784-100.26,65.434c2.419,4.483,4.76,9.008,7.27,13.437c10.009,17.66,17.004,36.568,23.232,55.798
			C1095.522,373.48,1115.753,360.421,1131.864,342.246z"></path>
	</g>
	<g>
		<path fill-rule="evenodd" clip-rule="evenodd" class="colour3" fill="#d71920" d="M516.529,1138.015c3.444-0.964,4.785,1.073,6.411,2.313
			c2.309,1.758,4.459,3.724,6.787,5.453c12.617,9.375,25.976,17.629,39.268,25.99c12.942,8.141,25.874,16.285,39.563,23.144
			c0.209-0.591,0.418-1.182,0.638-1.77c-13.119-9.831-27.016-18.531-39.851-28.873c-21.019-16.936-41.376-34.323-57.602-56.114
			c-7.047-9.464-12.711-19.854-19.604-29.352c-7.541-10.39-13.206-21.679-18.947-33.006c-1.309-2.106-2.619-4.212-3.928-6.318
			c2.757,1.394,4.966,3.146,5.446,6.256c11.353,14.024,23.562,27.299,35.956,40.408c0.735-0.159,1.469-0.318,2.211-0.474
			c-9.651-11.346-17.496-24.014-25.664-36.387c-18.96-28.72-31.918-60.434-44.341-92.347c-6.869-17.646-10.473-36.244-15.746-54.351
			c-15.727-54.006-21.904-109.858-32.505-164.845c-3.905-20.26-6.845-40.655-13.619-60.235c-1.035,1.942-0.221,3.767,0.198,5.696
			c3.452,15.876,8.378,31.439,10.333,47.63c1.525,12.634,2.623,25.321,4.293,37.935c1.282,9.691,5.957,18.959,5.627,28.734
			c-1.1,32.538,4.454,64.509,7.028,96.735c2.294,28.73,5.017,57.477,4.935,86.362c-0.005,1.905-0.424,3.98,1.129,5.608
			c0.313,0.471,0.842,0.914,0.908,1.417c2.08,15.961,4.779,31.876,6.022,47.903c2.787,35.952,12.106,69.014,35.657,97.61
			c11.745,14.261,24.538,26.997,39.125,38.039c3.89,2.945,7.21,7.132,12.696,8.102c-8.95-10.923-17.847-21.588-26.521-32.432
			c-5.993-7.491-11.735-15.193-15.081-24.349c-0.347-0.296-0.694-0.59-1.042-0.885c-3.947-4.619-5.694-10.426-8.496-15.681
			c3.679,4.562,7.195,9.209,9.6,14.586c0.17,0.445,0.341,0.892,0.512,1.337c10.267,13.066,19.646,26.783,32.271,37.971
			c17.452,15.464,33.837,32.128,53.628,44.81c38.379,24.595,79.145,44.281,121.972,59.772c3.136,1.134,6.362,2.021,9.565,2.961
			c2.997,0.879,5.92,2.235,10.664,1.978C629.992,1232.747,567.454,1193.783,516.529,1138.015z M514.28,1134.924
			c-0.286-0.154-0.574-0.311-0.864-0.468c0.125-0.116,0.284-0.353,0.37-0.329c0.299,0.085,0.571,0.259,0.854,0.398
			C514.524,1134.653,514.408,1134.781,514.28,1134.924z"></path>
		<path fill-rule="evenodd" clip-rule="evenodd" class="colour3" fill="#d71920" d="M613.009,1050.025c0.042,0.026,0.081,0.056,0.122,0.082
			c-0.013-0.054-0.036-0.1-0.047-0.155L613.009,1050.025z"></path>
		<path fill-rule="evenodd" clip-rule="evenodd" class="colour3" fill="#d71920" d="M706.295,1151.628c0.103,0.045,0.204,0.096,0.307,0.142
			c-0.084-0.066-0.168-0.132-0.253-0.197L706.295,1151.628z"></path>
		<path fill-rule="evenodd" clip-rule="evenodd" class="colour3" fill="#d71920" d="M1029.851,1229.934c0.259-18.458-0.799-36.871-1.729-55.291
			c-6.987,1.958-13.871,4.185-21.258,4.514c-23.251,1.04-46.483,0.464-69.732-0.094c-22.315-0.535-44.255-3.746-65.877-8.813
			c-14.172-3.321-28.584-6.166-41.632-13.413c-4.501-2.501-9.302-5.07-14.755-5.589c10.08,8.198,21.435,14.225,32.924,20.02
			c18.913,9.538,39.313,14.761,59.565,20.386c18.632,5.176,37.624,8.625,56.679,11.854c9.447,1.6,18.715,4.266,28.952,6.658
			c-1.229,0.516-1.416,0.669-1.592,0.657c-33.804-2.146-67.358-6.128-100.497-13.34c-27.351-5.953-53.877-14.362-79.372-25.946
			c-34.724-15.777-68.462-33.514-101.791-51.997c-24.736-13.719-47.8-30.032-70.289-47.197c-9.163-6.993-16.617-15.93-26.315-22.233
			c0.667,2.833,3.141,4.273,4.927,6.225c9.671,10.564,20.109,20.289,30.979,29.648c13.999,12.053,27.782,24.365,43.063,34.765
			c18.81,12.801,38.022,25.004,57.111,37.386c19.646,12.743,40.148,23.89,60.492,35.326c21.503,12.086,44.987,19.502,68.549,26.488
			c6.674,1.979,13.421,3.71,20.136,5.556c-1.038,1.169-1.811,1.247-2.56,1.158c-55.987-6.657-107.248-26.41-155.103-55.751
			c-11.115-6.814-22.145-13.843-34.125-19.139c28.249,22.023,56.529,43.891,88.992,59.769
			c23.066,11.281,47.241,19.489,71.608,26.938c22.067,6.748,44.896,10.967,67.256,16.806c31.904,8.331,64.192,14.895,96.428,21.719
			C1031.883,1261.282,1029.629,1245.634,1029.851,1229.934z"></path>
		<path fill-rule="evenodd" clip-rule="evenodd" class="colour3" fill="#d71920" d="M847.243,1079.844c33.208,22.456,70.493,36.372,107.614,50.345
			c22.736,8.559,46.231,15.338,71.141,13.474c-0.3-3.077-0.568-6.156-0.903-9.23c-1.741-16.021-3.646-32.022-6.662-47.868
			c-1.281,4.818-5.2,6.869-9.367,8.063c-8.501,2.437-17.139,4.357-26.074,4.369c-14.53,0.021-28.919-0.81-42.522-6.754
			c18.803,13.775,41.619,16.515,62.576,22.223c-5.17,0-10.883,0.426-16.513-0.081c-15.989-1.44-31.541-5.406-47.27-8.427
			c-33.545-6.442-66.286-15.031-97.134-30l0.012,0.02C843.839,1077.27,845.478,1078.65,847.243,1079.844z"></path>
	</g>
	<g>
		<path fill-rule="evenodd" clip-rule="evenodd" class="colour3" fill="#d71920" d="M1239.812,402.173c-24.04,25.685-53.047,43.748-83.544,59.707
			c1.92-2.21,4.342-3.705,6.739-5.24c17.761-11.375,32.636-26.241,48.38-40.05c13.163-11.545,25.16-23.9,27.597-42.443
			c-0.14-3.816-0.82-7.459-3.38-10.498c-1.81,6.737-4.442,13.183-9.442,18.106c-6.844,6.74-13.008,14.162-20.618,20.154
			c-7.875,6.201-15.405,12.84-23.182,19.17c-20.047,16.319-41.497,30.464-64.998,41.344c-4.934,2.284-10.098,4.087-15.813,3.565
			c7.047-2.83,14.317-5.046,20.96-8.788c25.437-14.327,47.148-33.241,67.363-54.092c7.396-7.629,14.659-15.292,20.331-24.325
			c-0.682-0.16-1.364-0.321-2.042-0.484c-15.684,15.094-31.825,29.712-49.154,42.879c-10.977,8.339-20.94,18.957-34.395,22.897
			c-17.229,5.046-26.824,19.736-40.613,28.98c-1.9,7.883-3.802,15.772-5.703,23.66c7.027-0.246,13.643-2.516,20.396-4.12
			c0.373-0.089,0.784-0.033,1.177-0.028c7.154,0.098,14.065-1.336,20.9-3.28c35.701-10.15,66.438-28.953,93.77-53.718
			c9.037-8.188,18.162-16.273,23.914-27.334C1239.485,406.25,1240.748,404.376,1239.812,402.173z"></path>
		<path fill-rule="evenodd" clip-rule="evenodd" class="colour3" fill="#d71920" d="M1101.516,415.068c14.793-11.465,28.443-24.251,40.454-38.616
			c19.001-22.724,30.405-49.641,41.408-76.731c-1.081-0.025-2.165-0.05-3.244-0.08c-15.145,24.363-31.75,47.489-54.239,65.856
			c-9.571,7.817-18.654,16.233-27.959,24.377c-3.228,3.443-7.145,5.926-11.277,8.108c-0.008,0.021-0.017,0.04-0.023,0.061
			l-0.299,0.24l0.269-0.271c0.018-0.009,0.035-0.02,0.054-0.029c1.517-4.54,5.862-6.305,9.054-9.196
			c6.268-7.432,14.207-13.208,20.294-20.878c6.953-8.76,14.047-17.387,19.916-26.936c-0.001-0.001-0.002-0.002-0.004-0.003
			c0.309-0.268,0.62-0.534,0.932-0.8c-0.58-0.559-1.16-1.118-1.74-1.676c-0.148,0.444-0.297,0.888-0.444,1.332
			c-0.38,0.203-0.759,0.405-1.138,0.608c0.138,1.244-0.466,1.809-1.666,1.818c-16.108,18.17-36.339,31.229-55.951,45.055
			c2.711,14.77,5.422,29.541,8.132,44.311C1089.906,426.149,1095.104,420.038,1101.516,415.068z"></path>
	</g>
	<g>
		<path fill-rule="evenodd" clip-rule="evenodd" class="colour2" fill="#262262" d="M783.065,1009.784c-0.001,0.023,0.004,0.04,0.004,0.063
			c0.019-0.004,0.035-0.005,0.054-0.009C783.123,1009.838,783.064,1009.784,783.065,1009.784z"></path>
		<path fill-rule="evenodd" clip-rule="evenodd" class="colour2" fill="#262262" d="M863.369,1046.563c-0.007-0.018-0.017-0.031-0.024-0.048
			c-0.02,0.002-0.038,0.002-0.058,0.005L863.369,1046.563z"></path>
		<path fill-rule="evenodd" clip-rule="evenodd" class="colour2" fill="#262262" d="M779.503,1007.453c0.014,0.013,0.028,0.026,0.042,0.039
			c0.002,0,0.004,0,0.007,0L779.503,1007.453z"></path>
		<path fill-rule="evenodd" clip-rule="evenodd" class="colour2" fill="#262262" d="M1030.886,1277.001c-32.235-6.824-64.523-13.388-96.428-21.719
			c-22.36-5.839-45.188-10.058-67.256-16.806c-24.367-7.449-48.542-15.657-71.608-26.938
			c-32.463-15.878-60.743-37.745-88.991-59.769c-0.104-0.045-0.205-0.096-0.308-0.142c-0.309-0.383-0.617-0.767-0.925-1.149
			c0.326,0.364,0.653,0.729,0.979,1.094c0.084,0.066,0.169,0.132,0.254,0.197c11.98,5.297,23.009,12.324,34.124,19.139
			c47.854,29.341,99.115,49.094,155.103,55.751c0.749,0.089,1.521,0.011,2.56-1.158c-6.715-1.846-13.462-3.577-20.136-5.556
			c-23.562-6.986-47.046-14.402-68.549-26.488c-20.344-11.437-40.847-22.583-60.492-35.326
			c-19.089-12.382-38.302-24.585-57.111-37.386c-15.282-10.399-29.065-22.712-43.063-34.765
			c-10.87-9.359-21.308-19.084-30.979-29.648c-1.786-1.951-4.26-3.391-4.926-6.224c-0.042-0.027-0.082-0.056-0.124-0.083
			c-0.411-0.408-0.819-0.817-1.229-1.226l-0.149-0.186c0,0,0.223,0.11,0.223,0.111c0.411,0.41,0.821,0.818,1.232,1.227
			c0.011,0.056,0.034,0.102,0.047,0.156c9.699,6.304,17.152,15.24,26.315,22.232c22.489,17.165,45.553,33.479,70.289,47.197
			c33.329,18.483,67.067,36.22,101.791,51.997c25.495,11.584,52.021,19.993,79.372,25.946c33.139,7.212,66.693,11.193,100.497,13.34
			c0.176,0.012,0.362-0.142,1.592-0.657c-10.237-2.393-19.505-5.059-28.952-6.658c-19.055-3.229-38.047-6.678-56.679-11.854
			c-20.252-5.625-40.652-10.848-59.565-20.386c-11.489-5.795-22.844-11.821-32.924-20.02c5.453,0.519,10.254,3.088,14.755,5.589
			c13.048,7.247,27.46,10.092,41.632,13.413c21.622,5.067,43.562,8.278,65.877,8.813c23.249,0.558,46.481,1.134,69.732,0.094
			c7.387-0.329,14.271-2.556,21.258-4.514c-0.708-10.327-1.416-20.653-2.123-30.98c-24.909,1.864-48.404-4.915-71.141-13.474
			c-37.121-13.973-74.406-27.889-107.614-50.345c-1.766-1.193-3.404-2.574-5.103-3.868l-0.164-0.146c0,0,0.152,0.132,0.152,0.129
			c30.848,14.967,63.589,23.556,97.134,29.998c15.729,3.021,31.28,6.986,47.27,8.427c5.63,0.507,11.343,0.081,16.513,0.081
			c-20.957-5.708-43.773-8.447-62.576-22.223c13.604,5.944,27.992,6.774,42.522,6.754c8.936-0.012,17.573-1.933,26.074-4.369
			c4.167-1.193,8.086-3.244,9.367-8.063c-0.704-6.034-1.075-12.129-2.171-18.092c-3.677-20.015-7.611-39.982-11.447-59.968
			c-2.807,6.509-6.731,11.969-13.685,14.587c-0.728,0.454-1.454,0.907-2.18,1.361c-0.86,2.091-2.825,2.609-4.688,3.178
			c-10.922,3.336-21.848,2.324-33.046,1.12c-8.874-0.955-17.688-2.17-26.506-3.466c-7.522-1.105-14.891-2.975-23.127-5.375
			c6.254,5.849,23.137,10.919,40.808,15.011c13.804,3.195,27.655,6.021,41.486,8.806c-84.933-3.704-160.345-33.49-228.27-83.708
			c-1.588-0.617-3.224-1.186-3.299-3.295c-4.646-1.572-8.756-3.947-11.825-7.889c-13.652-8.771-26.262-18.931-38.54-29.475
			c-8.853-7.601-18.581-14.334-25.052-24.481c-1.352-2.118-3.074-4.602-5.937-5.743c-0.603,2.684,1.03,4.065,2.008,5.684
			c11.413,18.864,26.688,34.455,42.734,49.236c12.823,11.812,26.007,23.236,39.459,34.39c20.597,17.078,42.549,32.094,65.137,46.207
			c11.087,6.928,23.142,12.306,34.759,18.385c1.457,0.448,2.914,0.897,4.37,1.345c0.539,0.318,1.079,0.637,1.617,0.955l-0.084-0.056
			c1.039-0.044,1.938,0.173,2.39,1.235c3.575-0.466,6.296,1.773,9.364,2.942c18.744,7.146,38.017,12.26,57.906,15.004
			c1.902,0.263,3.759,0.859,5.548,1.727c-23.39-1.021-45.993-5.888-67.91-14.134c-25.77-8.389-50.661-18.665-73.163-34.069
			l-0.112-0.073c-3.777-0.104-5.644-2.793-7.477-5.529c-0.494-0.108-0.988-0.217-1.481-0.326c-1.695,0.189-2.965-0.176-2.95-2.21
			c-1.128,0.232-1.976-0.068-2.359-1.266l0.07,0.063c-0.412-0.384-0.823-0.768-1.235-1.151c-1.284,0.015-2.328-0.187-1.681-1.896
			c0.002-0.002-0.074-0.083-0.074-0.083c-6.296-1.028-10.987-5.204-16.075-8.465c-20.505-13.143-39.706-28.12-59.023-42.898
			c-22.537-17.241-42.422-37.218-60.417-59.206c-17.152-20.959-34.53-41.715-49.539-64.304
			c-11.063-16.649-22.09-33.318-31.209-51.17c-9.475-18.549-19.642-36.753-27.385-56.145c-1.013-2.537-2.459-4.936-2.477-7.788
			c0.035-0.403-0.104-0.734-0.417-0.992c-0.846-0.397-1.074-1.092-0.941-1.957c-9.161-25.169-20.147-49.716-26.02-76.012
			c-0.163-0.25-0.354-0.488-0.468-0.758c-0.03-0.071,0.179-0.242,0.279-0.368c-0.35-1.186-0.698-2.372-1.048-3.559
			c-0.987-0.592-1.074-1.414-0.608-2.377c-0.606-1.939-1.212-3.88-1.818-5.821c-0.244-0.263-0.519-0.507-0.708-0.804
			c-0.051-0.08,0.158-0.326,0.248-0.495c-0.165-0.437-0.331-0.875-0.497-1.313c-0.723,0.514-1.447,1.028-2.17,1.541
			c0.534,1.786,1.07,3.573,1.605,5.359c0.733,0.816,0.763,1.729,0.375,2.701c0.44,2.404,0.879,4.809,1.32,7.214
			c0.821,0.6,1.018,1.343,0.511,2.245c1.241,5.648,2.483,11.298,3.725,16.948c4.678,17.576,9.362,35.149,12.728,53.033
			c0.256,0.511,0.514,1.027,0.772,1.544c0.826,0.105,1.11,0.38,0.311,0.987c-0.125,1.892,0.511,3.551,1.608,5.063l0.332,0.29
			c0,0-0.162,0.442-0.163,0.434c-0.053,2.179,0.641,4.184,1.515,6.145c2.631,4.932,3.315,10.424,4.523,15.75
			c0.426,1.416,0.854,2.848,1.283,4.277c2.124,2.843,2.486,6.234,2.984,9.572c0.269,0.857,0.543,1.726,0.817,2.594
			c2.611,3.433,3.089,7.566,3.81,11.608c0.354,0.786,0.715,1.582,1.075,2.378l0.274,0.029c0,0-0.176,0.211-0.178,0.207
			c0.492,1.126,0.986,2.256,1.479,3.385l0.307,0.222c0,0-0.114,0.389-0.116,0.382c0.561,3.078,1.483,6.023,3.354,8.599
			c0,0,0.05,0.11,0.049,0.108c0.516,2.153,1.034,4.309,1.551,6.465c5.833,7.574,7.996,16.836,11.677,25.399
			c11.994,26.346,26.908,51.036,42.418,75.415c13.803,21.698,28.046,43.063,43.313,63.777c14.148,19.194,31.567,35.071,48.834,51.26
			c14.776,13.854,30.356,26.724,46.048,39.428c14.778,11.963,30.299,23.066,45.962,33.868c34.628,23.88,72.271,41.71,111.912,55.746
			c14.983,5.305,30.493,8.155,45.607,12.706c16.269,4.9,32.818,8.856,49.229,13.286c5.374,1.451,11.06,1.856,15.998,5.236
			c-6.802-0.605-13.6-1.263-20.405-1.806c-10.571-0.844-21.105-2.185-31.441-4.42c-23.153-5.005-46.206-10.436-68.631-18.273
			c-19.3-6.748-37.753-15.353-56.433-23.605c-39.869-17.613-74.886-42.781-109.986-67.785
			c-20.741-14.775-39.871-31.782-59.008-48.682c-23.953-21.151-45.323-44.732-65.392-69.412
			c-25.879-31.826-50.602-64.643-71.484-100.018c-18.188-30.812-34.632-62.594-45.258-97.008c-0.564-1.827-1.23-3.622-2.275-5.326
			c0.305,10.375,2.504,20.439,4.869,30.421c8.724,36.829,24.538,70.779,43.1,103.499c12.017,21.182,24.118,42.374,38.562,62.036
			c15.671,21.334,31.758,42.297,49.516,62.059c13.491,15.013,29.886,26.637,43.692,41.129c1.572,1.649,3.828,2.859,4.062,5.511
			c0.018,0.004,0.032,0.012,0.049,0.016c0.126,0.08,0.251,0.161,0.377,0.24c-0.139-0.065-0.277-0.133-0.416-0.199
			c-0.001-0.021-0.008-0.037-0.01-0.057c-3.086-0.697-4.598-3.479-6.887-5.233c-14.592-11.184-28.556-23.115-41.846-35.806
			c-23.554-22.488-43.592-47.998-63.003-74.026c-0.804-1.078-1.246-2.427-1.857-3.65c-0.307-0.512-0.615-1.024-0.923-1.535
			l-0.197-0.22c-0.727-0.79-1.453-1.581-2.18-2.371c0.02,0.027,0.039,0.055,0.059,0.082l-0.074-0.099
			c0.005,0.006,0.01,0.011,0.016,0.017c-10.963-15.002-20.864-30.672-29.631-47.057c-6.707-11.216-12.745-22.787-18.518-34.508
			c-13.642-27.698-24.523-56.387-30.602-86.718c-4.331-21.61-10.066-42.796-17.544-63.517c-5.323-14.748-11.03-29.368-14.689-44.662
			c-0.14-0.211-0.303-0.413-0.403-0.642c-0.025-0.057,0.157-0.204,0.244-0.309c-0.226-0.85-0.452-1.7-0.678-2.551
			c-1.616-2.57-2.074-5.397-1.864-8.373c-0.222-1.139-0.445-2.277-0.667-3.417c-1.712-2.136-0.82-4.682-1.11-7.041
			c0,0.001-0.162-0.339-0.162-0.339c-0.252-0.19-0.519-0.366-0.741-0.586c-0.031-0.031,0.153-0.28,0.238-0.427
			c-0.08-1.355-0.161-2.711-0.241-4.067c-3.318-7.713-5.007-15.849-6.261-24.097c-0.279-2.199-0.557-4.398-0.836-6.599
			c-2.799-3.248-2.79-7.166-2.651-11.114c-0.249-1.443-0.498-2.887-0.747-4.331c-1.15-1.114-1.625-2.374-0.843-3.905
			c-0.102-0.67-0.204-1.341-0.306-2.012c-1.324-1.493-1.934-3.153-1.196-5.127c-0.132-0.803-0.264-1.607-0.396-2.412
			c-1.302-1.739-1.653-3.702-1.368-5.813c0,0-0.034-0.232-0.034-0.232c-0.697-1.023-0.904-2.107-0.406-3.277
			c-0.196-1.219-0.394-2.439-0.591-3.66c-0.781-0.66-0.938-1.409-0.324-2.267c-0.194-1.823-0.389-3.647-0.583-5.472
			c-1.447-3.2-1.787-6.491-0.826-9.891c-0.052-0.67-0.104-1.341-0.156-2.013c-1.062-0.752-1.951-2.014-3.545-1.206
			c0.125,0.255,0.14,0.518,0.045,0.788c1.102,7.463,1.193,14.962,0.788,22.477c0.16,1.177,0.321,2.355,0.482,3.534
			c0.045,0.398,0.091,0.797,0.137,1.194c0.053,0.431,0.106,0.864,0.16,1.296c1.479,3.77,1.464,7.716,1.38,11.669
			c0.131,2.616,0.263,5.232,0.396,7.849c1.126,1.165,1.402,2.479,0.7,3.966c0.251,1.607,0.503,3.214,0.754,4.821
			c0.848,0.651,0.884,1.413,0.307,2.258c0.708,3.182,1.417,6.365,2.125,9.548c0.767,0.683,0.818,1.44,0.235,2.264
			c0.079,0.743,0.158,1.487,0.236,2.231c0.192,0.302,0.422,0.589,0.553,0.916c0.044,0.108-0.166,0.319-0.26,0.481
			c0.262,1.542,0.524,3.084,0.786,4.627c0.968,1.878,1.215,3.866,0.913,5.938c0.058,0.416,0.115,0.833,0.172,1.25
			c1.605,2.533,1.821,5.321,1.506,8.204c0.31,1.563,0.621,3.126,0.932,4.689c0.626,0.73,0.913,1.516,0.398,2.432
			c0.544,3.947,1.089,7.896,1.633,11.845c0.75,0.667,0.987,1.409,0.335,2.281c0.275,2.39,0.55,4.779,0.824,7.169
			c0.901,1.45,1.401,2.978,0.891,4.695c0.185,1.586,0.37,3.174,0.555,4.761c1.215,1.365,1.347,2.96,0.992,4.658
			c3.847,20.481,11.626,39.918,15.927,60.293c2.977,14.1,5.562,28.189,4.541,42.772c-0.728-3.089-1.456-6.178-2.144-9.098
			c0.456,6.881,0.563,13.975,1.451,20.97c4.84,38.127,14.566,75.001,29.211,110.537c1.632,3.961,1.086,8.679,4.347,12.01
			c1.472,0.737,2.074,1.952,1.955,3.563c0.222,0.688,0.445,1.377,0.667,2.066c1.264,2.885,2.529,5.771,3.793,8.654
			c0.59,1.189,1.181,2.38,1.772,3.568c0.206,0.197,0.434,0.377,0.602,0.604c0.038,0.052-0.134,0.26-0.21,0.396
			c0.237,0.488,0.475,0.978,0.713,1.467c2.313,5.269,6.671,9.589,7.258,15.657l-0.061-0.093c0.375,0.905,0.749,1.81,1.124,2.716
			c7.156,14.218,14.317,28.43,21.666,42.556c11.473,22.058,25.774,42.206,39.944,62.513c12.86,18.428,28.667,34.285,44.003,50.419
			c13.744,14.458,29.18,27.358,44.662,40.12c18.368,15.143,38.191,28.198,57.447,42.045c8.876,6.384,18.792,11.483,27.349,18.351
			c9.811,7.874,20.664,14.175,30.785,21.569c6.272,4.582,13.698,7.579,20.571,11.354c1.655,0.909,3.724,1.275,5.032,3.675
			c-3.696,0.308-6.438-1.378-9.272-2.684c-22.73-10.473-43.494-24.323-64.68-37.473c-20.35-12.631-40.992-24.805-60.601-38.586
			c-31.877-22.403-62.587-46.32-88.582-75.501c-25.218-28.307-48.239-58.341-67.024-91.478
			c-6.377-11.249-13.359-22.228-19.711-33.465c-15.278-27.031-27.389-55.456-35.979-85.497c-4.955-17.33-7.589-35.069-12.311-52.404
			c0.67,11.315,2.273,22.507,4.66,33.574c2.431,11.282,4.919,22.558,7.694,33.759c2.83,11.431,5.735,22.858,9.166,34.118
			c3.373,11.068,7.473,21.915,11.204,32.876c3.648,10.719,11.311,19.73,13.563,31.049c-9.694-15.235-17.9-31.199-24.27-48.028
			c-12.737-33.651-23.87-67.815-31.885-102.934c-1.039-4.551-3.351-8.881-2.559-13.775c-3.768-7.39-3.755-15.646-5.394-23.523
			c-0.135-0.817-0.269-1.635-0.403-2.453c-0.837-1.009-1.275-2.119-0.868-3.441c-11.465-54.089-23.288-108.091-39.982-157.581
			c0.471,15.477,6.73,33.1,11.687,50.99c1.553,2.56,2.254,5.357,2.322,8.33c0.26,0.277,0.375,0.606,0.343,0.985
			c6.773,19.581,9.713,39.976,13.618,60.235c10.601,54.986,16.778,110.839,32.505,164.845c5.272,18.106,8.877,36.705,15.746,54.351
			c12.423,31.913,25.381,63.627,44.341,92.347c8.168,12.373,16.013,25.041,25.671,36.392c2.791,2.022,4.859,4.556,5.654,7.989
			c0.356,0.098,0.712,0.193,1.067,0.289c-0.096,0.158-0.193,0.314-0.289,0.472c-0.272-0.237-0.545-0.476-0.817-0.713
			c-3.557-1.544-6.124-4.113-7.834-7.568c-12.395-13.109-24.603-26.384-35.958-40.416c-0.505,0.022-1.011,0.047-1.516,0.07
			c5.741,11.327,11.406,22.616,18.947,33.006c6.894,9.497,12.557,19.888,19.604,29.352c16.226,21.791,36.583,39.179,57.602,56.114
			c12.835,10.342,26.732,19.042,39.862,28.875c5.202,1.084,8.111,5.719,12.374,8.382c-5.096-0.671-9.223-3.304-13.023-6.614
			c-13.689-6.858-26.621-15.003-39.563-23.144c-13.292-8.361-26.651-16.615-39.268-25.99c-2.328-1.729-4.478-3.695-6.787-5.453
			c-1.626-1.239-2.967-3.276-6.411-2.313c50.925,55.769,113.462,94.732,179.498,131.334c-4.744,0.258-7.667-1.099-10.664-1.978
			c-3.203-0.939-6.429-1.827-9.565-2.961c-42.827-15.491-83.593-35.178-121.972-59.772c-19.792-12.682-36.176-29.346-53.628-44.81
			c-12.626-11.188-22.004-24.904-32.271-37.972c-0.205,0.198-0.395,0.41-0.573,0.639c3.343,9.16,9.085,16.862,15.078,24.354
			c8.674,10.844,17.571,21.509,26.521,32.432c-5.486-0.97-8.806-5.156-12.696-8.102c-14.587-11.042-27.38-23.778-39.125-38.039
			c-23.551-28.597-32.87-61.658-35.657-97.61c-1.243-16.027-3.942-31.942-6.022-47.903c-0.066-0.503-0.595-0.946-0.908-1.417
			c-0.201,24.486-5.466,48.295-10.149,72.124c-8.652,44.026-13.365,88.44-14.627,133.246c-0.975,34.577,0.041,69.257-3.902,103.672
			c-1.271,11.096,3.168,17.935,10.947,24.078c1.08,0.853,2.089,1.799,3.193,2.615c23.102,17.095,46.926,32.732,75.525,39.363
			c16.59,3.849,33.152,7.713,49.971,10.524c33.698,5.632,67.486,10.368,101.632,12.205c30.461,1.641,60.957,1.404,91.434,1.144
			c43.043-0.369,86.012-2.585,128.576-9.417c30.153-4.841,60.417-9.004,90.193-16.172c32.91-7.924,60.875-25.363,88.427-43.818
			c4.149-2.778,7.892-6.773,7.817-11.876C1033.449,1294.906,1032.876,1285.855,1030.886,1277.001z M988.729,1043.222
			c0.101,0.034,0.151,0.21,0.224,0.323c-0.124,0.076-0.25,0.152-0.376,0.229c-0.097-0.169-0.193-0.336-0.291-0.504
			C988.435,1043.248,988.602,1043.178,988.729,1043.222z M661.368,1036.43c0.607,0.314,1.214,0.629,1.62,0.84
			c0.228,0.963,0.012,1.485-0.646,1.366c-0.47-0.085-1.018-0.493-1.242-0.913C660.94,1037.426,661.261,1036.87,661.368,1036.43z
			 M624.551,1204.013c-0.072,0.029-0.377-0.251-0.356-0.303c0.108-0.272,0.287-0.519,0.44-0.772
			c0.221,0.203,0.438,0.407,0.655,0.611C625.046,1203.711,624.816,1203.904,624.551,1204.013z M788.626,1224.251
			c-0.25-0.156-0.474-0.353-0.702-0.544c-0.054-0.021-0.107-0.042-0.16-0.063c-0.021-0.035-0.041-0.07-0.063-0.105
			c-0.527-0.345-1.055-0.69-1.582-1.034c0.211-0.193,0.422-0.385,0.633-0.577c0.317,0.537,0.633,1.074,0.949,1.611
			c0.033,0.021,0.065,0.042,0.098,0.063c0.042,0.034,0.083,0.069,0.125,0.104c0.368,0.143,0.738,0.285,1.106,0.429
			C788.893,1224.178,788.705,1224.302,788.626,1224.251z"></path>
		<path fill-rule="evenodd" clip-rule="evenodd" class="colour2" fill="#262262" d="M752.302,956.666c0,0.021,0.006,0.036,0.007,0.057
			c0.025,0.009,0.05,0.019,0.075,0.027L752.302,956.666z"></path>
		<path fill-rule="evenodd" clip-rule="evenodd" class="colour2" fill="#262262" d="M670.737,887.122c-0.452,0.378-0.904,0.755-1.355,1.132
			C670.841,889.082,670.768,888.078,670.737,887.122z"></path>
		<path fill-rule="evenodd" clip-rule="evenodd" class="colour2" fill="#262262" d="M405.131,511.973c-0.189-0.753-0.987-0.885-1.741-0.569
			c0.152,0.604,0.305,1.207,0.458,1.811C404.681,513.209,405.326,512.748,405.131,511.973z"></path>
		<path fill-rule="evenodd" clip-rule="evenodd" class="colour2" fill="#262262" d="M513.786,1134.127c-0.085-0.023-0.245,0.213-0.37,0.329
			c0.29,0.157,0.578,0.313,0.864,0.468c0.128-0.143,0.245-0.271,0.36-0.398C514.357,1134.386,514.084,1134.212,513.786,1134.127z"></path>
		<path fill-rule="evenodd" clip-rule="evenodd" class="colour2" fill="#262262" d="M467.415,1120.522c-0.367,0.366-0.736,0.729-1.105,1.093
			c0.347,0.295,0.694,0.589,1.044,0.88c0.178-0.229,0.368-0.44,0.572-0.638C467.754,1121.412,467.583,1120.966,467.415,1120.522z"></path>
	</g>
	<g>
		<path fill-rule="evenodd" clip-rule="evenodd" class="colour4" fill="#bcbec0" d="M939.122,1147.762c-15.114-4.551-30.624-7.401-45.607-12.706
			c-39.641-14.036-77.284-31.866-111.912-55.746c-15.663-10.802-31.184-21.905-45.962-33.868
			c-15.692-12.704-31.272-25.574-46.048-39.428c-17.268-16.188-34.686-32.065-48.834-51.26
			c-15.268-20.714-29.51-42.079-43.313-63.777c-15.51-24.379-30.424-49.069-42.418-75.415c-4.686-4.534-7.852-10.071-10.52-15.936
			c-5.242-9.439-10.606-18.813-15.704-28.33c-19.06-35.579-31.286-73.986-45.982-111.374c-9.634-24.506-18.422-49.301-25.667-74.624
			c-7.519-26.281-13.356-52.893-17.535-79.954c-5.717-37.027-6.783-74.341-8.495-111.624c-0.645-14.032-0.104-28.117-0.104-42.178
			c-1.439,11.548-2.767,23.074-3.184,34.633c-1.204,33.381-2.341,66.766-3.223,100.162c-0.642,24.32,2.116,48.276,5.219,72.212
			c2.144,16.54,6.258,32.815,8.736,49.322c1.929,12.85,4.419,25.556,8.271,37.899c9.343,29.945,17.86,60.106,23.794,90.907
			c3.199,16.604,6.197,33.349,11.323,49.347c5.732,17.888,12.969,35.396,21.034,52.462c3.691,7.813,5.912,16.346,11.394,23.282
			c3.154,5.62,6.322,11.234,9.461,16.864c4.751,8.522,9.507,17.044,14.209,25.594c1.304,2.371,2.851,4.679,2.943,7.533
			c1.328,0.224,1.73,1.3,2.131,2.373c-0.003-0.001,0.194,0.219,0.194,0.219c0.31,0.515,0.62,1.03,0.926,1.541
			c0.608,1.218,1.05,2.566,1.854,3.645c19.411,26.028,39.449,51.538,63.003,74.026c13.29,12.69,27.254,24.622,41.846,35.806
			c2.289,1.754,3.8,4.536,6.887,5.233c-0.234-2.651-2.49-3.861-4.062-5.511c-13.806-14.492-30.201-26.116-43.692-41.129
			c-17.757-19.762-33.844-40.725-49.516-62.059c-14.444-19.662-26.545-40.854-38.562-62.036
			c-18.562-32.72-34.375-66.67-43.1-103.499c-2.364-9.981-4.564-20.046-4.869-30.421c1.045,1.704,1.711,3.499,2.275,5.326
			c10.626,34.414,27.07,66.196,45.258,97.008c20.882,35.375,45.604,68.191,71.484,100.018c20.069,24.68,41.439,48.261,65.392,69.412
			c19.137,16.899,38.267,33.906,59.008,48.682c35.101,25.004,70.117,50.172,109.986,67.785c18.68,8.253,37.133,16.857,56.433,23.605
			c22.425,7.838,45.478,13.269,68.631,18.273c10.336,2.235,20.87,3.576,31.441,4.42c6.806,0.543,13.604,1.2,20.405,1.806
			c-4.938-3.38-10.624-3.785-15.998-5.236C971.94,1156.618,955.391,1152.662,939.122,1147.762z"></path>
		<path fill-rule="evenodd" clip-rule="evenodd" class="colour4" fill="#bcbec0" d="M541.001,911.844c0-0.028-0.006-0.055-0.007-0.083
			c-0.024-0.004-0.043-0.013-0.067-0.016L541.001,911.844z"></path>
		<path fill-rule="evenodd" clip-rule="evenodd" class="colour4" fill="#bcbec0" d="M541.305,558.941c0.121,0.718,0.243,1.438,0.364,2.157
			c1.573,2.51,2.682,5.123,1.816,8.174c0.095,0.672,0.188,1.346,0.283,2.019c2.711,3.73,3.027,8.09,3.271,12.468
			c0.215,1.104,0.43,2.208,0.646,3.313c1.741,1.608,2.222,3.556,1.561,5.81c0.115,0.699,0.229,1.399,0.344,2.1
			c1.69,0.947,1.937,2.373,1.351,4.075c0.123,0.726,0.247,1.451,0.371,2.176c1.521,1.67,2.734,3.426,1.659,5.833
			c0.117,0.658,0.235,1.315,0.352,1.973c2.376,3.389,3.593,7.135,3.483,11.292c0.128,0.721,0.255,1.443,0.383,2.165
			c3.634,5.32,4.94,11.323,5.185,17.639c0.084,0.687,0.169,1.374,0.253,2.06c2.351,2.533,2.551,5.646,2.388,8.856
			c0.968,2.681,1.936,5.363,2.904,8.045c2.112,2.447,2.928,5.337,2.908,8.513c0.201,0.707,0.402,1.414,0.604,2.121
			c4.045,6.614,5.967,14.034,8.125,21.365c0.198,0.676,0.397,1.353,0.596,2.03c5.036,7.269,7.245,15.841,10.766,23.794
			c10.367,23.422,21.665,46.377,33.403,69.126c0.538,1.043,1.333,1.965,0.764,3.242c0.759,1.414,1.519,2.828,2.279,4.243
			c2.628,1.764,3.538,4.515,4.241,7.384c0.223,0.275,0.369,0.587,0.439,0.936c2.661,1.739,3.577,4.476,4.21,7.373
			c0.251,0.248,0.424,0.542,0.521,0.882c2.075,1.039,2.831,2.861,2.985,5.038c0.639,1.025,1.277,2.051,1.917,3.077
			c1.191,0.543,1.854,1.413,1.717,2.777c0.229,0.269,0.391,0.575,0.483,0.917c2.146,0.955,2.795,2.858,3.143,4.954
			c2.525,4.224,5.05,8.448,7.574,12.673c1.301,0.458,1.905,1.358,1.75,2.743c0.246,0.248,0.423,0.539,0.532,0.872
			c2.049,1.061,2.823,2.871,2.973,5.05c0.225,0.273,0.394,0.578,0.505,0.915c1.349,0.369,2.066,1.173,1.822,2.64
			c0.25,0.25,0.445,0.535,0.585,0.859c2.616,1.238,3.871,3.408,4.241,6.185c0.226,0.264,0.39,0.563,0.493,0.894
			c2.43,1.395,3.78,3.484,4.046,6.274c0.602,1.078,1.204,2.158,1.807,3.237c1.348,0.349,2.047,1.164,1.878,2.605
			c0.243,0.248,0.431,0.533,0.563,0.854c1.422,0.335,1.995,1.252,1.83,2.673c0.237,0.261,0.408,0.561,0.512,0.897
			c2.396,2.021,4.665,4.134,5.309,7.41c1.673,1.985,3.347,3.972,5.021,5.958c2.452,0.635,4.176,1.963,4.449,4.672
			c0.261,0.228,0.465,0.497,0.612,0.812c1.747,0.715,2.97,1.851,3.091,3.864c0,0,0.092,0.094,0.092,0.094
			c2.338,1.299,4.009,3.133,4.649,5.794c1.32,1.48,2.64,2.963,3.96,4.445c2.211,0.993,3.827,2.503,4.325,4.983
			c3.575,3.579,7.149,7.158,10.722,10.737c2.042,0.261,3.311,1.277,3.384,3.462c1.216,1.653,2.433,3.308,3.648,4.962
			c5.022,1.344,8.469,4.486,10.526,9.215c0.84,0.824,1.681,1.648,2.52,2.473c5.315,2.468,9.146,6.459,11.901,11.554
			c2.079,0.141,2.24,2.174,3.271,3.346c67.923,50.217,143.335,80.003,228.268,83.707c-13.831-2.784-27.683-5.61-41.486-8.806
			c-17.671-4.092-34.554-9.162-40.808-15.011c8.236,2.4,15.604,4.27,23.127,5.375c8.817,1.296,17.632,2.511,26.506,3.466
			c11.198,1.204,22.124,2.216,33.046-1.12c1.863-0.568,3.828-1.087,4.691-3.178c-13.251-4.686-26.504-9.37-39.756-14.055
			c-1.427-0.5-2.602-1.798-4.323-1.358c-1.313,0.953-2.054-0.004-2.829-0.846c-0.654-0.612-1.308-1.225-1.962-1.838
			c-3-0.631-6.151-0.868-8.476-3.257c-0.991-0.402-1.983-0.805-2.976-1.207c-2.32,0.479-4.056-0.374-5.307-2.33
			c-0.642-0.23-1.282-0.462-1.924-0.692c-1.317,0.286-2.186-0.433-2.978-1.324c-0.938-0.455-1.877-0.912-2.816-1.369
			c-2.275,0.213-3.999-0.677-5.197-2.609c-1.421-0.693-2.841-1.388-4.262-2.082c-5.951-1.517-11.291-4.257-16.097-8.059
			c-0.941-0.432-1.882-0.864-2.821-1.297c-2.992-0.394-5.643-1.415-7.422-4.038c-0.328-0.117-0.637-0.273-0.924-0.472
			c-1.408,0.271-2.264-0.43-2.847-1.613c-0.605-0.303-1.212-0.607-1.817-0.911c-1.376,0.274-2.345-0.204-2.849-1.54
			c-2.611-1.409-5.222-2.818-7.833-4.228c-2.759-0.873-5.72-1.398-7.329-4.252c-0.339-0.109-0.65-0.272-0.936-0.485
			c-2.168-0.195-4.061-0.833-4.942-3.089c-4.681-2.842-9.362-5.685-14.044-8.525c-1.43,0.029-2.192-0.756-2.524-2.067
			c-4.607-3.396-9.215-6.793-13.822-10.188c-2.124,0.342-3.188-0.988-4.081-2.588c-1.016-0.672-2.031-1.345-3.046-2.018
			c-2.142,0.183-3.243-1.049-3.904-2.876c-0.311-0.164-0.591-0.372-0.84-0.622c-1.506,0.277-2.263-0.479-2.565-1.86
			c-1.552-1.25-3.104-2.5-4.656-3.749c-1.404,0.075-2.252-0.624-2.668-1.921c-0.304-0.138-0.577-0.323-0.819-0.555
			c-1.463,0.191-2.34-0.448-2.667-1.872c-1.462-1.37-2.924-2.74-4.387-4.11c-1.492,0.195-2.281-0.536-2.559-1.942
			c-2.727-2.427-5.453-4.854-8.18-7.282c-1.381-0.043-2.197-0.772-2.532-2.085c-1.124-0.882-2.249-1.764-3.373-2.646
			c-1.438,0.007-2.22-0.757-2.492-2.12c-1.111-0.912-2.224-1.826-3.336-2.739c-1.43,0.034-2.211-0.711-2.483-2.066
			c-1.135-0.902-2.27-1.805-3.404-2.708c-2.589-0.351-3.986-2.075-4.955-4.294c-1.118-0.897-2.237-1.796-3.356-2.693
			c-1.373-0.004-2.267-0.627-2.574-2.002c-1.108-0.908-2.219-1.816-3.328-2.725c-1.377,0.001-2.256-0.639-2.582-1.996
			c-3.563-3.15-7.126-6.301-10.689-9.45c-1.799-0.565-2.999-1.71-3.459-3.571c-1.502-1.296-3.006-2.593-4.509-3.891
			c-2.55-0.456-4.032-2.093-4.889-4.422c-1.584-1.585-3.167-3.17-4.751-4.756c-1.456-0.179-2.096-1.074-2.171-2.468
			c0,0.001-0.058-0.057-0.058-0.057c-3.348-1.36-5.85-3.53-6.846-7.146c0,0-0.125-0.125-0.125-0.125
			c-3.441-1.734-5.697-4.499-7.025-8.071c-1.289-1.522-2.579-3.046-3.868-4.569c-2.249-0.936-3.986-2.31-4.239-4.953
			c-2.208-2.605-4.416-5.212-6.624-7.818c-1.799-0.694-2.816-1.997-3.036-3.916c-1.255-1.539-2.511-3.078-3.767-4.617
			c-1.39-0.26-2.083-1.082-2.025-2.51c-2.123-2.66-4.247-5.321-6.37-7.982c-1.315-0.396-2.04-1.209-1.876-2.65
			c-0.208-0.271-0.376-0.566-0.502-0.886c-1.354-0.389-1.971-1.274-1.81-2.685c-0.254-0.23-0.45-0.504-0.585-0.82
			c-2.127-1.094-3.929-2.439-3.98-5.141c-1.056-1.423-2.113-2.848-3.169-4.271c-1.337-0.376-2.066-1.196-1.936-2.646
			c-1.714-3.056-3.429-6.111-5.143-9.167c-1.252-0.487-1.893-1.363-1.745-2.741c-0.22-0.285-0.373-0.603-0.456-0.952
			c-2.099-1.005-2.844-2.818-2.987-4.993c-0.309-0.599-0.619-1.197-0.929-1.795c-1.134-0.632-1.751-1.538-1.531-2.888
			c-0.569-1.082-1.14-2.166-1.71-3.249c-1.745-0.717-3.014-1.79-2.918-3.888c-0.285-0.213-0.501-0.482-0.648-0.807
			c-3.374-2.476-5.264-5.908-6.361-9.853c-0.65-1.034-1.302-2.067-1.953-3.101c-1.444-0.396-1.947-1.348-1.633-2.777
			c-0.267-0.245-0.479-0.529-0.637-0.855c-3.23-1.946-4.415-5.182-5.389-8.549c-0.273-0.22-0.478-0.49-0.614-0.813
			c-1.302-0.448-1.879-1.361-1.745-2.729c-0.599-1.055-1.198-2.11-1.796-3.165c-1.292-0.449-1.924-1.337-1.803-2.722
			c-0.229-0.262-0.391-0.562-0.483-0.897c-2.193-1.549-3.781-3.47-3.888-6.305c-0.319-0.62-0.638-1.239-0.957-1.859
			c-1.418-0.426-1.909-1.389-1.623-2.802c-0.365-0.568-0.731-1.136-1.098-1.703c-2.059-1.696-3.647-3.671-3.843-6.472
			c-0.175-0.303-0.3-0.625-0.375-0.966c-2.181-0.956-2.787-2.869-3.035-4.999c-0.739-1.367-1.478-2.735-2.217-4.103
			c-2.581-2.435-4.288-5.353-4.907-8.871c-0.244-0.631-0.487-1.264-0.731-1.895c-2.027-1.712-3.706-3.612-3.525-6.518
			c-0.511-0.925-1.022-1.85-1.533-2.775c-2.85-2.767-4.163-6.267-4.821-10.082c-1.02-2.214-2.04-4.43-3.06-6.645
			c-2.785-4.169-5.403-8.412-5.944-13.565c-0.804-2.155-1.609-4.312-2.413-6.468c-1.127-0.7-1.717-1.612-1.172-2.971
			c-0.314-1.037-0.629-2.074-0.944-3.111c-4.578-6.409-6.387-14.03-9.086-21.23c-3.258-8.691-7.13-17.21-8.693-26.467
			c-0.192-0.708-0.385-1.417-0.577-2.126c-5.589-10.414-7.331-22.091-10.907-33.167c-0.381-1.181,0.118-3.063-1.798-3.113
			c-0.544-0.015-1.125,1.342-1.688,2.07c0.122,1.064,0.243,2.128,0.366,3.194C540.139,548.036,541.415,553.341,541.305,558.941z"></path>
		<path fill-rule="evenodd" clip-rule="evenodd" class="colour4" fill="#bcbec0" d="M752.384,956.75c-0.015-0.026-0.03-0.051-0.045-0.077
			c-0.014-0.001-0.023-0.006-0.037-0.007L752.384,956.75z"></path>
		<path fill-rule="evenodd" clip-rule="evenodd" class="colour4" fill="#bcbec0" d="M491.304,925.334c0.01,0.023,0.02,0.047,0.029,0.07
			c0.011,0.007,0.02,0.015,0.031,0.021C491.365,925.426,491.304,925.333,491.304,925.334z"></path>
		<path fill-rule="evenodd" clip-rule="evenodd" class="colour4" fill="#bcbec0" d="M778.855,1216.975c-6.873-3.774-14.299-6.771-20.571-11.354
			c-10.121-7.395-20.975-13.695-30.785-21.569c-8.557-6.867-18.473-11.967-27.349-18.351c-19.256-13.847-39.08-26.902-57.447-42.045
			c-15.482-12.762-30.917-25.662-44.662-40.12c-15.336-16.134-31.144-31.991-44.003-50.419
			c-14.17-20.307-28.472-40.455-39.944-62.513c-7.348-14.126-14.509-28.338-21.666-42.556c-0.365-0.881-0.73-1.762-1.095-2.645
			c-3.91-2.33-5.852-6.335-8.375-9.845c-8.07-11.96-16.829-23.519-24.074-35.959c-18.214-31.277-28.4-65.646-34.717-100.926
			c-5.209-29.097-11.928-57.56-21.447-85.575c-11.937-35.133-24.341-70.14-34.475-105.87c-0.611-0.158-1.222-0.316-1.833-0.474
			c4.537,16.248,8.319,32.702,13.568,48.758c8.979,27.468,15.478,55.582,21.507,83.812c0.733,0.768,0.976,1.616,0.428,2.596
			c1.852,12.123,3.704,24.247,5.556,36.37c0.758,0.769,0.943,1.628,0.41,2.602c1.063,7.411,2.125,14.822,3.188,22.234
			c0.341,0.246,0.379,0.533,0.113,0.859c0.175,1.27,0.349,2.539,0.524,3.81c1.752,5.35,2.412,10.805,1.592,16.405
			c-0.792,4.895,1.52,9.225,2.559,13.775c8.015,35.118,19.148,69.282,31.885,102.934c6.37,16.829,14.575,32.793,24.27,48.028
			c-2.252-11.318-9.915-20.33-13.563-31.049c-3.731-10.961-7.831-21.808-11.204-32.876c-3.43-11.26-6.335-22.688-9.166-34.118
			c-2.774-11.201-5.263-22.477-7.694-33.759c-2.386-11.067-3.99-22.259-4.66-33.574c4.722,17.335,7.356,35.074,12.311,52.404
			c8.59,30.041,20.7,58.466,35.979,85.497c6.352,11.237,13.334,22.216,19.711,33.465c18.786,33.137,41.806,63.171,67.024,91.478
			c25.995,29.181,56.705,53.098,88.582,75.501c19.609,13.781,40.251,25.955,60.601,38.586c21.186,13.149,41.95,27,64.68,37.473
			c2.834,1.306,5.576,2.991,9.272,2.684C782.579,1218.25,780.511,1217.884,778.855,1216.975z"></path>
		<path fill-rule="evenodd" clip-rule="evenodd" class="colour4" fill="#bcbec0" d="M1150.666,263.963c5.735-7.133,13.368-12.803,16.745-21.751
			c-0.975-6.263-2.41-12.293-7.051-17.089c-10.544-10.899-23.351-18.317-36.984-24.575c-4.198-1.928-1.951,1.504-2.507,2.626
			c1.365,1.466,0.789,2.766-0.342,4.018c-0.699,2.993-1.398,5.986-2.097,8.979c0.268,6.277-4.399,10.522-6.644,15.751
			c-3.538,8.24-9.807,15.007-13.598,23.213c1.664-6.437,4.525-12.406,7.95-18.021c3.902-6.396,5.595-13.75,9.369-20.161
			c0.234-0.676,0.47-1.352,0.704-2.027c-1.24-1.805-0.871-3.515,0.301-5.18c1.953-12.092,0.428-13.533-19.197-20.585
			c0.55,6.144-1.111,11.753-3.844,17.056c-8.802,17.083-19.829,32.63-32.337,47.2c-9.968,11.611-19.582,23.524-29.467,35.207
			c-1.855,2.194-2.753,3.898-0.898,6.666c5.025,7.497,9.777,15.176,14.638,22.781c36.079-17.65,71.893-35.703,100.26-65.434
			c-11.787,25.033-32.413,43.137-50.433,63.288c1.037,0.185,1.617,0.022,2.066-0.315c9.581-7.187,17.982-15.571,26.22-24.277
			C1132.341,282.013,1142.564,274.04,1150.666,263.963z"></path>
		<path fill-rule="evenodd" clip-rule="evenodd" class="colour4" fill="#bcbec0" d="M999.096,993.466c-7.604-1.005-14.82-3.565-21.969-6.176
			c-10.836-3.96-21.386-8.7-32.085-12.962c-39.984-15.923-77.697-35.844-112.876-60.64c-28.127-19.826-55.758-40.171-79.679-65.193
			c-7.687-8.041-14.173-17.148-23.193-25.761c2.046,6.358,5.115,10.635,7.975,15.013c22.746,34.825,53.553,62.162,84.622,88.924
			c29.842,25.705,63.152,46.721,98.104,64.979c6.655,3.476,13.509,6.571,20.271,9.844c1.395,0.343,3.128-0.2,3.992,1.527
			c3.541,1.592,6.461,4.382,10.322,5.357c11.252,2.569,21.082,8.652,31.69,12.812c1.618,0.635,3.237,1.265,4.858,1.899
			c6.954-2.616,10.879-8.076,13.686-14.585c-0.508-3.684-1.047-7.364-1.513-11.053
			C1002.983,994.931,1001.652,993.804,999.096,993.466z"></path>
		<path fill-rule="evenodd" clip-rule="evenodd" class="colour4" fill="#bcbec0" d="M561.526,779.47c9.119,17.852,20.146,34.521,31.209,51.17
			c15.009,22.589,32.387,43.345,49.539,64.304c17.996,21.988,37.88,41.965,60.417,59.206c19.317,14.778,38.518,29.756,59.023,42.898
			c5.088,3.261,9.779,7.437,16.075,8.465c-2.666-4.743-7.15-7.666-11.287-10.814c-21.003-15.98-39.904-34.418-60.191-51.228
			c-32.994-27.341-58.777-61.286-85.493-94.254c-24.635-30.4-46.257-63.071-67.023-96.243
			c-7.689-12.283-14.771-24.946-22.131-37.437c0.018,2.853,1.463,5.251,2.477,7.788C541.884,742.717,552.051,760.921,561.526,779.47
			z"></path>
		<path fill-rule="evenodd" clip-rule="evenodd" class="colour4" fill="#bcbec0" d="M1214.62,324.673c-6.176,20.078-17.126,37.403-30.345,53.457
			c-15.356,18.651-30.039,37.935-48.858,53.396c-4.965,4.078-10.345,7.647-15.534,11.45c1.885,0.254,3.351-0.184,4.706-0.846
			c11.585-5.657,21.356-13.781,30.632-22.58c15.145-14.364,28.907-30.047,42.294-45.98c13.522-16.094,24.278-33.878,25.354-55.83
			c-1.271-4.019-2.574-8.024-5.011-11.54C1218.019,312.576,1216.482,318.619,1214.62,324.673z"></path>
		<path fill-rule="evenodd" clip-rule="evenodd" class="colour4" fill="#bcbec0" d="M1059.817,232.75c-11.004,13.933-22.431,26.797-35.39,38.253
			c-7.289,6.444-7.137,6.41-1.238,13.953c2.058,2.631,3.072,3.382,5.353,0.096c8.043-11.586,16.983-22.598,24.335-34.592
			C1055.974,245.406,1060.045,239.928,1059.817,232.75z"></path>
		<path fill-rule="evenodd" clip-rule="evenodd" class="colour4" fill="#bcbec0" d="M505.032,657.09c-1.714-2.23-3.428-4.46-5.493-7.147
			c4.672,20.855,12.021,40.343,18.221,60.181C514.394,692.239,509.709,674.666,505.032,657.09z"></path>
		<path fill-rule="evenodd" clip-rule="evenodd" class="colour4" fill="#bcbec0" d="M1248.229,422.405c-2.896,16.431-16.111,26.958-23.47,40.891
			c9.35-8.879,19.207-17.26,24.817-29.241C1250.153,430.056,1248.547,426.309,1248.229,422.405z"></path>
		<path fill-rule="evenodd" clip-rule="evenodd" class="colour4" fill="#bcbec0" d="M522.135,724.586c0.693,5.479,2.091,10.756,4.523,15.75
			C525.451,735.01,524.766,729.518,522.135,724.586z"></path>
		<path fill-rule="evenodd" clip-rule="evenodd" class="colour4" fill="#bcbec0" d="M535.553,768.388c-0.721-4.042-1.199-8.176-3.81-11.608
			C532.62,760.773,533.597,764.735,535.553,768.388z"></path>
		<path fill-rule="evenodd" clip-rule="evenodd" class="colour4" fill="#bcbec0" d="M527.941,744.613c0.02,3.491,1.584,6.5,2.984,9.572
			C530.427,750.848,530.065,747.456,527.941,744.613z"></path>
		<path fill-rule="evenodd" clip-rule="evenodd" class="colour4" fill="#bcbec0" d="M531.248,714.545c0.209-0.903,0.046-1.628-0.941-1.957
			C530.174,713.453,530.402,714.147,531.248,714.545z"></path>
		<path fill-rule="evenodd" clip-rule="evenodd" class="colour4" fill="#bcbec0" d="M520.783,718.008l-0.332-0.29
			c-0.101,0.066-0.201,0.134-0.301,0.2c0.156,0.172,0.313,0.343,0.471,0.523C520.621,718.45,520.783,718.008,520.783,718.008z"></path>
		<path fill-rule="evenodd" clip-rule="evenodd" class="colour4" fill="#bcbec0" d="M518.842,712.654c0.799-0.607,0.515-0.882-0.311-0.987
			c-0.054,0.125-0.188,0.291-0.147,0.367C518.499,712.258,518.683,712.445,518.842,712.654z"></path>
		<path fill-rule="evenodd" clip-rule="evenodd" class="colour4" fill="#bcbec0" d="M783.069,1009.847c-0.015,2.034,1.255,2.399,2.95,2.21
			c-0.532-1.32-1.46-2.127-2.9-2.265c-0.033-0.37-0.064-0.741-0.097-1.111c-0.752-0.031-1.503-0.064-2.256-0.097
			c-0.081-0.72-0.478-1.101-1.208-1.123c0.087-0.428,0.175-0.855,0.263-1.283c-0.651-0.195-1.304-0.391-1.957-0.582
			c-0.647,1.71,0.396,1.911,1.681,1.896c0.391,0.362,0.779,0.727,1.168,1.089c-0.001,0-0.002,0-0.003,0
			C781.094,1009.778,781.941,1010.079,783.069,1009.847z"></path>
		<path fill-rule="evenodd" clip-rule="evenodd" class="colour4" fill="#bcbec0" d="M538.395,774.99c0.001,0.007,0.116-0.382,0.116-0.382
			l-0.307-0.222c-0.091,0.063-0.182,0.127-0.272,0.189C538.084,774.712,538.239,774.848,538.395,774.99z"></path>
		<polygon fill-rule="evenodd" clip-rule="evenodd" class="colour4" fill="#bcbec0" points="536.724,771.002 536.902,770.795 536.628,770.766 
			536.456,770.973 		"></polygon>
		<path fill-rule="evenodd" clip-rule="evenodd" class="colour4" fill="#bcbec0" d="M969.817,969.586c0.065,1.521,1.055,2.482,2.08,3.412
			c8.845,8.017,19.37,13.009,30.751,17.401c0-3.969-0.048-7.483,0.021-10.994c0.033-1.759-0.426-2.441-2.372-2.045
			c-11.447,2.335-21.002-2.845-30.582-7.861l0.005,0.004c0.001,0.006-0.157,0.046-0.157,0.046L969.817,969.586z"></path>
		<polygon fill-rule="evenodd" clip-rule="evenodd" class="colour4" fill="#bcbec0" points="541.798,783.697 541.749,783.589 541.533,783.726 		"></polygon>
		<path fill-rule="evenodd" clip-rule="evenodd" class="colour4" fill="#bcbec0" d="M863.345,1046.516c-0.452-1.063-1.351-1.279-2.39-1.235
			c0.455,1.053,1.264,1.438,2.354,1.289c0.95,2.454,4.406,2.66,4.943,5.485c21.917,8.246,44.521,13.113,67.91,14.134
			c-1.789-0.867-3.646-1.464-5.548-1.727c-19.89-2.744-39.162-7.857-57.906-15.004
			C869.641,1048.289,866.92,1046.05,863.345,1046.516z"></path>
		<path fill-rule="evenodd" clip-rule="evenodd" class="colour4" fill="#bcbec0" d="M608.558,1194.914c3.8,3.311,7.927,5.943,13.023,6.614
			c-4.263-2.663-7.172-7.298-12.385-8.384C608.976,1193.732,608.767,1194.323,608.558,1194.914z"></path>
		<path fill-rule="evenodd" clip-rule="evenodd" class="colour4" fill="#bcbec0" d="M512.876,1085.672c-0.742,0.155-1.477,0.314-2.211,0.474
			c1.71,3.455,4.277,6.024,7.834,7.568l0,0c0.272,0.237,0.545,0.476,0.817,0.713c0.096-0.157,0.193-0.313,0.289-0.472
			c-0.355-0.096-0.711-0.191-1.067-0.289C517.743,1090.232,515.675,1087.699,512.876,1085.672z"></path>
		<path fill-rule="evenodd" clip-rule="evenodd" class="colour4" fill="#bcbec0" d="M469.263,1039.481c1.309,2.106,2.619,4.212,3.928,6.318
			c0.505-0.023,1.011-0.048,1.518-0.063C474.229,1042.627,472.021,1040.875,469.263,1039.481z"></path>
		<path fill-rule="evenodd" clip-rule="evenodd" class="colour4" fill="#bcbec0" d="M662.342,1038.636c0.658,0.119,0.874-0.403,0.646-1.366
			c-0.406-0.211-1.013-0.525-1.62-0.84c-0.107,0.44-0.428,0.996-0.268,1.293C661.324,1038.143,661.872,1038.551,662.342,1038.636z"></path>
		<path fill-rule="evenodd" clip-rule="evenodd" class="colour4" fill="#bcbec0" d="M624.194,1203.71c-0.021,0.052,0.285,0.332,0.356,0.303
			c0.265-0.108,0.496-0.302,0.739-0.464c-0.217-0.204-0.435-0.408-0.653-0.611C624.481,1203.191,624.303,1203.438,624.194,1203.71z"></path>
		<path fill-rule="evenodd" clip-rule="evenodd" class="colour4" fill="#bcbec0" d="M786.119,1222.505c0.527,0.345,1.056,0.69,1.583,1.035
			c-0.316-0.537-0.633-1.075-0.95-1.612C786.541,1222.12,786.33,1222.312,786.119,1222.505z"></path>
		<path fill-rule="evenodd" clip-rule="evenodd" class="colour4" fill="#bcbec0" d="M788.626,1224.251c0.079,0.051,0.267-0.073,0.404-0.115
			c-0.368-0.144-0.738-0.286-1.106-0.429C788.152,1223.898,788.376,1224.095,788.626,1224.251z"></path>
		<path fill-rule="evenodd" clip-rule="evenodd" class="colour4" fill="#bcbec0" d="M787.798,1223.604c-0.031-0.021-0.063-0.042-0.096-0.063
			c0.021,0.035,0.041,0.069,0.062,0.104c0.053,0.021,0.106,0.041,0.16,0.063C787.882,1223.672,787.841,1223.637,787.798,1223.604
			L787.798,1223.604z"></path>
		<path fill-rule="evenodd" clip-rule="evenodd" class="colour4" fill="#bcbec0" d="M988.285,1043.27c0.098,0.168,0.194,0.335,0.291,0.504
			c0.126-0.076,0.252-0.152,0.376-0.229c-0.072-0.113-0.123-0.289-0.224-0.323C988.602,1043.178,988.435,1043.248,988.285,1043.27z"></path>
		<path fill-rule="evenodd" clip-rule="evenodd" class="colour4" fill="#bcbec0" d="M658.262,1034.859c-0.126-0.079-0.251-0.16-0.377-0.24
			c-0.018-0.004-0.032-0.012-0.049-0.016c0.002,0.02,0.009,0.036,0.01,0.057C657.984,1034.727,658.123,1034.794,658.262,1034.859z"></path>
		<path fill-rule="evenodd" clip-rule="evenodd" class="colour4" fill="#bcbec0" d="M1136.85,340.169c3.623-3.118,5.268-7.189,5.334-12.116
			c-2.358,3.479-4.716,6.959-7.074,10.439C1135.689,339.052,1136.27,339.611,1136.85,340.169z"></path>
		<path fill-rule="evenodd" clip-rule="evenodd" class="colour4" fill="#bcbec0" d="M1185.884,290.337c-1.916,3.1-3.831,6.199-5.75,9.303
			c1.079,0.03,2.163,0.055,3.244,0.08C1186.571,297.292,1186.509,293.926,1185.884,290.337z"></path>
		<path fill-rule="evenodd" clip-rule="evenodd" class="colour4" fill="#bcbec0" d="M1086.658,397.982c4.133-2.183,8.05-4.665,11.283-8.111
			c-0.741-0.363-1.487-0.722-2.229-1.084C1092.521,391.678,1088.175,393.442,1086.658,397.982z"></path>
		<path fill-rule="evenodd" clip-rule="evenodd" class="colour4" fill="#bcbec0" d="M1210.204,378.784c1.328-1.362,2.068-2.957,2.344-6.4
			c-2.016,2.72-3.199,4.315-4.386,5.916C1208.84,378.463,1209.522,378.624,1210.204,378.784z"></path>
		<path fill-rule="evenodd" clip-rule="evenodd" class="colour4" fill="#bcbec0" d="M1131.861,342.251c1.2-0.009,1.804-0.574,1.666-1.818
			C1132.337,340.455,1131.801,341.076,1131.861,342.251z"></path>
		<path fill-rule="evenodd" clip-rule="evenodd" class="colour4" fill="#bcbec0" d="M466.31,1121.615c0.369-0.363,0.738-0.727,1.105-1.093
			c-2.405-5.379-5.921-10.026-9.601-14.588C460.615,1111.189,462.363,1116.996,466.31,1121.615z"></path>
		<path fill-rule="evenodd" clip-rule="evenodd" class="colour4" fill="#bcbec0" d="M1086.336,398.283l0.299-0.24
			c0.007-0.021,0.016-0.04,0.023-0.061c-0.019,0.009-0.036,0.02-0.054,0.029L1086.336,398.283z"></path>
	</g>
</g>
</svg>