<svg version="1.1" id="Layer_1___Kvm2vH0q" xmlns="http://www.w3.org/2000/svg" xmlns:xlink="http://www.w3.org/1999/xlink" x="0px" y="0px" width="1417.32px" height="1417.32px" viewBox="0 0 1417.32 1417.32" enable-background="new 0 0 1417.32 1417.32" xml:space="preserve">
<g>
	<path class="colour1" fill="#009FDA" d="M1196.739,640.25c-0.017-0.035-0.04-0.073-0.058-0.108c-0.188-0.821-0.821-1.658-1.095-2.436
		c-6.147-17.49-14.182-34.279-19.399-52.114c-6.178-21.115-14.675-41.5-19.615-63.012c-4.168-18.154-5.089-36.874-9.086-54.966
		c-7.208-32.631-15.8-64.939-27.477-96.362c-13.727-36.94-36.398-65.826-73-82.219c-22.51-10.083-45.455-18.812-69.539-24.905
		c-34.18-8.648-67.151-21.286-100.113-33.778c-15.764-5.974-32.378-10.144-45.198-22.124c-0.258-0.24-0.913-0.054-1.383-0.067
		c3.515,5.979,3.071,11.835-0.547,17.593c11.245,16.056,26.016,28.171,42.118,39.128c15.022,10.223,30.779,19.01,46.695,27.671
		c10.333,5.623,21.275,11.126,29.664,19.087c12.854,12.2,23.474,26.636,32.655,42.015c10.964,18.364,20.279,37.327,24.068,58.595
		c0.451,2.536,1.658,5.089,0.188,7.686c3.634,4.513,2.285,10.15,3.175,15.223c2.501,14.251,2.677,28.712,2.109,43.144
		c-0.339,8.628-2.297,17.026-4.672,25.323c-4.881,17.052-5.599,34.329-2.625,51.777c1.338,19.6,5.982,38.47,12.12,57.094
		c5.955,18.067,11.442,36.295,16.745,54.565c1.993,6.867,4.427,13.487,7.185,20.06c0.701,1.671,1.516,2.952,2.533,3.812l0.062,0.317
		c0,0,0.622,0.656,2.38,0.839c0.958,0.175,2.051,0.125,3.318-0.177c0,0,0-0.001,0-0.002c1.946-0.344,4.492-1.121,7.802-2.66
		c10.75-5,36-10,36-10s21.75-6.5,28.25-9.25s29.75-10.5,29.75-10.5s10.25-5.25,12-6c1.514-0.648,28.056-6.907,33.915-11.336
		c0.473-0.297,0.77-0.607,0.925-0.926C1196.812,640.892,1196.884,640.559,1196.739,640.25z"></path>
	<path class="colour1" fill="#009FDA" d="M587.974,207.552c-8.042,6.856-17.24,11.758-27.055,15.44c-39.84,14.947-79.753,29.708-120.521,41.981
		c-27.269,8.21-54.787,15.631-80.324,28.714c-9.984,5.115-19.415,10.748-26.913,19.354c-19.605,22.502-33.523,48.008-42.273,76.56
		c-10.007,32.653-19.789,65.293-24.154,99.335c-2.212,17.256-4.915,34.515-10.417,51.121c-9.999,30.182-19.309,60.61-31.51,90.023
		c-0.406,0.979-0.871,1.961-1.002,2.985c-0.056,0.135-0.172,0.502-0.05,1.029c0.027,0.118,0.072,0.245,0.127,0.377
		c0.093,0.379,0.234,0.765,0.48,1.162c0.035-0.086,0.075-0.159,0.112-0.242c0.966,1.099,3.07,2.419,7.526,3.608
		c10,2.667,23.333,7.667,23.333,7.667s23.833,10.5,34.833,14c10.582,3.367,37.046,13.208,62.041,17.513
		c7.544,1.643,15.145,3.054,22.615,4.979c3.672,0.947,5.002,0.108,5.996-3.254c4.825-16.34,9.451-32.751,14.795-48.923
		c8.231-24.91,15.888-49.917,18.59-76.157c-4.237-6.813-3.412-14.257-2.812-21.714c0.426-5.297,2.339-10.275,2.835-15.589
		c0.867-9.293-2.927-17.574-5.105-26.164c-3.75-14.792-4.938-29.581-3.43-44.821c1.047-10.582,2.082-21.059,5.32-31.22
		c2.485-14.527,5.145-28.99,13.671-41.539c1.487-2.189,2.977-4.439,4.028-6.852c9.297-21.338,23.201-39.458,39.071-56.211
		c0.897-0.948,2.023-1.735,3.161-2.391c21.156-12.183,42.719-23.697,63.759-36.008c20.757-12.146,40.233-26.733,51.726-49.145
		C584.913,217.764,586.573,212.671,587.974,207.552z"></path>
	<path fill-rule="evenodd" clip-rule="evenodd" class="colour2" fill="#262262" d="M414.203,554.824c-4.237-6.813-3.412-14.257-2.812-21.714
		c0.426-5.297,2.339-10.275,2.835-15.589c0.867-9.293-2.927-17.574-5.105-26.164c-3.75-14.792-4.938-29.581-3.43-44.821
		c1.047-10.582,2.082-21.059,5.319-31.22c7.296,3.635,8.514,11.201,11.421,17.673c1.729,9.025,0.7,18.268,2.029,27.301
		c2.536,17.231,8.24,33.727,12.144,50.645c3.506,27.483,10.606,54.186,17.596,80.912c2.055,14.049,4.19,28.088,6.136,42.153
		c1.314,9.497,2.36,19.03,3.526,28.547c1.937,20.537,3.765,41.076,4.609,61.7c0.43,10.496,0.48,20.943-0.026,31.445
		c-0.932,19.295-1.3,38.613,1.218,57.855c0.561,4.286,1.286,8.617,1.192,12.911c-0.681,31.153,2.182,62.264,1.105,93.411
		c-0.275,7.963-1.434,15.891-1.999,23.849c-2.104,29.647,1.992,59.223,1.056,88.876c-0.52,16.482-1.943,32.859-3.22,49.281
		c-1.696,21.804-5.611,43.444-4.839,65.453c0.625,17.843-3.87,34.906-9.271,51.702c-1.879,5.843-5.728,10.821-8.793,16.133
		c-4.22,3.597-10.265,2.395-14.734,5.664c-1.329,0.972-2.248,4.456-5.145,2.17l0.044,0.048c-1.533-13.304,2.186-26.043,4.389-38.909
		c3.63-21.205,7.309-42.399,10.384-63.693c0.773-5.359-0.595-10.615-0.875-15.924c-1.234-23.464,1.948-46.461,7.409-69.161
		c3.734-15.523,4.224-31.371,4.282-47.071c0.093-25.037,2.442-49.79,5.735-74.526c0.993-7.455,0.913-14.936,0.03-22.411
		c-1.177-9.961-1.356-19.855,1.778-29.579c3.192-9.901,2.343-20.105,1.666-30.2c-1.137-16.952-1.658-33.908-1.86-50.894
		c-0.34-28.518-4.793-56.512-11.38-84.209c-7.862-33.06-13.687-66.522-19.695-99.951c-2.347-13.057-6.289-25.744-10-38.469
		C416.509,556.632,416.014,555.131,414.203,554.824z"></path>
	<path fill-rule="evenodd" clip-rule="evenodd" class="colour2" fill="#262262" d="M1005.618,419.935c3.634,4.513,2.285,10.15,3.175,15.223
		c2.501,14.251,2.677,28.712,2.109,43.144c-0.339,8.628-2.297,17.026-4.672,25.323c-4.881,17.052-5.599,34.329-2.625,51.777
		c-2.669,1.753-3.629,4.547-4.553,7.394c-6.728,20.726-10.135,42.199-13.836,63.563c-5.491,31.699-12.801,63-19.631,94.408
		c-2.513,11.554-3.204,23.319-4.59,35.007c-2.927,24.686-0.936,49.564-2.977,74.283c-0.396,4.807-0.404,9.678-1.22,14.41
		c-1.574,9.129,0.153,17.896,2.396,26.587c2.415,9.354,1.296,18.86,1.608,28.281c0.563,16.978,4.297,33.63,4.589,50.627
		c0.181,10.473,1.64,20.947,1.412,31.396c-0.555,25.437,2.88,50.335,8.43,75.054c4.388,19.545,3.495,39.418,2.364,59.138
		c-0.677,11.798-0.185,23.069,3.199,34.429c5.123,17.197,7.175,35.047,10.212,52.688c1.415,8.221,2.288,16.409,2.039,25.285
		c-3.604-3.11-6.958-5.997-10.948-7.944c-1.665-5.746-4.561-10.993-6.709-16.538c-7.438-19.195-13.889-38.684-14.027-59.557
		c-0.115-17.338-1.597-34.521-4.478-51.596c-6.021-35.683-8.679-71.57-7.644-107.781c0.575-20.135-1.997-40.151-3.656-60.21
		c-1.451-17.546-1.145-35.242-1.474-52.875c-0.177-9.486-1.938-18.937-1.108-28.419c1.417-16.214,3.412-32.361,3.647-48.686
		c0.125-8.65,0.674-17.327,0.203-25.951c-1.511-27.641,0.842-55.26,0.127-82.891c-0.237-9.147-0.044-18.306-0.047-27.459
		c0.692-4.559,1.322-9.128,2.086-13.676c2.797-16.649,4.505-33.514,10.069-49.613c1.56-4.51,3.36-8.989,3.78-13.826
		c0.372-1.08,0.851-2.135,1.1-3.242c3.872-17.219,7.73-34.44,11.556-51.669c1.889-8.504,3.702-17.024,5.549-25.537
		c3.328-10.165,6.648-20.332,9.986-30.494c1.987-6.052,2.069-12.285,2.337-18.588c0.354-8.333-0.378-17.059,5.11-24.379
		C1000.879,424.659,1003.248,422.297,1005.618,419.935z"></path>
	<path fill-rule="evenodd" clip-rule="evenodd" class="colour4" fill="#BCBEC0" d="M962.872,580.93c-0.42,4.837-2.221,9.316-3.78,13.826
		c-5.564,16.1-7.272,32.964-10.069,49.613c-0.764,4.547-1.394,9.117-2.086,13.676c-6.075,7.667-12.49,15.025-19.07,22.275
		c-8.922,9.83-20.574,15.072-32.182,20.394c-9.761,4.475-18.877,9.832-27.183,16.622c-16.34,13.358-35.457,22.354-53.107,33.658
		c-33.506,21.459-68.375,40.759-101.043,63.541c-4.625,3.225-7.99,0.008-10.8-1.709c-21.876-13.368-44.834-24.809-66.816-37.977
		c-30.26-18.127-60.863-35.691-90.869-54.225c-9.982-6.166-20.215-11.479-30.969-15.913c-13.82-5.699-25.531-14.195-35.402-25.39
		c-5.053-5.731-10.413-11.192-15.634-16.775c-1.167-9.518-2.213-19.051-3.527-28.547c-1.946-14.065-4.081-28.104-6.136-42.153
		c8.829,7.909,19.491,13.356,28.295,21.346c10.405,9.442,22.036,17.217,34.456,23.813c15.149,8.045,31.107,14.507,45.781,23.487
		c11.073,6.776,22.074,13.644,33.903,19.145c13.756,6.398,25.928,15.586,39.023,23.154c23.343,13.49,46.404,27.475,70.177,40.217
		c2.079,1.113,3.715,2.1,6.295,0.374c30.896-20.66,63.045-39.338,94.76-58.663c28.997-17.67,57.347-36.518,87.639-52.052
		c8.013-4.109,15.343-9.367,22.641-14.655c12.146-8.803,22.347-20.029,35.13-28.029C956.264,587.504,959.747,584.414,962.872,580.93
		z"></path>
	<g>
		<path fill-rule="evenodd" clip-rule="evenodd" class="colour1" fill="#009FDA" d="M982.103,1220.007c-4.269-1.896-8.612-3.398-13.401-2.526
			c-0.475-0.02-0.952-0.037-1.429-0.055c-8.423-2.487-16.889-4.891-25.699-5.398c-25.733-1.484-51.471-2.904-77.214-4.197
			c-39.886-2.003-79.759-5.394-119.725-3.498c-20.843,0.988-41.601-0.468-62.395-0.602c-14.941-0.096-29.883-2.162-44.87-1.619
			c-32.93,1.19-65.887,1.947-98.791,3.421c-25.013,1.121-50.085,3.255-74.933,7.097c-6.219,0.961-12.583,1.061-18.754,2.534
			c3.065-5.312,6.914-10.29,8.793-16.133c5.401-16.796,9.897-33.859,9.271-51.702c-0.772-22.009,3.144-43.649,4.839-65.453
			c1.277-16.422,2.7-32.799,3.22-49.281c0.936-29.653-3.16-59.229-1.056-88.876c0.564-7.958,1.723-15.886,1.999-23.849
			c1.077-31.147-1.786-62.258-1.105-93.411c0.094-4.294-0.631-8.625-1.192-12.911c-2.518-19.242-2.149-38.561-1.218-57.855
			c0.507-10.502,0.456-20.949,0.026-31.445c-0.844-20.624-2.673-41.163-4.609-61.699c5.222,5.583,10.581,11.044,15.634,16.775
			c9.871,11.195,21.582,19.69,35.402,25.39c10.754,4.435,20.986,9.747,30.969,15.913c30.006,18.533,60.609,36.098,90.869,54.225
			c21.982,13.168,44.94,24.608,66.816,37.977c2.81,1.717,6.175,4.934,10.8,1.709c32.668-22.782,67.537-42.082,101.043-63.541
			c17.65-11.304,36.768-20.3,53.107-33.658c8.306-6.79,17.422-12.147,27.183-16.622c11.607-5.322,23.26-10.564,32.182-20.394
			c6.58-7.25,12.995-14.609,19.07-22.275c0.003,9.153-0.19,18.312,0.047,27.459c0.715,27.631-1.638,55.25-0.127,82.891
			c0.471,8.624-0.078,17.301-0.203,25.951c-0.235,16.324-2.23,32.472-3.647,48.686c-0.829,9.482,0.932,18.933,1.108,28.419
			c0.329,17.633,0.022,35.329,1.474,52.875c1.659,20.059,4.231,40.075,3.656,60.21c-1.035,36.211,1.623,72.099,7.644,107.781
			c2.881,17.075,4.362,34.258,4.478,51.596c0.139,20.873,6.589,40.361,14.027,59.557
			C977.541,1209.014,980.437,1214.261,982.103,1220.007z"></path>
		<path fill-rule="evenodd" clip-rule="evenodd" class="colour1" fill="#009FDA" d="M1005.618,419.935c-2.37,2.362-4.739,4.724-7.108,7.086
			c-2.363-0.042-3.985,1.566-5.773,2.705c-14.046,8.943-28.034,17.978-42.081,26.918c-28.655,18.237-57.356,36.401-85.996,54.663
			c-10.24,6.529-20.323,13.306-30.54,19.873c-10.641,6.839-20.949,14.172-31.956,20.47c-18.322,10.484-37.81,18.838-55.135,31.184
			c-11.077,7.894-22.101,15.995-34.358,22.145c-2.382,1.195-4.15,1.283-6.441-0.067c-14.344-8.453-28.865-16.609-43.125-25.199
			c-19.528-11.764-38.632-24.249-58.359-35.663c-28.969-16.761-58.867-31.97-87.377-49.457
			c-32.143-19.715-64.069-39.87-94.936-61.602c-2.908-6.473-4.125-14.038-11.421-17.673c2.485-14.527,5.146-28.989,13.671-41.539
			c1.487-2.189,2.977-4.439,4.028-6.852c9.297-21.338,23.201-39.458,39.071-56.211c0.897-0.948,2.023-1.735,3.161-2.391
			c21.156-12.183,42.719-23.697,63.759-36.008c20.757-12.146,40.233-26.733,51.726-49.145c11.103,11.955,25.646,18.66,39.879,25.684
			c14.762,7.284,31.119,8.935,47.022,12.061c10.229,2.011,20.51,3.749,30.754,5.605c1.281,0.092,2.576,0.188,3.872,0.285
			c8.822-0.161,17.405-1.786,26.008-3.695c13.097-2.907,26.38-4.979,39.47-7.912c21.47-4.812,40.019-15.476,56.799-29.445
			c11.245,16.056,26.016,28.171,42.118,39.128c15.022,10.223,30.779,19.01,46.695,27.671c10.333,5.623,21.275,11.126,29.664,19.087
			c12.854,12.2,23.474,26.636,32.655,42.015c10.964,18.364,20.279,37.327,24.068,58.595
			C1005.882,414.785,1007.089,417.338,1005.618,419.935z"></path>
	</g>
	<path class="colour2" fill="#262262" d="M830.776,208.159c-4.183-7.345-3.672-15.668-4.506-23.617c-0.471-4.49-2.147-7.173-5.664-9.709
		c-14.104-10.175-30.438-13.284-47.069-13.661c-42.193-0.957-84.412-0.584-126.601-2.276c-18.293-0.734-35.055,4.235-49.907,15.279
		c-3.333,2.479-4.93,5.285-5.39,9.467c-0.879,8.007-0.307,16.276-3.666,23.911c-1.401,5.119-3.061,10.211-1.547,15.618
		c11.103,11.955,25.645,18.66,39.879,25.684c14.762,7.284,31.119,8.935,47.022,12.061c10.229,2.011,20.51,3.749,30.769,5.609
		c0.45,0.087,0.815,0.107,1.124,0.08c0.91,0.066,1.818,0.133,2.733,0.201c8.822-0.161,17.405-1.786,26.008-3.695
		c13.097-2.907,26.38-4.979,39.47-7.912c21.47-4.812,40.019-15.476,56.799-29.445C833.848,219.994,834.291,214.138,830.776,208.159z
		 M705.594,266.528c-0.011,0.003-0.023,0.007-0.034,0.01C705.571,266.535,705.583,266.532,705.594,266.528z M705.894,266.388
		c-0.006,0.004-0.011,0.009-0.018,0.013C705.883,266.397,705.888,266.392,705.894,266.388z M706.333,265.697
		c0.015-0.063,0.03-0.125,0.039-0.195C706.363,265.571,706.349,265.635,706.333,265.697z M706.39,265.274
		c0.003-0.1,0.002-0.206-0.003-0.317C706.392,265.067,706.394,265.175,706.39,265.274z M706.289,264.122
		c0.042,0.226,0.068,0.431,0.086,0.625C706.357,264.552,706.331,264.348,706.289,264.122z"></path>
	<path fill-rule="evenodd" clip-rule="evenodd" class="colour3" fill="#d71920" d="M422.431,432.989c30.867,21.732,62.793,41.887,94.936,61.602
		c28.51,17.487,58.408,32.696,87.377,49.457c19.727,11.414,38.831,23.899,58.359,35.663c14.26,8.59,28.782,16.746,43.125,25.199
		c2.291,1.35,4.059,1.263,6.441,0.067c12.258-6.15,23.281-14.25,34.358-22.145c17.325-12.346,36.813-20.7,55.135-31.184
		c11.007-6.298,21.315-13.631,31.956-20.47c10.217-6.567,20.3-13.344,30.54-19.873c28.64-18.262,57.341-36.426,85.996-54.663
		c14.047-8.94,28.035-17.975,42.081-26.918c1.788-1.139,3.41-2.748,5.773-2.705c-5.488,7.32-4.757,16.046-5.11,24.379
		c-0.268,6.304-0.35,12.536-2.337,18.588c-3.338,10.162-6.658,20.329-9.986,30.494c-4.002,2.973-8.055,5.882-11.998,8.932
		c-23.688,18.32-48.329,35.328-72.975,52.293c-20.961,14.43-42.781,27.577-64.869,40.25c-20.184,11.581-40.963,22.138-60.334,35.121
		c-18.656,12.503-37.833,24.16-57.39,35.199c-2.789,1.574-5.145,1.993-8.355,0.514c-3.813-1.756-7.247-4.037-10.84-6.096
		c-17.169-9.837-34.817-18.768-52.396-27.834c-31.494-16.244-60.317-37.025-91.436-53.917c-11.4-6.189-22.493-12.95-33.936-19.056
		c-17.06-9.102-33.057-19.808-48.513-31.351c-10.497-7.839-20.204-16.73-31.431-23.601c-3.903-16.918-9.608-33.413-12.144-50.645
		C423.131,451.256,424.16,442.014,422.431,432.989z"></path>
	<path fill-rule="evenodd" clip-rule="evenodd" class="colour2" fill="#262262" d="M436.604,510.935c11.227,6.871,20.934,15.762,31.431,23.601
		c15.456,11.542,31.453,22.249,48.513,31.351c11.443,6.105,22.536,12.867,33.936,19.056c31.119,16.893,59.942,37.673,91.436,53.917
		c17.579,9.067,35.227,17.997,52.396,27.834c3.593,2.059,7.026,4.339,10.84,6.096c3.21,1.479,5.566,1.061,8.355-0.514
		c19.557-11.039,38.733-22.695,57.39-35.199c19.371-12.982,40.15-23.54,60.334-35.121c22.088-12.673,43.908-25.821,64.869-40.25
		c24.646-16.965,49.287-33.973,72.975-52.293c3.943-3.05,7.996-5.958,11.998-8.932c-1.847,8.513-3.66,17.033-5.549,25.537
		c-3.825,17.229-7.684,34.451-11.556,51.669c-0.249,1.107-0.728,2.162-1.1,3.242c-3.125,3.484-6.608,6.574-10.572,9.055
		c-12.783,8-22.983,19.226-35.13,28.029c-7.298,5.289-14.628,10.546-22.641,14.655c-30.292,15.534-58.642,34.381-87.639,52.052
		c-31.715,19.325-63.863,38.003-94.76,58.663c-2.58,1.726-4.216,0.739-6.295-0.374c-23.773-12.742-46.833-26.728-70.177-40.217
		c-13.096-7.568-25.268-16.756-39.023-23.154c-11.829-5.501-22.83-12.369-33.903-19.145c-14.674-8.98-30.632-15.442-45.781-23.487
		c-12.42-6.596-24.051-14.371-34.456-23.813c-8.805-7.99-19.467-13.438-28.295-21.346C447.21,565.12,440.11,538.418,436.604,510.935
		z"></path>
</g>
</svg>