<svg version="1.1" id="Layer_1___eovV7kIx" xmlns="http://www.w3.org/2000/svg" xmlns:xlink="http://www.w3.org/1999/xlink" x="0px" y="0px" width="1417.32px" height="1417.32px" viewBox="0 0 1417.32 1417.32" enable-background="new 0 0 1417.32 1417.32" xml:space="preserve">
<g>
	<path fill-rule="evenodd" clip-rule="evenodd" class="colour1" fill="#009FDA" d="M1063.126,523.215c-3.152,12.955-5.327,26.218-5.755,39.399
		c-1.258,38.672-8.047,76.276-18.176,113.506c-6.114,22.472-11.887,45.155-13.66,68.491c-0.95,12.517-1.057,25.097-3.924,37.387
		c-1.865,7.994-4.656,15.702-5.351,24.056c-0.464,5.587,0.096,10.978,0.527,16.413c1.383,17.462-2.748,34.305-5.082,51.385
		c-2.255,16.488-4.903,32.952-5.524,49.648c-0.497,13.338-1.663,26.649-2.173,39.986c-1.146,30.035,4.569,59.326,9.751,88.694
		c4.323,24.492,8.438,49.021,10.405,73.874c1.861,23.5,2.705,47.029,3.63,70.574c0.88,22.375,1.737,44.747,2.497,67.125
		c0.298,8.756,0.039,17.668,1.786,26.405c1.32,6.601-3.546,10.679-7.372,14.643c-9.398,9.738-21.751,14.663-34.178,19.059
		c-36.334,12.853-73.563,22.282-111.819,27.084c-29.181,3.662-58.434,6.482-87.891,7.607c-42.105,1.607-84.203,1.23-126.276,0.441
		c-29.374-0.55-58.728-2.892-87.98-6.389c-37.378-4.47-74.635-9.539-111.045-19.266c-21.226-5.67-42.206-12.329-62.373-21.229
		c-6.148-2.714-10.483-7.487-14.237-12.895c-1.084-1.563-1.15-3.06-0.935-4.961c0.77-6.815,1.438-13.661,1.672-20.512
		c0.621-18.072,0.793-36.162,1.515-54.229c0.964-24.127,1.583-48.299,3.597-72.347c3.549-42.376,8.484-84.598,17.834-126.19
		c4.628-20.582,5.378-41.477,4.584-62.543c-1.324-35.145-4.647-69.979-12.416-104.364c-1.746-7.731-1.728-15.798-1.212-23.941
		c0.928-14.646,1.437-29.392-3.767-43.714c-4.194-11.543-4.456-23.918-4.959-36.003c-0.759-18.19-4.958-35.647-8.957-53.235
		c-6.251-27.491-14.097-54.649-18.112-82.611c-1.864-12.987-3.092-26.069-4.161-39.171c-0.878-10.751-0.08-21.617-2.231-32.264
		c0.18-8.021-0.175-15.966-3.354-23.508c-9.892-31.035-9.295-62.092-1.314-93.499c5.366-21.118,13.064-41.516,18.503-62.542
		c8.682-33.559,26.291-62.281,48.17-88.127c21.081-24.901,45.325-46.929,70.959-67.319c15.572-12.386,33.358-21.495,48.746-34.169
		c9.25-7.619,17.153-16.739,27.042-23.586c15.597,13.947,33.442,23.909,53.374,30.211c16.144,5.105,32.89,7.04,49.531,9.533
		c16.74,2.508,33.521,3.427,50.482,2.632c13.984-0.656,27.699-3.03,41.452-5.101c23.858-3.594,46.411-11.052,66.83-24.354
		c5.761-3.754,10.086-9.278,16.217-12.491c6.515,4.753,11.931,10.728,17.927,16.057c6.016,5.347,11.882,10.979,18.462,15.554
		c29.372,20.422,57.469,42.223,84.071,66.336c26.906,24.389,47.202,53.147,63.674,84.694c14.899,28.533,23.29,59.645,31.092,90.884
		c6.584,26.361,7.584,52.61,3.339,79.281C1065.521,510.173,1062.946,516.455,1063.126,523.215z"></path>
	<path fill-rule="evenodd" clip-rule="evenodd" class="colour1" fill="#009FDA" d="M1063.126,523.215c-0.18-6.761,2.396-13.042,3.438-19.597
		c4.245-26.67,3.245-52.92-3.339-79.281c-7.802-31.239-16.192-62.351-31.092-90.884c-16.472-31.547-36.768-60.305-63.674-84.694
		c-26.603-24.114-54.699-45.915-84.071-66.336c-6.58-4.576-12.446-10.208-18.462-15.554c-5.996-5.329-11.412-11.304-17.926-16.056
		c0.075-1.78,1.419-2.75,2.533-3.818c11.205-10.739,15.688-24.053,15.127-39.313c19.679,8.292,38.684,18.037,58.09,26.904
		c41.406,18.921,84.408,33.401,128.454,44.879c14.313,3.73,27.332,10.752,40.418,17.444c17.272,8.835,35.669,15.561,51.93,26.241
		c22.482,14.767,39.168,35.106,51.697,58.621c13.259,24.884,26.412,49.9,32.726,77.788c3.348,14.789,4.594,29.84,6.146,44.837
		c1.454,14.069,4.704,27.817,6.493,41.816c1.86,14.564,3.165,29.242,7.313,43.429c5.083,17.391,12.962,33.595,21.34,49.554
		c1.551,2.954,1.62,4.573-0.818,6.983c-11.851,11.714-25.962,20.185-39.979,28.911c-34.545,21.504-71.578,37.188-110.711,47.992
		c-10.004,2.762-20.188,4.967-30.765,4.298c-3.146-0.198-4.803-1.191-6.137-4.19c-7.413-16.659-11.117-34.187-12.937-52.21
		c-0.295-2.925-0.216-6.061-1.283-8.706c-4.804-11.89-3.166-24.298-3.464-36.559
		C1064.148,524.762,1064.253,523.722,1063.126,523.215z"></path>
	<path fill-rule="evenodd" clip-rule="evenodd" class="colour1" fill="#009FDA" d="M570.114,150.381c-9.89,6.847-17.792,15.967-27.042,23.586
		c-15.388,12.674-33.174,21.783-48.746,34.169c-25.634,20.39-49.878,42.417-70.959,67.319
		c-21.879,25.846-39.488,54.568-48.17,88.127c-5.439,21.026-13.137,41.424-18.503,62.542c-7.981,31.407-8.578,62.463,1.314,93.499
		c-0.101,4.545-0.202,9.092-0.302,13.638c-1.514,14.636-3.251,29.252-4.476,43.913c-1.155,13.836-4.887,26.934-10.002,39.733
		c-1.061,2.655-3.102,3.106-5.656,3.215c-10.777,0.46-21.439-1.788-31.091-5.471c-21.267-8.116-43.404-13.472-64.599-21.68
		c-29.804-11.541-59.473-23.356-86.314-41.114c-0.983-0.65-2.002-1.261-2.912-2.004c-3.687-3.013-5.5-5.704-2.424-11.005
		c16.959-29.23,24.581-61.137,27.105-94.686c1.127-14.99,5.278-29.726,7.128-44.692c5.591-45.227,23.191-85.904,45.395-125.134
		c16.015-28.295,39.839-47.949,67.691-62.874c20.703-11.094,42.446-20.279,63.912-29.902c12.39-5.555,26.075-6.892,39.013-10.739
		c37.821-11.247,74.437-25.52,109.898-42.86c14.224-6.955,28.904-12.977,43.377-19.422c-0.73,2.854-0.849,5.66-0.267,8.622
		C555.964,129.792,560.443,141.371,570.114,150.381z"></path>
	<path fill-rule="evenodd" clip-rule="evenodd" class="colour2" fill="#262262" d="M865.662,107.682c-7.306-6.492-17.811-8.278-23.973-16.513
		c-7.655-10.229-18.992-13.64-30.678-16.955c-23.702-6.725-47.973-7.723-72.294-8.051c-40.061-0.542-80.129-0.519-119.712,7.106
		c-11.925,2.297-24.25,4.263-33.766,12.455c-8.573,7.381-16.197,15.819-27.367,19.541c-1.564,0.521-2.757,2.153-4.122,3.271
		c-0.73,2.854-0.849,5.66-0.267,8.622c2.48,12.634,6.96,24.214,16.631,33.224c15.597,13.947,33.442,23.909,53.374,30.211
		c16.144,5.105,32.89,7.04,49.531,9.533c16.74,2.508,33.521,3.427,50.482,2.632c13.984-0.656,27.699-3.03,41.452-5.101
		c23.858-3.594,46.411-11.052,66.83-24.354c5.761-3.754,10.086-9.278,16.218-12.49c0.075-1.78,1.419-2.75,2.533-3.818
		C861.739,136.255,866.222,122.942,865.662,107.682z"></path>
	<g>
		<path class="colour3" fill="#d71920" d="M150.035,540.99c0.054-0.002,0.104-0.011,0.157-0.014c-0.034-0.021-0.062-0.043-0.1-0.062L150.035,540.99z
			"></path>
		<path class="colour3" fill="#d71920" d="M509.755,479.576c-0.748,0.894-1.707,1.076-2.789,0.833c-0.275,0.231-0.592,0.303-0.945,0.215
			c-7.7,2.842-15.598,4.941-23.69,6.313c-30.856,8.856-61.708,17.726-92.58,26.527c-1.464,0.417-3.099,0.232-4.654,0.328
			c-0.38,0.295-0.761,0.59-1.142,0.886c-0.149-0.203-0.297-0.405-0.445-0.607c0.501-0.125,1.003-0.249,1.504-0.374
			c1.206-2.32,3.681-2.844,5.719-3.899c23.926-12.393,48.672-23.001,73.395-33.661c1.056-0.455,2.35-0.488,3.045-2.067
			c-2.251-0.887-4.099,0.516-5.884,1.109c-28.686,9.539-57.442,18.831-86.898,25.765c-1.901,0.447-3.849,0.695-5.774,1.036
			c-1.265,0.459-2.496,1.117-3.801,1.334c-2.538,0.423-5.862,2.815-7.481,0.356c-1.907-2.897-0.109-6.314,2.282-8.897
			c0.395-0.427,0.792-0.851,1.188-1.276c-0.503-0.901-1.007-1.803-1.511-2.704c-2.466,1.786-5.908,1.952-7.114,5.907
			c-0.548,1.794-2.556-0.323-2.941-1.738c-1.084-3.986-2.728-2.893-4.627-0.686c-0.128,0.149-0.306,0.266-0.4,0.432
			c-5.989,10.605-14.929,11.593-25.482,8.093c-4.166-1.382-8.51-0.765-12.838-0.063c-18.465,2.996-37.179,2.527-55.775,3.67
			c-21.251,1.308-42.187,4.245-62.76,9.711c-5.321,1.414-10.491,3.243-15.485,5.611c-5.625,2.667-10.291,6.079-13.407,11.813
			c-1.727,3.178-3.586,7.161-8.271,7.433c1.149,0.699-0.213,2.116,1.231,3.225c24.109,18.518,52.875,27.316,80.438,38.528
			c15.981,6.501,32.098,12.636,47.485,20.483c1.561,0.796,4.088,0.569,4.203,3.287c2.974,0.947,6.018,1.72,8.91,2.873
			c9.63,3.84,19.2,7.839,29.716,8.606c7.148-0.27,14.514,1.539,21.297-2.225c5.706-13.255,8.692-27.066,9.956-41.483
			c1.538-17.552,3.734-35.052,4.823-53.28c1.663,2.673,1.802,5.021,2.068,7.324c1.266,10.929,2.077,21.888,2.658,32.879
			c0.253,4.785-0.281,9.817,2.271,14.336c1.452,2.57,2.887,3.499,4.191,0.155c3.215-8.249,10.138-12.805,16.98-17.442
			c6.812-4.615,13.715-9.093,20.579-13.631c-0.13-0.26-0.261-0.521-0.392-0.781c-12.517,3.932-25.034,7.864-37.551,11.796
			c3.922-5.844,9.618-8.465,15.302-10.877c23.689-10.054,47.456-19.926,71.211-29.825c33.537-13.976,67.81-26.259,99.966-43.411
			c4.378-2.335,8.948-4.422,12.288-8.595C548.402,468.462,529.332,474.915,509.755,479.576z"></path>
	</g>
	<g>
		<path fill-rule="evenodd" clip-rule="evenodd" class="colour3" fill="#d71920" d="M1025.062,747.388c-0.313,1.519-0.759,3.022-0.923,4.557
			c-2.18,20.423-6.819,40.213-14.529,59.305c-4.778,11.833-9.872,23.64-13.355,35.875c-9.039,31.741-17.941,63.494-30.085,94.241
			c-7.359,18.633-13.571,37.777-21.904,55.955c-10.442,22.785-22.081,45.064-36.229,65.886c0.087,1.044,0.173,2.089,0.258,3.135
			c10.02-11.262,20.611-22.056,28.677-34.931c0.577-0.919,1.511-2.236,2.795-1.261c1.406,1.069-0.194,1.981-0.588,2.952
			c-3.075,7.58-6.78,14.831-10.694,22.023c-19.896,36.56-46.289,67.547-78.875,93.394c-11.702,9.283-24.469,16.969-36.709,25.44
			c0.272,0.293,0.545,0.585,0.816,0.877c31.649-15.696,61.229-34.703,89.249-56.258c-47.982,58.138-112.092,93.855-177.389,128.315
			c2.313,0.845,4.105,0.161,6.021-0.349c40.982-10.908,78.94-28.988,115.962-49.175c43.188-23.548,78.884-55.421,105.902-96.731
			c2.613-4.713,5.226-9.426,7.838-14.14c-1.117,5.577-2.865,10.832-6.428,15.27c-11.205,21.085-24.581,40.627-41.848,57.62
			c2.469,0.879,4.071,0.147,5.536-0.909c8.757-6.321,18.245-11.864,26.096-19.167c24.449-22.74,39.242-51.302,47.558-83.375
			c4.606-17.765,5.881-36.058,8.311-54.17c1.214-9.046,0.66-18.305,3.32-27.167c0.81-16.239,1.81-32.472,2.379-48.721
			c0.619-17.641,3.243-35.052,5.635-52.478c2.342-17.047,6.901-33.94,4.816-51.283c-1.613-13.409,1.052-25.928,4.521-38.691
			C1024.374,771.736,1025.869,759.625,1025.062,747.388z"></path>
		<path fill-rule="evenodd" clip-rule="evenodd" class="colour3" fill="#d71920" d="M632.544,1162.672c-12.818,6.057-26.276,10.517-39.711,14.969
			c-13.428,4.447-26.91,8.739-40.436,12.879c-13.273,4.062-26.466,8.524-40.354,10.142c24.465-9.182,48.12-20.202,72.181-30.252
			c42.303-17.669,81.595-40.696,119.396-66.358c14.289-9.7,27.373-21.203,41.821-30.634c21.518-14.044,40.639-30.797,59.04-48.524
			c-0.388-0.435-0.775-0.869-1.159-1.307c-8.099,6.41-15.727,13.561-24.387,19.1c-27.653,17.688-55.542,35.022-83.627,52.021
			c-22.058,13.35-45.544,24.064-69.046,34.532c-26.576,11.837-54.305,20.797-81.746,30.437
			c-10.355,3.638-20.343,8.404-30.827,11.568c-19.548,5.898-39.738,9.449-59.252,15.576c-7.751,2.433-15.639,4.432-23.372,6.602
			c-0.513-1.796,0.384-2.312,1.267-2.754c7.905-3.957,15.901-7.695,24.215-10.756c24.106-8.874,49.458-14.129,72.525-26.111
			c16.205-8.416,33.378-14.93,49.531-23.522c6.067-3.228,11.849-6.992,17.761-10.513c-0.256-0.466-0.514-0.933-0.771-1.399
			c-7.229,2.169-13.98,5.678-21.124,8.118c-26.623,9.098-53.591,17.022-81.08,22.788c-24.728,5.188-49.826,8.511-74.478,14.305
			c-8.388,1.973-16.646,4.587-25.18,5.959c-1.533,34.563-3.698,69.102-3.914,103.716c3.224-3.323,7.318-5.224,11.443-7.12
			c19.31-8.88,39.581-15.307,59.23-23.318c34.025-13.874,68.809-25.743,103.07-39.018c44.007-17.049,86.063-37.518,125.104-64.03
			c6.702-4.55,13.705-8.815,19.344-14.913c-12.507,6.394-24.684,13.335-37.407,19.244
			C657.804,1150.042,645.307,1156.64,632.544,1162.672z M427.596,1194.741c-2.768,3.526-7.162,2.172-10.628,3.697
			c2.792-3.185,7.025-3.401,10.364-5.39c0.855-0.156,2.146-1.034,2.452,0.065C430.199,1194.596,428.566,1194.474,427.596,1194.741z"></path>
		<path fill-rule="evenodd" clip-rule="evenodd" class="colour3" fill="#d71920" d="M500.315,1085.04c13.256-7.597,27.079-14.094,39.582-23.192
			c5.705-4.152,12.63-6.918,17.942-11.972c-0.536-0.618-1.072-1.235-1.604-1.854c-3.855,1.923-7.679,3.922-11.578,5.762
			c-26.286,12.406-53.912,21.517-80.706,32.69c-12.814,5.344-26.263,9.168-39.424,13.68c-0.754,0.551-1.912,1.318-2.39,0.421
			c-0.68-1.274,0.901-1.032,1.572-1.373c7.834-5.328,16.799-8.414,25.169-12.68c8.49-4.325,17.27-8.157,25.052-15.248
			c-1.733,0.121-2.794-0.085-3.575,0.291c-13.076,6.303-27.15,8.995-41.323,10.98c-9.031,1.264-18.064,4.232-27.357,1.581
			c-0.247,1.729-0.54,3.454-0.735,5.188c-1.842,16.404-4.286,32.746-5.235,49.246c17.472-6.036,33.228-15.809,50.088-23.25
			C464.734,1106.952,482.269,1095.383,500.315,1085.04z"></path>
	</g>
	<g>
		<path fill-rule="evenodd" clip-rule="evenodd" class="colour4" fill="#bcbec0" d="M433.523,1008.64c0.004-0.009,0.009-0.016,0.013-0.024
			c-0.009-0.002-0.016-0.001-0.024-0.003c-0.021,0.025-0.042,0.05-0.063,0.075C433.474,1008.672,433.499,1008.656,433.523,1008.64z"></path>
		<path fill-rule="evenodd" clip-rule="evenodd" class="colour4" fill="#bcbec0" d="M749.532,770.994c-15.753,14.833-30.044,31.056-44.304,47.279
			c-14.101,16.043-30.003,30.003-47.107,42.69c-33.162,24.595-67.258,47.894-101.408,71.046
			c-32.281,21.885-65.449,42.533-99.633,61.43c-7.853,5.067-15.705,10.134-23.557,15.2c-0.701,1.54-2.008,2.173-3.584,2.4
			c-0.483,0.609-0.967,1.221-1.449,1.831c30.491,0.293,60.154-3.928,88.291-16.688c-24.023,18.607-53.836,24.447-80.142,37.886
			c8.351-2.052,16.423-4.877,24.626-7.247c28.151-8.134,55.515-18.347,82.132-30.589c12.844-5.908,25.797-11.586,38.555-17.674
			c15.219-7.263,30.65-14.103,45.423-22.277c2.592-3.811,5.876-6.873,9.889-9.147c23.597-21.914,46.53-44.591,71.865-64.535
			c16.509-12.998,26.212-31.206,37.908-47.847c11.076-15.759,21.036-32.343,33.181-47.311c18.577-22.896,34.246-47.422,45.35-74.819
			c11.145-27.5,22.459-54.918,38.394-80.156c13.438-21.28,21.929-44.773,29.442-68.612c6.704-21.266,10.641-43.104,12.365-65.336
			c-0.748-0.101-1.497-0.201-2.244-0.303c-0.671,7.466-2.388,14.737-4.03,22.03c-4.307,19.114-12.176,36.858-20.306,54.566
			c-4.855,10.576-10.443,20.616-16.682,30.435c-9.601,15.113-20.337,29.429-30.254,44.273c-14.51,21.718-27.02,44.761-40.724,67.028
			C779.464,736.153,766.435,755.08,749.532,770.994z"></path>
		<path fill-rule="evenodd" clip-rule="evenodd" class="colour4" fill="#bcbec0" d="M876.363,768.909c0.017-0.014,0.031-0.029,0.048-0.043
			c0.013-0.02,0.025-0.038,0.038-0.058L876.363,768.909z"></path>
		<path fill-rule="evenodd" clip-rule="evenodd" class="colour4" fill="#bcbec0" d="M414.616,1159.859c0.032-0.022,0.064-0.043,0.096-0.065
			c-0.048,0.003-0.099,0.004-0.146,0.008L414.616,1159.859z"></path>
		<path fill-rule="evenodd" clip-rule="evenodd" class="colour4" fill="#bcbec0" d="M689.765,1032.76c18.678-14.042,36.979-28.56,55.249-43.128
			c18.28-14.575,35.518-30.338,53.307-45.468c13.027-11.081,25.854-22.279,37.149-35.228c16.347-18.739,28.063-40.661,42.617-60.615
			c10.391-14.247,17.478-30.136,24.324-46.274c9.217-21.727,22.679-41.352,32.098-63.028c2.739-6.304,6.12-12.331,9.246-18.466
			c0.391-0.768,0.822-2.133,1.923-1.42c0.551,0.357,0.476,1.677,0.647,2.616c-1.653,0.712-1.542,2.074-1.267,3.496
			c-1.547,0.73-1.508,2.069-1.301,3.472c-1.127,0.486-1.305,1.374-1.063,2.44c-1.602,0.889-1.448,2.395-1.303,3.896
			c1.171-1.03,1.53-2.346,1.4-3.832c1.002-0.545,1.175-1.441,1.025-2.476c1.229-0.853,1.5-2.072,1.332-3.46
			c1.267-0.876,1.483-2.141,1.272-3.562c6.955-12.034,12.742-24.604,17.411-37.7c4.565-12.805,10.336-25.04,17.03-36.887
			c7.647-13.532,14.829-27.37,19.244-42.337c12.391-42.01,11.621-84.92,5.559-127.526c-4.45-31.28-13.875-61.721-21.732-92.38
			c-0.673,0.013-1.344,0.027-2.017,0.04c0.489,3.306,0.946,6.618,1.473,9.918c3.992,25.04,9.134,49.962,11.691,75.146
			c2.747,27.055,0.805,54.153-4.267,81.061c-4.052,21.495-13.097,41.194-20.707,61.335c-4.002,10.591-11.949,19.774-18.572,29.273
			c-9.794,14.045-20.343,27.666-25.298,44.379c-3.885,13.101-9.195,25.503-16.273,37.154c-6.236,10.268-13.789,19.603-21.085,29.109
			c-0.628,0.818-1.547,2.823-2.703,2.131c-0.091,0.771-0.586,1.564-1.007,2.259c-2.593,4.28-4.785,8.873-8.759,12.165
			c-0.538,0.804-1.075,1.607-1.606,2.4c-5.126,8.878-8.919,18.357-12.329,28.003c-9.745,27.572-24.325,52.774-38.688,78.034
			c-11.545,20.3-28.047,36.815-43.974,53.56c-21.401,22.5-44.725,43.047-67.999,63.597c-25.198,22.249-51.432,43.028-80.744,59.806
			c-24.05,13.764-48.249,27.241-73.063,39.538c-17.708,8.776-35.819,16.771-53.934,24.692
			c-20.318,8.885-40.832,17.322-61.282,25.903c-9.903,4.156-19.311,9.187-28.08,15.395c1.328-0.091,2.84,0.158,3.902-0.419
			c14.308-7.779,30.502-9.973,45.572-15.512c47.05-17.298,92.689-37.804,137.653-59.872c13.762-6.755,27.865-12.959,41.049-20.713
			C658.943,1053.836,674.825,1043.992,689.765,1032.76z"></path>
		<path fill-rule="evenodd" clip-rule="evenodd" class="colour4" fill="#bcbec0" d="M884.708,752.291l-0.048,0.086l0.31,0.392
			c0.427,0.938,0.829,1.447,1.207,1.674C886.269,753.662,885.945,752.903,884.708,752.291z"></path>
		<path fill-rule="evenodd" clip-rule="evenodd" class="colour4" fill="#bcbec0" d="M498.407,480.695c1.433-0.64,2.831-1.38,4.306-1.906
			c32.98-11.752,65-25.813,96.839-40.303c1.75-0.796,4.044-1.005,5.857-4.96c-23.733,0-46.326,0.565-68.879-0.126
			c-37.912-1.162-75.804-3.021-113.696-4.786c-18.819-0.876-37.565-3.491-56.477-2.087c-3.153,0.234-7.154-0.026-8.887,2.028
			c-2.207,2.616-2.692,1.297-4.202-0.042c-6.03-5.346-11.97-10.817-19.501-14.119c-6.293-2.759-12.525-5.657-18.781-8.491
			c-1.527-0.286-3.06-0.832-4.59-0.825c-19.492,0.084-38.615-3.572-57.842-5.946c-13.825-1.707-27.572-4.215-41.533-3.417
			c-10.774,0.615-21.054,3.059-27.771,12.821c-0.785,4.79-1.57,9.58-2.354,14.369c9.612-6.357,20.249-6.75,31.229-5.52
			c15.641,1.753,30.923,5.454,46.338,8.412c21.79,4.182,43.507,8.652,65.929,6.426c4.293-0.426,8.672-0.018,12.811,1.497
			c2.452,0.897,4.636,2.152,5.592,5.162c-19.544-5.995-37.203,5.898-55.779,2.941c12.667,2.563,25.138,3.277,37.92,0.341
			c5.715-1.313,13.043-3.221,17.749,3.604c2.86,4.148,4.113,9.1,11.629,4.32c11.987-7.623,26.548-6.981,40.598-9.472
			c-1.311,1.662-2.739,1.726-4.009,2.203c-11.673,4.381-24.45,5.14-35.375,12.408c-5.134,3.416-4.732,6.49-4.242,10.428
			c24.274-2.232,48.107-4.424,73.489-6.758c-11.551,8.134-21.908,15.196-32.006,22.61c-8.514,6.25-17.748,11.71-24.152,20.472
			c1.926-0.341,3.874-0.588,5.774-1.036c29.456-6.934,58.212-16.226,86.898-25.765c1.785-0.593,3.632-1.996,5.884-1.109
			c-0.695,1.579-1.99,1.612-3.045,2.067c-24.723,10.66-49.469,21.268-73.395,33.661c-2.039,1.055-4.514,1.579-5.72,3.898
			l0.083,0.097c1.556-0.096,3.19,0.089,4.654-0.328c30.872-8.802,61.724-17.671,92.58-26.527
			C487.516,484.41,492.742,481.986,498.407,480.695z M352.164,446.828c-0.061-0.083-0.09-0.19-0.117-0.298
			c-0.034-0.027-0.068-0.055-0.102-0.082c-0.004-0.026-0.011-0.048-0.015-0.073c-2.543-0.273-4.733-1.148-6.838-5.21
			c3.592,1.692,6.259,1.819,6.838,5.21c0.026,0.003,0.051,0.006,0.078,0.009c0.015,0.047,0.027,0.097,0.04,0.146
			c0.149,0.119,0.297,0.238,0.446,0.357C352.379,446.87,352.212,446.893,352.164,446.828z"></path>
		<path fill-rule="evenodd" clip-rule="evenodd" class="colour4" fill="#bcbec0" d="M237.247,304.784c4.066,0.592,8.132,1.251,12.152,2.101
			c20.554,4.343,40.845,9.851,60.479,17.207c16.871,6.321,33.022,14.538,49.682,21.462c7.896,3.282,15.401,8.164,24.275,8.438
			c21.777,0.674,43.563,1.074,65.346,1.584c1.721-0.033,3.48,0.148,5.156-0.146c2.997-0.525,1.889,1.403,1.835,2.753
			c23.474-2.256,46.901-4.985,70.092-9.263c33.43-6.167,66.792-12.713,100.15-19.261c29.886-5.867,59.787-11.686,89.568-18.053
			c16.887-3.61,33.492-8.517,50.331-12.373c8.808-2.017,17.661-3.806,26.341-6.341c-0.053-0.646-0.106-1.293-0.159-1.941
			c-9.89,1.62-19.804,3.105-29.665,4.884c-29.963,5.407-60,10.327-90.3,13.422c-43.789,4.473-87.578,8.956-131.399,13.093
			c-36.078,3.405-72.237,2.705-108.361,0.704c-12.894-0.715-25.915-1.048-38.401-5.09c-17.834-3.927-35.001-10.152-52.407-15.511
			c-27.089-8.34-54.537-14.3-82.905-15.644c-5.438-0.257-10.836,0.162-16.335-0.673c-8.919-1.354-16.089,3.9-23.437,7.984
			c-2.916,5.341-6.023,10.588-7.964,16.401C219.472,306.395,227.896,303.42,237.247,304.784z"></path>
		<path fill-rule="evenodd" clip-rule="evenodd" class="colour4" fill="#bcbec0" d="M1045.448,607.014c-4.622,21.702-10.289,43.152-15.473,64.719
			c-6.54,27.22-14.467,53.798-27.429,78.781c-6.053,11.666-11.068,23.882-16.308,35.956c-14.784,34.079-29.592,68.133-51.922,98.217
			c-1.171,3.317-3.373,5.895-5.908,8.233l-0.012-0.042c-0.249-0.003-0.396,0.12-0.439,0.359
			c-4.226,9.301-8.821,18.462-12.613,27.945c-11.626,29.08-24.976,57.379-41.829,83.722c-21.985,34.368-52.385,61.136-83.798,86.432
			c-23.985,19.316-48.407,38.159-74.036,55.394c-19.912,13.39-40.119,26.232-60.862,38.261c-7.417,4.301-14.868,8.548-23.205,13.337
			c3.734,0.451,5.942-0.836,8.152-1.823c42.131-18.826,82.023-41.561,119.524-68.477c16.436-11.798,33.593-22.563,49.268-35.455
			c15.35-12.624,29.438-26.614,44.318-39.74c6.633-5.852,13.71-11.326,19.162-18.323c19.038-24.426,34.364-51.252,48.775-78.517
			c9.722-18.391,15.42-38.73,25.717-56.938c13.104-23.171,23.521-47.552,32.68-72.494c2.267-6.172,4.139-12.488,6.192-18.737
			c-2.163,19.599-9.256,37.704-16.018,55.872c-6.783,18.227-14.36,36.158-21.07,54.411c-6.598,17.948-12.447,36.168-19.146,54.109
			c7.311-13.046,12.306-27.074,18.339-40.642c15.097-33.946,30.606-67.709,45.947-101.546c3.146-6.938,6.443-13.829,7.187-21.57
			c3.087-16.518,5.708-33.133,9.849-49.438c4.793-18.879,13.762-36.48,18.066-55.411c7.271-31.971,13.477-64.19,18.859-96.55
			C1046.76,607.045,1046.104,607.03,1045.448,607.014z M986.536,804.539c0.03-0.163,0.021-0.352,0.104-0.48
			c0.052-0.082,0.24-0.075,0.367-0.108c0.054,0.149,0.107,0.299,0.161,0.449C986.958,804.446,986.747,804.492,986.536,804.539z"></path>
		<polygon fill-rule="evenodd" clip-rule="evenodd" class="colour4" fill="#bcbec0" points="599.967,994.377 599.971,994.379 599.974,994.374 		"></polygon>
		<path fill-rule="evenodd" clip-rule="evenodd" class="colour4" fill="#bcbec0" d="M588.188,1004.387c-1.723,1.18-3.218,2.689-4.814,4.052
			c-1.083-0.151-1.88,0.306-2.475,1.2c1.158,0.287,2.103,0.122,2.532-1.145c2.314,0.631,4.109-0.698,5.97-1.681
			c5.213-2.752,10.245-5.911,15.631-8.262c12.259-5.348,24.195-11.343,35.601-18.261c36.327-22.037,69.993-47.897,103.706-73.613
			c15.158-11.563,29.017-25.01,41.148-39.671c32.468-39.239,59.262-82.59,87.844-124.617c10.987-16.156,22.302-32.439,27.909-51.629
			c2.026-6.934,5.773-13.273,6.977-20.482c-8.13,9.477-12.258,21.357-18.654,31.889c-9.84,16.202-21.394,31.091-32.464,46.275
			c-18.279,25.071-40.172,47.296-59.082,71.961c-12.547,16.365-26.007,32.048-39.405,47.739c-7.514,8.8-15.209,17.524-24.51,24.584
			c-0.537,0.407-1.144,1.328-1.803,1.377c-0.02,0.123-0.064,0.243-0.169,0.355c-3.936,4.242-7.681,8.807-13.773,10.138
			c-0.251,1.416-0.913,2.521-2.129,3.381c-17.812,12.614-33.396,27.95-50.499,41.418c-12.014,9.459-23.544,19.665-37.369,26.605
			c-1.572,4.392-5.699,5.821-9.219,7.957c-4.613,2.349-7.967,6.724-13.141,8.169c-2.032,0.691-3.073,4.043-6.029,2.252
			C597.185,999.063,592.47,1001.454,588.188,1004.387z"></path>
		<path fill-rule="evenodd" clip-rule="evenodd" class="colour4" fill="#bcbec0" d="M731.068,892.865c0,0-0.03,0.045-0.029,0.044
			c0.437,0.932,0.858,1.225,1.26,1.194C732.38,893.586,731.78,893.028,731.068,892.865z"></path>
		<path fill-rule="evenodd" clip-rule="evenodd" class="colour4" fill="#bcbec0" d="M429.918,1010.971c-0.006,0.027-0.015,0.049-0.021,0.076
			c0.014-0.002,0.027-0.005,0.041-0.007c0.018-0.023,0.036-0.046,0.054-0.068C429.966,1010.97,429.944,1010.973,429.918,1010.971z"></path>
		<path fill-rule="evenodd" clip-rule="evenodd" class="colour4" fill="#bcbec0" d="M433.512,1008.612c6.318-7.868,14.672-13.091,23.327-17.919
			c8.102-5.105,16.683-9.593,24.22-15.428c29.688-22.985,62.086-42.336,90.113-67.542c17.276-15.534,36.958-28.063,54.603-43.149
			c21.917-18.739,42.191-38.963,57.092-63.96c1.005-1.686,3.202-3.159,1.921-5.691c-0.466,0.022-0.988-0.113-1.201,0.085
			c-1,0.927-2.005,1.872-2.845,2.94c-22.297,28.374-50.36,50.217-80.496,69.334c-20.932,13.278-41.565,26.944-61.713,41.342
			c-28.167,20.127-57.748,38.063-87.025,56.456c-10.112,6.354-20.833,11.718-30.013,19.51c-2.458,2.086-4.444,4.146-4.648,7.754
			c-0.309,5.46-1.201,10.888-1.846,16.33c3.763,2.945,8.279,3.595,12.809,4.202c0.06-1.371,0.788-1.976,2.107-1.905
			C430.334,1009.015,431.564,1008.277,433.512,1008.612z"></path>
		<path fill-rule="evenodd" clip-rule="evenodd" class="colour4" fill="#bcbec0" d="M308.479,221.229c7.652,1.793,15.451,3.302,22.798,5.995
			c27.298,10.008,54.835,19.526,81.518,31.004c25.035,10.769,50.688,13.747,77.29,11.374c19.382-1.73,38.691-4.256,58.041-6.358
			c26.361-2.864,52.875-4.269,79.118-8.263c-0.026-0.656-0.053-1.313-0.079-1.969c-6.982,0.67-13.96,1.848-20.95,1.923
			c-33.43,0.362-66.836,1.134-100.199,3.445c-29.537,2.046-57.567-1.87-84.424-16.19c-23.373-12.461-47.816-23.031-71.739-34.54
			c-14.669-7.057-29.804-9.911-44.862-0.064c-4.065,2.659-8.836,4.216-13.166,6.502c-2.457,1.297-4.676,3.046-7.002,4.592
			C293.13,218.529,300.865,219.444,308.479,221.229z"></path>
		<path fill-rule="evenodd" clip-rule="evenodd" class="colour4" fill="#bcbec0" d="M385.214,295.151c8.529,3.926,16.916,8.39,26.452,9.396
			c27.982,2.952,56.039,3.136,84.124,2.041c-15.463-1.444-30.952-2.66-46.383-4.391c-18.84-2.114-36.949-6.151-54.086-15.351
			c-28.713-15.414-58.312-29.125-89.631-38.667c-5.316-1.55-10.633-3.1-15.949-4.65c-10.99-3.089-22.211-3.101-33.479-2.51
			c-2.881,1.917-5.249,4.37-7.392,7.055c12.924,1.432,25.287,5.396,37.788,8.625C321.024,265.573,353.122,280.377,385.214,295.151z"></path>
		<path fill-rule="evenodd" clip-rule="evenodd" class="colour4" fill="#bcbec0" d="M395.526,214.487c0.458-0.634,0.916-1.269,1.374-1.904
			c-10.757-5.232-21.322-10.92-32.325-15.572c-11.386-4.814-23.198-8.345-35.942,0.087c12.065-0.03,22.961,0.747,33.352,4.61
			C373.199,205.878,384.349,210.221,395.526,214.487z"></path>
		<path fill-rule="evenodd" clip-rule="evenodd" class="colour4" fill="#bcbec0" d="M432.348,970.383c6.868-5.163,14.354-9.508,20.364-15.779
			c-0.153-1.134-0.307-2.268-0.459-3.402c-5.541,3.753-11.542,6.528-17.739,9.063c-17.24,7.054-17.188,7.179-16.908,22.397
			c0.002,0.12,0.169,0.238,0.357,0.486C422.74,978.859,427.242,974.221,432.348,970.383z"></path>
		<path fill-rule="evenodd" clip-rule="evenodd" class="colour4" fill="#bcbec0" d="M211.992,326.407c9.58,0.045,19.075,0.99,28.406,3.326
			c4.538,1.136,8.85,3.146,13.589,3.516c8.789,0.394,17.368,2.188,25.958,3.906c0.045-0.5,0.091-1.001,0.139-1.5
			C257.889,328.788,235.76,321.407,211.992,326.407z"></path>
		<path fill-rule="evenodd" clip-rule="evenodd" class="colour4" fill="#bcbec0" d="M923.738,780.646c-1.047,0.533-1.321,1.404-1.14,2.478
			c-1.376,0.774-1.454,2.066-1.341,3.433c-0.995,0.537-1.236,1.398-1.072,2.435c-1.015,0.533-1.271,1.393-1.067,2.448
			c-1.418,0.807-1.438,2.11-1.233,3.495c-1.396,0.86-1.416,2.165-1.149,3.561c-1.395,0.783-1.444,2.087-1.316,3.46
			c-1.046,0.542-1.267,1.414-1.013,2.476c-1.73,1.177-1.44,2.929-1.293,4.639c-1.321,0.862-1.403,2.15-1.214,3.53
			c-1.029,0.553-1.271,1.418-1.008,2.48c-1.472,0.765-1.5,2.076-1.293,3.479c-1.979,1.524-2.659,3.543-2.27,5.968
			c-2.183,1.438-2.613,3.559-2.307,5.967c-2.474,2.196-3.774,4.89-3.509,8.249c-1.746,0.51-2,2.221-2.694,3.524
			c-16.807,31.574-33.976,62.854-57.849,89.945c-20.78,23.581-42.766,45.864-66.638,66.314c-4.855,4.16-10.444,7.608-14.033,13.232
			c10.996-7.45,21.471-15.54,31.995-23.562c15.189-11.581,27.979-25.758,41.866-38.743c2.749-2.57,6.624-4.574,6.863-9.142
			c5.763-7.618,11.525-15.237,17.286-22.855c7.661-12.541,15.538-24.957,22.929-37.656c7.683-13.201,14.845-26.703,20.331-41.01
			c2.163-2.346,3.082-5.222,3.528-8.298c1.636-1.648,2.294-3.68,2.32-5.957c1.612-1.651,2.178-3.702,2.246-5.939
			c1.185-0.87,1.362-2.122,1.321-3.455c0.931-0.599,1.145-1.48,0.972-2.515c1.108-0.933,1.401-2.146,1.204-3.526
			c1.217-1.318,1.376-2.938,1.323-4.615c0.885-0.611,1.11-1.486,0.991-2.499c1.155-0.875,1.479-2.071,1.346-3.444
			c1.161-0.937,1.244-2.22,1.137-3.564c1.162-0.897,1.311-2.157,1.246-3.493c0.95-0.557,1.15-1.437,1.037-2.45
			c0.922-0.572,1.172-1.435,1.044-2.457c1.063-0.896,1.493-2.044,1.383-3.407C923.609,782.586,923.838,781.688,923.738,780.646z"></path>
		<path fill-rule="evenodd" clip-rule="evenodd" class="colour4" fill="#bcbec0" d="M517.724,1036.072c-0.07-0.449-0.142-0.9-0.214-1.352
			c-11.939,4.32-24.231,7.749-35.398,14.016c11.377-2.276,22.044-6.828,33.024-10.376
			C516.14,1038.036,516.866,1036.854,517.724,1036.072z"></path>
		<path fill-rule="evenodd" clip-rule="evenodd" class="colour4" fill="#bcbec0" d="M482.112,1048.736c-0.07,0.014-0.139,0.033-0.209,0.047
			l0.04,0.046C481.998,1048.797,482.056,1048.768,482.112,1048.736z"></path>
		<path fill-rule="evenodd" clip-rule="evenodd" class="colour4" fill="#bcbec0" d="M921.957,987.6c0.487-0.878,0.914-1.646,2.117-3.808
			C921.811,985.422,921.206,986.212,921.957,987.6z"></path>
		<path fill-rule="evenodd" clip-rule="evenodd" class="colour4" fill="#bcbec0" d="M479.093,1049.951c-0.042,0.106,0.135,0.421,0.252,0.446
			c1.332,0.288,1.867-0.72,2.509-1.551C480.88,1049.091,479.618,1048.608,479.093,1049.951z"></path>
		<path fill-rule="evenodd" clip-rule="evenodd" class="colour4" fill="#bcbec0" d="M481.941,1048.829c0,0-0.039-0.046-0.039-0.046
			c-0.016,0.021-0.032,0.043-0.048,0.063C481.883,1048.84,481.914,1048.838,481.941,1048.829z"></path>
		<path fill-rule="evenodd" clip-rule="evenodd" class="colour4" fill="#bcbec0" d="M756.852,1014.158c0.301-0.143,0.71-0.211,0.865-0.448
			c0.124-0.189-0.061-0.582-0.108-0.884c-0.397,0.173-0.795,0.346-1.191,0.519C756.558,1013.61,756.7,1013.874,756.852,1014.158z"></path>
		<path fill-rule="evenodd" clip-rule="evenodd" class="colour4" fill="#bcbec0" d="M433.39,1035.556c0.122,0.056,0.342-0.017,0.472-0.102
			c0.068-0.045,0.038-0.239,0.053-0.366c-0.153-0.053-0.323-0.175-0.457-0.143C432.909,1035.08,432.881,1035.326,433.39,1035.556z"></path>
		<path fill-rule="evenodd" clip-rule="evenodd" class="colour4" fill="#bcbec0" d="M413.328,1160.709c0.361-0.266,0.723-0.531,1.085-0.796
			C413.901,1159.951,413.079,1159.52,413.328,1160.709z"></path>
		<path fill-rule="evenodd" clip-rule="evenodd" class="colour4" fill="#bcbec0" d="M414.615,1159.859c0,0-0.05-0.058-0.05-0.058
			c-0.051,0.037-0.101,0.074-0.152,0.111C414.488,1159.907,414.558,1159.893,414.615,1159.859z"></path>
		<path fill-rule="evenodd" clip-rule="evenodd" class="colour4" fill="#bcbec0" d="M369.894,486.267c-4.468,1.559-7.739,2.51-10.599,4.526
			c0.503,0.901,1.007,1.803,1.506,2.707C363.683,491.657,366.694,489.964,369.894,486.267z"></path>
		<path fill-rule="evenodd" clip-rule="evenodd" class="colour4" fill="#bcbec0" d="M383.51,514.071c0.148,0.203,0.296,0.405,0.445,0.607
			c0.38-0.295,0.761-0.591,1.142-0.886c0,0-0.083-0.097-0.083-0.096C384.513,513.822,384.011,513.947,383.51,514.071z"></path>
		<path fill-rule="evenodd" clip-rule="evenodd" class="colour4" fill="#bcbec0" d="M280.015,441.428c1.271,0,2.409,0,3.547,0
			C282.266,440.74,281.109,440.173,280.015,441.428z"></path>
	</g>
	<g>
		<path class="colour2" fill="#262262" d="M192.519,360.263c0.023-0.009,0.047-0.02,0.07-0.029c-0.007-0.038-0.008-0.073-0.017-0.112
			L192.519,360.263z"></path>
		<path class="colour2" fill="#262262" d="M664.142,337.724c-32.3,5.783-64.568,11.746-96.868,17.523c-32.931,5.889-66.055,10-99.221,13.946
			c-31.053,3.695-62.524,2.844-93.418,8.375c-1.913,0.342-3.355-0.374-5.019-1.027c-36.068-14.164-72.104-28.416-108.977-40.419
			c-2.242-0.73-5.387,0.222-6.652-2.874c-4.739-0.37-9.051-2.38-13.589-3.516c-9.331-2.336-18.826-3.281-28.406-3.326
			c23.768-5,45.897,2.381,68.095,9.25c4.923,1.945,10.559,1.492,15.171,4.486c1.289-0.16,2.546-0.204,3.494,0.936
			c2.62,0.786,5.268,1.491,7.856,2.369c22.574,7.657,45.138,15.345,67.704,23.023c17.243-3.503,34.786-4.468,52.239-6.211
			c6.788-0.678,13.544-1.662,20.318-2.471c1.383-0.165,2.057-0.936,2.311-2.213c-21.783-0.51-43.568-0.91-65.346-1.584
			c-8.874-0.274-16.378-5.156-24.275-8.438c-16.659-6.924-32.811-15.141-49.682-21.462c-19.633-7.355-39.924-12.863-60.479-17.207
			c-4.02-0.85-8.085-1.509-12.152-2.101c-9.351-1.363-17.775,1.611-25.929,5.737c-1.63,3.281-3.433,6.49-4.86,9.857
			c-4.671,11.016-9.487,21.994-11.569,33.897c-1.26,0.076-1.074,1.048-1.116,1.88c0.706-0.417,1.765-0.612,1.199-1.818
			c4.723,0.988,9.128-2.979,13.833-0.693c-5.995,0.501-10.73,4.442-16.216,6.591c0.167,0.918-0.279,1.56-1.007,2.073
			c-4.094,15.172-5.828,30.77-8.331,46.228c6.717-9.761,16.997-12.205,27.771-12.82c13.96-0.797,27.708,1.71,41.533,3.417
			c19.227,2.374,38.35,6.031,57.842,5.946c1.531-0.007,3.063,0.539,4.59,0.825c10.277-0.314,20.317,1.255,30.127,4.187
			c4.13,1.234,9.504,1.921,11.818,4.836c4.244,5.348,7.857,2.63,11.541,0.826c13.936-6.827,29.147-9.25,43.919-13.196
			c11.997-3.69,24.487-5.138,36.64-8.077c15.774-3.256,31.688-5.987,47.313-9.877c36.217-9.018,72.31-18.539,108.421-27.975
			c15.014-3.922,29.907-8.302,44.929-12.191c17.265-4.47,34.612-8.626,51.923-12.919c0.129-0.56,0.257-1.12,0.388-1.68
			C689.389,332.486,676.828,335.453,664.142,337.724z"></path>
		<path class="colour2" fill="#262262" d="M295.314,340.177c-0.019-0.012-0.038-0.022-0.057-0.034c-0.019,0.002-0.038,0.004-0.056,0.006
			C295.201,340.149,295.314,340.177,295.314,340.177z"></path>
		<path class="colour2" fill="#262262" d="M355.528,455.227c10.925-7.269,23.702-8.027,35.375-12.408c1.271-0.477,2.699-0.541,4.009-2.203
			c-14.05,2.491-28.61,1.849-40.598,9.472c-7.516,4.779-8.77-0.172-11.629-4.32c-4.706-6.825-12.034-4.917-17.749-3.604
			c-12.782,2.937-25.253,2.223-37.92-0.341c18.577,2.957,36.235-8.936,55.779-2.941c-0.957-3.01-3.14-4.265-5.592-5.162
			c-4.139-1.514-8.518-1.923-12.811-1.497c-22.421,2.226-44.139-2.245-65.929-6.426c-15.415-2.958-30.697-6.659-46.338-8.412
			c-10.98-1.23-21.616-0.837-31.229,5.52c-2.679,10.657-3.803,21.537-4.982,32.435c-2.189,20.236-4.991,40.339-14.049,58.995
			c-4.238,8.729-7.897,17.739-11.818,26.622c-5.755,5.565,1.262,7.55,3.527,9.247c9.726,7.29,20.31,13.491,31.271,18.649
			c31.929,15.025,64.633,28.164,98.703,37.647c-0.115-2.718-2.643-2.491-4.203-3.287c-15.387-7.848-31.504-13.982-47.485-20.483
			c-27.562-11.212-56.329-20.01-80.438-38.528c-1.444-1.109-0.083-2.526-1.231-3.225c4.686-0.271,6.544-4.255,8.271-7.433
			c3.117-5.733,7.782-9.145,13.407-11.813c4.994-2.369,10.164-4.197,15.485-5.611c20.574-5.466,41.509-8.403,62.76-9.711
			c18.596-1.144,37.31-0.675,55.775-3.67c4.328-0.702,8.673-1.319,12.838,0.063c10.554,3.5,19.494,2.512,25.482-8.093
			c0.094-0.166,0.272-0.283,0.4-0.432c1.899-2.208,3.543-3.301,4.627,0.686c0.385,1.415,2.394,3.533,2.941,1.738
			c1.207-3.955,4.648-4.121,7.114-5.907c2.86-2.017,6.131-2.968,10.599-4.526c-3.199,3.698-6.21,5.39-9.093,7.233
			c-0.391,0.422-0.789,0.846-1.184,1.272c-2.391,2.583-4.189,6-2.282,8.897c1.62,2.459,4.944,0.067,7.481-0.356
			c1.305-0.217,2.537-0.875,3.801-1.334c6.404-8.762,15.638-14.222,24.152-20.472c10.099-7.414,20.456-14.476,32.006-22.61
			c-25.382,2.334-49.215,4.526-73.489,6.758C350.796,461.717,350.395,458.643,355.528,455.227z M280.015,441.428
			c1.094-1.255,2.25-0.688,3.547,0C282.424,441.428,281.287,441.428,280.015,441.428z"></path>
		<path class="colour2" fill="#262262" d="M242.72,286.135c5.499,0.834,10.898,0.416,16.335,0.673c28.369,1.344,55.816,7.304,82.905,15.644
			c17.405,5.358,34.572,11.584,52.407,15.511c6.265,0.106,12.538,0.484,18.792,0.271c28.655-0.976,57.171-3.801,85.668-6.816
			c11.359-1.685,22.719-3.37,34.044-5.06c7.786-1.469,15.603-2.93,23.421-4.392c0.107-0.402,0.214-0.805,0.325-1.209
			c-20.214,2.564-40.348,6.003-60.828,5.832c-28.084,1.095-56.142,0.911-84.124-2.041c-9.536-1.006-17.923-5.47-26.452-9.396
			c-32.092-14.774-64.189-29.578-98.558-38.452c-12.501-3.228-24.864-7.192-37.788-8.625
			c-12.877,13.413-21.243,29.723-29.585,46.045C226.631,290.036,233.801,284.782,242.72,286.135z"></path>
		<path class="colour2" fill="#262262" d="M289.739,243.529c5.376,0.617,10.852,0.585,16.039,2.436c4.96,0.929,9.924,1.859,14.888,2.789
			c0.347-0.516,0.695-1.033,1.049-1.547c-13.287-4.432-26.287-9.783-40.053-12.737c-9.576-2.054-18.792-2.835-25.402,6.551
			C267.528,240.429,278.749,240.44,289.739,243.529z"></path>
		<path class="colour2" fill="#262262" d="M322.175,617.979c5.124,2.372,10.585,2.047,16.023,2.094c3.091,0.026,4.715-1.414,5.274-4.319
			C336.688,619.518,329.323,617.708,322.175,617.979z"></path>
		<path class="colour2" fill="#262262" d="M345.092,441.165c2.104,4.062,4.294,4.937,6.837,5.209C351.35,442.983,348.683,442.856,345.092,441.165z"></path>
		<path class="colour2" fill="#262262" d="M351.929,446.374c0.004,0.026,0.011,0.048,0.016,0.074c0.034,0.027,0.068,0.055,0.102,0.082
			c-0.012-0.049-0.024-0.099-0.04-0.146l0,0C351.981,446.38,351.956,446.376,351.929,446.374z"></path>
		<path class="colour2" fill="#262262" d="M352.493,446.887c-0.148-0.119-0.297-0.238-0.446-0.357c0.027,0.108,0.056,0.215,0.117,0.298
			C352.212,446.893,352.379,446.87,352.493,446.887z"></path>
	</g>
	<g>
		<path fill-rule="evenodd" clip-rule="evenodd" class="colour2" fill="#262262" d="M921.283,786.541c-0.01,0.005-0.016,0.011-0.025,0.016
			c0.001,0.015,0.002,0.029,0.003,0.044C921.261,786.601,921.283,786.54,921.283,786.541z"></path>
		<path fill-rule="evenodd" clip-rule="evenodd" class="colour2" fill="#262262" d="M920.236,788.961c-0.019,0.01-0.032,0.021-0.051,0.03
			c0.004,0.025,0.005,0.05,0.01,0.076C920.195,789.067,920.236,788.96,920.236,788.961z"></path>
		<path fill-rule="evenodd" clip-rule="evenodd" class="colour2" fill="#262262" d="M919.201,791.385c-0.031,0.017-0.053,0.037-0.083,0.055
			c0.006,0.031,0.008,0.061,0.015,0.092C919.133,791.531,919.202,791.384,919.201,791.385z"></path>
		<path fill-rule="evenodd" clip-rule="evenodd" class="colour2" fill="#262262" d="M922.665,783.08c-0.025,0.014-0.042,0.03-0.066,0.044
			c0.005,0.029,0.006,0.058,0.012,0.087L922.665,783.08z"></path>
		<path fill-rule="evenodd" clip-rule="evenodd" class="colour2" fill="#262262" d="M917.953,794.886c-0.026,0.016-0.043,0.033-0.068,0.049
			c0.005,0.032,0.008,0.064,0.013,0.097C917.897,795.031,917.953,794.885,917.953,794.886z"></path>
		<path fill-rule="evenodd" clip-rule="evenodd" class="colour2" fill="#262262" d="M943.812,728.689c-0.02,0.008-0.034,0.019-0.054,0.027
			c0.004,0.023,0.006,0.046,0.01,0.069L943.812,728.689z"></path>
		<path fill-rule="evenodd" clip-rule="evenodd" class="colour2" fill="#262262" d="M583.332,1008.475c0.034,0.01,0.065,0.011,0.099,0.02
			c0.006-0.018,0.014-0.03,0.02-0.049L583.332,1008.475z"></path>
		<polygon fill-rule="evenodd" clip-rule="evenodd" class="colour2" fill="#262262" points="599.974,994.374 599.968,994.365 599.968,994.377 		"></polygon>
		<path fill-rule="evenodd" clip-rule="evenodd" class="colour2" fill="#262262" d="M945.143,725.198c-0.032,0.014-0.054,0.032-0.084,0.047
			c0.006,0.033,0.011,0.065,0.018,0.099C945.076,725.344,945.144,725.197,945.143,725.198z"></path>
		<path fill-rule="evenodd" clip-rule="evenodd" class="colour2" fill="#262262" d="M942.785,731.1c-0.034,0.018-0.057,0.04-0.09,0.058
			c0.009,0.037,0.013,0.073,0.022,0.11C942.718,731.268,942.785,731.098,942.785,731.1z"></path>
		<path fill-rule="evenodd" clip-rule="evenodd" class="colour2" fill="#262262" d="M916.815,798.443c-0.03,0.016-0.051,0.035-0.08,0.052
			c0.007,0.036,0.012,0.072,0.019,0.108C916.754,798.604,916.815,798.442,916.815,798.443z"></path>
		<path fill-rule="evenodd" clip-rule="evenodd" class="colour2" fill="#262262" d="M946.42,721.701c-0.036,0.015-0.06,0.033-0.095,0.048
			c0.007,0.038,0.012,0.079,0.02,0.115C946.345,721.864,946.422,721.699,946.42,721.701z"></path>
		<path fill-rule="evenodd" clip-rule="evenodd" class="colour2" fill="#262262" d="M905.113,830.406c-0.032,0.028-0.06,0.059-0.091,0.087
			c0.003,0.026,0.003,0.051,0.007,0.076C905.029,830.569,905.113,830.404,905.113,830.406z"></path>
		<path fill-rule="evenodd" clip-rule="evenodd" class="colour2" fill="#262262" d="M909.671,818.496c-0.026,0.02-0.047,0.042-0.072,0.063
			c0.004,0.028,0.007,0.057,0.011,0.085C909.609,818.644,909.671,818.495,909.671,818.496z"></path>
		<path fill-rule="evenodd" clip-rule="evenodd" class="colour2" fill="#262262" d="M907.422,824.457c-0.034,0.021-0.059,0.047-0.093,0.069
			c0.006,0.032,0.006,0.063,0.012,0.097C907.341,824.623,907.423,824.456,907.422,824.457z"></path>
		<path fill-rule="evenodd" clip-rule="evenodd" class="colour2" fill="#262262" d="M1032.1,1291.004c-0.735-7.422-1.448-14.867-1.671-22.318
			c-1.241-41.662-2.891-83.306-5.044-124.934c-1.564-30.254-6.228-60.078-11.409-89.854c-4.573-26.28-9.891-52.465-10.132-79.298
			c-2.66,8.862-2.106,18.121-3.32,27.167c-2.43,18.112-3.704,36.405-8.311,54.17c-8.315,32.073-23.108,60.635-47.558,83.375
			c-7.851,7.303-17.339,12.846-26.096,19.167c-1.465,1.057-3.067,1.788-5.536,0.909c17.267-16.993,30.643-36.535,41.851-57.624
			c-0.471-0.376-0.942-0.751-1.413-1.126c-27.019,41.311-62.714,73.184-105.902,96.731c-37.021,20.187-74.979,38.267-115.962,49.175
			c-1.916,0.51-3.709,1.193-6.021,0.349c65.297-34.46,129.406-70.178,177.389-128.315c-28.021,21.555-57.6,40.562-89.249,56.258
			c-2.104,2.037-4.782,2.785-7.499,3.517c1.464-2.746,3.915-3.828,6.688-4.394c12.235-8.472,25.002-16.157,36.704-25.44
			c32.586-25.847,58.979-56.834,78.875-93.394c3.914-7.192,7.619-14.443,10.694-22.023c0.394-0.971,1.994-1.883,0.588-2.952
			c-1.284-0.976-2.218,0.342-2.795,1.261c-8.065,12.875-18.657,23.669-28.679,34.933c-2.182,3.068-4.609,5.861-8.247,7.278
			c-0.242,0.231-0.484,0.463-0.726,0.694c-0.146,0.162-0.292,0.324-0.437,0.486c-0.394,0.392-0.786,0.784-1.18,1.178l-0.247,0.188
			l0.213-0.224c0.394-0.392,0.785-0.785,1.179-1.178c0.157-0.15,0.314-0.301,0.472-0.451c0.224-0.249,0.448-0.498,0.672-0.749
			c1.593-4.298,5.234-7.008,8.045-10.36c14.148-20.821,25.787-43.101,36.229-65.886c8.333-18.178,14.545-37.322,21.904-55.955
			c12.144-30.747,21.046-62.5,30.085-94.241c3.483-12.235,8.577-24.042,13.355-35.875c7.71-19.092,12.35-38.882,14.529-59.305
			c0.164-1.534,0.609-3.038,0.923-4.557c0.901-8.022,1.802-16.045,2.702-24.067c-1.742,1.497-2.365,3.246-2.856,5.032
			c-6.188,22.535-10.995,45.448-18.284,67.678c-1.418,4.329-2.184,9.164-5.981,12.428c-0.743,7.741-4.041,14.632-7.187,21.57
			c-15.341,33.837-30.851,67.6-45.947,101.546c-6.033,13.567-11.028,27.596-18.339,40.642c6.699-17.941,12.549-36.161,19.146-54.109
			c6.71-18.253,14.287-36.185,21.07-54.411c6.762-18.168,13.854-36.273,16.018-55.872c-2.054,6.249-3.926,12.565-6.192,18.737
			c-9.158,24.942-19.575,49.323-32.68,72.494c-10.297,18.207-15.995,38.547-25.717,56.938
			c-14.411,27.265-29.737,54.091-48.775,78.517c-5.452,6.997-12.529,12.472-19.162,18.323c-14.88,13.126-28.969,27.116-44.318,39.74
			c-15.675,12.892-32.832,23.657-49.268,35.455c-37.501,26.916-77.393,49.65-119.524,68.477c-2.209,0.987-4.418,2.274-8.152,1.823
			c8.337-4.789,15.787-9.036,23.205-13.337c20.743-12.028,40.95-24.871,60.862-38.261c25.629-17.234,50.051-36.077,74.036-55.394
			c31.413-25.296,61.813-52.063,83.798-86.432c16.854-26.343,30.203-54.642,41.829-83.722c3.792-9.483,8.388-18.645,12.615-27.954
			l0.321-0.037l0.116-0.313l0.012,0.042c1.113-5.021,3.306-9.579,5.994-13.922c0,0.001,0.104-0.269,0.104-0.269
			c-0.215-0.985,0.219-1.672,1.01-2.191c0.193-0.454,0.387-0.908,0.579-1.361c0.177-0.373,0.352-0.744,0.527-1.115
			c0.13-0.418,0.262-0.838,0.393-1.257c0.079-2.11,0.732-4.007,2.114-5.627c0,0.001,0.082-0.267,0.082-0.267
			c-0.261-1.299,0.111-2.388,1.079-3.28c0.183-0.495,0.364-0.99,0.546-1.485c-0.291-0.839,0.061-1.436,0.725-1.914
			c0,0.001,0.118-0.379,0.118-0.379c-0.264-0.978,0.22-1.649,0.915-2.234c0.133-0.45,0.266-0.903,0.397-1.354
			c-0.243-0.91,0.121-1.588,0.817-2.138c0.135-0.47,0.27-0.939,0.404-1.407c-0.292-0.912,0.111-1.572,0.777-2.135
			c0.138-0.468,0.274-0.936,0.412-1.404c-0.254-0.897,0.095-1.578,0.775-2.135c0.124-0.47,0.249-0.94,0.373-1.411
			c-0.305-0.929,0.086-1.619,0.761-2.21c2.068-7.111,4.146-14.22,6.201-21.335c5.202-18.011,10.229-36.077,17.404-53.445
			l-0.217-0.349l0.388-0.223l0.09-0.313c-0.248-1.27,0.189-2.288,1.145-3.115c0.203-0.558,0.405-1.116,0.608-1.674
			c-0.348-0.531-0.152-0.835,0.413-0.981c0.202-0.413,0.404-0.827,0.605-1.24c4.024-11.618,6.972-23.539,9.989-35.44
			c8.83-28.31,17.41-56.693,25.752-85.154c6.963-23.755,15.146-47.164,16.96-72.107c0.003-10.616,0.007-21.232,0.01-31.847
			c-0.027-1.608-0.055-3.218-0.082-4.827c-1.157-5.026-1.379-10.116-1.04-15.243c-0.077-1.201-0.154-2.404-0.23-3.606
			c-3.198,1.218-1.758,3.992-1.725,5.998c0.222,13.247,0.075,26.479-0.898,39.693c-0.154,2.099,0.103,4.312-1.085,6.247
			c-0.066,0.815-0.131,1.632-0.196,2.448c-0.069,4.388-0.477,8.723-2.087,12.86c-0.066,0.439-0.134,0.879-0.202,1.32
			c0.257,1.664,0.176,3.261-0.928,4.654c-1.849,10.305-5.261,20.153-8.905,29.917c-9.432,25.271-21.87,49.227-33.408,73.515
			c-22.187,46.709-42.213,94.349-62.979,141.665c-13.483,30.722-29.668,59.611-50.853,85.649
			c-4.463,9.021-11.544,16.003-18.233,23.274c-0.518,0.562-1.839,0.382-2.786,0.546c-0.239,4.567-4.114,6.571-6.863,9.142
			c-13.887,12.985-26.677,27.162-41.866,38.743c-10.524,8.021-20.999,16.111-31.995,23.562c3.589-5.624,9.178-9.072,14.033-13.232
			c23.872-20.45,45.857-42.733,66.638-66.314c23.873-27.091,41.042-58.371,57.849-89.945c0.694-1.304,0.948-3.015,2.694-3.524
			c-0.266-3.359,1.035-6.053,3.509-8.249c-0.307-2.408,0.124-4.529,2.307-5.967c-0.39-2.425,0.29-4.443,2.27-5.968
			c-0.207-1.402-0.179-2.714,1.293-3.479c-0.263-1.063-0.021-1.928,1.008-2.48c-0.189-1.38-0.107-2.668,1.214-3.53
			c-0.147-1.71-0.438-3.462,1.293-4.639c-0.254-1.062-0.033-1.934,1.013-2.476c-0.128-1.373-0.078-2.677,1.316-3.46
			c-0.267-1.396-0.247-2.7,1.149-3.561c-0.205-1.385-0.185-2.688,1.233-3.495c-0.203-1.056,0.053-1.915,1.067-2.448
			c-0.164-1.036,0.077-1.897,1.072-2.435c-0.113-1.366-0.035-2.658,1.341-3.433c-0.182-1.073,0.093-1.944,1.14-2.478
			c6.832-14.831,12.376-30.16,17.654-45.593c-0.146-1.502-0.299-3.008,1.303-3.896c-0.242-1.066-0.064-1.954,1.063-2.44
			c-0.207-1.402-0.246-2.741,1.301-3.472c-0.275-1.422-0.388-2.784,1.267-3.496c-0.172-0.94-0.097-2.26-0.647-2.616
			c-1.101-0.713-1.532,0.652-1.923,1.42c-3.126,6.135-6.507,12.162-9.246,18.466c-9.419,21.677-22.881,41.302-32.098,63.028
			c-6.847,16.139-13.934,32.027-24.324,46.274c-14.554,19.954-26.271,41.876-42.617,60.615
			c-11.296,12.948-24.122,24.146-37.149,35.228c-17.789,15.13-35.026,30.893-53.307,45.468
			c-18.271,14.568-36.571,29.086-55.249,43.128c-14.94,11.232-30.821,21.076-46.877,30.519
			c-13.184,7.754-27.287,13.958-41.049,20.713c-44.964,22.068-90.603,42.574-137.653,59.872
			c-15.069,5.539-31.264,7.732-45.572,15.512c-1.063,0.578-2.575,0.328-3.903,0.419c-0.032,0.022-0.064,0.043-0.096,0.065
			c-0.058,0.033-0.127,0.048-0.202,0.054c-0.362,0.265-0.724,0.53-1.085,0.796c-0.249-1.189,0.573-0.758,1.085-0.796
			c0.051-0.037,0.101-0.074,0.152-0.111c0.048-0.004,0.098-0.005,0.146-0.008c8.77-6.208,18.178-11.238,28.081-15.395
			c20.451-8.581,40.964-17.019,61.282-25.903c18.114-7.922,36.225-15.916,53.934-24.692c24.814-12.297,49.013-25.774,73.063-39.538
			c29.312-16.777,55.546-37.557,80.744-59.806c23.274-20.55,46.598-41.097,67.999-63.597c15.927-16.744,32.429-33.26,43.974-53.56
			c14.363-25.26,28.943-50.462,38.688-78.034c3.41-9.646,7.203-19.125,12.335-28.015c0.546-0.815,1.093-1.631,1.639-2.446
			l-0.086,0.101c1.463-6.202,5.25-11.237,8.345-16.618l-0.048,0.086c0.389-0.394,0.777-0.787,1.166-1.181
			c3.253-6.266,6.487-12.541,9.762-18.796c7.399-14.134,14.248-28.402,16.505-44.52c1.116-7.963,4.038-15.58,7.078-23.066
			c5.268-12.973,15.217-23.75,17.139-38.393c0.773-5.899,3.888-11.491,5.937-17.224c-0.649-0.033-1.3-0.066-1.948-0.104
			c-0.154,0.174-0.253,0.38-0.291,0.615c0.24,0.5,0.112,0.759-0.468,0.718c-0.278,0.502-0.558,1.009-0.838,1.515
			c0.224,0.525,0.056,0.789-0.518,0.779c-0.259,0.895-0.52,1.793-0.78,2.692c0.019,0.254,0.057,0.509,0.037,0.76
			c-0.003,0.04-0.263,0.059-0.402,0.083c-0.26,0.909-0.519,1.82-0.779,2.732c0.318,0.527,0.117,0.768-0.443,0.807
			c-0.203,0.543-0.408,1.09-0.613,1.638c0.253,0.516,0.09,0.771-0.48,0.766c-0.217,0.535-0.437,1.072-0.657,1.61
			c0.246,0.479,0.15,0.767-0.435,0.775c-7.263,15.9-16.679,30.608-25.413,45.694c-1.203,7.209-4.95,13.548-6.977,20.482
			c-5.607,19.19-16.922,35.473-27.909,51.629c-28.582,42.027-55.376,85.378-87.844,124.617
			c-12.132,14.661-25.99,28.108-41.148,39.671c-33.713,25.716-67.379,51.576-103.706,73.613
			c-11.406,6.918-23.342,12.913-35.601,18.261c-5.387,2.351-10.418,5.51-15.631,8.262c-1.861,0.982-3.655,2.312-5.97,1.681
			c-0.43,1.267-1.375,1.432-2.532,1.145c-18.792,9.846-38.319,18.039-58.065,25.729c-1.559,0.606-3.401,0.486-5.112,0.704
			c-0.855,0.783-1.582,1.965-2.585,2.289c-10.98,3.548-21.647,8.101-33.025,10.376c-0.056,0.032-0.113,0.061-0.169,0.093
			c-0.028,0.009-0.059,0.011-0.087,0.018c-0.642,0.831-1.177,1.839-2.509,1.551c-0.117-0.025-0.294-0.34-0.252-0.446
			c0.525-1.343,1.787-0.86,2.761-1.104c0.016-0.021,0.032-0.043,0.048-0.063c0.07-0.014,0.139-0.032,0.208-0.047
			c11.167-6.267,23.46-9.695,35.399-14.016c17.599-8.74,35.556-16.844,52.652-26.477c9.135-5.148,19.217-8.231,27.915-14.1
			c0.622-0.42,1.369-0.73,1.891,0.221c-0.119-2.694,2.438-2.374,3.82-3.379c4.285-2.55,8.571-5.098,12.856-7.646
			c3.904-2.448,7.81-4.896,11.715-7.341c13.826-6.938,25.356-17.145,37.37-26.604c17.103-13.468,32.687-28.804,50.499-41.418
			c1.216-0.86,1.878-1.965,2.13-3.381c4.237-3.91,8.474-7.821,12.711-11.731c0,0-0.03,0.045-0.029,0.044
			c5.864-6.676,11.863-13.248,15.925-21.271c-0.138-0.966-0.275-1.931-0.411-2.897c-7.788,8.792-16.091,16.954-25.562,24.052
			c-24.483,18.349-50.544,34.396-75.34,52.275c-1.576,1.137-3.151,2.376-5.27,2.332c-3.146,4.702-8.265,6.517-13.006,8.883
			c-14.773,8.175-30.204,15.015-45.423,22.277c-12.758,6.088-25.711,11.766-38.555,17.674
			c-26.617,12.242-53.98,22.455-82.132,30.589c-8.204,2.37-16.275,5.195-24.626,7.247c26.306-13.438,56.118-19.278,80.142-37.886
			c-28.137,12.76-57.8,16.98-88.291,16.686l-0.34,0.01l-0.34-0.003c-4.53-0.607-9.046-1.257-12.809-4.202
			c-0.755,4.218-1.486,8.441-2.272,12.655c-3.9,20.896-9.087,41.563-11.053,62.797c9.293,2.651,18.326-0.317,27.357-1.581
			c14.173-1.985,28.247-4.678,41.323-10.98c0.781-0.376,1.842-0.17,3.575-0.291c-7.783,7.091-16.563,10.923-25.052,15.248
			c-8.371,4.266-17.335,7.352-25.17,12.678c0.272,0.318,0.546,0.636,0.819,0.954c13.161-4.512,26.609-8.336,39.424-13.68
			c26.794-11.174,54.42-20.284,80.706-32.69c3.899-1.84,7.722-3.839,11.581-5.764c2.678-2.648,6.06-3.875,10.877-5.622
			c-3.223,3.931-6.167,5.805-9.276,7.479c-5.312,5.054-12.237,7.819-17.942,11.972c-12.503,9.099-26.326,15.596-39.582,23.192
			c-18.047,10.343-35.582,21.912-54.521,30.271c-16.86,7.441-32.616,17.214-50.088,23.25c-0.658,10.324-1.316,20.649-1.974,30.975
			c8.535-1.372,16.792-3.986,25.18-5.959c24.651-5.794,49.75-9.117,74.478-14.305c27.489-5.766,54.458-13.69,81.08-22.788
			c7.143-2.44,13.895-5.949,21.124-8.118c0.257,0.467,0.515,0.934,0.771,1.399c-5.912,3.521-11.694,7.285-17.761,10.513
			c-16.152,8.593-33.326,15.106-49.531,23.522c-23.067,11.982-48.419,17.237-72.525,26.111c-8.314,3.061-16.31,6.799-24.215,10.756
			c-0.883,0.442-1.779,0.958-1.267,2.754c7.732-2.17,15.621-4.169,23.372-6.602c19.514-6.127,39.704-9.678,59.252-15.576
			c10.484-3.164,20.472-7.931,30.827-11.568c27.441-9.64,55.169-18.6,81.746-30.437c23.502-10.468,46.988-21.183,69.046-34.532
			c28.085-16.998,55.974-34.332,83.627-52.021c8.66-5.539,16.288-12.689,24.389-19.103c2.309-2.693,4.695-5.292,8.102-6.647
			c0.004-0.013,0.01-0.022,0.013-0.035c0.391-0.396,0.781-0.792,1.172-1.188c0.11-0.141,0.22-0.281,0.329-0.422
			c-0.1,0.152-0.198,0.303-0.298,0.454c-0.395,0.393-0.789,0.783-1.184,1.176c-0.011,0.005-0.021,0.01-0.032,0.015
			c-1.042,3.76-4.115,5.751-6.944,7.957c-18.401,17.728-37.522,34.48-59.04,48.524c-14.448,9.431-27.532,20.934-41.821,30.634
			c-37.802,25.662-77.094,48.689-119.396,66.358c-24.061,10.05-47.716,21.07-72.181,30.252c13.889-1.617,27.082-6.08,40.354-10.142
			c13.526-4.14,27.008-8.432,40.436-12.879c13.435-4.452,26.893-8.912,39.711-14.969c12.763-6.032,25.26-12.63,38.061-18.576
			c12.723-5.909,24.899-12.851,37.407-19.244c-5.639,6.098-12.642,10.363-19.344,14.913c-39.042,26.513-81.097,46.981-125.104,64.03
			c-34.261,13.274-69.045,25.144-103.07,39.018c-19.649,8.012-39.921,14.438-59.23,23.318c-4.125,1.896-8.22,3.797-11.443,7.12
			c-0.444,6.27-0.417,12.619-1.481,18.782c-0.854,4.948,1.17,8.221,3.964,11.662c6.703,8.258,16.568,10.911,25.814,14.436
			c53.364,20.344,109.25,29.143,165.626,35.287c34.776,3.789,69.712,5.66,104.71,5.903c55.048,0.384,110.042,0.482,164.936-5.456
			c48.378-5.232,95.608-14.908,141.273-31.679c13.422-4.93,26.628-10.815,35.016-23.563
			C1031.223,1296.276,1032.401,1294.031,1032.1,1291.004z M924.074,983.792c-1.203,2.161-1.63,2.93-2.117,3.808
			C921.206,986.212,921.811,985.422,924.074,983.792z M803.54,1179.213c0.044,2.671-2.493,1.62-3.639,2.594
			C800.602,1180.197,801.909,1179.476,803.54,1179.213z M433.861,1035.454c-0.13,0.085-0.35,0.157-0.472,0.102
			c-0.509-0.229-0.481-0.476,0.068-0.61c0.133-0.032,0.304,0.09,0.457,0.143C433.899,1035.215,433.93,1035.409,433.861,1035.454z
			 M757.717,1013.71c-0.155,0.237-0.564,0.306-0.865,0.448c-0.151-0.284-0.294-0.548-0.435-0.813
			c0.396-0.173,0.794-0.346,1.191-0.519C757.656,1013.128,757.841,1013.521,757.717,1013.71z"></path>
		<path fill-rule="evenodd" clip-rule="evenodd" class="colour2" fill="#262262" d="M901.603,838.709c-0.033,0.009-0.057,0.024-0.089,0.033
			c0.004,0.038,0.001,0.072,0.004,0.11C901.518,838.853,901.603,838.707,901.603,838.709z"></path>
		<path fill-rule="evenodd" clip-rule="evenodd" class="colour2" fill="#262262" d="M911.95,812.568c-0.019,0.01-0.032,0.021-0.051,0.031
			c0.003,0.024,0.005,0.049,0.009,0.074L911.95,812.568z"></path>
		<path fill-rule="evenodd" clip-rule="evenodd" class="colour2" fill="#262262" d="M910.984,815.024c-0.035,0.017-0.06,0.038-0.093,0.056
			c0.009,0.037,0.014,0.073,0.024,0.111C910.916,815.191,910.986,815.023,910.984,815.024z"></path>
		<path fill-rule="evenodd" clip-rule="evenodd" class="colour2" fill="#262262" d="M914.483,804.369c-0.03,0.02-0.049,0.042-0.077,0.062
			c0.008,0.034,0.012,0.065,0.021,0.1C914.427,804.53,914.484,804.367,914.483,804.369z"></path>
		<path fill-rule="evenodd" clip-rule="evenodd" class="colour2" fill="#262262" d="M913.155,809.038c-0.016,0.01-0.026,0.021-0.042,0.031
			c0.003,0.027,0.006,0.054,0.008,0.081C913.121,809.15,913.155,809.037,913.155,809.038z"></path>
		<path fill-rule="evenodd" clip-rule="evenodd" class="colour2" fill="#262262" d="M915.471,801.925c-0.02,0.01-0.033,0.021-0.052,0.03
			c0.002,0.025,0.004,0.05,0.006,0.074C915.425,802.029,915.471,801.924,915.471,801.925z"></path>
		<path fill-rule="evenodd" clip-rule="evenodd" class="colour2" fill="#262262" d="M1024.863,506.396c-0.078-0.562-0.157-1.124-0.234-1.683
			c-0.422-0.786-0.844-1.573-1.268-2.36c-0.243,0.651-0.488,1.301-0.732,1.952c0.039,1.577,0.077,3.154,0.116,4.732
			C1025.111,509.489,1023.723,506.928,1024.863,506.396z"></path>
		<path fill-rule="evenodd" clip-rule="evenodd" class="colour2" fill="#262262" d="M429.784,1193.114c-0.307-1.1-1.597-0.222-2.449-0.067
			c0.089,0.564,0.175,1.129,0.261,1.694C428.566,1194.474,430.199,1194.596,429.784,1193.114z"></path>
		<path fill-rule="evenodd" clip-rule="evenodd" class="colour2" fill="#262262" d="M986.536,804.538c0.211-0.046,0.422-0.092,0.632-0.139
			c-0.053-0.15-0.106-0.3-0.159-0.449c-0.128,0.033-0.316,0.026-0.368,0.108C986.558,804.188,986.566,804.376,986.536,804.538z"></path>
		<path fill-rule="evenodd" clip-rule="evenodd" class="colour2" fill="#262262" d="M422.139,1100.574c0.479,0.897,1.636,0.13,2.39-0.421
			c-0.273-0.318-0.546-0.636-0.818-0.952C423.04,1099.542,421.458,1099.3,422.139,1100.574z"></path>
	</g>
</g>
</svg>