<svg version="1.1" id="Layer_1___zQo1RObm" xmlns="http://www.w3.org/2000/svg" xmlns:xlink="http://www.w3.org/1999/xlink" x="0px" y="0px" width="1417.32px" height="1417.32px" viewBox="0 0 1417.32 1417.32" enable-background="new 0 0 1417.32 1417.32" xml:space="preserve">
<g>
	<path fill-rule="evenodd" clip-rule="evenodd" class="colour1" fill="#009FDA" d="M1044.073,624.908c-8.467,13.17-14.409,27.537-18.495,42.516
		c-10.105,37.046-19.337,74.324-27.954,111.749c-3.22,13.984-4.032,28.305-5.409,42.527c-1.72,17.753-3.517,35.474-7.508,52.896
		c-0.348,1.521-0.799,3.071-0.805,4.609c-0.082,26.929-3.302,53.792-2.247,80.716c0.774,19.775,2.796,39.502,4.228,59.253
		c0.723,9.979-0.328,20.042,1.579,29.975c3.396,17.695,6.879,35.377,9.939,53.131c3.292,19.101,6.477,38.208,7.907,57.599
		c1.978,26.814,3.363,53.65,4.745,80.497c1.089,21.134,3.156,42.23,6.773,63.098c1.907,11.001-4.404,16.531-12.108,21.968
		c-17.705,12.493-38.435,16.475-58.897,20.945c-24.379,5.327-49.239,7.005-74.106,8.557c-18.826,1.174-37.68,1.521-56.496,2.508
		c-16.921,0.887-33.828,1.224-50.704,0.639c-27.837-0.963-55.624-2.908-83.4-5.26c-26.198-2.218-52.097-6.671-78.255-8.971
		c-19.217-3.271-38.438-6.542-57.659-9.813c-3.077-0.553-6.15-1.135-9.233-1.65c-24.88-4.164-49.955-7.3-74.524-13.111
		c-14.224-3.365-28.215-7.713-42.312-11.617c0.757-37.957,1.782-75.91,2.198-113.871c0.47-42.802,5.792-85.059,12.871-127.173
		c3.646-21.695,8.29-43.249,9.859-65.257c2.587-36.299-1.964-72.241-5.213-108.269c-1.836-20.362-7.224-40.395-6.796-60.88
		c0.462-22.151-2.706-43.77-5.306-65.653c-3.596-30.265-7.526-60.4-13.45-90.284c-6.041-30.468-11.185-61.072-14.752-91.944
		c-1.779-15.396-2.69-30.92-6.075-46.108c5.934-8.477,11.532-17.073,8.673-28.229c-0.542-2.115,0.876-2.69,2.193-3.578
		c6.979-4.705,12.247-11.085,16.822-17.99c26.333-39.737,45.255-82.89,58.184-128.655c11.173-39.552,24.034-78.332,45.696-113.658
		c11.412-18.611,22.288-37.578,38.517-52.628c17.263-16.01,34.607-31.933,51.917-47.893c2.271,1.141,4.582,2.21,6.808,3.433
		c15.957,8.771,32.156,17.125,49.318,23.228c32.943,11.714,67.063,18.183,101.804,21.599c19.782,1.945,39.227-0.396,58.034-6.184
		c14.576-4.486,24.924-13.871,26.07-30.474c3.847,2.221,6.203,5.918,9.062,9.124c6.14,6.886,11.8,14.278,19.114,19.988
		c19.946,15.57,40.746,30.005,60.632,45.674c16.819,13.254,32.852,27.421,48.991,41.447c19.687,17.107,32.206,39.888,46.395,61.272
		c10.936,16.479,14.772,35.658,19.88,54.33c3.062,11.194,4.716,22.533,4.924,34.178c0.325,18.199-2.979,36.148-1.744,54.541
		c1.414,21.083-0.178,42.396-0.98,63.59c-0.608,16.045-1.773,32.079-5.673,47.778
		C1054.021,601.523,1048.817,613.125,1044.073,624.908z"></path>
	<path fill-rule="evenodd" clip-rule="evenodd" class="colour1" fill="#009FDA" d="M1044.073,624.908c4.744-11.783,9.947-23.385,13.028-35.788
		c3.899-15.699,5.064-31.732,5.673-47.778c0.803-21.193,2.395-42.506,0.98-63.59c-1.234-18.393,2.069-36.342,1.744-54.541
		c-0.208-11.645-1.862-22.984-4.924-34.178c-5.107-18.671-8.944-37.851-19.88-54.33c-14.188-21.384-26.708-44.165-46.395-61.272
		c-16.14-14.026-32.172-28.193-48.991-41.447c-19.886-15.669-40.686-30.104-60.632-45.674c-7.314-5.71-12.975-13.102-19.114-19.988
		c-2.858-3.206-5.215-6.903-9.063-9.124c-0.373-1.912-0.687-3.837-1.126-5.735c-1.54-6.646-5.322-12.609-5.961-19.532
		c13.266,7.608,25.592,16.741,39.168,23.862c22.974,12.05,46.909,21.84,71.661,29.397c24.952,7.618,47.661,19.536,70.352,32.167
		c56.911,31.68,88.641,81.512,105.589,142.436c7.209,25.912,10.066,52.521,8.219,79.303c-1.207,17.512,3.316,32.717,12.132,47.473
		c8.95,14.986,16.642,30.693,20.415,47.925c1.714,7.832,2.871,15.792,4.074,23.726c0.611,4.029-1.746,7.128-4.104,10.038
		c-10.882,13.435-24.74,23.104-40.432,29.777c-21.249,9.04-42.87,17.215-65.033,23.835
		C1062.513,624.542,1053.361,625.345,1044.073,624.908z"></path>
	<path fill-rule="evenodd" clip-rule="evenodd" class="colour1" fill="#009FDA" d="M545.201,1334.045c-3.077-0.553-6.15-1.135-9.233-1.65
		c-24.88-4.164-49.955-7.3-74.524-13.111c-14.224-3.365-28.215-7.713-42.311-11.618c0.756-37.956,1.781-75.909,2.197-113.87
		c0.47-42.802,5.792-85.059,12.871-127.173c3.646-21.695,8.29-43.249,9.859-65.257c2.587-36.299-1.964-72.241-5.213-108.269
		c-1.836-20.362-7.224-40.395-6.796-60.88c0.462-22.151-2.706-43.77-5.306-65.653c-3.596-30.265-7.526-60.4-13.45-90.284
		c-6.041-30.468-11.185-61.072-14.752-91.944c-1.779-15.396-2.69-30.92-6.073-46.116c-7.499,7.463-9.657,17.091-11.066,27.076
		c-2.132,15.105-5.671,29.902-9.996,44.523c-0.82,2.774-1.831,5.191-5.095,5.686c8.349,22.861,12.772,46.88,20.862,69.851
		c6.909,19.614,12.331,39.69,13.747,60.661c0.875,12.949,1.136,25.938,2.163,38.854c2.208,27.798,5.521,55.508,7.722,83.307
		c3.225,40.736,5.786,81.526,8.791,122.281c2.55,34.582-1.133,68.674-8.158,102.437c-5.518,26.522-12.257,52.893-13.132,80.067
		c-1.485,46.171-3.205,92.326-5.824,138.442c-0.412,7.25,2.276,12.394,7.052,17.213c4.627,4.668,10.219,7.189,16.539,8.352
		c28.819,5.304,57.984,7.988,87.168,9.32c33.2,1.516,66.44-0.32,99.621-2.431C583.643,1340.588,564.422,1337.316,545.201,1334.045z"></path>
	<path fill-rule="evenodd" clip-rule="evenodd" class="colour1" fill="#009FDA" d="M562.764,112.036c-5.054-4.604-11.902-7.991-13.598-15.639
		c-14.809,7.62-30.481,13.354-45.457,20.546c-22.813,10.953-45.991,20.985-69.633,29.934c-18.496,7.001-37.375,12.871-56.453,18.131
		c-20.642,5.692-37.983,18.569-57.409,26.916c-37.456,16.094-66.03,42.649-89.326,75.428
		c-20.536,28.893-29.978,62.329-38.267,96.067c-6.167,25.108-8.096,50.727-6.158,76.592c1.371,18.283-0.261,36.042-9.351,52.546
		c-4.744,8.613-7.416,18.109-10.591,27.376c-2.602,7.593-5.063,15.25-8.068,22.685c-3.604,8.917-1.796,17.279,5.854,23.254
		c4.645,3.627,9.382,7.153,14.244,10.482c19.194,13.143,40.825,20.523,63.003,26.724c29.551,8.262,59.313,15.222,90.244,14.577
		c11.51-0.24,22.875-3.441,34.512-2.152c3.265-0.495,4.275-2.912,5.095-5.686c4.325-14.621,7.864-29.417,9.996-44.523
		c1.41-9.984,3.567-19.612,11.066-27.076c5.932-8.469,11.529-17.065,8.671-28.22c-0.542-2.115,0.876-2.69,2.193-3.578
		c6.979-4.705,12.247-11.085,16.822-17.99c26.333-39.737,45.255-82.89,58.184-128.655c11.173-39.552,24.034-78.332,45.696-113.658
		c11.412-18.611,22.288-37.578,38.517-52.628c17.263-16.01,34.607-31.933,51.917-47.894
		C596.397,135.686,578.115,126.018,562.764,112.036z"></path>
	<path fill-rule="evenodd" clip-rule="evenodd" class="colour2" fill="#262262" d="M855.375,151.464c-1.54-6.646-5.322-12.609-5.961-19.532
		c-3.882-7.929-7.976-15.59-15.068-21.386c-14.95-12.216-32.002-20.626-50.098-26.488c-22.721-7.359-46.1-12.293-69.928-14.848
		c-35.567-3.814-71.175-6.183-106.973-4.224c-13.117,0.718-24.856,3.982-34.319,14.029c-5.428,5.763-11.26,11.542-19.448,13.681
		c-2.007,0.525-3.238,2.114-4.414,3.7c1.696,7.648,8.543,11.035,13.598,15.639c15.352,13.982,33.634,23.65,51.704,33.561
		c2.271,1.141,4.582,2.21,6.808,3.433c15.957,8.771,32.156,17.125,49.318,23.228c32.943,11.714,67.063,18.183,101.804,21.599
		c19.782,1.945,39.227-0.396,58.034-6.184c14.576-4.486,24.924-13.871,26.069-30.474
		C856.128,155.287,855.814,153.361,855.375,151.464z"></path>
	<g>
		<path fill-rule="evenodd" clip-rule="evenodd" class="colour4" fill="#bcbec0" d="M835.008,817.086c-10.302,13.423-20.508,26.871-32.893,38.482
			c-30.046,28.172-64.554,49.916-100.149,70.248c-39.211,22.396-80.034,41.313-121.72,58.496
			c-7.956,4.762-16.961,6.93-25.534,10.111c-14.297,5.307-28.815,10.02-43.24,14.981c-2.873,3.804-7.774,3.031-11.484,5.01
			c-1.171,0.624-2.623,0.606-3.088,2.176c2.151,0.115,4.307,0.375,6.458,0.333c17.459-0.337,34.827-2.214,52.24-3.183
			c25.075-1.396,49.341-6.271,73.148-13.953c4.32-1.393,8.704-2.594,13.058-3.884c0.181,0.58,0.361,1.159,0.541,1.74
			c-33.506,16.599-69.471,26.034-106.53,33.965c2.027,2.401,3.346,1.759,4.658,1.555c18.19-2.82,36.047-7.229,53.91-11.542
			c22.321-5.391,44.387-11.729,66.056-19.371c23.888-8.424,47.201-18.131,69.881-29.519c14.201-7.13,28.266-14.27,40.938-23.918
			c2.557-4.259,6.663-6.9,10.383-9.944c6.8-6.514,13.394-13.262,20.445-19.493c13.157-11.626,23.809-25.488,35.378-38.544
			c5.313-5.997,12.452-10.271,16.965-17.103c9.114-13.795,17.27-28.131,24.45-43.034c5.737-11.91,12.574-23.334,21.087-33.318
			c23.717-27.814,37.512-59.987,45.028-95.403c3.601-16.967,9.209-33.417,19.432-47.74c18.05-25.29,28.855-53.326,32.802-84.078
			c-0.324-1.354-0.436-2.662,0.781-3.688c0.604-3.82,1.207-7.643,1.812-11.464c-0.56-0.984-0.63-1.905,0.35-2.688
			c-0.024-1.277-0.049-2.555-0.073-3.833c-1.252-1.721-1.203-3.297,0.515-4.69c1.002-1.891,0.825-3.92,0.7-5.944
			c-1.585-1.146,0.108-3.974-2.386-4.656c-0.086,1.047-0.174,2.095-0.26,3.144c0.621,1.426,0.713,2.773-0.586,3.91
			c-0.354,2.445-0.706,4.893-1.06,7.34c1.207,2.268-0.257,3.911-1.319,5.647c-0.217,1.836-0.434,3.675-0.65,5.513
			c0.59,1.114,0.453,2.059-0.642,2.782c-0.146,0.663-0.291,1.327-0.437,1.992c0.488,1.119,0.346,2.063-0.76,2.74
			c-0.157,0.656-0.314,1.314-0.473,1.973c0.398,2.465-0.077,4.673-1.909,6.48c-1.135,2.894-2.863,5.599-2.823,8.867
			c0.667,1.189,0.374,2.15-0.691,2.927c-0.841,3.073-1.682,6.147-2.524,9.221c-0.279,2.304-0.269,4.735-2.674,6.106
			c-0.276,0.726-0.555,1.453-0.833,2.18c0.288,1.217-0.108,2.097-1.282,2.587c-8.558,15.245-16.979,30.573-28.094,44.207
			c-2.718,3.334-5.81,6.354-7.945,10.198c-8.133,14.63-15.543,29.599-21.708,45.166c-12.538,31.658-29.561,60.282-55.174,83.341
			C854.778,790.589,845.033,804.022,835.008,817.086z"></path>
		<path fill-rule="evenodd" clip-rule="evenodd" class="colour4" fill="#bcbec0" d="M436.576,447.88c2.011,0.977,4.651,2.569,3.362,5.971
			c-0.884,2.333-4.064,4.76-2.554,6.758c1.613,2.135,4.532-0.724,6.964-1.039c17.2-2.229,34.541-0.733,51.778-2.247
			c14.458-1.27,29.001-1.583,43.503-2.366c5.65-0.306,11.293-0.738,17.316-1.138c-1.055,2.508-2.573,3.081-3.957,3.805
			c-13.911,7.282-27.792,14.62-41.75,21.814c-10.428,5.375-21.334,9.845-31.046,16.554c9.708,0.632,19.178-1.417,28.633-2.94
			c16.429-2.646,32.786-5.784,49.108-9.035c7.438-1.481,14.792-3.495,22.062-5.673c10.317-3.093,20.578-6.357,31.198-8.281
			c0.836-0.151,2.007-0.368,2.466,1.835c-35.263,12.176-70.592,24.375-106.724,36.852c3.698,0.7,6.396,0.249,9.115-0.228
			c25.116-4.403,50.133-9.325,74.939-15.22c15.446-3.671,31.068-6.664,46.233-11.471c8.058-3.079,15.703-7.271,24.259-9.006
			c0.773-0.074,1.546-0.147,2.318-0.221c0.603-0.074,1.204-0.148,1.805-0.222c0.875-0.761,1.627-1.878,2.644-2.232
			c17.838-6.194,34.88-14.204,51.678-22.734c8.266-4.197,16.915-7.747,25.655-13.733c-2.98-0.209-4.676-0.376-6.375-0.441
			c-17.846-0.678-35.732-0.807-53.53-2.134c-24.291-1.813-48.603-3.121-72.92-4.43c-20.197-1.087-40.413-1.898-60.592-3.25
			c-28.793-1.927-57.54-4.995-86.448-3.637c-3.686,0.173-8.749-1.189-10.972,3.538c-1.796,3.816-3.21,2.747-5.373,0.503
			c-1.341-1.391-3.093-2.403-4.722-3.496c-11.603-7.785-24.147-13.934-36.244-20.838c-1.229-1.104-2.751-1.452-4.342-1.579
			c-12.687-1.013-25.264-3.043-37.894-4.387c-22.015-2.342-43.778-6.468-65.956-7.796c-34.355-2.058-67.121,1.736-96.045,22.072
			c-9.771,6.869-17.421,15.848-19.069,28.502c0.126,1.015,0.252,2.018,0.378,3.021c4.704-12.112,14.54-18.705,25.827-23.434
			c24.625-10.319,50.406-11.088,76.4-8.022c29.614,3.494,58.864,9.23,88.018,15.474c6.687,1.432,13.914,3.614,20.327,2.417
			c18.207-3.398,32.34,5.454,46.469,13.896c5.593,3.342,10.17,3.734,15.843,1.97c16.898-5.254,34.444-4.609,51.833-5.581
			c-2.937,1.089-5.95,1.69-8.959,2.312c-14.96,3.092-30.45,3.556-44.917,9.11c-4.197,1.612-8.333,3.604-13.054,2.953
			c-0.355,0.383-0.75,0.803-1.151,0.121c-0.078-0.133,0.294-0.531,0.457-0.808c1.694-3.798,2.054-7.125-2.637-9.178
			c-5.582-2.442-11.055-5.13-16.628-7.594c-5.315-2.349-11.085-4.042-16.656-2.425c-11.89,3.451-23.954,3.782-36.159,3.578
			c11.061,2.648,21.92,5.765,33.495,1.817c5.165-1.761,11.059-1.341,15.958,1.869C425.377,441.365,430.698,445.025,436.576,447.88z"></path>
		<path fill-rule="evenodd" clip-rule="evenodd" class="colour4" fill="#bcbec0" d="M1044.052,444.034c-0.618,0.593-1.236,1.185-1.856,1.776
			c9.797,33.601,13.742,67.748,10.366,102.724c-2.223,23.012-9.306,44.684-17.901,65.819c-5.327,13.099-13.573,24.803-21.999,36.251
			c-7.526,10.229-14.183,21.236-15.336,34.086c-1.697,18.913-6.341,36.631-16.779,52.635c-3.477,9.265-9.73,16.764-15.585,24.518
			c0.027-0.005,0.051-0.015,0.08-0.018c0,0-0.124,0.076-0.124,0.075c0.015-0.02,0.029-0.038,0.044-0.058
			c-0.341,0.055-0.577,0.252-0.699,0.607c-4.232,9.509-8.642,18.935-10.055,29.433c-2.326,17.275-3.782,34.686-9.185,51.449
			c-3.729,11.576-5.833,23.729-11.149,34.734c-10.992,22.752-27.843,41.312-45.014,59.305
			c-16.287,17.067-31.718,34.918-48.203,51.758c-11.18,11.419-20.146,24.623-31.104,36.139
			c-15.34,16.121-34.041,27.677-53.363,38.302c-23.079,12.69-46.807,24.096-70.902,34.678
			c-16.316,7.166-32.829,14.008-49.645,19.876c-14.236,4.969-28.703,9.504-42.873,14.552c-27.486,9.79-55.277,18.545-83.018,27.507
			c-7.51,2.426-14.933,5.121-22.396,7.692c1.062,0.998,1.817,0.994,2.525,0.809c14.55-3.815,28.994-8.11,43.671-11.345
			c12.757-2.811,25.703-4.728,38.193-8.747c17.341-5.579,34.877-10.514,52.038-16.709c23.818-8.598,47.859-16.681,71.042-26.835
			c20.627-9.035,41.082-18.507,61.239-28.649c25.094-12.627,49.104-26.333,67.401-48.315c5.138-6.173,10.471-12.166,16.721-17.376
			c14.485-12.073,28.592-24.533,40.979-38.901c10.384-12.044,20.924-24.103,32.596-34.849
			c16.176-14.894,29.271-31.579,37.703-51.967c3.398-8.213,5.168-16.884,8.175-25.19c4.747-13.107,10.777-26.035,12.126-39.941
			c2.125-21.89,7.45-42.855,14.699-63.465c3.246-11.003,5.224-22.354,9.135-33.177c0.656-1.815,0.887-3.838,2.65-5.068
			c0.188-0.161,0.261-0.363,0.22-0.606c0.236-0.595,0.472-1.189,0.707-1.784c3.974-9.849,7.858-19.738,10.619-30.004
			c3.87-14.389,10.033-27.661,18.374-40.007c11.315-16.748,20.901-34.678,24.873-54.432
			C1063.039,541.587,1059.993,492.337,1044.052,444.034z"></path>
		<path fill-rule="evenodd" clip-rule="evenodd" class="colour4" fill="#bcbec0" d="M495.494,1013.891c4.858-3.012,10.28-4.969,15.945-6.088
			c19.372-7.79,38.729-15.622,58.147-23.296c1.461-0.578,3.031-2.832,4.983-0.676c0.906-1.033,1.83-1.268,2.781-0.247
			c0.047-0.531,0.025-1.334,0.194-1.377c6.824-1.722,12.167-6.353,18.354-9.275c45.195-21.349,88.343-46.239,129.52-74.553
			c21.399-14.715,42.337-29.985,58.945-50.318c-0.078-1.384,0.567-2.177,1.939-2.374c1.347-1.531,2.695-3.063,4.044-4.597
			c-0.188-1.371,0.329-2.238,1.755-2.456c0.214-0.344,0.431-0.689,0.646-1.034c-0.284-1.391,0.233-2.259,1.653-2.536
			c1.387-1.947,2.773-3.895,4.159-5.843c-0.14-1.337,0.4-2.174,1.768-2.397c2.204-3.492,4.41-6.986,6.615-10.479
			c-0.272-1.385,0.262-2.242,1.657-2.533c0.614-1.143,1.229-2.285,1.845-3.429c-0.21-1.29,0.271-2.146,1.561-2.497
			c1.768-3.273,3.536-6.549,5.305-9.824c-0.001-0.001-0.002-0.001-0.003-0.002c0.291-0.049,0.494-0.212,0.603-0.488
			c-0.668-0.625-1.333-1.25-1.997-1.875c-0.333,0.18-0.49,0.459-0.473,0.838c-2.18,2.618-4.358,5.237-6.537,7.857
			c-0.012,1.354-0.692,2.194-1.973,2.576c-2.463,3.085-4.926,6.172-7.388,9.258c-0.352,1.893-1.54,3.036-3.287,3.682
			c-0.389,0.416-0.777,0.833-1.167,1.25c-0.484,1.818-1.691,2.972-3.388,3.674c-0.533,0.675-1.066,1.351-1.601,2.025
			c-0.302,1.876-1.427,3.104-3.081,3.914c-0.962,1.044-1.926,2.089-2.89,3.133c-0.081,1.432-0.789,2.215-2.271,2.197
			c-4.257,4.067-8.514,8.135-12.771,12.202c-0.327,1.331-1.184,2.018-2.545,2.088c-1.094,0.909-2.188,1.819-3.283,2.729
			c-0.433,1.236-1.286,1.915-2.611,1.964c-0.231,0.253-0.516,0.419-0.851,0.496c-0.544,1.216-1.457,1.789-2.802,1.604
			c-3.155,2.479-6.311,4.959-9.466,7.439c-0.979,1.947-2.486,3.1-4.729,3.15c-0.56,0.37-1.119,0.741-1.679,1.113
			c-1.03,1.446-2.279,2.53-4.186,2.525c-1.032,0.637-2.065,1.273-3.099,1.91c-0.598,1.098-1.399,1.867-2.77,1.721
			c-1.052,0.596-2.104,1.193-3.158,1.791c-1.226,1.815-2.972,2.723-5.115,2.933c-3.347,1.881-6.693,3.764-10.04,5.646
			c-1.376,1.652-3.139,2.553-5.282,2.71c-1.38,0.712-2.761,1.425-4.142,2.137c-0.78,0.866-1.61,1.636-2.908,1.491
			c-2.036,1.692-4.22,3.133-6.761,3.966c-1.207,1.836-3.016,2.648-5.094,3.007c-1.863,0.964-3.727,1.928-5.59,2.894
			c-1.227,1.773-2.948,2.71-5.056,2.992c-0.616,0.249-1.232,0.498-1.849,0.748c-3.911,2.495-7.838,4.961-12.278,6.449
			c-0.265,0.229-0.573,0.354-0.924,0.373c-4.067,2.931-8.382,5.376-13.24,6.753c-0.264,0.222-0.567,0.345-0.91,0.373
			c-0.543,1.219-1.392,1.893-2.799,1.562c-1.429,0.664-2.858,1.33-4.287,1.994c-1.458,2.25-3.839,2.652-6.196,3.104
			c-0.285,0.214-0.607,0.334-0.964,0.358c-3.847,3.367-8.487,5.12-13.289,6.546c-0.624,0.251-1.25,0.501-1.875,0.751
			c-1.608,2.071-3.995,2.457-6.34,2.932c-0.624,0.237-1.248,0.475-1.872,0.711c-1.668,1.973-4.013,2.436-6.375,2.86
			c-0.633,0.225-1.266,0.451-1.9,0.677c-9.697,4.854-19.501,9.441-30.086,12.086c-0.614,0.275-1.229,0.552-1.844,0.828
			c-0.666,1.07-1.483,1.848-2.886,1.498c-0.98,0.332-1.961,0.666-2.942,0.998c-0.643,1.131-1.55,1.761-2.908,1.536
			c-0.636,0.227-1.271,0.452-1.908,0.679c-7.521,5.697-16.676,7.03-25.402,9.507c-0.751,0.186-1.502,0.373-2.254,0.559
			c-2.391,2.108-5.331,2.695-8.366,3.019c-0.757,0.155-1.514,0.313-2.271,0.47c-1.711,1.359-3.537,2.281-5.802,1.504
			c-1.017,0.183-2.035,0.364-3.053,0.548c-0.776,0.929-1.828,1.222-2.977,1.286c-1.006,0.909-2.144,1.456-3.543,1.268
			c-0.522,1.004-1.342,1.276-2.396,0.978c-0.762,0.166-1.525,0.332-2.288,0.497c-0.958,1.095-2.164,1.308-3.519,0.983
			c-1.2,0.385-2.4,0.769-3.6,1.154c-1.374,1.229-2.828,2.254-4.826,1.886c-0.75,0.181-1.5,0.363-2.25,0.544
			c-6.965,4.173-15.087,5.284-22.446,8.496c-6.262,2.731-12.694,5.041-18.231,9.147c-1.765,1.308-3.838,1.736-5.568,1.059
			c-7.63-2.987-15.904-4.434-22.766-9.295c0.021,1.216,0.042,2.433,0.064,3.649c0.07,0.432,0.141,0.863,0.211,1.293
			c0.773,8.359-0.518,16.782,0.778,25.122c5.846-3.866,11.894-7.318,18.455-9.886c2.889-1.13,5.575-1.54,8.502-0.405
			c14.404,5.587,29.707,3.168,44.538,4.956C490.531,1012.888,494.119,1014.742,495.494,1013.891z"></path>
		<path fill-rule="evenodd" clip-rule="evenodd" class="colour4" fill="#bcbec0" d="M577.523,983.767c-0.058-0.071-0.115-0.121-0.172-0.183
			c-0.004,0.042-0.007,0.085-0.012,0.123L577.523,983.767z"></path>
		<path fill-rule="evenodd" clip-rule="evenodd" class="colour4" fill="#bcbec0" d="M278.801,216.117c-0.065-0.011-0.13-0.016-0.196-0.029
			c0,0.056,0,0.111-0.001,0.167c0.042-0.024,0.084-0.048,0.125-0.072C278.752,216.16,278.777,216.14,278.801,216.117z"></path>
		<path fill-rule="evenodd" clip-rule="evenodd" class="colour4" fill="#bcbec0" d="M286.241,213.731c13.025-4.679,26.218-8.165,40.248-7.915
			c20.244,0.361,40.056,4.287,59.147,10.059c36.661,11.083,72.914,23.578,109.079,36.22c24.582,8.592,49.524,13.959,75.605,12.367
			c45.423-2.772,90.748-6.995,136.207-9.277c3.595-0.181,7.137-1.422,10.703-2.17c-0.07-0.775-0.141-1.55-0.209-2.326
			c-2.364,0.135-4.784-0.245-7.06,0.747c-0.464,1.158-1.108,1.761-2.279,0.74c-0.91-0.035-1.821-0.071-2.732-0.106
			c-0.703,0.882-1.383,0.904-2.038-0.051c-12.356-0.839-24.712,0.914-37.037,0.313c-28.1-1.367-56.184-0.653-84.248,0.431
			c-24.707,0.954-48.564-2.396-71.566-11.496c-31.241-12.359-62.578-24.487-93.656-37.246
			c-26.136-10.73-52.737-18.134-81.348-15.473c-0.648,0.061-1.344-0.4-2.354-0.727c0.779-0.588,1.18-1.119,1.669-1.22
			c2.307-0.477,4.623-0.995,6.962-1.212c23.162-2.158,45.93-0.19,68.19,6.752c11.559,3.605,23.093,7.291,34.638,10.939
			c0.003-0.735,0.007-1.471,0.012-2.206c-2.534-0.883-5.165-1.561-7.59-2.682c-17.289-7.991-34.995-14.814-53.983-17.298
			c-18.518-2.421-37.146-4.385-54.08,6.664c1.056,0.077,2.228-0.599,3.115,0.446c0.089,0.105-0.124,0.7-0.306,0.765
			c-1.218,0.438-2.502,1.01-3.402-0.561c-1.489,1.734-3.669,2.018-5.639,2.811c-15.678,6.307-30.961,13.323-43.488,25.096
			C281.665,216.589,283.804,214.607,286.241,213.731z"></path>
		<path fill-rule="evenodd" clip-rule="evenodd" class="colour4" fill="#bcbec0" d="M750.659,987.487c-6.159,6.043-13.484,10.563-20.388,15.635
			c-1.356,0.996-3.285,1.354-3.867,3.266c-1.625,0.143-2.854,0.867-3.547,2.387c-0.991-0.031-1.84,0.204-2.263,1.234
			c0.983,0.015,1.839-0.207,2.286-1.194c1.7-0.021,3.456,0.036,3.537-2.374c2.263,0.317,4.072-0.633,6.027-1.707
			c4.979-2.734,9.952-5.495,15.004-8.106c10.768-5.567,21.487-11.298,31.389-18.437c8.949-6.452,16.556-14.493,25.277-21.115
			c19.057-14.472,37.097-30.18,56.215-44.616c32.571-24.593,54.972-57.31,69.571-95.46c7.57-19.786,14.51-39.912,25.877-58.009
			c7.744-12.33,15.05-24.894,21.341-38.03c6.339-13.234,9.58-27.222,10.098-41.861c1.842-1.053,1.52-2.788,1.356-4.472
			c-1.048,1.312-1.681,2.754-1.427,4.474c-0.441,0.781-1.052,1.528-1.218,2.364c-5.09,25.614-18.895,47.191-31.696,69.301
			c-9.075,15.674-20.934,29.556-29.339,45.572c-15.438,29.416-32.174,57.96-52.939,83.993c-3.118,5.036-7.604,8.742-12.081,12.462
			c-3.321,4.59-7.66,7.805-13.029,9.623c-5.61,4.888-11.871,9.112-16.501,15.008c-8.32,10.593-18.737,18.973-28.747,27.777
			c-13.088,11.513-25.545,23.771-39.77,33.954c-0.498,0.938-1.346,1.24-2.326,1.299C757.469,983.947,754.495,986.26,750.659,987.487
			z"></path>
		<path fill-rule="evenodd" clip-rule="evenodd" class="colour4" fill="#bcbec0" d="M759.46,980.459c0.014-0.001,0.026-0.003,0.04-0.004
			c0.006-0.01,0.013-0.019,0.019-0.028C759.519,980.427,759.459,980.459,759.46,980.459z"></path>
		<path fill-rule="evenodd" clip-rule="evenodd" class="colour4" fill="#bcbec0" d="M250.358,242.204c0.021,0.01,0.041,0.016,0.062,0.026
			c-0.005-0.026-0.005-0.047-0.011-0.074L250.358,242.204z"></path>
		<path fill-rule="evenodd" clip-rule="evenodd" class="colour4" fill="#bcbec0" d="M290.264,234.564c39.561,4.001,78.136,12.941,115.946,25.146
			c21.337,6.888,41.912,15.801,62.615,24.349c10.152,4.191,19.878,9.661,30.883,11.342c29.564,4.514,59.314,6.426,89.223,5.648
			c-3.472-2.226-7.896,0.158-11.312-2.337c-3.111-0.28-6.222-0.56-9.334-0.84c-0.907,0.525-1.766,0.651-2.488-0.309
			c-3.125-0.349-6.247-0.754-9.379-1.038c-28.786-2.604-56.392-9.54-82.503-22.151c-6.546-3.161-13.336-5.815-19.996-8.744
			c-22.864-10.055-46.5-18.002-70.21-25.747c-9.242-1.604-18.208-4.257-27.118-7.123c-14.656-2.68-29.397-4.509-44.26-5.788
			c-20.537-1.767-39.268,2.772-56.712,13.491c-1.497,0.919-2.935,2.825-5.198,1.766c0.179,0.957-0.297,1.262-1.183,1.159
			c0.181,0.871-0.321,1.195-1.093,1.301c0,0,0.031-0.068,0.031-0.068c-0.289,0.458-0.579,0.917-0.866,1.377
			c-1.944,0.956-2.976,2.749-4.089,4.465c4.137-2.241,8.211-4.605,12.422-6.697C266.554,238.346,277.923,233.316,290.264,234.564z"></path>
		<path fill-rule="evenodd" clip-rule="evenodd" class="colour4" fill="#bcbec0" d="M249.187,243.384c0.018,0.002,0.033,0.002,0.051,0.004
			c-0.004-0.019-0.003-0.034-0.008-0.053L249.187,243.384z"></path>
		<path fill-rule="evenodd" clip-rule="evenodd" class="colour4" fill="#bcbec0" d="M424.048,990.341c1.051,0.094,1.875,0.426,1.795,1.708
			c0.875-1.245,1.763-0.756,2.651-0.019c0.968,0.38,1.935,0.761,2.903,1.142c0.769,0.116,1.759-0.033,2.274,0.391
			c7.481,6.171,13.931,3.256,20.689-1.668c4.774-3.477,10.199-6.111,16.257-6.905c0.036-0.27,0.188-0.427,0.456-0.474
			c1.151-1.907,2.926-2.51,5.038-2.406c1.345-0.393,2.69-0.787,4.035-1.181c6.585-3.324,13.131-6.752,20.583-7.778
			c0.64-0.14,1.28-0.278,1.92-0.418c1.756-1.938,4.019-2.5,6.524-2.398c1.149-0.585,2.299-1.173,3.45-1.759
			c3.566-2.474,7.684-3.483,11.818-4.445c1.443-0.62,2.887-1.241,4.33-1.861c1.049-1.188,2.325-1.833,3.944-1.658
			c0.585-0.33,1.171-0.659,1.756-0.99c0.803-0.847,1.624-1.659,2.948-1.436c4.471-2.726,8.942-5.452,13.413-8.179
			c-1.524-2.516-3.537,0.083-5.244-0.5c-17.952,8.922-37.547,12.179-56.853,16.404c-11.291,2.471-22.683,4.5-33.936,7.13
			c-10.715,2.505-21.574,4.55-32.48,4.588c-5.693,0.021-4.591,2.267-3.773,5.257c0.449,1.641,1.719,3.055,2.618,4.57
			C422.419,988.125,423.689,988.779,424.048,990.341z"></path>
		<path fill-rule="evenodd" clip-rule="evenodd" class="colour4" fill="#bcbec0" d="M282.637,312.245c-3.782,0.154-7.961-0.278-13.104,1.345
			c7.355,0.401,13.213,0.69,19.068,1.046c14.694,0.892,29.029,4.201,43.508,6.536c8.238,0.808,16.576,0.993,24.469,3.939
			c0.763,0.114,1.525,0.228,2.288,0.341c1.381-0.501,2.629-0.418,3.617,0.818c0.761,0.131,1.524,0.263,2.286,0.394
			c0.983-0.448,1.836-0.375,2.459,0.616c0.758,0.199,1.516,0.397,2.275,0.596c1.286-0.008,2.571-0.017,3.865-0.019
			c-0.787-0.526-1.512-1.294-2.388-1.556C342.156,317.689,312.984,311.007,282.637,312.245z"></path>
		<path fill-rule="evenodd" clip-rule="evenodd" class="colour4" fill="#bcbec0" d="M185.702,398.408c-0.048,2.417-0.095,4.835-0.143,7.258
			c1.486-3.547,4.459-6.441,5.189-10.678C188.232,395.529,187.982,398.367,185.702,398.408z"></path>
		<path fill-rule="evenodd" clip-rule="evenodd" class="colour4" fill="#bcbec0" d="M977.761,895.067c1.261-1.596,1.92-2.429,2.566-3.245
			c0.023,0.013,0.046,0.025,0.069,0.038c-0.009-0.032-0.017-0.063-0.024-0.095l-0.058,0.049c-0.31-3.352,1.368-6.298,1.935-9.468
			c0.461-1.619,0.531-3.22-0.26-4.771C980.18,882.993,978.702,888.482,977.761,895.067z"></path>
		<path fill-rule="evenodd" clip-rule="evenodd" class="colour4" fill="#bcbec0" d="M203.107,324.814c2.928-1.021,4.272-3.798,6.296-5.8
			c4.475-4.423,8.735-9.118,14.348-12.137c17.399-9.358,36.366-13.352,55.76-15.031c22.379-1.938,44.095,3.394,65.892,7.467
			c18.945,3.54,37.555,8.572,55.67,14.884c16.645,5.8,32.538,13.74,48.817,20.607c10.298,4.344,20.451,10.277,31.604,10.871
			c27.836,1.48,55.629,4.114,83.541,4.079c3.633-0.067,7.535-1.036,9.95,2.973c1.685,0.349,3.307,0.227,4.823-0.662
			c1.854-1.782,3.822-1.557,5.844-0.328c3.251-0.354,6.503-0.708,9.756-1.062c3.962-1.878,8.042-0.936,12.101-0.503
			c11.121-1.287,22.288-2.274,33.357-3.919c38.078-5.659,75.795-13.327,113.523-20.903c17.877-3.59,35.759-7.25,53.443-11.662
			c13.077-3.263,26.005-7.229,38.938-11.089c8.159-2.435,16.716-3.857,24.864-6.64c-0.009-0.831-0.018-1.661-0.025-2.492
			c-9.9,3.699-20.508,4.24-30.747,5.678c-22.081,3.101-43.876,8.244-66.253,9.399c-10.96,0.565-21.85,2.358-32.799,3.244
			c-29.14,2.357-58.276,4.778-87.448,6.656c-14.48,0.933-29.016,1.79-43.557,0.833c-6.762,0.833-13.495,0.772-20.182-0.661
			c-5.094-0.134-10.188-0.269-15.282-0.403c-3.239,0.805-6.433,0.812-9.547-0.546c-6.78,0.811-13.499,0.333-20.179-0.967
			c-1.202,0.851-2.347,0.691-3.451-0.195c-2.725-0.2-5.45-0.4-8.176-0.6c-2.468,0.691-4.859,0.493-7.174-0.609
			c-1.94-0.192-3.88-0.385-5.82-0.579c-2.092,0.686-4.089,0.467-5.987-0.643c-1.54-0.135-3.08-0.27-4.62-0.405
			c-5.487,0.277-10.686-1.226-15.908-2.583c-17.049-2.415-33.072-8.689-49.277-13.936c-33.446-10.829-67.617-17.815-102.453-21.556
			c-10.491-1.127-21.126-1.662-31.782-1.609c-9.955,0.05-19.929-2.31-29.895-0.066c-18.233,4.104-36.248,8.775-52.221,19.144
			c-8.864,5.754-15.233,14.089-22.774,21.21c-1.201,3.454-2.957,6.747-3.031,10.523c-1.167,0.563-1.11,1.618-1.039,2.675
			C202.969,326.822,203.434,325.977,203.107,324.814z"></path>
		<polygon fill-rule="evenodd" clip-rule="evenodd" class="colour4" fill="#bcbec0" points="186.305,395.067 185.979,395.13 186.298,395.245 		"></polygon>
		<path fill-rule="evenodd" clip-rule="evenodd" class="colour4" fill="#bcbec0" d="M278.604,216.255c-0.255,0.146-0.51,0.293-0.764,0.44
			c0.253,0.089,0.507,0.179,0.761,0.27C278.601,216.728,278.603,216.492,278.604,216.255z"></path>
		<path fill-rule="evenodd" clip-rule="evenodd" class="colour4" fill="#bcbec0" d="M975.661,903.08c-4.275,24.507-5.964,49.411-11.796,73.691
			c-2.972,12.37-3.953,25.205-8.467,37.231c-5.577,14.858-14.994,27.601-23.047,41.062c-8.444,14.116-20.286,25.414-32.554,36.256
			c-16.769,14.82-32.595,30.66-49.716,45.126c-22.191,18.751-45.506,35.85-70.199,51.114c-4.431,2.739-8.732,5.688-13.094,8.539
			c0.271,0.491,0.54,0.981,0.811,1.472c1.887-0.884,3.828-1.669,5.65-2.67c6.524-3.588,12.934-7.392,19.523-10.853
			c15.325-8.049,29.618-17.728,43.84-27.52c17.171-11.822,32.651-25.756,48.463-39.258c15.963-13.63,32.745-26.511,45.102-43.794
			c11.067-15.478,22.638-30.704,30.09-48.435c3.845-9.15,4.169-19.121,6.34-28.656c5.9-25.916,10.623-51.876,9.209-78.677
			c-0.35-6.629,1.341-13.367,2.093-20.055C976.597,899.354,975.99,901.193,975.661,903.08z"></path>
		<path fill-rule="evenodd" clip-rule="evenodd" class="colour4" fill="#bcbec0" d="M942.02,927.451c-13.671,16.701-23.703,36.03-37.862,52.404
			c-2.101,2.43-4.893,5.192-3.705,9.828c14.104-14.228,24.053-30.896,35.002-46.811c1.312-4.275,3.92-7.716,6.987-10.861
			c1.04-2.842,3.891-4.862,3.741-8.244c1.349-0.283,1.612-1.145,1.251-2.339c2.061-0.664,2.331-2.328,2.287-4.166
			c-1.94,0.736-2.787,2.085-2.34,4.152c-1.253,0.333-1.471,1.217-1.222,2.351C943.645,923.701,943.181,926.034,942.02,927.451z"></path>
		<path fill-rule="evenodd" clip-rule="evenodd" class="colour4" fill="#bcbec0" d="M761.302,1200.334c1.658,0.648,2.504-0.388,3.836-1.77
			C762.709,1197.728,761.681,1198.373,761.302,1200.334z"></path>
		<path fill-rule="evenodd" clip-rule="evenodd" class="colour4" fill="#bcbec0" d="M981.526,894.102c0.333-1.109-0.235-1.768-1.13-2.241
			c0.214,0.847,0.429,1.693,0.644,2.54C981.208,894.302,981.486,894.237,981.526,894.102z"></path>
		<path fill-rule="evenodd" clip-rule="evenodd" class="colour4" fill="#bcbec0" d="M467.852,483.728c0.475,0.549,0.954,1.093,1.433,1.637
			c4.255-0.051,7.579-2.86,11.577-3.749C476.244,480.875,471.765,480.657,467.852,483.728z"></path>
		<path fill-rule="evenodd" clip-rule="evenodd" class="colour4" fill="#bcbec0" d="M479.863,496.198c-0.536,0.371-1.072,0.741-1.607,1.111
			C479.077,497.351,479.582,496.935,479.863,496.198z"></path>
	</g>
	<g>
		<path fill-rule="evenodd" clip-rule="evenodd" class="colour2" fill="#262262" d="M203.046,324.841c0.022-0.007,0.04-0.02,0.062-0.027
			c-0.004-0.016-0.005-0.031-0.01-0.047L203.046,324.841z"></path>
		<path fill-rule="evenodd" clip-rule="evenodd" class="colour2" fill="#262262" d="M700.842,350.501c-42.68,7.264-85.613,11.597-128.764,14.325
			c-27.877,1.763-55.887,0.5-83.697,3.531c-8.651,0.943-16.996,2.126-25.486-1.486c-13.933-5.929-28.165-11.149-42.21-16.817
			c-21.725-8.768-43.931-16.047-66.624-21.852c-7.317-2.343-14.634-4.687-21.951-7.031c-14.479-2.335-28.814-5.645-43.508-6.536
			c-5.855-0.355-11.713-0.645-19.068-1.046c5.143-1.623,9.322-1.191,13.104-1.345c30.347-1.238,59.519,5.444,88.343,14.056
			c0.876,0.262,1.601,1.03,2.396,1.562c9.188,1.253,18.188,3.25,26.789,6.812c0.85,0.234,1.7,0.47,2.551,0.705
			c8.039,1.23,15.689,3.61,22.758,7.696c1.11,0.441,2.222,0.885,3.334,1.329c2.359-0.142,4.396,0.591,6.093,2.239
			c2.295,0.837,4.594,1.678,6.892,2.518c3.489,0.312,6.716,1.337,9.519,3.501c1.147,0.433,2.298,0.868,3.45,1.303
			c4.512,0.508,8.701,2.002,12.662,4.175c0.879,0.256,1.761,0.512,2.643,0.769c0.87-0.584,1.563-0.397,2.092,0.482
			c1.632,0.107,3.266,0.214,4.9,0.322c7.537-3.093,15.611-3.418,23.511-3.808c19.568-0.965,39.133-1.845,58.639-3.751
			c2.198-0.215,4.266-0.674,5.826-2.403c-27.912,0.035-55.705-2.599-83.541-4.079c-11.153-0.593-21.306-6.526-31.604-10.871
			c-16.279-6.867-32.173-14.807-48.817-20.607c-18.115-6.313-36.726-11.344-55.67-14.884c-21.796-4.073-43.513-9.405-65.892-7.467
			c-19.394,1.679-38.36,5.673-55.76,15.031c-5.612,3.019-9.873,7.714-14.348,12.137c-2.024,2.002-3.369,4.779-6.296,5.8
			c0.327,1.163-0.138,2.008-1.097,2.656c-1.727,4.979-3.574,9.918-5.152,14.942c-2.558,8.137-5.491,16.206-5.579,24.901
			c-1.652,0.518-1.009,1.879-1.066,2.98c0.873-0.799,1.743-1.598,1.121-2.947c4.75-3.911,9.467-7.862,14.258-11.722
			c7.34-5.914,15.862-9.304,24.984-11.196c13.345-2.769,26.744-5.167,41.901-3.078c-35.243,3.306-66.26,12.128-84.777,44.318
			c-1.642,3.021-0.919,6.388-1.402,9.577c0,0,0.007-0.177,0.007-0.178c-0.201,1.114-0.402,2.228-0.604,3.341
			c2.28-0.041,2.531-2.879,5.046-3.419c-0.73,4.237-3.703,7.131-5.189,10.678c-1.248,10.191-1.902,20.396-0.456,30.633
			c1.648-12.643,9.299-21.622,19.069-28.491c28.925-20.335,61.69-24.129,96.045-22.072c22.178,1.328,43.941,5.454,65.956,7.796
			c12.629,1.344,25.207,3.374,37.894,4.387c1.591,0.127,3.113,0.475,4.342,1.579c11.213-1.311,22.17,1.116,32.269,5.05
			c14.599,5.688,27.842,5.953,43.25,1.26c34.006-10.359,69.829-10.244,105.296-14.157c-2.194-0.596-5.637,0.423-5.697-2.074
			c-0.067-2.814,3.33-1.763,5.197-2.138c11.742-2.357,23.695-3.786,35.36-6.293c35.724-7.68,71.107-16.833,106.203-27.044
			c18.998-5.528,37.902-11.395,56.984-16.615c11.918-3.261,23.386-7.524,34.557-12.701c-10.256,4.292-21.165,6.608-31.91,8.74
			C760.275,339.407,730.657,345.427,700.842,350.501z"></path>
		<path fill-rule="evenodd" clip-rule="evenodd" class="colour2" fill="#262262" d="M496.126,457.323c-17.238,1.514-34.579,0.018-51.778,2.247
			c-2.432,0.315-5.351,3.174-6.964,1.039c-1.51-1.999,1.669-4.425,2.554-6.758c1.289-3.402-1.351-4.994-3.362-5.971
			c-5.878-2.855-11.199-6.515-16.628-10.072c-4.9-3.209-10.793-3.629-15.958-1.869c-11.574,3.947-22.434,0.831-33.495-1.817
			c12.206,0.205,24.269-0.126,36.159-3.578c5.571-1.617,11.341,0.076,16.656,2.425c5.573,2.463,11.046,5.151,16.628,7.594
			c4.691,2.053,4.332,5.38,2.635,9.176c0,0.001,0.001,0.001,0.002,0.002c-0.162,0.277-0.534,0.675-0.457,0.808
			c0.402,0.682,0.796,0.262,1.151-0.121c4.72,0.651,8.856-1.34,13.054-2.953c14.466-5.554,29.956-6.018,44.917-9.11
			c3.009-0.622,6.022-1.223,8.959-2.312c-17.39,0.971-34.935,0.326-51.833,5.581c-5.673,1.764-10.25,1.372-15.843-1.97
			c-14.128-8.442-28.262-17.294-46.469-13.896c-6.413,1.196-13.641-0.986-20.327-2.417c-29.154-6.244-58.404-11.98-88.018-15.474
			c-25.995-3.066-51.776-2.297-76.4,8.022c-11.287,4.729-21.124,11.322-25.827,23.434c-0.033,4.127-0.31,8.27-0.053,12.379
			c0.777,12.463-1.706,24.25-7.178,35.384c-6.34,12.896-10.908,26.442-15.347,40.059c-1.76,5.401-3.671,10.773-5.89,15.999
			c-3.385,7.971-1.303,16.768,5.519,22.409c18.727,15.487,39.991,26.166,63.101,33.326c24.942,7.729,50.217,14.099,76.154,17.412
			c16.401,2.096,32.851,3.058,49.061-1.665c-0.843-3.774,2.028-6.684,2.367-10.182c-7.9-2.355-15.973-0.789-23.963-1.03
			c-33.776-1.02-66.624-7.445-98.915-17.001c-21.175-6.265-41.779-13.82-58.74-28.745c-1.915-1.685-3.819-3.401-5.56-5.261
			c-9.603-10.255-7.282-8.577,3.388-12.952c4.554-1.867,10.026-1.495,15.081-2.141c27.883-15.255,57.629-24.693,89.034-29.517
			c29.382-4.512,58.806-7.95,88.57-8.345c7.592-0.101,15.32,0.013,22.746-2.394c2.549-0.826,5.2-0.169,7.446,1.032
			c5.459,2.919,6.324,0.363,5.73-4.406c-0.144-1.157-0.021-2.347-0.021-4.114c2.484,1.476,4.538,5.045,7.62,1.372
			c0.546-0.651,1.395,0.939,1.638,1.809c0.678,2.41,1.761,4.724,1.316,8.203c1.448-1.249,2.417-1.722,2.826-2.493
			c4.668-8.792,12.141-10.681,21.546-10.196c11.795,0.608,23.152-3.792,34.899-4.552c3.909-3.065,8.388-2.847,13.005-2.106
			c-3.998,0.888-7.321,3.698-11.577,3.749c-13.727,3.706-26.462,10.25-40.244,14.15c16.588,2.221,32.823-1.826,49.215-2.206
			c0.537-0.37,1.072-0.74,1.608-1.111l0.326-0.205c9.715-6.71,20.622-11.181,31.05-16.556c13.957-7.194,27.839-14.532,41.75-21.814
			c1.384-0.724,2.901-1.297,3.957-3.805c-6.023,0.4-11.666,0.833-17.316,1.138C525.127,455.74,510.584,456.053,496.126,457.323z"></path>
		<path fill-rule="evenodd" clip-rule="evenodd" class="colour2" fill="#262262" d="M228.854,293.061c15.973-10.369,33.987-15.04,52.221-19.144
			c9.966-2.243,19.939,0.116,29.895,0.066c10.655-0.053,21.291,0.482,31.782,1.609c34.836,3.741,69.007,10.727,102.453,21.556
			c16.205,5.247,32.228,11.521,49.277,13.936c13.022-1.401,26.065-0.982,39.106-0.462c6.488-0.255,12.979-0.51,19.471-0.765
			c4.47-1.954,9.061-0.97,13.624-0.561c2.036-0.074,4.076-0.148,6.115-0.222c2.521-1.979,5.277-1.307,8.023-0.714
			c3.961-0.188,7.927-0.377,11.892-0.567c7.966-2.415,16.248-1.338,24.363-2.137c7.371-0.725,14.732-1.216,22.254-3.408
			c-2.081-3.182-5.153-0.956-7.173-2.314c-2.076,0.136-4.157,0.271-6.237,0.408c-4.761,2.457-9.865,1.015-14.791,1.127
			c-7.392,0.168-14.797-0.251-22.196-0.42c-29.909,0.778-59.659-1.134-89.223-5.648c-11.005-1.681-20.731-7.151-30.883-11.342
			c-20.703-8.548-41.278-17.461-62.615-24.349c-37.81-12.205-76.386-21.145-115.946-25.146c-12.341-1.248-23.71,3.782-34.622,9.203
			c-4.21,2.092-8.285,4.456-12.422,6.697c-16.919,18.627-29.202,39.953-37.14,63.807C213.622,307.15,219.99,298.815,228.854,293.061
			z"></path>
		<path fill-rule="evenodd" clip-rule="evenodd" class="colour2" fill="#262262" d="M402.717,240.524c-0.168,0.007-0.335,0.004-0.502,0.007
			c0.21,0.063,0.418,0.124,0.63,0.188C402.8,240.622,402.756,240.522,402.717,240.524z"></path>
		<path fill-rule="evenodd" clip-rule="evenodd" class="colour2" fill="#262262" d="M402.877,240.729c-0.011-0.003-0.022-0.006-0.033-0.01
			c0.019,0.042,0.038,0.084,0.057,0.118C402.888,240.776,402.874,240.715,402.877,240.729z"></path>
		<path fill-rule="evenodd" clip-rule="evenodd" class="colour2" fill="#262262" d="M823.086,323.886c-0.399,0.292-0.8,0.583-1.199,0.875
			l-0.003,0.001c-0.019,0.009-0.038,0.017-0.057,0.025c0.044-0.018,0.088-0.034,0.132-0.052c0.487-0.048,0.976-0.096,1.464-0.144
			C823.311,324.356,823.198,324.121,823.086,323.886z"></path>
		<path fill-rule="evenodd" clip-rule="evenodd" class="colour2" fill="#262262" d="M248.146,244.669c0,0.008-0.002,0.013-0.001,0.021
			c0.772-0.106,1.274-0.431,1.093-1.301c0.885,0.103,1.362-0.202,1.183-1.159c2.263,1.059,3.702-0.847,5.198-1.766
			c17.445-10.719,36.176-15.258,56.712-13.491c14.863,1.278,29.604,3.107,44.26,5.788c9.146,0.765,18.285,1.57,27.002,4.752
			c6.312,0.322,12.234,3.147,18.622,3.02c-1.113-0.332-2.212-0.651-3.292-1.014c-29.611-9.953-59.583-18.264-90.983-20.156
			c-22.747-1.371-42.642,4.408-57.543,22.796c-0.755,0.043-1.156,0.44-1.202,1.188c-0.737,0.117-1.077,0.552-1.046,1.283
			c-0.766,0.152-1.125,0.559-0.839,1.37C247.587,245.555,247.866,245.112,248.146,244.669z"></path>
	</g>
	<g>
		<path fill-rule="evenodd" clip-rule="evenodd" class="colour3" fill="#d71920" d="M426.791,1146.963c12.335-0.825,24.699-1.189,36.795-4.091
			c16.764-4.021,33.35-8.623,49.777-13.915c9.454-3.045,19.479-4.988,28.719-8.171c11.913-4.103,23.923-8.678,35.383-14.261
			c1.326,0.305,2.154-0.339,2.742-1.441c1.844-0.705,3.688-1.412,5.531-2.119c1.294,0.364,2.152-0.209,2.771-1.295
			c4.164-1.989,8.33-3.98,12.494-5.971c1.97,0.43,3.551-0.321,4.949-1.629c2.312-0.978,4.624-1.955,6.936-2.933
			c1.721,0.361,2.808-0.527,3.67-1.862c5.841-2.563,11.684-5.127,17.526-7.689c1.391,0.457,2.295-0.074,2.82-1.385
			c0.667-0.262,1.336-0.526,2.003-0.79c3.638-0.859,7.233-1.808,9.912-4.694c3.366-1.644,6.732-3.286,10.098-4.93
			c1.449,0.396,2.305-0.198,2.678-1.602c0.348-0.151,0.696-0.304,1.043-0.457c1.383,0.191,2.167-0.508,2.594-1.743
			c1.007-0.787,2.015-1.574,3.022-2.362c4.554-0.428,9.042-1.026,12.305-4.781c2.814-1.681,5.629-3.362,8.444-5.043
			c6.492-3.874,12.983-7.747,19.474-11.621c-0.31-0.599-0.621-1.198-0.931-1.797c-7.116,3.558-14.233,7.115-21.35,10.674
			c-0.358,0.147-0.71,0.313-1.055,0.493c-3.035,0.37-5.993,0.938-8.297,3.203c-0.377,0.127-0.755,0.254-1.133,0.382
			c-2.433,0.121-4.854,0.271-6.296,2.702c-7.444,2.446-14.896,4.876-22.334,7.344c-44.978,14.922-90.198,28.993-136.598,38.926
			c-0.602-0.733-1.204-1.469-1.806-2.203c7.58-2.385,15.161-4.768,22.742-7.152c1.057,0.277,1.877,0.006,2.373-1.021
			c0.725-0.226,1.451-0.45,2.176-0.674c1.288,0.694,2.21,0.209,2.936-0.911c1.055-0.344,2.109-0.688,3.164-1.033
			c1.626,0.429,3.044,0.276,3.917-1.402c2.605-0.895,5.211-1.79,7.817-2.687c0.554,0.488,0.912,0.271,1.168-0.321
			c0.379-0.14,0.759-0.278,1.14-0.417c1.653,0.497,2.792-0.368,3.849-1.454c0.349-0.208,0.699-0.418,1.049-0.627
			c0.412-0.273,0.825-0.548,1.239-0.821c2.698,0.007,4.775-1.793,7.232-2.49c8.458-2.369,15.962-6.478,22.667-12.169
			c-9.312,4.205-19.396,5.832-28.783,9.52c-3.64,3.618-8.491,2.125-12.774,2.947c-33.743,6.48-67.917,8.933-102.163,10.503
			c-8.172,0.374-16.38-0.787-24.537,1.043c-4.548,1.021-9.251,1.352-13.884,1.994c-1,4.379-2.138,8.732-2.972,13.142
			c-2.243,11.86-5.887,23.463-6.613,35.604C408.823,1147.591,417.701,1147.572,426.791,1146.963z"></path>
		<path fill-rule="evenodd" clip-rule="evenodd" class="colour3" fill="#d71920" d="M992.778,1081.149c-3.071-16.667-7.649-33.041-7.898-50.222
			c-0.215-14.847-1.19-29.709-2.549-44.497c-0.399-4.348,0.259-8.998-1.778-13.177c-0.055,20.622-3.158,40.986-5.196,61.438
			c0.395,1.298,0.471,2.546-0.559,3.621c-0.104,0.789-0.208,1.578-0.313,2.368c-2.466,10.184-3.951,20.601-7.629,30.506
			c4.345-5.589,6.21-12.045,7.856-18.709c0.792-3.204-0.334-7.622,4.12-9.326c-1.426,5.478-1.414,11.159-2.258,16.688
			c-5.158,33.858-16.021,65.261-40.697,90.381c-1.108,0.813-2.314,1.557-2.281,3.19c0.373,0.451,0.743,0.896,1.111,1.34
			c0.913,0.348,1.356-0.262,1.795-0.889c8.459-6.621,16.162-14.021,22.587-22.654c3.296-4.432,6.292-9.087,9.419-13.645
			c-0.013-0.061-0.014-0.12-0.028-0.182c0.042-0.006,0.068-0.021,0.106-0.03c0.061-0.733,0.12-1.469,0.181-2.203
			c0.39-0.039,0.779-0.079,1.171-0.118c1.723-1.125,2.373-2.555,1.833-4.463c0.54,1.908-0.11,3.338-1.832,4.463
			c-0.401,0.806-0.082,2.057-1.353,2.321c-0.003,0.037-0.006,0.073-0.009,0.11c-0.023,0.034-0.046,0.068-0.069,0.102
			c0.632,3.023-0.66,5.717-1.821,8.285c-5.164,11.424-11.118,22.421-19.18,32.106c-25.349,30.455-55.866,54.931-88.827,76.565
			c-0.422,0.254-0.845,0.508-1.267,0.761c-2.44,1.605-4.883,3.212-7.325,4.82c-2.898,1.076-6.006,1.875-8.126,6.409
			c4.201-1.519,7.415-1.91,9.952-4.226c2.22-0.826,4.438-1.654,6.658-2.481c0.626,0.298,1.062,0.117,1.313-0.525
			c0.725-0.329,1.45-0.658,2.176-0.986c0.59,0.421,0.949,0.174,1.195-0.41c1.2-0.514,2.402-1.028,3.605-1.542
			c0.634,0.248,1.064,0.048,1.305-0.586c2.297-1.053,4.596-2.107,6.895-3.161c0.663,0.318,1.045,0.073,1.211-0.605
			c1.964-0.975,3.927-1.95,5.889-2.925c0.652,0.313,1.031,0.06,1.225-0.587c1.941-0.948,3.884-1.897,5.826-2.847
			c1.458,0.45,2.307-0.168,2.72-1.551c4.244-2.587,8.487-5.175,12.731-7.762c0.68,0.194,1.081-0.076,1.247-0.744
			c6.177-4.142,12.246-8.459,18.553-12.394c36.197-22.581,54.041-56.876,62.354-97.301c0,0,0.194-0.082,0.195-0.085
			c0.645,2.933,0.174,5.831-0.125,8.76c-1.14,11.149-5.538,21.345-9.138,31.775c-0.337,0.974-1.703,2.052,0.106,2.795
			c1.119,0.46,1.76-0.596,2.282-1.391c1.691-2.568,3.283-5.202,4.986-7.763c8.654-13.012,8.497-27.754,8.487-42.499
			c-0.002-1.979-1.301-4.261,0.843-5.976C994.724,1087.915,993.411,1084.585,992.778,1081.149z"></path>
		<path fill-rule="evenodd" clip-rule="evenodd" class="colour3" fill="#d71920" d="M642.718,1038.505c-0.016-0.034-0.024-0.063-0.039-0.096
			c-0.012,0.003-0.024,0.005-0.036,0.007L642.718,1038.505z"></path>
		<path fill-rule="evenodd" clip-rule="evenodd" class="colour3" fill="#d71920" d="M647.246,1037.439c25.088-7.435,49.887-15.646,73.349-27.431
			c0.423-1.03,1.271-1.266,2.263-1.234c0.692-1.52,1.922-2.244,3.547-2.387c0.582-1.912,2.511-2.27,3.867-3.266
			c6.903-5.072,14.229-9.592,20.388-15.635c-0.941,0.019-1.882,0.036-2.821,0.054c-8.811,5.469-17.447,11.214-27.327,14.771
			c-3.449,1.242-6.575,3.403-9.804,5.226c-13.479,7.6-28.502,11.714-42.239,18.698c-7.289,3.705-15.606,4.519-22.705,8.543
			c-1.288,0.729-4.513,0.463-3.084,3.631C644.203,1038.093,645.759,1037.881,647.246,1037.439z"></path>
		<path fill-rule="evenodd" clip-rule="evenodd" class="colour3" fill="#d71920" d="M726.422,1006.386c-0.006,0.001-0.012,0.002-0.018,0.002
			c-0.006,0.019-0.016,0.031-0.021,0.05L726.422,1006.386z"></path>
		<path fill-rule="evenodd" clip-rule="evenodd" class="colour3" fill="#d71920" d="M722.901,1008.774c-0.015-0.001-0.028,0-0.044,0
			c-0.006,0.014-0.014,0.025-0.021,0.04L722.901,1008.774z"></path>
		<path fill-rule="evenodd" clip-rule="evenodd" class="colour3" fill="#d71920" d="M925.038,1163.976c3.473-2.759,8.866-3.636,9.671-9.221
			c-0.37-0.446-0.74-0.892-1.113-1.343c-10.627,7.044-19.653,16.008-29.233,24.354
			C912.14,1174.463,918.552,1169.127,925.038,1163.976z"></path>
		<path fill-rule="evenodd" clip-rule="evenodd" class="colour3" fill="#d71920" d="M825.574,1127.825c-31.674,18.938-63.271,37.974-98.37,50.276
			c-21.247,7.447-42.416,15.069-64.346,20.324c-1.364-0.778-2.25-0.178-2.933,1.017c-1.094,0.208-2.19,0.416-3.286,0.626
			c-0.211-0.901-0.423-1.804-0.633-2.705c1.017-0.323,2.035-0.647,3.054-0.972c0.727,0.198,1.077-0.165,1.23-0.825
			c5.044-0.216,9.062-3.307,13.505-5.086c31.013-12.418,61.906-25.244,90.507-42.678c24.32-14.822,48.906-29.354,70.55-48.147
			c10.383-9.016,20.639-18.188,31.273-26.897c8.177-6.695,17.566-11.773,25.238-19.25c6.047-5.894,10.863-12.827,16.909-18.673
			c-1.25-0.216-2.502-0.432-3.752-0.647c-2.679,2.593-5.359,5.188-8.038,7.781c-1.429-0.08-2.253,0.583-2.464,2.002
			c-3.894,2.892-7.789,5.785-11.684,8.678c-1.361-0.176-2.253,0.377-2.646,1.706c-1.097,0.587-2.193,1.175-3.292,1.763
			c-2.327-0.055-3.546,1.567-4.783,3.164c-3.938,2.469-7.875,4.938-11.813,7.406c-1.377-0.143-2.184,0.521-2.55,1.807
			c-1.915,1.354-3.831,2.706-5.748,4.061c-1.341-0.052-2.128,0.644-2.527,1.868c-0.305,0.21-0.61,0.419-0.918,0.626
			c-1.402-0.17-2.251,0.446-2.575,1.81c-5.876,4.46-11.754,8.919-17.632,13.38c-1.303-0.011-2.07,0.707-2.523,1.854
			c-1.481,1.011-2.964,2.023-4.446,3.035c-1.408-0.147-2.188,0.556-2.527,1.861c-8.78,5.667-17.777,10.964-27.057,15.778
			c-2.066,0.217-3.875,0.897-5.014,2.787c-2.189,1.168-4.38,2.337-6.57,3.506c-1.412-0.423-2.32,0.099-2.77,1.479
			c-1.438,0.7-2.876,1.401-4.314,2.102c-2.432,0.137-4.883,0.231-6.081,2.93c-0.001,0-0.001,0-0.001,0
			c-0.359,0.189-0.719,0.38-1.078,0.568c-0.404,0.229-0.809,0.458-1.212,0.687c-1.118,0.638-2.237,1.277-3.355,1.916
			c-1.367-0.657-2.234-0.047-2.88,1.134c-3.765,1.616-7.529,3.234-11.295,4.852c-1.494-0.702-2.312-0.071-2.714,1.378
			c-0.682,0.267-1.365,0.531-2.047,0.798c-1.729-0.484-2.847,0.336-3.695,1.733c-1.515,0.616-3.031,1.233-4.549,1.851
			c-2.468-0.002-4.873,0.141-6.231,2.702c-0.698,0.229-1.397,0.459-2.097,0.689c-3.561,0.574-7.139,1.101-9.8,3.924
			c-1.046,0.317-2.092,0.635-3.138,0.952c-3.924,0.537-7.973,0.726-10.955,3.905c-1.049,0.363-2.1,0.727-3.149,1.09
			c-2.581-0.468-4.843-0.062-6.38,2.33c-1.039,0.342-2.078,0.685-3.118,1.027c-3.674,0.121-7.262,0.496-9.997,3.39
			c-1.465,0.548-2.931,1.099-4.397,1.647c-0.48-0.496-0.813-0.339-1.052,0.237c-0.883,0.369-1.767,0.738-2.651,1.109
			c-0.371,0.096-0.741,0.191-1.112,0.287c-0.671,0.194-1.344,0.389-2.016,0.583c-2.854-0.273-5.615-0.257-7.511,2.432
			c-0.717,0.24-1.435,0.48-2.152,0.72c-1.681-0.518-3.109-0.396-3.823,1.52c-1.414,0.396-2.828,0.794-4.242,1.191
			c-1.376-0.825-2.267-0.259-2.91,1.018c-1.037,0.323-2.074,0.647-3.11,0.972c-1.479-0.454-2.311,0.188-2.693,1.593
			c-0.763,0.095-1.526,0.19-2.289,0.286c-1.627-1.455-2.813-1.032-3.652,0.86c-0.752,0.097-1.504,0.193-2.258,0.291
			c-2.339-1.097-4.046,0.198-5.748,1.518c-0.729,0.139-1.458,0.275-2.187,0.414c-1.403-0.757-2.287-0.178-2.89,1.125
			c-0.723,0.141-1.446,0.281-2.17,0.422c-2.799-1.594-4.944-0.374-6.915,1.605c-0.715,0.198-1.431,0.398-2.147,0.598
			c-3.275-0.637-6.307-0.259-8.853,2.136c-2.166,0.457-4.332,0.917-6.498,1.376c-3.904-0.189-7.84-0.531-11.136,2.269
			c-0.748,0.133-1.497,0.267-2.246,0.4c-5.666,0.355-11.281,0.93-16.378,3.766c-0.73,0.161-1.462,0.321-2.194,0.481
			c-5.55-0.009-10.829,1.136-15.779,3.694c-2.246,0.199-4.533,0.202-6.589,1.34c-1.167,1.303-2.501,2.003-3.958,2.265
			c1.457-0.263,2.792-0.964,3.958-2.267c-1.618-0.387-3.237-0.772-4.853-1.156c-0.817,0.047-1.637,0.095-2.457,0.141
			c-0.094,1.047-0.188,2.094-0.281,3.139c-0.738,0.137-1.476,0.272-2.213,0.408c0.054-1.095,0.108-2.189,0.163-3.285
			c0.776-0.088,1.553-0.175,2.331-0.262c0.821-0.046,1.641-0.094,2.458-0.141c1.314-0.804,2.533-1.938,3.963-2.361
			c18.966-5.614,37.912-11.308,56.966-16.611c15.487-4.311,31.169-8.082,46.063-14.149c28.956-11.796,58.427-22.53,85.198-39.107
			c4.026-1.035,6.983-3.43,8.953-7.256c-3.469,1.521-7.501,1.605-10.213,4.698c-5.126,2.159-10.144,4.643-15.398,6.428
			c-32.372,10.987-65.415,19.619-99.012,25.721c-28.945,5.258-58.186,8.871-87.238,13.563c-30.801,4.974-61.618,9.71-92.698,12.668
			c-12.22,1.163-24.214,1.098-36.033-2.516c-0.066,4.306-0.049,8.613-0.215,12.915c-1.099,28.481-2.238,56.963-3.364,85.444
			c10.577,8.16,19.016,17.702,36.079,12.191c29.623-9.565,60.425-15.461,90.691-23.06c15.609-3.919,31.354-7.495,46.64-12.453
			c27.061-8.778,53.669-18.955,80.743-27.689c27.717-8.943,54.668-19.746,81.155-31.7c31.634-14.281,60.753-32.87,88.521-53.615
			c1.501,0.26,2.279-0.45,2.524-1.879c2.47-1.973,4.939-3.945,7.41-5.918c6.019-3.936,11.343-8.601,14.915-15.287
			C836.562,1119.445,831.068,1123.635,825.574,1127.825z"></path>
		<path fill-rule="evenodd" clip-rule="evenodd" class="colour3" fill="#d71920" d="M764.258,1126.826c0.404-0.229,0.809-0.457,1.213-0.687
			C764.799,1125.895,764.412,1126.154,764.258,1126.826z"></path>
	</g>
	<g>
		<path class="colour2" fill="#262262" d="M987.15,679.145c0.025-0.014,0.041-0.031,0.065-0.045c0.002-0.042,0.005-0.085,0.006-0.127
			C987.222,678.972,987.148,679.146,987.15,679.145z"></path>
		<path class="colour2" fill="#262262" d="M759.519,980.427c-0.018,0.007-0.034,0.014-0.052,0.021c-0.003,0.004-0.006,0.008-0.008,0.012
			L759.519,980.427z"></path>
		<path class="colour2" fill="#262262" d="M722.837,1008.814c0.015,0,0.029,0,0.044,0c0.006-0.015,0.015-0.025,0.021-0.04L722.837,1008.814z"></path>
		<path class="colour2" fill="#262262" d="M726.384,1006.438c0.012,0.002,0.022,0.001,0.034,0.003c0.001-0.02,0.004-0.035,0.004-0.055
			L726.384,1006.438z"></path>
		<path class="colour2" fill="#262262" d="M947.426,921.399c-0.017,0.004-0.028,0.011-0.045,0.016c0.002,0.011,0.002,0.021,0.005,0.033
			L947.426,921.399z"></path>
		<path class="colour2" fill="#262262" d="M981.989,877.576c1.037-8.158,2.171-16.303,3.096-24.472c3.053-26.918,4.966-53.974,11.578-80.404
			c8.696-34.763,16.637-69.719,27.009-104.047c0.378-1.251,1.423-2.951-0.367-3.513c-2.172-0.682-1.689,1.703-2.036,2.75
			c-8.31,25.152-19.354,49.355-26.037,75.069c0.352,0.956-0.03,1.691-0.705,2.338c-0.134,0.803-0.269,1.606-0.403,2.409
			c0.342,1.272-0.143,2.32-0.893,3.296c-0.109,0.473-0.221,0.946-0.33,1.42c-0.323,2.82-0.554,5.661-1.968,8.219
			c-0.133,0.807-0.266,1.614-0.397,2.422c0.396,1.285-0.058,2.369-0.8,3.385c-0.061,0.446-0.121,0.895-0.183,1.342
			c0.369,1.347-0.035,2.493-0.9,3.522c-0.148,0.792-0.295,1.585-0.442,2.379c0.349,1.278-0.084,2.359-0.854,3.353
			c-0.085,0.455-0.17,0.91-0.255,1.365c0.355,1.335-0.091,2.464-0.896,3.5c-0.15,0.808-0.303,1.615-0.454,2.424
			c0.331,1.237-0.101,2.288-0.797,3.274c-0.091,0.48-0.182,0.962-0.271,1.443c-0.718,5.182-1.161,10.42-3.105,15.354l-0.019,0.081
			c0.207,0.755-0.161,1.072-0.862,1.136c-0.127,1.189-0.253,2.379-0.38,3.569c-0.327,10.777-3.058,21.204-4.712,31.783
			c-3.985,25.487-10.831,50.169-21.565,73.692c-2.937,6.436-6.687,12.416-10.518,18.346c-1.88,3.949-4.759,7.08-8.067,9.861
			c-10.949,15.914-20.898,32.583-35.002,46.811c-1.188-4.636,1.604-7.398,3.705-9.828c14.159-16.374,24.191-35.703,37.862-52.404
			c1.161-1.417,1.625-3.75,4.14-3.686c-0.249-1.134-0.031-2.018,1.222-2.351c-0.447-2.067,0.399-3.416,2.34-4.152
			c7.354-16.336,13.08-33.204,17.468-50.593c4.704-18.642,8.798-37.368,11.113-56.463c0.233-1.575,0.468-3.15,0.703-4.726
			c0.075-1.148,0.151-2.297,0.227-3.445c0.104-1.146,0.207-2.294,0.312-3.44c1.113-3.039,0.307-6.5,2.061-9.398
			c2.3-10.688,4.599-21.374,6.897-32.063c-0.68-0.246-1.357-0.494-2.037-0.741c-7.249,20.609-12.574,41.575-14.699,63.465
			c-1.349,13.906-7.379,26.834-12.126,39.941c-3.007,8.307-4.776,16.978-8.175,25.19c-8.433,20.388-21.527,37.073-37.703,51.967
			c-11.672,10.746-22.212,22.805-32.596,34.849c-12.387,14.368-26.493,26.828-40.979,38.901c-6.25,5.21-11.583,11.203-16.721,17.376
			c-18.298,21.982-42.308,35.688-67.401,48.315c-20.157,10.143-40.612,19.614-61.239,28.649
			c-23.183,10.154-47.224,18.237-71.042,26.835c-17.161,6.195-34.697,11.13-52.038,16.709c-12.491,4.02-25.436,5.937-38.193,8.747
			c-14.677,3.234-29.121,7.529-43.671,11.345c-0.708,0.186-1.464,0.189-2.525-0.809c7.463-2.571,14.886-5.267,22.396-7.692
			c27.741-8.962,55.532-17.717,83.018-27.507c14.17-5.048,28.636-9.583,42.873-14.552c16.816-5.868,33.329-12.71,49.645-19.876
			c24.096-10.582,47.823-21.987,70.902-34.678c19.322-10.625,38.023-22.181,53.363-38.302c10.957-11.516,19.924-24.72,31.104-36.139
			c16.485-16.84,31.916-34.69,48.203-51.758c17.171-17.993,34.021-36.553,45.014-59.305c5.316-11.005,7.42-23.158,11.149-34.734
			c5.402-16.764,6.858-34.174,9.185-51.449c1.413-10.498,5.822-19.924,10.058-29.433c0.297-0.161,0.557-0.37,0.776-0.625
			l-0.124,0.076c4.386-8.668,8.772-17.337,13.158-26.005c6.02-13.127,12.462-26.128,12.752-41.028
			c0.21-10.691,2.202-21,6.414-30.852c-0.309-1.362-0.411-2.848-2.04-3.424c-2.209,4.678-4.419,9.356-6.628,14.034
			c0.163,1.684,0.485,3.419-1.357,4.472c-0.517,14.639-3.758,28.626-10.097,41.86c-6.291,13.137-13.597,25.7-21.341,38.03
			c-11.367,18.097-18.307,38.223-25.877,58.009c-14.6,38.15-37,70.867-69.571,95.46c-19.118,14.437-37.158,30.145-56.215,44.616
			c-8.722,6.622-16.328,14.663-25.277,21.115c-9.901,7.139-20.621,12.869-31.389,18.437c-5.052,2.611-10.024,5.372-15.004,8.106
			c-1.955,1.074-3.765,2.024-6.027,1.707c-0.081,2.41-1.837,2.353-3.537,2.374c-0.447,0.987-1.303,1.209-2.286,1.194
			c-23.462,11.784-48.261,19.996-73.349,27.431c-1.488,0.442-3.044,0.653-4.569,0.97c0.015,0.032,0.022,0.059,0.037,0.091
			c-0.144-0.008-0.286-0.016-0.43-0.023c-0.707,0.12-1.414,0.24-2.121,0.36c-0.025-0.159-0.051-0.318-0.076-0.478
			c0.731,0.039,1.463,0.078,2.197,0.117c0.12-0.02,0.24-0.04,0.359-0.061c0.011-0.002,0.022-0.004,0.034-0.007
			c-1.431-3.169,1.797-2.901,3.086-3.631c7.099-4.024,15.416-4.838,22.705-8.543c13.737-6.984,28.761-11.099,42.239-18.698
			c3.229-1.822,6.354-3.983,9.804-5.226c9.88-3.557,18.517-9.302,27.328-14.771c3.17-3.523,7.3-5.472,11.628-7.094
			c0.502-0.949,1.358-1.251,2.359-1.291c14.225-10.183,26.682-22.441,39.77-33.954c10.01-8.805,20.427-17.185,28.747-27.777
			c4.63-5.896,10.891-10.12,16.501-15.008c3.813-4.418,7.682-8.777,12.669-11.95c4.073-3.189,4.923-9.083,9.76-11.631
			c-0.233-1.455,0.781-2.385,1.459-3.456c-0.072-1.29-0.342-2.467-1.731-2.993c-1.205,1.283-2.412,2.567-3.617,3.853
			c-4.125,8.464-11.79,12.633-19.83,16.344c0.002-0.001-0.301,0.224-0.301,0.224c-0.685,2.206-2.08,3.456-4.488,3.346
			c-0.702,0.651-1.404,1.306-2.105,1.958c-1.229,2.604-2.988,4.631-5.887,5.415c0.001-0.001-0.203,0.166-0.203,0.166
			c-0.031,0.701-0.404,0.984-1.085,0.891c0.001-0.002-0.199,0.196-0.199,0.196c0.017,0.735-0.31,1.075-1.063,0.914
			c-1.937,1.742-3.873,3.485-5.811,5.229c-0.775,2.397-2.149,4.093-4.896,4.18c-0.3,0.252-0.602,0.505-0.902,0.756
			c-1.343,2.621-2.998,4.847-6.298,4.999c-0.748,0.55-1.497,1.1-2.247,1.649c-0.108,0.691-0.451,1.034-1.183,0.794
			c-0.756,0.552-1.514,1.104-2.271,1.656c-0.19,1.475-0.967,2.168-2.487,1.869c-0.733,0.587-1.469,1.174-2.204,1.763
			c-1.208,2.541-3.36,3.747-6.007,4.252c-0.736,0.577-1.473,1.156-2.209,1.735c-0.158,1.456-0.955,2.106-2.416,1.916
			c-0.805,0.477-1.611,0.953-2.418,1.431c-0.393,0.31-0.785,0.618-1.177,0.928c-2.186,1.639-4.373,3.279-6.56,4.921
			c-2.859,2.531-5.693,5.112-9.879,5.045c-12.672,9.648-26.736,16.788-40.938,23.918c-22.681,11.388-45.993,21.095-69.881,29.519
			c-21.668,7.642-43.734,13.98-66.056,19.371c-17.863,4.313-35.72,8.722-53.91,11.542c-1.312,0.204-2.63,0.847-4.658-1.555
			c37.059-7.931,73.024-17.366,106.53-33.965c-0.18-0.581-0.36-1.16-0.541-1.74c-4.354,1.29-8.738,2.491-13.058,3.884
			c-23.807,7.683-48.073,12.557-73.148,13.953c-17.413,0.969-34.781,2.846-52.24,3.183c-2.151,0.042-4.307-0.218-6.461-0.337
			c-1.883,0.06-3.766,0.118-5.65,0.176c-14.833-1.789-30.136,0.63-44.54-4.957c-2.927-1.135-5.613-0.725-8.502,0.405
			c-6.562,2.567-12.609,6.02-18.455,9.886c-0.21,1.347-0.52,2.685-0.614,4.038c-1.598,23.058-4.188,45.981-9.131,68.593
			c4.633-0.643,9.336-0.974,13.884-1.994c8.156-1.83,16.364-0.669,24.537-1.043c34.246-1.57,68.42-4.022,102.163-10.503
			c4.283-0.822,9.134,0.671,12.776-2.947c9.386-3.688,19.469-5.314,28.781-9.52c-6.705,5.691-14.209,9.8-22.667,12.169
			c-2.457,0.697-4.534,2.497-7.233,2.49c-0.413,0.273-0.826,0.548-1.238,0.821c-0.35,0.209-0.7,0.419-1.05,0.628
			c-1.056,1.085-2.195,1.95-3.848,1.453c-0.381,0.139-0.761,0.277-1.142,0.417c-0.254,0.593-0.613,0.81-1.167,0.321
			c-2.606,0.896-5.212,1.792-7.817,2.688c-0.873,1.677-2.291,1.829-3.917,1.4c-1.055,0.345-2.109,0.689-3.165,1.034
			c-0.726,1.119-1.648,1.604-2.936,0.91c-0.726,0.224-1.451,0.448-2.177,0.674c-0.494,1.027-1.315,1.299-2.372,1.021
			c-7.581,2.385-15.162,4.768-22.742,7.152c0.602,0.734,1.204,1.47,1.806,2.203c46.4-9.933,91.621-24.004,136.598-38.926
			c7.438-2.468,14.89-4.897,22.335-7.346c1.442-2.429,3.863-2.579,6.295-2.7c0.378-0.128,0.756-0.255,1.134-0.383
			c2.303-2.265,5.261-2.832,8.296-3.202c0.344-0.181,0.696-0.346,1.056-0.495c7.116-3.557,14.233-7.114,21.349-10.672
			c0.31,0.599,0.621,1.198,0.931,1.797c-6.491,3.874-12.982,7.747-19.474,11.621c-2.814,1.681-5.63,3.362-8.444,5.044
			c-3.262,3.754-7.75,4.353-12.305,4.78c-1.007,0.788-2.016,1.575-3.023,2.363c-0.426,1.234-1.21,1.934-2.593,1.742
			c-0.347,0.153-0.695,0.306-1.043,0.458c-0.373,1.402-1.229,1.997-2.678,1.601c-3.366,1.644-6.732,3.286-10.099,4.931
			c-2.678,2.886-6.273,3.834-9.911,4.693c-0.667,0.264-1.336,0.528-2.004,0.791c-0.524,1.31-1.429,1.841-2.82,1.384
			c-5.842,2.563-11.685,5.127-17.527,7.689c-0.86,1.335-1.948,2.224-3.668,1.862c-2.313,0.978-4.625,1.955-6.938,2.933
			c-1.396,1.308-2.978,2.059-4.947,1.629c-4.165,1.99-8.33,3.981-12.495,5.973c-0.619,1.084-1.476,1.657-2.771,1.293
			c-1.844,0.707-3.688,1.414-5.532,2.12c-0.587,1.102-1.416,1.745-2.742,1.44c-11.46,5.583-23.47,10.158-35.383,14.261
			c-9.24,3.183-19.265,5.126-28.719,8.171c-16.427,5.292-33.013,9.895-49.777,13.915c-12.096,2.901-24.46,3.266-36.795,4.091
			c-9.09,0.609-17.968,0.628-26.371-3.49c-2.09,10.846-2.484,21.869-3.464,32.832c11.819,3.613,23.813,3.679,36.033,2.516
			c31.08-2.958,61.896-7.694,92.698-12.668c29.053-4.691,58.293-8.305,87.238-13.563c33.598-6.102,66.641-14.733,99.012-25.721
			c5.255-1.785,10.272-4.269,15.398-6.429c2.712-3.092,6.744-3.176,10.213-4.697c-1.97,3.826-4.927,6.221-8.953,7.256
			c-26.771,16.577-56.243,27.312-85.198,39.107c-14.893,6.067-30.575,9.839-46.063,14.149c-19.054,5.304-38,10.997-56.966,16.611
			c-1.43,0.424-2.649,1.558-3.966,2.361c1.619,0.384,3.238,0.77,4.856,1.156c2.056-1.136,4.342-1.139,6.589-1.34
			c4.949-2.557,10.229-3.701,15.778-3.692c0.732-0.16,1.464-0.32,2.196-0.481c5.096-2.836,10.711-3.41,16.377-3.766
			c0.749-0.134,1.498-0.268,2.247-0.401c3.296-2.799,7.232-2.457,11.136-2.268c2.167-0.459,4.332-0.919,6.499-1.378
			c2.545-2.393,5.577-2.771,8.853-2.134c0.716-0.199,1.432-0.399,2.148-0.598c1.97-1.979,4.115-3.199,6.914-1.605
			c0.724-0.141,1.447-0.281,2.171-0.423c0.603-1.302,1.487-1.881,2.89-1.124c0.729-0.139,1.458-0.275,2.188-0.414
			c1.701-1.319,3.408-2.614,5.747-1.518c0.753-0.098,1.506-0.194,2.259-0.292c0.838-1.892,2.023-2.314,3.651-0.859
			c0.763-0.096,1.526-0.191,2.29-0.287c0.381-1.404,1.213-2.046,2.692-1.592c1.037-0.324,2.074-0.648,3.111-0.973
			c0.643-1.275,1.533-1.842,2.909-1.017c1.414-0.397,2.829-0.795,4.243-1.191c0.714-1.916,2.142-2.037,3.823-1.52
			c0.717-0.239,1.436-0.479,2.153-0.721c1.896-2.688,4.656-2.704,7.51-2.431c0.672-0.194,1.345-0.389,2.018-0.583
			c0.37-0.096,0.74-0.191,1.111-0.287c0.884-0.371,1.768-0.74,2.652-1.11c0.238-0.575,0.571-0.732,1.051-0.236
			c1.466-0.549,2.932-1.1,4.398-1.648c2.734-2.893,6.322-3.268,9.996-3.389c1.04-0.343,2.079-0.686,3.118-1.028
			c1.537-2.391,3.799-2.797,6.38-2.329c1.05-0.363,2.1-0.727,3.15-1.09c2.981-3.18,7.03-3.368,10.954-3.905
			c1.046-0.317,2.092-0.635,3.139-0.952c2.66-2.823,6.238-3.35,9.799-3.924c0.699-0.23,1.398-0.461,2.099-0.689
			c1.356-2.562,3.762-2.704,6.229-2.702c1.518-0.617,3.034-1.234,4.55-1.852c0.848-1.396,1.965-2.217,3.694-1.732
			c0.682-0.267,1.365-0.531,2.047-0.798c0.402-1.449,1.22-2.08,2.714-1.378c3.766-1.617,7.53-3.235,11.296-4.853
			c0.645-1.18,1.512-1.79,2.879-1.133c1.118-0.639,2.237-1.278,3.355-1.917c0.153-0.671,0.54-0.931,1.212-0.686
			c0.359-0.188,0.719-0.379,1.079-0.568c1.197-2.698,3.649-2.793,6.081-2.93c1.438-0.7,2.877-1.401,4.315-2.104
			c0.448-1.379,1.356-1.9,2.769-1.478c2.19-1.169,4.381-2.338,6.57-3.508c1.139-1.888,2.947-2.568,5.014-2.785
			c9.279-4.814,18.276-10.111,27.058-15.779c0.338-1.305,1.118-2.008,2.526-1.86c1.482-1.012,2.965-2.024,4.447-3.036
			c0.452-1.146,1.22-1.864,2.522-1.854c5.878-4.461,11.756-8.92,17.633-13.381c0.323-1.362,1.172-1.979,2.574-1.809
			c0.308-0.207,0.613-0.416,0.918-0.627c0.399-1.224,1.187-1.919,2.527-1.867c1.917-1.354,3.833-2.707,5.749-4.062
			c0.365-1.285,1.172-1.948,2.549-1.806c3.938-2.469,7.875-4.938,11.813-7.407c1.236-1.596,2.455-3.218,4.782-3.163
			c1.099-0.588,2.195-1.176,3.294-1.764c0.391-1.328,1.282-1.881,2.644-1.705c3.895-2.893,7.79-5.786,11.684-8.679
			c0.211-1.418,1.035-2.081,2.464-2.001c2.679-2.594,5.359-5.188,8.039-7.782c6.396-9.991,14.438-18.684,22.135-27.715
			c-5.539,9.854-10.469,20.062-18.384,28.363c-6.046,5.846-10.862,12.779-16.909,18.673c-7.672,7.477-17.062,12.555-25.238,19.25
			c-10.635,8.709-20.891,17.882-31.273,26.897c-21.644,18.793-46.229,33.325-70.55,48.147
			c-28.602,17.434-59.495,30.26-90.507,42.678c-4.443,1.779-8.46,4.87-13.505,5.087c-0.153,0.659-0.503,1.022-1.229,0.824
			c-1.019,0.324-2.037,0.648-3.056,0.971c0.211,0.902,0.423,1.805,0.635,2.706c1.096-0.21,2.191-0.418,3.287-0.627
			c0.682-1.193,1.567-1.794,2.932-1.016c21.93-5.255,43.099-12.877,64.346-20.324c35.1-12.303,66.696-31.339,98.371-50.276
			c5.493-4.19,10.986-8.38,16.479-12.571c-3.572,6.687-8.896,11.352-14.915,15.287c-2.471,1.973-4.94,3.945-7.411,5.92
			c-0.244,1.427-1.022,2.137-2.523,1.877c-27.768,20.745-56.887,39.334-88.521,53.615c-26.486,11.954-53.438,22.757-81.155,31.7
			c-27.074,8.734-53.682,18.911-80.743,27.689c-15.286,4.958-31.031,8.534-46.64,12.453c-30.266,7.599-61.068,13.494-90.691,23.06
			c-17.063,5.511-25.502-4.031-36.079-12.191c-0.554,11.784-1.14,23.567-1.656,35.354c-0.565,12.924,6.946,22.895,19.563,25.987
			c10.876,2.664,21.916,4.348,33.072,5.252c21.128,1.713,42.125,4.905,63.363,5.393c20.275,0.464,40.503-0.809,60.752-1.292
			c13.96-0.333,28.007-2.645,41.857-0.829c28.23,3.699,56.444,7.229,84.848,9.444c37.065,2.89,74.101,5.121,111.315,3.758
			c32.716-1.2,65.431-2.27,98.028-5.416c22.073-2.131,43.839-5.976,65.239-11.969c14.522-4.068,28.084-9.785,39.743-19.569
			c4.901-4.112,7.186-8.94,6.125-15.519c-6.009-37.324-7.188-75.056-9.346-112.709c-1.179-20.581-2.21-41.188-5.567-61.584
			c-2.164-13.145-4.18-26.312-6.262-39.47c-2.144,1.716-0.845,3.998-0.843,5.977c0.01,14.745,0.167,29.487-8.487,42.499
			c-1.703,2.561-3.295,5.194-4.986,7.763c-0.522,0.795-1.163,1.851-2.282,1.391c-1.81-0.743-0.443-1.821-0.106-2.795
			c3.6-10.431,7.998-20.626,9.138-31.775c0.299-2.929,0.77-5.827,0.124-8.757l-0.194,0.082
			c-8.313,40.425-26.157,74.72-62.354,97.301c-6.307,3.935-12.376,8.252-18.554,12.394c-0.165,0.668-0.566,0.938-1.246,0.744
			c-4.244,2.587-8.487,5.175-12.731,7.763c-0.413,1.382-1.262,2-2.72,1.55c-1.942,0.949-3.885,1.898-5.828,2.847
			c-0.191,0.646-0.57,0.899-1.223,0.587c-1.962,0.975-3.925,1.95-5.889,2.925c-0.166,0.679-0.548,0.924-1.211,0.605
			c-2.299,1.054-4.598,2.108-6.896,3.162c-0.239,0.633-0.67,0.833-1.304,0.585c-1.203,0.514-2.405,1.028-3.606,1.542
			c-0.245,0.584-0.604,0.831-1.194,0.41c-0.726,0.328-1.451,0.657-2.177,0.986c-0.25,0.643-0.686,0.823-1.312,0.525
			c-2.22,0.827-4.438,1.655-6.658,2.482c-2.537,2.314-5.751,2.706-9.952,4.225c2.12-4.534,5.228-5.333,8.126-6.409
			c2.442-1.608,4.885-3.215,7.326-4.821c0.422-0.253,0.844-0.507,1.266-0.76c32.961-21.635,63.479-46.11,88.827-76.565
			c8.062-9.686,14.016-20.683,19.18-32.106c1.161-2.568,2.453-5.262,1.821-8.285c-3.127,4.558-6.123,9.213-9.419,13.645
			c-6.425,8.634-14.128,16.033-22.589,22.657c-0.437,0.624-0.88,1.233-1.793,0.886c-0.803,5.588-6.196,6.465-9.669,9.224
			c-6.486,5.151-12.898,10.487-20.676,13.79c9.58-8.346,18.606-17.31,29.231-24.359c-0.031-1.628,1.175-2.371,2.283-3.185
			c24.677-25.12,35.539-56.522,40.697-90.381c0.844-5.529,0.832-11.211,2.258-16.689c-4.454,1.705-3.328,6.123-4.12,9.327
			c-1.646,6.664-3.512,13.12-7.856,18.709c3.678-9.905,5.163-20.322,7.629-30.506c0.105-0.79,0.21-1.579,0.313-2.369
			c-0.472-1.309-0.466-2.542,0.559-3.62c2.038-20.452,5.142-40.816,5.196-61.438c-0.097-8.413-0.441-16.833-0.242-25.238
			c0.52-21.895,1.276-43.782,1.938-65.672c-0.566,3.173-2.244,6.119-1.935,9.471c0.005,0.002,0.009,0.005,0.013,0.008
			c0.016-0.02,0.03-0.038,0.045-0.057c0.008,0.031,0.016,0.063,0.024,0.095c0.895,0.474,1.463,1.132,1.13,2.241
			c-0.04,0.136-0.318,0.2-0.486,0.299c-0.215-0.847-0.43-1.693-0.644-2.54c-0.023-0.013-0.045-0.026-0.069-0.038
			c-0.646,0.816-1.306,1.649-2.566,3.245C978.702,888.482,980.18,882.993,981.989,877.576z M475.841,1329.65
			c-18.066-2.43-36.453-2.271-54.265-6.717c-7.942-1.983-16.222-3.239-22.494-10.214c12.565-5.789,24.722-4.057,36.756-0.126
			c30.187,9.864,61.63,13.404,92.725,18.714c4.118,0.702,8.228,1.45,12.25,2.679C519,1334.219,497.371,1332.547,475.841,1329.65z
			 M761.302,1200.334c0.379-1.961,1.407-2.606,3.836-1.77C763.806,1199.946,762.96,1200.982,761.302,1200.334z M977.909,897.655
			c-0.752,6.688-2.442,13.426-2.093,20.055c1.414,26.801-3.309,52.761-9.209,78.677c-2.171,9.535-2.495,19.506-6.34,28.656
			c-7.452,17.73-19.022,32.957-30.09,48.435c-12.356,17.283-29.139,30.164-45.102,43.794
			c-15.812,13.502-31.292,27.436-48.463,39.258c-14.222,9.792-28.515,19.471-43.84,27.52c-6.59,3.461-12.999,7.265-19.523,10.853
			c-1.822,1.001-3.764,1.786-5.65,2.67c-0.271-0.49-0.54-0.98-0.811-1.472c4.361-2.852,8.663-5.8,13.094-8.539
			c24.693-15.265,48.008-32.363,70.199-51.114c17.121-14.466,32.947-30.306,49.716-45.126c12.268-10.842,24.109-22.14,32.554-36.256
			c8.053-13.461,17.47-26.203,23.047-41.062c4.514-12.026,5.495-24.861,8.467-37.231c5.832-24.28,7.521-49.185,11.796-73.691
			C975.99,901.193,976.597,899.354,977.909,897.655z"></path>
		<path class="colour2" fill="#262262" d="M946.183,923.765c-0.009,0-0.016,0.001-0.023,0.001c0,0.003,0,0.005,0.001,0.008L946.183,923.765z"></path>
		<path class="colour2" fill="#262262" d="M531.617,1195.63c-0.054,1.096-0.108,2.191-0.163,3.286c0.738-0.136,1.476-0.271,2.213-0.407
			c0.093-1.046,0.188-2.093,0.28-3.14C533.17,1195.456,532.393,1195.543,531.617,1195.63z"></path>
		<path class="colour2" fill="#262262" d="M969.938,1115.031c-0.392,0.039-0.781,0.079-1.171,0.118c-0.061,0.734-0.12,1.47-0.181,2.203
			C969.856,1117.088,969.537,1115.837,969.938,1115.031z"></path>
		<path class="colour2" fill="#262262" d="M968.586,1117.353c-0.038,0.009-0.064,0.024-0.106,0.03c0.015,0.062,0.016,0.121,0.028,0.182
			c0.023-0.033,0.046-0.067,0.069-0.102C968.58,1117.426,968.583,1117.39,968.586,1117.353z"></path>
	</g>
	<g>
		<path fill-rule="evenodd" clip-rule="evenodd" class="colour3" fill="#d71920" d="M191.277,367.394c0.019-0.016,0.038-0.032,0.057-0.047
			c-0.008-0.017-0.01-0.032-0.018-0.049L191.277,367.394z"></path>
		<path fill-rule="evenodd" clip-rule="evenodd" class="colour3" fill="#d71920" d="M272.478,341.35c-15.157-2.089-28.556,0.309-41.901,3.078
			c-9.122,1.892-17.645,5.283-24.984,11.196c-4.791,3.86-9.508,7.811-14.258,11.722c0.622,1.349-0.248,2.147-1.121,2.947
			c-1.572,5.007-2.871,10.056-2.513,15.375C206.217,353.478,237.234,344.655,272.478,341.35z"></path>
		<path fill-rule="evenodd" clip-rule="evenodd" class="colour3" fill="#d71920" d="M718.197,459.647c-0.739-1.371-1.994-0.356-2.994,0.154
			c-9.123,3.128-18.255,6.225-27.358,9.41c-2.032,0.71-4.033,1.358-6.204,1.265c-3.067,1.962-6.721,2.078-10.068,3.163
			c-11.324,3.265-22.627,6.615-34.351,8.195c-15.164,4.803-30.786,7.796-46.231,11.467c-24.806,5.895-49.823,10.817-74.939,15.22
			c-2.72,0.477-5.417,0.928-9.115,0.228c36.132-12.477,71.461-24.676,106.724-36.852c-0.459-2.203-1.63-1.986-2.466-1.835
			c-10.62,1.924-20.881,5.188-31.198,8.281c-7.27,2.179-14.624,4.192-22.062,5.673c-16.323,3.251-32.679,6.389-49.108,9.035
			c-9.456,1.523-18.925,3.572-28.633,2.94c-0.004,0.001-0.33,0.206-0.33,0.206c-0.282,0.737-0.787,1.153-1.607,1.111
			c-16.393,0.38-32.628,4.427-49.216,2.207c13.782-3.9,26.517-10.445,40.244-14.15c-0.479-0.544-0.958-1.088-1.433-1.637
			c-11.743,0.755-23.1,5.155-34.895,4.547c-9.405-0.485-16.877,1.403-21.546,10.196c-0.409,0.771-1.378,1.244-2.826,2.493
			c0.445-3.479-0.638-5.792-1.316-8.203c-0.244-0.869-1.092-2.46-1.638-1.809c-3.083,3.673-5.136,0.104-7.62-1.372
			c0,1.768-0.123,2.958,0.021,4.114c0.594,4.77-0.271,7.326-5.73,4.406c-2.246-1.201-4.896-1.858-7.446-1.032
			c-7.425,2.406-15.153,2.292-22.746,2.394c-29.764,0.395-59.188,3.833-88.57,8.345c-31.405,4.823-61.151,14.261-89.034,29.517
			c20.767,0.007,40.185,5.994,59.347,13.25c25.82,9.777,52.705,16.493,78.225,27.155c12.46,5.206,25.5,9.288,35.471,19.094
			c1.26,1.239,2.522,2.479,3.726,3.771c0.373,0.4,0.556,0.978,0.894,1.596c-2.762,1.868-5.784,2.342-8.953,2.263
			c-0.339,3.499-3.21,6.408-2.367,10.182c3.815,1.421,7.779,0.612,11.678,0.822c4.459,0.24,6.801-1.568,7.779-6.057
			c1.542-7.079,3.495-14.077,5.475-21.052c3.594-12.66,3.709-26.007,7.848-38.576c1.531-4.65,4.464-7.836,8.541-11.616
			c1.212,9.924,2.281,18.872,3.42,27.81c0.21,1.649-0.346,3.937,1.933,4.48c9.985,2.382,20.03,5.708,30.306,4.822
			c13.669-1.179,26.94-5.057,40.234-8.46c8.479-4.246,17.943-5.278,26.844-8.184c12.528-4.088,24.804-8.784,36.975-13.793
			c1.234-0.508,2.637-0.904,3.298-2.984c-9.378-0.243-17.877,4.433-27.023,3.928c-1.196,0.175-2.396,0.352-3.597,0.529
			c-9.067,3.408-18.731,3.188-28.136,4.24c-6.169,0.69-12.383,2.585-19.697,1.373c6.909-1.646,12.491-4.743,18.892-4.095
			c1.024-0.112,2.048-0.226,3.071-0.338c0.788-1.121,1.883-1.277,3.115-0.987c0.734-0.12,1.471-0.241,2.208-0.363
			c0.657-0.944,1.488-0.576,2.303-0.306c0.818-0.216,1.641-0.435,2.463-0.653c11.517-3.142,23.055-6.211,34.548-9.438
			c56.718-15.927,113.013-33.065,166.459-58.333c0.656-0.31,1.47-0.287,2.206-0.417c0.859-0.43,1.722-0.862,2.584-1.293
			c1.106-1.517,2.512-2.529,4.445-2.652c0.504-0.282,1.014-0.565,1.523-0.849c1.782-2.105,4.211-3.084,6.745-3.872
			c0.494-0.286,0.991-0.574,1.489-0.862c0.221-1.129,0.888-1.667,2.048-1.541c0.474-0.289,0.95-0.581,1.427-0.871
			c0.313-1.163,1.098-1.606,2.253-1.478c0.144-0.352,0.408-0.516,0.79-0.49c0.4-0.549,0.801-1.097,1.201-1.646c0,0,0,0-0.001-0.001
			C717.442,461.163,718.712,460.602,718.197,459.647z"></path>
	</g>
</g>
</svg>